<?xml version="1.0" encoding="UTF-8" standalone="no"?><svg xmlns="http://www.w3.org/2000/svg" xmlns:xlink="http://www.w3.org/1999/xlink" contentStyleType="text/css" height="237px" preserveAspectRatio="none" style="width:1055px;height:237px;background:#FFFFFF;" version="1.1" viewBox="0 0 1055 237" width="1055px" zoomAndPan="magnify"><defs/><g><!--class game.components.ComponentDeserializer--><a href="ComponentDeserializer.html" target="_top" title="ComponentDeserializer.html" xlink:actuate="onRequest" xlink:href="ComponentDeserializer.html" xlink:show="new" xlink:title="ComponentDeserializer.html" xlink:type="simple"><g id="elem_game.components.ComponentDeserializer"><rect codeLine="5" fill="#F1F1F1" height="79.2422" id="game.components.ComponentDeserializer" rx="2.5" ry="2.5" style="stroke:#181818;stroke-width:0.5;" width="518" x="258" y="132.76"/><ellipse cx="431.75" cy="151.8928" fill="#ADD1B2" rx="11" ry="11" style="stroke:#181818;stroke-width:1.0;"/><path d="M434.2231,158.0359 Q433.6421,158.3347 433.0029,158.4841 Q432.3638,158.6335 431.6582,158.6335 Q429.1514,158.6335 427.8315,156.9817 Q426.5117,155.3298 426.5117,152.2087 Q426.5117,149.0793 427.8315,147.4275 Q429.1514,145.7756 431.6582,145.7756 Q432.3638,145.7756 433.0112,145.925 Q433.6587,146.0745 434.2231,146.3733 L434.2231,149.0959 Q433.5923,148.5149 432.9988,148.2451 Q432.4053,147.9753 431.7744,147.9753 Q430.4297,147.9753 429.7449,149.042 Q429.0601,150.1086 429.0601,152.2087 Q429.0601,154.3005 429.7449,155.3672 Q430.4297,156.4338 431.7744,156.4338 Q432.4053,156.4338 432.9988,156.1641 Q433.5923,155.8943 434.2231,155.3132 Z " fill="#000000"/><text fill="#000000" font-family="sans-serif" font-size="14" lengthAdjust="spacing" textLength="162" x="452.25" y="151.2952">ComponentDeserializer</text><text fill="#000000" font-family="sans-serif" font-size="10" lengthAdjust="spacing" textLength="89" x="488.75" y="163.9163">game.components</text><line style="stroke:#181818;stroke-width:0.5;" x1="259" x2="775" y1="171.0256" y2="171.0256"/><ellipse cx="269" cy="184.7698" fill="#84BE84" rx="3" ry="3" style="stroke:#038048;stroke-width:1.0;"/><text fill="#000000" font-family="sans-serif" font-size="14" lengthAdjust="spacing" textLength="492" x="278" y="188.5608">deserialize(JsonElement, Type, JsonDeserializationContext): Component</text><ellipse cx="269" cy="201.258" fill="#84BE84" rx="3" ry="3" style="stroke:#038048;stroke-width:1.0;"/><text fill="#000000" font-family="sans-serif" font-size="14" lengthAdjust="spacing" textLength="458" x="278" y="205.0491">serialize(Component, Type, JsonSerializationContext): JsonElement</text></g></a><!--class com.google.gson.JsonSerializer--><g id="elem_com.google.gson.JsonSerializer"><rect codeLine="10" fill="#F1F1F1" height="62.7539" id="com.google.gson.JsonSerializer" rx="2.5" ry="2.5" style="stroke:#181818;stroke-width:0.5;" width="484" x="7" y="10"/><ellipse cx="163.25" cy="29.1328" fill="#B4A7E5" rx="11" ry="11" style="stroke:#181818;stroke-width:1.0;"/><path d="M159.6777,25.3979 L159.6777,23.2397 L167.0571,23.2397 L167.0571,25.3979 L164.5918,25.3979 L164.5918,33.4746 L167.0571,33.4746 L167.0571,35.6328 L159.6777,35.6328 L159.6777,33.4746 L162.1431,33.4746 L162.1431,25.3979 Z " fill="#000000"/><text fill="#000000" font-family="sans-serif" font-size="14" font-style="italic" lengthAdjust="spacing" textLength="93" x="183.75" y="28.5352">JsonSerializer</text><text fill="#000000" font-family="sans-serif" font-size="10" font-style="italic" lengthAdjust="spacing" textLength="82" x="189.25" y="41.1563">com.google.gson</text><rect fill="#FFFFFF" height="16.1328" style="stroke:#181818;stroke-width:1.0;stroke-dasharray:2.0,2.0;" width="68" x="426" y="7"/><text fill="#000000" font-family="sans-serif" font-size="12" font-style="italic" lengthAdjust="spacing" textLength="66" x="427" y="19.6016">Component</text><line style="stroke:#181818;stroke-width:0.5;" x1="8" x2="490" y1="48.2656" y2="48.2656"/><ellipse cx="18" cy="62.0098" fill="#84BE84" rx="3" ry="3" style="stroke:#038048;stroke-width:1.0;"/><text fill="#000000" font-family="sans-serif" font-size="14" font-style="italic" lengthAdjust="spacing" textLength="458" x="27" y="65.8008">serialize(Component, Type, JsonSerializationContext): JsonElement</text></g><!--class com.google.gson.JsonDeserializer--><g id="elem_com.google.gson.JsonDeserializer"><rect codeLine="13" fill="#F1F1F1" height="62.7539" id="com.google.gson.JsonDeserializer" rx="2.5" ry="2.5" style="stroke:#181818;stroke-width:0.5;" width="518" x="526" y="10"/><ellipse cx="690.75" cy="29.1328" fill="#B4A7E5" rx="11" ry="11" style="stroke:#181818;stroke-width:1.0;"/><path d="M687.1777,25.3979 L687.1777,23.2397 L694.5571,23.2397 L694.5571,25.3979 L692.0918,25.3979 L692.0918,33.4746 L694.5571,33.4746 L694.5571,35.6328 L687.1777,35.6328 L687.1777,33.4746 L689.6431,33.4746 L689.6431,25.3979 Z " fill="#000000"/><text fill="#000000" font-family="sans-serif" font-size="14" font-style="italic" lengthAdjust="spacing" textLength="110" x="711.25" y="28.5352">JsonDeserializer</text><text fill="#000000" font-family="sans-serif" font-size="10" font-style="italic" lengthAdjust="spacing" textLength="82" x="725.25" y="41.1563">com.google.gson</text><rect fill="#FFFFFF" height="16.1328" style="stroke:#181818;stroke-width:1.0;stroke-dasharray:2.0,2.0;" width="68" x="979" y="7"/><text fill="#000000" font-family="sans-serif" font-size="12" font-style="italic" lengthAdjust="spacing" textLength="66" x="980" y="19.6016">Component</text><line style="stroke:#181818;stroke-width:0.5;" x1="527" x2="1043" y1="48.2656" y2="48.2656"/><ellipse cx="537" cy="62.0098" fill="#84BE84" rx="3" ry="3" style="stroke:#038048;stroke-width:1.0;"/><text fill="#000000" font-family="sans-serif" font-size="14" font-style="italic" lengthAdjust="spacing" textLength="492" x="546" y="65.8008">deserialize(JsonElement, Type, JsonDeserializationContext): Component</text></g><!--reverse link com.google.gson.JsonSerializer to game.components.ComponentDeserializer--><g id="link_com.google.gson.JsonSerializer_game.components.ComponentDeserializer"><path codeLine="17" d="M332.17,82.41 C365.18,98.3 403.03,116.52 435.84,132.31 " fill="none" id="com.google.gson.JsonSerializer-backto-game.components.ComponentDeserializer" style="stroke:#181818;stroke-width:1.0;stroke-dasharray:7.0,7.0;"/><polygon fill="none" points="329.2,88.75,314.22,73.77,335.27,76.14,329.2,88.75" style="stroke:#181818;stroke-width:1.0;"/></g><!--reverse link com.google.gson.JsonDeserializer to game.components.ComponentDeserializer--><g id="link_com.google.gson.JsonDeserializer_game.components.ComponentDeserializer"><path codeLine="18" d="M701.83,82.41 C668.82,98.3 630.97,116.52 598.16,132.31 " fill="none" id="com.google.gson.JsonDeserializer-backto-game.components.ComponentDeserializer" style="stroke:#181818;stroke-width:1.0;stroke-dasharray:7.0,7.0;"/><polygon fill="none" points="698.73,76.14,719.78,73.77,704.8,88.75,698.73,76.14" style="stroke:#181818;stroke-width:1.0;"/></g><text fill="#888888" font-family="sans-serif" font-size="10" lengthAdjust="spacing" textLength="182" x="429.5" y="227.6702">UMLDoclet 2.1.0, PlantUML 1.2022.14</text><!--SRC=[hPDHIyCm4CVV_HJ7GDYmX4ry6gKlco-Y84oVvXvYUsi3QLAI8Cwvx-wrcsrQkZbXUGdyB_UxtFyI002B3XJFqHOynWKMt72d3IYjy8h2a8a40VF2RM0jK2Qsg-ReCarofSUIMmk3q8eld4xkefdE2o8fDqUBHd19kdbJX_WuIgaoYtyFsG5m2nsDzJ9WkUpLMUPokLh1jhfEkMwI9Znyi5hTIymfAu2NJO41b593u4veDTFAuQSRJQ6kqU0QM1tqKOj-a5UuGktsVWcAcpKvxtdcKrfcaISirJgLo58wKvdLqLWxEQol67cERFcxTOR7RdUvRaurSsJsvxRZf__TqEMcVHZHQOSX_6Ril2TxbDPwr__WxO5OkWvhhSljzUbnhcD9V_gMJTWuW6V9bICLhZ_GMEfsEFe1]--></g></svg>