<?xml version="1.0" encoding="UTF-8" standalone="no"?><svg xmlns="http://www.w3.org/2000/svg" xmlns:xlink="http://www.w3.org/1999/xlink" contentStyleType="text/css" height="366px" preserveAspectRatio="none" style="width:268px;height:366px;background:#FFFFFF;" version="1.1" viewBox="0 0 268 366" width="268px" zoomAndPan="magnify"><defs/><g><!--class game.components.Gizmo--><a href="Gizmo.html" target="_top" title="Gizmo.html" xlink:actuate="onRequest" xlink:href="Gizmo.html" xlink:show="new" xlink:title="Gizmo.html" xlink:type="simple"><g id="elem_game.components.Gizmo"><rect codeLine="5" fill="#F1F1F1" height="235.6367" id="game.components.Gizmo" rx="2.5" ry="2.5" style="stroke:#181818;stroke-width:0.5;" width="252" x="9" y="105.26"/><ellipse cx="86.25" cy="124.3928" fill="#ADD1B2" rx="11" ry="11" style="stroke:#181818;stroke-width:1.0;"/><path d="M88.7231,130.5359 Q88.1421,130.8347 87.5029,130.9841 Q86.8638,131.1335 86.1582,131.1335 Q83.6514,131.1335 82.3315,129.4817 Q81.0117,127.8298 81.0117,124.7087 Q81.0117,121.5793 82.3315,119.9275 Q83.6514,118.2756 86.1582,118.2756 Q86.8638,118.2756 87.5112,118.425 Q88.1587,118.5745 88.7231,118.8733 L88.7231,121.5959 Q88.0923,121.0149 87.4988,120.7451 Q86.9053,120.4753 86.2744,120.4753 Q84.9297,120.4753 84.2449,121.542 Q83.5601,122.6086 83.5601,124.7087 Q83.5601,126.8005 84.2449,127.8672 Q84.9297,128.9338 86.2744,128.9338 Q86.9053,128.9338 87.4988,128.6641 Q88.0923,128.3943 88.7231,127.8132 Z " fill="#000000"/><text fill="#000000" font-family="sans-serif" font-size="14" lengthAdjust="spacing" textLength="44" x="129.25" y="123.7952">Gizmo</text><text fill="#000000" font-family="sans-serif" font-size="10" lengthAdjust="spacing" textLength="89" x="106.75" y="136.4163">game.components</text><line style="stroke:#181818;stroke-width:0.5;" x1="10" x2="260" y1="143.5256" y2="143.5256"/><polygon fill="none" points="20,152.2698,24,156.2698,20,160.2698,16,156.2698" style="stroke:#B38D22;stroke-width:1.0;"/><text fill="#000000" font-family="sans-serif" font-size="14" lengthAdjust="spacing" textLength="213" x="29" y="161.0608">activeGameObject: GameObject</text><polygon fill="none" points="20,168.758,24,172.758,20,176.758,16,172.758" style="stroke:#B38D22;stroke-width:1.0;"/><text fill="#000000" font-family="sans-serif" font-size="14" lengthAdjust="spacing" textLength="144" x="29" y="177.5491">xAxisActive: boolean</text><polygon fill="none" points="20,185.2463,24,189.2463,20,193.2463,16,189.2463" style="stroke:#B38D22;stroke-width:1.0;"/><text fill="#000000" font-family="sans-serif" font-size="14" lengthAdjust="spacing" textLength="142" x="29" y="194.0373">yAxisActive: boolean</text><line style="stroke:#181818;stroke-width:0.5;" x1="10" x2="260" y1="200.9905" y2="200.9905"/><ellipse cx="20" cy="214.7346" fill="#84BE84" rx="3" ry="3" style="stroke:#038048;stroke-width:1.0;"/><text fill="#000000" font-family="sans-serif" font-size="14" lengthAdjust="spacing" textLength="226" x="29" y="218.5256">Gizmo(Sprite, PropertiesWindow)</text><ellipse cx="20" cy="231.2229" fill="#84BE84" rx="3" ry="3" style="stroke:#038048;stroke-width:1.0;"/><text fill="#000000" font-family="sans-serif" font-size="14" lengthAdjust="spacing" textLength="78" x="29" y="235.0139">start(): void</text><ellipse cx="20" cy="247.7112" fill="#84BE84" rx="3" ry="3" style="stroke:#038048;stroke-width:1.0;"/><text fill="#000000" font-family="sans-serif" font-size="14" lengthAdjust="spacing" textLength="126" x="29" y="251.5022">update(float): void</text><ellipse cx="20" cy="264.1995" fill="#84BE84" rx="3" ry="3" style="stroke:#038048;stroke-width:1.0;"/><text fill="#000000" font-family="sans-serif" font-size="14" lengthAdjust="spacing" textLength="168" x="29" y="267.9905">editorUpdate(float): void</text><ellipse cx="20" cy="280.6877" fill="#84BE84" rx="3" ry="3" style="stroke:#038048;stroke-width:1.0;"/><text fill="#000000" font-family="sans-serif" font-size="14" lengthAdjust="spacing" textLength="108" x="29" y="284.4788">setActive(): void</text><ellipse cx="20" cy="297.176" fill="#84BE84" rx="3" ry="3" style="stroke:#038048;stroke-width:1.0;"/><text fill="#000000" font-family="sans-serif" font-size="14" lengthAdjust="spacing" textLength="119" x="29" y="300.967">setInactive(): void</text><ellipse cx="20" cy="313.6643" fill="#84BE84" rx="3" ry="3" style="stroke:#038048;stroke-width:1.0;"/><text fill="#000000" font-family="sans-serif" font-size="14" lengthAdjust="spacing" textLength="106" x="29" y="317.4553">setUsing(): void</text><ellipse cx="20" cy="330.1526" fill="#84BE84" rx="3" ry="3" style="stroke:#038048;stroke-width:1.0;"/><text fill="#000000" font-family="sans-serif" font-size="14" lengthAdjust="spacing" textLength="130" x="29" y="333.9436">setNotUsing(): void</text></g></a><!--class game.components.Component--><a href="Component.html" target="_top" title="Component.html" xlink:actuate="onRequest" xlink:href="Component.html" xlink:show="new" xlink:title="Component.html" xlink:type="simple"><g id="elem_game.components.Component"><rect codeLine="19" fill="#F1F1F1" height="38.2656" id="game.components.Component" rx="2.5" ry="2.5" style="stroke:#181818;stroke-width:0.5;" width="121" x="74.5" y="7"/><ellipse cx="89.5" cy="26.1328" fill="#A9DCDF" rx="11" ry="11" style="stroke:#181818;stroke-width:1.0;"/><path d="M89.3633,21.481 L88.2095,26.5527 L90.5254,26.5527 Z M87.8691,19.2397 L90.8657,19.2397 L94.2109,31.6328 L91.7622,31.6328 L90.9985,28.5698 L87.7197,28.5698 L86.9727,31.6328 L84.5239,31.6328 Z " fill="#000000"/><text fill="#000000" font-family="sans-serif" font-size="14" font-style="italic" lengthAdjust="spacing" textLength="81" x="107.5" y="25.5352">Component</text><text fill="#000000" font-family="sans-serif" font-size="10" font-style="italic" lengthAdjust="spacing" textLength="89" x="103.5" y="38.1563">game.components</text></g></a><!--reverse link game.components.Component to game.components.Gizmo--><g id="link_game.components.Component_game.components.Gizmo"><path codeLine="21" d="M135,66.9 C135,78.38 135,91.53 135,105.2 " fill="none" id="game.components.Component-backto-game.components.Gizmo" style="stroke:#181818;stroke-width:1.0;"/><polygon fill="none" points="128,66.98,135,46.98,142,66.98,128,66.98" style="stroke:#181818;stroke-width:1.0;"/></g><text fill="#888888" font-family="sans-serif" font-size="10" lengthAdjust="spacing" textLength="182" x="36" y="356.5647">UMLDoclet 2.1.0, PlantUML 1.2022.14</text><!--SRC=[bL9DQm8n4BttLmoMmahhegMdHGHfGGhz0f4Uh8TnTzIKR2OaKwks_U-DgtL1Lw6vpEIzUJCXRm00F0aOpCbRJAbF5XqAEp1iw2pGC5CP0ULMbZ1Hf3E_Z-OaCmvmWQSQlOTQswiL9QsRJa-jSdupstkpCmsJufHp6zeRyJL03tjON6XWE2nYF9DSZqRmLRHVdtDCHSsf5rJFutTA9O4oBwiMtONotQ8qWJ6p9ZGbkpp5NXQJexvrIkWANXnRSgB8logJyMUzBFI2Jg9w0dDMMGb_s0o5eebcb0EICXK-U72g97YoULjKHTqRF4uEl3BJIkQ9AyYVZMquzk92rmF_Rlzi-QU7ErtmSPTllToCFAveVpSQrKkntR40a8C9ypeC7X_kEDLXYw_ZLjmCTcaq4b2uc9FpYarK_mK0]--></g></svg>