<?xml version="1.0" encoding="UTF-8" standalone="no"?><svg xmlns="http://www.w3.org/2000/svg" xmlns:xlink="http://www.w3.org/1999/xlink" contentStyleType="text/css" height="618px" preserveAspectRatio="none" style="width:749px;height:618px;background:#FFFFFF;" version="1.1" viewBox="0 0 749 618" width="749px" zoomAndPan="magnify"><defs/><g><!--cluster game.components--><g id="cluster_game.components"><path d="M8.5,154.49 L139.5,154.49 A3.75,3.75 0 0 1 142,156.99 L149,176.9783 L739.5,176.9783 A2.5,2.5 0 0 1 742,179.4783 L742,590.34 A2.5,2.5 0 0 1 739.5,592.84 L8.5,592.84 A2.5,2.5 0 0 1 6,590.34 L6,156.99 A2.5,2.5 0 0 1 8.5,154.49 " fill="none" style="stroke:#000000;stroke-width:1.5;"/><line style="stroke:#000000;stroke-width:1.5;" x1="6" x2="149" y1="176.9783" y2="176.9783"/><text fill="#000000" font-family="sans-serif" font-size="14" font-weight="bold" lengthAdjust="spacing" textLength="130" x="10" y="170.0252">game.components</text></g><!--cluster game.engine--><g id="cluster_game.engine"><path d="M320.5,6 L411.5,6 A3.75,3.75 0 0 1 414,8.5 L421,28.4883 L547.5,28.4883 A2.5,2.5 0 0 1 550,30.9883 L550,118.99 A2.5,2.5 0 0 1 547.5,121.49 L320.5,121.49 A2.5,2.5 0 0 1 318,118.99 L318,8.5 A2.5,2.5 0 0 1 320.5,6 " fill="none" style="stroke:#000000;stroke-width:1.5;"/><line style="stroke:#000000;stroke-width:1.5;" x1="318" x2="421" y1="28.4883" y2="28.4883"/><text fill="#000000" font-family="sans-serif" font-size="14" font-weight="bold" lengthAdjust="spacing" textLength="90" x="322" y="21.5352">game.engine</text></g><!--class game.components.SpriteRenderer--><a href="SpriteRenderer.html" target="_top" title="SpriteRenderer.html" xlink:actuate="onRequest" xlink:href="SpriteRenderer.html" xlink:show="new" xlink:title="SpriteRenderer.html" xlink:type="simple"><g id="elem_game.components.SpriteRenderer"><rect codeLine="3" fill="#F1F1F1" height="196.3945" id="game.components.SpriteRenderer" rx="2.5" ry="2.5" style="stroke:#181818;stroke-width:0.5;" width="210" x="22" y="189.49"/><ellipse cx="71.25" cy="205.49" fill="#ADD1B2" rx="11" ry="11" style="stroke:#181818;stroke-width:1.0;"/><path d="M73.7231,211.6331 Q73.1421,211.9319 72.5029,212.0813 Q71.8638,212.2307 71.1582,212.2307 Q68.6514,212.2307 67.3315,210.5789 Q66.0117,208.927 66.0117,205.8059 Q66.0117,202.6765 67.3315,201.0247 Q68.6514,199.3728 71.1582,199.3728 Q71.8638,199.3728 72.5112,199.5222 Q73.1587,199.6716 73.7231,199.9705 L73.7231,202.6931 Q73.0923,202.1121 72.4988,201.8423 Q71.9053,201.5725 71.2744,201.5725 Q69.9297,201.5725 69.2449,202.6392 Q68.5601,203.7058 68.5601,205.8059 Q68.5601,207.8977 69.2449,208.9644 Q69.9297,210.031 71.2744,210.031 Q71.9053,210.031 72.4988,209.7612 Q73.0923,209.4915 73.7231,208.9104 Z " fill="#000000"/><text fill="#000000" font-family="sans-serif" font-size="14" lengthAdjust="spacing" textLength="103" x="91.75" y="210.781">SpriteRenderer</text><line style="stroke:#181818;stroke-width:0.5;" x1="23" x2="231" y1="221.49" y2="221.49"/><line style="stroke:#181818;stroke-width:0.5;" x1="23" x2="231" y1="229.49" y2="229.49"/><ellipse cx="33" cy="243.2341" fill="#84BE84" rx="3" ry="3" style="stroke:#038048;stroke-width:1.0;"/><text fill="#000000" font-family="sans-serif" font-size="14" lengthAdjust="spacing" textLength="78" x="42" y="247.0252">start(): void</text><ellipse cx="33" cy="259.7224" fill="#84BE84" rx="3" ry="3" style="stroke:#038048;stroke-width:1.0;"/><text fill="#000000" font-family="sans-serif" font-size="14" lengthAdjust="spacing" textLength="126" x="42" y="263.5134">update(float): void</text><ellipse cx="33" cy="276.2107" fill="#84BE84" rx="3" ry="3" style="stroke:#038048;stroke-width:1.0;"/><text fill="#000000" font-family="sans-serif" font-size="14" lengthAdjust="spacing" textLength="86" x="42" y="280.0017">imgui(): void</text><ellipse cx="33" cy="292.699" fill="#84BE84" rx="3" ry="3" style="stroke:#038048;stroke-width:1.0;"/><text fill="#000000" font-family="sans-serif" font-size="14" lengthAdjust="spacing" textLength="136" x="42" y="296.49">getColor(): Vector4f</text><ellipse cx="33" cy="309.1873" fill="#84BE84" rx="3" ry="3" style="stroke:#038048;stroke-width:1.0;"/><text fill="#000000" font-family="sans-serif" font-size="14" lengthAdjust="spacing" textLength="148" x="42" y="312.9783">getTexture(): Texture</text><ellipse cx="33" cy="325.6755" fill="#84BE84" rx="3" ry="3" style="stroke:#038048;stroke-width:1.0;"/><text fill="#000000" font-family="sans-serif" font-size="14" lengthAdjust="spacing" textLength="184" x="42" y="329.4666">getTexCoords(): Vector2f[]</text><ellipse cx="33" cy="342.1638" fill="#84BE84" rx="3" ry="3" style="stroke:#038048;stroke-width:1.0;"/><text fill="#000000" font-family="sans-serif" font-size="14" lengthAdjust="spacing" textLength="163" x="42" y="345.9548">setColor(Vector4f): void</text><ellipse cx="33" cy="358.6521" fill="#84BE84" rx="3" ry="3" style="stroke:#038048;stroke-width:1.0;"/><text fill="#000000" font-family="sans-serif" font-size="14" lengthAdjust="spacing" textLength="117" x="42" y="362.4431">isDirty(): boolean</text><ellipse cx="33" cy="375.1404" fill="#84BE84" rx="3" ry="3" style="stroke:#038048;stroke-width:1.0;"/><text fill="#000000" font-family="sans-serif" font-size="14" lengthAdjust="spacing" textLength="106" x="42" y="378.9314">setClean(): void</text></g></a><!--class game.components.Sprite--><a href="Sprite.html" target="_top" title="Sprite.html" xlink:actuate="onRequest" xlink:href="Sprite.html" xlink:show="new" xlink:title="Sprite.html" xlink:type="simple"><g id="elem_game.components.Sprite"><rect codeLine="15" fill="#F1F1F1" height="113.9531" id="game.components.Sprite" rx="2.5" ry="2.5" style="stroke:#181818;stroke-width:0.5;" width="237" x="22.5" y="462.89"/><ellipse cx="116.75" cy="478.89" fill="#ADD1B2" rx="11" ry="11" style="stroke:#181818;stroke-width:1.0;"/><path d="M119.2231,485.0331 Q118.6421,485.3319 118.0029,485.4813 Q117.3638,485.6307 116.6582,485.6307 Q114.1514,485.6307 112.8315,483.9789 Q111.5117,482.327 111.5117,479.2059 Q111.5117,476.0765 112.8315,474.4247 Q114.1514,472.7728 116.6582,472.7728 Q117.3638,472.7728 118.0112,472.9222 Q118.6587,473.0716 119.2231,473.3705 L119.2231,476.0931 Q118.5923,475.5121 117.9988,475.2423 Q117.4053,474.9725 116.7744,474.9725 Q115.4297,474.9725 114.7449,476.0392 Q114.0601,477.1058 114.0601,479.2059 Q114.0601,481.2977 114.7449,482.3644 Q115.4297,483.431 116.7744,483.431 Q117.4053,483.431 117.9988,483.1612 Q118.5923,482.8915 119.2231,482.3104 Z " fill="#000000"/><text fill="#000000" font-family="sans-serif" font-size="14" lengthAdjust="spacing" textLength="40" x="137.25" y="484.181">Sprite</text><line style="stroke:#181818;stroke-width:0.5;" x1="23.5" x2="258.5" y1="494.89" y2="494.89"/><line style="stroke:#181818;stroke-width:0.5;" x1="23.5" x2="258.5" y1="502.89" y2="502.89"/><ellipse cx="33.5" cy="516.6341" fill="#84BE84" rx="3" ry="3" style="stroke:#038048;stroke-width:1.0;"/><text fill="#000000" font-family="sans-serif" font-size="14" lengthAdjust="spacing" textLength="148" x="42.5" y="520.4252">getTexture(): Texture</text><ellipse cx="33.5" cy="533.1224" fill="#84BE84" rx="3" ry="3" style="stroke:#038048;stroke-width:1.0;"/><text fill="#000000" font-family="sans-serif" font-size="14" lengthAdjust="spacing" textLength="184" x="42.5" y="536.9134">getTexCoords(): Vector2f[]</text><ellipse cx="33.5" cy="549.6107" fill="#84BE84" rx="3" ry="3" style="stroke:#038048;stroke-width:1.0;"/><text fill="#000000" font-family="sans-serif" font-size="14" lengthAdjust="spacing" textLength="175" x="42.5" y="553.4017">setTexture(Texture): void</text><ellipse cx="33.5" cy="566.099" fill="#84BE84" rx="3" ry="3" style="stroke:#038048;stroke-width:1.0;"/><text fill="#000000" font-family="sans-serif" font-size="14" lengthAdjust="spacing" textLength="211" x="42.5" y="569.89">setTexCoords(Vector2f[]): void</text></g></a><!--class game.components.Spritesheet--><a href="Spritesheet.html" target="_top" title="Spritesheet.html" xlink:actuate="onRequest" xlink:href="Spritesheet.html" xlink:show="new" xlink:title="Spritesheet.html" xlink:type="simple"><g id="elem_game.components.Spritesheet"><rect codeLine="22" fill="#F1F1F1" height="80.9766" id="game.components.Spritesheet" rx="2.5" ry="2.5" style="stroke:#181818;stroke-width:0.5;" width="271" x="267.5" y="247.2"/><ellipse cx="360.25" cy="263.2" fill="#ADD1B2" rx="11" ry="11" style="stroke:#181818;stroke-width:1.0;"/><path d="M362.7231,269.3431 Q362.1421,269.6419 361.5029,269.7913 Q360.8638,269.9407 360.1582,269.9407 Q357.6514,269.9407 356.3315,268.2889 Q355.0117,266.637 355.0117,263.5159 Q355.0117,260.3865 356.3315,258.7347 Q357.6514,257.0828 360.1582,257.0828 Q360.8638,257.0828 361.5112,257.2322 Q362.1587,257.3816 362.7231,257.6805 L362.7231,260.4031 Q362.0923,259.8221 361.4988,259.5523 Q360.9053,259.2825 360.2744,259.2825 Q358.9297,259.2825 358.2449,260.3492 Q357.5601,261.4158 357.5601,263.5159 Q357.5601,265.6077 358.2449,266.6744 Q358.9297,267.741 360.2744,267.741 Q360.9053,267.741 361.4988,267.4712 Q362.0923,267.2015 362.7231,266.6204 Z " fill="#000000"/><text fill="#000000" font-family="sans-serif" font-size="14" lengthAdjust="spacing" textLength="77" x="380.75" y="268.491">Spritesheet</text><line style="stroke:#181818;stroke-width:0.5;" x1="268.5" x2="537.5" y1="279.2" y2="279.2"/><line style="stroke:#181818;stroke-width:0.5;" x1="268.5" x2="537.5" y1="287.2" y2="287.2"/><ellipse cx="278.5" cy="300.9441" fill="#84BE84" rx="3" ry="3" style="stroke:#038048;stroke-width:1.0;"/><text fill="#000000" font-family="sans-serif" font-size="14" lengthAdjust="spacing" textLength="245" x="287.5" y="304.7352">Spritesheet(Texture, int, int, int, int)</text><ellipse cx="278.5" cy="317.4324" fill="#84BE84" rx="3" ry="3" style="stroke:#038048;stroke-width:1.0;"/><text fill="#000000" font-family="sans-serif" font-size="14" lengthAdjust="spacing" textLength="138" x="287.5" y="321.2234">getSprite(int): Sprite</text></g></a><!--class game.components.FontRenderer--><a href="FontRenderer.html" target="_top" title="FontRenderer.html" xlink:actuate="onRequest" xlink:href="FontRenderer.html" xlink:show="new" xlink:title="FontRenderer.html" xlink:type="simple"><g id="elem_game.components.FontRenderer"><rect codeLine="27" fill="#F1F1F1" height="80.9766" id="game.components.FontRenderer" rx="2.5" ry="2.5" style="stroke:#181818;stroke-width:0.5;" width="152" x="574" y="247.2"/><ellipse cx="600.7" cy="263.2" fill="#ADD1B2" rx="11" ry="11" style="stroke:#181818;stroke-width:1.0;"/><path d="M603.1731,269.3431 Q602.5921,269.6419 601.9529,269.7913 Q601.3138,269.9407 600.6082,269.9407 Q598.1014,269.9407 596.7815,268.2889 Q595.4617,266.637 595.4617,263.5159 Q595.4617,260.3865 596.7815,258.7347 Q598.1014,257.0828 600.6082,257.0828 Q601.3138,257.0828 601.9612,257.2322 Q602.6087,257.3816 603.1731,257.6805 L603.1731,260.4031 Q602.5423,259.8221 601.9488,259.5523 Q601.3553,259.2825 600.7244,259.2825 Q599.3797,259.2825 598.6949,260.3492 Q598.0101,261.4158 598.0101,263.5159 Q598.0101,265.6077 598.6949,266.6744 Q599.3797,267.741 600.7244,267.741 Q601.3553,267.741 601.9488,267.4712 Q602.5423,267.2015 603.1731,266.6204 Z " fill="#000000"/><text fill="#000000" font-family="sans-serif" font-size="14" lengthAdjust="spacing" textLength="94" x="617.3" y="268.491">FontRenderer</text><line style="stroke:#181818;stroke-width:0.5;" x1="575" x2="725" y1="279.2" y2="279.2"/><line style="stroke:#181818;stroke-width:0.5;" x1="575" x2="725" y1="287.2" y2="287.2"/><ellipse cx="585" cy="300.9441" fill="#84BE84" rx="3" ry="3" style="stroke:#038048;stroke-width:1.0;"/><text fill="#000000" font-family="sans-serif" font-size="14" lengthAdjust="spacing" textLength="78" x="594" y="304.7352">start(): void</text><ellipse cx="585" cy="317.4324" fill="#84BE84" rx="3" ry="3" style="stroke:#038048;stroke-width:1.0;"/><text fill="#000000" font-family="sans-serif" font-size="14" lengthAdjust="spacing" textLength="126" x="594" y="321.2234">update(float): void</text></g></a><!--class game.engine.Component--><a href="../engine/Component.html" target="_top" title="../engine/Component.html" xlink:actuate="onRequest" xlink:href="../engine/Component.html" xlink:show="new" xlink:title="../engine/Component.html" xlink:type="simple"><g id="elem_game.engine.Component"><rect codeLine="38" fill="#F1F1F1" height="64.4883" id="game.engine.Component" rx="2.5" ry="2.5" style="stroke:#181818;stroke-width:0.5;" width="199" x="334.5" y="41"/><ellipse cx="389.25" cy="57" fill="#A9DCDF" rx="11" ry="11" style="stroke:#181818;stroke-width:1.0;"/><path d="M389.1133,52.3481 L387.9595,57.4199 L390.2754,57.4199 Z M387.6191,50.1069 L390.6157,50.1069 L393.9609,62.5 L391.5122,62.5 L390.7485,59.437 L387.4697,59.437 L386.7227,62.5 L384.2739,62.5 Z " fill="#000000"/><text fill="#000000" font-family="sans-serif" font-size="14" font-style="italic" lengthAdjust="spacing" textLength="81" x="409.75" y="62.291">Component</text><line style="stroke:#181818;stroke-width:0.5;" x1="335.5" x2="532.5" y1="73" y2="73"/><ellipse cx="345.5" cy="86.7441" fill="none" rx="3" ry="3" style="stroke:#038048;stroke-width:1.0;"/><text fill="#000000" font-family="sans-serif" font-size="14" lengthAdjust="spacing" textLength="173" x="354.5" y="90.5352">gameObject: GameObject</text><line style="stroke:#181818;stroke-width:0.5;" x1="335.5" x2="532.5" y1="97.4883" y2="97.4883"/></g></a><!--reverse link game.engine.Component to game.components.SpriteRenderer--><g id="link_game.engine.Component_game.components.SpriteRenderer"><path codeLine="32" d="M314.5,111.53 C292.07,121.15 269.55,132.76 250,146.49 C232.78,158.59 216.37,173.58 201.48,189.22 " fill="none" id="game.engine.Component-backto-game.components.SpriteRenderer" style="stroke:#181818;stroke-width:1.0;"/><polygon fill="none" points="311.55,105.18,332.71,104.16,316.81,118.15,311.55,105.18" style="stroke:#181818;stroke-width:1.0;"/></g><!--link game.components.SpriteRenderer to game.components.Sprite--><g id="link_game.components.SpriteRenderer_game.components.Sprite"><path codeLine="33" d="M132.94,386.3 C134.38,409.95 135.87,434.6 137.18,456.13 " fill="none" id="game.components.SpriteRenderer-to-game.components.Sprite" style="stroke:#181818;stroke-width:1.0;"/><polygon fill="#181818" points="137.47,460.91,140.9238,451.6866,137.1705,455.919,132.9382,452.1657,137.47,460.91" style="stroke:#181818;stroke-width:1.0;"/><text fill="#000000" font-family="sans-serif" font-size="13" lengthAdjust="spacing" textLength="36" x="136" y="429.4584">sprite</text></g><!--reverse link game.engine.Component to game.components.FontRenderer--><g id="link_game.engine.Component_game.components.FontRenderer"><path codeLine="34" d="M517.42,116.81 C531.07,125.64 544.5,135.62 556,146.49 C586.88,175.69 612.93,216.79 629.72,246.94 " fill="none" id="game.engine.Component-backto-game.components.FontRenderer" style="stroke:#181818;stroke-width:1.0;"/><polygon fill="none" points="514.2,123.05,500.77,106.66,521.49,111.09,514.2,123.05" style="stroke:#181818;stroke-width:1.0;"/></g><text fill="#888888" font-family="sans-serif" font-size="10" lengthAdjust="spacing" textLength="182" x="276.5" y="608.508">UMLDoclet 2.1.0, PlantUML 1.2022.14</text><!--SRC=[hLDBJyCm3BxlL_Y2j0dQmSHfGbmsmGK4udMfTiXQjmjguohn9X3mtqctjilwG1oMG-BuyTcVPGC0A96XoKM8a5Z93odBIQ5Y0r-30PGdJ8Kny9nhoVY4AaAD6eBWKE6lE4iN2ni7pZarB3GFHrFOa8mEJUiy4ep3E2N1dGuoIzQoEpP1db5Akh2-OSYaB-EMnmj-y5fZuLEANIup8XsPFT0a3XOD3bMoAbDtjMOkDNyMG4kY58LgenJQ5g6VxaxN7Uxfx749Lb3bsydGk71xh7_oCIj4habjVptC78-gdZEGYXlNg4Ls5pWiRDCoQtzLDwJOcMRtUznPTZ9lbmnL8XNwishNuEhRynhhLKSqjixphalL5CmXmJ-mNMu3fwJ6zk-27TPYQLYBaCkExL63mFV7E_TnhUsRKmlzi7otupA5srfskkCK55eOop8cAfxN-xivXQcTceb_uP-VmMCg55ijd6nG6qbsbtu1]--></g></svg>