<?xml version="1.0" encoding="UTF-8" standalone="no"?><svg xmlns="http://www.w3.org/2000/svg" xmlns:xlink="http://www.w3.org/1999/xlink" contentStyleType="text/css" height="1024px" preserveAspectRatio="none" style="width:1823px;height:1024px;background:#FFFFFF;" version="1.1" viewBox="0 0 1823 1024" width="1823px" zoomAndPan="magnify"><defs/><g><!--cluster game.components--><g id="cluster_game.components"><path d="M8.5,154.49 L139.5,154.49 A3.75,3.75 0 0 1 142,156.99 L149,176.9783 L1647.5,176.9783 A2.5,2.5 0 0 1 1650,179.4783 L1650,996.13 A2.5,2.5 0 0 1 1647.5,998.63 L8.5,998.63 A2.5,2.5 0 0 1 6,996.13 L6,156.99 A2.5,2.5 0 0 1 8.5,154.49 " fill="none" style="stroke:#000000;stroke-width:1.5;"/><line style="stroke:#000000;stroke-width:1.5;" x1="6" x2="149" y1="176.9783" y2="176.9783"/><text fill="#000000" font-family="sans-serif" font-size="14" font-weight="bold" lengthAdjust="spacing" textLength="130" x="10" y="170.0252">game.components</text></g><!--cluster com.google.gson--><g id="cluster_com.google.gson"><path d="M893.5,6 L1014.5,6 A3.75,3.75 0 0 1 1017,8.5 L1024,28.4883 L1813.5,28.4883 A2.5,2.5 0 0 1 1816,30.9883 L1816,118.99 A2.5,2.5 0 0 1 1813.5,121.49 L893.5,121.49 A2.5,2.5 0 0 1 891,118.99 L891,8.5 A2.5,2.5 0 0 1 893.5,6 " fill="none" style="stroke:#000000;stroke-width:1.5;"/><line style="stroke:#000000;stroke-width:1.5;" x1="891" x2="1024" y1="28.4883" y2="28.4883"/><text fill="#000000" font-family="sans-serif" font-size="14" font-weight="bold" lengthAdjust="spacing" textLength="120" x="895" y="21.5352">com.google.gson</text></g><!--class game.components.SpriteRenderer--><a href="SpriteRenderer.html" target="_top" title="SpriteRenderer.html" xlink:actuate="onRequest" xlink:href="SpriteRenderer.html" xlink:show="new" xlink:title="SpriteRenderer.html" xlink:type="simple"><g id="elem_game.components.SpriteRenderer"><rect codeLine="3" fill="#F1F1F1" height="229.3711" id="game.components.SpriteRenderer" rx="2.5" ry="2.5" style="stroke:#181818;stroke-width:0.5;" width="210" x="22" y="479.86"/><ellipse cx="71.25" cy="495.86" fill="#ADD1B2" rx="11" ry="11" style="stroke:#181818;stroke-width:1.0;"/><path d="M73.7231,502.0031 Q73.1421,502.3019 72.5029,502.4513 Q71.8638,502.6007 71.1582,502.6007 Q68.6514,502.6007 67.3315,500.9489 Q66.0117,499.297 66.0117,496.1759 Q66.0117,493.0465 67.3315,491.3947 Q68.6514,489.7428 71.1582,489.7428 Q71.8638,489.7428 72.5112,489.8922 Q73.1587,490.0416 73.7231,490.3405 L73.7231,493.0631 Q73.0923,492.4821 72.4988,492.2123 Q71.9053,491.9425 71.2744,491.9425 Q69.9297,491.9425 69.2449,493.0092 Q68.5601,494.0758 68.5601,496.1759 Q68.5601,498.2677 69.2449,499.3344 Q69.9297,500.401 71.2744,500.401 Q71.9053,500.401 72.4988,500.1312 Q73.0923,499.8615 73.7231,499.2804 Z " fill="#000000"/><text fill="#000000" font-family="sans-serif" font-size="14" lengthAdjust="spacing" textLength="103" x="91.75" y="501.151">SpriteRenderer</text><line style="stroke:#181818;stroke-width:0.5;" x1="23" x2="231" y1="511.86" y2="511.86"/><line style="stroke:#181818;stroke-width:0.5;" x1="23" x2="231" y1="519.86" y2="519.86"/><ellipse cx="33" cy="533.6041" fill="#84BE84" rx="3" ry="3" style="stroke:#038048;stroke-width:1.0;"/><text fill="#000000" font-family="sans-serif" font-size="14" lengthAdjust="spacing" textLength="78" x="42" y="537.3952">start(): void</text><ellipse cx="33" cy="550.0924" fill="#84BE84" rx="3" ry="3" style="stroke:#038048;stroke-width:1.0;"/><text fill="#000000" font-family="sans-serif" font-size="14" lengthAdjust="spacing" textLength="126" x="42" y="553.8834">update(float): void</text><ellipse cx="33" cy="566.5807" fill="#84BE84" rx="3" ry="3" style="stroke:#038048;stroke-width:1.0;"/><text fill="#000000" font-family="sans-serif" font-size="14" lengthAdjust="spacing" textLength="86" x="42" y="570.3717">imgui(): void</text><ellipse cx="33" cy="583.069" fill="#84BE84" rx="3" ry="3" style="stroke:#038048;stroke-width:1.0;"/><text fill="#000000" font-family="sans-serif" font-size="14" lengthAdjust="spacing" textLength="136" x="42" y="586.86">getColor(): Vector4f</text><ellipse cx="33" cy="599.5573" fill="#84BE84" rx="3" ry="3" style="stroke:#038048;stroke-width:1.0;"/><text fill="#000000" font-family="sans-serif" font-size="14" lengthAdjust="spacing" textLength="148" x="42" y="603.3483">getTexture(): Texture</text><ellipse cx="33" cy="616.0455" fill="#84BE84" rx="3" ry="3" style="stroke:#038048;stroke-width:1.0;"/><text fill="#000000" font-family="sans-serif" font-size="14" lengthAdjust="spacing" textLength="184" x="42" y="619.8366">getTexCoords(): Vector2f[]</text><ellipse cx="33" cy="632.5338" fill="#84BE84" rx="3" ry="3" style="stroke:#038048;stroke-width:1.0;"/><text fill="#000000" font-family="sans-serif" font-size="14" lengthAdjust="spacing" textLength="163" x="42" y="636.3248">setColor(Vector4f): void</text><ellipse cx="33" cy="649.0221" fill="#84BE84" rx="3" ry="3" style="stroke:#038048;stroke-width:1.0;"/><text fill="#000000" font-family="sans-serif" font-size="14" lengthAdjust="spacing" textLength="117" x="42" y="652.8131">isDirty(): boolean</text><ellipse cx="33" cy="665.5104" fill="#84BE84" rx="3" ry="3" style="stroke:#038048;stroke-width:1.0;"/><text fill="#000000" font-family="sans-serif" font-size="14" lengthAdjust="spacing" textLength="99" x="42" y="669.3014">setDirty(): void</text><ellipse cx="33" cy="681.9987" fill="#84BE84" rx="3" ry="3" style="stroke:#038048;stroke-width:1.0;"/><text fill="#000000" font-family="sans-serif" font-size="14" lengthAdjust="spacing" textLength="106" x="42" y="685.7897">setClean(): void</text><ellipse cx="33" cy="698.487" fill="#84BE84" rx="3" ry="3" style="stroke:#038048;stroke-width:1.0;"/><text fill="#000000" font-family="sans-serif" font-size="14" lengthAdjust="spacing" textLength="175" x="42" y="702.278">setTexture(Texture): void</text></g></a><!--class game.components.MouseControls--><a href="MouseControls.html" target="_top" title="MouseControls.html" xlink:actuate="onRequest" xlink:href="MouseControls.html" xlink:show="new" xlink:title="MouseControls.html" xlink:type="simple"><g id="elem_game.components.MouseControls"><rect codeLine="17" fill="#F1F1F1" height="97.4648" id="game.components.MouseControls" rx="2.5" ry="2.5" style="stroke:#181818;stroke-width:0.5;" width="246" x="267" y="545.82"/><ellipse cx="333.75" cy="561.82" fill="#ADD1B2" rx="11" ry="11" style="stroke:#181818;stroke-width:1.0;"/><path d="M336.2231,567.9631 Q335.6421,568.2619 335.0029,568.4113 Q334.3638,568.5607 333.6582,568.5607 Q331.1514,568.5607 329.8315,566.9089 Q328.5117,565.257 328.5117,562.1359 Q328.5117,559.0065 329.8315,557.3547 Q331.1514,555.7028 333.6582,555.7028 Q334.3638,555.7028 335.0112,555.8522 Q335.6587,556.0016 336.2231,556.3005 L336.2231,559.0231 Q335.5923,558.4421 334.9988,558.1723 Q334.4053,557.9025 333.7744,557.9025 Q332.4297,557.9025 331.7449,558.9692 Q331.0601,560.0358 331.0601,562.1359 Q331.0601,564.2277 331.7449,565.2944 Q332.4297,566.361 333.7744,566.361 Q334.4053,566.361 334.9988,566.0912 Q335.5923,565.8215 336.2231,565.2404 Z " fill="#000000"/><text fill="#000000" font-family="sans-serif" font-size="14" lengthAdjust="spacing" textLength="104" x="354.25" y="567.111">MouseControls</text><line style="stroke:#181818;stroke-width:0.5;" x1="268" x2="512" y1="577.82" y2="577.82"/><line style="stroke:#181818;stroke-width:0.5;" x1="268" x2="512" y1="585.82" y2="585.82"/><ellipse cx="278" cy="599.5641" fill="#84BE84" rx="3" ry="3" style="stroke:#038048;stroke-width:1.0;"/><text fill="#000000" font-family="sans-serif" font-size="14" lengthAdjust="spacing" textLength="220" x="287" y="603.3552">pickupObject(GameObject): void</text><ellipse cx="278" cy="616.0524" fill="#84BE84" rx="3" ry="3" style="stroke:#038048;stroke-width:1.0;"/><text fill="#000000" font-family="sans-serif" font-size="14" lengthAdjust="spacing" textLength="83" x="287" y="619.8434">place(): void</text><ellipse cx="278" cy="632.5407" fill="#84BE84" rx="3" ry="3" style="stroke:#038048;stroke-width:1.0;"/><text fill="#000000" font-family="sans-serif" font-size="14" lengthAdjust="spacing" textLength="126" x="287" y="636.3317">update(float): void</text></g></a><!--class game.components.Sprite--><a href="Sprite.html" target="_top" title="Sprite.html" xlink:actuate="onRequest" xlink:href="Sprite.html" xlink:show="new" xlink:title="Sprite.html" xlink:type="simple"><g id="elem_game.components.Sprite"><rect codeLine="23" fill="#F1F1F1" height="196.3945" id="game.components.Sprite" rx="2.5" ry="2.5" style="stroke:#181818;stroke-width:0.5;" width="237" x="22.5" y="786.24"/><ellipse cx="116.75" cy="802.24" fill="#ADD1B2" rx="11" ry="11" style="stroke:#181818;stroke-width:1.0;"/><path d="M119.2231,808.3831 Q118.6421,808.6819 118.0029,808.8313 Q117.3638,808.9807 116.6582,808.9807 Q114.1514,808.9807 112.8315,807.3289 Q111.5117,805.677 111.5117,802.5559 Q111.5117,799.4265 112.8315,797.7747 Q114.1514,796.1228 116.6582,796.1228 Q117.3638,796.1228 118.0112,796.2722 Q118.6587,796.4216 119.2231,796.7205 L119.2231,799.4431 Q118.5923,798.8621 117.9988,798.5923 Q117.4053,798.3225 116.7744,798.3225 Q115.4297,798.3225 114.7449,799.3892 Q114.0601,800.4558 114.0601,802.5559 Q114.0601,804.6477 114.7449,805.7144 Q115.4297,806.781 116.7744,806.781 Q117.4053,806.781 117.9988,806.5112 Q118.5923,806.2415 119.2231,805.6604 Z " fill="#000000"/><text fill="#000000" font-family="sans-serif" font-size="14" lengthAdjust="spacing" textLength="40" x="137.25" y="807.531">Sprite</text><line style="stroke:#181818;stroke-width:0.5;" x1="23.5" x2="258.5" y1="818.24" y2="818.24"/><line style="stroke:#181818;stroke-width:0.5;" x1="23.5" x2="258.5" y1="826.24" y2="826.24"/><ellipse cx="33.5" cy="839.9841" fill="#84BE84" rx="3" ry="3" style="stroke:#038048;stroke-width:1.0;"/><text fill="#000000" font-family="sans-serif" font-size="14" lengthAdjust="spacing" textLength="148" x="42.5" y="843.7752">getTexture(): Texture</text><ellipse cx="33.5" cy="856.4724" fill="#84BE84" rx="3" ry="3" style="stroke:#038048;stroke-width:1.0;"/><text fill="#000000" font-family="sans-serif" font-size="14" lengthAdjust="spacing" textLength="184" x="42.5" y="860.2634">getTexCoords(): Vector2f[]</text><ellipse cx="33.5" cy="872.9607" fill="#84BE84" rx="3" ry="3" style="stroke:#038048;stroke-width:1.0;"/><text fill="#000000" font-family="sans-serif" font-size="14" lengthAdjust="spacing" textLength="175" x="42.5" y="876.7517">setTexture(Texture): void</text><ellipse cx="33.5" cy="889.449" fill="#84BE84" rx="3" ry="3" style="stroke:#038048;stroke-width:1.0;"/><text fill="#000000" font-family="sans-serif" font-size="14" lengthAdjust="spacing" textLength="211" x="42.5" y="893.24">setTexCoords(Vector2f[]): void</text><ellipse cx="33.5" cy="905.9373" fill="#84BE84" rx="3" ry="3" style="stroke:#038048;stroke-width:1.0;"/><text fill="#000000" font-family="sans-serif" font-size="14" lengthAdjust="spacing" textLength="110" x="42.5" y="909.7283">getWidth(): float</text><ellipse cx="33.5" cy="922.4255" fill="#84BE84" rx="3" ry="3" style="stroke:#038048;stroke-width:1.0;"/><text fill="#000000" font-family="sans-serif" font-size="14" lengthAdjust="spacing" textLength="137" x="42.5" y="926.2166">setWidth(float): void</text><ellipse cx="33.5" cy="938.9138" fill="#84BE84" rx="3" ry="3" style="stroke:#038048;stroke-width:1.0;"/><text fill="#000000" font-family="sans-serif" font-size="14" lengthAdjust="spacing" textLength="116" x="42.5" y="942.7048">getHeight(): float</text><ellipse cx="33.5" cy="955.4021" fill="#84BE84" rx="3" ry="3" style="stroke:#038048;stroke-width:1.0;"/><text fill="#000000" font-family="sans-serif" font-size="14" lengthAdjust="spacing" textLength="143" x="42.5" y="959.1931">setHeight(float): void</text><ellipse cx="33.5" cy="971.8904" fill="#84BE84" rx="3" ry="3" style="stroke:#038048;stroke-width:1.0;"/><text fill="#000000" font-family="sans-serif" font-size="14" lengthAdjust="spacing" textLength="97" x="42.5" y="975.6814">getTexId(): int</text></g></a><!--class game.components.TranslateGizmo--><a href="TranslateGizmo.html" target="_top" title="TranslateGizmo.html" xlink:actuate="onRequest" xlink:href="TranslateGizmo.html" xlink:show="new" xlink:title="TranslateGizmo.html" xlink:type="simple"><g id="elem_game.components.TranslateGizmo"><rect codeLine="35" fill="#F1F1F1" height="130.4414" id="game.components.TranslateGizmo" rx="2.5" ry="2.5" style="stroke:#181818;stroke-width:0.5;" width="316" x="548" y="529.33"/><ellipse cx="647.75" cy="545.33" fill="#ADD1B2" rx="11" ry="11" style="stroke:#181818;stroke-width:1.0;"/><path d="M650.2231,551.4731 Q649.6421,551.7719 649.0029,551.9213 Q648.3638,552.0707 647.6582,552.0707 Q645.1514,552.0707 643.8315,550.4189 Q642.5117,548.767 642.5117,545.6459 Q642.5117,542.5165 643.8315,540.8647 Q645.1514,539.2128 647.6582,539.2128 Q648.3638,539.2128 649.0112,539.3622 Q649.6587,539.5116 650.2231,539.8105 L650.2231,542.5331 Q649.5923,541.9521 648.9988,541.6823 Q648.4053,541.4125 647.7744,541.4125 Q646.4297,541.4125 645.7449,542.4792 Q645.0601,543.5458 645.0601,545.6459 Q645.0601,547.7377 645.7449,548.8044 Q646.4297,549.871 647.7744,549.871 Q648.4053,549.871 648.9988,549.6012 Q649.5923,549.3315 650.2231,548.7504 Z " fill="#000000"/><text fill="#000000" font-family="sans-serif" font-size="14" lengthAdjust="spacing" textLength="108" x="668.25" y="550.621">TranslateGizmo</text><line style="stroke:#181818;stroke-width:0.5;" x1="549" x2="863" y1="561.33" y2="561.33"/><line style="stroke:#181818;stroke-width:0.5;" x1="549" x2="863" y1="569.33" y2="569.33"/><ellipse cx="559" cy="583.0741" fill="#84BE84" rx="3" ry="3" style="stroke:#038048;stroke-width:1.0;"/><text fill="#000000" font-family="sans-serif" font-size="14" lengthAdjust="spacing" textLength="290" x="568" y="586.8652">TranslateGizmo(Sprite, PropertiesWindow)</text><ellipse cx="559" cy="599.5624" fill="#84BE84" rx="3" ry="3" style="stroke:#038048;stroke-width:1.0;"/><text fill="#000000" font-family="sans-serif" font-size="14" lengthAdjust="spacing" textLength="78" x="568" y="603.3534">start(): void</text><ellipse cx="559" cy="616.0507" fill="#84BE84" rx="3" ry="3" style="stroke:#038048;stroke-width:1.0;"/><text fill="#000000" font-family="sans-serif" font-size="14" lengthAdjust="spacing" textLength="126" x="568" y="619.8417">update(float): void</text><ellipse cx="559" cy="632.539" fill="#84BE84" rx="3" ry="3" style="stroke:#038048;stroke-width:1.0;"/><text fill="#000000" font-family="sans-serif" font-size="14" lengthAdjust="spacing" textLength="108" x="568" y="636.33">setActive(): void</text><ellipse cx="559" cy="649.0273" fill="#84BE84" rx="3" ry="3" style="stroke:#038048;stroke-width:1.0;"/><text fill="#000000" font-family="sans-serif" font-size="14" lengthAdjust="spacing" textLength="119" x="568" y="652.8183">setInactive(): void</text></g></a><!--class game.components.ComponentDeserializer--><a href="ComponentDeserializer.html" target="_top" title="ComponentDeserializer.html" xlink:actuate="onRequest" xlink:href="ComponentDeserializer.html" xlink:show="new" xlink:title="ComponentDeserializer.html" xlink:type="simple"><g id="elem_game.components.ComponentDeserializer"><rect codeLine="43" fill="#F1F1F1" height="80.9766" id="game.components.ComponentDeserializer" rx="2.5" ry="2.5" style="stroke:#181818;stroke-width:0.5;" width="518" x="1116" y="263.69"/><ellipse cx="1289.75" cy="279.69" fill="#ADD1B2" rx="11" ry="11" style="stroke:#181818;stroke-width:1.0;"/><path d="M1292.2231,285.8331 Q1291.6421,286.1319 1291.0029,286.2813 Q1290.3638,286.4307 1289.6582,286.4307 Q1287.1514,286.4307 1285.8315,284.7789 Q1284.5117,283.127 1284.5117,280.0059 Q1284.5117,276.8765 1285.8315,275.2247 Q1287.1514,273.5728 1289.6582,273.5728 Q1290.3638,273.5728 1291.0112,273.7222 Q1291.6587,273.8716 1292.2231,274.1705 L1292.2231,276.8931 Q1291.5923,276.3121 1290.9988,276.0423 Q1290.4053,275.7725 1289.7744,275.7725 Q1288.4297,275.7725 1287.7449,276.8392 Q1287.0601,277.9058 1287.0601,280.0059 Q1287.0601,282.0977 1287.7449,283.1644 Q1288.4297,284.231 1289.7744,284.231 Q1290.4053,284.231 1290.9988,283.9612 Q1291.5923,283.6915 1292.2231,283.1104 Z " fill="#000000"/><text fill="#000000" font-family="sans-serif" font-size="14" lengthAdjust="spacing" textLength="162" x="1310.25" y="284.981">ComponentDeserializer</text><line style="stroke:#181818;stroke-width:0.5;" x1="1117" x2="1633" y1="295.69" y2="295.69"/><line style="stroke:#181818;stroke-width:0.5;" x1="1117" x2="1633" y1="303.69" y2="303.69"/><ellipse cx="1127" cy="317.4341" fill="#84BE84" rx="3" ry="3" style="stroke:#038048;stroke-width:1.0;"/><text fill="#000000" font-family="sans-serif" font-size="14" lengthAdjust="spacing" textLength="492" x="1136" y="321.2252">deserialize(JsonElement, Type, JsonDeserializationContext): Component</text><ellipse cx="1127" cy="333.9224" fill="#84BE84" rx="3" ry="3" style="stroke:#038048;stroke-width:1.0;"/><text fill="#000000" font-family="sans-serif" font-size="14" lengthAdjust="spacing" textLength="458" x="1136" y="337.7134">serialize(Component, Type, JsonSerializationContext): JsonElement</text></g></a><!--class game.components.Component--><a href="Component.html" target="_top" title="Component.html" xlink:actuate="onRequest" xlink:href="Component.html" xlink:show="new" xlink:title="Component.html" xlink:type="simple"><g id="elem_game.components.Component"><rect codeLine="48" fill="#F1F1F1" height="229.3711" id="game.components.Component" rx="2.5" ry="2.5" style="stroke:#181818;stroke-width:0.5;" width="259" x="822.5" y="189.49"/><ellipse cx="907.25" cy="205.49" fill="#A9DCDF" rx="11" ry="11" style="stroke:#181818;stroke-width:1.0;"/><path d="M907.1133,200.8381 L905.9595,205.9099 L908.2754,205.9099 Z M905.6191,198.5969 L908.6157,198.5969 L911.9609,210.99 L909.5122,210.99 L908.7485,207.927 L905.4697,207.927 L904.7227,210.99 L902.2739,210.99 Z " fill="#000000"/><text fill="#000000" font-family="sans-serif" font-size="14" font-style="italic" lengthAdjust="spacing" textLength="81" x="927.75" y="210.781">Component</text><line style="stroke:#181818;stroke-width:0.5;" x1="823.5" x2="1080.5" y1="221.49" y2="221.49"/><ellipse cx="833.5" cy="235.2341" fill="none" rx="3" ry="3" style="stroke:#038048;stroke-width:1.0;"/><text fill="#000000" font-family="sans-serif" font-size="14" lengthAdjust="spacing" textLength="173" x="842.5" y="239.0252">gameObject: GameObject</text><line style="stroke:#181818;stroke-width:0.5;" x1="823.5" x2="1080.5" y1="245.9783" y2="245.9783"/><ellipse cx="833.5" cy="259.7224" fill="#84BE84" rx="3" ry="3" style="stroke:#038048;stroke-width:1.0;"/><text fill="#000000" font-family="sans-serif" font-size="14" lengthAdjust="spacing" textLength="78" x="842.5" y="263.5134">start(): void</text><ellipse cx="833.5" cy="276.2107" fill="#84BE84" rx="3" ry="3" style="stroke:#038048;stroke-width:1.0;"/><text fill="#000000" font-family="sans-serif" font-size="14" lengthAdjust="spacing" textLength="126" x="842.5" y="280.0017">update(float): void</text><ellipse cx="833.5" cy="292.699" fill="#84BE84" rx="3" ry="3" style="stroke:#038048;stroke-width:1.0;"/><text fill="#000000" font-family="sans-serif" font-size="14" lengthAdjust="spacing" textLength="86" x="842.5" y="296.49">imgui(): void</text><ellipse cx="833.5" cy="309.1873" fill="#84BE84" rx="3" ry="3" style="stroke:#038048;stroke-width:1.0;"/><text fill="#000000" font-family="sans-serif" font-size="14" lengthAdjust="spacing" textLength="122" x="842.5" y="312.9783">generateID(): void</text><ellipse cx="833.5" cy="325.6755" fill="#84BE84" rx="3" ry="3" style="stroke:#038048;stroke-width:1.0;"/><text fill="#000000" font-family="sans-serif" font-size="14" lengthAdjust="spacing" textLength="206" x="842.5" y="329.4666">getGameObject(): GameObject</text><ellipse cx="833.5" cy="342.1638" fill="#84BE84" rx="3" ry="3" style="stroke:#038048;stroke-width:1.0;"/><text fill="#000000" font-family="sans-serif" font-size="14" lengthAdjust="spacing" textLength="233" x="842.5" y="345.9548">setGameObject(GameObject): void</text><ellipse cx="833.5" cy="358.6521" fill="#84BE84" rx="3" ry="3" style="stroke:#038048;stroke-width:1.0;"/><text fill="#000000" font-family="sans-serif" font-size="14" lengthAdjust="spacing" text-decoration="underline" textLength="146" x="842.5" y="362.4431">getID_COUNTER(): int</text><ellipse cx="833.5" cy="375.1404" fill="#84BE84" rx="3" ry="3" style="stroke:#038048;stroke-width:1.0;"/><text fill="#000000" font-family="sans-serif" font-size="14" lengthAdjust="spacing" text-decoration="underline" textLength="173" x="842.5" y="378.9314">setID_COUNTER(int): void</text><ellipse cx="833.5" cy="391.6287" fill="#84BE84" rx="3" ry="3" style="stroke:#038048;stroke-width:1.0;"/><text fill="#000000" font-family="sans-serif" font-size="14" lengthAdjust="spacing" textLength="81" x="842.5" y="395.4197">getUid(): int</text><ellipse cx="833.5" cy="408.117" fill="#84BE84" rx="3" ry="3" style="stroke:#038048;stroke-width:1.0;"/><text fill="#000000" font-family="sans-serif" font-size="14" lengthAdjust="spacing" text-decoration="underline" textLength="87" x="842.5" y="411.908">init(int): void</text></g></a><!--class game.components.Spritesheet--><a href="Spritesheet.html" target="_top" title="Spritesheet.html" xlink:actuate="onRequest" xlink:href="Spritesheet.html" xlink:show="new" xlink:title="Spritesheet.html" xlink:type="simple"><g id="elem_game.components.Spritesheet"><rect codeLine="62" fill="#F1F1F1" height="97.4648" id="game.components.Spritesheet" rx="2.5" ry="2.5" style="stroke:#181818;stroke-width:0.5;" width="271" x="269.5" y="255.45"/><ellipse cx="362.25" cy="271.45" fill="#ADD1B2" rx="11" ry="11" style="stroke:#181818;stroke-width:1.0;"/><path d="M364.7231,277.5931 Q364.1421,277.8919 363.5029,278.0413 Q362.8638,278.1907 362.1582,278.1907 Q359.6514,278.1907 358.3315,276.5389 Q357.0117,274.887 357.0117,271.7659 Q357.0117,268.6365 358.3315,266.9847 Q359.6514,265.3328 362.1582,265.3328 Q362.8638,265.3328 363.5112,265.4822 Q364.1587,265.6316 364.7231,265.9305 L364.7231,268.6531 Q364.0923,268.0721 363.4988,267.8023 Q362.9053,267.5325 362.2744,267.5325 Q360.9297,267.5325 360.2449,268.5992 Q359.5601,269.6658 359.5601,271.7659 Q359.5601,273.8577 360.2449,274.9244 Q360.9297,275.991 362.2744,275.991 Q362.9053,275.991 363.4988,275.7212 Q364.0923,275.4515 364.7231,274.8704 Z " fill="#000000"/><text fill="#000000" font-family="sans-serif" font-size="14" lengthAdjust="spacing" textLength="77" x="382.75" y="276.741">Spritesheet</text><line style="stroke:#181818;stroke-width:0.5;" x1="270.5" x2="539.5" y1="287.45" y2="287.45"/><line style="stroke:#181818;stroke-width:0.5;" x1="270.5" x2="539.5" y1="295.45" y2="295.45"/><ellipse cx="280.5" cy="309.1941" fill="#84BE84" rx="3" ry="3" style="stroke:#038048;stroke-width:1.0;"/><text fill="#000000" font-family="sans-serif" font-size="14" lengthAdjust="spacing" textLength="245" x="289.5" y="312.9852">Spritesheet(Texture, int, int, int, int)</text><ellipse cx="280.5" cy="325.6824" fill="#84BE84" rx="3" ry="3" style="stroke:#038048;stroke-width:1.0;"/><text fill="#000000" font-family="sans-serif" font-size="14" lengthAdjust="spacing" textLength="138" x="289.5" y="329.4734">getSprite(int): Sprite</text><ellipse cx="280.5" cy="342.1707" fill="#84BE84" rx="3" ry="3" style="stroke:#038048;stroke-width:1.0;"/><text fill="#000000" font-family="sans-serif" font-size="14" lengthAdjust="spacing" textLength="63" x="289.5" y="345.9617">size(): int</text></g></a><!--class game.components.GridLines--><a href="GridLines.html" target="_top" title="GridLines.html" xlink:actuate="onRequest" xlink:href="GridLines.html" xlink:show="new" xlink:title="GridLines.html" xlink:type="simple"><g id="elem_game.components.GridLines"><rect codeLine="68" fill="#F1F1F1" height="64.4883" id="game.components.GridLines" rx="2.5" ry="2.5" style="stroke:#181818;stroke-width:0.5;" width="152" x="899" y="562.31"/><ellipse cx="939.2" cy="578.31" fill="#ADD1B2" rx="11" ry="11" style="stroke:#181818;stroke-width:1.0;"/><path d="M941.6731,584.4531 Q941.0921,584.7519 940.4529,584.9013 Q939.8138,585.0507 939.1082,585.0507 Q936.6014,585.0507 935.2815,583.3989 Q933.9617,581.747 933.9617,578.6259 Q933.9617,575.4965 935.2815,573.8447 Q936.6014,572.1928 939.1082,572.1928 Q939.8138,572.1928 940.4612,572.3422 Q941.1087,572.4916 941.6731,572.7905 L941.6731,575.5131 Q941.0423,574.9321 940.4488,574.6623 Q939.8553,574.3925 939.2244,574.3925 Q937.8797,574.3925 937.1949,575.4592 Q936.5101,576.5258 936.5101,578.6259 Q936.5101,580.7177 937.1949,581.7844 Q937.8797,582.851 939.2244,582.851 Q939.8553,582.851 940.4488,582.5812 Q941.0423,582.3115 941.6731,581.7304 Z " fill="#000000"/><text fill="#000000" font-family="sans-serif" font-size="14" lengthAdjust="spacing" textLength="64" x="958.8" y="583.601">GridLines</text><line style="stroke:#181818;stroke-width:0.5;" x1="900" x2="1050" y1="594.31" y2="594.31"/><line style="stroke:#181818;stroke-width:0.5;" x1="900" x2="1050" y1="602.31" y2="602.31"/><ellipse cx="910" cy="616.0541" fill="#84BE84" rx="3" ry="3" style="stroke:#038048;stroke-width:1.0;"/><text fill="#000000" font-family="sans-serif" font-size="14" lengthAdjust="spacing" textLength="126" x="919" y="619.8452">update(float): void</text></g></a><!--class game.components.FontRenderer--><a href="FontRenderer.html" target="_top" title="FontRenderer.html" xlink:actuate="onRequest" xlink:href="FontRenderer.html" xlink:show="new" xlink:title="FontRenderer.html" xlink:type="simple"><g id="elem_game.components.FontRenderer"><rect codeLine="72" fill="#F1F1F1" height="80.9766" id="game.components.FontRenderer" rx="2.5" ry="2.5" style="stroke:#181818;stroke-width:0.5;" width="152" x="1086" y="554.06"/><ellipse cx="1112.7" cy="570.06" fill="#ADD1B2" rx="11" ry="11" style="stroke:#181818;stroke-width:1.0;"/><path d="M1115.1731,576.2031 Q1114.5921,576.5019 1113.9529,576.6513 Q1113.3138,576.8007 1112.6082,576.8007 Q1110.1014,576.8007 1108.7815,575.1489 Q1107.4617,573.497 1107.4617,570.3759 Q1107.4617,567.2465 1108.7815,565.5947 Q1110.1014,563.9428 1112.6082,563.9428 Q1113.3138,563.9428 1113.9612,564.0922 Q1114.6087,564.2416 1115.1731,564.5405 L1115.1731,567.2631 Q1114.5423,566.6821 1113.9488,566.4123 Q1113.3553,566.1425 1112.7244,566.1425 Q1111.3797,566.1425 1110.6949,567.2092 Q1110.0101,568.2758 1110.0101,570.3759 Q1110.0101,572.4677 1110.6949,573.5344 Q1111.3797,574.601 1112.7244,574.601 Q1113.3553,574.601 1113.9488,574.3312 Q1114.5423,574.0615 1115.1731,573.4804 Z " fill="#000000"/><text fill="#000000" font-family="sans-serif" font-size="14" lengthAdjust="spacing" textLength="94" x="1129.3" y="575.351">FontRenderer</text><line style="stroke:#181818;stroke-width:0.5;" x1="1087" x2="1237" y1="586.06" y2="586.06"/><line style="stroke:#181818;stroke-width:0.5;" x1="1087" x2="1237" y1="594.06" y2="594.06"/><ellipse cx="1097" cy="607.8041" fill="#84BE84" rx="3" ry="3" style="stroke:#038048;stroke-width:1.0;"/><text fill="#000000" font-family="sans-serif" font-size="14" lengthAdjust="spacing" textLength="78" x="1106" y="611.5952">start(): void</text><ellipse cx="1097" cy="624.2924" fill="#84BE84" rx="3" ry="3" style="stroke:#038048;stroke-width:1.0;"/><text fill="#000000" font-family="sans-serif" font-size="14" lengthAdjust="spacing" textLength="126" x="1106" y="628.0834">update(float): void</text></g></a><!--class game.components.EditorCamera--><a href="EditorCamera.html" target="_top" title="EditorCamera.html" xlink:actuate="onRequest" xlink:href="EditorCamera.html" xlink:show="new" xlink:title="EditorCamera.html" xlink:type="simple"><g id="elem_game.components.EditorCamera"><rect codeLine="77" fill="#F1F1F1" height="80.9766" id="game.components.EditorCamera" rx="2.5" ry="2.5" style="stroke:#181818;stroke-width:0.5;" width="183" x="1273.5" y="554.06"/><ellipse cx="1314.15" cy="570.06" fill="#ADD1B2" rx="11" ry="11" style="stroke:#181818;stroke-width:1.0;"/><path d="M1316.6231,576.2031 Q1316.0421,576.5019 1315.4029,576.6513 Q1314.7638,576.8007 1314.0582,576.8007 Q1311.5514,576.8007 1310.2315,575.1489 Q1308.9117,573.497 1308.9117,570.3759 Q1308.9117,567.2465 1310.2315,565.5947 Q1311.5514,563.9428 1314.0582,563.9428 Q1314.7638,563.9428 1315.4112,564.0922 Q1316.0587,564.2416 1316.6231,564.5405 L1316.6231,567.2631 Q1315.9923,566.6821 1315.3988,566.4123 Q1314.8053,566.1425 1314.1744,566.1425 Q1312.8297,566.1425 1312.1449,567.2092 Q1311.4601,568.2758 1311.4601,570.3759 Q1311.4601,572.4677 1312.1449,573.5344 Q1312.8297,574.601 1314.1744,574.601 Q1314.8053,574.601 1315.3988,574.3312 Q1315.9923,574.0615 1316.6231,573.4804 Z " fill="#000000"/><text fill="#000000" font-family="sans-serif" font-size="14" lengthAdjust="spacing" textLength="94" x="1333.85" y="575.351">EditorCamera</text><line style="stroke:#181818;stroke-width:0.5;" x1="1274.5" x2="1455.5" y1="586.06" y2="586.06"/><line style="stroke:#181818;stroke-width:0.5;" x1="1274.5" x2="1455.5" y1="594.06" y2="594.06"/><ellipse cx="1284.5" cy="607.8041" fill="#84BE84" rx="3" ry="3" style="stroke:#038048;stroke-width:1.0;"/><text fill="#000000" font-family="sans-serif" font-size="14" lengthAdjust="spacing" textLength="157" x="1293.5" y="611.5952">EditorCamera(Camera)</text><ellipse cx="1284.5" cy="624.2924" fill="#84BE84" rx="3" ry="3" style="stroke:#038048;stroke-width:1.0;"/><text fill="#000000" font-family="sans-serif" font-size="14" lengthAdjust="spacing" textLength="126" x="1293.5" y="628.0834">update(float): void</text></g></a><!--class game.components.Rigidbody--><a href="Rigidbody.html" target="_top" title="Rigidbody.html" xlink:actuate="onRequest" xlink:href="Rigidbody.html" xlink:show="new" xlink:title="Rigidbody.html" xlink:type="simple"><g id="elem_game.components.Rigidbody"><rect codeLine="82" fill="#F1F1F1" height="80.9766" id="game.components.Rigidbody" rx="2.5" ry="2.5" style="stroke:#181818;stroke-width:0.5;" width="143" x="1491.5" y="554.06"/><ellipse cx="1525.4" cy="570.06" fill="#ADD1B2" rx="11" ry="11" style="stroke:#181818;stroke-width:1.0;"/><path d="M1527.8731,576.2031 Q1527.2921,576.5019 1526.6529,576.6513 Q1526.0138,576.8007 1525.3082,576.8007 Q1522.8014,576.8007 1521.4815,575.1489 Q1520.1617,573.497 1520.1617,570.3759 Q1520.1617,567.2465 1521.4815,565.5947 Q1522.8014,563.9428 1525.3082,563.9428 Q1526.0138,563.9428 1526.6612,564.0922 Q1527.3087,564.2416 1527.8731,564.5405 L1527.8731,567.2631 Q1527.2423,566.6821 1526.6488,566.4123 Q1526.0553,566.1425 1525.4244,566.1425 Q1524.0797,566.1425 1523.3949,567.2092 Q1522.7101,568.2758 1522.7101,570.3759 Q1522.7101,572.4677 1523.3949,573.5344 Q1524.0797,574.601 1525.4244,574.601 Q1526.0553,574.601 1526.6488,574.3312 Q1527.2423,574.0615 1527.8731,573.4804 Z " fill="#000000"/><text fill="#000000" font-family="sans-serif" font-size="14" lengthAdjust="spacing" textLength="69" x="1543.6" y="575.351">Rigidbody</text><line style="stroke:#181818;stroke-width:0.5;" x1="1492.5" x2="1633.5" y1="586.06" y2="586.06"/><ellipse cx="1502.5" cy="599.8041" fill="none" rx="3" ry="3" style="stroke:#038048;stroke-width:1.0;"/><text fill="#000000" font-family="sans-serif" font-size="14" lengthAdjust="spacing" textLength="117" x="1511.5" y="603.5952">velocity: Vector3f</text><ellipse cx="1502.5" cy="616.2924" fill="none" rx="3" ry="3" style="stroke:#038048;stroke-width:1.0;"/><text fill="#000000" font-family="sans-serif" font-size="14" lengthAdjust="spacing" textLength="93" x="1511.5" y="620.0834">tmp: Vector4f</text><line style="stroke:#181818;stroke-width:0.5;" x1="1492.5" x2="1633.5" y1="627.0366" y2="627.0366"/></g></a><!--class com.google.gson.JsonSerializer--><g id="elem_com.google.gson.JsonSerializer"><rect codeLine="100" fill="#F1F1F1" height="64.4883" id="com.google.gson.JsonSerializer" rx="2.5" ry="2.5" style="stroke:#181818;stroke-width:0.5;" width="412" x="907" y="41"/><ellipse cx="1056.25" cy="57" fill="#B4A7E5" rx="11" ry="11" style="stroke:#181818;stroke-width:1.0;"/><path d="M1052.6777,53.2651 L1052.6777,51.1069 L1060.0571,51.1069 L1060.0571,53.2651 L1057.5918,53.2651 L1057.5918,61.3418 L1060.0571,61.3418 L1060.0571,63.5 L1052.6777,63.5 L1052.6777,61.3418 L1055.1431,61.3418 L1055.1431,53.2651 Z " fill="#000000"/><text fill="#000000" font-family="sans-serif" font-size="14" font-style="italic" lengthAdjust="spacing" textLength="93" x="1076.75" y="62.291">JsonSerializer</text><rect fill="#FFFFFF" height="16.1328" style="stroke:#181818;stroke-width:1.0;stroke-dasharray:2.0,2.0;" width="10" x="1312" y="38"/><text fill="#000000" font-family="sans-serif" font-size="12" font-style="italic" lengthAdjust="spacing" textLength="8" x="1313" y="50.6016">T</text><line style="stroke:#181818;stroke-width:0.5;" x1="908" x2="1318" y1="73" y2="73"/><line style="stroke:#181818;stroke-width:0.5;" x1="908" x2="1318" y1="81" y2="81"/><ellipse cx="918" cy="94.7441" fill="#84BE84" rx="3" ry="3" style="stroke:#038048;stroke-width:1.0;"/><text fill="#000000" font-family="sans-serif" font-size="14" font-style="italic" lengthAdjust="spacing" textLength="386" x="927" y="98.5352">serialize(T, Type, JsonSerializationContext): JsonElement</text></g><!--class com.google.gson.JsonDeserializer--><g id="elem_com.google.gson.JsonDeserializer"><rect codeLine="103" fill="#F1F1F1" height="64.4883" id="com.google.gson.JsonDeserializer" rx="2.5" ry="2.5" style="stroke:#181818;stroke-width:0.5;" width="446" x="1354" y="41"/><ellipse cx="1511.75" cy="57" fill="#B4A7E5" rx="11" ry="11" style="stroke:#181818;stroke-width:1.0;"/><path d="M1508.1777,53.2651 L1508.1777,51.1069 L1515.5571,51.1069 L1515.5571,53.2651 L1513.0918,53.2651 L1513.0918,61.3418 L1515.5571,61.3418 L1515.5571,63.5 L1508.1777,63.5 L1508.1777,61.3418 L1510.6431,61.3418 L1510.6431,53.2651 Z " fill="#000000"/><text fill="#000000" font-family="sans-serif" font-size="14" font-style="italic" lengthAdjust="spacing" textLength="110" x="1532.25" y="62.291">JsonDeserializer</text><rect fill="#FFFFFF" height="16.1328" style="stroke:#181818;stroke-width:1.0;stroke-dasharray:2.0,2.0;" width="10" x="1793" y="38"/><text fill="#000000" font-family="sans-serif" font-size="12" font-style="italic" lengthAdjust="spacing" textLength="8" x="1794" y="50.6016">T</text><line style="stroke:#181818;stroke-width:0.5;" x1="1355" x2="1799" y1="73" y2="73"/><line style="stroke:#181818;stroke-width:0.5;" x1="1355" x2="1799" y1="81" y2="81"/><ellipse cx="1365" cy="94.7441" fill="#84BE84" rx="3" ry="3" style="stroke:#038048;stroke-width:1.0;"/><text fill="#000000" font-family="sans-serif" font-size="14" font-style="italic" lengthAdjust="spacing" textLength="420" x="1374" y="98.5352">deserialize(JsonElement, Type, JsonDeserializationContext): T</text></g><!--reverse link game.components.Component to game.components.SpriteRenderer--><g id="link_game.components.Component_game.components.SpriteRenderer"><path codeLine="87" d="M802.12,351.71 C728.9,373.6 639.27,399.16 558,418.86 C421.96,451.85 373.64,416.15 249,479.86 C243.33,482.76 237.73,486 232.24,489.5 " fill="none" id="game.components.Component-backto-game.components.SpriteRenderer" style="stroke:#181818;stroke-width:1.0;"/><polygon fill="none" points="799.7,345.13,820.86,346.08,803.73,358.54,799.7,345.13" style="stroke:#181818;stroke-width:1.0;"/></g><!--link game.components.SpriteRenderer to game.components.Sprite--><g id="link_game.components.SpriteRenderer_game.components.Sprite"><path codeLine="88" d="M132.53,709.33 C133.66,732.46 134.84,756.67 135.94,779.44 " fill="none" id="game.components.SpriteRenderer-to-game.components.Sprite" style="stroke:#181818;stroke-width:1.0;"/><polygon fill="#181818" points="136.18,784.31,139.7374,775.126,135.9367,779.3159,131.7469,775.5153,136.18,784.31" style="stroke:#181818;stroke-width:1.0;"/><text fill="#000000" font-family="sans-serif" font-size="13" lengthAdjust="spacing" textLength="36" x="136" y="752.8084">sprite</text></g><!--reverse link game.components.Component to game.components.MouseControls--><g id="link_game.components.Component_game.components.MouseControls"><path codeLine="89" d="M802.2,355.11 C719.19,385.7 615.75,428.79 530,479.86 C498.8,498.45 467.13,523.54 441.82,545.41 " fill="none" id="game.components.Component-backto-game.components.MouseControls" style="stroke:#181818;stroke-width:1.0;"/><polygon fill="none" points="799.69,348.57,820.88,348.31,804.48,361.73,799.69,348.57" style="stroke:#181818;stroke-width:1.0;"/></g><!--reverse link game.components.Component to game.components.TranslateGizmo--><g id="link_game.components.Component_game.components.TranslateGizmo"><path codeLine="90" d="M840.85,435.47 C813.19,467.9 784.72,501.28 761.11,528.95 " fill="none" id="game.components.Component-backto-game.components.TranslateGizmo" style="stroke:#181818;stroke-width:1.0;"/><polygon fill="none" points="835.49,430.97,853.79,420.3,846.14,440.06,835.49,430.97" style="stroke:#181818;stroke-width:1.0;"/></g><!--reverse link com.google.gson.JsonSerializer to game.components.ComponentDeserializer--><g id="link_com.google.gson.JsonSerializer_game.components.ComponentDeserializer"><path codeLine="91" d="M1165.13,119.8 C1213.17,161.78 1283.75,223.45 1329.55,263.47 " fill="none" id="com.google.gson.JsonSerializer-backto-game.components.ComponentDeserializer" style="stroke:#181818;stroke-width:1.0;stroke-dasharray:7.0,7.0;"/><polygon fill="none" points="1160.75,125.27,1150.29,106.84,1169.96,114.72,1160.75,125.27" style="stroke:#181818;stroke-width:1.0;"/></g><!--reverse link com.google.gson.JsonDeserializer to game.components.ComponentDeserializer--><g id="link_com.google.gson.JsonDeserializer_game.components.ComponentDeserializer"><path codeLine="92" d="M1535.32,121.48 C1498.36,163.38 1444.96,223.89 1410.12,263.37 " fill="none" id="com.google.gson.JsonDeserializer-backto-game.components.ComponentDeserializer" style="stroke:#181818;stroke-width:1.0;stroke-dasharray:7.0,7.0;"/><polygon fill="none" points="1529.85,117.1,1548.33,106.74,1540.35,126.36,1529.85,117.1" style="stroke:#181818;stroke-width:1.0;"/></g><!--reverse link game.components.Component to game.components.GridLines--><g id="link_game.components.Component_game.components.GridLines"><path codeLine="93" d="M962.79,440.5 C966.4,485.76 970.11,532.19 972.47,561.86 " fill="none" id="game.components.Component-backto-game.components.GridLines" style="stroke:#181818;stroke-width:1.0;"/><polygon fill="none" points="955.82,441.15,961.21,420.66,969.78,440.04,955.82,441.15" style="stroke:#181818;stroke-width:1.0;"/></g><!--reverse link game.components.Component to game.components.FontRenderer--><g id="link_game.components.Component_game.components.FontRenderer"><path codeLine="94" d="M1047.49,436.3 C1078.49,478.87 1110.6,522.97 1132.9,553.6 " fill="none" id="game.components.Component-backto-game.components.FontRenderer" style="stroke:#181818;stroke-width:1.0;"/><polygon fill="none" points="1042,440.66,1035.89,420.37,1053.32,432.42,1042,440.66" style="stroke:#181818;stroke-width:1.0;"/></g><!--reverse link game.components.Component to game.components.EditorCamera--><g id="link_game.components.Component_game.components.EditorCamera"><path codeLine="95" d="M1100.46,418.65 C1168.67,453.22 1197.99,441.92 1255,479.86 C1285.29,500.03 1313.69,529.77 1334.05,553.78 " fill="none" id="game.components.Component-backto-game.components.EditorCamera" style="stroke:#181818;stroke-width:1.0;"/><polygon fill="none" points="1097.31,424.91,1083.05,409.24,1103.97,412.59,1097.31,424.91" style="stroke:#181818;stroke-width:1.0;"/></g><!--reverse link game.components.Component to game.components.Rigidbody--><g id="link_game.components.Component_game.components.Rigidbody"><path codeLine="96" d="M1101.53,418.68 C1259.83,479.21 1334.32,397.29 1474,479.86 C1503.45,497.28 1526.8,528.44 1542.18,553.74 " fill="none" id="game.components.Component-backto-game.components.Rigidbody" style="stroke:#181818;stroke-width:1.0;"/><polygon fill="none" points="1099.03,425.22,1083.2,411.14,1104.36,412.27,1099.03,425.22" style="stroke:#181818;stroke-width:1.0;"/></g><text fill="#888888" font-family="sans-serif" font-size="10" lengthAdjust="spacing" textLength="182" x="813.5" y="1014.298">UMLDoclet 2.1.0, PlantUML 1.2022.14</text><!--SRC=[lLPRJzim57xdL_XbKghHQ6DxGWXfQXdh16CgPJmWDAN9QUejiIFRxLQW_tt7RIwEOvSnqFhG-FBvErUVOq88OL4EieXY82cEmfZd1MV0b2JtUtka_CLP92MvB0HLC0QMW011RcxQ2-5SvTdjBPuZnk-rL95GGU-GB3bDsbkB8eaK1BECHye9e7cweEwpAQW1pxZGkzyWLboydtKG4_Yj5W8qfXow80FEHI8ReeFPpQrbGoMiakJMLWwfK2jDDEKyWuXrM6f0zxIMeSzuTojZogyDMzlXEkSB2GFEbE2Pn6YrvfvW5JJ-kIWkfZ_Gpk0K4s8xTAfKP9WrJm_isfrMTJfvD7lPQ3xYImDMqZLSlcoyfecQQx4RgpjKssr_gYF39w3fNFafolsT7AZnAD4Kb2c_ooSYOZB349tIkvoZwziBdX2qGS4sNFlag-0524L1NbEMy5-zbxl_QFI7MD4bU2_5Y4LkGCVcGLNPXY11q2YZTviYvbptU21f8C5doTb91ZcUt2UJLO6Uq4iDIwGeP_g-OOwXThKSsuQAi0QOT9TkCaEuo-9eAfL0nzYcc-RwxbbzwGz9Km3-Kqbd8F3qQEWj-Or66kBLhmNSNSRkqHX5u_M6VZJyFhYu-Z8v6TjNg0sLBIZYVFfUqMGt4sLKkGWyLLBE0LHTAZSpJnmDH5NbzhKUrb-le_BsOAdJTc9vLoVhOnNcLD3aZ3BGZQSUUrHzKhVuY7V0U8AOqvTzW7GadoGKMy00iqb4ADcSUYIRa63xwJr3WJ5DQJBboGgbrsEFw2LaFAPgLNN1TzRZIEM5uzraY6ngnj53ls-z_MgKzIJizu_BfKCYswbZyRKU8pvGk-4qtk1vc7AUPX2cM0T3iqwY4aSFOUYkzZiPMctXBpWiNUiazm7CJFLXp8JnOUh8xnaHQrxnbcb6Nk1z1J7JcBR3ZYR7LlRSL_rZRVQdoJ_t9RS6fbTtw_2SjZknz2WT5eFMXSmurv-hyxCXZpCihGVXs_0DlccoY2bS9Q-M82GI1hq_]--></g></svg>