<?xml version="1.0" encoding="UTF-8" standalone="no"?><svg xmlns="http://www.w3.org/2000/svg" xmlns:xlink="http://www.w3.org/1999/xlink" contentStyleType="text/css" height="375px" preserveAspectRatio="none" style="width:224px;height:375px;background:#FFFFFF;" version="1.1" viewBox="0 0 224 375" width="224px" zoomAndPan="magnify"><defs/><g><!--class game.components.SpriteRenderer--><a href="SpriteRenderer.html" target="_top" title="SpriteRenderer.html" xlink:actuate="onRequest" xlink:href="SpriteRenderer.html" xlink:show="new" xlink:title="SpriteRenderer.html" xlink:type="simple"><g id="elem_game.components.SpriteRenderer"><rect codeLine="5" fill="#F1F1F1" height="244.125" id="game.components.SpriteRenderer" rx="2.5" ry="2.5" style="stroke:#181818;stroke-width:0.5;" width="210" x="7" y="105.27"/><ellipse cx="56.25" cy="124.4028" fill="#ADD1B2" rx="11" ry="11" style="stroke:#181818;stroke-width:1.0;"/><path d="M58.7231,130.5459 Q58.1421,130.8447 57.5029,130.9941 Q56.8638,131.1435 56.1582,131.1435 Q53.6514,131.1435 52.3315,129.4917 Q51.0117,127.8398 51.0117,124.7187 Q51.0117,121.5893 52.3315,119.9375 Q53.6514,118.2856 56.1582,118.2856 Q56.8638,118.2856 57.5112,118.435 Q58.1587,118.5845 58.7231,118.8833 L58.7231,121.6059 Q58.0923,121.0249 57.4988,120.7551 Q56.9053,120.4853 56.2744,120.4853 Q54.9297,120.4853 54.2449,121.552 Q53.5601,122.6186 53.5601,124.7187 Q53.5601,126.8105 54.2449,127.8772 Q54.9297,128.9438 56.2744,128.9438 Q56.9053,128.9438 57.4988,128.6741 Q58.0923,128.4043 58.7231,127.8232 Z " fill="#000000"/><text fill="#000000" font-family="sans-serif" font-size="14" lengthAdjust="spacing" textLength="103" x="76.75" y="123.8052">SpriteRenderer</text><text fill="#000000" font-family="sans-serif" font-size="10" lengthAdjust="spacing" textLength="89" x="83.75" y="136.4262">game.components</text><line style="stroke:#181818;stroke-width:0.5;" x1="8" x2="216" y1="143.5356" y2="143.5356"/><ellipse cx="18" cy="157.2798" fill="#84BE84" rx="3" ry="3" style="stroke:#038048;stroke-width:1.0;"/><text fill="#000000" font-family="sans-serif" font-size="14" lengthAdjust="spacing" textLength="78" x="27" y="161.0708">start(): void</text><ellipse cx="18" cy="173.768" fill="#84BE84" rx="3" ry="3" style="stroke:#038048;stroke-width:1.0;"/><text fill="#000000" font-family="sans-serif" font-size="14" lengthAdjust="spacing" textLength="126" x="27" y="177.5591">update(float): void</text><ellipse cx="18" cy="190.2563" fill="#84BE84" rx="3" ry="3" style="stroke:#038048;stroke-width:1.0;"/><text fill="#000000" font-family="sans-serif" font-size="14" lengthAdjust="spacing" textLength="86" x="27" y="194.0473">imgui(): void</text><ellipse cx="18" cy="206.7446" fill="#84BE84" rx="3" ry="3" style="stroke:#038048;stroke-width:1.0;"/><text fill="#000000" font-family="sans-serif" font-size="14" lengthAdjust="spacing" textLength="136" x="27" y="210.5356">getColor(): Vector4f</text><ellipse cx="18" cy="223.2329" fill="#84BE84" rx="3" ry="3" style="stroke:#038048;stroke-width:1.0;"/><text fill="#000000" font-family="sans-serif" font-size="14" lengthAdjust="spacing" textLength="148" x="27" y="227.0239">getTexture(): Texture</text><ellipse cx="18" cy="239.7212" fill="#84BE84" rx="3" ry="3" style="stroke:#038048;stroke-width:1.0;"/><text fill="#000000" font-family="sans-serif" font-size="14" lengthAdjust="spacing" textLength="184" x="27" y="243.5122">getTexCoords(): Vector2f[]</text><ellipse cx="18" cy="256.2095" fill="#84BE84" rx="3" ry="3" style="stroke:#038048;stroke-width:1.0;"/><text fill="#000000" font-family="sans-serif" font-size="14" lengthAdjust="spacing" textLength="147" x="27" y="260.0005">setSprite(Sprite): void</text><ellipse cx="18" cy="272.6977" fill="#84BE84" rx="3" ry="3" style="stroke:#038048;stroke-width:1.0;"/><text fill="#000000" font-family="sans-serif" font-size="14" lengthAdjust="spacing" textLength="163" x="27" y="276.4888">setColor(Vector4f): void</text><ellipse cx="18" cy="289.186" fill="#84BE84" rx="3" ry="3" style="stroke:#038048;stroke-width:1.0;"/><text fill="#000000" font-family="sans-serif" font-size="14" lengthAdjust="spacing" textLength="117" x="27" y="292.977">isDirty(): boolean</text><ellipse cx="18" cy="305.6743" fill="#84BE84" rx="3" ry="3" style="stroke:#038048;stroke-width:1.0;"/><text fill="#000000" font-family="sans-serif" font-size="14" lengthAdjust="spacing" textLength="99" x="27" y="309.4653">setDirty(): void</text><ellipse cx="18" cy="322.1626" fill="#84BE84" rx="3" ry="3" style="stroke:#038048;stroke-width:1.0;"/><text fill="#000000" font-family="sans-serif" font-size="14" lengthAdjust="spacing" textLength="106" x="27" y="325.9536">setClean(): void</text><ellipse cx="18" cy="338.6509" fill="#84BE84" rx="3" ry="3" style="stroke:#038048;stroke-width:1.0;"/><text fill="#000000" font-family="sans-serif" font-size="14" lengthAdjust="spacing" textLength="175" x="27" y="342.4419">setTexture(Texture): void</text></g></a><!--class game.components.Component--><a href="Component.html" target="_top" title="Component.html" xlink:actuate="onRequest" xlink:href="Component.html" xlink:show="new" xlink:title="Component.html" xlink:type="simple"><g id="elem_game.components.Component"><rect codeLine="20" fill="#F1F1F1" height="38.2656" id="game.components.Component" rx="2.5" ry="2.5" style="stroke:#181818;stroke-width:0.5;" width="121" x="51.5" y="7"/><ellipse cx="66.5" cy="26.1328" fill="#A9DCDF" rx="11" ry="11" style="stroke:#181818;stroke-width:1.0;"/><path d="M66.3633,21.481 L65.2095,26.5527 L67.5254,26.5527 Z M64.8691,19.2397 L67.8657,19.2397 L71.2109,31.6328 L68.7622,31.6328 L67.9985,28.5698 L64.7197,28.5698 L63.9727,31.6328 L61.5239,31.6328 Z " fill="#000000"/><text fill="#000000" font-family="sans-serif" font-size="14" font-style="italic" lengthAdjust="spacing" textLength="81" x="84.5" y="25.5352">Component</text><text fill="#000000" font-family="sans-serif" font-size="10" font-style="italic" lengthAdjust="spacing" textLength="89" x="80.5" y="38.1563">game.components</text></g></a><!--reverse link game.components.Component to game.components.SpriteRenderer--><g id="link_game.components.Component_game.components.SpriteRenderer"><path codeLine="22" d="M112,66.87 C112,78.31 112,91.42 112,105.11 " fill="none" id="game.components.Component-backto-game.components.SpriteRenderer" style="stroke:#181818;stroke-width:1.0;"/><polygon fill="none" points="105,67.03,112,47.03,119,67.03,105,67.03" style="stroke:#181818;stroke-width:1.0;"/></g><text fill="#888888" font-family="sans-serif" font-size="10" lengthAdjust="spacing" textLength="182" x="14" y="365.063">UMLDoclet 2.1.0, PlantUML 1.2022.14</text><!--SRC=[bLBBRi8m4BptArP8bQXQ8a2S4E82nrQgIjiBvM2IJMB9yKRU1PK-_hqEIO0Gggg-h3NZyQmz2m30A61LXfoh41UOAwU475YoUELfI7M4W5akEuWrceZFqGmb9G_lyT0ePkXCM7_WU32QBdAd1P_GHkZGlTcAw4yJRnc4bENUnmftG36SOK5J3Cjb4mXIoSng1PzxvsBTiYWdtPinR4b7HtYJHqgm6njIqY9rbcnqMvEWpCYGAvXN3FsVZE86-uplid5OyDNsd9uHkOYF5mpZvUgaLvJoFTsoj3hWkeFQljqwpxMJNU6m9ZAeR4Dz8Dlt5cSlClMhgdfwvBkCMArPd0gbbVMiJkwVCHzqFk73lWgtjFnTCVdgzVwOcsemFUDdA2Ogoil3_Pn2uqT_60o2_Xqy6cN5et2zHSUQ_EVy0000]--></g></svg>