<?xml version="1.0" encoding="UTF-8" standalone="no"?><svg xmlns="http://www.w3.org/2000/svg" xmlns:xlink="http://www.w3.org/1999/xlink" contentStyleType="text/css" height="342px" preserveAspectRatio="none" style="width:224px;height:342px;background:#FFFFFF;" version="1.1" viewBox="0 0 224 342" width="224px" zoomAndPan="magnify"><defs/><g><!--class game.components.SpriteRenderer--><a href="SpriteRenderer.html" target="_top" title="SpriteRenderer.html" xlink:actuate="onRequest" xlink:href="SpriteRenderer.html" xlink:show="new" xlink:title="SpriteRenderer.html" xlink:type="simple"><g id="elem_game.components.SpriteRenderer"><rect codeLine="5" fill="#F1F1F1" height="211.1484" id="game.components.SpriteRenderer" rx="2.5" ry="2.5" style="stroke:#181818;stroke-width:0.5;" width="210" x="7" y="105.26"/><ellipse cx="56.25" cy="124.3928" fill="#ADD1B2" rx="11" ry="11" style="stroke:#181818;stroke-width:1.0;"/><path d="M58.7231,130.5359 Q58.1421,130.8347 57.5029,130.9841 Q56.8638,131.1335 56.1582,131.1335 Q53.6514,131.1335 52.3315,129.4817 Q51.0117,127.8298 51.0117,124.7087 Q51.0117,121.5793 52.3315,119.9275 Q53.6514,118.2756 56.1582,118.2756 Q56.8638,118.2756 57.5112,118.425 Q58.1587,118.5745 58.7231,118.8733 L58.7231,121.5959 Q58.0923,121.0149 57.4988,120.7451 Q56.9053,120.4753 56.2744,120.4753 Q54.9297,120.4753 54.2449,121.542 Q53.5601,122.6086 53.5601,124.7087 Q53.5601,126.8005 54.2449,127.8672 Q54.9297,128.9338 56.2744,128.9338 Q56.9053,128.9338 57.4988,128.6641 Q58.0923,128.3943 58.7231,127.8132 Z " fill="#000000"/><text fill="#000000" font-family="sans-serif" font-size="14" lengthAdjust="spacing" textLength="103" x="76.75" y="123.7952">SpriteRenderer</text><text fill="#000000" font-family="sans-serif" font-size="10" lengthAdjust="spacing" textLength="89" x="83.75" y="136.4163">game.components</text><line style="stroke:#181818;stroke-width:0.5;" x1="8" x2="216" y1="143.5256" y2="143.5256"/><ellipse cx="18" cy="157.2698" fill="#84BE84" rx="3" ry="3" style="stroke:#038048;stroke-width:1.0;"/><text fill="#000000" font-family="sans-serif" font-size="14" lengthAdjust="spacing" textLength="78" x="27" y="161.0608">start(): void</text><ellipse cx="18" cy="173.758" fill="#84BE84" rx="3" ry="3" style="stroke:#038048;stroke-width:1.0;"/><text fill="#000000" font-family="sans-serif" font-size="14" lengthAdjust="spacing" textLength="126" x="27" y="177.5491">update(float): void</text><ellipse cx="18" cy="190.2463" fill="#84BE84" rx="3" ry="3" style="stroke:#038048;stroke-width:1.0;"/><text fill="#000000" font-family="sans-serif" font-size="14" lengthAdjust="spacing" textLength="86" x="27" y="194.0373">imgui(): void</text><ellipse cx="18" cy="206.7346" fill="#84BE84" rx="3" ry="3" style="stroke:#038048;stroke-width:1.0;"/><text fill="#000000" font-family="sans-serif" font-size="14" lengthAdjust="spacing" textLength="136" x="27" y="210.5256">getColor(): Vector4f</text><ellipse cx="18" cy="223.2229" fill="#84BE84" rx="3" ry="3" style="stroke:#038048;stroke-width:1.0;"/><text fill="#000000" font-family="sans-serif" font-size="14" lengthAdjust="spacing" textLength="148" x="27" y="227.0139">getTexture(): Texture</text><ellipse cx="18" cy="239.7112" fill="#84BE84" rx="3" ry="3" style="stroke:#038048;stroke-width:1.0;"/><text fill="#000000" font-family="sans-serif" font-size="14" lengthAdjust="spacing" textLength="184" x="27" y="243.5022">getTexCoords(): Vector2f[]</text><ellipse cx="18" cy="256.1995" fill="#84BE84" rx="3" ry="3" style="stroke:#038048;stroke-width:1.0;"/><text fill="#000000" font-family="sans-serif" font-size="14" lengthAdjust="spacing" textLength="147" x="27" y="259.9905">setSprite(Sprite): void</text><ellipse cx="18" cy="272.6877" fill="#84BE84" rx="3" ry="3" style="stroke:#038048;stroke-width:1.0;"/><text fill="#000000" font-family="sans-serif" font-size="14" lengthAdjust="spacing" textLength="163" x="27" y="276.4788">setColor(Vector4f): void</text><ellipse cx="18" cy="289.176" fill="#84BE84" rx="3" ry="3" style="stroke:#038048;stroke-width:1.0;"/><text fill="#000000" font-family="sans-serif" font-size="14" lengthAdjust="spacing" textLength="117" x="27" y="292.967">isDirty(): boolean</text><ellipse cx="18" cy="305.6643" fill="#84BE84" rx="3" ry="3" style="stroke:#038048;stroke-width:1.0;"/><text fill="#000000" font-family="sans-serif" font-size="14" lengthAdjust="spacing" textLength="106" x="27" y="309.4553">setClean(): void</text></g></a><!--class game.engine.Component--><a href="../engine/Component.html" target="_top" title="../engine/Component.html" xlink:actuate="onRequest" xlink:href="../engine/Component.html" xlink:show="new" xlink:title="../engine/Component.html" xlink:type="simple"><g id="elem_game.engine.Component"><rect codeLine="18" fill="#F1F1F1" height="38.2656" id="game.engine.Component" rx="2.5" ry="2.5" style="stroke:#181818;stroke-width:0.5;" width="113" x="55.5" y="7"/><ellipse cx="70.5" cy="26.1328" fill="#A9DCDF" rx="11" ry="11" style="stroke:#181818;stroke-width:1.0;"/><path d="M70.3633,21.481 L69.2095,26.5527 L71.5254,26.5527 Z M68.8691,19.2397 L71.8657,19.2397 L75.2109,31.6328 L72.7622,31.6328 L71.9985,28.5698 L68.7197,28.5698 L67.9727,31.6328 L65.5239,31.6328 Z " fill="#000000"/><text fill="#000000" font-family="sans-serif" font-size="14" font-style="italic" lengthAdjust="spacing" textLength="81" x="84.5" y="25.5352">Component</text><text fill="#000000" font-family="sans-serif" font-size="10" font-style="italic" lengthAdjust="spacing" textLength="63" x="93.5" y="38.1563">game.engine</text></g></a><!--reverse link game.engine.Component to game.components.SpriteRenderer--><g id="link_game.engine.Component_game.components.SpriteRenderer"><path codeLine="20" d="M112,67.15 C112,78.63 112,91.7 112,105.17 " fill="none" id="game.engine.Component-backto-game.components.SpriteRenderer" style="stroke:#181818;stroke-width:1.0;"/><polygon fill="none" points="105,67.17,112,47.17,119,67.17,105,67.17" style="stroke:#181818;stroke-width:1.0;"/></g><text fill="#888888" font-family="sans-serif" font-size="10" lengthAdjust="spacing" textLength="182" x="14" y="332.0764">UMLDoclet 2.1.0, PlantUML 1.2022.14</text><!--SRC=[XPBBRi8m44Nt_OeHKYMg5lCGAuJOmBALgj9sGrcOP18iEPx8Cw3Inx_N8G6Qf5ApSN9kndV6rm00Z09EPyYvZd29kVPQo8CZXrT1Xgs94J3BvG29GHjpasOeMmhuo2EhcQ4pPVE1a-5ujioz4Nn25wD7_-OgOJ1BWwMAACk3ZnFkW6PeC5KlXjMg3jHMChjUm-VHkNXkMRINxiq4zcJY2zxbiHRi9fQqj4IJfJlJhabHvcJ95yehHk5CnabDVSPtsNaizEgrAS-9VCoN3KR9QlshLvHodcwvj3hWKmSd-tRhl31U3eN3XiYYTlNgWjGc-ovJqXiMhoDfnJK_7NupANIfSNX9gVnMv_z3E4hrIze_qogXqlJlkkbNh_TFyDND2agu10bHiRmyt2yeik7kZjHG3UxWqMedWSBr7ZqR2dF_0000]--></g></svg>