<?xml version="1.0" encoding="UTF-8" standalone="no"?><svg xmlns="http://www.w3.org/2000/svg" xmlns:xlink="http://www.w3.org/1999/xlink" contentStyleType="text/css" height="228px" preserveAspectRatio="none" style="width:258px;height:228px;background:#FFFFFF;" version="1.1" viewBox="0 0 258 228" width="258px" zoomAndPan="magnify"><defs/><g><!--class game.components.Sprite--><a href="Sprite.html" target="_top" title="Sprite.html" xlink:actuate="onRequest" xlink:href="Sprite.html" xlink:show="new" xlink:title="Sprite.html" xlink:type="simple"><g id="elem_game.components.Sprite"><rect codeLine="5" fill="#F1F1F1" height="194.6602" id="game.components.Sprite" rx="2.5" ry="2.5" style="stroke:#181818;stroke-width:0.5;" width="237" x="7" y="7"/><ellipse cx="76.75" cy="26.1328" fill="#ADD1B2" rx="11" ry="11" style="stroke:#181818;stroke-width:1.0;"/><path d="M79.2231,32.2759 Q78.6421,32.5747 78.0029,32.7241 Q77.3638,32.8735 76.6582,32.8735 Q74.1514,32.8735 72.8315,31.2217 Q71.5117,29.5698 71.5117,26.4487 Q71.5117,23.3193 72.8315,21.6675 Q74.1514,20.0156 76.6582,20.0156 Q77.3638,20.0156 78.0112,20.165 Q78.6587,20.3145 79.2231,20.6133 L79.2231,23.3359 Q78.5923,22.7549 77.9988,22.4851 Q77.4053,22.2153 76.7744,22.2153 Q75.4297,22.2153 74.7449,23.282 Q74.0601,24.3486 74.0601,26.4487 Q74.0601,28.5405 74.7449,29.6072 Q75.4297,30.6738 76.7744,30.6738 Q77.4053,30.6738 77.9988,30.4041 Q78.5923,30.1343 79.2231,29.5532 Z " fill="#000000"/><text fill="#000000" font-family="sans-serif" font-size="14" lengthAdjust="spacing" textLength="40" x="121.75" y="25.5352">Sprite</text><text fill="#000000" font-family="sans-serif" font-size="10" lengthAdjust="spacing" textLength="89" x="97.25" y="38.1563">game.components</text><line style="stroke:#181818;stroke-width:0.5;" x1="8" x2="243" y1="45.2656" y2="45.2656"/><ellipse cx="18" cy="59.0098" fill="#84BE84" rx="3" ry="3" style="stroke:#038048;stroke-width:1.0;"/><text fill="#000000" font-family="sans-serif" font-size="14" lengthAdjust="spacing" textLength="148" x="27" y="62.8008">getTexture(): Texture</text><ellipse cx="18" cy="75.498" fill="#84BE84" rx="3" ry="3" style="stroke:#038048;stroke-width:1.0;"/><text fill="#000000" font-family="sans-serif" font-size="14" lengthAdjust="spacing" textLength="184" x="27" y="79.2891">getTexCoords(): Vector2f[]</text><ellipse cx="18" cy="91.9863" fill="#84BE84" rx="3" ry="3" style="stroke:#038048;stroke-width:1.0;"/><text fill="#000000" font-family="sans-serif" font-size="14" lengthAdjust="spacing" textLength="175" x="27" y="95.7773">setTexture(Texture): void</text><ellipse cx="18" cy="108.4746" fill="#84BE84" rx="3" ry="3" style="stroke:#038048;stroke-width:1.0;"/><text fill="#000000" font-family="sans-serif" font-size="14" lengthAdjust="spacing" textLength="211" x="27" y="112.2656">setTexCoords(Vector2f[]): void</text><ellipse cx="18" cy="124.9629" fill="#84BE84" rx="3" ry="3" style="stroke:#038048;stroke-width:1.0;"/><text fill="#000000" font-family="sans-serif" font-size="14" lengthAdjust="spacing" textLength="110" x="27" y="128.7539">getWidth(): float</text><ellipse cx="18" cy="141.4512" fill="#84BE84" rx="3" ry="3" style="stroke:#038048;stroke-width:1.0;"/><text fill="#000000" font-family="sans-serif" font-size="14" lengthAdjust="spacing" textLength="137" x="27" y="145.2422">setWidth(float): void</text><ellipse cx="18" cy="157.9395" fill="#84BE84" rx="3" ry="3" style="stroke:#038048;stroke-width:1.0;"/><text fill="#000000" font-family="sans-serif" font-size="14" lengthAdjust="spacing" textLength="116" x="27" y="161.7305">getHeight(): float</text><ellipse cx="18" cy="174.4277" fill="#84BE84" rx="3" ry="3" style="stroke:#038048;stroke-width:1.0;"/><text fill="#000000" font-family="sans-serif" font-size="14" lengthAdjust="spacing" textLength="143" x="27" y="178.2188">setHeight(float): void</text><ellipse cx="18" cy="190.916" fill="#84BE84" rx="3" ry="3" style="stroke:#038048;stroke-width:1.0;"/><text fill="#000000" font-family="sans-serif" font-size="14" lengthAdjust="spacing" textLength="97" x="27" y="194.707">getTexId(): int</text></g></a><text fill="#888888" font-family="sans-serif" font-size="10" lengthAdjust="spacing" textLength="182" x="34" y="218.3281">UMLDoclet 2.1.0, PlantUML 1.2022.14</text><!--SRC=[TL5BIyD04BxxAuQ2qAA4jdWgqeiU51I4-ZZ47fRi95dOx8ITiVZ0_-uaMGZ6kfSPllaUkpi008m2mJJ8hIbmXws9HYX2e80dEeRQMGHiMlc0qg6tF4KRb9eKxl726sQONRBxnCtgOhjhenDy3GbORYkDoWfgMlKFmZCm31Ci6qIGvqEJrTBu_Hw- -eJkd5KeZ_WkRn7dYmsaTZg-8egMEy8p5lgcTPdlHmwF5gagyK3EJYd9PlJumzEu5sUbxg9AJqP-MGoZ7Z-cl45NrN9SccR_QlLsjxQJkZ08lzCMz1inGadKbQVxksiglEvvdQsovJayU1D4KJWzO6H7ORxu0G00]--></g></svg>