<?xml version="1.0" encoding="UTF-8" standalone="no"?><svg xmlns="http://www.w3.org/2000/svg" xmlns:xlink="http://www.w3.org/1999/xlink" contentStyleType="text/css" height="350px" preserveAspectRatio="none" style="width:365px;height:350px;background:#FFFFFF;" version="1.1" viewBox="0 0 365 350" width="365px" zoomAndPan="magnify"><defs/><g><!--class game.components.StateMachine--><a href="StateMachine.html" target="_top" title="StateMachine.html" xlink:actuate="onRequest" xlink:href="StateMachine.html" xlink:show="new" xlink:title="StateMachine.html" xlink:type="simple"><g id="elem_game.components.StateMachine"><rect codeLine="5" fill="#F1F1F1" height="219.1484" id="game.components.StateMachine" rx="2.5" ry="2.5" style="stroke:#181818;stroke-width:0.5;" width="351" x="7" y="105.26"/><ellipse cx="132.75" cy="124.3928" fill="#ADD1B2" rx="11" ry="11" style="stroke:#181818;stroke-width:1.0;"/><path d="M135.2231,130.5359 Q134.6421,130.8347 134.0029,130.9841 Q133.3638,131.1335 132.6582,131.1335 Q130.1514,131.1335 128.8315,129.4817 Q127.5117,127.8298 127.5117,124.7087 Q127.5117,121.5793 128.8315,119.9275 Q130.1514,118.2756 132.6582,118.2756 Q133.3638,118.2756 134.0112,118.425 Q134.6587,118.5745 135.2231,118.8733 L135.2231,121.5959 Q134.5923,121.0149 133.9988,120.7451 Q133.4053,120.4753 132.7744,120.4753 Q131.4297,120.4753 130.7449,121.542 Q130.0601,122.6086 130.0601,124.7087 Q130.0601,126.8005 130.7449,127.8672 Q131.4297,128.9338 132.7744,128.9338 Q133.4053,128.9338 133.9988,128.6641 Q134.5923,128.3943 135.2231,127.8132 Z " fill="#000000"/><text fill="#000000" font-family="sans-serif" font-size="14" lengthAdjust="spacing" textLength="91" x="153.25" y="123.7952">StateMachine</text><text fill="#000000" font-family="sans-serif" font-size="10" lengthAdjust="spacing" textLength="89" x="154.25" y="136.4163">game.components</text><line style="stroke:#181818;stroke-width:0.5;" x1="8" x2="357" y1="143.5256" y2="143.5256"/><ellipse cx="18" cy="157.2698" fill="none" rx="3" ry="3" style="stroke:#038048;stroke-width:1.0;"/><text fill="#000000" font-family="sans-serif" font-size="14" lengthAdjust="spacing" textLength="325" x="27" y="161.0608">stateTransfers: HashMap&lt;StateTrigger, String&gt;</text><line style="stroke:#181818;stroke-width:0.5;" x1="8" x2="357" y1="168.0139" y2="168.0139"/><ellipse cx="18" cy="181.758" fill="#84BE84" rx="3" ry="3" style="stroke:#038048;stroke-width:1.0;"/><text fill="#000000" font-family="sans-serif" font-size="14" lengthAdjust="spacing" textLength="150" x="27" y="185.5491">refreshTexture(): void</text><ellipse cx="18" cy="198.2463" fill="#84BE84" rx="3" ry="3" style="stroke:#038048;stroke-width:1.0;"/><text fill="#000000" font-family="sans-serif" font-size="14" lengthAdjust="spacing" textLength="246" x="27" y="202.0373">addState(String, String, String): void</text><ellipse cx="18" cy="214.7346" fill="#84BE84" rx="3" ry="3" style="stroke:#038048;stroke-width:1.0;"/><text fill="#000000" font-family="sans-serif" font-size="14" lengthAdjust="spacing" textLength="212" x="27" y="218.5256">addState(AnimationState): void</text><ellipse cx="18" cy="231.2229" fill="#84BE84" rx="3" ry="3" style="stroke:#038048;stroke-width:1.0;"/><text fill="#000000" font-family="sans-serif" font-size="14" lengthAdjust="spacing" textLength="191" x="27" y="235.0139">setDefaultState(String): void</text><ellipse cx="18" cy="247.7112" fill="#84BE84" rx="3" ry="3" style="stroke:#038048;stroke-width:1.0;"/><text fill="#000000" font-family="sans-serif" font-size="14" lengthAdjust="spacing" textLength="135" x="27" y="251.5022">trigger(String): void</text><ellipse cx="18" cy="264.1995" fill="#84BE84" rx="3" ry="3" style="stroke:#038048;stroke-width:1.0;"/><text fill="#000000" font-family="sans-serif" font-size="14" lengthAdjust="spacing" textLength="78" x="27" y="267.9905">start(): void</text><ellipse cx="18" cy="280.6877" fill="#84BE84" rx="3" ry="3" style="stroke:#038048;stroke-width:1.0;"/><text fill="#000000" font-family="sans-serif" font-size="14" lengthAdjust="spacing" textLength="126" x="27" y="284.4788">update(float): void</text><ellipse cx="18" cy="297.176" fill="#84BE84" rx="3" ry="3" style="stroke:#038048;stroke-width:1.0;"/><text fill="#000000" font-family="sans-serif" font-size="14" lengthAdjust="spacing" textLength="168" x="27" y="300.967">editorUpdate(float): void</text><ellipse cx="18" cy="313.6643" fill="#84BE84" rx="3" ry="3" style="stroke:#038048;stroke-width:1.0;"/><text fill="#000000" font-family="sans-serif" font-size="14" lengthAdjust="spacing" textLength="86" x="27" y="317.4553">imgui(): void</text></g></a><!--class game.components.Component--><a href="Component.html" target="_top" title="Component.html" xlink:actuate="onRequest" xlink:href="Component.html" xlink:show="new" xlink:title="Component.html" xlink:type="simple"><g id="elem_game.components.Component"><rect codeLine="18" fill="#F1F1F1" height="38.2656" id="game.components.Component" rx="2.5" ry="2.5" style="stroke:#181818;stroke-width:0.5;" width="121" x="122" y="7"/><ellipse cx="137" cy="26.1328" fill="#A9DCDF" rx="11" ry="11" style="stroke:#181818;stroke-width:1.0;"/><path d="M136.8633,21.481 L135.7095,26.5527 L138.0254,26.5527 Z M135.3691,19.2397 L138.3657,19.2397 L141.7109,31.6328 L139.2622,31.6328 L138.4985,28.5698 L135.2197,28.5698 L134.4727,31.6328 L132.0239,31.6328 Z " fill="#000000"/><text fill="#000000" font-family="sans-serif" font-size="14" font-style="italic" lengthAdjust="spacing" textLength="81" x="155" y="25.5352">Component</text><text fill="#000000" font-family="sans-serif" font-size="10" font-style="italic" lengthAdjust="spacing" textLength="89" x="151" y="38.1563">game.components</text></g></a><!--reverse link game.components.Component to game.components.StateMachine--><g id="link_game.components.Component_game.components.StateMachine"><path codeLine="20" d="M182.5,67.02 C182.5,78.39 182.5,91.35 182.5,104.76 " fill="none" id="game.components.Component-backto-game.components.StateMachine" style="stroke:#181818;stroke-width:1.0;"/><polygon fill="none" points="175.5,67.23,182.5,47.23,189.5,67.23,175.5,67.23" style="stroke:#181818;stroke-width:1.0;"/></g><text fill="#888888" font-family="sans-serif" font-size="10" lengthAdjust="spacing" textLength="182" x="84.5" y="340.0764">UMLDoclet 2.1.0, PlantUML 1.2022.14</text><!--SRC=[bL9DQy904BttLmn2GQa6BJs92AKUUgXGY9wiXp4xIHRs8-nEf9__lPl4hneKcijctvltPdVV001uOZ2eoHUOK4m5EcJhm5X3Du66N0e2qWL_G2f92N-EQkBS1hZ64uNUGsVYvIUDHm_Jc95fZaak3RsP7JoSPg5Xb5XTX2w6VGVGmnaMdKfXjJhTHZbhjLx3Lzsp-kvyHIyS6f-IysDuHf_FiPZ43IwpZ5mVOdRIPDEZp57goESBUkVIKRStXgsLuiYZ4BL3jr7k7VRhvVf78pMojARUjkh2gyyenLBngNshZ9k3NwB3fHst3rqMel9CbKLkaIHao7TvhKJgh9H_R7-QT77ZsM72hPYVzh7zC-E3BWHy-D-bsxIyh9Xy3mPNXsOtaG4d1wcrrRASlynieiBCtqUZQDY7LuM60mgtsp0t8QzkxnS0]--></g></svg>