<?xml version="1.0" encoding="UTF-8" standalone="no"?><svg xmlns="http://www.w3.org/2000/svg" xmlns:xlink="http://www.w3.org/1999/xlink" contentStyleType="text/css" height="180px" preserveAspectRatio="none" style="width:210px;height:180px;background:#FFFFFF;" version="1.1" viewBox="0 0 210 180" width="210px" zoomAndPan="magnify"><defs/><g><!--cluster game.components.enums--><g id="cluster_game.components.enums"><path d="M8.5,6 L190.5,6 A3.75,3.75 0 0 1 193,8.5 L200,28.4883 L200.5,28.4883 A2.5,2.5 0 0 1 203,30.9883 L203,151.96 A2.5,2.5 0 0 1 200.5,154.46 L8.5,154.46 A2.5,2.5 0 0 1 6,151.96 L6,8.5 A2.5,2.5 0 0 1 8.5,6 " fill="none" style="stroke:#000000;stroke-width:1.5;"/><line style="stroke:#000000;stroke-width:1.5;" x1="6" x2="200" y1="28.4883" y2="28.4883"/><text fill="#000000" font-family="sans-serif" font-size="14" font-weight="bold" lengthAdjust="spacing" textLength="181" x="10" y="21.5352">game.components.enums</text></g><!--class game.components.enums.BodyType--><a href="BodyType.html" target="_top" title="BodyType.html" xlink:actuate="onRequest" xlink:href="BodyType.html" xlink:show="new" xlink:title="BodyType.html" xlink:type="simple"><g id="elem_game.components.enums.BodyType"><rect codeLine="3" fill="#F1F1F1" height="97.4648" id="game.components.enums.BodyType" rx="2.5" ry="2.5" style="stroke:#181818;stroke-width:0.5;" width="98" x="55" y="41"/><ellipse cx="70" cy="57" fill="#EB937F" rx="11" ry="11" style="stroke:#181818;stroke-width:1.0;"/><path d="M73.6143,63.5 L65.8945,63.5 L65.8945,51.1069 L73.6143,51.1069 L73.6143,53.2651 L68.3433,53.2651 L68.3433,55.938 L73.1162,55.938 L73.1162,58.0962 L68.3433,58.0962 L68.3433,61.3418 L73.6143,61.3418 Z " fill="#000000"/><text fill="#000000" font-family="sans-serif" font-size="14" lengthAdjust="spacing" textLength="66" x="84" y="62.291">BodyType</text><line style="stroke:#181818;stroke-width:0.5;" x1="56" x2="152" y1="73" y2="73"/><ellipse cx="66" cy="86.7441" fill="none" rx="3" ry="3" style="stroke:#038048;stroke-width:1.0;"/><text fill="#000000" font-family="sans-serif" font-size="14" lengthAdjust="spacing" text-decoration="underline" textLength="37" x="75" y="90.5352">Static</text><ellipse cx="66" cy="103.2324" fill="none" rx="3" ry="3" style="stroke:#038048;stroke-width:1.0;"/><text fill="#000000" font-family="sans-serif" font-size="14" lengthAdjust="spacing" text-decoration="underline" textLength="58" x="75" y="107.0234">Dynamic</text><ellipse cx="66" cy="119.7207" fill="none" rx="3" ry="3" style="stroke:#038048;stroke-width:1.0;"/><text fill="#000000" font-family="sans-serif" font-size="14" lengthAdjust="spacing" text-decoration="underline" textLength="67" x="75" y="123.5117">Kinematic</text><line style="stroke:#181818;stroke-width:0.5;" x1="56" x2="152" y1="130.4648" y2="130.4648"/></g></a><text fill="#888888" font-family="sans-serif" font-size="10" lengthAdjust="spacing" textLength="182" x="7" y="170.128">UMLDoclet 2.1.0, PlantUML 1.2022.14</text><!--SRC=[TOx12i8m44Jl_Ogv28eIr4-GtbGGr5Ff8SHL0ybkQQ9GIl_TL2leeNEPOMON7W2mzXGgRGYtb9GHNmaJnw287pwWpJ8CwWjivDAScefG5D-exj6xiaod-54ReexMT9WVts5ap9j4CBfkBPF_- -u-F8EPH4erhYAzdVUxN8oZYBLQgUK21wSvfXQJ9zN12azdBm00]--></g></svg>