<?xml version="1.0" encoding="UTF-8"?>
<svg id="Ebene_1" data-name="Ebene 1" xmlns="http://www.w3.org/2000/svg" viewBox="0 0 497.89 202.49">
  <defs>
    <style>
      .cls-1, .cls-2 {
        fill: #fff;
      }

      .cls-3 {
        fill: #e94e1b;
      }

      .cls-2 {
        font-family: Deneane, Deneane;
        font-size: 103.54px;
      }

      .cls-4 {
        fill: #f9b233;
      }
    </style>
  </defs>
  <path class="cls-4" d="m0,189.86c34.61,7.27,130.07,12.31,238.05,12.62,115.65.33,222.64-4.83,259.84-12.64"/>
  <path class="cls-3" d="m0,189.83C20.81,84.99,118.71,6.78,232.88.42c125.15-6.98,241.54,73.96,265.01,189.41"/>
  <text class="cls-2" transform="translate(44.52 166.87) scale(.53 1)"><tspan x="0" y="0">Serenity Studios</tspan></text>
  <ellipse class="cls-3" cx="198.19" cy="93.04" rx="16.12" ry="15.94"/>
  <ellipse class="cls-3" cx="392.95" cy="97.47" rx="13.54" ry="11.51"/>
  <path class="cls-1" d="m201.78,110.67l-3.28-1.85c-.19-.11-.42-.11-.6,0l-3.28,1.85c-.45.25-.99-.12-.91-.63l.65-4.05c.03-.19-.03-.38-.16-.52l-2.77-2.9c-.34-.36-.14-.96.35-1.03l3.76-.59c.2-.03.38-.16.46-.35l1.65-3.59c.22-.48.9-.48,1.12,0l1.65,3.59c.09.19.26.32.46.35l3.76.59c.49.08.69.67.35,1.03l-2.77,2.9c-.13.14-.19.33-.16.52l.65,4.05c.08.51-.46.89-.91.63Z"/>
  <path class="cls-1" d="m391.02,110.67l-3.28-1.85c-.19-.11-.42-.11-.6,0l-3.28,1.85c-.45.25-.99-.12-.91-.63l.65-4.05c.03-.19-.03-.38-.16-.52l-2.77-2.9c-.34-.36-.14-.96.35-1.03l3.76-.59c.2-.03.38-.16.46-.35l1.65-3.59c.22-.48.9-.48,1.12,0l1.65,3.59c.09.19.26.32.46.35l3.76.59c.49.08.69.67.35,1.03l-2.77,2.9c-.13.14-.19.33-.16.52l.65,4.05c.08.51-.46.89-.91.63Z"/>
</svg>