<?xml version="1.0" encoding="UTF-8" standalone="no"?><svg xmlns="http://www.w3.org/2000/svg" xmlns:xlink="http://www.w3.org/1999/xlink" contentStyleType="text/css" height="832px" preserveAspectRatio="none" style="width:1505px;height:832px;background:#FFFFFF;" version="1.1" viewBox="0 0 1505 832" width="1505px" zoomAndPan="magnify"><defs/><g><!--cluster game.renderer--><g id="cluster_game.renderer"><path d="M8.5,154.48 L111.5,154.48 A3.75,3.75 0 0 1 114,156.98 L121,176.9683 L1495.5,176.9683 A2.5,2.5 0 0 1 1498,179.4683 L1498,804.68 A2.5,2.5 0 0 1 1495.5,807.18 L8.5,807.18 A2.5,2.5 0 0 1 6,804.68 L6,156.98 A2.5,2.5 0 0 1 8.5,154.48 " fill="none" style="stroke:#000000;stroke-width:1.5;"/><line style="stroke:#000000;stroke-width:1.5;" x1="6" x2="121" y1="176.9683" y2="176.9683"/><text fill="#000000" font-family="sans-serif" font-size="14" font-weight="bold" lengthAdjust="spacing" textLength="102" x="10" y="170.0152">game.renderer</text></g><!--cluster java.lang--><g id="cluster_java.lang"><path d="M76.5,6 L140.5,6 A3.75,3.75 0 0 1 143,8.5 L150,28.4883 L251.5,28.4883 A2.5,2.5 0 0 1 254,30.9883 L254,118.98 A2.5,2.5 0 0 1 251.5,121.48 L76.5,121.48 A2.5,2.5 0 0 1 74,118.98 L74,8.5 A2.5,2.5 0 0 1 76.5,6 " fill="none" style="stroke:#000000;stroke-width:1.5;"/><line style="stroke:#000000;stroke-width:1.5;" x1="74" x2="150" y1="28.4883" y2="28.4883"/><text fill="#000000" font-family="sans-serif" font-size="14" font-weight="bold" lengthAdjust="spacing" textLength="63" x="78" y="21.5352">java.lang</text></g><!--class game.renderer.Texture--><a href="Texture.html" target="_top" title="Texture.html" xlink:actuate="onRequest" xlink:href="Texture.html" xlink:show="new" xlink:title="Texture.html" xlink:type="simple"><g id="elem_game.renderer.Texture"><rect codeLine="3" fill="#F1F1F1" height="262.3477" id="game.renderer.Texture" rx="2.5" ry="2.5" style="stroke:#181818;stroke-width:0.5;" width="189" x="324.5" y="528.83"/><ellipse cx="387.75" cy="544.83" fill="#ADD1B2" rx="11" ry="11" style="stroke:#181818;stroke-width:1.0;"/><path d="M390.2231,550.9731 Q389.6421,551.2719 389.0029,551.4213 Q388.3638,551.5707 387.6582,551.5707 Q385.1514,551.5707 383.8315,549.9189 Q382.5117,548.267 382.5117,545.1459 Q382.5117,542.0165 383.8315,540.3647 Q385.1514,538.7128 387.6582,538.7128 Q388.3638,538.7128 389.0112,538.8622 Q389.6587,539.0116 390.2231,539.3105 L390.2231,542.0331 Q389.5923,541.4521 388.9988,541.1823 Q388.4053,540.9125 387.7744,540.9125 Q386.4297,540.9125 385.7449,541.9792 Q385.0601,543.0458 385.0601,545.1459 Q385.0601,547.2377 385.7449,548.3044 Q386.4297,549.371 387.7744,549.371 Q388.4053,549.371 388.9988,549.1012 Q389.5923,548.8315 390.2231,548.2504 Z " fill="#000000"/><text fill="#000000" font-family="sans-serif" font-size="14" lengthAdjust="spacing" textLength="54" x="408.25" y="550.121">Texture</text><line style="stroke:#181818;stroke-width:0.5;" x1="325.5" x2="512.5" y1="560.83" y2="560.83"/><line style="stroke:#181818;stroke-width:0.5;" x1="325.5" x2="512.5" y1="568.83" y2="568.83"/><ellipse cx="335.5" cy="582.5741" fill="#84BE84" rx="3" ry="3" style="stroke:#038048;stroke-width:1.0;"/><text fill="#000000" font-family="sans-serif" font-size="14" lengthAdjust="spacing" textLength="64" x="344.5" y="586.3652">Texture()</text><ellipse cx="335.5" cy="599.0624" fill="#84BE84" rx="3" ry="3" style="stroke:#038048;stroke-width:1.0;"/><text fill="#000000" font-family="sans-serif" font-size="14" lengthAdjust="spacing" textLength="108" x="344.5" y="602.8534">Texture(int, int)</text><ellipse cx="335.5" cy="615.5507" fill="#84BE84" rx="3" ry="3" style="stroke:#038048;stroke-width:1.0;"/><text fill="#000000" font-family="sans-serif" font-size="14" lengthAdjust="spacing" textLength="110" x="344.5" y="619.3417">init(String): void</text><ellipse cx="335.5" cy="632.039" fill="#84BE84" rx="3" ry="3" style="stroke:#038048;stroke-width:1.0;"/><text fill="#000000" font-family="sans-serif" font-size="14" lengthAdjust="spacing" textLength="78" x="344.5" y="635.83">bind(): void</text><ellipse cx="335.5" cy="648.5273" fill="#84BE84" rx="3" ry="3" style="stroke:#038048;stroke-width:1.0;"/><text fill="#000000" font-family="sans-serif" font-size="14" lengthAdjust="spacing" textLength="96" x="344.5" y="652.3183">unbind(): void</text><ellipse cx="335.5" cy="665.0155" fill="#84BE84" rx="3" ry="3" style="stroke:#038048;stroke-width:1.0;"/><text fill="#000000" font-family="sans-serif" font-size="14" lengthAdjust="spacing" textLength="97" x="344.5" y="668.8066">getWidth(): int</text><ellipse cx="335.5" cy="681.5038" fill="#84BE84" rx="3" ry="3" style="stroke:#038048;stroke-width:1.0;"/><text fill="#000000" font-family="sans-serif" font-size="14" lengthAdjust="spacing" textLength="103" x="344.5" y="685.2948">getHeight(): int</text><ellipse cx="335.5" cy="697.9921" fill="#84BE84" rx="3" ry="3" style="stroke:#038048;stroke-width:1.0;"/><text fill="#000000" font-family="sans-serif" font-size="14" lengthAdjust="spacing" textLength="136" x="344.5" y="701.7831">getFilepath(): String</text><ellipse cx="335.5" cy="714.4804" fill="#84BE84" rx="3" ry="3" style="stroke:#038048;stroke-width:1.0;"/><text fill="#000000" font-family="sans-serif" font-size="14" lengthAdjust="spacing" textLength="163" x="344.5" y="718.2714">setFilepath(String): void</text><ellipse cx="335.5" cy="730.9687" fill="#84BE84" rx="3" ry="3" style="stroke:#038048;stroke-width:1.0;"/><text fill="#000000" font-family="sans-serif" font-size="14" lengthAdjust="spacing" textLength="98" x="344.5" y="734.7597">getTexID(): int</text><ellipse cx="335.5" cy="747.457" fill="#84BE84" rx="3" ry="3" style="stroke:#038048;stroke-width:1.0;"/><text fill="#000000" font-family="sans-serif" font-size="14" lengthAdjust="spacing" textLength="125" x="344.5" y="751.248">setTexID(int): void</text><ellipse cx="335.5" cy="763.9452" fill="#84BE84" rx="3" ry="3" style="stroke:#038048;stroke-width:1.0;"/><text fill="#000000" font-family="sans-serif" font-size="14" lengthAdjust="spacing" textLength="124" x="344.5" y="767.7362">setWidth(int): void</text><ellipse cx="335.5" cy="780.4335" fill="#84BE84" rx="3" ry="3" style="stroke:#038048;stroke-width:1.0;"/><text fill="#000000" font-family="sans-serif" font-size="14" lengthAdjust="spacing" textLength="130" x="344.5" y="784.2245">setHeight(int): void</text></g></a><!--class game.renderer.Line2D--><a href="Line2D.html" target="_top" title="Line2D.html" xlink:actuate="onRequest" xlink:href="Line2D.html" xlink:show="new" xlink:title="Line2D.html" xlink:type="simple"><g id="elem_game.renderer.Line2D"><rect codeLine="19" fill="#F1F1F1" height="179.9063" id="game.renderer.Line2D" rx="2.5" ry="2.5" style="stroke:#181818;stroke-width:0.5;" width="299" x="568.5" y="230.71"/><ellipse cx="690.25" cy="246.71" fill="#ADD1B2" rx="11" ry="11" style="stroke:#181818;stroke-width:1.0;"/><path d="M692.7231,252.8531 Q692.1421,253.1519 691.5029,253.3013 Q690.8638,253.4507 690.1582,253.4507 Q687.6514,253.4507 686.3315,251.7989 Q685.0117,250.147 685.0117,247.0259 Q685.0117,243.8965 686.3315,242.2447 Q687.6514,240.5928 690.1582,240.5928 Q690.8638,240.5928 691.5112,240.7422 Q692.1587,240.8916 692.7231,241.1905 L692.7231,243.9131 Q692.0923,243.3321 691.4988,243.0623 Q690.9053,242.7925 690.2744,242.7925 Q688.9297,242.7925 688.2449,243.8592 Q687.5601,244.9258 687.5601,247.0259 Q687.5601,249.1177 688.2449,250.1844 Q688.9297,251.251 690.2744,251.251 Q690.9053,251.251 691.4988,250.9812 Q692.0923,250.7115 692.7231,250.1304 Z " fill="#000000"/><text fill="#000000" font-family="sans-serif" font-size="14" lengthAdjust="spacing" textLength="47" x="710.75" y="252.001">Line2D</text><line style="stroke:#181818;stroke-width:0.5;" x1="569.5" x2="866.5" y1="262.71" y2="262.71"/><line style="stroke:#181818;stroke-width:0.5;" x1="569.5" x2="866.5" y1="270.71" y2="270.71"/><ellipse cx="579.5" cy="284.4541" fill="#84BE84" rx="3" ry="3" style="stroke:#038048;stroke-width:1.0;"/><text fill="#000000" font-family="sans-serif" font-size="14" lengthAdjust="spacing" textLength="273" x="588.5" y="288.2452">Line2D(Vector2f, Vector2f, Vector3f, int)</text><ellipse cx="579.5" cy="300.9424" fill="#84BE84" rx="3" ry="3" style="stroke:#038048;stroke-width:1.0;"/><text fill="#000000" font-family="sans-serif" font-size="14" lengthAdjust="spacing" textLength="118" x="588.5" y="304.7334">beginFrame(): int</text><ellipse cx="579.5" cy="317.4307" fill="#84BE84" rx="3" ry="3" style="stroke:#038048;stroke-width:1.0;"/><text fill="#000000" font-family="sans-serif" font-size="14" lengthAdjust="spacing" textLength="134" x="588.5" y="321.2217">getFrom(): Vector2f</text><ellipse cx="579.5" cy="333.919" fill="#84BE84" rx="3" ry="3" style="stroke:#038048;stroke-width:1.0;"/><text fill="#000000" font-family="sans-serif" font-size="14" lengthAdjust="spacing" textLength="161" x="588.5" y="337.71">setFrom(Vector2f): void</text><ellipse cx="579.5" cy="350.4073" fill="#84BE84" rx="3" ry="3" style="stroke:#038048;stroke-width:1.0;"/><text fill="#000000" font-family="sans-serif" font-size="14" lengthAdjust="spacing" textLength="116" x="588.5" y="354.1983">getTo(): Vector2f</text><ellipse cx="579.5" cy="366.8955" fill="#84BE84" rx="3" ry="3" style="stroke:#038048;stroke-width:1.0;"/><text fill="#000000" font-family="sans-serif" font-size="14" lengthAdjust="spacing" textLength="143" x="588.5" y="370.6866">setTo(Vector2f): void</text><ellipse cx="579.5" cy="383.3838" fill="#84BE84" rx="3" ry="3" style="stroke:#038048;stroke-width:1.0;"/><text fill="#000000" font-family="sans-serif" font-size="14" lengthAdjust="spacing" textLength="136" x="588.5" y="387.1748">getColor(): Vector3f</text><ellipse cx="579.5" cy="399.8721" fill="#84BE84" rx="3" ry="3" style="stroke:#038048;stroke-width:1.0;"/><text fill="#000000" font-family="sans-serif" font-size="14" lengthAdjust="spacing" textLength="163" x="588.5" y="403.6631">setColor(Vector3f): void</text></g></a><!--class game.renderer.Shader--><a href="Shader.html" target="_top" title="Shader.html" xlink:actuate="onRequest" xlink:href="Shader.html" xlink:show="new" xlink:title="Shader.html" xlink:type="simple"><g id="elem_game.renderer.Shader"><rect codeLine="30" fill="#F1F1F1" height="262.3477" id="game.renderer.Shader" rx="2.5" ry="2.5" style="stroke:#181818;stroke-width:0.5;" width="267" x="902.5" y="189.48"/><ellipse cx="1007.75" cy="205.48" fill="#ADD1B2" rx="11" ry="11" style="stroke:#181818;stroke-width:1.0;"/><path d="M1010.2231,211.6231 Q1009.6421,211.9219 1009.0029,212.0713 Q1008.3638,212.2207 1007.6582,212.2207 Q1005.1514,212.2207 1003.8315,210.5689 Q1002.5117,208.917 1002.5117,205.7959 Q1002.5117,202.6665 1003.8315,201.0147 Q1005.1514,199.3628 1007.6582,199.3628 Q1008.3638,199.3628 1009.0112,199.5122 Q1009.6587,199.6616 1010.2231,199.9605 L1010.2231,202.6831 Q1009.5923,202.1021 1008.9988,201.8323 Q1008.4053,201.5625 1007.7744,201.5625 Q1006.4297,201.5625 1005.7449,202.6292 Q1005.0601,203.6958 1005.0601,205.7959 Q1005.0601,207.8877 1005.7449,208.9544 Q1006.4297,210.021 1007.7744,210.021 Q1008.4053,210.021 1008.9988,209.7512 Q1009.5923,209.4815 1010.2231,208.9004 Z " fill="#000000"/><text fill="#000000" font-family="sans-serif" font-size="14" lengthAdjust="spacing" textLength="48" x="1028.25" y="210.771">Shader</text><line style="stroke:#181818;stroke-width:0.5;" x1="903.5" x2="1168.5" y1="221.48" y2="221.48"/><line style="stroke:#181818;stroke-width:0.5;" x1="903.5" x2="1168.5" y1="229.48" y2="229.48"/><ellipse cx="913.5" cy="243.2241" fill="#84BE84" rx="3" ry="3" style="stroke:#038048;stroke-width:1.0;"/><text fill="#000000" font-family="sans-serif" font-size="14" lengthAdjust="spacing" textLength="99" x="922.5" y="247.0152">Shader(String)</text><ellipse cx="913.5" cy="259.7124" fill="#84BE84" rx="3" ry="3" style="stroke:#038048;stroke-width:1.0;"/><text fill="#000000" font-family="sans-serif" font-size="14" lengthAdjust="spacing" textLength="101" x="922.5" y="263.5034">compile(): void</text><ellipse cx="913.5" cy="276.2007" fill="#84BE84" rx="3" ry="3" style="stroke:#038048;stroke-width:1.0;"/><text fill="#000000" font-family="sans-serif" font-size="14" lengthAdjust="spacing" textLength="71" x="922.5" y="279.9917">use(): void</text><ellipse cx="913.5" cy="292.689" fill="#84BE84" rx="3" ry="3" style="stroke:#038048;stroke-width:1.0;"/><text fill="#000000" font-family="sans-serif" font-size="14" lengthAdjust="spacing" textLength="93" x="922.5" y="296.48">detach(): void</text><ellipse cx="913.5" cy="309.1773" fill="#84BE84" rx="3" ry="3" style="stroke:#038048;stroke-width:1.0;"/><text fill="#000000" font-family="sans-serif" font-size="14" lengthAdjust="spacing" textLength="241" x="922.5" y="312.9683">uploadMat4f(String, Matrix4f): void</text><ellipse cx="913.5" cy="325.6655" fill="#84BE84" rx="3" ry="3" style="stroke:#038048;stroke-width:1.0;"/><text fill="#000000" font-family="sans-serif" font-size="14" lengthAdjust="spacing" textLength="241" x="922.5" y="329.4566">uploadMat3f(String, Matrix3f): void</text><ellipse cx="913.5" cy="342.1538" fill="#84BE84" rx="3" ry="3" style="stroke:#038048;stroke-width:1.0;"/><text fill="#000000" font-family="sans-serif" font-size="14" lengthAdjust="spacing" textLength="240" x="922.5" y="345.9448">uploadVec4f(String, Vector4f): void</text><ellipse cx="913.5" cy="358.6421" fill="#84BE84" rx="3" ry="3" style="stroke:#038048;stroke-width:1.0;"/><text fill="#000000" font-family="sans-serif" font-size="14" lengthAdjust="spacing" textLength="240" x="922.5" y="362.4331">uploadVec3f(String, Vector3f): void</text><ellipse cx="913.5" cy="375.1304" fill="#84BE84" rx="3" ry="3" style="stroke:#038048;stroke-width:1.0;"/><text fill="#000000" font-family="sans-serif" font-size="14" lengthAdjust="spacing" textLength="240" x="922.5" y="378.9214">uploadVec2f(String, Vector2f): void</text><ellipse cx="913.5" cy="391.6187" fill="#84BE84" rx="3" ry="3" style="stroke:#038048;stroke-width:1.0;"/><text fill="#000000" font-family="sans-serif" font-size="14" lengthAdjust="spacing" textLength="209" x="922.5" y="395.4097">uploadFloat(String, float): void</text><ellipse cx="913.5" cy="408.107" fill="#84BE84" rx="3" ry="3" style="stroke:#038048;stroke-width:1.0;"/><text fill="#000000" font-family="sans-serif" font-size="14" lengthAdjust="spacing" textLength="180" x="922.5" y="411.898">uploadInt(String, int): void</text><ellipse cx="913.5" cy="424.5952" fill="#84BE84" rx="3" ry="3" style="stroke:#038048;stroke-width:1.0;"/><text fill="#000000" font-family="sans-serif" font-size="14" lengthAdjust="spacing" textLength="216" x="922.5" y="428.3862">uploadTexture(String, int): void</text><ellipse cx="913.5" cy="441.0835" fill="#84BE84" rx="3" ry="3" style="stroke:#038048;stroke-width:1.0;"/><text fill="#000000" font-family="sans-serif" font-size="14" lengthAdjust="spacing" textLength="227" x="922.5" y="444.8745">uploadIntArray(String, int[]): void</text></g></a><!--class game.renderer.PickingTexture--><a href="PickingTexture.html" target="_top" title="PickingTexture.html" xlink:actuate="onRequest" xlink:href="PickingTexture.html" xlink:show="new" xlink:title="PickingTexture.html" xlink:type="simple"><g id="elem_game.renderer.PickingTexture"><rect codeLine="46" fill="#F1F1F1" height="146.9297" id="game.renderer.PickingTexture" rx="2.5" ry="2.5" style="stroke:#181818;stroke-width:0.5;" width="278" x="1204" y="247.19"/><ellipse cx="1287.25" cy="263.19" fill="#ADD1B2" rx="11" ry="11" style="stroke:#181818;stroke-width:1.0;"/><path d="M1289.7231,269.3331 Q1289.1421,269.6319 1288.5029,269.7813 Q1287.8638,269.9307 1287.1582,269.9307 Q1284.6514,269.9307 1283.3315,268.2789 Q1282.0117,266.627 1282.0117,263.5059 Q1282.0117,260.3765 1283.3315,258.7247 Q1284.6514,257.0728 1287.1582,257.0728 Q1287.8638,257.0728 1288.5112,257.2222 Q1289.1587,257.3716 1289.7231,257.6705 L1289.7231,260.3931 Q1289.0923,259.8121 1288.4988,259.5423 Q1287.9053,259.2725 1287.2744,259.2725 Q1285.9297,259.2725 1285.2449,260.3392 Q1284.5601,261.4058 1284.5601,263.5059 Q1284.5601,265.5977 1285.2449,266.6644 Q1285.9297,267.731 1287.2744,267.731 Q1287.9053,267.731 1288.4988,267.4612 Q1289.0923,267.1915 1289.7231,266.6104 Z " fill="#000000"/><text fill="#000000" font-family="sans-serif" font-size="14" lengthAdjust="spacing" textLength="103" x="1307.75" y="268.481">PickingTexture</text><line style="stroke:#181818;stroke-width:0.5;" x1="1205" x2="1481" y1="279.19" y2="279.19"/><line style="stroke:#181818;stroke-width:0.5;" x1="1205" x2="1481" y1="287.19" y2="287.19"/><ellipse cx="1215" cy="300.9341" fill="#84BE84" rx="3" ry="3" style="stroke:#038048;stroke-width:1.0;"/><text fill="#000000" font-family="sans-serif" font-size="14" lengthAdjust="spacing" textLength="157" x="1224" y="304.7252">PickingTexture(int, int)</text><ellipse cx="1215" cy="317.4224" fill="#84BE84" rx="3" ry="3" style="stroke:#038048;stroke-width:1.0;"/><text fill="#000000" font-family="sans-serif" font-size="14" lengthAdjust="spacing" textLength="140" x="1224" y="321.2134">init(int, int): boolean</text><ellipse cx="1215" cy="333.9107" fill="#84BE84" rx="3" ry="3" style="stroke:#038048;stroke-width:1.0;"/><text fill="#000000" font-family="sans-serif" font-size="14" lengthAdjust="spacing" textLength="142" x="1224" y="337.7017">enableWriting(): void</text><ellipse cx="1215" cy="350.399" fill="#84BE84" rx="3" ry="3" style="stroke:#038048;stroke-width:1.0;"/><text fill="#000000" font-family="sans-serif" font-size="14" lengthAdjust="spacing" textLength="145" x="1224" y="354.19">disableWriting(): void</text><ellipse cx="1215" cy="366.8873" fill="#84BE84" rx="3" ry="3" style="stroke:#038048;stroke-width:1.0;"/><text fill="#000000" font-family="sans-serif" font-size="14" lengthAdjust="spacing" textLength="144" x="1224" y="370.6783">readPixel(int, int): int</text><ellipse cx="1215" cy="383.3755" fill="#84BE84" rx="3" ry="3" style="stroke:#038048;stroke-width:1.0;"/><text fill="#000000" font-family="sans-serif" font-size="14" lengthAdjust="spacing" textLength="252" x="1224" y="387.1666">readPixels(Vector2i, Vector2i): float[]</text></g></a><!--class game.renderer.Framebuffer--><a href="Framebuffer.html" target="_top" title="Framebuffer.html" xlink:actuate="onRequest" xlink:href="Framebuffer.html" xlink:show="new" xlink:title="Framebuffer.html" xlink:type="simple"><g id="elem_game.renderer.Framebuffer"><rect codeLine="55" fill="#F1F1F1" height="179.9063" id="game.renderer.Framebuffer" rx="2.5" ry="2.5" style="stroke:#181818;stroke-width:0.5;" width="193" x="340.5" y="230.71"/><ellipse cx="390.25" cy="246.71" fill="#ADD1B2" rx="11" ry="11" style="stroke:#181818;stroke-width:1.0;"/><path d="M392.7231,252.8531 Q392.1421,253.1519 391.5029,253.3013 Q390.8638,253.4507 390.1582,253.4507 Q387.6514,253.4507 386.3315,251.7989 Q385.0117,250.147 385.0117,247.0259 Q385.0117,243.8965 386.3315,242.2447 Q387.6514,240.5928 390.1582,240.5928 Q390.8638,240.5928 391.5112,240.7422 Q392.1587,240.8916 392.7231,241.1905 L392.7231,243.9131 Q392.0923,243.3321 391.4988,243.0623 Q390.9053,242.7925 390.2744,242.7925 Q388.9297,242.7925 388.2449,243.8592 Q387.5601,244.9258 387.5601,247.0259 Q387.5601,249.1177 388.2449,250.1844 Q388.9297,251.251 390.2744,251.251 Q390.9053,251.251 391.4988,250.9812 Q392.0923,250.7115 392.7231,250.1304 Z " fill="#000000"/><text fill="#000000" font-family="sans-serif" font-size="14" lengthAdjust="spacing" textLength="85" x="410.75" y="252.001">Framebuffer</text><line style="stroke:#181818;stroke-width:0.5;" x1="341.5" x2="532.5" y1="262.71" y2="262.71"/><ellipse cx="351.5" cy="276.4541" fill="none" rx="3" ry="3" style="stroke:#038048;stroke-width:1.0;"/><text fill="#000000" font-family="sans-serif" font-size="14" lengthAdjust="spacing" textLength="64" x="360.5" y="280.2452">width: int</text><ellipse cx="351.5" cy="292.9424" fill="none" rx="3" ry="3" style="stroke:#038048;stroke-width:1.0;"/><text fill="#000000" font-family="sans-serif" font-size="14" lengthAdjust="spacing" textLength="70" x="360.5" y="296.7334">height: int</text><line style="stroke:#181818;stroke-width:0.5;" x1="341.5" x2="532.5" y1="303.6866" y2="303.6866"/><ellipse cx="351.5" cy="317.4307" fill="#84BE84" rx="3" ry="3" style="stroke:#038048;stroke-width:1.0;"/><text fill="#000000" font-family="sans-serif" font-size="14" lengthAdjust="spacing" textLength="139" x="360.5" y="321.2217">Framebuffer(int, int)</text><ellipse cx="351.5" cy="333.919" fill="#84BE84" rx="3" ry="3" style="stroke:#038048;stroke-width:1.0;"/><text fill="#000000" font-family="sans-serif" font-size="14" lengthAdjust="spacing" textLength="167" x="360.5" y="337.71">readPixel(int, int): float[]</text><ellipse cx="351.5" cy="350.4073" fill="#84BE84" rx="3" ry="3" style="stroke:#038048;stroke-width:1.0;"/><text fill="#000000" font-family="sans-serif" font-size="14" lengthAdjust="spacing" textLength="78" x="360.5" y="354.1983">bind(): void</text><ellipse cx="351.5" cy="366.8955" fill="#84BE84" rx="3" ry="3" style="stroke:#038048;stroke-width:1.0;"/><text fill="#000000" font-family="sans-serif" font-size="14" lengthAdjust="spacing" textLength="96" x="360.5" y="370.6866">unbind(): void</text><ellipse cx="351.5" cy="383.3838" fill="#84BE84" rx="3" ry="3" style="stroke:#038048;stroke-width:1.0;"/><text fill="#000000" font-family="sans-serif" font-size="14" lengthAdjust="spacing" textLength="98" x="360.5" y="387.1748">getFboID(): int</text><ellipse cx="351.5" cy="399.8721" fill="#84BE84" rx="3" ry="3" style="stroke:#038048;stroke-width:1.0;"/><text fill="#000000" font-family="sans-serif" font-size="14" lengthAdjust="spacing" textLength="126" x="360.5" y="403.6631">getTextureID(): int</text></g></a><!--class game.renderer.DebugDraw--><a href="DebugDraw.html" target="_top" title="DebugDraw.html" xlink:actuate="onRequest" xlink:href="DebugDraw.html" xlink:show="new" xlink:title="DebugDraw.html" xlink:type="simple"><g id="elem_game.renderer.DebugDraw"><rect codeLine="66" fill="#F1F1F1" height="196.3945" id="game.renderer.DebugDraw" rx="2.5" ry="2.5" style="stroke:#181818;stroke-width:0.5;" width="399" x="548.5" y="561.81"/><ellipse cx="703.75" cy="577.81" fill="#ADD1B2" rx="11" ry="11" style="stroke:#181818;stroke-width:1.0;"/><path d="M706.2231,583.9531 Q705.6421,584.2519 705.0029,584.4013 Q704.3638,584.5507 703.6582,584.5507 Q701.1514,584.5507 699.8315,582.8989 Q698.5117,581.247 698.5117,578.1259 Q698.5117,574.9965 699.8315,573.3447 Q701.1514,571.6928 703.6582,571.6928 Q704.3638,571.6928 705.0112,571.8422 Q705.6587,571.9916 706.2231,572.2905 L706.2231,575.0131 Q705.5923,574.4321 704.9988,574.1623 Q704.4053,573.8925 703.7744,573.8925 Q702.4297,573.8925 701.7449,574.9592 Q701.0601,576.0258 701.0601,578.1259 Q701.0601,580.2177 701.7449,581.2844 Q702.4297,582.351 703.7744,582.351 Q704.4053,582.351 704.9988,582.0812 Q705.5923,581.8115 706.2231,581.2304 Z " fill="#000000"/><text fill="#000000" font-family="sans-serif" font-size="14" lengthAdjust="spacing" textLength="80" x="724.25" y="583.101">DebugDraw</text><line style="stroke:#181818;stroke-width:0.5;" x1="549.5" x2="946.5" y1="593.81" y2="593.81"/><line style="stroke:#181818;stroke-width:0.5;" x1="549.5" x2="946.5" y1="601.81" y2="601.81"/><ellipse cx="559.5" cy="615.5541" fill="#84BE84" rx="3" ry="3" style="stroke:#038048;stroke-width:1.0;"/><text fill="#000000" font-family="sans-serif" font-size="14" lengthAdjust="spacing" text-decoration="underline" textLength="78" x="568.5" y="619.3452">start(): void</text><ellipse cx="559.5" cy="632.0424" fill="#84BE84" rx="3" ry="3" style="stroke:#038048;stroke-width:1.0;"/><text fill="#000000" font-family="sans-serif" font-size="14" lengthAdjust="spacing" text-decoration="underline" textLength="129" x="568.5" y="635.8334">beginFrame(): void</text><ellipse cx="559.5" cy="648.5307" fill="#84BE84" rx="3" ry="3" style="stroke:#038048;stroke-width:1.0;"/><text fill="#000000" font-family="sans-serif" font-size="14" lengthAdjust="spacing" text-decoration="underline" textLength="81" x="568.5" y="652.3217">draw(): void</text><ellipse cx="559.5" cy="665.019" fill="#84BE84" rx="3" ry="3" style="stroke:#038048;stroke-width:1.0;"/><text fill="#000000" font-family="sans-serif" font-size="14" lengthAdjust="spacing" text-decoration="underline" textLength="244" x="568.5" y="668.81">addLine2D(Vector2f, Vector2f): void</text><ellipse cx="559.5" cy="681.5073" fill="#84BE84" rx="3" ry="3" style="stroke:#038048;stroke-width:1.0;"/><text fill="#000000" font-family="sans-serif" font-size="14" lengthAdjust="spacing" text-decoration="underline" textLength="310" x="568.5" y="685.2983">addLine2D(Vector2f, Vector2f, Vector3f): void</text><ellipse cx="559.5" cy="697.9955" fill="#84BE84" rx="3" ry="3" style="stroke:#038048;stroke-width:1.0;"/><text fill="#000000" font-family="sans-serif" font-size="14" lengthAdjust="spacing" text-decoration="underline" textLength="336" x="568.5" y="701.7866">addLine2D(Vector2f, Vector2f, Vector3f, int): void</text><ellipse cx="559.5" cy="714.4838" fill="#84BE84" rx="3" ry="3" style="stroke:#038048;stroke-width:1.0;"/><text fill="#000000" font-family="sans-serif" font-size="14" lengthAdjust="spacing" text-decoration="underline" textLength="281" x="568.5" y="718.2748">addBox2D(Vector2f, Vector2f, float): void</text><ellipse cx="559.5" cy="730.9721" fill="#84BE84" rx="3" ry="3" style="stroke:#038048;stroke-width:1.0;"/><text fill="#000000" font-family="sans-serif" font-size="14" lengthAdjust="spacing" text-decoration="underline" textLength="347" x="568.5" y="734.7631">addBox2D(Vector2f, Vector2f, float, Vector3f): void</text><ellipse cx="559.5" cy="747.4604" fill="#84BE84" rx="3" ry="3" style="stroke:#038048;stroke-width:1.0;"/><text fill="#000000" font-family="sans-serif" font-size="14" lengthAdjust="spacing" text-decoration="underline" textLength="373" x="568.5" y="751.2514">addBox2D(Vector2f, Vector2f, float, Vector3f, int): void</text></g></a><!--class game.renderer.Renderer--><a href="Renderer.html" target="_top" title="Renderer.html" xlink:actuate="onRequest" xlink:href="Renderer.html" xlink:show="new" xlink:title="Renderer.html" xlink:type="simple"><g id="elem_game.renderer.Renderer"><rect codeLine="78" fill="#F1F1F1" height="130.4414" id="game.renderer.Renderer" rx="2.5" ry="2.5" style="stroke:#181818;stroke-width:0.5;" width="290" x="983" y="594.79"/><ellipse cx="1092.25" cy="610.79" fill="#ADD1B2" rx="11" ry="11" style="stroke:#181818;stroke-width:1.0;"/><path d="M1094.7231,616.9331 Q1094.1421,617.2319 1093.5029,617.3813 Q1092.8638,617.5307 1092.1582,617.5307 Q1089.6514,617.5307 1088.3315,615.8789 Q1087.0117,614.227 1087.0117,611.1059 Q1087.0117,607.9765 1088.3315,606.3247 Q1089.6514,604.6728 1092.1582,604.6728 Q1092.8638,604.6728 1093.5112,604.8222 Q1094.1587,604.9716 1094.7231,605.2705 L1094.7231,607.9931 Q1094.0923,607.4121 1093.4988,607.1423 Q1092.9053,606.8725 1092.2744,606.8725 Q1090.9297,606.8725 1090.2449,607.9392 Q1089.5601,609.0058 1089.5601,611.1059 Q1089.5601,613.1977 1090.2449,614.2644 Q1090.9297,615.331 1092.2744,615.331 Q1092.9053,615.331 1093.4988,615.0612 Q1094.0923,614.7915 1094.7231,614.2104 Z " fill="#000000"/><text fill="#000000" font-family="sans-serif" font-size="14" lengthAdjust="spacing" textLength="63" x="1112.75" y="616.081">Renderer</text><line style="stroke:#181818;stroke-width:0.5;" x1="984" x2="1272" y1="626.79" y2="626.79"/><line style="stroke:#181818;stroke-width:0.5;" x1="984" x2="1272" y1="634.79" y2="634.79"/><ellipse cx="994" cy="648.5341" fill="#84BE84" rx="3" ry="3" style="stroke:#038048;stroke-width:1.0;"/><text fill="#000000" font-family="sans-serif" font-size="14" lengthAdjust="spacing" textLength="156" x="1003" y="652.3252">add(GameObject): void</text><ellipse cx="994" cy="665.0224" fill="#84BE84" rx="3" ry="3" style="stroke:#038048;stroke-width:1.0;"/><text fill="#000000" font-family="sans-serif" font-size="14" lengthAdjust="spacing" text-decoration="underline" textLength="174" x="1003" y="668.8134">bindShader(Shader): void</text><ellipse cx="994" cy="681.5107" fill="#84BE84" rx="3" ry="3" style="stroke:#038048;stroke-width:1.0;"/><text fill="#000000" font-family="sans-serif" font-size="14" lengthAdjust="spacing" text-decoration="underline" textLength="180" x="1003" y="685.3017">getBoundShader(): Shader</text><ellipse cx="994" cy="697.999" fill="#84BE84" rx="3" ry="3" style="stroke:#038048;stroke-width:1.0;"/><text fill="#000000" font-family="sans-serif" font-size="14" lengthAdjust="spacing" textLength="93" x="1003" y="701.79">render(): void</text><ellipse cx="994" cy="714.4873" fill="#84BE84" rx="3" ry="3" style="stroke:#038048;stroke-width:1.0;"/><text fill="#000000" font-family="sans-serif" font-size="14" lengthAdjust="spacing" textLength="264" x="1003" y="718.2783">destroyGameObject(GameObject): void</text></g></a><!--class game.renderer.RenderBatch--><a href="RenderBatch.html" target="_top" title="RenderBatch.html" xlink:actuate="onRequest" xlink:href="RenderBatch.html" xlink:show="new" xlink:title="RenderBatch.html" xlink:type="simple"><g id="elem_game.renderer.RenderBatch"><rect codeLine="86" fill="#F1F1F1" height="212.8828" id="game.renderer.RenderBatch" rx="2.5" ry="2.5" style="stroke:#181818;stroke-width:0.5;" width="283" x="22.5" y="214.22"/><ellipse cx="116.75" cy="230.22" fill="#ADD1B2" rx="11" ry="11" style="stroke:#181818;stroke-width:1.0;"/><path d="M119.2231,236.3631 Q118.6421,236.6619 118.0029,236.8113 Q117.3638,236.9607 116.6582,236.9607 Q114.1514,236.9607 112.8315,235.3089 Q111.5117,233.657 111.5117,230.5359 Q111.5117,227.4065 112.8315,225.7547 Q114.1514,224.1028 116.6582,224.1028 Q117.3638,224.1028 118.0112,224.2522 Q118.6587,224.4016 119.2231,224.7005 L119.2231,227.4231 Q118.5923,226.8421 117.9988,226.5723 Q117.4053,226.3025 116.7744,226.3025 Q115.4297,226.3025 114.7449,227.3692 Q114.0601,228.4358 114.0601,230.5359 Q114.0601,232.6277 114.7449,233.6944 Q115.4297,234.761 116.7744,234.761 Q117.4053,234.761 117.9988,234.4912 Q118.5923,234.2215 119.2231,233.6404 Z " fill="#000000"/><text fill="#000000" font-family="sans-serif" font-size="14" lengthAdjust="spacing" textLength="86" x="137.25" y="235.511">RenderBatch</text><line style="stroke:#181818;stroke-width:0.5;" x1="23.5" x2="304.5" y1="246.22" y2="246.22"/><line style="stroke:#181818;stroke-width:0.5;" x1="23.5" x2="304.5" y1="254.22" y2="254.22"/><ellipse cx="33.5" cy="267.9641" fill="#84BE84" rx="3" ry="3" style="stroke:#038048;stroke-width:1.0;"/><text fill="#000000" font-family="sans-serif" font-size="14" lengthAdjust="spacing" textLength="211" x="42.5" y="271.7552">RenderBatch(int, int, Renderer)</text><ellipse cx="33.5" cy="284.4524" fill="#84BE84" rx="3" ry="3" style="stroke:#038048;stroke-width:1.0;"/><text fill="#000000" font-family="sans-serif" font-size="14" lengthAdjust="spacing" textLength="78" x="42.5" y="288.2434">start(): void</text><ellipse cx="33.5" cy="300.9407" fill="#84BE84" rx="3" ry="3" style="stroke:#038048;stroke-width:1.0;"/><text fill="#000000" font-family="sans-serif" font-size="14" lengthAdjust="spacing" textLength="216" x="42.5" y="304.7317">addSprite(SpriteRenderer): void</text><ellipse cx="33.5" cy="317.429" fill="#84BE84" rx="3" ry="3" style="stroke:#038048;stroke-width:1.0;"/><text fill="#000000" font-family="sans-serif" font-size="14" lengthAdjust="spacing" textLength="93" x="42.5" y="321.22">render(): void</text><ellipse cx="33.5" cy="333.9173" fill="#84BE84" rx="3" ry="3" style="stroke:#038048;stroke-width:1.0;"/><text fill="#000000" font-family="sans-serif" font-size="14" lengthAdjust="spacing" textLength="138" x="42.5" y="337.7083">hasRoom(): boolean</text><ellipse cx="33.5" cy="350.4055" fill="#84BE84" rx="3" ry="3" style="stroke:#038048;stroke-width:1.0;"/><text fill="#000000" font-family="sans-serif" font-size="14" lengthAdjust="spacing" textLength="192" x="42.5" y="354.1966">hasTextureRoom(): boolean</text><ellipse cx="33.5" cy="366.8938" fill="#84BE84" rx="3" ry="3" style="stroke:#038048;stroke-width:1.0;"/><text fill="#000000" font-family="sans-serif" font-size="14" lengthAdjust="spacing" textLength="206" x="42.5" y="370.6848">hasTexture(Texture): boolean</text><ellipse cx="33.5" cy="383.3821" fill="#84BE84" rx="3" ry="3" style="stroke:#038048;stroke-width:1.0;"/><text fill="#000000" font-family="sans-serif" font-size="14" lengthAdjust="spacing" textLength="83" x="42.5" y="387.1731">zIndex(): int</text><ellipse cx="33.5" cy="399.8704" fill="#84BE84" rx="3" ry="3" style="stroke:#038048;stroke-width:1.0;"/><text fill="#000000" font-family="sans-serif" font-size="14" lengthAdjust="spacing" textLength="200" x="42.5" y="403.6614">compareTo(RenderBatch): int</text><ellipse cx="33.5" cy="416.3587" fill="#84BE84" rx="3" ry="3" style="stroke:#038048;stroke-width:1.0;"/><text fill="#000000" font-family="sans-serif" font-size="14" lengthAdjust="spacing" textLength="257" x="42.5" y="420.1497">destroyIfExists(GameObject): boolean</text></g></a><!--class java.lang.Comparable--><g id="elem_java.lang.Comparable"><rect codeLine="104" fill="#F1F1F1" height="64.4883" id="java.lang.Comparable" rx="2.5" ry="2.5" style="stroke:#181818;stroke-width:0.5;" width="149" x="89.5" y="41"/><ellipse cx="113.95" cy="57" fill="#B4A7E5" rx="11" ry="11" style="stroke:#181818;stroke-width:1.0;"/><path d="M110.3777,53.2651 L110.3777,51.1069 L117.7571,51.1069 L117.7571,53.2651 L115.2918,53.2651 L115.2918,61.3418 L117.7571,61.3418 L117.7571,63.5 L110.3777,63.5 L110.3777,61.3418 L112.8431,61.3418 L112.8431,53.2651 Z " fill="#000000"/><text fill="#000000" font-family="sans-serif" font-size="14" font-style="italic" lengthAdjust="spacing" textLength="84" x="130.05" y="62.291">Comparable</text><rect fill="#FFFFFF" height="16.1328" style="stroke:#181818;stroke-width:1.0;stroke-dasharray:2.0,2.0;" width="10" x="231.5" y="38"/><text fill="#000000" font-family="sans-serif" font-size="12" font-style="italic" lengthAdjust="spacing" textLength="8" x="232.5" y="50.6016">T</text><line style="stroke:#181818;stroke-width:0.5;" x1="90.5" x2="237.5" y1="73" y2="73"/><line style="stroke:#181818;stroke-width:0.5;" x1="90.5" x2="237.5" y1="81" y2="81"/><ellipse cx="100.5" cy="94.7441" fill="#84BE84" rx="3" ry="3" style="stroke:#038048;stroke-width:1.0;"/><text fill="#000000" font-family="sans-serif" font-size="14" font-style="italic" lengthAdjust="spacing" textLength="123" x="109.5" y="98.5352">compareTo(T): int</text></g><!--link game.renderer.Framebuffer to game.renderer.Texture--><g id="link_game.renderer.Framebuffer_game.renderer.Texture"><path codeLine="99" d="M432.25,410.73 C430.43,444.78 428.31,484.44 426.31,521.94 " fill="none" id="game.renderer.Framebuffer-to-game.renderer.Texture" style="stroke:#181818;stroke-width:1.0;"/><polygon fill="#181818" points="426.05,526.91,430.5083,518.128,426.3075,521.9166,422.5189,517.7159,426.05,526.91" style="stroke:#181818;stroke-width:1.0;"/><text fill="#000000" font-family="sans-serif" font-size="13" lengthAdjust="spacing" textLength="45" x="429" y="495.3984">texture</text></g><!--reverse link java.lang.Comparable to game.renderer.RenderBatch--><g id="link_java.lang.Comparable_game.renderer.RenderBatch"><path codeLine="100" d="M164,127.26 C164,152.66 164,184.02 164,213.99 " fill="none" id="java.lang.Comparable-backto-game.renderer.RenderBatch" style="stroke:#181818;stroke-width:1.0;stroke-dasharray:7.0,7.0;"/><polygon fill="none" points="157,127.34,164,107.34,171,127.34,157,127.34" style="stroke:#181818;stroke-width:1.0;"/></g><text fill="#888888" font-family="sans-serif" font-size="10" lengthAdjust="spacing" textLength="182" x="654.5" y="822.848">UMLDoclet 2.1.0, PlantUML 1.2022.14</text><!--SRC=[fLVVJzim47xdh_3BfA2LQ6jvGWXfq7Mh11eQR3nKVN0I9p5BxSfseOpnl- -SdqvY9x3reN7oVNTdVtS-9mWXnF26o2qE2KfWv0l28YA8GCy71wZyXHcM4jsIlTe9WbQhSkIdQfEjry14nkzzYNg7ziUKgGc2lmvC6LNUZHAK9OSdw87Jg8q7b4MU5TanDvOGTKSZbMeKOlR0huGcgNAX2vgHBIwiYwcrATAW34mTFC7YbtDh65c1MXARjQoMC40ebs5Xl7IpU4aPcSuXYSN0aSC2z7wIK74nZIUeEvh5jYG69A5i8Q2Ed98Alj5OvQylg2PKg5DEFkW3u34F5ppZed4owpif61KygkjDYc7VWAx5mA5h0LR5qiP2ljb2DJcAN3g0Y2WSfWwZRSPnT8NLSLo6d22u4tH_70yRpBe6io434Cc8K4XsF68mwngCHPXs3QP31WluKxL1hEy6s4lMS5tRh61MNUnrRF3xIGZyPD9Nwz5QkgRXBw0t3RVzm55RRT9Wdwsn4nHmdX7CsYJ2S92HEq4LE7JK7PMZ745mT4tt93C3zhf2pPBLhgLrYYaOvCbRhTrovGqdsCLnll-CEuTGZxgTMYQIvbtK0XWkNR9QbzgT-VyTP8k0EywGue3HMUyJUchDOIN9NE17qAeUsvLwbWeh6hv0FrHOAElC6awx-GyG8mWuGi5Hv3o2_jrokDMyrOTpyxSSdVEzmu-pARt5_WrBUhKdwy9wTVIzUb5ShQgXOxz1REyBbCMtu1uYZ1GHx83gaCmlmtIe_7E-gqtqUre-wcvELgAsyrCgmP-Q-GrCrQ71ELPXMikGtpcKC1XrdvZKIdPQYdlFQKLljj1vuHpABxK7UnTshpx5yZiltiYi1m7WPMTv9SqhhoxcxoLCPc_jOlhz1mi2Bs-6J3PYcR9b_7bFfPBjX7MZ6ZappucZexFgW-O4gM9G4-_n0_Opp1B_8f-JFkZGwH_VDnD-O7Xllg5gKoFri00YOeqsxavlpxhD5WUmB1og5rEAsruxDyA6H7j6CUVwykFgSix3Z2WqzJ_w7oRe6kQXu2bwzq24f9nvXty1]--></g></svg>