<?xml version="1.0" encoding="UTF-8" standalone="no"?><svg xmlns="http://www.w3.org/2000/svg" xmlns:xlink="http://www.w3.org/1999/xlink" contentStyleType="text/css" height="832px" preserveAspectRatio="none" style="width:1464px;height:832px;background:#FFFFFF;" version="1.1" viewBox="0 0 1464 832" width="1464px" zoomAndPan="magnify"><defs/><g><!--cluster game.renderer--><g id="cluster_game.renderer"><path d="M8.5,154.48 L111.5,154.48 A3.75,3.75 0 0 1 114,156.98 L121,176.9683 L1454.5,176.9683 A2.5,2.5 0 0 1 1457,179.4683 L1457,804.68 A2.5,2.5 0 0 1 1454.5,807.18 L8.5,807.18 A2.5,2.5 0 0 1 6,804.68 L6,156.98 A2.5,2.5 0 0 1 8.5,154.48 " fill="none" style="stroke:#000000;stroke-width:1.5;"/><line style="stroke:#000000;stroke-width:1.5;" x1="6" x2="121" y1="176.9683" y2="176.9683"/><text fill="#000000" font-family="sans-serif" font-size="14" font-weight="bold" lengthAdjust="spacing" textLength="102" x="10" y="170.0152">game.renderer</text></g><!--cluster java.lang--><g id="cluster_java.lang"><path d="M55.5,6 L119.5,6 A3.75,3.75 0 0 1 122,8.5 L129,28.4883 L230.5,28.4883 A2.5,2.5 0 0 1 233,30.9883 L233,118.98 A2.5,2.5 0 0 1 230.5,121.48 L55.5,121.48 A2.5,2.5 0 0 1 53,118.98 L53,8.5 A2.5,2.5 0 0 1 55.5,6 " fill="none" style="stroke:#000000;stroke-width:1.5;"/><line style="stroke:#000000;stroke-width:1.5;" x1="53" x2="129" y1="28.4883" y2="28.4883"/><text fill="#000000" font-family="sans-serif" font-size="14" font-weight="bold" lengthAdjust="spacing" textLength="63" x="57" y="21.5352">java.lang</text></g><!--class game.renderer.Texture--><a href="Texture.html" target="_top" title="Texture.html" xlink:actuate="onRequest" xlink:href="Texture.html" xlink:show="new" xlink:title="Texture.html" xlink:type="simple"><g id="elem_game.renderer.Texture"><rect codeLine="3" fill="#F1F1F1" height="262.3477" id="game.renderer.Texture" rx="2.5" ry="2.5" style="stroke:#181818;stroke-width:0.5;" width="189" x="290.5" y="528.83"/><ellipse cx="353.75" cy="544.83" fill="#ADD1B2" rx="11" ry="11" style="stroke:#181818;stroke-width:1.0;"/><path d="M356.2231,550.9731 Q355.6421,551.2719 355.0029,551.4213 Q354.3638,551.5707 353.6582,551.5707 Q351.1514,551.5707 349.8315,549.9189 Q348.5117,548.267 348.5117,545.1459 Q348.5117,542.0165 349.8315,540.3647 Q351.1514,538.7128 353.6582,538.7128 Q354.3638,538.7128 355.0112,538.8622 Q355.6587,539.0116 356.2231,539.3105 L356.2231,542.0331 Q355.5923,541.4521 354.9988,541.1823 Q354.4053,540.9125 353.7744,540.9125 Q352.4297,540.9125 351.7449,541.9792 Q351.0601,543.0458 351.0601,545.1459 Q351.0601,547.2377 351.7449,548.3044 Q352.4297,549.371 353.7744,549.371 Q354.4053,549.371 354.9988,549.1012 Q355.5923,548.8315 356.2231,548.2504 Z " fill="#000000"/><text fill="#000000" font-family="sans-serif" font-size="14" lengthAdjust="spacing" textLength="54" x="374.25" y="550.121">Texture</text><line style="stroke:#181818;stroke-width:0.5;" x1="291.5" x2="478.5" y1="560.83" y2="560.83"/><line style="stroke:#181818;stroke-width:0.5;" x1="291.5" x2="478.5" y1="568.83" y2="568.83"/><ellipse cx="301.5" cy="582.5741" fill="#84BE84" rx="3" ry="3" style="stroke:#038048;stroke-width:1.0;"/><text fill="#000000" font-family="sans-serif" font-size="14" lengthAdjust="spacing" textLength="64" x="310.5" y="586.3652">Texture()</text><ellipse cx="301.5" cy="599.0624" fill="#84BE84" rx="3" ry="3" style="stroke:#038048;stroke-width:1.0;"/><text fill="#000000" font-family="sans-serif" font-size="14" lengthAdjust="spacing" textLength="108" x="310.5" y="602.8534">Texture(int, int)</text><ellipse cx="301.5" cy="615.5507" fill="#84BE84" rx="3" ry="3" style="stroke:#038048;stroke-width:1.0;"/><text fill="#000000" font-family="sans-serif" font-size="14" lengthAdjust="spacing" textLength="110" x="310.5" y="619.3417">init(String): void</text><ellipse cx="301.5" cy="632.039" fill="#84BE84" rx="3" ry="3" style="stroke:#038048;stroke-width:1.0;"/><text fill="#000000" font-family="sans-serif" font-size="14" lengthAdjust="spacing" textLength="78" x="310.5" y="635.83">bind(): void</text><ellipse cx="301.5" cy="648.5273" fill="#84BE84" rx="3" ry="3" style="stroke:#038048;stroke-width:1.0;"/><text fill="#000000" font-family="sans-serif" font-size="14" lengthAdjust="spacing" textLength="96" x="310.5" y="652.3183">unbind(): void</text><ellipse cx="301.5" cy="665.0155" fill="#84BE84" rx="3" ry="3" style="stroke:#038048;stroke-width:1.0;"/><text fill="#000000" font-family="sans-serif" font-size="14" lengthAdjust="spacing" textLength="97" x="310.5" y="668.8066">getWidth(): int</text><ellipse cx="301.5" cy="681.5038" fill="#84BE84" rx="3" ry="3" style="stroke:#038048;stroke-width:1.0;"/><text fill="#000000" font-family="sans-serif" font-size="14" lengthAdjust="spacing" textLength="103" x="310.5" y="685.2948">getHeight(): int</text><ellipse cx="301.5" cy="697.9921" fill="#84BE84" rx="3" ry="3" style="stroke:#038048;stroke-width:1.0;"/><text fill="#000000" font-family="sans-serif" font-size="14" lengthAdjust="spacing" textLength="136" x="310.5" y="701.7831">getFilepath(): String</text><ellipse cx="301.5" cy="714.4804" fill="#84BE84" rx="3" ry="3" style="stroke:#038048;stroke-width:1.0;"/><text fill="#000000" font-family="sans-serif" font-size="14" lengthAdjust="spacing" textLength="163" x="310.5" y="718.2714">setFilepath(String): void</text><ellipse cx="301.5" cy="730.9687" fill="#84BE84" rx="3" ry="3" style="stroke:#038048;stroke-width:1.0;"/><text fill="#000000" font-family="sans-serif" font-size="14" lengthAdjust="spacing" textLength="98" x="310.5" y="734.7597">getTexID(): int</text><ellipse cx="301.5" cy="747.457" fill="#84BE84" rx="3" ry="3" style="stroke:#038048;stroke-width:1.0;"/><text fill="#000000" font-family="sans-serif" font-size="14" lengthAdjust="spacing" textLength="125" x="310.5" y="751.248">setTexID(int): void</text><ellipse cx="301.5" cy="763.9452" fill="#84BE84" rx="3" ry="3" style="stroke:#038048;stroke-width:1.0;"/><text fill="#000000" font-family="sans-serif" font-size="14" lengthAdjust="spacing" textLength="124" x="310.5" y="767.7362">setWidth(int): void</text><ellipse cx="301.5" cy="780.4335" fill="#84BE84" rx="3" ry="3" style="stroke:#038048;stroke-width:1.0;"/><text fill="#000000" font-family="sans-serif" font-size="14" lengthAdjust="spacing" textLength="130" x="310.5" y="784.2245">setHeight(int): void</text></g></a><!--class game.renderer.Line2D--><a href="Line2D.html" target="_top" title="Line2D.html" xlink:actuate="onRequest" xlink:href="Line2D.html" xlink:show="new" xlink:title="Line2D.html" xlink:type="simple"><g id="elem_game.renderer.Line2D"><rect codeLine="19" fill="#F1F1F1" height="179.9063" id="game.renderer.Line2D" rx="2.5" ry="2.5" style="stroke:#181818;stroke-width:0.5;" width="299" x="527.5" y="230.71"/><ellipse cx="649.25" cy="246.71" fill="#ADD1B2" rx="11" ry="11" style="stroke:#181818;stroke-width:1.0;"/><path d="M651.7231,252.8531 Q651.1421,253.1519 650.5029,253.3013 Q649.8638,253.4507 649.1582,253.4507 Q646.6514,253.4507 645.3315,251.7989 Q644.0117,250.147 644.0117,247.0259 Q644.0117,243.8965 645.3315,242.2447 Q646.6514,240.5928 649.1582,240.5928 Q649.8638,240.5928 650.5112,240.7422 Q651.1587,240.8916 651.7231,241.1905 L651.7231,243.9131 Q651.0923,243.3321 650.4988,243.0623 Q649.9053,242.7925 649.2744,242.7925 Q647.9297,242.7925 647.2449,243.8592 Q646.5601,244.9258 646.5601,247.0259 Q646.5601,249.1177 647.2449,250.1844 Q647.9297,251.251 649.2744,251.251 Q649.9053,251.251 650.4988,250.9812 Q651.0923,250.7115 651.7231,250.1304 Z " fill="#000000"/><text fill="#000000" font-family="sans-serif" font-size="14" lengthAdjust="spacing" textLength="47" x="669.75" y="252.001">Line2D</text><line style="stroke:#181818;stroke-width:0.5;" x1="528.5" x2="825.5" y1="262.71" y2="262.71"/><line style="stroke:#181818;stroke-width:0.5;" x1="528.5" x2="825.5" y1="270.71" y2="270.71"/><ellipse cx="538.5" cy="284.4541" fill="#84BE84" rx="3" ry="3" style="stroke:#038048;stroke-width:1.0;"/><text fill="#000000" font-family="sans-serif" font-size="14" lengthAdjust="spacing" textLength="273" x="547.5" y="288.2452">Line2D(Vector2f, Vector2f, Vector3f, int)</text><ellipse cx="538.5" cy="300.9424" fill="#84BE84" rx="3" ry="3" style="stroke:#038048;stroke-width:1.0;"/><text fill="#000000" font-family="sans-serif" font-size="14" lengthAdjust="spacing" textLength="118" x="547.5" y="304.7334">beginFrame(): int</text><ellipse cx="538.5" cy="317.4307" fill="#84BE84" rx="3" ry="3" style="stroke:#038048;stroke-width:1.0;"/><text fill="#000000" font-family="sans-serif" font-size="14" lengthAdjust="spacing" textLength="134" x="547.5" y="321.2217">getFrom(): Vector2f</text><ellipse cx="538.5" cy="333.919" fill="#84BE84" rx="3" ry="3" style="stroke:#038048;stroke-width:1.0;"/><text fill="#000000" font-family="sans-serif" font-size="14" lengthAdjust="spacing" textLength="161" x="547.5" y="337.71">setFrom(Vector2f): void</text><ellipse cx="538.5" cy="350.4073" fill="#84BE84" rx="3" ry="3" style="stroke:#038048;stroke-width:1.0;"/><text fill="#000000" font-family="sans-serif" font-size="14" lengthAdjust="spacing" textLength="116" x="547.5" y="354.1983">getTo(): Vector2f</text><ellipse cx="538.5" cy="366.8955" fill="#84BE84" rx="3" ry="3" style="stroke:#038048;stroke-width:1.0;"/><text fill="#000000" font-family="sans-serif" font-size="14" lengthAdjust="spacing" textLength="143" x="547.5" y="370.6866">setTo(Vector2f): void</text><ellipse cx="538.5" cy="383.3838" fill="#84BE84" rx="3" ry="3" style="stroke:#038048;stroke-width:1.0;"/><text fill="#000000" font-family="sans-serif" font-size="14" lengthAdjust="spacing" textLength="136" x="547.5" y="387.1748">getColor(): Vector3f</text><ellipse cx="538.5" cy="399.8721" fill="#84BE84" rx="3" ry="3" style="stroke:#038048;stroke-width:1.0;"/><text fill="#000000" font-family="sans-serif" font-size="14" lengthAdjust="spacing" textLength="163" x="547.5" y="403.6631">setColor(Vector3f): void</text></g></a><!--class game.renderer.Shader--><a href="Shader.html" target="_top" title="Shader.html" xlink:actuate="onRequest" xlink:href="Shader.html" xlink:show="new" xlink:title="Shader.html" xlink:type="simple"><g id="elem_game.renderer.Shader"><rect codeLine="30" fill="#F1F1F1" height="262.3477" id="game.renderer.Shader" rx="2.5" ry="2.5" style="stroke:#181818;stroke-width:0.5;" width="267" x="861.5" y="189.48"/><ellipse cx="966.75" cy="205.48" fill="#ADD1B2" rx="11" ry="11" style="stroke:#181818;stroke-width:1.0;"/><path d="M969.2231,211.6231 Q968.6421,211.9219 968.0029,212.0713 Q967.3638,212.2207 966.6582,212.2207 Q964.1514,212.2207 962.8315,210.5689 Q961.5117,208.917 961.5117,205.7959 Q961.5117,202.6665 962.8315,201.0147 Q964.1514,199.3628 966.6582,199.3628 Q967.3638,199.3628 968.0112,199.5122 Q968.6587,199.6616 969.2231,199.9605 L969.2231,202.6831 Q968.5923,202.1021 967.9988,201.8323 Q967.4053,201.5625 966.7744,201.5625 Q965.4297,201.5625 964.7449,202.6292 Q964.0601,203.6958 964.0601,205.7959 Q964.0601,207.8877 964.7449,208.9544 Q965.4297,210.021 966.7744,210.021 Q967.4053,210.021 967.9988,209.7512 Q968.5923,209.4815 969.2231,208.9004 Z " fill="#000000"/><text fill="#000000" font-family="sans-serif" font-size="14" lengthAdjust="spacing" textLength="48" x="987.25" y="210.771">Shader</text><line style="stroke:#181818;stroke-width:0.5;" x1="862.5" x2="1127.5" y1="221.48" y2="221.48"/><line style="stroke:#181818;stroke-width:0.5;" x1="862.5" x2="1127.5" y1="229.48" y2="229.48"/><ellipse cx="872.5" cy="243.2241" fill="#84BE84" rx="3" ry="3" style="stroke:#038048;stroke-width:1.0;"/><text fill="#000000" font-family="sans-serif" font-size="14" lengthAdjust="spacing" textLength="99" x="881.5" y="247.0152">Shader(String)</text><ellipse cx="872.5" cy="259.7124" fill="#84BE84" rx="3" ry="3" style="stroke:#038048;stroke-width:1.0;"/><text fill="#000000" font-family="sans-serif" font-size="14" lengthAdjust="spacing" textLength="101" x="881.5" y="263.5034">compile(): void</text><ellipse cx="872.5" cy="276.2007" fill="#84BE84" rx="3" ry="3" style="stroke:#038048;stroke-width:1.0;"/><text fill="#000000" font-family="sans-serif" font-size="14" lengthAdjust="spacing" textLength="71" x="881.5" y="279.9917">use(): void</text><ellipse cx="872.5" cy="292.689" fill="#84BE84" rx="3" ry="3" style="stroke:#038048;stroke-width:1.0;"/><text fill="#000000" font-family="sans-serif" font-size="14" lengthAdjust="spacing" textLength="93" x="881.5" y="296.48">detach(): void</text><ellipse cx="872.5" cy="309.1773" fill="#84BE84" rx="3" ry="3" style="stroke:#038048;stroke-width:1.0;"/><text fill="#000000" font-family="sans-serif" font-size="14" lengthAdjust="spacing" textLength="241" x="881.5" y="312.9683">uploadMat4f(String, Matrix4f): void</text><ellipse cx="872.5" cy="325.6655" fill="#84BE84" rx="3" ry="3" style="stroke:#038048;stroke-width:1.0;"/><text fill="#000000" font-family="sans-serif" font-size="14" lengthAdjust="spacing" textLength="241" x="881.5" y="329.4566">uploadMat3f(String, Matrix3f): void</text><ellipse cx="872.5" cy="342.1538" fill="#84BE84" rx="3" ry="3" style="stroke:#038048;stroke-width:1.0;"/><text fill="#000000" font-family="sans-serif" font-size="14" lengthAdjust="spacing" textLength="240" x="881.5" y="345.9448">uploadVec4f(String, Vector4f): void</text><ellipse cx="872.5" cy="358.6421" fill="#84BE84" rx="3" ry="3" style="stroke:#038048;stroke-width:1.0;"/><text fill="#000000" font-family="sans-serif" font-size="14" lengthAdjust="spacing" textLength="240" x="881.5" y="362.4331">uploadVec3f(String, Vector3f): void</text><ellipse cx="872.5" cy="375.1304" fill="#84BE84" rx="3" ry="3" style="stroke:#038048;stroke-width:1.0;"/><text fill="#000000" font-family="sans-serif" font-size="14" lengthAdjust="spacing" textLength="240" x="881.5" y="378.9214">uploadVec2f(String, Vector2f): void</text><ellipse cx="872.5" cy="391.6187" fill="#84BE84" rx="3" ry="3" style="stroke:#038048;stroke-width:1.0;"/><text fill="#000000" font-family="sans-serif" font-size="14" lengthAdjust="spacing" textLength="209" x="881.5" y="395.4097">uploadFloat(String, float): void</text><ellipse cx="872.5" cy="408.107" fill="#84BE84" rx="3" ry="3" style="stroke:#038048;stroke-width:1.0;"/><text fill="#000000" font-family="sans-serif" font-size="14" lengthAdjust="spacing" textLength="180" x="881.5" y="411.898">uploadInt(String, int): void</text><ellipse cx="872.5" cy="424.5952" fill="#84BE84" rx="3" ry="3" style="stroke:#038048;stroke-width:1.0;"/><text fill="#000000" font-family="sans-serif" font-size="14" lengthAdjust="spacing" textLength="216" x="881.5" y="428.3862">uploadTexture(String, int): void</text><ellipse cx="872.5" cy="441.0835" fill="#84BE84" rx="3" ry="3" style="stroke:#038048;stroke-width:1.0;"/><text fill="#000000" font-family="sans-serif" font-size="14" lengthAdjust="spacing" textLength="227" x="881.5" y="444.8745">uploadIntArray(String, int[]): void</text></g></a><!--class game.renderer.PickingTexture--><a href="PickingTexture.html" target="_top" title="PickingTexture.html" xlink:actuate="onRequest" xlink:href="PickingTexture.html" xlink:show="new" xlink:title="PickingTexture.html" xlink:type="simple"><g id="elem_game.renderer.PickingTexture"><rect codeLine="46" fill="#F1F1F1" height="146.9297" id="game.renderer.PickingTexture" rx="2.5" ry="2.5" style="stroke:#181818;stroke-width:0.5;" width="278" x="1163" y="247.19"/><ellipse cx="1246.25" cy="263.19" fill="#ADD1B2" rx="11" ry="11" style="stroke:#181818;stroke-width:1.0;"/><path d="M1248.7231,269.3331 Q1248.1421,269.6319 1247.5029,269.7813 Q1246.8638,269.9307 1246.1582,269.9307 Q1243.6514,269.9307 1242.3315,268.2789 Q1241.0117,266.627 1241.0117,263.5059 Q1241.0117,260.3765 1242.3315,258.7247 Q1243.6514,257.0728 1246.1582,257.0728 Q1246.8638,257.0728 1247.5112,257.2222 Q1248.1587,257.3716 1248.7231,257.6705 L1248.7231,260.3931 Q1248.0923,259.8121 1247.4988,259.5423 Q1246.9053,259.2725 1246.2744,259.2725 Q1244.9297,259.2725 1244.2449,260.3392 Q1243.5601,261.4058 1243.5601,263.5059 Q1243.5601,265.5977 1244.2449,266.6644 Q1244.9297,267.731 1246.2744,267.731 Q1246.9053,267.731 1247.4988,267.4612 Q1248.0923,267.1915 1248.7231,266.6104 Z " fill="#000000"/><text fill="#000000" font-family="sans-serif" font-size="14" lengthAdjust="spacing" textLength="103" x="1266.75" y="268.481">PickingTexture</text><line style="stroke:#181818;stroke-width:0.5;" x1="1164" x2="1440" y1="279.19" y2="279.19"/><line style="stroke:#181818;stroke-width:0.5;" x1="1164" x2="1440" y1="287.19" y2="287.19"/><ellipse cx="1174" cy="300.9341" fill="#84BE84" rx="3" ry="3" style="stroke:#038048;stroke-width:1.0;"/><text fill="#000000" font-family="sans-serif" font-size="14" lengthAdjust="spacing" textLength="157" x="1183" y="304.7252">PickingTexture(int, int)</text><ellipse cx="1174" cy="317.4224" fill="#84BE84" rx="3" ry="3" style="stroke:#038048;stroke-width:1.0;"/><text fill="#000000" font-family="sans-serif" font-size="14" lengthAdjust="spacing" textLength="140" x="1183" y="321.2134">init(int, int): boolean</text><ellipse cx="1174" cy="333.9107" fill="#84BE84" rx="3" ry="3" style="stroke:#038048;stroke-width:1.0;"/><text fill="#000000" font-family="sans-serif" font-size="14" lengthAdjust="spacing" textLength="142" x="1183" y="337.7017">enableWriting(): void</text><ellipse cx="1174" cy="350.399" fill="#84BE84" rx="3" ry="3" style="stroke:#038048;stroke-width:1.0;"/><text fill="#000000" font-family="sans-serif" font-size="14" lengthAdjust="spacing" textLength="145" x="1183" y="354.19">disableWriting(): void</text><ellipse cx="1174" cy="366.8873" fill="#84BE84" rx="3" ry="3" style="stroke:#038048;stroke-width:1.0;"/><text fill="#000000" font-family="sans-serif" font-size="14" lengthAdjust="spacing" textLength="144" x="1183" y="370.6783">readPixel(int, int): int</text><ellipse cx="1174" cy="383.3755" fill="#84BE84" rx="3" ry="3" style="stroke:#038048;stroke-width:1.0;"/><text fill="#000000" font-family="sans-serif" font-size="14" lengthAdjust="spacing" textLength="252" x="1183" y="387.1666">readPixels(Vector2i, Vector2i): float[]</text></g></a><!--class game.renderer.Framebuffer--><a href="Framebuffer.html" target="_top" title="Framebuffer.html" xlink:actuate="onRequest" xlink:href="Framebuffer.html" xlink:show="new" xlink:title="Framebuffer.html" xlink:type="simple"><g id="elem_game.renderer.Framebuffer"><rect codeLine="55" fill="#F1F1F1" height="146.9297" id="game.renderer.Framebuffer" rx="2.5" ry="2.5" style="stroke:#181818;stroke-width:0.5;" width="193" x="299.5" y="247.19"/><ellipse cx="349.25" cy="263.19" fill="#ADD1B2" rx="11" ry="11" style="stroke:#181818;stroke-width:1.0;"/><path d="M351.7231,269.3331 Q351.1421,269.6319 350.5029,269.7813 Q349.8638,269.9307 349.1582,269.9307 Q346.6514,269.9307 345.3315,268.2789 Q344.0117,266.627 344.0117,263.5059 Q344.0117,260.3765 345.3315,258.7247 Q346.6514,257.0728 349.1582,257.0728 Q349.8638,257.0728 350.5112,257.2222 Q351.1587,257.3716 351.7231,257.6705 L351.7231,260.3931 Q351.0923,259.8121 350.4988,259.5423 Q349.9053,259.2725 349.2744,259.2725 Q347.9297,259.2725 347.2449,260.3392 Q346.5601,261.4058 346.5601,263.5059 Q346.5601,265.5977 347.2449,266.6644 Q347.9297,267.731 349.2744,267.731 Q349.9053,267.731 350.4988,267.4612 Q351.0923,267.1915 351.7231,266.6104 Z " fill="#000000"/><text fill="#000000" font-family="sans-serif" font-size="14" lengthAdjust="spacing" textLength="85" x="369.75" y="268.481">Framebuffer</text><line style="stroke:#181818;stroke-width:0.5;" x1="300.5" x2="491.5" y1="279.19" y2="279.19"/><line style="stroke:#181818;stroke-width:0.5;" x1="300.5" x2="491.5" y1="287.19" y2="287.19"/><ellipse cx="310.5" cy="300.9341" fill="#84BE84" rx="3" ry="3" style="stroke:#038048;stroke-width:1.0;"/><text fill="#000000" font-family="sans-serif" font-size="14" lengthAdjust="spacing" textLength="139" x="319.5" y="304.7252">Framebuffer(int, int)</text><ellipse cx="310.5" cy="317.4224" fill="#84BE84" rx="3" ry="3" style="stroke:#038048;stroke-width:1.0;"/><text fill="#000000" font-family="sans-serif" font-size="14" lengthAdjust="spacing" textLength="167" x="319.5" y="321.2134">readPixel(int, int): float[]</text><ellipse cx="310.5" cy="333.9107" fill="#84BE84" rx="3" ry="3" style="stroke:#038048;stroke-width:1.0;"/><text fill="#000000" font-family="sans-serif" font-size="14" lengthAdjust="spacing" textLength="78" x="319.5" y="337.7017">bind(): void</text><ellipse cx="310.5" cy="350.399" fill="#84BE84" rx="3" ry="3" style="stroke:#038048;stroke-width:1.0;"/><text fill="#000000" font-family="sans-serif" font-size="14" lengthAdjust="spacing" textLength="96" x="319.5" y="354.19">unbind(): void</text><ellipse cx="310.5" cy="366.8873" fill="#84BE84" rx="3" ry="3" style="stroke:#038048;stroke-width:1.0;"/><text fill="#000000" font-family="sans-serif" font-size="14" lengthAdjust="spacing" textLength="98" x="319.5" y="370.6783">getFboID(): int</text><ellipse cx="310.5" cy="383.3755" fill="#84BE84" rx="3" ry="3" style="stroke:#038048;stroke-width:1.0;"/><text fill="#000000" font-family="sans-serif" font-size="14" lengthAdjust="spacing" textLength="126" x="319.5" y="387.1666">getTextureID(): int</text></g></a><!--class game.renderer.DebugDraw--><a href="DebugDraw.html" target="_top" title="DebugDraw.html" xlink:actuate="onRequest" xlink:href="DebugDraw.html" xlink:show="new" xlink:title="DebugDraw.html" xlink:type="simple"><g id="elem_game.renderer.DebugDraw"><rect codeLine="64" fill="#F1F1F1" height="146.9297" id="game.renderer.DebugDraw" rx="2.5" ry="2.5" style="stroke:#181818;stroke-width:0.5;" width="362" x="515" y="586.54"/><ellipse cx="651.75" cy="602.54" fill="#ADD1B2" rx="11" ry="11" style="stroke:#181818;stroke-width:1.0;"/><path d="M654.2231,608.6831 Q653.6421,608.9819 653.0029,609.1313 Q652.3638,609.2807 651.6582,609.2807 Q649.1514,609.2807 647.8315,607.6289 Q646.5117,605.977 646.5117,602.8559 Q646.5117,599.7265 647.8315,598.0747 Q649.1514,596.4228 651.6582,596.4228 Q652.3638,596.4228 653.0112,596.5722 Q653.6587,596.7216 654.2231,597.0205 L654.2231,599.7431 Q653.5923,599.1621 652.9988,598.8923 Q652.4053,598.6225 651.7744,598.6225 Q650.4297,598.6225 649.7449,599.6892 Q649.0601,600.7558 649.0601,602.8559 Q649.0601,604.9477 649.7449,606.0144 Q650.4297,607.081 651.7744,607.081 Q652.4053,607.081 652.9988,606.8112 Q653.5923,606.5415 654.2231,605.9604 Z " fill="#000000"/><text fill="#000000" font-family="sans-serif" font-size="14" lengthAdjust="spacing" textLength="80" x="672.25" y="607.831">DebugDraw</text><line style="stroke:#181818;stroke-width:0.5;" x1="516" x2="876" y1="618.54" y2="618.54"/><line style="stroke:#181818;stroke-width:0.5;" x1="516" x2="876" y1="626.54" y2="626.54"/><ellipse cx="526" cy="640.2841" fill="#84BE84" rx="3" ry="3" style="stroke:#038048;stroke-width:1.0;"/><text fill="#000000" font-family="sans-serif" font-size="14" lengthAdjust="spacing" text-decoration="underline" textLength="78" x="535" y="644.0752">start(): void</text><ellipse cx="526" cy="656.7724" fill="#84BE84" rx="3" ry="3" style="stroke:#038048;stroke-width:1.0;"/><text fill="#000000" font-family="sans-serif" font-size="14" lengthAdjust="spacing" text-decoration="underline" textLength="129" x="535" y="660.5634">beginFrame(): void</text><ellipse cx="526" cy="673.2607" fill="#84BE84" rx="3" ry="3" style="stroke:#038048;stroke-width:1.0;"/><text fill="#000000" font-family="sans-serif" font-size="14" lengthAdjust="spacing" text-decoration="underline" textLength="81" x="535" y="677.0517">draw(): void</text><ellipse cx="526" cy="689.749" fill="#84BE84" rx="3" ry="3" style="stroke:#038048;stroke-width:1.0;"/><text fill="#000000" font-family="sans-serif" font-size="14" lengthAdjust="spacing" text-decoration="underline" textLength="244" x="535" y="693.54">addLine2D(Vector2f, Vector2f): void</text><ellipse cx="526" cy="706.2373" fill="#84BE84" rx="3" ry="3" style="stroke:#038048;stroke-width:1.0;"/><text fill="#000000" font-family="sans-serif" font-size="14" lengthAdjust="spacing" text-decoration="underline" textLength="310" x="535" y="710.0283">addLine2D(Vector2f, Vector2f, Vector3f): void</text><ellipse cx="526" cy="722.7255" fill="#84BE84" rx="3" ry="3" style="stroke:#038048;stroke-width:1.0;"/><text fill="#000000" font-family="sans-serif" font-size="14" lengthAdjust="spacing" text-decoration="underline" textLength="336" x="535" y="726.5166">addLine2D(Vector2f, Vector2f, Vector3f, int): void</text></g></a><!--class game.renderer.Renderer--><a href="Renderer.html" target="_top" title="Renderer.html" xlink:actuate="onRequest" xlink:href="Renderer.html" xlink:show="new" xlink:title="Renderer.html" xlink:type="simple"><g id="elem_game.renderer.Renderer"><rect codeLine="73" fill="#F1F1F1" height="113.9531" id="game.renderer.Renderer" rx="2.5" ry="2.5" style="stroke:#181818;stroke-width:0.5;" width="206" x="912" y="603.03"/><ellipse cx="979.25" cy="619.03" fill="#ADD1B2" rx="11" ry="11" style="stroke:#181818;stroke-width:1.0;"/><path d="M981.7231,625.1731 Q981.1421,625.4719 980.5029,625.6213 Q979.8638,625.7707 979.1582,625.7707 Q976.6514,625.7707 975.3315,624.1189 Q974.0117,622.467 974.0117,619.3459 Q974.0117,616.2165 975.3315,614.5647 Q976.6514,612.9128 979.1582,612.9128 Q979.8638,612.9128 980.5112,613.0622 Q981.1587,613.2116 981.7231,613.5105 L981.7231,616.2331 Q981.0923,615.6521 980.4988,615.3823 Q979.9053,615.1125 979.2744,615.1125 Q977.9297,615.1125 977.2449,616.1792 Q976.5601,617.2458 976.5601,619.3459 Q976.5601,621.4377 977.2449,622.5044 Q977.9297,623.571 979.2744,623.571 Q979.9053,623.571 980.4988,623.3012 Q981.0923,623.0315 981.7231,622.4504 Z " fill="#000000"/><text fill="#000000" font-family="sans-serif" font-size="14" lengthAdjust="spacing" textLength="63" x="999.75" y="624.321">Renderer</text><line style="stroke:#181818;stroke-width:0.5;" x1="913" x2="1117" y1="635.03" y2="635.03"/><line style="stroke:#181818;stroke-width:0.5;" x1="913" x2="1117" y1="643.03" y2="643.03"/><ellipse cx="923" cy="656.7741" fill="#84BE84" rx="3" ry="3" style="stroke:#038048;stroke-width:1.0;"/><text fill="#000000" font-family="sans-serif" font-size="14" lengthAdjust="spacing" textLength="156" x="932" y="660.5652">add(GameObject): void</text><ellipse cx="923" cy="673.2624" fill="#84BE84" rx="3" ry="3" style="stroke:#038048;stroke-width:1.0;"/><text fill="#000000" font-family="sans-serif" font-size="14" lengthAdjust="spacing" text-decoration="underline" textLength="174" x="932" y="677.0534">bindShader(Shader): void</text><ellipse cx="923" cy="689.7507" fill="#84BE84" rx="3" ry="3" style="stroke:#038048;stroke-width:1.0;"/><text fill="#000000" font-family="sans-serif" font-size="14" lengthAdjust="spacing" text-decoration="underline" textLength="180" x="932" y="693.5417">getBoundShader(): Shader</text><ellipse cx="923" cy="706.239" fill="#84BE84" rx="3" ry="3" style="stroke:#038048;stroke-width:1.0;"/><text fill="#000000" font-family="sans-serif" font-size="14" lengthAdjust="spacing" textLength="93" x="932" y="710.03">render(): void</text></g></a><!--class game.renderer.RenderBatch--><a href="RenderBatch.html" target="_top" title="RenderBatch.html" xlink:actuate="onRequest" xlink:href="RenderBatch.html" xlink:show="new" xlink:title="RenderBatch.html" xlink:type="simple"><g id="elem_game.renderer.RenderBatch"><rect codeLine="80" fill="#F1F1F1" height="196.3945" id="game.renderer.RenderBatch" rx="2.5" ry="2.5" style="stroke:#181818;stroke-width:0.5;" width="242" x="22" y="222.46"/><ellipse cx="95.75" cy="238.46" fill="#ADD1B2" rx="11" ry="11" style="stroke:#181818;stroke-width:1.0;"/><path d="M98.2231,244.6031 Q97.6421,244.9019 97.0029,245.0513 Q96.3638,245.2007 95.6582,245.2007 Q93.1514,245.2007 91.8315,243.5489 Q90.5117,241.897 90.5117,238.7759 Q90.5117,235.6465 91.8315,233.9947 Q93.1514,232.3428 95.6582,232.3428 Q96.3638,232.3428 97.0112,232.4922 Q97.6587,232.6416 98.2231,232.9405 L98.2231,235.6631 Q97.5923,235.0821 96.9988,234.8123 Q96.4053,234.5425 95.7744,234.5425 Q94.4297,234.5425 93.7449,235.6092 Q93.0601,236.6758 93.0601,238.7759 Q93.0601,240.8677 93.7449,241.9344 Q94.4297,243.001 95.7744,243.001 Q96.4053,243.001 96.9988,242.7312 Q97.5923,242.4615 98.2231,241.8804 Z " fill="#000000"/><text fill="#000000" font-family="sans-serif" font-size="14" lengthAdjust="spacing" textLength="86" x="116.25" y="243.751">RenderBatch</text><line style="stroke:#181818;stroke-width:0.5;" x1="23" x2="263" y1="254.46" y2="254.46"/><line style="stroke:#181818;stroke-width:0.5;" x1="23" x2="263" y1="262.46" y2="262.46"/><ellipse cx="33" cy="276.2041" fill="#84BE84" rx="3" ry="3" style="stroke:#038048;stroke-width:1.0;"/><text fill="#000000" font-family="sans-serif" font-size="14" lengthAdjust="spacing" textLength="140" x="42" y="279.9952">RenderBatch(int, int)</text><ellipse cx="33" cy="292.6924" fill="#84BE84" rx="3" ry="3" style="stroke:#038048;stroke-width:1.0;"/><text fill="#000000" font-family="sans-serif" font-size="14" lengthAdjust="spacing" textLength="78" x="42" y="296.4834">start(): void</text><ellipse cx="33" cy="309.1807" fill="#84BE84" rx="3" ry="3" style="stroke:#038048;stroke-width:1.0;"/><text fill="#000000" font-family="sans-serif" font-size="14" lengthAdjust="spacing" textLength="216" x="42" y="312.9717">addSprite(SpriteRenderer): void</text><ellipse cx="33" cy="325.669" fill="#84BE84" rx="3" ry="3" style="stroke:#038048;stroke-width:1.0;"/><text fill="#000000" font-family="sans-serif" font-size="14" lengthAdjust="spacing" textLength="93" x="42" y="329.46">render(): void</text><ellipse cx="33" cy="342.1573" fill="#84BE84" rx="3" ry="3" style="stroke:#038048;stroke-width:1.0;"/><text fill="#000000" font-family="sans-serif" font-size="14" lengthAdjust="spacing" textLength="138" x="42" y="345.9483">hasRoom(): boolean</text><ellipse cx="33" cy="358.6455" fill="#84BE84" rx="3" ry="3" style="stroke:#038048;stroke-width:1.0;"/><text fill="#000000" font-family="sans-serif" font-size="14" lengthAdjust="spacing" textLength="192" x="42" y="362.4366">hasTextureRoom(): boolean</text><ellipse cx="33" cy="375.1338" fill="#84BE84" rx="3" ry="3" style="stroke:#038048;stroke-width:1.0;"/><text fill="#000000" font-family="sans-serif" font-size="14" lengthAdjust="spacing" textLength="206" x="42" y="378.9248">hasTexture(Texture): boolean</text><ellipse cx="33" cy="391.6221" fill="#84BE84" rx="3" ry="3" style="stroke:#038048;stroke-width:1.0;"/><text fill="#000000" font-family="sans-serif" font-size="14" lengthAdjust="spacing" textLength="83" x="42" y="395.4131">zIndex(): int</text><ellipse cx="33" cy="408.1104" fill="#84BE84" rx="3" ry="3" style="stroke:#038048;stroke-width:1.0;"/><text fill="#000000" font-family="sans-serif" font-size="14" lengthAdjust="spacing" textLength="200" x="42" y="411.9014">compareTo(RenderBatch): int</text></g></a><!--class java.lang.Comparable--><g id="elem_java.lang.Comparable"><rect codeLine="97" fill="#F1F1F1" height="64.4883" id="java.lang.Comparable" rx="2.5" ry="2.5" style="stroke:#181818;stroke-width:0.5;" width="149" x="68.5" y="41"/><ellipse cx="92.95" cy="57" fill="#B4A7E5" rx="11" ry="11" style="stroke:#181818;stroke-width:1.0;"/><path d="M89.3777,53.2651 L89.3777,51.1069 L96.7571,51.1069 L96.7571,53.2651 L94.2918,53.2651 L94.2918,61.3418 L96.7571,61.3418 L96.7571,63.5 L89.3777,63.5 L89.3777,61.3418 L91.8431,61.3418 L91.8431,53.2651 Z " fill="#000000"/><text fill="#000000" font-family="sans-serif" font-size="14" font-style="italic" lengthAdjust="spacing" textLength="84" x="109.05" y="62.291">Comparable</text><rect fill="#FFFFFF" height="16.1328" style="stroke:#181818;stroke-width:1.0;stroke-dasharray:2.0,2.0;" width="10" x="210.5" y="38"/><text fill="#000000" font-family="sans-serif" font-size="12" font-style="italic" lengthAdjust="spacing" textLength="8" x="211.5" y="50.6016">T</text><line style="stroke:#181818;stroke-width:0.5;" x1="69.5" x2="216.5" y1="73" y2="73"/><line style="stroke:#181818;stroke-width:0.5;" x1="69.5" x2="216.5" y1="81" y2="81"/><ellipse cx="79.5" cy="94.7441" fill="#84BE84" rx="3" ry="3" style="stroke:#038048;stroke-width:1.0;"/><text fill="#000000" font-family="sans-serif" font-size="14" font-style="italic" lengthAdjust="spacing" textLength="123" x="88.5" y="98.5352">compareTo(T): int</text></g><!--link game.renderer.Framebuffer to game.renderer.Texture--><g id="link_game.renderer.Framebuffer_game.renderer.Texture"><path codeLine="92" d="M393.63,394.44 C392.41,431.73 390.89,478.39 389.46,522.1 " fill="none" id="game.renderer.Framebuffer-to-game.renderer.Texture" style="stroke:#181818;stroke-width:1.0;"/><polygon fill="#181818" points="389.3,527.01,393.606,518.1523,389.4713,522.0129,385.6107,517.8782,389.3,527.01" style="stroke:#181818;stroke-width:1.0;"/><text fill="#000000" font-family="sans-serif" font-size="13" lengthAdjust="spacing" textLength="45" x="391" y="495.3984">texture</text></g><!--reverse link java.lang.Comparable to game.renderer.RenderBatch--><g id="link_java.lang.Comparable_game.renderer.RenderBatch"><path codeLine="93" d="M143,127.19 C143,154.87 143,189.63 143,221.97 " fill="none" id="java.lang.Comparable-backto-game.renderer.RenderBatch" style="stroke:#181818;stroke-width:1.0;stroke-dasharray:7.0,7.0;"/><polygon fill="none" points="136,127.34,143,107.34,150,127.34,136,127.34" style="stroke:#181818;stroke-width:1.0;"/></g><text fill="#888888" font-family="sans-serif" font-size="10" lengthAdjust="spacing" textLength="182" x="634" y="822.848">UMLDoclet 2.1.0, PlantUML 1.2022.14</text><!--SRC=[fLPHJzim47xdL_XbKj1AjBKy8OGqgBeXWOQ0ZOUg3qxY96QfNTakwmRyzvsJE7KIEs5R7vfBlk_kVEUxin52YE4raHiS4vI150h24YA8GCy71wZ-nGMM4jsJdTeAWfRBMWfpjIvMAs0Yw_U-HeD3zsVAr0J1NmUcZAhWJWdAiiCJzCHfqiOZofB0YMoP7yk8Ug29oZKAFdlW5qApNFdG1It81bVQrTBQ56bH1fOEbY3uoxdJZJIWJebBMveG1WXr60x6QtSNhoWZqpbiOYLuzh02W-yaLbnCqmdgIhFKjOaHoIXR2AWZRqe5NslCsEidL1CCwaqd7xG1y9Y52rvmiJSownkf60OUpUjTZg5l8A-LuCbh1PfYQMCnNs-WcZn5BZr0GXIESu_Ifk0ukSRgEArTJX2y2RexJeSLPbs5sP029CdoKANiU4HXrbKOyp3jAao751Rmfng5LByDi2_PdkjhiufffjZRs63tan3ubqrVhaPhwOR6Fu2-7xZj3vxQQfC6vso3dQ28yu9WrYOHXgE2F0YgmA2dxgWSvGY2ankw8uNji3SL6fOqNKkRBQQWK6xUSkLFLpbmecsQblrdlNaIPJ5yMNAklBkG_pkN5X7t70dLUQ4tiK_e1J-7IBAvm3yXz4Ps1_ui5LOqVeNnfh1GpfNjEUrPFa1CmE481IU9zqJvTytXoV6tDfozt4lthRaUBPT6z5GPU0q-G_Q-He_WOIJNK2ZcQ2WVmtGea7E-RLJqxQIKkZNCQlGj8PrZ5UTDLEMR9p2BuMiVVttfjDnjO6Z022qV9ekU0U8CeSHoB6zvTPbmpZ30wovw8osedpxcxqjOpCxPiVheneB0lSDAZhzpxO5rT7HcRjOdI5L2Gtp4JpWiCCl2YzA3dhZez2KCxKqxiAplB_EDghLzi1mYKetkpPtUdtN718wa4ZXMhtPWzxrmBBSnqPPHohb-VBk-clEu80fDmu_XXmcwWNKe-8hUFH4XAMV1uHy0]--></g></svg>