<?xml version="1.0" encoding="UTF-8" standalone="no"?><svg xmlns="http://www.w3.org/2000/svg" xmlns:xlink="http://www.w3.org/1999/xlink" contentStyleType="text/css" height="625px" preserveAspectRatio="none" style="width:759px;height:625px;background:#FFFFFF;" version="1.1" viewBox="0 0 759 625" width="759px" zoomAndPan="magnify"><defs/><g><!--cluster game.renderer--><g id="cluster_game.renderer"><path d="M8.5,145.49 L111.5,145.49 A3.75,3.75 0 0 1 114,147.99 L121,167.9783 L749.5,167.9783 A2.5,2.5 0 0 1 752,170.4783 L752,597.31 A2.5,2.5 0 0 1 749.5,599.81 L8.5,599.81 A2.5,2.5 0 0 1 6,597.31 L6,147.99 A2.5,2.5 0 0 1 8.5,145.49 " fill="none" style="stroke:#000000;stroke-width:1.5;"/><line style="stroke:#000000;stroke-width:1.5;" x1="6" x2="121" y1="167.9783" y2="167.9783"/><text fill="#000000" font-family="sans-serif" font-size="14" font-weight="bold" lengthAdjust="spacing" textLength="102" x="10" y="161.0252">game.renderer</text></g><!--cluster java.lang--><g id="cluster_java.lang"><path d="M55.5,6 L119.5,6 A3.75,3.75 0 0 1 122,8.5 L129,28.4883 L230.5,28.4883 A2.5,2.5 0 0 1 233,30.9883 L233,118.99 A2.5,2.5 0 0 1 230.5,121.49 L55.5,121.49 A2.5,2.5 0 0 1 53,118.99 L53,8.5 A2.5,2.5 0 0 1 55.5,6 " fill="none" style="stroke:#000000;stroke-width:1.5;"/><line style="stroke:#000000;stroke-width:1.5;" x1="53" x2="129" y1="28.4883" y2="28.4883"/><text fill="#000000" font-family="sans-serif" font-size="14" font-weight="bold" lengthAdjust="spacing" textLength="63" x="57" y="21.5352">java.lang</text></g><!--class game.renderer.Texture--><a href="Texture.html" target="_top" title="Texture.html" xlink:actuate="onRequest" xlink:href="Texture.html" xlink:show="new" xlink:title="Texture.html" xlink:type="simple"><g id="elem_game.renderer.Texture"><rect codeLine="3" fill="#F1F1F1" height="130.4414" id="game.renderer.Texture" rx="2.5" ry="2.5" style="stroke:#181818;stroke-width:0.5;" width="136" x="299" y="246.44"/><ellipse cx="336.5" cy="262.44" fill="#ADD1B2" rx="11" ry="11" style="stroke:#181818;stroke-width:1.0;"/><path d="M338.9731,268.5831 Q338.3921,268.8819 337.7529,269.0313 Q337.1138,269.1807 336.4082,269.1807 Q333.9014,269.1807 332.5815,267.5289 Q331.2617,265.877 331.2617,262.7559 Q331.2617,259.6265 332.5815,257.9747 Q333.9014,256.3228 336.4082,256.3228 Q337.1138,256.3228 337.7612,256.4722 Q338.4087,256.6216 338.9731,256.9205 L338.9731,259.6431 Q338.3423,259.0621 337.7488,258.7923 Q337.1553,258.5225 336.5244,258.5225 Q335.1797,258.5225 334.4949,259.5892 Q333.8101,260.6558 333.8101,262.7559 Q333.8101,264.8477 334.4949,265.9144 Q335.1797,266.981 336.5244,266.981 Q337.1553,266.981 337.7488,266.7112 Q338.3423,266.4415 338.9731,265.8604 Z " fill="#000000"/><text fill="#000000" font-family="sans-serif" font-size="14" lengthAdjust="spacing" textLength="54" x="355.5" y="267.731">Texture</text><line style="stroke:#181818;stroke-width:0.5;" x1="300" x2="434" y1="278.44" y2="278.44"/><line style="stroke:#181818;stroke-width:0.5;" x1="300" x2="434" y1="286.44" y2="286.44"/><ellipse cx="310" cy="300.1841" fill="#84BE84" rx="3" ry="3" style="stroke:#038048;stroke-width:1.0;"/><text fill="#000000" font-family="sans-serif" font-size="14" lengthAdjust="spacing" textLength="110" x="319" y="303.9752">init(String): void</text><ellipse cx="310" cy="316.6724" fill="#84BE84" rx="3" ry="3" style="stroke:#038048;stroke-width:1.0;"/><text fill="#000000" font-family="sans-serif" font-size="14" lengthAdjust="spacing" textLength="78" x="319" y="320.4634">bind(): void</text><ellipse cx="310" cy="333.1607" fill="#84BE84" rx="3" ry="3" style="stroke:#038048;stroke-width:1.0;"/><text fill="#000000" font-family="sans-serif" font-size="14" lengthAdjust="spacing" textLength="96" x="319" y="336.9517">unbind(): void</text><ellipse cx="310" cy="349.649" fill="#84BE84" rx="3" ry="3" style="stroke:#038048;stroke-width:1.0;"/><text fill="#000000" font-family="sans-serif" font-size="14" lengthAdjust="spacing" textLength="97" x="319" y="353.44">getWidth(): int</text><ellipse cx="310" cy="366.1373" fill="#84BE84" rx="3" ry="3" style="stroke:#038048;stroke-width:1.0;"/><text fill="#000000" font-family="sans-serif" font-size="14" lengthAdjust="spacing" textLength="103" x="319" y="369.9283">getHeight(): int</text></g></a><!--class game.renderer.Shader--><a href="Shader.html" target="_top" title="Shader.html" xlink:actuate="onRequest" xlink:href="Shader.html" xlink:show="new" xlink:title="Shader.html" xlink:type="simple"><g id="elem_game.renderer.Shader"><rect codeLine="11" fill="#F1F1F1" height="262.3477" id="game.renderer.Shader" rx="2.5" ry="2.5" style="stroke:#181818;stroke-width:0.5;" width="267" x="469.5" y="180.49"/><ellipse cx="574.75" cy="196.49" fill="#ADD1B2" rx="11" ry="11" style="stroke:#181818;stroke-width:1.0;"/><path d="M577.2231,202.6331 Q576.6421,202.9319 576.0029,203.0813 Q575.3638,203.2307 574.6582,203.2307 Q572.1514,203.2307 570.8315,201.5789 Q569.5117,199.927 569.5117,196.8059 Q569.5117,193.6765 570.8315,192.0247 Q572.1514,190.3728 574.6582,190.3728 Q575.3638,190.3728 576.0112,190.5222 Q576.6587,190.6716 577.2231,190.9705 L577.2231,193.6931 Q576.5923,193.1121 575.9988,192.8423 Q575.4053,192.5725 574.7744,192.5725 Q573.4297,192.5725 572.7449,193.6392 Q572.0601,194.7058 572.0601,196.8059 Q572.0601,198.8977 572.7449,199.9644 Q573.4297,201.031 574.7744,201.031 Q575.4053,201.031 575.9988,200.7612 Q576.5923,200.4915 577.2231,199.9104 Z " fill="#000000"/><text fill="#000000" font-family="sans-serif" font-size="14" lengthAdjust="spacing" textLength="48" x="595.25" y="201.781">Shader</text><line style="stroke:#181818;stroke-width:0.5;" x1="470.5" x2="735.5" y1="212.49" y2="212.49"/><line style="stroke:#181818;stroke-width:0.5;" x1="470.5" x2="735.5" y1="220.49" y2="220.49"/><ellipse cx="480.5" cy="234.2341" fill="#84BE84" rx="3" ry="3" style="stroke:#038048;stroke-width:1.0;"/><text fill="#000000" font-family="sans-serif" font-size="14" lengthAdjust="spacing" textLength="99" x="489.5" y="238.0252">Shader(String)</text><ellipse cx="480.5" cy="250.7224" fill="#84BE84" rx="3" ry="3" style="stroke:#038048;stroke-width:1.0;"/><text fill="#000000" font-family="sans-serif" font-size="14" lengthAdjust="spacing" textLength="101" x="489.5" y="254.5134">compile(): void</text><ellipse cx="480.5" cy="267.2107" fill="#84BE84" rx="3" ry="3" style="stroke:#038048;stroke-width:1.0;"/><text fill="#000000" font-family="sans-serif" font-size="14" lengthAdjust="spacing" textLength="71" x="489.5" y="271.0017">use(): void</text><ellipse cx="480.5" cy="283.699" fill="#84BE84" rx="3" ry="3" style="stroke:#038048;stroke-width:1.0;"/><text fill="#000000" font-family="sans-serif" font-size="14" lengthAdjust="spacing" textLength="93" x="489.5" y="287.49">detach(): void</text><ellipse cx="480.5" cy="300.1873" fill="#84BE84" rx="3" ry="3" style="stroke:#038048;stroke-width:1.0;"/><text fill="#000000" font-family="sans-serif" font-size="14" lengthAdjust="spacing" textLength="241" x="489.5" y="303.9783">uploadMat4f(String, Matrix4f): void</text><ellipse cx="480.5" cy="316.6755" fill="#84BE84" rx="3" ry="3" style="stroke:#038048;stroke-width:1.0;"/><text fill="#000000" font-family="sans-serif" font-size="14" lengthAdjust="spacing" textLength="241" x="489.5" y="320.4666">uploadMat3f(String, Matrix3f): void</text><ellipse cx="480.5" cy="333.1638" fill="#84BE84" rx="3" ry="3" style="stroke:#038048;stroke-width:1.0;"/><text fill="#000000" font-family="sans-serif" font-size="14" lengthAdjust="spacing" textLength="240" x="489.5" y="336.9548">uploadVec4f(String, Vector4f): void</text><ellipse cx="480.5" cy="349.6521" fill="#84BE84" rx="3" ry="3" style="stroke:#038048;stroke-width:1.0;"/><text fill="#000000" font-family="sans-serif" font-size="14" lengthAdjust="spacing" textLength="240" x="489.5" y="353.4431">uploadVec3f(String, Vector3f): void</text><ellipse cx="480.5" cy="366.1404" fill="#84BE84" rx="3" ry="3" style="stroke:#038048;stroke-width:1.0;"/><text fill="#000000" font-family="sans-serif" font-size="14" lengthAdjust="spacing" textLength="240" x="489.5" y="369.9314">uploadVec2f(String, Vector2f): void</text><ellipse cx="480.5" cy="382.6287" fill="#84BE84" rx="3" ry="3" style="stroke:#038048;stroke-width:1.0;"/><text fill="#000000" font-family="sans-serif" font-size="14" lengthAdjust="spacing" textLength="209" x="489.5" y="386.4197">uploadFloat(String, float): void</text><ellipse cx="480.5" cy="399.117" fill="#84BE84" rx="3" ry="3" style="stroke:#038048;stroke-width:1.0;"/><text fill="#000000" font-family="sans-serif" font-size="14" lengthAdjust="spacing" textLength="180" x="489.5" y="402.908">uploadInt(String, int): void</text><ellipse cx="480.5" cy="415.6052" fill="#84BE84" rx="3" ry="3" style="stroke:#038048;stroke-width:1.0;"/><text fill="#000000" font-family="sans-serif" font-size="14" lengthAdjust="spacing" textLength="216" x="489.5" y="419.3962">uploadTexture(String, int): void</text><ellipse cx="480.5" cy="432.0935" fill="#84BE84" rx="3" ry="3" style="stroke:#038048;stroke-width:1.0;"/><text fill="#000000" font-family="sans-serif" font-size="14" lengthAdjust="spacing" textLength="227" x="489.5" y="435.8845">uploadIntArray(String, int[]): void</text></g></a><!--class game.renderer.Renderer--><a href="Renderer.html" target="_top" title="Renderer.html" xlink:actuate="onRequest" xlink:href="Renderer.html" xlink:show="new" xlink:title="Renderer.html" xlink:type="simple"><g id="elem_game.renderer.Renderer"><rect codeLine="27" fill="#F1F1F1" height="80.9766" id="game.renderer.Renderer" rx="2.5" ry="2.5" style="stroke:#181818;stroke-width:0.5;" width="182" x="276" y="502.83"/><ellipse cx="331.25" cy="518.83" fill="#ADD1B2" rx="11" ry="11" style="stroke:#181818;stroke-width:1.0;"/><path d="M333.7231,524.9731 Q333.1421,525.2719 332.5029,525.4213 Q331.8638,525.5707 331.1582,525.5707 Q328.6514,525.5707 327.3315,523.9189 Q326.0117,522.267 326.0117,519.1459 Q326.0117,516.0165 327.3315,514.3647 Q328.6514,512.7128 331.1582,512.7128 Q331.8638,512.7128 332.5112,512.8622 Q333.1587,513.0116 333.7231,513.3105 L333.7231,516.0331 Q333.0923,515.4521 332.4988,515.1823 Q331.9053,514.9125 331.2744,514.9125 Q329.9297,514.9125 329.2449,515.9792 Q328.5601,517.0458 328.5601,519.1459 Q328.5601,521.2377 329.2449,522.3044 Q329.9297,523.371 331.2744,523.371 Q331.9053,523.371 332.4988,523.1012 Q333.0923,522.8315 333.7231,522.2504 Z " fill="#000000"/><text fill="#000000" font-family="sans-serif" font-size="14" lengthAdjust="spacing" textLength="63" x="351.75" y="524.121">Renderer</text><line style="stroke:#181818;stroke-width:0.5;" x1="277" x2="457" y1="534.83" y2="534.83"/><line style="stroke:#181818;stroke-width:0.5;" x1="277" x2="457" y1="542.83" y2="542.83"/><ellipse cx="287" cy="556.5741" fill="#84BE84" rx="3" ry="3" style="stroke:#038048;stroke-width:1.0;"/><text fill="#000000" font-family="sans-serif" font-size="14" lengthAdjust="spacing" textLength="156" x="296" y="560.3652">add(GameObject): void</text><ellipse cx="287" cy="573.0624" fill="#84BE84" rx="3" ry="3" style="stroke:#038048;stroke-width:1.0;"/><text fill="#000000" font-family="sans-serif" font-size="14" lengthAdjust="spacing" textLength="93" x="296" y="576.8534">render(): void</text></g></a><!--class game.renderer.RenderBatch--><a href="RenderBatch.html" target="_top" title="RenderBatch.html" xlink:actuate="onRequest" xlink:href="RenderBatch.html" xlink:show="new" xlink:title="RenderBatch.html" xlink:type="simple"><g id="elem_game.renderer.RenderBatch"><rect codeLine="32" fill="#F1F1F1" height="196.3945" id="game.renderer.RenderBatch" rx="2.5" ry="2.5" style="stroke:#181818;stroke-width:0.5;" width="242" x="22" y="213.46"/><ellipse cx="95.75" cy="229.46" fill="#ADD1B2" rx="11" ry="11" style="stroke:#181818;stroke-width:1.0;"/><path d="M98.2231,235.6031 Q97.6421,235.9019 97.0029,236.0513 Q96.3638,236.2007 95.6582,236.2007 Q93.1514,236.2007 91.8315,234.5489 Q90.5117,232.897 90.5117,229.7759 Q90.5117,226.6465 91.8315,224.9947 Q93.1514,223.3428 95.6582,223.3428 Q96.3638,223.3428 97.0112,223.4922 Q97.6587,223.6416 98.2231,223.9405 L98.2231,226.6631 Q97.5923,226.0821 96.9988,225.8123 Q96.4053,225.5425 95.7744,225.5425 Q94.4297,225.5425 93.7449,226.6092 Q93.0601,227.6758 93.0601,229.7759 Q93.0601,231.8677 93.7449,232.9344 Q94.4297,234.001 95.7744,234.001 Q96.4053,234.001 96.9988,233.7312 Q97.5923,233.4615 98.2231,232.8804 Z " fill="#000000"/><text fill="#000000" font-family="sans-serif" font-size="14" lengthAdjust="spacing" textLength="86" x="116.25" y="234.751">RenderBatch</text><line style="stroke:#181818;stroke-width:0.5;" x1="23" x2="263" y1="245.46" y2="245.46"/><line style="stroke:#181818;stroke-width:0.5;" x1="23" x2="263" y1="253.46" y2="253.46"/><ellipse cx="33" cy="267.2041" fill="#84BE84" rx="3" ry="3" style="stroke:#038048;stroke-width:1.0;"/><text fill="#000000" font-family="sans-serif" font-size="14" lengthAdjust="spacing" textLength="140" x="42" y="270.9952">RenderBatch(int, int)</text><ellipse cx="33" cy="283.6924" fill="#84BE84" rx="3" ry="3" style="stroke:#038048;stroke-width:1.0;"/><text fill="#000000" font-family="sans-serif" font-size="14" lengthAdjust="spacing" textLength="78" x="42" y="287.4834">start(): void</text><ellipse cx="33" cy="300.1807" fill="#84BE84" rx="3" ry="3" style="stroke:#038048;stroke-width:1.0;"/><text fill="#000000" font-family="sans-serif" font-size="14" lengthAdjust="spacing" textLength="216" x="42" y="303.9717">addSprite(SpriteRenderer): void</text><ellipse cx="33" cy="316.669" fill="#84BE84" rx="3" ry="3" style="stroke:#038048;stroke-width:1.0;"/><text fill="#000000" font-family="sans-serif" font-size="14" lengthAdjust="spacing" textLength="93" x="42" y="320.46">render(): void</text><ellipse cx="33" cy="333.1573" fill="#84BE84" rx="3" ry="3" style="stroke:#038048;stroke-width:1.0;"/><text fill="#000000" font-family="sans-serif" font-size="14" lengthAdjust="spacing" textLength="138" x="42" y="336.9483">hasRoom(): boolean</text><ellipse cx="33" cy="349.6455" fill="#84BE84" rx="3" ry="3" style="stroke:#038048;stroke-width:1.0;"/><text fill="#000000" font-family="sans-serif" font-size="14" lengthAdjust="spacing" textLength="192" x="42" y="353.4366">hasTextureRoom(): boolean</text><ellipse cx="33" cy="366.1338" fill="#84BE84" rx="3" ry="3" style="stroke:#038048;stroke-width:1.0;"/><text fill="#000000" font-family="sans-serif" font-size="14" lengthAdjust="spacing" textLength="206" x="42" y="369.9248">hasTexture(Texture): boolean</text><ellipse cx="33" cy="382.6221" fill="#84BE84" rx="3" ry="3" style="stroke:#038048;stroke-width:1.0;"/><text fill="#000000" font-family="sans-serif" font-size="14" lengthAdjust="spacing" textLength="83" x="42" y="386.4131">zIndex(): int</text><ellipse cx="33" cy="399.1104" fill="#84BE84" rx="3" ry="3" style="stroke:#038048;stroke-width:1.0;"/><text fill="#000000" font-family="sans-serif" font-size="14" lengthAdjust="spacing" textLength="200" x="42" y="402.9014">compareTo(RenderBatch): int</text></g></a><!--class java.lang.Comparable--><g id="elem_java.lang.Comparable"><rect codeLine="48" fill="#F1F1F1" height="64.4883" id="java.lang.Comparable" rx="2.5" ry="2.5" style="stroke:#181818;stroke-width:0.5;" width="149" x="68.5" y="41"/><ellipse cx="92.95" cy="57" fill="#B4A7E5" rx="11" ry="11" style="stroke:#181818;stroke-width:1.0;"/><path d="M89.3777,53.2651 L89.3777,51.1069 L96.7571,51.1069 L96.7571,53.2651 L94.2918,53.2651 L94.2918,61.3418 L96.7571,61.3418 L96.7571,63.5 L89.3777,63.5 L89.3777,61.3418 L91.8431,61.3418 L91.8431,53.2651 Z " fill="#000000"/><text fill="#000000" font-family="sans-serif" font-size="14" font-style="italic" lengthAdjust="spacing" textLength="84" x="109.05" y="62.291">Comparable</text><rect fill="#FFFFFF" height="16.1328" style="stroke:#181818;stroke-width:1.0;stroke-dasharray:2.0,2.0;" width="10" x="210.5" y="38"/><text fill="#000000" font-family="sans-serif" font-size="12" font-style="italic" lengthAdjust="spacing" textLength="8" x="211.5" y="50.6016">T</text><line style="stroke:#181818;stroke-width:0.5;" x1="69.5" x2="216.5" y1="73" y2="73"/><line style="stroke:#181818;stroke-width:0.5;" x1="69.5" x2="216.5" y1="81" y2="81"/><ellipse cx="79.5" cy="94.7441" fill="#84BE84" rx="3" ry="3" style="stroke:#038048;stroke-width:1.0;"/><text fill="#000000" font-family="sans-serif" font-size="14" font-style="italic" lengthAdjust="spacing" textLength="123" x="88.5" y="98.5352">compareTo(T): int</text></g><!--reverse link java.lang.Comparable to game.renderer.RenderBatch--><g id="link_java.lang.Comparable_game.renderer.RenderBatch"><path codeLine="44" d="M143,127.06 C143,152.43 143,183.65 143,213.1 " fill="none" id="java.lang.Comparable-backto-game.renderer.RenderBatch" style="stroke:#181818;stroke-width:1.0;stroke-dasharray:7.0,7.0;"/><polygon fill="none" points="136,127.15,143,107.15,150,127.15,136,127.15" style="stroke:#181818;stroke-width:1.0;"/></g><text fill="#888888" font-family="sans-serif" font-size="10" lengthAdjust="spacing" textLength="182" x="281.5" y="615.478">UMLDoclet 2.1.0, PlantUML 1.2022.14</text><!--SRC=[bLHHRzCm47xlhxWNf4nCqMZxX2Oa608cCO7M0WzH7oxE9V6KsfLpgmfZ_vrBcxPkMcV53x6Tx_jyz_bi0m0Od5EzG4LGo2XsP39ovE1fC82sgGhh6gQquaT7a2JjA2vvNircmWIllTP6SpHXfqrnyHQMLcU7UAfD5fr47aqOAuX_wOpB1jM6Zy0lf8kIk-XpryIaHB4d7ZQ3W8KDk3LnY2axN-YA0Wxg090Heoe3eaLbCRj37kTjo4kGcTEhSTul67K5epx1Jr9U19cnTUCN1AEkuAK8mwvWs2Vu91_U2V9criE-DNkkLBc7sPxGCzcoxdldyBTFJsPTmT5PkjzUbIJP3WFd2RCi-Yotwrlw87joCfFDlOlE3Fe1MPMxkEjP8BJ7YCJMPYiEAJMZuzD7KnAVB9ncsSbrj_NvFnRMM8drlRNp1aojhGZD4TxMx4nQrFOXvfzRIMPryhLeRZ0wcjh8svpmm_60IumhD4LyinPYMX5S_urZlnO3JxH_KNTIhoeIXLpUeFlbhgVlEdLxmhHcXugV_NodHrbwOHKrAqDkRTFzkFlwqQgA68Rnc_Zg4hvB7Yn_uTMINAsjYIx-0G00]--></g></svg>