<?xml version="1.0" encoding="UTF-8" standalone="no"?><svg xmlns="http://www.w3.org/2000/svg" xmlns:xlink="http://www.w3.org/1999/xlink" contentStyleType="text/css" height="353px" preserveAspectRatio="none" style="width:256px;height:353px;background:#FFFFFF;" version="1.1" viewBox="0 0 256 353" width="256px" zoomAndPan="magnify"><defs/><g><!--class game.renderer.RenderBatch--><a href="RenderBatch.html" target="_top" title="RenderBatch.html" xlink:actuate="onRequest" xlink:href="RenderBatch.html" xlink:show="new" xlink:title="RenderBatch.html" xlink:type="simple"><g id="elem_game.renderer.RenderBatch"><rect codeLine="5" fill="#F1F1F1" height="194.6602" id="game.renderer.RenderBatch" rx="2.5" ry="2.5" style="stroke:#181818;stroke-width:0.5;" width="242" x="7" y="132.75"/><ellipse cx="80.75" cy="151.8828" fill="#ADD1B2" rx="11" ry="11" style="stroke:#181818;stroke-width:1.0;"/><path d="M83.2231,158.0259 Q82.6421,158.3247 82.0029,158.4741 Q81.3638,158.6235 80.6582,158.6235 Q78.1514,158.6235 76.8315,156.9717 Q75.5117,155.3198 75.5117,152.1987 Q75.5117,149.0693 76.8315,147.4175 Q78.1514,145.7656 80.6582,145.7656 Q81.3638,145.7656 82.0112,145.915 Q82.6587,146.0645 83.2231,146.3633 L83.2231,149.0859 Q82.5923,148.5049 81.9988,148.2351 Q81.4053,147.9653 80.7744,147.9653 Q79.4297,147.9653 78.7449,149.032 Q78.0601,150.0986 78.0601,152.1987 Q78.0601,154.2905 78.7449,155.3572 Q79.4297,156.4238 80.7744,156.4238 Q81.4053,156.4238 81.9988,156.1541 Q82.5923,155.8843 83.2231,155.3032 Z " fill="#000000"/><text fill="#000000" font-family="sans-serif" font-size="14" lengthAdjust="spacing" textLength="86" x="101.25" y="151.2852">RenderBatch</text><text fill="#000000" font-family="sans-serif" font-size="10" lengthAdjust="spacing" textLength="72" x="108.25" y="163.9063">game.renderer</text><line style="stroke:#181818;stroke-width:0.5;" x1="8" x2="248" y1="171.0156" y2="171.0156"/><ellipse cx="18" cy="184.7598" fill="#84BE84" rx="3" ry="3" style="stroke:#038048;stroke-width:1.0;"/><text fill="#000000" font-family="sans-serif" font-size="14" lengthAdjust="spacing" textLength="140" x="27" y="188.5508">RenderBatch(int, int)</text><ellipse cx="18" cy="201.248" fill="#84BE84" rx="3" ry="3" style="stroke:#038048;stroke-width:1.0;"/><text fill="#000000" font-family="sans-serif" font-size="14" lengthAdjust="spacing" textLength="78" x="27" y="205.0391">start(): void</text><ellipse cx="18" cy="217.7363" fill="#84BE84" rx="3" ry="3" style="stroke:#038048;stroke-width:1.0;"/><text fill="#000000" font-family="sans-serif" font-size="14" lengthAdjust="spacing" textLength="216" x="27" y="221.5273">addSprite(SpriteRenderer): void</text><ellipse cx="18" cy="234.2246" fill="#84BE84" rx="3" ry="3" style="stroke:#038048;stroke-width:1.0;"/><text fill="#000000" font-family="sans-serif" font-size="14" lengthAdjust="spacing" textLength="93" x="27" y="238.0156">render(): void</text><ellipse cx="18" cy="250.7129" fill="#84BE84" rx="3" ry="3" style="stroke:#038048;stroke-width:1.0;"/><text fill="#000000" font-family="sans-serif" font-size="14" lengthAdjust="spacing" textLength="138" x="27" y="254.5039">hasRoom(): boolean</text><ellipse cx="18" cy="267.2012" fill="#84BE84" rx="3" ry="3" style="stroke:#038048;stroke-width:1.0;"/><text fill="#000000" font-family="sans-serif" font-size="14" lengthAdjust="spacing" textLength="192" x="27" y="270.9922">hasTextureRoom(): boolean</text><ellipse cx="18" cy="283.6895" fill="#84BE84" rx="3" ry="3" style="stroke:#038048;stroke-width:1.0;"/><text fill="#000000" font-family="sans-serif" font-size="14" lengthAdjust="spacing" textLength="206" x="27" y="287.4805">hasTexture(Texture): boolean</text><ellipse cx="18" cy="300.1777" fill="#84BE84" rx="3" ry="3" style="stroke:#038048;stroke-width:1.0;"/><text fill="#000000" font-family="sans-serif" font-size="14" lengthAdjust="spacing" textLength="83" x="27" y="303.9688">zIndex(): int</text><ellipse cx="18" cy="316.666" fill="#84BE84" rx="3" ry="3" style="stroke:#038048;stroke-width:1.0;"/><text fill="#000000" font-family="sans-serif" font-size="14" lengthAdjust="spacing" textLength="200" x="27" y="320.457">compareTo(RenderBatch): int</text></g></a><!--class java.lang.Comparable--><g id="elem_java.lang.Comparable"><rect codeLine="17" fill="#F1F1F1" height="62.7539" id="java.lang.Comparable" rx="2.5" ry="2.5" style="stroke:#181818;stroke-width:0.5;" width="226" x="15" y="10"/><ellipse cx="44.85" cy="29.1328" fill="#B4A7E5" rx="11" ry="11" style="stroke:#181818;stroke-width:1.0;"/><path d="M41.2777,25.3979 L41.2777,23.2397 L48.6571,23.2397 L48.6571,25.3979 L46.1918,25.3979 L46.1918,33.4746 L48.6571,33.4746 L48.6571,35.6328 L41.2777,35.6328 L41.2777,33.4746 L43.7431,33.4746 L43.7431,25.3979 Z " fill="#000000"/><text fill="#000000" font-family="sans-serif" font-size="14" font-style="italic" lengthAdjust="spacing" textLength="84" x="62.15" y="28.5352">Comparable</text><text fill="#000000" font-family="sans-serif" font-size="10" font-style="italic" lengthAdjust="spacing" textLength="44" x="82.15" y="41.1563">java.lang</text><rect fill="#FFFFFF" height="16.1328" style="stroke:#181818;stroke-width:1.0;stroke-dasharray:2.0,2.0;" width="75" x="169" y="7"/><text fill="#000000" font-family="sans-serif" font-size="12" font-style="italic" lengthAdjust="spacing" textLength="73" x="170" y="19.6016">RenderBatch</text><line style="stroke:#181818;stroke-width:0.5;" x1="16" x2="240" y1="48.2656" y2="48.2656"/><ellipse cx="26" cy="62.0098" fill="#84BE84" rx="3" ry="3" style="stroke:#038048;stroke-width:1.0;"/><text fill="#000000" font-family="sans-serif" font-size="14" font-style="italic" lengthAdjust="spacing" textLength="200" x="35" y="65.8008">compareTo(RenderBatch): int</text></g><!--reverse link java.lang.Comparable to game.renderer.RenderBatch--><g id="link_java.lang.Comparable_game.renderer.RenderBatch"><path codeLine="21" d="M128,94.43 C128,106.33 128,119.34 128,132.45 " fill="none" id="java.lang.Comparable-backto-game.renderer.RenderBatch" style="stroke:#181818;stroke-width:1.0;stroke-dasharray:7.0,7.0;"/><polygon fill="none" points="121,94.72,128,74.72,135,94.72,121,94.72" style="stroke:#181818;stroke-width:1.0;"/></g><text fill="#888888" font-family="sans-serif" font-size="10" lengthAdjust="spacing" textLength="182" x="30" y="343.0781">UMLDoclet 2.1.0, PlantUML 1.2022.14</text><!--SRC=[ZLB1Qi904BttAmQX4AaiMdeIyT3sKcYXg3rP3vDaD5kIdR0x5Qlrtxk9eLch1NFOOTwRdRUJDm00ZWGC5kHAJ6XA9LeKjc3Oq9Md8TCf0HMbVC5IKvwwlsX1ah67Qpp9qJdeZ9pUqd1mDvwGISdUeoJPksdG_dZbzPIjAR8TG0T7Y0fkmNmUP2gJ8byiO5UBLTzDm4RQI0_yqMrf9sWbwWvXpJfjOKpJQMcrK7G8aqRwfF3mfjC66Re9Sr4HCNDEQ8wu6Mtaqz859L4JprLjdxpufchWXshXX0jl4yqu2eOFYlO7BtnATkbT3VnugAzYd5DWnmUkKULeLhKLlvbgYqU1q3Zu-pkCdLXCP7_ngywrXz6tKl_lGBDQLCq3I-OglBqyFtAI- -MzLGFLxy6hxoaUXUirMQVPHDqV]--></g></svg>