<?xml version="1.0" encoding="UTF-8" standalone="no"?><svg xmlns="http://www.w3.org/2000/svg" xmlns:xlink="http://www.w3.org/1999/xlink" contentStyleType="text/css" height="369px" preserveAspectRatio="none" style="width:297px;height:369px;background:#FFFFFF;" version="1.1" viewBox="0 0 297 369" width="297px" zoomAndPan="magnify"><defs/><g><!--class game.renderer.RenderBatch--><a href="RenderBatch.html" target="_top" title="RenderBatch.html" xlink:actuate="onRequest" xlink:href="RenderBatch.html" xlink:show="new" xlink:title="RenderBatch.html" xlink:type="simple"><g id="elem_game.renderer.RenderBatch"><rect codeLine="5" fill="#F1F1F1" height="211.1484" id="game.renderer.RenderBatch" rx="2.5" ry="2.5" style="stroke:#181818;stroke-width:0.5;" width="283" x="7" y="132.75"/><ellipse cx="101.25" cy="151.8828" fill="#ADD1B2" rx="11" ry="11" style="stroke:#181818;stroke-width:1.0;"/><path d="M103.7231,158.0259 Q103.1421,158.3247 102.5029,158.4741 Q101.8638,158.6235 101.1582,158.6235 Q98.6514,158.6235 97.3315,156.9717 Q96.0117,155.3198 96.0117,152.1987 Q96.0117,149.0693 97.3315,147.4175 Q98.6514,145.7656 101.1582,145.7656 Q101.8638,145.7656 102.5112,145.915 Q103.1587,146.0645 103.7231,146.3633 L103.7231,149.0859 Q103.0923,148.5049 102.4988,148.2351 Q101.9053,147.9653 101.2744,147.9653 Q99.9297,147.9653 99.2449,149.032 Q98.5601,150.0986 98.5601,152.1987 Q98.5601,154.2905 99.2449,155.3572 Q99.9297,156.4238 101.2744,156.4238 Q101.9053,156.4238 102.4988,156.1541 Q103.0923,155.8843 103.7231,155.3032 Z " fill="#000000"/><text fill="#000000" font-family="sans-serif" font-size="14" lengthAdjust="spacing" textLength="86" x="121.75" y="151.2852">RenderBatch</text><text fill="#000000" font-family="sans-serif" font-size="10" lengthAdjust="spacing" textLength="72" x="128.75" y="163.9062">game.renderer</text><line style="stroke:#181818;stroke-width:0.5;" x1="8" x2="289" y1="171.0156" y2="171.0156"/><ellipse cx="18" cy="184.7598" fill="#84BE84" rx="3" ry="3" style="stroke:#038048;stroke-width:1.0;"/><text fill="#000000" font-family="sans-serif" font-size="14" lengthAdjust="spacing" textLength="211" x="27" y="188.5508">RenderBatch(int, int, Renderer)</text><ellipse cx="18" cy="201.248" fill="#84BE84" rx="3" ry="3" style="stroke:#038048;stroke-width:1.0;"/><text fill="#000000" font-family="sans-serif" font-size="14" lengthAdjust="spacing" textLength="78" x="27" y="205.0391">start(): void</text><ellipse cx="18" cy="217.7363" fill="#84BE84" rx="3" ry="3" style="stroke:#038048;stroke-width:1.0;"/><text fill="#000000" font-family="sans-serif" font-size="14" lengthAdjust="spacing" textLength="216" x="27" y="221.5273">addSprite(SpriteRenderer): void</text><ellipse cx="18" cy="234.2246" fill="#84BE84" rx="3" ry="3" style="stroke:#038048;stroke-width:1.0;"/><text fill="#000000" font-family="sans-serif" font-size="14" lengthAdjust="spacing" textLength="93" x="27" y="238.0156">render(): void</text><ellipse cx="18" cy="250.7129" fill="#84BE84" rx="3" ry="3" style="stroke:#038048;stroke-width:1.0;"/><text fill="#000000" font-family="sans-serif" font-size="14" lengthAdjust="spacing" textLength="138" x="27" y="254.5039">hasRoom(): boolean</text><ellipse cx="18" cy="267.2012" fill="#84BE84" rx="3" ry="3" style="stroke:#038048;stroke-width:1.0;"/><text fill="#000000" font-family="sans-serif" font-size="14" lengthAdjust="spacing" textLength="192" x="27" y="270.9922">hasTextureRoom(): boolean</text><ellipse cx="18" cy="283.6895" fill="#84BE84" rx="3" ry="3" style="stroke:#038048;stroke-width:1.0;"/><text fill="#000000" font-family="sans-serif" font-size="14" lengthAdjust="spacing" textLength="206" x="27" y="287.4805">hasTexture(Texture): boolean</text><ellipse cx="18" cy="300.1777" fill="#84BE84" rx="3" ry="3" style="stroke:#038048;stroke-width:1.0;"/><text fill="#000000" font-family="sans-serif" font-size="14" lengthAdjust="spacing" textLength="83" x="27" y="303.9688">zIndex(): int</text><ellipse cx="18" cy="316.666" fill="#84BE84" rx="3" ry="3" style="stroke:#038048;stroke-width:1.0;"/><text fill="#000000" font-family="sans-serif" font-size="14" lengthAdjust="spacing" textLength="200" x="27" y="320.457">compareTo(RenderBatch): int</text><ellipse cx="18" cy="333.1543" fill="#84BE84" rx="3" ry="3" style="stroke:#038048;stroke-width:1.0;"/><text fill="#000000" font-family="sans-serif" font-size="14" lengthAdjust="spacing" textLength="257" x="27" y="336.9453">destroyIfExists(GameObject): boolean</text></g></a><!--class java.lang.Comparable--><g id="elem_java.lang.Comparable"><rect codeLine="18" fill="#F1F1F1" height="62.7539" id="java.lang.Comparable" rx="2.5" ry="2.5" style="stroke:#181818;stroke-width:0.5;" width="226" x="35.5" y="10"/><ellipse cx="65.35" cy="29.1328" fill="#B4A7E5" rx="11" ry="11" style="stroke:#181818;stroke-width:1.0;"/><path d="M61.7777,25.3979 L61.7777,23.2397 L69.1571,23.2397 L69.1571,25.3979 L66.6918,25.3979 L66.6918,33.4746 L69.1571,33.4746 L69.1571,35.6328 L61.7777,35.6328 L61.7777,33.4746 L64.2431,33.4746 L64.2431,25.3979 Z " fill="#000000"/><text fill="#000000" font-family="sans-serif" font-size="14" font-style="italic" lengthAdjust="spacing" textLength="84" x="82.65" y="28.5352">Comparable</text><text fill="#000000" font-family="sans-serif" font-size="10" font-style="italic" lengthAdjust="spacing" textLength="44" x="102.65" y="41.1563">java.lang</text><rect fill="#FFFFFF" height="16.1328" style="stroke:#181818;stroke-width:1.0;stroke-dasharray:2.0,2.0;" width="75" x="189.5" y="7"/><text fill="#000000" font-family="sans-serif" font-size="12" font-style="italic" lengthAdjust="spacing" textLength="73" x="190.5" y="19.6016">RenderBatch</text><line style="stroke:#181818;stroke-width:0.5;" x1="36.5" x2="260.5" y1="48.2656" y2="48.2656"/><ellipse cx="46.5" cy="62.0098" fill="#84BE84" rx="3" ry="3" style="stroke:#038048;stroke-width:1.0;"/><text fill="#000000" font-family="sans-serif" font-size="14" font-style="italic" lengthAdjust="spacing" textLength="200" x="55.5" y="65.8008">compareTo(RenderBatch): int</text></g><!--reverse link java.lang.Comparable to game.renderer.RenderBatch--><g id="link_java.lang.Comparable_game.renderer.RenderBatch"><path codeLine="22" d="M148.5,94.02 C148.5,105.92 148.5,119.01 148.5,132.29 " fill="none" id="java.lang.Comparable-backto-game.renderer.RenderBatch" style="stroke:#181818;stroke-width:1.0;stroke-dasharray:7.0,7.0;"/><polygon fill="none" points="141.5,94.35,148.5,74.35,155.5,94.35,141.5,94.35" style="stroke:#181818;stroke-width:1.0;"/></g><text fill="#888888" font-family="sans-serif" font-size="10" lengthAdjust="spacing" textLength="182" x="50.5" y="359.5664">UMLDoclet 2.1.0, PlantUML 1.2022.14</text><!--SRC=[ZL9BQy904BxtLmn28L9PjFGaug4FYj3IelRKUfWa4xEIx8RTgVYe_xsR6CngBUqUTjXllddjDm00bXWKvcGBZ6X21HfaRK1fHHVE3QcC2IWlU0s9f2osfsXEd6e7LtYKeRNG6bYveNxlPZWc5PEvHOxI3rMZtU7SrHEcSf5f0LeuGeGN1U_ltakad6Up6MohOkMvyho1LDo1wXhNgTeDqJ8Q3jfzM6ePDp36yQGmaYdOcqFaAN7VtSy4ATgnrddf2BNE2DMHRqeh_ZJq3qfGstEipSWLNvK9t7WD7EdS2KPJ7NZVS4gAoRBHwr7oi9AMRV3e_lebN5349vLsUmrTC9d4ROEdurrL2CECF1aNk4IHePfN4XvUeY4FlBQ6dcfR35rF6F7kxndghiwbXy6N4B_lJhsILCu3YTQbUNj-kjTHvfR-MlH4jmElBYSx52wNPApKAcX_0m00]--></g></svg>