<?xml version="1.0" encoding="UTF-8" standalone="no"?><svg xmlns="http://www.w3.org/2000/svg" xmlns:xlink="http://www.w3.org/1999/xlink" contentStyleType="text/css" height="130px" preserveAspectRatio="none" style="width:190px;height:130px;background:#FFFFFF;" version="1.1" viewBox="0 0 190 130" width="190px" zoomAndPan="magnify"><defs/><g><!--cluster game.physics--><g id="cluster_game.physics"><path d="M43,6 L140,6 A3.75,3.75 0 0 1 142.5,8.5 L149.5,28.4883 L152,28.4883 A2.5,2.5 0 0 1 154.5,30.9883 L154.5,102.5 A2.5,2.5 0 0 1 152,105 L43,105 A2.5,2.5 0 0 1 40.5,102.5 L40.5,8.5 A2.5,2.5 0 0 1 43,6 " fill="none" style="stroke:#000000;stroke-width:1.5;"/><line style="stroke:#000000;stroke-width:1.5;" x1="40.5" x2="149.5" y1="28.4883" y2="28.4883"/><text fill="#000000" font-family="sans-serif" font-size="14" font-weight="bold" lengthAdjust="spacing" textLength="96" x="44.5" y="21.5352">game.physics</text></g><!--class game.physics.Physics--><a href="Physics.html" target="_top" title="Physics.html" xlink:actuate="onRequest" xlink:href="Physics.html" xlink:show="new" xlink:title="Physics.html" xlink:type="simple"><g id="elem_game.physics.Physics"><rect codeLine="3" fill="#F1F1F1" height="48" id="game.physics.Physics" rx="2.5" ry="2.5" style="stroke:#181818;stroke-width:0.5;" width="81" x="57" y="41"/><ellipse cx="72" cy="57" fill="#ADD1B2" rx="11" ry="11" style="stroke:#181818;stroke-width:1.0;"/><path d="M74.4731,63.1431 Q73.8921,63.4419 73.2529,63.5913 Q72.6138,63.7407 71.9082,63.7407 Q69.4014,63.7407 68.0815,62.0889 Q66.7617,60.437 66.7617,57.3159 Q66.7617,54.1865 68.0815,52.5347 Q69.4014,50.8828 71.9082,50.8828 Q72.6138,50.8828 73.2612,51.0322 Q73.9087,51.1816 74.4731,51.4805 L74.4731,54.2031 Q73.8423,53.6221 73.2488,53.3523 Q72.6553,53.0825 72.0244,53.0825 Q70.6797,53.0825 69.9949,54.1492 Q69.3101,55.2158 69.3101,57.3159 Q69.3101,59.4077 69.9949,60.4744 Q70.6797,61.541 72.0244,61.541 Q72.6553,61.541 73.2488,61.2712 Q73.8423,61.0015 74.4731,60.4204 Z " fill="#000000"/><text fill="#000000" font-family="sans-serif" font-size="14" lengthAdjust="spacing" textLength="49" x="86" y="62.291">Physics</text><line style="stroke:#181818;stroke-width:0.5;" x1="58" x2="137" y1="73" y2="73"/><line style="stroke:#181818;stroke-width:0.5;" x1="58" x2="137" y1="81" y2="81"/></g></a><text fill="#888888" font-family="sans-serif" font-size="10" lengthAdjust="spacing" textLength="182" x="0" y="120.668">UMLDoclet 2.1.0, PlantUML 1.2022.14</text><!--SRC=[Kr1GKCXBp4qjBaXCJbL81xBq2Z8gYpEJYnMgkRWKe20v9x6uM240AX4T3MNfPPJaviJ6GjJLGgZarBoIr2A5jFny41Ngw-EIdvoJMg9Wf6UePw2Z492Jc5S255LGBKijAixCpzFG1000]--></g></svg>