<?xml version="1.0" encoding="UTF-8" standalone="no"?><svg xmlns="http://www.w3.org/2000/svg" xmlns:xlink="http://www.w3.org/1999/xlink" contentStyleType="text/css" height="147px" preserveAspectRatio="none" style="width:203px;height:147px;background:#FFFFFF;" version="1.1" viewBox="0 0 203 147" width="203px" zoomAndPan="magnify"><defs/><g><!--cluster game--><g id="cluster_game"><path d="M8.5,6 L48.5,6 A3.75,3.75 0 0 1 51,8.5 L58,28.4883 L193.5,28.4883 A2.5,2.5 0 0 1 196,30.9883 L196,118.99 A2.5,2.5 0 0 1 193.5,121.49 L8.5,121.49 A2.5,2.5 0 0 1 6,118.99 L6,8.5 A2.5,2.5 0 0 1 8.5,6 " fill="none" style="stroke:#000000;stroke-width:1.5;"/><line style="stroke:#000000;stroke-width:1.5;" x1="6" x2="58" y1="28.4883" y2="28.4883"/><text fill="#000000" font-family="sans-serif" font-size="14" font-weight="bold" lengthAdjust="spacing" textLength="39" x="10" y="21.5352">game</text></g><!--class game.App--><a href="App.html" target="_top" title="App.html" xlink:actuate="onRequest" xlink:href="App.html" xlink:show="new" xlink:title="App.html" xlink:type="simple"><g id="elem_game.App"><rect codeLine="3" fill="#F1F1F1" height="64.4883" id="game.App" rx="2.5" ry="2.5" style="stroke:#181818;stroke-width:0.5;" width="158" x="22" y="41"/><ellipse cx="82.75" cy="57" fill="#ADD1B2" rx="11" ry="11" style="stroke:#181818;stroke-width:1.0;"/><path d="M85.2231,63.1431 Q84.6421,63.4419 84.0029,63.5913 Q83.3638,63.7407 82.6582,63.7407 Q80.1514,63.7407 78.8315,62.0889 Q77.5117,60.437 77.5117,57.3159 Q77.5117,54.1865 78.8315,52.5347 Q80.1514,50.8828 82.6582,50.8828 Q83.3638,50.8828 84.0112,51.0322 Q84.6587,51.1816 85.2231,51.4805 L85.2231,54.2031 Q84.5923,53.6221 83.9988,53.3523 Q83.4053,53.0825 82.7744,53.0825 Q81.4297,53.0825 80.7449,54.1492 Q80.0601,55.2158 80.0601,57.3159 Q80.0601,59.4077 80.7449,60.4744 Q81.4297,61.541 82.7744,61.541 Q83.4053,61.541 83.9988,61.2712 Q84.5923,61.0015 85.2231,60.4204 Z " fill="#000000"/><text fill="#000000" font-family="sans-serif" font-size="14" lengthAdjust="spacing" textLength="28" x="103.25" y="62.291">App</text><line style="stroke:#181818;stroke-width:0.5;" x1="23" x2="179" y1="73" y2="73"/><line style="stroke:#181818;stroke-width:0.5;" x1="23" x2="179" y1="81" y2="81"/><ellipse cx="33" cy="94.7441" fill="#84BE84" rx="3" ry="3" style="stroke:#038048;stroke-width:1.0;"/><text fill="#000000" font-family="sans-serif" font-size="14" lengthAdjust="spacing" text-decoration="underline" textLength="132" x="42" y="98.5352">main(String[]): void</text></g></a><text fill="#888888" font-family="sans-serif" font-size="10" lengthAdjust="spacing" textLength="182" x="3.5" y="137.158">UMLDoclet 2.1.0, PlantUML 1.2022.14</text><!--SRC=[JOmn2y8m58Jt_efRX1ObgAERuAWWY5F8y8ZF6aYJa3owbFvt8nRnXhlZ-3W023HmIMGPVMsOcWQBhATIS4m9MbTNBncyCPN0dwOY9CxEM0_aGdkJx4AlJNV06DtZXyxVsoKi1-6CPuoVk5_EfsWz2_PgfxORN3q5gIjM8-VYOcYxDm00]--></g></svg>