<?xml version="1.0" encoding="UTF-8" standalone="no"?><svg xmlns="http://www.w3.org/2000/svg" xmlns:xlink="http://www.w3.org/1999/xlink" contentStyleType="text/css" height="383px" preserveAspectRatio="none" style="width:227px;height:383px;background:#FFFFFF;" version="1.1" viewBox="0 0 227 383" width="227px" zoomAndPan="magnify"><defs/><g><!--class game.scene.LevelEditorSceneInitializer--><a href="LevelEditorSceneInitializer.html" target="_top" title="LevelEditorSceneInitializer.html" xlink:actuate="onRequest" xlink:href="LevelEditorSceneInitializer.html" xlink:show="new" xlink:title="LevelEditorSceneInitializer.html" xlink:type="simple"><g id="elem_game.scene.LevelEditorSceneInitializer"><rect codeLine="5" fill="#F1F1F1" height="194.6602" id="game.scene.LevelEditorSceneInitializer" rx="2.5" ry="2.5" style="stroke:#181818;stroke-width:0.5;" width="213" x="7" y="162.73"/><ellipse cx="22.9" cy="181.8628" fill="#ADD1B2" rx="11" ry="11" style="stroke:#181818;stroke-width:1.0;"/><path d="M25.3731,188.0059 Q24.7921,188.3047 24.1529,188.4541 Q23.5138,188.6035 22.8082,188.6035 Q20.3014,188.6035 18.9815,186.9517 Q17.6617,185.2998 17.6617,182.1787 Q17.6617,179.0493 18.9815,177.3975 Q20.3014,175.7456 22.8082,175.7456 Q23.5138,175.7456 24.1612,175.895 Q24.8087,176.0445 25.3731,176.3433 L25.3731,179.0659 Q24.7423,178.4849 24.1488,178.2151 Q23.5553,177.9453 22.9244,177.9453 Q21.5797,177.9453 20.8949,179.012 Q20.2101,180.0786 20.2101,182.1787 Q20.2101,184.2705 20.8949,185.3372 Q21.5797,186.4038 22.9244,186.4038 Q23.5553,186.4038 24.1488,186.1341 Q24.7423,185.8643 25.3731,185.2832 Z " fill="#000000"/><text fill="#000000" font-family="sans-serif" font-size="14" lengthAdjust="spacing" textLength="179" x="37.1" y="181.2652">LevelEditorSceneInitializer</text><text fill="#000000" font-family="sans-serif" font-size="10" lengthAdjust="spacing" textLength="58" x="97.6" y="193.8863">game.scene</text><line style="stroke:#181818;stroke-width:0.5;" x1="8" x2="219" y1="200.9956" y2="200.9956"/><ellipse cx="18" cy="214.7398" fill="#84BE84" rx="3" ry="3" style="stroke:#038048;stroke-width:1.0;"/><text fill="#000000" font-family="sans-serif" font-size="14" lengthAdjust="spacing" textLength="109" x="27" y="218.5308">init(Scene): void</text><ellipse cx="18" cy="231.228" fill="#84BE84" rx="3" ry="3" style="stroke:#038048;stroke-width:1.0;"/><text fill="#000000" font-family="sans-serif" font-size="14" lengthAdjust="spacing" textLength="187" x="27" y="235.0191">loadResources(Scene): void</text><ellipse cx="18" cy="247.7163" fill="#84BE84" rx="3" ry="3" style="stroke:#038048;stroke-width:1.0;"/><text fill="#000000" font-family="sans-serif" font-size="14" lengthAdjust="spacing" textLength="86" x="27" y="251.5073">imgui(): void</text><ellipse cx="18" cy="264.2046" fill="#84BE84" rx="3" ry="3" style="stroke:#038048;stroke-width:1.0;"/><text fill="#000000" font-family="sans-serif" font-size="14" lengthAdjust="spacing" textLength="144" x="27" y="267.9956">ImGuiWordSet(): void</text><ellipse cx="18" cy="280.6929" fill="#84BE84" rx="3" ry="3" style="stroke:#038048;stroke-width:1.0;"/><text fill="#000000" font-family="sans-serif" font-size="14" lengthAdjust="spacing" textLength="122" x="27" y="284.4839">imguiBlock(): void</text><ellipse cx="18" cy="297.1812" fill="#84BE84" rx="3" ry="3" style="stroke:#038048;stroke-width:1.0;"/><text fill="#000000" font-family="sans-serif" font-size="14" lengthAdjust="spacing" textLength="137" x="27" y="300.9722">imguiPrefabs(): void</text><ellipse cx="18" cy="313.6695" fill="#84BE84" rx="3" ry="3" style="stroke:#038048;stroke-width:1.0;"/><text fill="#000000" font-family="sans-serif" font-size="14" lengthAdjust="spacing" textLength="123" x="27" y="317.4605">imguiItems(): void</text><ellipse cx="18" cy="330.1577" fill="#84BE84" rx="3" ry="3" style="stroke:#038048;stroke-width:1.0;"/><text fill="#000000" font-family="sans-serif" font-size="14" lengthAdjust="spacing" textLength="152" x="27" y="333.9488">imguiMessages(): void</text><ellipse cx="18" cy="346.646" fill="#84BE84" rx="3" ry="3" style="stroke:#038048;stroke-width:1.0;"/><text fill="#000000" font-family="sans-serif" font-size="14" lengthAdjust="spacing" textLength="125" x="27" y="350.437">imguiBriefe(): void</text></g></a><!--class game.scene.SceneInitializer--><a href="SceneInitializer.html" target="_top" title="SceneInitializer.html" xlink:actuate="onRequest" xlink:href="SceneInitializer.html" xlink:show="new" xlink:title="SceneInitializer.html" xlink:type="simple"><g id="elem_game.scene.SceneInitializer"><rect codeLine="17" fill="#F1F1F1" height="95.7305" id="game.scene.SceneInitializer" rx="2.5" ry="2.5" style="stroke:#181818;stroke-width:0.5;" width="213" x="7" y="7"/><ellipse cx="57.25" cy="26.1328" fill="#A9DCDF" rx="11" ry="11" style="stroke:#181818;stroke-width:1.0;"/><path d="M57.1133,21.481 L55.9595,26.5527 L58.2754,26.5527 Z M55.6191,19.2397 L58.6157,19.2397 L61.9609,31.6328 L59.5122,31.6328 L58.7485,28.5698 L55.4697,28.5698 L54.7227,31.6328 L52.2739,31.6328 Z " fill="#000000"/><text fill="#000000" font-family="sans-serif" font-size="14" font-style="italic" lengthAdjust="spacing" textLength="104" x="77.75" y="25.5352">SceneInitializer</text><text fill="#000000" font-family="sans-serif" font-size="10" font-style="italic" lengthAdjust="spacing" textLength="58" x="100.75" y="38.1563">game.scene</text><line style="stroke:#181818;stroke-width:0.5;" x1="8" x2="219" y1="45.2656" y2="45.2656"/><ellipse cx="18" cy="59.0098" fill="#84BE84" rx="3" ry="3" style="stroke:#038048;stroke-width:1.0;"/><text fill="#000000" font-family="sans-serif" font-size="14" font-style="italic" lengthAdjust="spacing" textLength="109" x="27" y="62.8008">init(Scene): void</text><ellipse cx="18" cy="75.498" fill="#84BE84" rx="3" ry="3" style="stroke:#038048;stroke-width:1.0;"/><text fill="#000000" font-family="sans-serif" font-size="14" font-style="italic" lengthAdjust="spacing" textLength="187" x="27" y="79.2891">loadResources(Scene): void</text><ellipse cx="18" cy="91.9863" fill="#84BE84" rx="3" ry="3" style="stroke:#038048;stroke-width:1.0;"/><text fill="#000000" font-family="sans-serif" font-size="14" font-style="italic" lengthAdjust="spacing" textLength="86" x="27" y="95.7773">imgui(): void</text></g></a><!--reverse link game.scene.SceneInitializer to game.scene.LevelEditorSceneInitializer--><g id="link_game.scene.SceneInitializer_game.scene.LevelEditorSceneInitializer"><path codeLine="23" d="M113.5,124.2 C113.5,136.52 113.5,149.57 113.5,162.52 " fill="none" id="game.scene.SceneInitializer-backto-game.scene.LevelEditorSceneInitializer" style="stroke:#181818;stroke-width:1.0;"/><polygon fill="none" points="106.5,124.51,113.5,104.51,120.5,124.51,106.5,124.51" style="stroke:#181818;stroke-width:1.0;"/></g><text fill="#888888" font-family="sans-serif" font-size="10" lengthAdjust="spacing" textLength="182" x="15.5" y="373.0581">UMLDoclet 2.1.0, PlantUML 1.2022.14</text><!--SRC=[dPDTIm9158Rl-nK78LWf5uskHBoG8WG5QOakp8jfzkpkeVcGEQDGvdzlt1GptKsQcs7UvtmDxmm00AC78pJoN4XCS2wSyDQ1iGOl0eQ2KWJKS_yE6Q5A-RUgqHSsoAKkbM26He_f0xkTs_u8bwZkKmeb4ua6XuOy2HMeUp7Rg7O_3_rZtl0628RzCQx9X-cqXiQ5rsesWrKvrcPTKQ1H6TVimj9IkaVAYlGHsIwSHAw88PqlA3gIX_fXGS_MfGdww7JIG5dvLi4c3ZFnoXLqw55NiJ4oYnohyC0HPdW0rzyUXNRU2UcFpFgNGoTi-TkBrMw6TPqjFwFESEYWw95PsylNJTxxRBNEV7pRrux6XxpCsitsD1xTMQd2Vxg9Et7x6YPA61zKk5oYOx8cQdu1]--></g></svg>