<?xml version="1.0" encoding="UTF-8" standalone="no"?><svg xmlns="http://www.w3.org/2000/svg" xmlns:xlink="http://www.w3.org/1999/xlink" contentStyleType="text/css" height="585px" preserveAspectRatio="none" style="width:517px;height:585px;background:#FFFFFF;" version="1.1" viewBox="0 0 517 585" width="517px" zoomAndPan="magnify"><defs/><g><!--cluster game.scene--><g id="cluster_game.scene"><path d="M8.5,6 L91.5,6 A3.75,3.75 0 0 1 94,8.5 L101,28.4883 L507.5,28.4883 A2.5,2.5 0 0 1 510,30.9883 L510,556.75 A2.5,2.5 0 0 1 507.5,559.25 L8.5,559.25 A2.5,2.5 0 0 1 6,556.75 L6,8.5 A2.5,2.5 0 0 1 8.5,6 " fill="none" style="stroke:#000000;stroke-width:1.5;"/><line style="stroke:#000000;stroke-width:1.5;" x1="6" x2="101" y1="28.4883" y2="28.4883"/><text fill="#000000" font-family="sans-serif" font-size="14" font-weight="bold" lengthAdjust="spacing" textLength="82" x="10" y="21.5352">game.scene</text></g><!--class game.scene.LevelEditorScene--><a href="LevelEditorScene.html" target="_top" title="LevelEditorScene.html" xlink:actuate="onRequest" xlink:href="LevelEditorScene.html" xlink:show="new" xlink:title="LevelEditorScene.html" xlink:type="simple"><g id="elem_game.scene.LevelEditorScene"><rect codeLine="3" fill="#F1F1F1" height="130.4414" id="game.scene.LevelEditorScene" rx="2.5" ry="2.5" style="stroke:#181818;stroke-width:0.5;" width="170" x="79" y="412.81"/><ellipse cx="104.35" cy="428.81" fill="#ADD1B2" rx="11" ry="11" style="stroke:#181818;stroke-width:1.0;"/><path d="M106.8231,434.9531 Q106.2421,435.2519 105.6029,435.4013 Q104.9638,435.5507 104.2582,435.5507 Q101.7514,435.5507 100.4315,433.8989 Q99.1117,432.247 99.1117,429.1259 Q99.1117,425.9965 100.4315,424.3447 Q101.7514,422.6928 104.2582,422.6928 Q104.9638,422.6928 105.6112,422.8422 Q106.2587,422.9916 106.8231,423.2905 L106.8231,426.0131 Q106.1923,425.4321 105.5988,425.1623 Q105.0053,424.8925 104.3744,424.8925 Q103.0297,424.8925 102.3449,425.9592 Q101.6601,427.0258 101.6601,429.1259 Q101.6601,431.2177 102.3449,432.2844 Q103.0297,433.351 104.3744,433.351 Q105.0053,433.351 105.5988,433.0812 Q106.1923,432.8115 106.8231,432.2304 Z " fill="#000000"/><text fill="#000000" font-family="sans-serif" font-size="14" lengthAdjust="spacing" textLength="115" x="120.65" y="434.101">LevelEditorScene</text><line style="stroke:#181818;stroke-width:0.5;" x1="80" x2="248" y1="444.81" y2="444.81"/><line style="stroke:#181818;stroke-width:0.5;" x1="80" x2="248" y1="452.81" y2="452.81"/><ellipse cx="90" cy="466.5541" fill="#84BE84" rx="3" ry="3" style="stroke:#038048;stroke-width:1.0;"/><text fill="#000000" font-family="sans-serif" font-size="14" lengthAdjust="spacing" textLength="69" x="99" y="470.3452">init(): void</text><ellipse cx="90" cy="483.0424" fill="#84BE84" rx="3" ry="3" style="stroke:#038048;stroke-width:1.0;"/><text fill="#000000" font-family="sans-serif" font-size="14" lengthAdjust="spacing" textLength="126" x="99" y="486.8334">update(float): void</text><ellipse cx="90" cy="499.5307" fill="#84BE84" rx="3" ry="3" style="stroke:#038048;stroke-width:1.0;"/><text fill="#000000" font-family="sans-serif" font-size="14" lengthAdjust="spacing" textLength="93" x="99" y="503.3217">render(): void</text><ellipse cx="90" cy="516.019" fill="#84BE84" rx="3" ry="3" style="stroke:#038048;stroke-width:1.0;"/><text fill="#000000" font-family="sans-serif" font-size="14" lengthAdjust="spacing" textLength="86" x="99" y="519.81">imgui(): void</text><ellipse cx="90" cy="532.5073" fill="#84BE84" rx="3" ry="3" style="stroke:#038048;stroke-width:1.0;"/><text fill="#000000" font-family="sans-serif" font-size="14" lengthAdjust="spacing" textLength="144" x="99" y="536.2983">ImGuiWordSet(): void</text></g></a><!--class game.scene.LevelScene--><a href="LevelScene.html" target="_top" title="LevelScene.html" xlink:actuate="onRequest" xlink:href="LevelScene.html" xlink:show="new" xlink:title="LevelScene.html" xlink:type="simple"><g id="elem_game.scene.LevelScene"><rect codeLine="11" fill="#F1F1F1" height="97.4648" id="game.scene.LevelScene" rx="2.5" ry="2.5" style="stroke:#181818;stroke-width:0.5;" width="152" x="284" y="429.3"/><ellipse cx="319.7" cy="445.3" fill="#ADD1B2" rx="11" ry="11" style="stroke:#181818;stroke-width:1.0;"/><path d="M322.1731,451.4431 Q321.5921,451.7419 320.9529,451.8913 Q320.3138,452.0407 319.6082,452.0407 Q317.1014,452.0407 315.7815,450.3889 Q314.4617,448.737 314.4617,445.6159 Q314.4617,442.4865 315.7815,440.8347 Q317.1014,439.1828 319.6082,439.1828 Q320.3138,439.1828 320.9612,439.3322 Q321.6087,439.4816 322.1731,439.7805 L322.1731,442.5031 Q321.5423,441.9221 320.9488,441.6523 Q320.3553,441.3825 319.7244,441.3825 Q318.3797,441.3825 317.6949,442.4492 Q317.0101,443.5158 317.0101,445.6159 Q317.0101,447.7077 317.6949,448.7744 Q318.3797,449.841 319.7244,449.841 Q320.3553,449.841 320.9488,449.5712 Q321.5423,449.3015 322.1731,448.7204 Z " fill="#000000"/><text fill="#000000" font-family="sans-serif" font-size="14" lengthAdjust="spacing" textLength="74" x="338.3" y="450.591">LevelScene</text><line style="stroke:#181818;stroke-width:0.5;" x1="285" x2="435" y1="461.3" y2="461.3"/><line style="stroke:#181818;stroke-width:0.5;" x1="285" x2="435" y1="469.3" y2="469.3"/><ellipse cx="295" cy="483.0441" fill="#84BE84" rx="3" ry="3" style="stroke:#038048;stroke-width:1.0;"/><text fill="#000000" font-family="sans-serif" font-size="14" lengthAdjust="spacing" textLength="126" x="304" y="486.8352">update(float): void</text><ellipse cx="295" cy="499.5324" fill="#84BE84" rx="3" ry="3" style="stroke:#038048;stroke-width:1.0;"/><text fill="#000000" font-family="sans-serif" font-size="14" lengthAdjust="spacing" textLength="93" x="304" y="503.3234">render(): void</text><ellipse cx="295" cy="516.0207" fill="#84BE84" rx="3" ry="3" style="stroke:#038048;stroke-width:1.0;"/><text fill="#000000" font-family="sans-serif" font-size="14" lengthAdjust="spacing" textLength="69" x="304" y="519.8117">init(): void</text></g></a><!--class game.scene.Scene--><a href="Scene.html" target="_top" title="Scene.html" xlink:actuate="onRequest" xlink:href="Scene.html" xlink:show="new" xlink:title="Scene.html" xlink:type="simple"><g id="elem_game.scene.Scene"><rect codeLine="17" fill="#F1F1F1" height="311.8125" id="game.scene.Scene" rx="2.5" ry="2.5" style="stroke:#181818;stroke-width:0.5;" width="473" x="21.5" y="41"/><ellipse cx="233.75" cy="57" fill="#A9DCDF" rx="11" ry="11" style="stroke:#181818;stroke-width:1.0;"/><path d="M233.6133,52.3481 L232.4595,57.4199 L234.7754,57.4199 Z M232.1191,50.1069 L235.1157,50.1069 L238.4609,62.5 L236.0122,62.5 L235.2485,59.437 L231.9697,59.437 L231.2227,62.5 L228.7739,62.5 Z " fill="#000000"/><text fill="#000000" font-family="sans-serif" font-size="14" font-style="italic" lengthAdjust="spacing" textLength="40" x="254.25" y="62.291">Scene</text><line style="stroke:#181818;stroke-width:0.5;" x1="22.5" x2="493.5" y1="73" y2="73"/><polygon fill="none" points="32.5,81.7441,36.5,85.7441,32.5,89.7441,28.5,85.7441" style="stroke:#B38D22;stroke-width:1.0;"/><text fill="#000000" font-family="sans-serif" font-size="14" lengthAdjust="spacing" textLength="131" x="41.5" y="90.5352">renderer: Renderer</text><polygon fill="none" points="32.5,98.2324,36.5,102.2324,32.5,106.2324,28.5,102.2324" style="stroke:#B38D22;stroke-width:1.0;"/><text fill="#000000" font-family="sans-serif" font-size="14" lengthAdjust="spacing" textLength="111" x="41.5" y="107.0234">camera: Camera</text><polygon fill="none" points="32.5,114.7207,36.5,118.7207,32.5,122.7207,28.5,118.7207" style="stroke:#B38D22;stroke-width:1.0;"/><text fill="#000000" font-family="sans-serif" font-size="14" lengthAdjust="spacing" textLength="145" x="41.5" y="123.5117">loadedLevel: boolean</text><polygon fill="none" points="32.5,131.209,36.5,135.209,32.5,139.209,28.5,135.209" style="stroke:#B38D22;stroke-width:1.0;"/><text fill="#000000" font-family="sans-serif" font-size="14" lengthAdjust="spacing" textLength="225" x="41.5" y="140">gameObjects: List&lt;GameObject&gt;</text><line style="stroke:#181818;stroke-width:0.5;" x1="22.5" x2="493.5" y1="146.9531" y2="146.9531"/><ellipse cx="32.5" cy="160.6973" fill="#84BE84" rx="3" ry="3" style="stroke:#038048;stroke-width:1.0;"/><text fill="#000000" font-family="sans-serif" font-size="14" lengthAdjust="spacing" textLength="69" x="41.5" y="164.4883">init(): void</text><ellipse cx="32.5" cy="177.1855" fill="#84BE84" rx="3" ry="3" style="stroke:#038048;stroke-width:1.0;"/><text fill="#000000" font-family="sans-serif" font-size="14" lengthAdjust="spacing" textLength="78" x="41.5" y="180.9766">start(): void</text><ellipse cx="32.5" cy="193.6738" fill="#84BE84" rx="3" ry="3" style="stroke:#038048;stroke-width:1.0;"/><text fill="#000000" font-family="sans-serif" font-size="14" lengthAdjust="spacing" textLength="239" x="41.5" y="197.4648">addGameObject(GameObject): void</text><ellipse cx="32.5" cy="210.1621" fill="#84BE84" rx="3" ry="3" style="stroke:#038048;stroke-width:1.0;"/><text fill="#000000" font-family="sans-serif" font-size="14" font-style="italic" lengthAdjust="spacing" textLength="126" x="41.5" y="213.9531">update(float): void</text><ellipse cx="32.5" cy="226.6504" fill="#84BE84" rx="3" ry="3" style="stroke:#038048;stroke-width:1.0;"/><text fill="#000000" font-family="sans-serif" font-size="14" font-style="italic" lengthAdjust="spacing" textLength="93" x="41.5" y="230.4414">render(): void</text><ellipse cx="32.5" cy="243.1387" fill="#84BE84" rx="3" ry="3" style="stroke:#038048;stroke-width:1.0;"/><text fill="#000000" font-family="sans-serif" font-size="14" lengthAdjust="spacing" textLength="121" x="41.5" y="246.9297">camera(): Camera</text><ellipse cx="32.5" cy="259.627" fill="#84BE84" rx="3" ry="3" style="stroke:#038048;stroke-width:1.0;"/><text fill="#000000" font-family="sans-serif" font-size="14" lengthAdjust="spacing" textLength="447" x="41.5" y="263.418">getGameObjectWith(Class&lt;T extends Component&gt;): GameObject</text><ellipse cx="32.5" cy="276.1152" fill="#84BE84" rx="3" ry="3" style="stroke:#038048;stroke-width:1.0;"/><text fill="#000000" font-family="sans-serif" font-size="14" lengthAdjust="spacing" textLength="258" x="41.5" y="279.9063">getGameObjects(): List&lt;GameObject&gt;</text><ellipse cx="32.5" cy="292.6035" fill="#84BE84" rx="3" ry="3" style="stroke:#038048;stroke-width:1.0;"/><text fill="#000000" font-family="sans-serif" font-size="14" lengthAdjust="spacing" textLength="224" x="41.5" y="296.3945">getGameObject(int): GameObject</text><ellipse cx="32.5" cy="309.0918" fill="#84BE84" rx="3" ry="3" style="stroke:#038048;stroke-width:1.0;"/><text fill="#000000" font-family="sans-serif" font-size="14" lengthAdjust="spacing" textLength="86" x="41.5" y="312.8828">imgui(): void</text><ellipse cx="32.5" cy="325.5801" fill="#84BE84" rx="3" ry="3" style="stroke:#038048;stroke-width:1.0;"/><text fill="#000000" font-family="sans-serif" font-size="14" lengthAdjust="spacing" textLength="103" x="41.5" y="329.3711">saveExit(): void</text><ellipse cx="32.5" cy="342.0684" fill="#84BE84" rx="3" ry="3" style="stroke:#038048;stroke-width:1.0;"/><text fill="#000000" font-family="sans-serif" font-size="14" lengthAdjust="spacing" textLength="77" x="41.5" y="345.8594">load(): void</text></g></a><!--reverse link game.scene.Scene to game.scene.LevelEditorScene--><g id="link_game.scene.Scene_game.scene.LevelEditorScene"><path codeLine="36" d="M199.07,372.9 C194.38,386.81 189.87,400.21 185.73,412.5 " fill="none" id="game.scene.Scene-backto-game.scene.LevelEditorScene" style="stroke:#181818;stroke-width:1.0;"/><polygon fill="none" points="192.28,371.13,205.29,354.41,205.54,375.6,192.28,371.13" style="stroke:#181818;stroke-width:1.0;"/></g><!--reverse link game.scene.Scene to game.scene.LevelScene--><g id="link_game.scene.Scene_game.scene.LevelScene"><path codeLine="37" d="M322.04,373.14 C329.46,393.45 336.48,412.68 342.43,428.94 " fill="none" id="game.scene.Scene-backto-game.scene.LevelScene" style="stroke:#181818;stroke-width:1.0;"/><polygon fill="none" points="315.48,375.58,315.19,354.4,328.63,370.78,315.48,375.58" style="stroke:#181818;stroke-width:1.0;"/></g><text fill="#888888" font-family="sans-serif" font-size="10" lengthAdjust="spacing" textLength="182" x="160.5" y="574.918">UMLDoclet 2.1.0, PlantUML 1.2022.14</text><!--SRC=[fLDDQm8n4BtxAmPAOSMwj3qkuiMA52mjjSM3U8Z9g2cxYIJZ8bZ_UxEwTjqQqq9pIJBlPRxU1010iGpjYd64XJl5bgD2s3OQK2wUCcjXY3ccVI59cz6UCPdyDCLBojBfrBs5azMIIbBKJ23NKjIHzKemmcYUQaPUWa4bqFWVosonbdxeCHkivLWRCSBpo3jlPRMQGjNyBsTVAquIOZDBXd4gCpic5SZdwX0EJGAlvQcESwUfOGdqzdiTSpK85FkI4vXfdI9JTKOn4S-p3-Ha4nXAIvt1jwNxLvajCNC1Oa9K3gFgw2DlZztP_Qx2AJSaoA4x1URfJsk1LAKqbhICUeKkdJV03Jcl5dewMsc5YhhEHSKDkB55i70dQ_n8AWhu3lm2otBiRow9KcWV6iN3x7K-s-spht-HKw6b8tSdD33NkjZUduOFcgT8S1_VnRSty98oHSuArpaQAxMAcby0]--></g></svg>