<?xml version="1.0" encoding="UTF-8" standalone="no"?><svg xmlns="http://www.w3.org/2000/svg" xmlns:xlink="http://www.w3.org/1999/xlink" contentStyleType="text/css" height="700px" preserveAspectRatio="none" style="width:765px;height:700px;background:#FFFFFF;" version="1.1" viewBox="0 0 765 700" width="765px" zoomAndPan="magnify"><defs/><g><!--cluster game.scene--><g id="cluster_game.scene"><path d="M8.5,6 L91.5,6 A3.75,3.75 0 0 1 94,8.5 L101,28.4883 L755.5,28.4883 A2.5,2.5 0 0 1 758,30.9883 L758,672.17 A2.5,2.5 0 0 1 755.5,674.67 L8.5,674.67 A2.5,2.5 0 0 1 6,672.17 L6,8.5 A2.5,2.5 0 0 1 8.5,6 " fill="none" style="stroke:#000000;stroke-width:1.5;"/><line style="stroke:#000000;stroke-width:1.5;" x1="6" x2="101" y1="28.4883" y2="28.4883"/><text fill="#000000" font-family="sans-serif" font-size="14" font-weight="bold" lengthAdjust="spacing" textLength="82" x="10" y="21.5352">game.scene</text></g><!--class game.scene.LevelSceneInitializer--><a href="LevelSceneInitializer.html" target="_top" title="LevelSceneInitializer.html" xlink:actuate="onRequest" xlink:href="LevelSceneInitializer.html" xlink:show="new" xlink:title="LevelSceneInitializer.html" xlink:type="simple"><g id="elem_game.scene.LevelSceneInitializer"><rect codeLine="3" fill="#F1F1F1" height="97.4648" id="game.scene.LevelSceneInitializer" rx="2.5" ry="2.5" style="stroke:#181818;stroke-width:0.5;" width="213" x="21.5" y="511.74"/><ellipse cx="55.85" cy="527.74" fill="#ADD1B2" rx="11" ry="11" style="stroke:#181818;stroke-width:1.0;"/><path d="M58.3231,533.8831 Q57.7421,534.1819 57.1029,534.3313 Q56.4638,534.4807 55.7582,534.4807 Q53.2514,534.4807 51.9315,532.8289 Q50.6117,531.177 50.6117,528.0559 Q50.6117,524.9265 51.9315,523.2747 Q53.2514,521.6228 55.7582,521.6228 Q56.4638,521.6228 57.1112,521.7722 Q57.7587,521.9216 58.3231,522.2205 L58.3231,524.9431 Q57.6923,524.3621 57.0988,524.0923 Q56.5053,523.8225 55.8744,523.8225 Q54.5297,523.8225 53.8449,524.8892 Q53.1601,525.9558 53.1601,528.0559 Q53.1601,530.1477 53.8449,531.2144 Q54.5297,532.281 55.8744,532.281 Q56.5053,532.281 57.0988,532.0112 Q57.6923,531.7415 58.3231,531.1604 Z " fill="#000000"/><text fill="#000000" font-family="sans-serif" font-size="14" lengthAdjust="spacing" textLength="138" x="74.15" y="533.031">LevelSceneInitializer</text><line style="stroke:#181818;stroke-width:0.5;" x1="22.5" x2="233.5" y1="543.74" y2="543.74"/><line style="stroke:#181818;stroke-width:0.5;" x1="22.5" x2="233.5" y1="551.74" y2="551.74"/><ellipse cx="32.5" cy="565.4841" fill="#84BE84" rx="3" ry="3" style="stroke:#038048;stroke-width:1.0;"/><text fill="#000000" font-family="sans-serif" font-size="14" lengthAdjust="spacing" textLength="109" x="41.5" y="569.2752">init(Scene): void</text><ellipse cx="32.5" cy="581.9724" fill="#84BE84" rx="3" ry="3" style="stroke:#038048;stroke-width:1.0;"/><text fill="#000000" font-family="sans-serif" font-size="14" lengthAdjust="spacing" textLength="187" x="41.5" y="585.7634">loadResources(Scene): void</text><ellipse cx="32.5" cy="598.4607" fill="#84BE84" rx="3" ry="3" style="stroke:#038048;stroke-width:1.0;"/><text fill="#000000" font-family="sans-serif" font-size="14" lengthAdjust="spacing" textLength="86" x="41.5" y="602.2517">imgui(): void</text></g></a><!--class game.scene.LevelEditorSceneInitializer--><a href="LevelEditorSceneInitializer.html" target="_top" title="LevelEditorSceneInitializer.html" xlink:actuate="onRequest" xlink:href="LevelEditorSceneInitializer.html" xlink:show="new" xlink:title="LevelEditorSceneInitializer.html" xlink:type="simple"><g id="elem_game.scene.LevelEditorSceneInitializer"><rect codeLine="9" fill="#F1F1F1" height="196.3945" id="game.scene.LevelEditorSceneInitializer" rx="2.5" ry="2.5" style="stroke:#181818;stroke-width:0.5;" width="213" x="269.5" y="462.28"/><ellipse cx="285.4" cy="478.28" fill="#ADD1B2" rx="11" ry="11" style="stroke:#181818;stroke-width:1.0;"/><path d="M287.8731,484.4231 Q287.2921,484.7219 286.6529,484.8713 Q286.0138,485.0207 285.3082,485.0207 Q282.8014,485.0207 281.4815,483.3689 Q280.1617,481.717 280.1617,478.5959 Q280.1617,475.4665 281.4815,473.8147 Q282.8014,472.1628 285.3082,472.1628 Q286.0138,472.1628 286.6612,472.3122 Q287.3087,472.4616 287.8731,472.7605 L287.8731,475.4831 Q287.2423,474.9021 286.6488,474.6323 Q286.0553,474.3625 285.4244,474.3625 Q284.0797,474.3625 283.3949,475.4292 Q282.7101,476.4958 282.7101,478.5959 Q282.7101,480.6877 283.3949,481.7544 Q284.0797,482.821 285.4244,482.821 Q286.0553,482.821 286.6488,482.5512 Q287.2423,482.2815 287.8731,481.7004 Z " fill="#000000"/><text fill="#000000" font-family="sans-serif" font-size="14" lengthAdjust="spacing" textLength="179" x="299.6" y="483.571">LevelEditorSceneInitializer</text><line style="stroke:#181818;stroke-width:0.5;" x1="270.5" x2="481.5" y1="494.28" y2="494.28"/><line style="stroke:#181818;stroke-width:0.5;" x1="270.5" x2="481.5" y1="502.28" y2="502.28"/><ellipse cx="280.5" cy="516.0241" fill="#84BE84" rx="3" ry="3" style="stroke:#038048;stroke-width:1.0;"/><text fill="#000000" font-family="sans-serif" font-size="14" lengthAdjust="spacing" textLength="109" x="289.5" y="519.8152">init(Scene): void</text><ellipse cx="280.5" cy="532.5124" fill="#84BE84" rx="3" ry="3" style="stroke:#038048;stroke-width:1.0;"/><text fill="#000000" font-family="sans-serif" font-size="14" lengthAdjust="spacing" textLength="187" x="289.5" y="536.3034">loadResources(Scene): void</text><ellipse cx="280.5" cy="549.0007" fill="#84BE84" rx="3" ry="3" style="stroke:#038048;stroke-width:1.0;"/><text fill="#000000" font-family="sans-serif" font-size="14" lengthAdjust="spacing" textLength="86" x="289.5" y="552.7917">imgui(): void</text><ellipse cx="280.5" cy="565.489" fill="#84BE84" rx="3" ry="3" style="stroke:#038048;stroke-width:1.0;"/><text fill="#000000" font-family="sans-serif" font-size="14" lengthAdjust="spacing" textLength="144" x="289.5" y="569.28">ImGuiWordSet(): void</text><ellipse cx="280.5" cy="581.9773" fill="#84BE84" rx="3" ry="3" style="stroke:#038048;stroke-width:1.0;"/><text fill="#000000" font-family="sans-serif" font-size="14" lengthAdjust="spacing" textLength="122" x="289.5" y="585.7683">imguiBlock(): void</text><ellipse cx="280.5" cy="598.4655" fill="#84BE84" rx="3" ry="3" style="stroke:#038048;stroke-width:1.0;"/><text fill="#000000" font-family="sans-serif" font-size="14" lengthAdjust="spacing" textLength="137" x="289.5" y="602.2566">imguiPrefabs(): void</text><ellipse cx="280.5" cy="614.9538" fill="#84BE84" rx="3" ry="3" style="stroke:#038048;stroke-width:1.0;"/><text fill="#000000" font-family="sans-serif" font-size="14" lengthAdjust="spacing" textLength="123" x="289.5" y="618.7448">imguiItems(): void</text><ellipse cx="280.5" cy="631.4421" fill="#84BE84" rx="3" ry="3" style="stroke:#038048;stroke-width:1.0;"/><text fill="#000000" font-family="sans-serif" font-size="14" lengthAdjust="spacing" textLength="152" x="289.5" y="635.2331">imguiMessages(): void</text><ellipse cx="280.5" cy="647.9304" fill="#84BE84" rx="3" ry="3" style="stroke:#038048;stroke-width:1.0;"/><text fill="#000000" font-family="sans-serif" font-size="14" lengthAdjust="spacing" textLength="125" x="289.5" y="651.7214">imguiBriefe(): void</text></g></a><!--class game.scene.Scene--><a href="Scene.html" target="_top" title="Scene.html" xlink:actuate="onRequest" xlink:href="Scene.html" xlink:show="new" xlink:title="Scene.html" xlink:type="simple"><g id="elem_game.scene.Scene"><rect codeLine="21" fill="#F1F1F1" height="361.2773" id="game.scene.Scene" rx="2.5" ry="2.5" style="stroke:#181818;stroke-width:0.5;" width="473" x="269.5" y="41"/><ellipse cx="481.75" cy="57" fill="#ADD1B2" rx="11" ry="11" style="stroke:#181818;stroke-width:1.0;"/><path d="M484.2231,63.1431 Q483.6421,63.4419 483.0029,63.5913 Q482.3638,63.7407 481.6582,63.7407 Q479.1514,63.7407 477.8315,62.0889 Q476.5117,60.437 476.5117,57.3159 Q476.5117,54.1865 477.8315,52.5347 Q479.1514,50.8828 481.6582,50.8828 Q482.3638,50.8828 483.0112,51.0322 Q483.6587,51.1816 484.2231,51.4805 L484.2231,54.2031 Q483.5923,53.6221 482.9988,53.3523 Q482.4053,53.0825 481.7744,53.0825 Q480.4297,53.0825 479.7449,54.1492 Q479.0601,55.2158 479.0601,57.3159 Q479.0601,59.4077 479.7449,60.4744 Q480.4297,61.541 481.7744,61.541 Q482.4053,61.541 482.9988,61.2712 Q483.5923,61.0015 484.2231,60.4204 Z " fill="#000000"/><text fill="#000000" font-family="sans-serif" font-size="14" lengthAdjust="spacing" textLength="40" x="502.25" y="62.291">Scene</text><line style="stroke:#181818;stroke-width:0.5;" x1="270.5" x2="741.5" y1="73" y2="73"/><polygon fill="none" points="280.5,81.7441,284.5,85.7441,280.5,89.7441,276.5,85.7441" style="stroke:#B38D22;stroke-width:1.0;"/><text fill="#000000" font-family="sans-serif" font-size="14" lengthAdjust="spacing" textLength="225" x="289.5" y="90.5352">gameObjects: List&lt;GameObject&gt;</text><line style="stroke:#181818;stroke-width:0.5;" x1="270.5" x2="741.5" y1="97.4883" y2="97.4883"/><ellipse cx="280.5" cy="111.2324" fill="#84BE84" rx="3" ry="3" style="stroke:#038048;stroke-width:1.0;"/><text fill="#000000" font-family="sans-serif" font-size="14" lengthAdjust="spacing" textLength="154" x="289.5" y="115.0234">Scene(SceneInitializer)</text><ellipse cx="280.5" cy="127.7207" fill="#84BE84" rx="3" ry="3" style="stroke:#038048;stroke-width:1.0;"/><text fill="#000000" font-family="sans-serif" font-size="14" lengthAdjust="spacing" textLength="69" x="289.5" y="131.5117">init(): void</text><ellipse cx="280.5" cy="144.209" fill="#84BE84" rx="3" ry="3" style="stroke:#038048;stroke-width:1.0;"/><text fill="#000000" font-family="sans-serif" font-size="14" lengthAdjust="spacing" textLength="78" x="289.5" y="148">start(): void</text><ellipse cx="280.5" cy="160.6973" fill="#84BE84" rx="3" ry="3" style="stroke:#038048;stroke-width:1.0;"/><text fill="#000000" font-family="sans-serif" font-size="14" lengthAdjust="spacing" textLength="117" x="289.5" y="164.4883">gameStart(): void</text><ellipse cx="280.5" cy="177.1855" fill="#84BE84" rx="3" ry="3" style="stroke:#038048;stroke-width:1.0;"/><text fill="#000000" font-family="sans-serif" font-size="14" lengthAdjust="spacing" textLength="239" x="289.5" y="180.9766">addGameObject(GameObject): void</text><ellipse cx="280.5" cy="193.6738" fill="#84BE84" rx="3" ry="3" style="stroke:#038048;stroke-width:1.0;"/><text fill="#000000" font-family="sans-serif" font-size="14" lengthAdjust="spacing" textLength="168" x="289.5" y="197.4648">editorUpdate(float): void</text><ellipse cx="280.5" cy="210.1621" fill="#84BE84" rx="3" ry="3" style="stroke:#038048;stroke-width:1.0;"/><text fill="#000000" font-family="sans-serif" font-size="14" lengthAdjust="spacing" textLength="126" x="289.5" y="213.9531">update(float): void</text><ellipse cx="280.5" cy="226.6504" fill="#84BE84" rx="3" ry="3" style="stroke:#038048;stroke-width:1.0;"/><text fill="#000000" font-family="sans-serif" font-size="14" lengthAdjust="spacing" textLength="93" x="289.5" y="230.4414">render(): void</text><ellipse cx="280.5" cy="243.1387" fill="#84BE84" rx="3" ry="3" style="stroke:#038048;stroke-width:1.0;"/><text fill="#000000" font-family="sans-serif" font-size="14" lengthAdjust="spacing" textLength="121" x="289.5" y="246.9297">camera(): Camera</text><ellipse cx="280.5" cy="259.627" fill="#84BE84" rx="3" ry="3" style="stroke:#038048;stroke-width:1.0;"/><text fill="#000000" font-family="sans-serif" font-size="14" lengthAdjust="spacing" textLength="447" x="289.5" y="263.418">getGameObjectWith(Class&lt;T extends Component&gt;): GameObject</text><ellipse cx="280.5" cy="276.1152" fill="#84BE84" rx="3" ry="3" style="stroke:#038048;stroke-width:1.0;"/><text fill="#000000" font-family="sans-serif" font-size="14" lengthAdjust="spacing" textLength="258" x="289.5" y="279.9063">getGameObjects(): List&lt;GameObject&gt;</text><ellipse cx="280.5" cy="292.6035" fill="#84BE84" rx="3" ry="3" style="stroke:#038048;stroke-width:1.0;"/><text fill="#000000" font-family="sans-serif" font-size="14" lengthAdjust="spacing" textLength="224" x="289.5" y="296.3945">getGameObject(int): GameObject</text><ellipse cx="280.5" cy="309.0918" fill="#84BE84" rx="3" ry="3" style="stroke:#038048;stroke-width:1.0;"/><text fill="#000000" font-family="sans-serif" font-size="14" lengthAdjust="spacing" textLength="247" x="289.5" y="312.8828">getGameObject(String): GameObject</text><ellipse cx="280.5" cy="325.5801" fill="#84BE84" rx="3" ry="3" style="stroke:#038048;stroke-width:1.0;"/><text fill="#000000" font-family="sans-serif" font-size="14" lengthAdjust="spacing" textLength="86" x="289.5" y="329.3711">imgui(): void</text><ellipse cx="280.5" cy="342.0684" fill="#84BE84" rx="3" ry="3" style="stroke:#038048;stroke-width:1.0;"/><text fill="#000000" font-family="sans-serif" font-size="14" lengthAdjust="spacing" textLength="267" x="289.5" y="345.8594">createGameObject(String): GameObject</text><ellipse cx="280.5" cy="358.5566" fill="#84BE84" rx="3" ry="3" style="stroke:#038048;stroke-width:1.0;"/><text fill="#000000" font-family="sans-serif" font-size="14" lengthAdjust="spacing" textLength="77" x="289.5" y="362.3477">save(): void</text><ellipse cx="280.5" cy="375.0449" fill="#84BE84" rx="3" ry="3" style="stroke:#038048;stroke-width:1.0;"/><text fill="#000000" font-family="sans-serif" font-size="14" lengthAdjust="spacing" textLength="77" x="289.5" y="378.8359">load(): void</text><ellipse cx="280.5" cy="391.5332" fill="#84BE84" rx="3" ry="3" style="stroke:#038048;stroke-width:1.0;"/><text fill="#000000" font-family="sans-serif" font-size="14" lengthAdjust="spacing" textLength="98" x="289.5" y="395.3242">destroy(): void</text></g></a><!--class game.scene.SceneInitializer--><a href="SceneInitializer.html" target="_top" title="SceneInitializer.html" xlink:actuate="onRequest" xlink:href="SceneInitializer.html" xlink:show="new" xlink:title="SceneInitializer.html" xlink:type="simple"><g id="elem_game.scene.SceneInitializer"><rect codeLine="43" fill="#F1F1F1" height="97.4648" id="game.scene.SceneInitializer" rx="2.5" ry="2.5" style="stroke:#181818;stroke-width:0.5;" width="213" x="21.5" y="172.9"/><ellipse cx="71.75" cy="188.9" fill="#A9DCDF" rx="11" ry="11" style="stroke:#181818;stroke-width:1.0;"/><path d="M71.6133,184.2481 L70.4595,189.3199 L72.7754,189.3199 Z M70.1191,182.0069 L73.1157,182.0069 L76.4609,194.4 L74.0122,194.4 L73.2485,191.337 L69.9697,191.337 L69.2227,194.4 L66.7739,194.4 Z " fill="#000000"/><text fill="#000000" font-family="sans-serif" font-size="14" font-style="italic" lengthAdjust="spacing" textLength="104" x="92.25" y="194.191">SceneInitializer</text><line style="stroke:#181818;stroke-width:0.5;" x1="22.5" x2="233.5" y1="204.9" y2="204.9"/><line style="stroke:#181818;stroke-width:0.5;" x1="22.5" x2="233.5" y1="212.9" y2="212.9"/><ellipse cx="32.5" cy="226.6441" fill="#84BE84" rx="3" ry="3" style="stroke:#038048;stroke-width:1.0;"/><text fill="#000000" font-family="sans-serif" font-size="14" font-style="italic" lengthAdjust="spacing" textLength="109" x="41.5" y="230.4352">init(Scene): void</text><ellipse cx="32.5" cy="243.1324" fill="#84BE84" rx="3" ry="3" style="stroke:#038048;stroke-width:1.0;"/><text fill="#000000" font-family="sans-serif" font-size="14" font-style="italic" lengthAdjust="spacing" textLength="187" x="41.5" y="246.9234">loadResources(Scene): void</text><ellipse cx="32.5" cy="259.6207" fill="#84BE84" rx="3" ry="3" style="stroke:#038048;stroke-width:1.0;"/><text fill="#000000" font-family="sans-serif" font-size="14" font-style="italic" lengthAdjust="spacing" textLength="86" x="41.5" y="263.4117">imgui(): void</text></g></a><!--reverse link game.scene.SceneInitializer to game.scene.LevelSceneInitializer--><g id="link_game.scene.SceneInitializer_game.scene.LevelSceneInitializer"><path codeLine="49" d="M128,291.88 C128,357.4 128,454.02 128,511.46 " fill="none" id="game.scene.SceneInitializer-backto-game.scene.LevelSceneInitializer" style="stroke:#181818;stroke-width:1.0;"/><polygon fill="none" points="121,292.05,128,272.05,135,292.05,121,292.05" style="stroke:#181818;stroke-width:1.0;"/></g><!--reverse link game.scene.SceneInitializer to game.scene.LevelEditorSceneInitializer--><g id="link_game.scene.SceneInitializer_game.scene.LevelEditorSceneInitializer"><path codeLine="50" d="M171.75,288.14 C195.06,322.5 224.52,365.06 252,402.28 C266.45,421.85 282.27,442.47 297.63,462.11 " fill="none" id="game.scene.SceneInitializer-backto-game.scene.LevelEditorSceneInitializer" style="stroke:#181818;stroke-width:1.0;"/><polygon fill="none" points="166.07,292.24,160.67,271.75,177.67,284.4,166.07,292.24" style="stroke:#181818;stroke-width:1.0;"/></g><text fill="#888888" font-family="sans-serif" font-size="10" lengthAdjust="spacing" textLength="182" x="284.5" y="690.338">UMLDoclet 2.1.0, PlantUML 1.2022.14</text><!--SRC=[nLN1JW8n4Btp5PCOan9renu9uI0QGuBHYCG3uL3QOQtkjgGTY8hykzsD2elTWYVtqgRlzVLrPZeB0A1vZcx61KBgPuaJg16MZGPyVIBZpa4V5vWD2god5IcUgNUqC1e5rvCdohFnsAl0ndUaF8ELt6OB5aR9AfmPBk_HcRaLw28ybQTpnRQXLT3nbLHaR9tlCFeVxakebr_FrQEnSe34wZTVP4QyHF0xYrC-SH56Zp2FuJVe74ynHhcm2gUuEmjb87oyop4SsOEYxcudpoZ8jQ2l7BMlVrOwrRDB6RQTiMOWKq7hZhYjWGeJWtgOIxasnTRJ81dBkXhE92TaKryPOTfy5y6YbcZ3XeItO7c1TSlPrcsGrXuV5JsnRf6EzWFWAtbL1rsJpun6JHqliUP6PCfoYAUdmcTAqxxQR41MwJH2ZxmROT77yIzYZY-GrJxZC2BHaJLliPBthuui5xHP-zMsir-lMNuBhNQrdKtcdXse8hwhbVwwGllZv2JyCzXdJxZXDZOEzH3vBLDZYc5uqxyq8aE2y-GiEJs6kunhygjmk43hbD6i-Ga0]--></g></svg>