<?xml version="1.0" encoding="UTF-8" standalone="no"?><svg xmlns="http://www.w3.org/2000/svg" xmlns:xlink="http://www.w3.org/1999/xlink" contentStyleType="text/css" height="585px" preserveAspectRatio="none" style="width:765px;height:585px;background:#FFFFFF;" version="1.1" viewBox="0 0 765 585" width="765px" zoomAndPan="magnify"><defs/><g><!--cluster game.scene--><g id="cluster_game.scene"><path d="M8.5,6 L91.5,6 A3.75,3.75 0 0 1 94,8.5 L101,28.4883 L755.5,28.4883 A2.5,2.5 0 0 1 758,30.9883 L758,556.75 A2.5,2.5 0 0 1 755.5,559.25 L8.5,559.25 A2.5,2.5 0 0 1 6,556.75 L6,8.5 A2.5,2.5 0 0 1 8.5,6 " fill="none" style="stroke:#000000;stroke-width:1.5;"/><line style="stroke:#000000;stroke-width:1.5;" x1="6" x2="101" y1="28.4883" y2="28.4883"/><text fill="#000000" font-family="sans-serif" font-size="14" font-weight="bold" lengthAdjust="spacing" textLength="82" x="10" y="21.5352">game.scene</text></g><!--class game.scene.LevelSceneInitializer--><a href="LevelSceneInitializer.html" target="_top" title="LevelSceneInitializer.html" xlink:actuate="onRequest" xlink:href="LevelSceneInitializer.html" xlink:show="new" xlink:title="LevelSceneInitializer.html" xlink:type="simple"><g id="elem_game.scene.LevelSceneInitializer"><rect codeLine="3" fill="#F1F1F1" height="97.4648" id="game.scene.LevelSceneInitializer" rx="2.5" ry="2.5" style="stroke:#181818;stroke-width:0.5;" width="213" x="21.5" y="437.54"/><ellipse cx="55.85" cy="453.54" fill="#ADD1B2" rx="11" ry="11" style="stroke:#181818;stroke-width:1.0;"/><path d="M58.3231,459.6831 Q57.7421,459.9819 57.1029,460.1313 Q56.4638,460.2807 55.7582,460.2807 Q53.2514,460.2807 51.9315,458.6289 Q50.6117,456.977 50.6117,453.8559 Q50.6117,450.7265 51.9315,449.0747 Q53.2514,447.4228 55.7582,447.4228 Q56.4638,447.4228 57.1112,447.5722 Q57.7587,447.7216 58.3231,448.0205 L58.3231,450.7431 Q57.6923,450.1621 57.0988,449.8923 Q56.5053,449.6225 55.8744,449.6225 Q54.5297,449.6225 53.8449,450.6892 Q53.1601,451.7558 53.1601,453.8559 Q53.1601,455.9477 53.8449,457.0144 Q54.5297,458.081 55.8744,458.081 Q56.5053,458.081 57.0988,457.8112 Q57.6923,457.5415 58.3231,456.9604 Z " fill="#000000"/><text fill="#000000" font-family="sans-serif" font-size="14" lengthAdjust="spacing" textLength="138" x="74.15" y="458.831">LevelSceneInitializer</text><line style="stroke:#181818;stroke-width:0.5;" x1="22.5" x2="233.5" y1="469.54" y2="469.54"/><line style="stroke:#181818;stroke-width:0.5;" x1="22.5" x2="233.5" y1="477.54" y2="477.54"/><ellipse cx="32.5" cy="491.2841" fill="#84BE84" rx="3" ry="3" style="stroke:#038048;stroke-width:1.0;"/><text fill="#000000" font-family="sans-serif" font-size="14" lengthAdjust="spacing" textLength="109" x="41.5" y="495.0752">init(Scene): void</text><ellipse cx="32.5" cy="507.7724" fill="#84BE84" rx="3" ry="3" style="stroke:#038048;stroke-width:1.0;"/><text fill="#000000" font-family="sans-serif" font-size="14" lengthAdjust="spacing" textLength="187" x="41.5" y="511.5634">loadResources(Scene): void</text><ellipse cx="32.5" cy="524.2607" fill="#84BE84" rx="3" ry="3" style="stroke:#038048;stroke-width:1.0;"/><text fill="#000000" font-family="sans-serif" font-size="14" lengthAdjust="spacing" textLength="86" x="41.5" y="528.0517">imgui(): void</text></g></a><!--class game.scene.LevelEditorSceneInitializer--><a href="LevelEditorSceneInitializer.html" target="_top" title="LevelEditorSceneInitializer.html" xlink:actuate="onRequest" xlink:href="LevelEditorSceneInitializer.html" xlink:show="new" xlink:title="LevelEditorSceneInitializer.html" xlink:type="simple"><g id="elem_game.scene.LevelEditorSceneInitializer"><rect codeLine="9" fill="#F1F1F1" height="113.9531" id="game.scene.LevelEditorSceneInitializer" rx="2.5" ry="2.5" style="stroke:#181818;stroke-width:0.5;" width="213" x="269.5" y="429.3"/><ellipse cx="285.4" cy="445.3" fill="#ADD1B2" rx="11" ry="11" style="stroke:#181818;stroke-width:1.0;"/><path d="M287.8731,451.4431 Q287.2921,451.7419 286.6529,451.8913 Q286.0138,452.0407 285.3082,452.0407 Q282.8014,452.0407 281.4815,450.3889 Q280.1617,448.737 280.1617,445.6159 Q280.1617,442.4865 281.4815,440.8347 Q282.8014,439.1828 285.3082,439.1828 Q286.0138,439.1828 286.6612,439.3322 Q287.3087,439.4816 287.8731,439.7805 L287.8731,442.5031 Q287.2423,441.9221 286.6488,441.6523 Q286.0553,441.3825 285.4244,441.3825 Q284.0797,441.3825 283.3949,442.4492 Q282.7101,443.5158 282.7101,445.6159 Q282.7101,447.7077 283.3949,448.7744 Q284.0797,449.841 285.4244,449.841 Q286.0553,449.841 286.6488,449.5712 Q287.2423,449.3015 287.8731,448.7204 Z " fill="#000000"/><text fill="#000000" font-family="sans-serif" font-size="14" lengthAdjust="spacing" textLength="179" x="299.6" y="450.591">LevelEditorSceneInitializer</text><line style="stroke:#181818;stroke-width:0.5;" x1="270.5" x2="481.5" y1="461.3" y2="461.3"/><line style="stroke:#181818;stroke-width:0.5;" x1="270.5" x2="481.5" y1="469.3" y2="469.3"/><ellipse cx="280.5" cy="483.0441" fill="#84BE84" rx="3" ry="3" style="stroke:#038048;stroke-width:1.0;"/><text fill="#000000" font-family="sans-serif" font-size="14" lengthAdjust="spacing" textLength="109" x="289.5" y="486.8352">init(Scene): void</text><ellipse cx="280.5" cy="499.5324" fill="#84BE84" rx="3" ry="3" style="stroke:#038048;stroke-width:1.0;"/><text fill="#000000" font-family="sans-serif" font-size="14" lengthAdjust="spacing" textLength="187" x="289.5" y="503.3234">loadResources(Scene): void</text><ellipse cx="280.5" cy="516.0207" fill="#84BE84" rx="3" ry="3" style="stroke:#038048;stroke-width:1.0;"/><text fill="#000000" font-family="sans-serif" font-size="14" lengthAdjust="spacing" textLength="86" x="289.5" y="519.8117">imgui(): void</text><ellipse cx="280.5" cy="532.509" fill="#84BE84" rx="3" ry="3" style="stroke:#038048;stroke-width:1.0;"/><text fill="#000000" font-family="sans-serif" font-size="14" lengthAdjust="spacing" textLength="144" x="289.5" y="536.3">ImGuiWordSet(): void</text></g></a><!--class game.scene.Scene--><a href="Scene.html" target="_top" title="Scene.html" xlink:actuate="onRequest" xlink:href="Scene.html" xlink:show="new" xlink:title="Scene.html" xlink:type="simple"><g id="elem_game.scene.Scene"><rect codeLine="16" fill="#F1F1F1" height="328.3008" id="game.scene.Scene" rx="2.5" ry="2.5" style="stroke:#181818;stroke-width:0.5;" width="473" x="269.5" y="41"/><ellipse cx="481.75" cy="57" fill="#ADD1B2" rx="11" ry="11" style="stroke:#181818;stroke-width:1.0;"/><path d="M484.2231,63.1431 Q483.6421,63.4419 483.0029,63.5913 Q482.3638,63.7407 481.6582,63.7407 Q479.1514,63.7407 477.8315,62.0889 Q476.5117,60.437 476.5117,57.3159 Q476.5117,54.1865 477.8315,52.5347 Q479.1514,50.8828 481.6582,50.8828 Q482.3638,50.8828 483.0112,51.0322 Q483.6587,51.1816 484.2231,51.4805 L484.2231,54.2031 Q483.5923,53.6221 482.9988,53.3523 Q482.4053,53.0825 481.7744,53.0825 Q480.4297,53.0825 479.7449,54.1492 Q479.0601,55.2158 479.0601,57.3159 Q479.0601,59.4077 479.7449,60.4744 Q480.4297,61.541 481.7744,61.541 Q482.4053,61.541 482.9988,61.2712 Q483.5923,61.0015 484.2231,60.4204 Z " fill="#000000"/><text fill="#000000" font-family="sans-serif" font-size="14" lengthAdjust="spacing" textLength="40" x="502.25" y="62.291">Scene</text><line style="stroke:#181818;stroke-width:0.5;" x1="270.5" x2="741.5" y1="73" y2="73"/><polygon fill="none" points="280.5,81.7441,284.5,85.7441,280.5,89.7441,276.5,85.7441" style="stroke:#B38D22;stroke-width:1.0;"/><text fill="#000000" font-family="sans-serif" font-size="14" lengthAdjust="spacing" textLength="225" x="289.5" y="90.5352">gameObjects: List&lt;GameObject&gt;</text><line style="stroke:#181818;stroke-width:0.5;" x1="270.5" x2="741.5" y1="97.4883" y2="97.4883"/><ellipse cx="280.5" cy="111.2324" fill="#84BE84" rx="3" ry="3" style="stroke:#038048;stroke-width:1.0;"/><text fill="#000000" font-family="sans-serif" font-size="14" lengthAdjust="spacing" textLength="154" x="289.5" y="115.0234">Scene(SceneInitializer)</text><ellipse cx="280.5" cy="127.7207" fill="#84BE84" rx="3" ry="3" style="stroke:#038048;stroke-width:1.0;"/><text fill="#000000" font-family="sans-serif" font-size="14" lengthAdjust="spacing" textLength="69" x="289.5" y="131.5117">init(): void</text><ellipse cx="280.5" cy="144.209" fill="#84BE84" rx="3" ry="3" style="stroke:#038048;stroke-width:1.0;"/><text fill="#000000" font-family="sans-serif" font-size="14" lengthAdjust="spacing" textLength="78" x="289.5" y="148">start(): void</text><ellipse cx="280.5" cy="160.6973" fill="#84BE84" rx="3" ry="3" style="stroke:#038048;stroke-width:1.0;"/><text fill="#000000" font-family="sans-serif" font-size="14" lengthAdjust="spacing" textLength="239" x="289.5" y="164.4883">addGameObject(GameObject): void</text><ellipse cx="280.5" cy="177.1855" fill="#84BE84" rx="3" ry="3" style="stroke:#038048;stroke-width:1.0;"/><text fill="#000000" font-family="sans-serif" font-size="14" lengthAdjust="spacing" textLength="168" x="289.5" y="180.9766">editorUpdate(float): void</text><ellipse cx="280.5" cy="193.6738" fill="#84BE84" rx="3" ry="3" style="stroke:#038048;stroke-width:1.0;"/><text fill="#000000" font-family="sans-serif" font-size="14" lengthAdjust="spacing" textLength="126" x="289.5" y="197.4648">update(float): void</text><ellipse cx="280.5" cy="210.1621" fill="#84BE84" rx="3" ry="3" style="stroke:#038048;stroke-width:1.0;"/><text fill="#000000" font-family="sans-serif" font-size="14" lengthAdjust="spacing" textLength="93" x="289.5" y="213.9531">render(): void</text><ellipse cx="280.5" cy="226.6504" fill="#84BE84" rx="3" ry="3" style="stroke:#038048;stroke-width:1.0;"/><text fill="#000000" font-family="sans-serif" font-size="14" lengthAdjust="spacing" textLength="121" x="289.5" y="230.4414">camera(): Camera</text><ellipse cx="280.5" cy="243.1387" fill="#84BE84" rx="3" ry="3" style="stroke:#038048;stroke-width:1.0;"/><text fill="#000000" font-family="sans-serif" font-size="14" lengthAdjust="spacing" textLength="447" x="289.5" y="246.9297">getGameObjectWith(Class&lt;T extends Component&gt;): GameObject</text><ellipse cx="280.5" cy="259.627" fill="#84BE84" rx="3" ry="3" style="stroke:#038048;stroke-width:1.0;"/><text fill="#000000" font-family="sans-serif" font-size="14" lengthAdjust="spacing" textLength="258" x="289.5" y="263.418">getGameObjects(): List&lt;GameObject&gt;</text><ellipse cx="280.5" cy="276.1152" fill="#84BE84" rx="3" ry="3" style="stroke:#038048;stroke-width:1.0;"/><text fill="#000000" font-family="sans-serif" font-size="14" lengthAdjust="spacing" textLength="224" x="289.5" y="279.9063">getGameObject(int): GameObject</text><ellipse cx="280.5" cy="292.6035" fill="#84BE84" rx="3" ry="3" style="stroke:#038048;stroke-width:1.0;"/><text fill="#000000" font-family="sans-serif" font-size="14" lengthAdjust="spacing" textLength="86" x="289.5" y="296.3945">imgui(): void</text><ellipse cx="280.5" cy="309.0918" fill="#84BE84" rx="3" ry="3" style="stroke:#038048;stroke-width:1.0;"/><text fill="#000000" font-family="sans-serif" font-size="14" lengthAdjust="spacing" textLength="267" x="289.5" y="312.8828">createGameObject(String): GameObject</text><ellipse cx="280.5" cy="325.5801" fill="#84BE84" rx="3" ry="3" style="stroke:#038048;stroke-width:1.0;"/><text fill="#000000" font-family="sans-serif" font-size="14" lengthAdjust="spacing" textLength="77" x="289.5" y="329.3711">save(): void</text><ellipse cx="280.5" cy="342.0684" fill="#84BE84" rx="3" ry="3" style="stroke:#038048;stroke-width:1.0;"/><text fill="#000000" font-family="sans-serif" font-size="14" lengthAdjust="spacing" textLength="77" x="289.5" y="345.8594">load(): void</text><ellipse cx="280.5" cy="358.5566" fill="#84BE84" rx="3" ry="3" style="stroke:#038048;stroke-width:1.0;"/><text fill="#000000" font-family="sans-serif" font-size="14" lengthAdjust="spacing" textLength="98" x="289.5" y="362.3477">destroy(): void</text></g></a><!--class game.scene.SceneInitializer--><a href="SceneInitializer.html" target="_top" title="SceneInitializer.html" xlink:actuate="onRequest" xlink:href="SceneInitializer.html" xlink:show="new" xlink:title="SceneInitializer.html" xlink:type="simple"><g id="elem_game.scene.SceneInitializer"><rect codeLine="36" fill="#F1F1F1" height="97.4648" id="game.scene.SceneInitializer" rx="2.5" ry="2.5" style="stroke:#181818;stroke-width:0.5;" width="213" x="21.5" y="156.41"/><ellipse cx="71.75" cy="172.41" fill="#A9DCDF" rx="11" ry="11" style="stroke:#181818;stroke-width:1.0;"/><path d="M71.6133,167.7581 L70.4595,172.8299 L72.7754,172.8299 Z M70.1191,165.5169 L73.1157,165.5169 L76.4609,177.91 L74.0122,177.91 L73.2485,174.847 L69.9697,174.847 L69.2227,177.91 L66.7739,177.91 Z " fill="#000000"/><text fill="#000000" font-family="sans-serif" font-size="14" font-style="italic" lengthAdjust="spacing" textLength="104" x="92.25" y="177.701">SceneInitializer</text><line style="stroke:#181818;stroke-width:0.5;" x1="22.5" x2="233.5" y1="188.41" y2="188.41"/><line style="stroke:#181818;stroke-width:0.5;" x1="22.5" x2="233.5" y1="196.41" y2="196.41"/><ellipse cx="32.5" cy="210.1541" fill="#84BE84" rx="3" ry="3" style="stroke:#038048;stroke-width:1.0;"/><text fill="#000000" font-family="sans-serif" font-size="14" font-style="italic" lengthAdjust="spacing" textLength="109" x="41.5" y="213.9452">init(Scene): void</text><ellipse cx="32.5" cy="226.6424" fill="#84BE84" rx="3" ry="3" style="stroke:#038048;stroke-width:1.0;"/><text fill="#000000" font-family="sans-serif" font-size="14" font-style="italic" lengthAdjust="spacing" textLength="187" x="41.5" y="230.4334">loadResources(Scene): void</text><ellipse cx="32.5" cy="243.1307" fill="#84BE84" rx="3" ry="3" style="stroke:#038048;stroke-width:1.0;"/><text fill="#000000" font-family="sans-serif" font-size="14" font-style="italic" lengthAdjust="spacing" textLength="86" x="41.5" y="246.9217">imgui(): void</text></g></a><!--reverse link game.scene.SceneInitializer to game.scene.LevelSceneInitializer--><g id="link_game.scene.SceneInitializer_game.scene.LevelSceneInitializer"><path codeLine="42" d="M128,275.31 C128,325.76 128,392.83 128,437.45 " fill="none" id="game.scene.SceneInitializer-backto-game.scene.LevelSceneInitializer" style="stroke:#181818;stroke-width:1.0;"/><polygon fill="none" points="121,275.64,128,255.64,135,275.64,121,275.64" style="stroke:#181818;stroke-width:1.0;"/></g><!--reverse link game.scene.SceneInitializer to game.scene.LevelEditorSceneInitializer--><g id="link_game.scene.SceneInitializer_game.scene.LevelEditorSceneInitializer"><path codeLine="43" d="M173.77,271.52 C196.2,302.17 224.3,338.61 252,369.3 C270.37,389.64 291.76,410.51 311.55,428.84 " fill="none" id="game.scene.SceneInitializer-backto-game.scene.LevelEditorSceneInitializer" style="stroke:#181818;stroke-width:1.0;"/><polygon fill="none" points="168.2,275.76,162.15,255.46,179.54,267.56,168.2,275.76" style="stroke:#181818;stroke-width:1.0;"/></g><text fill="#888888" font-family="sans-serif" font-size="10" lengthAdjust="spacing" textLength="182" x="284.5" y="574.918">UMLDoclet 2.1.0, PlantUML 1.2022.14</text><!--SRC=[nLJ1JW8n4Btp5PCOan9benu9uOA6a60q8k5WE9HsM6fsMzBE4XNvTxiRTNUnBDpifKtVwvlNwKm103HFqQsvG8ZzAd82DSAsrOBl8HBk78nnWyaanqPQaUA9-a0BBo_1_MX5QJAVUnMeZ0lb6QpWjhkmCKhMuSHm-OJEP5QWQ-2fDCuKsuTsGSTtKf6nXto7qVzmNq2ZT9YfcR5oWdJyVaK8VvDY3di-or_qOV6AWbmNnifHR_Yxqwy7BsJOVYxQWHm4lJlYzW34fIoZid8P96Fn9DErv8HiwPCQfcN721QrH1is9Bm5otDiKApgQ8nKUfmfMh51dk_UC-0RULK70vEkZKPDVIzHSXjaN1wiEVyrFbEQ6hGRQaXOz8cfA4t8AXqtY3c-GNQmfCE8H4VMl3SLALzu2XTKhTPw2vxMTziVeTsn5gmoJ-p6clYnR-NF5NgVdKxuOppbJFZpQLM2UeZyaQKn-JIz7zyQaI31JNGTNLt2Oy8r-Lqutw1rocZM_W80]--></g></svg>