<?xml version="1.0" encoding="UTF-8" standalone="no"?><svg xmlns="http://www.w3.org/2000/svg" xmlns:xlink="http://www.w3.org/1999/xlink" contentStyleType="text/css" height="351px" preserveAspectRatio="none" style="width:494px;height:351px;background:#FFFFFF;" version="1.1" viewBox="0 0 494 351" width="494px" zoomAndPan="magnify"><defs/><g><!--class game.scene.Scene--><a href="Scene.html" target="_top" title="Scene.html" xlink:actuate="onRequest" xlink:href="Scene.html" xlink:show="new" xlink:title="Scene.html" xlink:type="simple"><g id="elem_game.scene.Scene"><rect codeLine="5" fill="#F1F1F1" height="318.0781" id="game.scene.Scene" rx="2.5" ry="2.5" style="stroke:#181818;stroke-width:0.5;" width="473" x="7" y="7"/><ellipse cx="210.25" cy="26.1328" fill="#A9DCDF" rx="11" ry="11" style="stroke:#181818;stroke-width:1.0;"/><path d="M210.1133,21.481 L208.9595,26.5527 L211.2754,26.5527 Z M208.6191,19.2397 L211.6157,19.2397 L214.9609,31.6328 L212.5122,31.6328 L211.7485,28.5698 L208.4697,28.5698 L207.7227,31.6328 L205.2739,31.6328 Z " fill="#000000"/><text fill="#000000" font-family="sans-serif" font-size="14" font-style="italic" lengthAdjust="spacing" textLength="40" x="239.75" y="25.5352">Scene</text><text fill="#000000" font-family="sans-serif" font-size="10" font-style="italic" lengthAdjust="spacing" textLength="58" x="230.75" y="38.1563">game.scene</text><line style="stroke:#181818;stroke-width:0.5;" x1="8" x2="479" y1="45.2656" y2="45.2656"/><polygon fill="none" points="18,54.0098,22,58.0098,18,62.0098,14,58.0098" style="stroke:#B38D22;stroke-width:1.0;"/><text fill="#000000" font-family="sans-serif" font-size="14" lengthAdjust="spacing" textLength="131" x="27" y="62.8008">renderer: Renderer</text><polygon fill="none" points="18,70.498,22,74.498,18,78.498,14,74.498" style="stroke:#B38D22;stroke-width:1.0;"/><text fill="#000000" font-family="sans-serif" font-size="14" lengthAdjust="spacing" textLength="111" x="27" y="79.2891">camera: Camera</text><polygon fill="none" points="18,86.9863,22,90.9863,18,94.9863,14,90.9863" style="stroke:#B38D22;stroke-width:1.0;"/><text fill="#000000" font-family="sans-serif" font-size="14" lengthAdjust="spacing" textLength="145" x="27" y="95.7773">loadedLevel: boolean</text><polygon fill="none" points="18,103.4746,22,107.4746,18,111.4746,14,107.4746" style="stroke:#B38D22;stroke-width:1.0;"/><text fill="#000000" font-family="sans-serif" font-size="14" lengthAdjust="spacing" textLength="225" x="27" y="112.2656">gameObjects: List&lt;GameObject&gt;</text><line style="stroke:#181818;stroke-width:0.5;" x1="8" x2="479" y1="119.2188" y2="119.2188"/><ellipse cx="18" cy="132.9629" fill="#84BE84" rx="3" ry="3" style="stroke:#038048;stroke-width:1.0;"/><text fill="#000000" font-family="sans-serif" font-size="14" lengthAdjust="spacing" textLength="69" x="27" y="136.7539">init(): void</text><ellipse cx="18" cy="149.4512" fill="#84BE84" rx="3" ry="3" style="stroke:#038048;stroke-width:1.0;"/><text fill="#000000" font-family="sans-serif" font-size="14" lengthAdjust="spacing" textLength="78" x="27" y="153.2422">start(): void</text><ellipse cx="18" cy="165.9395" fill="#84BE84" rx="3" ry="3" style="stroke:#038048;stroke-width:1.0;"/><text fill="#000000" font-family="sans-serif" font-size="14" lengthAdjust="spacing" textLength="239" x="27" y="169.7305">addGameObject(GameObject): void</text><ellipse cx="18" cy="182.4277" fill="#84BE84" rx="3" ry="3" style="stroke:#038048;stroke-width:1.0;"/><text fill="#000000" font-family="sans-serif" font-size="14" font-style="italic" lengthAdjust="spacing" textLength="126" x="27" y="186.2188">update(float): void</text><ellipse cx="18" cy="198.916" fill="#84BE84" rx="3" ry="3" style="stroke:#038048;stroke-width:1.0;"/><text fill="#000000" font-family="sans-serif" font-size="14" font-style="italic" lengthAdjust="spacing" textLength="93" x="27" y="202.707">render(): void</text><ellipse cx="18" cy="215.4043" fill="#84BE84" rx="3" ry="3" style="stroke:#038048;stroke-width:1.0;"/><text fill="#000000" font-family="sans-serif" font-size="14" lengthAdjust="spacing" textLength="121" x="27" y="219.1953">camera(): Camera</text><ellipse cx="18" cy="231.8926" fill="#84BE84" rx="3" ry="3" style="stroke:#038048;stroke-width:1.0;"/><text fill="#000000" font-family="sans-serif" font-size="14" lengthAdjust="spacing" textLength="447" x="27" y="235.6836">getGameObjectWith(Class&lt;T extends Component&gt;): GameObject</text><ellipse cx="18" cy="248.3809" fill="#84BE84" rx="3" ry="3" style="stroke:#038048;stroke-width:1.0;"/><text fill="#000000" font-family="sans-serif" font-size="14" lengthAdjust="spacing" textLength="258" x="27" y="252.1719">getGameObjects(): List&lt;GameObject&gt;</text><ellipse cx="18" cy="264.8691" fill="#84BE84" rx="3" ry="3" style="stroke:#038048;stroke-width:1.0;"/><text fill="#000000" font-family="sans-serif" font-size="14" lengthAdjust="spacing" textLength="224" x="27" y="268.6602">getGameObject(int): GameObject</text><ellipse cx="18" cy="281.3574" fill="#84BE84" rx="3" ry="3" style="stroke:#038048;stroke-width:1.0;"/><text fill="#000000" font-family="sans-serif" font-size="14" lengthAdjust="spacing" textLength="86" x="27" y="285.1484">imgui(): void</text><ellipse cx="18" cy="297.8457" fill="#84BE84" rx="3" ry="3" style="stroke:#038048;stroke-width:1.0;"/><text fill="#000000" font-family="sans-serif" font-size="14" lengthAdjust="spacing" textLength="103" x="27" y="301.6367">saveExit(): void</text><ellipse cx="18" cy="314.334" fill="#84BE84" rx="3" ry="3" style="stroke:#038048;stroke-width:1.0;"/><text fill="#000000" font-family="sans-serif" font-size="14" lengthAdjust="spacing" textLength="77" x="27" y="318.125">load(): void</text></g></a><text fill="#888888" font-family="sans-serif" font-size="10" lengthAdjust="spacing" textLength="182" x="152" y="341.7461">UMLDoclet 2.1.0, PlantUML 1.2022.14</text><!--SRC=[VPB1JW8n48RlFiK4Ox84im7ZQKEueF62qOZ60t8OjWDRqsqtxR112Uzkko0D2Evbsg___jFE30208mQD9RaASnfJXHRPMD16quK_Xa8A0Yeh_eAv92NSCIs92-Dnmt7cs6BEa2jq3bfz9xyfwzqEnZbf-j2xVNUmy2bJ5s0Bq47SfeqI9fCcfWMNQZg5TUCUlajBMf0bcy7BRXNFSczZCODX4oDN1WM94TMaCfWPemXrF0t9dsQVbBFBO2GTzn_sPB2NTQIMdBGpg8qKaJf6UmAZ4D4aYSjZuVgtOXleB2k1JCdSt_PVtRO2VtDkNn_uqVix2-9uXNV9HJ8C_Uc_0gtOkpaOchBoBTSyyBz7xHaB5vAShzI1Df6QptZASh6K9qgADTslJXKxzF60RhPZvqU5oSBSc13U7aTt9bT-i6_INjgzXcU5cZs5gvgiaqOdxHy0]--></g></svg>