<?xml version="1.0" encoding="UTF-8" standalone="no"?><svg xmlns="http://www.w3.org/2000/svg" xmlns:xlink="http://www.w3.org/1999/xlink" contentStyleType="text/css" height="401px" preserveAspectRatio="none" style="width:494px;height:401px;background:#FFFFFF;" version="1.1" viewBox="0 0 494 401" width="494px" zoomAndPan="magnify"><defs/><g><!--class game.scene.Scene--><a href="Scene.html" target="_top" title="Scene.html" xlink:actuate="onRequest" xlink:href="Scene.html" xlink:show="new" xlink:title="Scene.html" xlink:type="simple"><g id="elem_game.scene.Scene"><rect codeLine="5" fill="#F1F1F1" height="367.543" id="game.scene.Scene" rx="2.5" ry="2.5" style="stroke:#181818;stroke-width:0.5;" width="473" x="7" y="7"/><ellipse cx="210.25" cy="26.1328" fill="#ADD1B2" rx="11" ry="11" style="stroke:#181818;stroke-width:1.0;"/><path d="M212.7231,32.2759 Q212.1421,32.5747 211.5029,32.7241 Q210.8638,32.8735 210.1582,32.8735 Q207.6514,32.8735 206.3315,31.2217 Q205.0117,29.5698 205.0117,26.4487 Q205.0117,23.3193 206.3315,21.6675 Q207.6514,20.0156 210.1582,20.0156 Q210.8638,20.0156 211.5112,20.165 Q212.1587,20.3145 212.7231,20.6133 L212.7231,23.3359 Q212.0923,22.7549 211.4988,22.4851 Q210.9053,22.2153 210.2744,22.2153 Q208.9297,22.2153 208.2449,23.282 Q207.5601,24.3486 207.5601,26.4487 Q207.5601,28.5405 208.2449,29.6072 Q208.9297,30.6738 210.2744,30.6738 Q210.9053,30.6738 211.4988,30.4041 Q212.0923,30.1343 212.7231,29.5532 Z " fill="#000000"/><text fill="#000000" font-family="sans-serif" font-size="14" lengthAdjust="spacing" textLength="40" x="239.75" y="25.5352">Scene</text><text fill="#000000" font-family="sans-serif" font-size="10" lengthAdjust="spacing" textLength="58" x="230.75" y="38.1563">game.scene</text><line style="stroke:#181818;stroke-width:0.5;" x1="8" x2="479" y1="45.2656" y2="45.2656"/><polygon fill="none" points="18,54.0098,22,58.0098,18,62.0098,14,58.0098" style="stroke:#B38D22;stroke-width:1.0;"/><text fill="#000000" font-family="sans-serif" font-size="14" lengthAdjust="spacing" textLength="225" x="27" y="62.8008">gameObjects: List&lt;GameObject&gt;</text><line style="stroke:#181818;stroke-width:0.5;" x1="8" x2="479" y1="69.7539" y2="69.7539"/><ellipse cx="18" cy="83.498" fill="#84BE84" rx="3" ry="3" style="stroke:#038048;stroke-width:1.0;"/><text fill="#000000" font-family="sans-serif" font-size="14" lengthAdjust="spacing" textLength="154" x="27" y="87.2891">Scene(SceneInitializer)</text><ellipse cx="18" cy="99.9863" fill="#84BE84" rx="3" ry="3" style="stroke:#038048;stroke-width:1.0;"/><text fill="#000000" font-family="sans-serif" font-size="14" lengthAdjust="spacing" textLength="69" x="27" y="103.7773">init(): void</text><ellipse cx="18" cy="116.4746" fill="#84BE84" rx="3" ry="3" style="stroke:#038048;stroke-width:1.0;"/><text fill="#000000" font-family="sans-serif" font-size="14" lengthAdjust="spacing" textLength="78" x="27" y="120.2656">start(): void</text><ellipse cx="18" cy="132.9629" fill="#84BE84" rx="3" ry="3" style="stroke:#038048;stroke-width:1.0;"/><text fill="#000000" font-family="sans-serif" font-size="14" lengthAdjust="spacing" textLength="117" x="27" y="136.7539">gameStart(): void</text><ellipse cx="18" cy="149.4512" fill="#84BE84" rx="3" ry="3" style="stroke:#038048;stroke-width:1.0;"/><text fill="#000000" font-family="sans-serif" font-size="14" lengthAdjust="spacing" textLength="239" x="27" y="153.2422">addGameObject(GameObject): void</text><ellipse cx="18" cy="165.9395" fill="#84BE84" rx="3" ry="3" style="stroke:#038048;stroke-width:1.0;"/><text fill="#000000" font-family="sans-serif" font-size="14" lengthAdjust="spacing" textLength="168" x="27" y="169.7305">editorUpdate(float): void</text><ellipse cx="18" cy="182.4277" fill="#84BE84" rx="3" ry="3" style="stroke:#038048;stroke-width:1.0;"/><text fill="#000000" font-family="sans-serif" font-size="14" lengthAdjust="spacing" textLength="126" x="27" y="186.2188">update(float): void</text><ellipse cx="18" cy="198.916" fill="#84BE84" rx="3" ry="3" style="stroke:#038048;stroke-width:1.0;"/><text fill="#000000" font-family="sans-serif" font-size="14" lengthAdjust="spacing" textLength="93" x="27" y="202.707">render(): void</text><ellipse cx="18" cy="215.4043" fill="#84BE84" rx="3" ry="3" style="stroke:#038048;stroke-width:1.0;"/><text fill="#000000" font-family="sans-serif" font-size="14" lengthAdjust="spacing" textLength="121" x="27" y="219.1953">camera(): Camera</text><ellipse cx="18" cy="231.8926" fill="#84BE84" rx="3" ry="3" style="stroke:#038048;stroke-width:1.0;"/><text fill="#000000" font-family="sans-serif" font-size="14" lengthAdjust="spacing" textLength="447" x="27" y="235.6836">getGameObjectWith(Class&lt;T extends Component&gt;): GameObject</text><ellipse cx="18" cy="248.3809" fill="#84BE84" rx="3" ry="3" style="stroke:#038048;stroke-width:1.0;"/><text fill="#000000" font-family="sans-serif" font-size="14" lengthAdjust="spacing" textLength="258" x="27" y="252.1719">getGameObjects(): List&lt;GameObject&gt;</text><ellipse cx="18" cy="264.8691" fill="#84BE84" rx="3" ry="3" style="stroke:#038048;stroke-width:1.0;"/><text fill="#000000" font-family="sans-serif" font-size="14" lengthAdjust="spacing" textLength="224" x="27" y="268.6602">getGameObject(int): GameObject</text><ellipse cx="18" cy="281.3574" fill="#84BE84" rx="3" ry="3" style="stroke:#038048;stroke-width:1.0;"/><text fill="#000000" font-family="sans-serif" font-size="14" lengthAdjust="spacing" textLength="247" x="27" y="285.1484">getGameObject(String): GameObject</text><ellipse cx="18" cy="297.8457" fill="#84BE84" rx="3" ry="3" style="stroke:#038048;stroke-width:1.0;"/><text fill="#000000" font-family="sans-serif" font-size="14" lengthAdjust="spacing" textLength="86" x="27" y="301.6367">imgui(): void</text><ellipse cx="18" cy="314.334" fill="#84BE84" rx="3" ry="3" style="stroke:#038048;stroke-width:1.0;"/><text fill="#000000" font-family="sans-serif" font-size="14" lengthAdjust="spacing" textLength="267" x="27" y="318.125">createGameObject(String): GameObject</text><ellipse cx="18" cy="330.8223" fill="#84BE84" rx="3" ry="3" style="stroke:#038048;stroke-width:1.0;"/><text fill="#000000" font-family="sans-serif" font-size="14" lengthAdjust="spacing" textLength="77" x="27" y="334.6133">save(): void</text><ellipse cx="18" cy="347.3105" fill="#84BE84" rx="3" ry="3" style="stroke:#038048;stroke-width:1.0;"/><text fill="#000000" font-family="sans-serif" font-size="14" lengthAdjust="spacing" textLength="77" x="27" y="351.1016">load(): void</text><ellipse cx="18" cy="363.7988" fill="#84BE84" rx="3" ry="3" style="stroke:#038048;stroke-width:1.0;"/><text fill="#000000" font-family="sans-serif" font-size="14" lengthAdjust="spacing" textLength="98" x="27" y="367.5898">destroy(): void</text></g></a><text fill="#888888" font-family="sans-serif" font-size="10" lengthAdjust="spacing" textLength="182" x="152" y="391.2109">UMLDoclet 2.1.0, PlantUML 1.2022.14</text><!--SRC=[ZPDHIyCm4CVV_HJ7HCXGoYO-ZT6N2I9C5ERmOUuXDhSrqYObTnjEyRjxAMDrTfFreKb-zy__hfSK082GmUaIgT8PJh3IGRCFuBp3Cmb3RWq2bXLlO66nCFINbiYv5rpphD14q1cI_SH1_oQTPEZmrMtNlNGfcHAAi0EQe5acjH9citfCSYwB-Ho-QjFud4VfuzixPam365lYuTsEf3lPPRrTrUzxPzdgGZA7RYEmGbLt06jlJKE9TJY0OzB9uP0sfYb0DTEM48sLXauhendLel2wBLdz5mpe38Ps0Pca33hoKJtxLJLoKy-BvLoDuh4Cdm4_MDm8Hhwiv80TfxAzqHwne9ZaUCltjCewFiLJJJXOjpmYjULoPGzySa3fqwacfDVOzf0UcpOrI1pyPY_mlRtIqYOCiF0-3jE7yQtF2lbfhfD-qhk2fq8x5WeNQmnalLFT7m00]--></g></svg>