<?xml version="1.0" encoding="UTF-8" standalone="no"?><svg xmlns="http://www.w3.org/2000/svg" xmlns:xlink="http://www.w3.org/1999/xlink" contentStyleType="text/css" height="577px" preserveAspectRatio="none" style="width:1204px;height:577px;" version="1.1" viewBox="0 0 1204 577" width="1204px" zoomAndPan="magnify"><defs/><g><!--class game.renderer--><a href="game/renderer/package-summary.html" target="_top" title="game/renderer/package-summary.html" xlink:actuate="onRequest" xlink:href="game/renderer/package-summary.html" xlink:show="new" xlink:title="game/renderer/package-summary.html" xlink:type="simple"><g id="elem_game.renderer"><rect codeLine="41" fill="#F1F1F1" height="26.4883" id="game.renderer" rx="2.5" ry="2.5" style="stroke:#181818;stroke-width:0.5;" width="108" x="212" y="93.49"/><text fill="#000000" font-family="sans-serif" font-size="14" lengthAdjust="spacing" textLength="102" x="215" y="112.0252">game.renderer</text></g></a><!--class org.joml--><g id="elem_org.joml"><rect fill="#F1F1F1" height="26.4883" id="org.joml" rx="2.5" ry="2.5" style="stroke:#181818;stroke-width:0.5;" width="64" x="373" y="525.93"/><text fill="#000000" font-family="sans-serif" font-size="14" lengthAdjust="spacing" textLength="58" x="376" y="544.4652">org.joml</text></g><!--class game.engine--><a href="game/engine/package-summary.html" target="_top" title="game/engine/package-summary.html" xlink:actuate="onRequest" xlink:href="game/engine/package-summary.html" xlink:show="new" xlink:title="game/engine/package-summary.html" xlink:type="simple"><g id="elem_game.engine"><rect codeLine="43" fill="#F1F1F1" height="26.4883" id="game.engine" rx="2.5" ry="2.5" style="stroke:#181818;stroke-width:0.5;" width="95" x="546.5" y="179.98"/><text fill="#000000" font-family="sans-serif" font-size="14" lengthAdjust="spacing" textLength="89" x="549.5" y="198.5152">game.engine</text></g></a><!--class game.components--><a href="game/components/package-summary.html" target="_top" title="game/components/package-summary.html" xlink:actuate="onRequest" xlink:href="game/components/package-summary.html" xlink:show="new" xlink:title="game/components/package-summary.html" xlink:type="simple"><g id="elem_game.components"><rect codeLine="45" fill="#F1F1F1" height="26.4883" id="game.components" rx="2.5" ry="2.5" style="stroke:#181818;stroke-width:0.5;" width="133" x="282.5" y="352.96"/><text fill="#000000" font-family="sans-serif" font-size="14" lengthAdjust="spacing" textLength="127" x="285.5" y="371.4952">game.components</text></g></a><!--class game.util--><a href="game/util/package-summary.html" target="_top" title="game/util/package-summary.html" xlink:actuate="onRequest" xlink:href="game/util/package-summary.html" xlink:show="new" xlink:title="game/util/package-summary.html" xlink:type="simple"><g id="elem_game.util"><rect codeLine="47" fill="#F1F1F1" height="26.4883" id="game.util" rx="2.5" ry="2.5" style="stroke:#181818;stroke-width:0.5;" width="70" x="95" y="7"/><text fill="#000000" font-family="sans-serif" font-size="14" lengthAdjust="spacing" textLength="64" x="98" y="25.5352">game.util</text></g></a><!--class game.components.enums--><a href="game/components/enums/package-summary.html" target="_top" title="game/components/enums/package-summary.html" xlink:actuate="onRequest" xlink:href="game/components/enums/package-summary.html" xlink:show="new" xlink:title="game/components/enums/package-summary.html" xlink:type="simple"><g id="elem_game.components.enums"><rect codeLine="49" fill="#F1F1F1" height="26.4883" id="game.components.enums" rx="2.5" ry="2.5" style="stroke:#181818;stroke-width:0.5;" width="183" x="313.5" y="439.44"/><text fill="#000000" font-family="sans-serif" font-size="14" lengthAdjust="spacing" textLength="177" x="316.5" y="457.9752">game.components.enums</text></g></a><!--class game.editor--><a href="game/editor/package-summary.html" target="_top" title="game/editor/package-summary.html" xlink:actuate="onRequest" xlink:href="game/editor/package-summary.html" xlink:show="new" xlink:title="game/editor/package-summary.html" xlink:type="simple"><g id="elem_game.editor"><rect codeLine="51" fill="#F1F1F1" height="26.4883" id="game.editor" rx="2.5" ry="2.5" style="stroke:#181818;stroke-width:0.5;" width="89" x="1102.5" y="439.44"/><text fill="#000000" font-family="sans-serif" font-size="14" lengthAdjust="spacing" textLength="83" x="1105.5" y="457.9752">game.editor</text></g></a><!--class com.google.gson--><g id="elem_com.google.gson"><rect fill="#F1F1F1" height="26.4883" id="com.google.gson" rx="2.5" ry="2.5" style="stroke:#181818;stroke-width:0.5;" width="125" x="689.5" y="439.44"/><text fill="#000000" font-family="sans-serif" font-size="14" lengthAdjust="spacing" textLength="119" x="692.5" y="457.9752">com.google.gson</text></g><!--class game.components.interactives--><a href="game/components/interactives/package-summary.html" target="_top" title="game/components/interactives/package-summary.html" xlink:actuate="onRequest" xlink:href="game/components/interactives/package-summary.html" xlink:show="new" xlink:title="game/components/interactives/package-summary.html" xlink:type="simple"><g id="elem_game.components.interactives"><rect codeLine="53" fill="#F1F1F1" height="26.4883" id="game.components.interactives" rx="2.5" ry="2.5" style="stroke:#181818;stroke-width:0.5;" width="215" x="398.5" y="93.49"/><text fill="#000000" font-family="sans-serif" font-size="14" lengthAdjust="spacing" textLength="209" x="401.5" y="112.0252">game.components.interactives</text></g></a><!--class game.scene--><a href="game/scene/package-summary.html" target="_top" title="game/scene/package-summary.html" xlink:actuate="onRequest" xlink:href="game/scene/package-summary.html" xlink:show="new" xlink:title="game/scene/package-summary.html" xlink:type="simple"><g id="elem_game.scene"><rect codeLine="55" fill="#F1F1F1" height="26.4883" id="game.scene" rx="2.5" ry="2.5" style="stroke:#181818;stroke-width:0.5;" width="87" x="305.5" y="266.47"/><text fill="#000000" font-family="sans-serif" font-size="14" lengthAdjust="spacing" textLength="81" x="308.5" y="285.0052">game.scene</text></g></a><!--class game.observers--><a href="game/observers/package-summary.html" target="_top" title="game/observers/package-summary.html" xlink:actuate="onRequest" xlink:href="game/observers/package-summary.html" xlink:show="new" xlink:title="game/observers/package-summary.html" xlink:type="simple"><g id="elem_game.observers"><rect codeLine="57" fill="#F1F1F1" height="26.4883" id="game.observers" rx="2.5" ry="2.5" style="stroke:#181818;stroke-width:0.5;" width="115" x="962.5" y="266.47"/><text fill="#000000" font-family="sans-serif" font-size="14" lengthAdjust="spacing" textLength="109" x="965.5" y="285.0052">game.observers</text></g></a><!--class game.observers.events--><a href="game/observers/events/package-summary.html" target="_top" title="game/observers/events/package-summary.html" xlink:actuate="onRequest" xlink:href="game/observers/events/package-summary.html" xlink:show="new" xlink:title="game/observers/events/package-summary.html" xlink:type="simple"><g id="elem_game.observers.events"><rect codeLine="59" fill="#F1F1F1" height="26.4883" id="game.observers.events" rx="2.5" ry="2.5" style="stroke:#181818;stroke-width:0.5;" width="163" x="903.5" y="352.96"/><text fill="#000000" font-family="sans-serif" font-size="14" lengthAdjust="spacing" textLength="157" x="906.5" y="371.4952">game.observers.events</text></g></a><!--class imgui.gl3--><g id="elem_imgui.gl3"><rect fill="#F1F1F1" height="26.4883" id="imgui.gl3" rx="2.5" ry="2.5" style="stroke:#181818;stroke-width:0.5;" width="71" x="602.5" y="266.47"/><text fill="#000000" font-family="sans-serif" font-size="14" lengthAdjust="spacing" textLength="65" x="605.5" y="285.0052">imgui.gl3</text></g><!--class imgui.glfw--><g id="elem_imgui.glfw"><rect fill="#F1F1F1" height="26.4883" id="imgui.glfw" rx="2.5" ry="2.5" style="stroke:#181818;stroke-width:0.5;" width="78" x="708" y="266.47"/><text fill="#000000" font-family="sans-serif" font-size="14" lengthAdjust="spacing" textLength="72" x="711" y="285.0052">imgui.glfw</text></g><!--class imgui--><g id="elem_imgui"><rect fill="#F1F1F1" height="26.4883" id="imgui" rx="2.5" ry="2.5" style="stroke:#181818;stroke-width:0.5;" width="45" x="1124.5" y="525.93"/><text fill="#000000" font-family="sans-serif" font-size="14" lengthAdjust="spacing" textLength="39" x="1127.5" y="544.4652">imgui</text></g><!--link game.renderer to org.joml--><g id="link_game.renderer_org.joml"><path codeLine="7" d="M211.81,118.06 C135.61,136.07 6,181.06 6,278.71 C6,278.71 6,278.71 6,367.2 C6,522.98 266.15,538.66 366.32,538.93 " fill="none" id="game.renderer-to-org.joml" style="stroke:#181818;stroke-width:1.0;"/><polygon fill="#181818" points="371.17,538.92,362.17,534.92,366.17,538.92,362.17,542.92,371.17,538.92" style="stroke:#181818;stroke-width:1.0;"/></g><!--link game.renderer to game.engine--><g id="link_game.renderer_game.engine"><path codeLine="8" d="M306.02,120.47 C364.87,136.8 473.91,164.86 539.83,180.61 " fill="none" id="game.renderer-to-game.engine" style="stroke:#181818;stroke-width:1.0;"/><polygon fill="#181818" points="544.59,181.75,536.762,175.7732,539.7261,180.5913,534.908,183.5554,544.59,181.75" style="stroke:#181818;stroke-width:1.0;"/></g><!--link game.engine to game.renderer--><g id="link_game.engine_game.renderer"><path codeLine="25" d="M554.68,179.52 C497.82,163.68 393.18,136.71 326.51,120.73 " fill="none" id="game.engine-to-game.renderer" style="stroke:#181818;stroke-width:1.0;"/><polygon fill="#181818" points="321.65,119.57,329.478,125.5468,326.5139,120.7287,331.332,117.7646,321.65,119.57" style="stroke:#181818;stroke-width:1.0;"/></g><!--link game.renderer to game.components--><g id="link_game.renderer_game.components"><path codeLine="9" d="M244.2,120.24 C230.12,134.04 215.73,157.32 210,179.98 C197.7,228.66 185.13,249.33 210,292.96 C225.94,320.92 257.44,339.17 286.7,350.33 " fill="none" id="game.renderer-to-game.components" style="stroke:#181818;stroke-width:1.0;"/><polygon fill="#181818" points="291.09,351.94,284.0122,345.0913,286.3944,350.2221,281.2636,352.6043,291.09,351.94" style="stroke:#181818;stroke-width:1.0;"/></g><!--link game.components to game.renderer--><g id="link_game.components_game.renderer"><path codeLine="14" d="M321.85,352.47 C296.7,341.56 262,322.79 245,292.96 C220.13,249.33 232.7,228.66 245,179.98 C249.97,160.33 261.45,140.21 267.59,126.22 " fill="none" id="game.components-to-game.renderer" style="stroke:#181818;stroke-width:1.0;"/><polygon fill="#181818" points="269.43,121.64,262.3736,128.5107,267.573,126.2824,269.8014,131.4819,269.43,121.64" style="stroke:#181818;stroke-width:1.0;"/></g><!--link game.util to game.renderer--><g id="link_game.util_game.renderer"><path codeLine="10" d="M150.36,33.89 C174.3,48.76 214.06,73.47 240.15,89.68 " fill="none" id="game.util-to-game.renderer" style="stroke:#181818;stroke-width:1.0;"/><polygon fill="#181818" points="244.21,92.2,238.6857,84.0464,239.966,89.5564,234.4559,90.8368,244.21,92.2" style="stroke:#181818;stroke-width:1.0;"/></g><!--link game.util to game.components--><g id="link_game.util_game.components"><path codeLine="11" d="M130.21,33.94 C131.56,75.84 141.12,211.66 208,292.96 C230.94,320.83 267.42,339.12 297.52,350.31 " fill="none" id="game.util-to-game.components" style="stroke:#181818;stroke-width:1.0;"/><polygon fill="#181818" points="302.03,351.94,294.9272,345.1173,297.3281,350.2393,292.2061,352.6403,302.03,351.94" style="stroke:#181818;stroke-width:1.0;"/></g><!--link game.components to org.joml--><g id="link_game.components_org.joml"><path codeLine="12" d="M333.73,379.67 C312.73,398.4 279.34,434.91 296,465.93 C310.91,493.71 341.72,512.61 366.79,524.09 " fill="none" id="game.components-to-org.joml" style="stroke:#181818;stroke-width:1.0;"/><polygon fill="#181818" points="371.31,526.09,364.706,518.7833,366.7398,524.062,361.4611,526.0957,371.31,526.09" style="stroke:#181818;stroke-width:1.0;"/></g><!--link game.components to game.engine--><g id="link_game.components_game.engine"><path codeLine="13" d="M374.52,352.61 C425.7,322.27 536.59,245.1 578.48,210.94 " fill="none" id="game.components-to-game.engine" style="stroke:#181818;stroke-width:1.0;"/><polygon fill="#181818" points="582.3,207.76,572.8243,210.4453,578.4577,210.9595,577.9435,216.593,582.3,207.76" style="stroke:#181818;stroke-width:1.0;"/></g><!--link game.engine to game.components--><g id="link_game.engine_game.components"><path codeLine="28" d="M568.92,206.79 C518.1,237.18 406.87,314.6 364.76,348.67 " fill="none" id="game.engine-to-game.components" style="stroke:#181818;stroke-width:1.0;"/><polygon fill="#181818" points="361.15,351.65,370.6423,349.0238,365.0121,348.4745,365.5614,342.8443,361.15,351.65" style="stroke:#181818;stroke-width:1.0;"/></g><!--link game.components to game.components.enums--><g id="link_game.components_game.components.enums"><path codeLine="15" d="M357.26,379.67 C366.78,394.02 382.47,417.7 393.25,433.96 " fill="none" id="game.components-to-game.components.enums" style="stroke:#181818;stroke-width:1.0;"/><polygon fill="#181818" points="395.87,437.91,394.2059,428.2027,393.0965,433.7497,387.5495,432.6403,395.87,437.91" style="stroke:#181818;stroke-width:1.0;"/></g><!--link game.components to game.editor--><g id="link_game.components_game.editor"><path codeLine="16" d="M415.66,374.26 C571.46,390.75 956.71,431.54 1095.84,446.27 " fill="none" id="game.components-to-game.editor" style="stroke:#181818;stroke-width:1.0;"/><polygon fill="#181818" points="1100.77,446.79,1092.2433,441.8609,1095.798,446.2614,1091.3975,449.816,1100.77,446.79" style="stroke:#181818;stroke-width:1.0;"/></g><!--link game.components to com.google.gson--><g id="link_game.components_com.google.gson"><path codeLine="17" d="M409.77,379.94 C483.77,395.45 608.35,421.57 685.04,437.65 " fill="none" id="game.components-to-com.google.gson" style="stroke:#181818;stroke-width:1.0;"/><polygon fill="#181818" points="689.91,438.67,681.9237,432.9064,685.0166,437.6428,680.2802,440.7358,689.91,438.67" style="stroke:#181818;stroke-width:1.0;"/></g><!--link game.components.interactives to game.components--><g id="link_game.components.interactives_game.components"><path codeLine="18" d="M472.41,120.47 C421.56,141.81 326.86,190.11 288,266.47 C272.73,296.48 303.39,329.38 326.52,348.61 " fill="none" id="game.components.interactives-to-game.components" style="stroke:#181818;stroke-width:1.0;"/><polygon fill="#181818" points="330.15,351.55,325.6679,342.7801,326.2624,348.4057,320.6369,349.0002,330.15,351.55" style="stroke:#181818;stroke-width:1.0;"/></g><!--link game.components.interactives to game.engine--><g id="link_game.components.interactives_game.engine"><path codeLine="19" d="M518.98,120.2 C534.19,134.8 559.46,159.06 576.42,175.34 " fill="none" id="game.components.interactives-to-game.engine" style="stroke:#181818;stroke-width:1.0;"/><polygon fill="#181818" points="579.87,178.66,576.1499,169.5407,576.2639,175.1965,570.6082,175.3105,579.87,178.66" style="stroke:#181818;stroke-width:1.0;"/></g><!--link game.scene to game.components--><g id="link_game.scene_game.components"><path codeLine="20" d="M349,293.18 C349,307.15 349,329.98 349,346.19 " fill="none" id="game.scene-to-game.components" style="stroke:#181818;stroke-width:1.0;"/><polygon fill="#181818" points="349,351.17,353,342.17,349,346.17,345,342.17,349,351.17" style="stroke:#181818;stroke-width:1.0;"/></g><!--link game.scene to game.engine--><g id="link_game.scene_game.engine"><path codeLine="21" d="M392.86,266.93 C441.42,251.82 517.72,225.61 561.35,209.13 " fill="none" id="game.scene-to-game.engine" style="stroke:#181818;stroke-width:1.0;"/><polygon fill="#181818" points="565.87,207.41,556.0365,206.861,561.1948,209.1828,558.873,214.3412,565.87,207.41" style="stroke:#181818;stroke-width:1.0;"/></g><!--link game.engine to game.scene--><g id="link_game.engine_game.scene"><path codeLine="26" d="M547.62,206.96 C499.22,222.2 425.21,247.65 382.26,263.79 " fill="none" id="game.engine-to-game.scene" style="stroke:#181818;stroke-width:1.0;"/><polygon fill="#181818" points="377.83,265.47,387.663,266.029,382.5069,263.7019,384.834,258.5458,377.83,265.47" style="stroke:#181818;stroke-width:1.0;"/></g><!--link game.scene to game.renderer--><g id="link_game.scene_game.renderer"><path codeLine="22" d="M342.89,266.12 C328.37,236.21 291.76,160.8 274.84,125.93 " fill="none" id="game.scene-to-game.renderer" style="stroke:#181818;stroke-width:1.0;"/><polygon fill="#181818" points="272.76,121.67,273.0941,131.5132,274.9445,126.1675,280.2902,128.018,272.76,121.67" style="stroke:#181818;stroke-width:1.0;"/></g><!--link game.engine to org.joml--><g id="link_game.engine_org.joml"><path codeLine="23" d="M591.47,206.89 C581.79,254.57 545.98,422.61 514,465.93 C495.15,491.46 464.39,510.65 440.34,522.82 " fill="none" id="game.engine-to-org.joml" style="stroke:#181818;stroke-width:1.0;"/><polygon fill="#181818" points="436.05,524.93,445.8909,524.5331,440.5335,522.7168,442.3497,517.3595,436.05,524.93" style="stroke:#181818;stroke-width:1.0;"/></g><!--link game.engine to game.observers--><g id="link_game.engine_game.observers"><path codeLine="24" d="M641.99,205.53 C719.04,221.8 869.51,251.64 955.72,267.73 " fill="none" id="game.engine-to-game.observers" style="stroke:#181818;stroke-width:1.0;"/><polygon fill="#181818" points="960.58,268.64,952.4635,263.0613,955.6643,267.7255,951.0002,270.9263,960.58,268.64" style="stroke:#181818;stroke-width:1.0;"/></g><!--link game.observers to game.engine--><g id="link_game.observers_game.engine"><path codeLine="33" d="M965.86,265.99 C883.92,248.74 730.21,218.33 648.21,203.24 " fill="none" id="game.observers-to-game.engine" style="stroke:#181818;stroke-width:1.0;"/><polygon fill="#181818" points="643.44,202.37,651.5722,207.9259,648.3582,203.2707,653.0133,200.0567,643.44,202.37" style="stroke:#181818;stroke-width:1.0;"/></g><!--link game.engine to game.observers.events--><g id="link_game.engine_game.observers.events"><path codeLine="27" d="M641.76,200.64 C697.7,209.54 792.02,228.98 865,266.47 C906.9,287.99 947.46,326.07 969.02,348.12 " fill="none" id="game.engine-to-game.observers.events" style="stroke:#181818;stroke-width:1.0;"/><polygon fill="#181818" points="972.27,351.48,968.8648,342.2385,968.7848,347.8948,963.1285,347.8148,972.27,351.48" style="stroke:#181818;stroke-width:1.0;"/></g><!--link game.engine to imgui.gl3--><g id="link_game.engine_imgui.gl3"><path codeLine="29" d="M600.49,206.69 C607.9,220.92 620.08,244.31 628.55,260.56 " fill="none" id="game.engine-to-imgui.gl3" style="stroke:#181818;stroke-width:1.0;"/><polygon fill="#181818" points="630.78,264.85,630.1817,255.0193,628.4755,260.4127,623.0821,258.7065,630.78,264.85" style="stroke:#181818;stroke-width:1.0;"/></g><!--link game.engine to imgui.glfw--><g id="link_game.engine_imgui.glfw"><path codeLine="30" d="M616.91,206.87 C643.95,221.8 688.94,246.65 718.29,262.86 " fill="none" id="game.engine-to-imgui.glfw" style="stroke:#181818;stroke-width:1.0;"/><polygon fill="#181818" points="722.61,265.24,716.6655,257.3874,718.2332,262.8227,712.7979,264.3904,722.61,265.24" style="stroke:#181818;stroke-width:1.0;"/></g><!--link game.engine to game.editor--><g id="link_game.engine_game.editor"><path codeLine="31" d="M641.95,194.87 C751.33,197.37 1012.93,209.38 1078,266.47 C1127.37,309.78 1131.58,395.82 1138.58,433.41 " fill="none" id="game.engine-to-game.editor" style="stroke:#181818;stroke-width:1.0;"/><polygon fill="#181818" points="1139.52,437.94,1141.5801,428.309,1138.4899,433.0473,1133.7517,429.9571,1139.52,437.94" style="stroke:#181818;stroke-width:1.0;"/></g><!--link game.editor to game.engine--><g id="link_game.editor_game.engine"><path codeLine="36" d="M1156.05,439.43 C1166.91,405.92 1165.22,312.28 1113,266.47 C1045.59,207.32 767.22,196.57 647.99,194.63 " fill="none" id="game.editor-to-game.engine" style="stroke:#181818;stroke-width:1.0;"/><polygon fill="#181818" points="643.26,194.56,652.2019,198.6882,648.2595,194.6314,652.3162,190.689,643.26,194.56" style="stroke:#181818;stroke-width:1.0;"/></g><!--link game.engine to com.google.gson--><g id="link_game.engine_com.google.gson"><path codeLine="32" d="M641.88,195.68 C691.43,200.05 766.58,215.34 803,266.47 C840.81,319.54 791.19,399.5 765.58,434.38 " fill="none" id="game.engine-to-com.google.gson" style="stroke:#181818;stroke-width:1.0;"/><polygon fill="#181818" points="762.89,437.98,771.4707,433.1457,765.874,433.968,765.0516,428.3713,762.89,437.98" style="stroke:#181818;stroke-width:1.0;"/></g><!--link game.observers to game.observers.events--><g id="link_game.observers_game.observers.events"><path codeLine="34" d="M1014.84,293.18 C1008.94,307.4 999.25,330.8 992.52,347.05 " fill="none" id="game.observers-to-game.observers.events" style="stroke:#181818;stroke-width:1.0;"/><polygon fill="#181818" points="990.76,351.28,997.896,344.492,992.6709,346.6596,990.5033,341.4345,990.76,351.28" style="stroke:#181818;stroke-width:1.0;"/></g><!--link game.editor to org.joml--><g id="link_game.editor_org.joml"><path codeLine="35" d="M1102.26,458.78 C967.91,474.08 569.6,519.43 443.64,533.78 " fill="none" id="game.editor-to-org.joml" style="stroke:#181818;stroke-width:1.0;"/><polygon fill="#181818" points="439,534.3,448.3979,537.2461,443.9673,533.729,447.4844,529.2984,439,534.3" style="stroke:#181818;stroke-width:1.0;"/></g><!--link game.editor to game.renderer--><g id="link_game.editor_game.renderer"><path codeLine="37" d="M1156.04,439.14 C1165.4,425.31 1179.43,402.01 1185,379.44 C1197.67,328.15 1189.34,299.37 1148,266.47 C1083.16,214.85 515.21,139.19 326.59,115.27 " fill="none" id="game.editor-to-game.renderer" style="stroke:#181818;stroke-width:1.0;"/><polygon fill="#181818" points="321.82,114.67,330.2453,119.7704,326.7803,115.299,331.2517,111.8339,321.82,114.67" style="stroke:#181818;stroke-width:1.0;"/></g><!--link game.editor to imgui--><g id="link_game.editor_imgui"><path codeLine="38" d="M1147,466.15 C1147,480.13 1147,502.96 1147,519.16 " fill="none" id="game.editor-to-imgui" style="stroke:#181818;stroke-width:1.0;"/><polygon fill="#181818" points="1147,524.14,1151,515.14,1147,519.14,1143,515.14,1147,524.14" style="stroke:#181818;stroke-width:1.0;"/></g><text fill="#888888" font-family="sans-serif" font-size="10" lengthAdjust="spacing" textLength="182" x="504.335" y="567.0863">UMLDoclet 2.1.0, PlantUML 1.2022.14</text><!--SRC=[fLNBJiCm4Bpp5Iia14ZKlEwSE8A4X3WX3iRPkgP-LBPJX13_ZcD375Ax9N2gTcOyEra_2W3WbaAlgAKAdYbRScjQtJ0ZZGLlgNQ1Gktte5EY1qqL1epXFNQBV91fep7o2z4WC66P7DIeLluDvW9buyQeGhym0Ouu3yuaz6hGeeNPx0gCvUJ5A5cX8uAQYw_s5GKpQXKIQk-oglL2PiNtcXfVSiXO9Uf8K0nRqco6AQao5anRvNRqRKJOgAecb8GRmoKIxemkwOZG7YrbNgpH_NOobKNZAJY66hTxZYGx73P7c1PKTcf0njeyExHhjAuksTeXH_f53uBhdvywLfR6CT08nLj1kBpSoivVwmt6XsF0Lmz67x- -9mN9be-E6MhxaybYfp5Vs9oiY1D93yuXt8K7Zt84AVGofM6IEWVxFtpsuV6n0qw_WTDLMZTphLBKlf65L_Bf2TwZnSU6KGhSswHogaa-1xrHXgQQTUzRRzCLVq-JtfzIfaXCdbNSgZohMFuZtV09AeKSybFRn3lUcyPggaL_9NgR7lcprTVjAZWcOfTnSiPkC30tfljvkBsvDk5ltSC5EITd9t0dgVO1XOFEM1XzTFm9]--></g></svg>