<?xml version="1.0" encoding="us-ascii" standalone="no"?><svg xmlns="http://www.w3.org/2000/svg" xmlns:xlink="http://www.w3.org/1999/xlink" contentStyleType="text/css" height="692px" preserveAspectRatio="none" style="width:1114px;height:692px;background:#FFFFFF;" version="1.1" viewBox="0 0 1114 692" width="1114px" zoomAndPan="magnify"><defs/><g><!--cluster javafx--><g id="cluster_javafx"><path d="M895,519.91 L939,519.91 A3.75,3.75 0 0 1 941.5,522.41 L948.5,542.3983 L1080,542.3983 A2.5,2.5 0 0 1 1082.5,544.8983 L1082.5,683.41 A2.5,2.5 0 0 1 1080,685.91 L895,685.91 A2.5,2.5 0 0 1 892.5,683.41 L892.5,522.41 A2.5,2.5 0 0 1 895,519.91 " fill="none" style="stroke:#000000;stroke-width:1.5;"/><line style="stroke:#000000;stroke-width:1.5;" x1="892.5" x2="948.5" y1="542.3983" y2="542.3983"/><text fill="#000000" font-family="sans-serif" font-size="14" font-weight="bold" lengthAdjust="spacing" textLength="43" x="896.5" y="535.4452">javafx</text></g><!--cluster application--><g id="cluster_application"><path d="M919,562.91 L1000,562.91 A3.75,3.75 0 0 1 1002.5,565.41 L1009.5,585.3983 L1056,585.3983 A2.5,2.5 0 0 1 1058.5,587.8983 L1058.5,659.41 A2.5,2.5 0 0 1 1056,661.91 L919,661.91 A2.5,2.5 0 0 1 916.5,659.41 L916.5,565.41 A2.5,2.5 0 0 1 919,562.91 " fill="none" style="stroke:#000000;stroke-width:1.5;"/><line style="stroke:#000000;stroke-width:1.5;" x1="916.5" x2="1009.5" y1="585.3983" y2="585.3983"/><text fill="#000000" font-family="sans-serif" font-size="14" font-weight="bold" lengthAdjust="spacing" textLength="80" x="920.5" y="578.4452">application</text></g><!--cluster java--><g id="cluster_java"><path d="M221,6 L251,6 A3.75,3.75 0 0 1 253.5,8.5 L260.5,28.4883 L1105,28.4883 A2.5,2.5 0 0 1 1107.5,30.9883 L1107.5,484.41 A2.5,2.5 0 0 1 1105,486.91 L221,486.91 A2.5,2.5 0 0 1 218.5,484.41 L218.5,8.5 A2.5,2.5 0 0 1 221,6 " fill="none" style="stroke:#000000;stroke-width:1.5;"/><line style="stroke:#000000;stroke-width:1.5;" x1="218.5" x2="260.5" y1="28.4883" y2="28.4883"/><text fill="#000000" font-family="sans-serif" font-size="14" font-weight="bold" lengthAdjust="spacing" textLength="29" x="222.5" y="21.5352">java</text></g><!--class Application--><g id="elem_Application"><rect codeLine="3" fill="#F1F1F1" height="48" id="Application" rx="2.5" ry="2.5" style="stroke:#181818;stroke-width:0.5;" width="110" x="932.5" y="597.91"/><ellipse cx="947.5" cy="613.91" fill="#ADD1B2" rx="11" ry="11" style="stroke:#181818;stroke-width:1.0;"/><path d="M949.9731,620.0531 Q949.3921,620.3519 948.7529,620.5013 Q948.1138,620.6507 947.4082,620.6507 Q944.9014,620.6507 943.5815,618.9989 Q942.2617,617.347 942.2617,614.2259 Q942.2617,611.0965 943.5815,609.4447 Q944.9014,607.7928 947.4082,607.7928 Q948.1138,607.7928 948.7612,607.9422 Q949.4087,608.0916 949.9731,608.3905 L949.9731,611.1131 Q949.3423,610.5321 948.7488,610.2623 Q948.1553,609.9925 947.5244,609.9925 Q946.1797,609.9925 945.4949,611.0592 Q944.8101,612.1258 944.8101,614.2259 Q944.8101,616.3177 945.4949,617.3844 Q946.1797,618.451 947.5244,618.451 Q948.1553,618.451 948.7488,618.1812 Q949.3423,617.9115 949.9731,617.3304 Z " fill="#000000"/><text fill="#000000" font-family="sans-serif" font-size="14" lengthAdjust="spacing" textLength="78" x="961.5" y="619.201">Application</text><line style="stroke:#181818;stroke-width:0.5;" x1="933.5" x2="1041.5" y1="629.91" y2="629.91"/><line style="stroke:#181818;stroke-width:0.5;" x1="933.5" x2="1041.5" y1="637.91" y2="637.91"/></g><!--class Main--><g id="elem_Main"><rect codeLine="7" fill="#F1F1F1" height="64.4883" id="Main" rx="2.5" ry="2.5" style="stroke:#181818;stroke-width:0.5;" width="204" x="887.5" y="57.49"/><ellipse cx="968.75" cy="73.49" fill="#ADD1B2" rx="11" ry="11" style="stroke:#181818;stroke-width:1.0;"/><path d="M971.2231,79.6331 Q970.6421,79.9319 970.0029,80.0813 Q969.3638,80.2307 968.6582,80.2307 Q966.1514,80.2307 964.8315,78.5789 Q963.5117,76.927 963.5117,73.8059 Q963.5117,70.6765 964.8315,69.0247 Q966.1514,67.3728 968.6582,67.3728 Q969.3638,67.3728 970.0112,67.5222 Q970.6587,67.6716 971.2231,67.9705 L971.2231,70.6931 Q970.5923,70.1121 969.9988,69.8423 Q969.4053,69.5725 968.7744,69.5725 Q967.4297,69.5725 966.7449,70.6392 Q966.0601,71.7058 966.0601,73.8059 Q966.0601,75.8977 966.7449,76.9644 Q967.4297,78.031 968.7744,78.031 Q969.4053,78.031 969.9988,77.7612 Q970.5923,77.4915 971.2231,76.9104 Z " fill="#000000"/><text fill="#000000" font-family="sans-serif" font-size="14" lengthAdjust="spacing" textLength="33" x="989.25" y="78.781">Main</text><line style="stroke:#181818;stroke-width:0.5;" x1="888.5" x2="1090.5" y1="89.49" y2="89.49"/><line style="stroke:#181818;stroke-width:0.5;" x1="888.5" x2="1090.5" y1="97.49" y2="97.49"/><ellipse cx="898.5" cy="111.2341" fill="#84BE84" rx="3" ry="3" style="stroke:#038048;stroke-width:1.0;"/><text fill="#000000" font-family="sans-serif" font-size="14" lengthAdjust="spacing" textLength="178" x="907.5" y="115.0252">main(args : String[]) : void</text></g><!--class Entity--><g id="elem_Entity"><rect codeLine="10" fill="#F1F1F1" height="97.4648" id="Entity" rx="2.5" ry="2.5" style="stroke:#181818;stroke-width:0.5;" width="132" x="720.5" y="41"/><ellipse cx="763.4" cy="57" fill="#ADD1B2" rx="11" ry="11" style="stroke:#181818;stroke-width:1.0;"/><path d="M767.0143,63.5 L759.2945,63.5 L759.2945,51.1069 L767.0143,51.1069 L767.0143,53.2651 L761.7433,53.2651 L761.7433,55.938 L766.5162,55.938 L766.5162,58.0962 L761.7433,58.0962 L761.7433,61.3418 L767.0143,61.3418 Z " fill="#000000"/><text fill="#000000" font-family="sans-serif" font-size="14" lengthAdjust="spacing" textLength="38" x="783.6" y="62.291">Entity</text><line style="stroke:#181818;stroke-width:0.5;" x1="721.5" x2="851.5" y1="73" y2="73"/><rect fill="none" height="6" style="stroke:#C82930;stroke-width:1.0;" width="6" x="728.5" y="83.7441"/><text fill="#000000" font-family="sans-serif" font-size="14" lengthAdjust="spacing" textLength="106" x="740.5" y="90.5352">position: vector</text><rect fill="none" height="6" style="stroke:#C82930;stroke-width:1.0;" width="6" x="728.5" y="100.2324"/><text fill="#000000" font-family="sans-serif" font-size="14" lengthAdjust="spacing" textLength="99" x="740.5" y="107.0234">inventar: array</text><line style="stroke:#181818;stroke-width:0.5;" x1="721.5" x2="851.5" y1="113.9766" y2="113.9766"/><ellipse cx="731.5" cy="127.7207" fill="#84BE84" rx="3" ry="3" style="stroke:#038048;stroke-width:1.0;"/><text fill="#000000" font-family="sans-serif" font-size="14" lengthAdjust="spacing" textLength="98" x="740.5" y="131.5117">interact() : self</text></g><!--class Game--><g id="elem_Game"><rect codeLine="15" fill="#F1F1F1" height="48" id="Game" rx="2.5" ry="2.5" style="stroke:#181818;stroke-width:0.5;" width="71" x="941" y="215.47"/><ellipse cx="956" cy="231.47" fill="#ADD1B2" rx="11" ry="11" style="stroke:#181818;stroke-width:1.0;"/><path d="M958.4731,237.6131 Q957.8921,237.9119 957.2529,238.0613 Q956.6138,238.2107 955.9082,238.2107 Q953.4014,238.2107 952.0815,236.5589 Q950.7617,234.907 950.7617,231.7859 Q950.7617,228.6565 952.0815,227.0047 Q953.4014,225.3528 955.9082,225.3528 Q956.6138,225.3528 957.2612,225.5022 Q957.9087,225.6516 958.4731,225.9505 L958.4731,228.6731 Q957.8423,228.0921 957.2488,227.8223 Q956.6553,227.5525 956.0244,227.5525 Q954.6797,227.5525 953.9949,228.6192 Q953.3101,229.6858 953.3101,231.7859 Q953.3101,233.8777 953.9949,234.9444 Q954.6797,236.011 956.0244,236.011 Q956.6553,236.011 957.2488,235.7412 Q957.8423,235.4715 958.4731,234.8904 Z " fill="#000000"/><text fill="#000000" font-family="sans-serif" font-size="14" lengthAdjust="spacing" textLength="39" x="970" y="236.761">Game</text><line style="stroke:#181818;stroke-width:0.5;" x1="942" x2="1011" y1="247.47" y2="247.47"/><line style="stroke:#181818;stroke-width:0.5;" x1="942" x2="1011" y1="255.47" y2="255.47"/></g><!--class GameLoop--><g id="elem_GameLoop"><rect codeLine="16" fill="#F1F1F1" height="130.4414" id="GameLoop" rx="2.5" ry="2.5" style="stroke:#181818;stroke-width:0.5;" width="296" x="563.5" y="340.47"/><ellipse cx="670.75" cy="356.47" fill="#ADD1B2" rx="11" ry="11" style="stroke:#181818;stroke-width:1.0;"/><path d="M673.2231,362.6131 Q672.6421,362.9119 672.0029,363.0613 Q671.3638,363.2107 670.6582,363.2107 Q668.1514,363.2107 666.8315,361.5589 Q665.5117,359.907 665.5117,356.7859 Q665.5117,353.6565 666.8315,352.0047 Q668.1514,350.3528 670.6582,350.3528 Q671.3638,350.3528 672.0112,350.5022 Q672.6587,350.6516 673.2231,350.9505 L673.2231,353.6731 Q672.5923,353.0921 671.9988,352.8223 Q671.4053,352.5525 670.7744,352.5525 Q669.4297,352.5525 668.7449,353.6192 Q668.0601,354.6858 668.0601,356.7859 Q668.0601,358.8777 668.7449,359.9444 Q669.4297,361.011 670.7744,361.011 Q671.4053,361.011 671.9988,360.7412 Q672.5923,360.4715 673.2231,359.8904 Z " fill="#000000"/><text fill="#000000" font-family="sans-serif" font-size="14" lengthAdjust="spacing" textLength="73" x="691.25" y="361.761">GameLoop</text><line style="stroke:#181818;stroke-width:0.5;" x1="564.5" x2="858.5" y1="372.47" y2="372.47"/><rect fill="none" height="6" style="stroke:#C82930;stroke-width:1.0;" width="6" x="571.5" y="383.2141"/><text fill="#000000" font-family="sans-serif" font-size="14" lengthAdjust="spacing" textLength="137" x="583.5" y="390.0052">isRunning : boolean</text><line style="stroke:#181818;stroke-width:0.5;" x1="564.5" x2="858.5" y1="396.9583" y2="396.9583"/><ellipse cx="574.5" cy="410.7024" fill="#84BE84" rx="3" ry="3" style="stroke:#038048;stroke-width:1.0;"/><text fill="#000000" font-family="sans-serif" font-size="14" lengthAdjust="spacing" textLength="270" x="583.5" y="414.4934">start(GameWindow gamewindow) : void</text><ellipse cx="574.5" cy="427.1907" fill="#84BE84" rx="3" ry="3" style="stroke:#038048;stroke-width:1.0;"/><text fill="#000000" font-family="sans-serif" font-size="14" lengthAdjust="spacing" textLength="81" x="583.5" y="430.9817">stop() : void</text><ellipse cx="574.5" cy="443.679" fill="#84BE84" rx="3" ry="3" style="stroke:#038048;stroke-width:1.0;"/><text fill="#000000" font-family="sans-serif" font-size="14" lengthAdjust="spacing" textLength="99" x="583.5" y="447.47">update() : void</text><ellipse cx="574.5" cy="460.1673" fill="#84BE84" rx="3" ry="3" style="stroke:#038048;stroke-width:1.0;"/><text fill="#000000" font-family="sans-serif" font-size="14" lengthAdjust="spacing" textLength="97" x="583.5" y="463.9583">render() : void</text></g><!--class GameState--><g id="elem_GameState"><rect codeLine="23" fill="#F1F1F1" height="80.9766" id="GameState" rx="2.5" ry="2.5" style="stroke:#181818;stroke-width:0.5;" width="269" x="417" y="49.25"/><ellipse cx="510.75" cy="65.25" fill="#ADD1B2" rx="11" ry="11" style="stroke:#181818;stroke-width:1.0;"/><path d="M513.2231,71.3931 Q512.6421,71.6919 512.0029,71.8413 Q511.3638,71.9907 510.6582,71.9907 Q508.1514,71.9907 506.8315,70.3389 Q505.5117,68.687 505.5117,65.5659 Q505.5117,62.4365 506.8315,60.7847 Q508.1514,59.1328 510.6582,59.1328 Q511.3638,59.1328 512.0112,59.2822 Q512.6587,59.4316 513.2231,59.7305 L513.2231,62.4531 Q512.5923,61.8721 511.9988,61.6023 Q511.4053,61.3325 510.7744,61.3325 Q509.4297,61.3325 508.7449,62.3992 Q508.0601,63.4658 508.0601,65.5659 Q508.0601,67.6577 508.7449,68.7244 Q509.4297,69.791 510.7744,69.791 Q511.4053,69.791 511.9988,69.5212 Q512.5923,69.2515 513.2231,68.6704 Z " fill="#000000"/><text fill="#000000" font-family="sans-serif" font-size="14" lengthAdjust="spacing" textLength="73" x="531.25" y="70.541">GameState</text><line style="stroke:#181818;stroke-width:0.5;" x1="418" x2="685" y1="81.25" y2="81.25"/><rect fill="none" height="6" style="stroke:#C82930;stroke-width:1.0;" width="6" x="425" y="91.9941"/><text fill="#000000" font-family="sans-serif" font-size="14" lengthAdjust="spacing" textLength="130" x="437" y="98.7852">currentState : State</text><line style="stroke:#181818;stroke-width:0.5;" x1="418" x2="685" y1="105.7383" y2="105.7383"/><ellipse cx="428" cy="119.4824" fill="#84BE84" rx="3" ry="3" style="stroke:#038048;stroke-width:1.0;"/><text fill="#000000" font-family="sans-serif" font-size="14" lengthAdjust="spacing" textLength="243" x="437" y="123.2734">changeState(newState : State) : void</text></g><!--class GameWindow--><g id="elem_GameWindow"><rect codeLine="27" fill="#F1F1F1" height="80.9766" id="GameWindow" rx="2.5" ry="2.5" style="stroke:#181818;stroke-width:0.5;" width="187" x="894" y="365.2"/><ellipse cx="936.9" cy="381.2" fill="#ADD1B2" rx="11" ry="11" style="stroke:#181818;stroke-width:1.0;"/><path d="M939.3731,387.3431 Q938.7921,387.6419 938.1529,387.7913 Q937.5138,387.9407 936.8082,387.9407 Q934.3014,387.9407 932.9815,386.2889 Q931.6617,384.637 931.6617,381.5159 Q931.6617,378.3865 932.9815,376.7347 Q934.3014,375.0828 936.8082,375.0828 Q937.5138,375.0828 938.1612,375.2322 Q938.8087,375.3816 939.3731,375.6805 L939.3731,378.4031 Q938.7423,377.8221 938.1488,377.5523 Q937.5553,377.2825 936.9244,377.2825 Q935.5797,377.2825 934.8949,378.3492 Q934.2101,379.4158 934.2101,381.5159 Q934.2101,383.6077 934.8949,384.6744 Q935.5797,385.741 936.9244,385.741 Q937.5553,385.741 938.1488,385.4712 Q938.7423,385.2015 939.3731,384.6204 Z " fill="#000000"/><text fill="#000000" font-family="sans-serif" font-size="14" lengthAdjust="spacing" textLength="93" x="957.1" y="386.491">GameWindow</text><line style="stroke:#181818;stroke-width:0.5;" x1="895" x2="1080" y1="397.2" y2="397.2"/><line style="stroke:#181818;stroke-width:0.5;" x1="895" x2="1080" y1="405.2" y2="405.2"/><ellipse cx="905" cy="418.9441" fill="#84BE84" rx="3" ry="3" style="stroke:#038048;stroke-width:1.0;"/><text fill="#000000" font-family="sans-serif" font-size="14" lengthAdjust="spacing" textLength="85" x="914" y="422.7352">main() : void</text><ellipse cx="905" cy="435.4324" fill="#84BE84" rx="3" ry="3" style="stroke:#038048;stroke-width:1.0;"/><text fill="#000000" font-family="sans-serif" font-size="14" lengthAdjust="spacing" textLength="161" x="914" y="439.2234">start(Stage stage) : void</text></g><!--class Player--><g id="elem_Player"><rect codeLine="31" fill="#F1F1F1" height="48" id="Player" rx="2.5" ry="2.5" style="stroke:#181818;stroke-width:0.5;" width="73" x="750" y="215.47"/><ellipse cx="765" cy="231.47" fill="#ADD1B2" rx="11" ry="11" style="stroke:#181818;stroke-width:1.0;"/><path d="M767.4731,237.6131 Q766.8921,237.9119 766.2529,238.0613 Q765.6138,238.2107 764.9082,238.2107 Q762.4014,238.2107 761.0815,236.5589 Q759.7617,234.907 759.7617,231.7859 Q759.7617,228.6565 761.0815,227.0047 Q762.4014,225.3528 764.9082,225.3528 Q765.6138,225.3528 766.2612,225.5022 Q766.9087,225.6516 767.4731,225.9505 L767.4731,228.6731 Q766.8423,228.0921 766.2488,227.8223 Q765.6553,227.5525 765.0244,227.5525 Q763.6797,227.5525 762.9949,228.6192 Q762.3101,229.6858 762.3101,231.7859 Q762.3101,233.8777 762.9949,234.9444 Q763.6797,236.011 765.0244,236.011 Q765.6553,236.011 766.2488,235.7412 Q766.8423,235.4715 767.4731,234.8904 Z " fill="#000000"/><text fill="#000000" font-family="sans-serif" font-size="14" lengthAdjust="spacing" textLength="41" x="779" y="236.761">Player</text><line style="stroke:#181818;stroke-width:0.5;" x1="751" x2="822" y1="247.47" y2="247.47"/><line style="stroke:#181818;stroke-width:0.5;" x1="751" x2="822" y1="255.47" y2="255.47"/></g><!--class World--><g id="elem_World"><rect codeLine="32" fill="#F1F1F1" height="80.9766" id="World" rx="2.5" ry="2.5" style="stroke:#181818;stroke-width:0.5;" width="147" x="235" y="49.25"/><ellipse cx="284.25" cy="65.25" fill="#ADD1B2" rx="11" ry="11" style="stroke:#181818;stroke-width:1.0;"/><path d="M286.7231,71.3931 Q286.1421,71.6919 285.5029,71.8413 Q284.8638,71.9907 284.1582,71.9907 Q281.6514,71.9907 280.3315,70.3389 Q279.0117,68.687 279.0117,65.5659 Q279.0117,62.4365 280.3315,60.7847 Q281.6514,59.1328 284.1582,59.1328 Q284.8638,59.1328 285.5112,59.2822 Q286.1587,59.4316 286.7231,59.7305 L286.7231,62.4531 Q286.0923,61.8721 285.4988,61.6023 Q284.9053,61.3325 284.2744,61.3325 Q282.9297,61.3325 282.2449,62.3992 Q281.5601,63.4658 281.5601,65.5659 Q281.5601,67.6577 282.2449,68.7244 Q282.9297,69.791 284.2744,69.791 Q284.9053,69.791 285.4988,69.5212 Q286.0923,69.2515 286.7231,68.6704 Z " fill="#000000"/><text fill="#000000" font-family="sans-serif" font-size="14" lengthAdjust="spacing" textLength="40" x="304.75" y="70.541">World</text><line style="stroke:#181818;stroke-width:0.5;" x1="236" x2="381" y1="81.25" y2="81.25"/><rect fill="none" height="6" style="stroke:#C82930;stroke-width:1.0;" width="6" x="243" y="91.9941"/><text fill="#000000" font-family="sans-serif" font-size="14" lengthAdjust="spacing" textLength="85" x="255" y="98.7852">tiles : Tile[][]</text><line style="stroke:#181818;stroke-width:0.5;" x1="236" x2="381" y1="105.7383" y2="105.7383"/><ellipse cx="246" cy="119.4824" fill="#84BE84" rx="3" ry="3" style="stroke:#038048;stroke-width:1.0;"/><text fill="#000000" font-family="sans-serif" font-size="14" lengthAdjust="spacing" textLength="121" x="255" y="123.2734">loadWorld() : void</text></g><path d="M8.5,63.25 L78.5,63.25 A3.75,3.75 0 0 1 81,65.75 L88,85.7383 L92.5,85.7383 A2.5,2.5 0 0 1 95,88.2383 L95,113.7266 A2.5,2.5 0 0 1 92.5,116.2266 L8.5,116.2266 A2.5,2.5 0 0 1 6,113.7266 L6,65.75 A2.5,2.5 0 0 1 8.5,63.25 " fill="#F1F1F1" style="stroke:#181818;stroke-width:0.5;"/><line style="stroke:#181818;stroke-width:0.5;" x1="6" x2="88" y1="85.7383" y2="85.7383"/><text fill="#000000" font-family="sans-serif" font-size="14" font-weight="bold" lengthAdjust="spacing" textLength="69" x="10" y="78.7852">resources</text><path d="M132,63.25 L183,63.25 A3.75,3.75 0 0 1 185.5,65.75 L192.5,85.7383 L197,85.7383 A2.5,2.5 0 0 1 199.5,88.2383 L199.5,113.7266 A2.5,2.5 0 0 1 197,116.2266 L132,116.2266 A2.5,2.5 0 0 1 129.5,113.7266 L129.5,65.75 A2.5,2.5 0 0 1 132,63.25 " fill="#F1F1F1" style="stroke:#181818;stroke-width:0.5;"/><line style="stroke:#181818;stroke-width:0.5;" x1="129.5" x2="192.5" y1="85.7383" y2="85.7383"/><text fill="#000000" font-family="sans-serif" font-size="14" font-weight="bold" lengthAdjust="spacing" textLength="50" x="133.5" y="78.7852">stories</text><!--reverse link Entity to Player--><g id="link_Entity_Player"><path d="M786.5,156.7 C786.5,182.31 786.5,194.68 786.5,215.13 " fill="none" id="Entity-backto-Player" style="stroke:#181818;stroke-width:1.0;"/><polygon fill="none" points="786.5,138.7,780.5,156.7,792.5,156.7,786.5,138.7" style="stroke:#181818;stroke-width:1.0;"/></g><!--link Main to Game--><g id="link_Main_Game"><path codeLine="46" d="M986.71,122.43 C984.26,150.24 981.2858,184.0631 979.0858,209.0731 " fill="none" id="Main-to-Game" style="stroke:#181818;stroke-width:1.0;"/><polygon fill="#181818" points="978.56,215.05,983.3333,206.4351,978.9981,210.0692,975.364,205.7341,978.56,215.05" style="stroke:#181818;stroke-width:1.0;"/><text fill="#000000" font-family="sans-serif" font-size="13" lengthAdjust="spacing" textLength="64" x="983.5" y="182.0384">new Game</text></g><!--link GameWindow to Application--><g id="link_GameWindow_Application"><path codeLine="47" d="M987.5,446.48 C987.5,490.89 987.5,543.25 987.5,579.55 " fill="none" id="GameWindow-to-Application" style="stroke:#181818;stroke-width:1.0;"/><polygon fill="none" points="987.5,597.55,993.5,579.55,981.5,579.55,987.5,597.55" style="stroke:#181818;stroke-width:1.0;"/></g><!--link Game to GameWindow--><g id="link_Game_GameWindow"><path codeLine="48" d="M978.05,263.65 C979.81,289.91 982.3096,327.1734 984.4296,358.8734 " fill="none" id="Game-to-GameWindow" style="stroke:#181818;stroke-width:1.0;"/><polygon fill="#181818" points="984.83,364.86,988.2205,355.6131,984.4964,359.8711,980.2384,356.147,984.83,364.86" style="stroke:#181818;stroke-width:1.0;"/><text fill="#000000" font-family="sans-serif" font-size="13" lengthAdjust="spacing" textLength="113" x="981.5" y="307.0384">new GameWindow</text></g><!--link Game to GameLoop--><g id="link_Game_GameLoop"><path codeLine="49" d="M940.75,252.49 C914.81,261.92 879.36,276.3 850.5,293.47 C827.92,306.9 809.6968,319.9238 789.1668,336.3338 " fill="none" id="Game-to-GameLoop" style="stroke:#181818;stroke-width:1.0;"/><polygon fill="#181818" points="784.48,340.08,794.0076,337.5852,788.3856,336.9581,789.0127,331.3362,784.48,340.08" style="stroke:#181818;stroke-width:1.0;"/><text fill="#000000" font-family="sans-serif" font-size="13" lengthAdjust="spacing" textLength="119" x="851.5" y="307.0384">start(gamewindow)</text></g><!--SRC=[RLBBJiCm43mtN-5ZK1K-88TA710Na115wg7gON7SuEBQrjhfGwN_pjeEYLFm8TwCPn-pknRu5xI2xU00szCzMAia1o-DPfTYnXKunnvoy5hChaLXCpSYCZg9-m9Izq0uyptzbu2jOpLRUfIwNM_ko3uOsKGMnHFQItzcZ-cYjBEAMUDaI4XCmRt124fz82vWpG0HpeJD2VC2WVioH7L2RGcz_bR-17iHIXxh2yYpCJQhiPBkhTEQIgC87yOe0NeKu2YVBuFRIkh675bBvZ6Q4nqzsTZoBzpP1hpuvm65RWIMDmsPLhlqv9kNopiaFv_mq5Mwnv3y4tIRd4ejZXFMRUF79BssqFiqie5AG6e1HQ21k_3D7eSehmhE0fauUTBaXc7cQbO6LPChyLA9i1ZlTAytwyseGXbe8lssDzdkeN2cGquHBaMEqn1G3cXSoAfQf5se6VKacaKckwg-5_cMnxV1gIUDhWcOak9ErIorAbkHuWS0]--></g></svg>