<?xml version="1.0" encoding="us-ascii" standalone="no"?><svg xmlns="http://www.w3.org/2000/svg" xmlns:xlink="http://www.w3.org/1999/xlink" contentStyleType="text/css" height="1098px" preserveAspectRatio="none" style="width:762px;height:1098px;background:#FFFFFF;" version="1.1" viewBox="0 0 762 1098" width="762px" zoomAndPan="magnify"><defs/><g><!--class Briony--><g id="elem_Briony"><rect codeLine="9" fill="#F1F1F1" height="138.6904" id="Briony" rx="2.5" ry="2.5" style="stroke:#FF0000;stroke-width:0.5;" width="220" x="121" y="189.49"/><text fill="#000000" font-family="sans-serif" font-size="14" lengthAdjust="spacing" textLength="40" x="211" y="207.6218">Briony</text><line style="stroke:#FF0000;stroke-width:0.5;" x1="122" x2="340" y1="215.5886" y2="215.5886"/><rect fill="none" height="6" style="stroke:#C82930;stroke-width:1.0;" width="6" x="129" y="226.1379"/><text fill="#000000" font-family="sans-serif" font-size="14" lengthAdjust="spacing" textLength="78" x="141" y="232.7205">Family Tallis</text><rect fill="none" height="6" style="stroke:#C82930;stroke-width:1.0;" width="6" x="129" y="242.2366"/><text fill="#000000" font-family="sans-serif" font-size="14" lengthAdjust="spacing" textLength="66" x="141" y="248.8191">Born 1922</text><rect fill="none" height="6" style="stroke:#C82930;stroke-width:1.0;" width="6" x="129" y="258.3352"/><text fill="#000000" font-family="sans-serif" font-size="14" lengthAdjust="spacing" textLength="77" x="141" y="264.9177">Likes writing</text><rect fill="none" height="6" style="stroke:#C82930;stroke-width:1.0;" width="6" x="129" y="274.4338"/><text fill="#000000" font-family="sans-serif" font-size="14" lengthAdjust="spacing" textLength="194" x="141" y="281.0164">extended and vivid imagination</text><rect fill="none" height="6" style="stroke:#C82930;stroke-width:1.0;" width="6" x="129" y="290.5325"/><text fill="#000000" font-family="sans-serif" font-size="14" lengthAdjust="spacing" textLength="171" x="141" y="297.115">gorws up to serve as nurse</text><rect fill="none" height="6" style="stroke:#C82930;stroke-width:1.0;" width="6" x="129" y="306.6311"/><text fill="#000000" font-family="sans-serif" font-size="14" lengthAdjust="spacing" textLength="127" x="141" y="313.2136">begins to write more</text><line style="stroke:#FF0000;stroke-width:0.5;" x1="122" x2="340" y1="320.1804" y2="320.1804"/></g><!--class Cecilia--><g id="elem_Cecilia"><rect codeLine="18" fill="#F1F1F1" height="106.4932" id="Cecilia" rx="2.5" ry="2.5" style="stroke:#FF0000;stroke-width:0.5;" width="163" x="416.5" y="205.59"/><text fill="#000000" font-family="sans-serif" font-size="14" lengthAdjust="spacing" textLength="42" x="477" y="223.7218">Cecilia</text><line style="stroke:#FF0000;stroke-width:0.5;" x1="417.5" x2="578.5" y1="231.6886" y2="231.6886"/><text fill="#000000" font-family="sans-serif" font-size="14" lengthAdjust="spacing" textLength="78" x="422.5" y="248.8205">Family Tallis</text><text fill="#000000" font-family="sans-serif" font-size="14" lengthAdjust="spacing" textLength="151" x="422.5" y="264.9191">10 yrs older than Briony</text><text fill="#000000" font-family="sans-serif" font-size="14" lengthAdjust="spacing" textLength="88" x="422.5" y="281.0177">Lives at home</text><text fill="#000000" font-family="sans-serif" font-size="14" lengthAdjust="spacing" textLength="131" x="422.5" y="297.1164">State of living: untidy</text><line style="stroke:#FF0000;stroke-width:0.5;" x1="417.5" x2="578.5" y1="304.0832" y2="304.0832"/></g><!--class Leon--><g id="elem_Leon"><rect codeLine="25" fill="#F1F1F1" height="106.4932" id="Leon" rx="2.5" ry="2.5" style="stroke:#FF0000;stroke-width:0.5;" width="163" x="241.5" y="404.18"/><text fill="#000000" font-family="sans-serif" font-size="14" lengthAdjust="spacing" textLength="32" x="307" y="422.3118">Leon</text><line style="stroke:#FF0000;stroke-width:0.5;" x1="242.5" x2="403.5" y1="430.2786" y2="430.2786"/><text fill="#000000" font-family="sans-serif" font-size="14" lengthAdjust="spacing" textLength="78" x="247.5" y="447.4105">Family Tallis</text><text fill="#000000" font-family="sans-serif" font-size="14" lengthAdjust="spacing" textLength="151" x="247.5" y="463.5091">12 yrs older than Briony</text><text fill="#000000" font-family="sans-serif" font-size="14" lengthAdjust="spacing" textLength="100" x="247.5" y="479.6077">Lives in London</text><text fill="#000000" font-family="sans-serif" font-size="14" lengthAdjust="spacing" textLength="145" x="247.5" y="495.7064">Studied at Campbridge</text><line style="stroke:#FF0000;stroke-width:0.5;" x1="242.5" x2="403.5" y1="502.6732" y2="502.6732"/></g><!--class Robbie--><g id="elem_Robbie"><rect codeLine="32" fill="#F1F1F1" height="90.3945" id="Robbie" rx="2.5" ry="2.5" style="stroke:#00FF00;stroke-width:0.5;" width="260" x="440" y="412.23"/><text fill="#000000" font-family="sans-serif" font-size="14" lengthAdjust="spacing" textLength="45" x="547.5" y="430.3618">Robbie</text><line style="stroke:#00FF00;stroke-width:0.5;" x1="441" x2="699" y1="438.3286" y2="438.3286"/><text fill="#000000" font-family="sans-serif" font-size="14" lengthAdjust="spacing" textLength="88" x="446" y="455.4605">Family Turner</text><text fill="#000000" font-family="sans-serif" font-size="14" lengthAdjust="spacing" textLength="188" x="446" y="471.5591">Just returned from Cambridge</text><text fill="#000000" font-family="sans-serif" font-size="14" lengthAdjust="spacing" textLength="248" x="446" y="487.6577">Falsey accused of rapeing Briony Tallis</text><line style="stroke:#00FF00;stroke-width:0.5;" x1="441" x2="699" y1="494.6245" y2="494.6245"/></g><!--class Grace--><g id="elem_Grace"><rect codeLine="38" fill="#F1F1F1" height="58.1973" id="Grace" rx="2.5" ry="2.5" style="stroke:#00FF00;stroke-width:0.5;" width="100" x="417" y="857.71"/><text fill="#000000" font-family="sans-serif" font-size="14" lengthAdjust="spacing" textLength="39" x="447.5" y="875.8418">Grace</text><line style="stroke:#00FF00;stroke-width:0.5;" x1="418" x2="516" y1="883.8086" y2="883.8086"/><text fill="#000000" font-family="sans-serif" font-size="14" lengthAdjust="spacing" textLength="88" x="423" y="900.9405">Family Turner</text><line style="stroke:#00FF00;stroke-width:0.5;" x1="418" x2="516" y1="907.9073" y2="907.9073"/></g><!--class Jack--><g id="elem_Jack"><rect codeLine="42" fill="#F1F1F1" height="138.6904" id="Jack" rx="2.5" ry="2.5" style="stroke:#FF0000;stroke-width:0.5;" width="215" x="155.5" y="586.67"/><text fill="#000000" font-family="sans-serif" font-size="14" lengthAdjust="spacing" textLength="28" x="249" y="604.8018">Jack</text><line style="stroke:#FF0000;stroke-width:0.5;" x1="156.5" x2="369.5" y1="612.7686" y2="612.7686"/><rect fill="none" height="6" style="stroke:#C82930;stroke-width:1.0;" width="6" x="163.5" y="623.3179"/><text fill="#000000" font-family="sans-serif" font-size="14" lengthAdjust="spacing" textLength="78" x="175.5" y="629.9005">Family Tallis</text><rect fill="none" height="6" style="stroke:#C82930;stroke-width:1.0;" width="6" x="163.5" y="639.4166"/><text fill="#000000" font-family="sans-serif" font-size="14" lengthAdjust="spacing" textLength="71" x="175.5" y="645.9991">The Vather</text><rect fill="none" height="6" style="stroke:#C82930;stroke-width:1.0;" width="6" x="163.5" y="655.5152"/><text fill="#000000" font-family="sans-serif" font-size="14" lengthAdjust="spacing" textLength="99" x="175.5" y="662.0977">is never around</text><rect fill="none" height="6" style="stroke:#C82930;stroke-width:1.0;" width="6" x="163.5" y="671.6138"/><text fill="#000000" font-family="sans-serif" font-size="14" lengthAdjust="spacing" textLength="81" x="175.5" y="678.1964">hard working</text><rect fill="none" height="6" style="stroke:#C82930;stroke-width:1.0;" width="6" x="163.5" y="687.7125"/><text fill="#000000" font-family="sans-serif" font-size="14" lengthAdjust="spacing" textLength="189" x="175.5" y="694.295">works in the Whitehall ministry</text><rect fill="none" height="6" style="stroke:#C82930;stroke-width:1.0;" width="6" x="163.5" y="703.8111"/><text fill="#000000" font-family="sans-serif" font-size="14" lengthAdjust="spacing" textLength="174" x="175.5" y="710.3936">values family and patriotism</text><line style="stroke:#FF0000;stroke-width:0.5;" x1="156.5" x2="369.5" y1="717.3604" y2="717.3604"/></g><!--class Lola--><g id="elem_Lola"><rect codeLine="51" fill="#F1F1F1" height="106.4932" id="Lola" rx="2.5" ry="2.5" style="stroke:#0000FF;stroke-width:0.5;" width="230" x="418" y="7"/><text fill="#000000" font-family="sans-serif" font-size="14" lengthAdjust="spacing" textLength="27" x="519.5" y="25.1318">Lola</text><line style="stroke:#0000FF;stroke-width:0.5;" x1="419" x2="647" y1="33.0986" y2="33.0986"/><text fill="#000000" font-family="sans-serif" font-size="14" lengthAdjust="spacing" textLength="135" x="424" y="50.2305">Parents are divercing</text><text fill="#000000" font-family="sans-serif" font-size="14" lengthAdjust="spacing" textLength="218" x="424" y="66.3291">Spends summer with the Tallis fam</text><text fill="#000000" font-family="sans-serif" font-size="14" lengthAdjust="spacing" textLength="106" x="424" y="82.4277">Has two brothers</text><text fill="#000000" font-family="sans-serif" font-size="14" lengthAdjust="spacing" textLength="43" x="424" y="98.5264">15 y.o.</text><line style="stroke:#0000FF;stroke-width:0.5;" x1="419" x2="647" y1="105.4932" y2="105.4932"/></g><!--class Jackson--><g id="elem_Jackson"><rect codeLine="58" fill="#F1F1F1" height="42.0986" id="Jackson" rx="2.5" ry="2.5" style="stroke:#0000FF;stroke-width:0.5;" width="57" x="614.5" y="237.79"/><text fill="#000000" font-family="sans-serif" font-size="14" lengthAdjust="spacing" textLength="51" x="617.5" y="255.9218">Jackson</text><line style="stroke:#0000FF;stroke-width:0.5;" x1="615.5" x2="670.5" y1="263.8886" y2="263.8886"/><line style="stroke:#0000FF;stroke-width:0.5;" x1="615.5" x2="670.5" y1="271.8886" y2="271.8886"/></g><!--class Pierrot--><g id="elem_Pierrot"><rect codeLine="60" fill="#F1F1F1" height="42.0986" id="Pierrot" rx="2.5" ry="2.5" style="stroke:#0000FF;stroke-width:0.5;" width="48" x="707" y="237.79"/><text fill="#000000" font-family="sans-serif" font-size="14" lengthAdjust="spacing" textLength="42" x="710" y="255.9218">Pierrot</text><line style="stroke:#0000FF;stroke-width:0.5;" x1="708" x2="754" y1="263.8886" y2="263.8886"/><line style="stroke:#0000FF;stroke-width:0.5;" x1="708" x2="754" y1="271.8886" y2="271.8886"/></g><!--class Emily--><g id="elem_Emily"><rect codeLine="63" fill="#F1F1F1" height="170.8877" id="Emily" rx="2.5" ry="2.5" style="stroke:#FF0000;stroke-width:0.5;" width="286" x="7" y="801.37"/><text fill="#000000" font-family="sans-serif" font-size="14" lengthAdjust="spacing" textLength="33" x="133.5" y="819.5018">Emily</text><line style="stroke:#FF0000;stroke-width:0.5;" x1="8" x2="292" y1="827.4686" y2="827.4686"/><rect fill="none" height="6" style="stroke:#C82930;stroke-width:1.0;" width="6" x="15" y="838.0179"/><text fill="#000000" font-family="sans-serif" font-size="14" lengthAdjust="spacing" textLength="78" x="27" y="844.6005">Family Tallis</text><rect fill="none" height="6" style="stroke:#C82930;stroke-width:1.0;" width="6" x="15" y="854.1166"/><text fill="#000000" font-family="sans-serif" font-size="14" lengthAdjust="spacing" textLength="73" x="27" y="860.6991">The Mother</text><rect fill="none" height="6" style="stroke:#C82930;stroke-width:1.0;" width="6" x="15" y="870.2152"/><text fill="#000000" font-family="sans-serif" font-size="14" lengthAdjust="spacing" textLength="146" x="27" y="876.7977">"distant and unfriendly"</text><rect fill="none" height="6" style="stroke:#C82930;stroke-width:1.0;" width="6" x="15" y="886.3138"/><text fill="#000000" font-family="sans-serif" font-size="14" lengthAdjust="spacing" textLength="187" x="27" y="892.8964">suffers from severe migraines</text><rect fill="none" height="6" style="stroke:#C82930;stroke-width:1.0;" width="6" x="15" y="902.4125"/><text fill="#000000" font-family="sans-serif" font-size="14" lengthAdjust="spacing" textLength="176" x="27" y="908.995">was educated at home til 16</text><rect fill="none" height="6" style="stroke:#C82930;stroke-width:1.0;" width="6" x="15" y="918.5111"/><text fill="#000000" font-family="sans-serif" font-size="14" lengthAdjust="spacing" textLength="223" x="27" y="925.0936">then boarding school in Switzreland</text><rect fill="none" height="6" style="stroke:#C82930;stroke-width:1.0;" width="6" x="15" y="934.6097"/><text fill="#000000" font-family="sans-serif" font-size="14" lengthAdjust="spacing" textLength="242" x="27" y="941.1923">Traditional view on woman and society</text><rect fill="none" height="6" style="stroke:#C82930;stroke-width:1.0;" width="6" x="15" y="950.7084"/><text fill="#000000" font-family="sans-serif" font-size="14" lengthAdjust="spacing" textLength="260" x="27" y="957.2909">social classes should not mix romantically</text><line style="stroke:#FF0000;stroke-width:0.5;" x1="8" x2="292" y1="964.2577" y2="964.2577"/></g><!--class Ernest--><g id="elem_Ernest"><rect codeLine="74" fill="#F1F1F1" height="58.1973" id="Ernest" rx="2.5" ry="2.5" style="stroke:#00FF00;stroke-width:0.5;" width="100" x="468" y="1033.25"/><text fill="#000000" font-family="sans-serif" font-size="14" lengthAdjust="spacing" textLength="41" x="497.5" y="1051.3818">Ernest</text><line style="stroke:#00FF00;stroke-width:0.5;" x1="469" x2="567" y1="1059.3486" y2="1059.3486"/><text fill="#000000" font-family="sans-serif" font-size="14" lengthAdjust="spacing" textLength="88" x="474" y="1076.4805">Family Turner</text><line style="stroke:#00FF00;stroke-width:0.5;" x1="469" x2="567" y1="1083.4473" y2="1083.4473"/></g><!--link Emily to Briony--><g id="link_Emily_Briony"><path codeLine="78" d="M142.46,800.94 C140.62,776.56 138.92,749.93 138,725.37 C135.7,663.77 132.7,648.09 138,586.67 C145.09,504.56 153.16,484.65 171,404.18 C175.57,383.55 175.66,378 183,358.18 C186.6,348.47 188.3597,343.9033 192.7997,334.1233 " fill="none" id="Emily-to-Briony" style="stroke:#181818;stroke-width:1.0;"/><polygon fill="#181818" points="195.28,328.66,187.9173,335.2015,193.2131,333.2128,195.2018,338.5085,195.28,328.66" style="stroke:#181818;stroke-width:1.0;"/><text fill="#000000" font-family="sans-serif" font-size="13" lengthAdjust="spacing" textLength="40" x="144" y="553.8638">Mother</text></g><!--link Jack to Briony--><g id="link_Jack_Briony"><path codeLine="79" d="M216.92,586.32 C203.96,563.27 191.6,536.77 185,510.67 C169.59,449.72 183.4958,384.8931 200.6658,334.1831 " fill="none" id="Jack-to-Briony" style="stroke:#181818;stroke-width:1.0;"/><polygon fill="#181818" points="202.59,328.5,195.9149,335.7418,200.9865,333.2359,203.4924,338.3074,202.59,328.5" style="stroke:#181818;stroke-width:1.0;"/><text fill="#000000" font-family="sans-serif" font-size="13" lengthAdjust="spacing" textLength="37" x="186" y="462.6238">Father</text></g><!--link Jack to Grace--><g id="link_Jack_Grace"><path codeLine="80" d="M265.51,725.6 C268.58,741.62 273.92,757.92 283,771.37 C299.94,796.47 363.0335,832.4788 411.4735,857.8188 " fill="none" id="Jack-to-Grace" style="stroke:#181818;stroke-width:1.0;"/><polygon fill="#181818" points="416.79,860.6,410.6694,852.8839,412.3596,858.2824,406.9611,859.9726,416.79,860.6" style="stroke:#181818;stroke-width:1.0;"/><text fill="#000000" font-family="sans-serif" font-size="13" lengthAdjust="spacing" textLength="158" x="284" y="768.5638">household employee of fam</text></g><!--link Briony to Cecilia--><g id="link_Briony_Cecilia"><path codeLine="81" d="M347.14,258.84 C372.28,258.84 386.56,258.84 410.26,258.84 " fill="none" id="Briony-Cecilia" style="stroke:#181818;stroke-width:1.0;"/><polygon fill="#181818" points="341.14,258.84,350.14,262.84,346.14,258.84,350.14,254.84,341.14,258.84" style="stroke:#181818;stroke-width:1.0;"/><polygon fill="#181818" points="416.26,258.84,407.26,254.84,411.26,258.84,407.26,262.84,416.26,258.84" style="stroke:#181818;stroke-width:1.0;"/><text fill="#000000" font-family="sans-serif" font-size="13" lengthAdjust="spacing" textLength="39" x="359.25" y="253.0338">Sibling</text></g><!--link Cecilia to Briony--><!--link Briony to Leon--><g id="link_Briony_Leon"><path codeLine="82" d="M241.1035,334.2822 C244.6135,349.8022 248.18,360.02 255,374.18 C259.9,384.36 262.7457,389.5483 269.6957,398.8783 " fill="none" id="Briony-Leon" style="stroke:#181818;stroke-width:1.0;"/><polygon fill="#181818" points="239.78,328.43,237.8638,338.0907,240.8829,333.3068,245.6668,336.3259,239.78,328.43" style="stroke:#181818;stroke-width:1.0;"/><polygon fill="#181818" points="273.28,403.69,271.1114,394.0829,270.2931,399.6802,264.6957,398.8619,273.28,403.69" style="stroke:#181818;stroke-width:1.0;"/><text fill="#000000" font-family="sans-serif" font-size="13" lengthAdjust="spacing" textLength="39" x="256" y="371.3738">Sibling</text></g><!--link Cecilia to Leon--><g id="link_Cecilia_Leon"><path codeLine="83" d="M477.7175,318.0481 C468.9875,338.7381 459.34,356.25 444,374.18 C432.77,387.31 423.7972,395.6965 409.5872,406.1865 " fill="none" id="Cecilia-Leon" style="stroke:#181818;stroke-width:1.0;"/><polygon fill="#181818" points="480.05,312.52,472.8659,319.2571,478.1062,317.1267,480.2366,322.3671,480.05,312.52" style="stroke:#181818;stroke-width:1.0;"/><polygon fill="#181818" points="404.76,409.75,414.3764,407.6229,408.7826,406.7804,409.6251,401.1867,404.76,409.75" style="stroke:#181818;stroke-width:1.0;"/><text fill="#000000" font-family="sans-serif" font-size="13" lengthAdjust="spacing" textLength="39" x="456" y="371.3738">Sibling</text></g><!--link Briony to Lola--><g id="link_Briony_Lola"><path codeLine="84" d="M336.61,189.08 C374.51,164.42 411.5716,140.2934 447.0416,117.2034 " fill="none" id="Briony-to-Lola" style="stroke:#181818;stroke-width:1.0;"/><polygon fill="#181818" points="452.07,113.93,442.3451,115.4878,447.8796,116.6578,446.7096,122.1923,452.07,113.93" style="stroke:#181818;stroke-width:1.0;"/><text fill="#000000" font-family="sans-serif" font-size="13" lengthAdjust="spacing" textLength="46" x="402" y="156.6838">Dislikes</text></g><!--link Lola to Briony--><!--link Briony to Robbie--><g id="link_Briony_Robbie"><path codeLine="85" d="M284.52,328.42 C300.05,345.09 318,361.7 337,374.18 C337,374.18 383.182,390.4831 437.952,409.8131 " fill="none" id="Briony-to-Robbie" style="stroke:#181818;stroke-width:1.0;stroke-dasharray:7.0,7.0;"/><polygon fill="#181818" points="443.61,411.81,436.4543,405.0427,438.895,410.1459,433.7918,412.5867,443.61,411.81" style="stroke:#181818;stroke-width:1.0;"/><text fill="#000000" font-family="sans-serif" font-size="13" lengthAdjust="spacing" textLength="97" x="338" y="371.3738">Imagined Enemy</text></g><!--link Lola to Jackson--><g id="link_Lola_Jackson"><path codeLine="86" d="M562.48,113.93 C585.26,154.64 612.6201,203.544 628.7801,232.424 " fill="none" id="Lola-to-Jackson" style="stroke:#181818;stroke-width:1.0;"/><polygon fill="#181818" points="631.71,237.66,630.8059,227.8527,629.2685,233.2966,623.8245,231.7592,631.71,237.66" style="stroke:#181818;stroke-width:1.0;"/><text fill="#000000" font-family="sans-serif" font-size="13" lengthAdjust="spacing" textLength="39" x="586" y="156.6838">Sibling</text></g><!--link Lola to Pierrot--><g id="link_Lola_Pierrot"><path codeLine="87" d="M607.07,113.7 C634.65,135.31 665.04,161.77 689,189.49 C701.75,204.24 710.259,218.0206 717.949,232.2606 " fill="none" id="Lola-to-Pierrot" style="stroke:#181818;stroke-width:1.0;"/><polygon fill="#181818" points="720.8,237.54,720.0431,227.7203,718.4242,233.1405,713.0039,231.5216,720.8,237.54" style="stroke:#181818;stroke-width:1.0;"/><text fill="#000000" font-family="sans-serif" font-size="13" lengthAdjust="spacing" textLength="39" x="659" y="156.6838">Sibling</text></g><!--link Robbie to Grace--><g id="link_Robbie_Grace"><path codeLine="88" d="M539.03,502.95 C524.08,526.72 507.39,557.11 498,586.67 C467.59,682.47 465.2935,797.3406 466.0735,851.4106 " fill="none" id="Robbie-to-Grace" style="stroke:#181818;stroke-width:1.0;"/><polygon fill="#181818" points="466.16,857.41,470.0298,848.3532,466.0879,852.4105,462.0306,848.4686,466.16,857.41" style="stroke:#181818;stroke-width:1.0;"/><text fill="#000000" font-family="sans-serif" font-size="13" lengthAdjust="spacing" textLength="44" x="499" y="661.2138">Sone of</text></g><!--link Robbie to Jack--><g id="link_Robbie_Jack"><path codeLine="89" d="M445.01,503.1 C437.24,505.71 429.52,508.25 422,510.67 C376.61,525.28 355.49,509.98 319,540.67 C304.62,552.77 296.2662,564.0551 287.9762,580.9251 " fill="none" id="Robbie-to-Jack" style="stroke:#181818;stroke-width:1.0;"/><polygon fill="#181818" points="285.33,586.31,292.8893,579.9967,287.5352,581.8225,285.7093,576.4684,285.33,586.31" style="stroke:#181818;stroke-width:1.0;"/><text fill="#000000" font-family="sans-serif" font-size="13" lengthAdjust="spacing" textLength="122" x="320" y="553.8638">schooling founded by</text></g><!--link Robbie to Ernest--><g id="link_Robbie_Ernest"><path codeLine="90" d="M568.77,502.94 C565.91,592.25 557.27,799.55 535,972.25 C532.36,992.71 529.2023,1009.6879 525.5423,1027.1279 " fill="none" id="Robbie-to-Ernest" style="stroke:#181818;stroke-width:1.0;"/><polygon fill="#181818" points="524.31,1033,530.0732,1025.0134,525.3369,1028.1066,522.2438,1023.3703,524.31,1033" style="stroke:#181818;stroke-width:1.0;"/><text fill="#000000" font-family="sans-serif" font-size="13" lengthAdjust="spacing" textLength="37" x="557" y="768.5638">Son of</text></g><!--link Cecilia to Robbie--><g id="link_Cecilia_Robbie"><path codeLine="91" d="M519.3547,318.1536 C530.7347,349.2036 536.7137,365.5165 547.5137,395.0265 " fill="none" id="Cecilia-Robbie" style="stroke:#181818;stroke-width:1.0;"/><polygon fill="#181818" points="517.29,312.52,516.6314,322.3468,519.0106,317.2146,524.1428,319.5938,517.29,312.52" style="stroke:#181818;stroke-width:1.0;"/><polygon fill="none" points="553.7,411.93,553.1482,392.9644,541.8792,397.0886,553.7,411.93" style="stroke:#181818;stroke-width:1.0;"/><text fill="#000000" font-family="sans-serif" font-size="13" lengthAdjust="spacing" textLength="73" x="540" y="371.3738">Love Interest</text></g><!--link Jack to Emily--><!--link Grace to Ernest--><!--SRC=[ZLHHRzCm47vUViMnFV3KQfi44XMQnCO6cueqw0GF224tlZIdENPbE-q2xBzpvoHjEYQsFgN-plVTtVUTIz88kL4XG4u-DvXbBpGMP17Ed77-vuqoXW8SN5mSykyXM7kB7WuE3mL-07wkoURO22fubcKjpwadP_bu9__lR6y45weYqq1x90UdpbiuUdDyB7-cT8i1rfuYsOKSu5r4gr63iXfMj28DLAa5MHMPGI8Mpgy3r4k83WBw5O8AO6iVKD0vScmGJ98YLCvZTj-NUOOv6LAxTNAP3ueyEeJ61t16yo1YgMpNNxOtfHNNgoAKhcA-MLJCuGemNAbTJA2saNIp9PoYiq-o7V-VZInCdTNI_IpMccGu4SvKjPnxqej1Ur_SV4wuuMk5712cWsplgWuHF4Rvgw7mhf9iNJ8EDe4LLdbU1uQvEQ-MoDtr8dTrRrW_U9K_IRg9lbBvxJyJUSGcDoN2LnLBANW4x2QBAqwilAkjbgDIUGrhvsyxvyXd6XRVWMybYrzoCgZ8KeY-aP2LCZKFj6Yvn65B5RcfIA4QQERCnY6ztxd6Q-NHHXRV8sWMnkU9UBPalmO8TLLnUMkAPIgWMm6colO-ia7Zsi7SE-b797y5pTYDTwSIjbOPqDvt4TU4dky_6j65dAUsdhE3CjnFhX_klkO9AHlJH6fRUEAMJBClMAYBWajkNH940jufMdZ5Rq9AjURcKDSvBuBk5mCY6JXwBJ1pM9WxraeS5FBIEICYpNXIlpmQrOfvuvKcsN1bUEjn3JoBjQju5wIcu7B2c2IKJuv93REKeNIrqM1vC1NTWPShaN9kTB24v-p049_Xq7Q0ez59R_L9FwNasXtWGkq2xHPCk7zUcvAN6R1Q6jTWUX_41ztLjnBTFqGJcD7SY966Q7erjb0V_1ZMNKk8-7O2xoaOULLxQ3m-wH-62LocjvILEhTODLcw8dTx_sqJRw3UU5keopRiUkQiz3c4qcGcdUGYVY6RozJpPXZMYPDII8P1ity6XKyTF_INDhB_GioobxsdJycAipeTlfUaDTeVetONihQyuN5Ya_ll32rinHkz6M6ztCP9znl0O16tK5VWNm00]--></g></svg>