<?xml version="1.0" encoding="us-ascii" standalone="no"?><svg xmlns="http://www.w3.org/2000/svg" xmlns:xlink="http://www.w3.org/1999/xlink" contentStyleType="text/css" height="502px" preserveAspectRatio="none" style="width:2023px;height:502px;background:#FFFFFF;" version="1.1" viewBox="0 0 2023 502" width="2023px" zoomAndPan="magnify"><defs/><g><!--cluster com--><g id="cluster_com"><path d="M8.5,6 L39.5,6 A3.75,3.75 0 0 1 42,8.5 L49,28.4883 L2013.5,28.4883 A2.5,2.5 0 0 1 2016,30.9883 L2016,492.89 A2.5,2.5 0 0 1 2013.5,495.39 L8.5,495.39 A2.5,2.5 0 0 1 6,492.89 L6,8.5 A2.5,2.5 0 0 1 8.5,6 " fill="none" style="stroke:#000000;stroke-width:1.5;"/><line style="stroke:#000000;stroke-width:1.5;" x1="6" x2="49" y1="28.4883" y2="28.4883"/><text fill="#000000" font-family="sans-serif" font-size="14" font-weight="bold" lengthAdjust="spacing" textLength="30" x="10" y="21.5352">com</text></g><!--cluster yourgamename--><g id="cluster_yourgamename"><path d="M32.5,49 L143.5,49 A3.75,3.75 0 0 1 146,51.5 L153,71.4883 L1989.5,71.4883 A2.5,2.5 0 0 1 1992,73.9883 L1992,468.89 A2.5,2.5 0 0 1 1989.5,471.39 L32.5,471.39 A2.5,2.5 0 0 1 30,468.89 L30,51.5 A2.5,2.5 0 0 1 32.5,49 " fill="none" style="stroke:#000000;stroke-width:1.5;"/><line style="stroke:#000000;stroke-width:1.5;" x1="30" x2="153" y1="71.4883" y2="71.4883"/><text fill="#000000" font-family="sans-serif" font-size="14" font-weight="bold" lengthAdjust="spacing" textLength="110" x="34" y="64.5352">yourgamename</text></g><!--cluster app--><g id="cluster_app"><path d="M1734.5,298.93 L1761.5,298.93 A3.75,3.75 0 0 1 1764,301.43 L1771,321.4183 L1965.5,321.4183 A2.5,2.5 0 0 1 1968,323.9183 L1968,411.91 A2.5,2.5 0 0 1 1965.5,414.41 L1734.5,414.41 A2.5,2.5 0 0 1 1732,411.91 L1732,301.43 A2.5,2.5 0 0 1 1734.5,298.93 " fill="none" style="stroke:#000000;stroke-width:1.5;"/><line style="stroke:#000000;stroke-width:1.5;" x1="1732" x2="1771" y1="321.4183" y2="321.4183"/><text fill="#000000" font-family="sans-serif" font-size="14" font-weight="bold" lengthAdjust="spacing" textLength="26" x="1736" y="314.4652">app</text></g><!--cluster game--><g id="cluster_game"><path d="M1211.5,265.95 L1251.5,265.95 A3.75,3.75 0 0 1 1254,268.45 L1261,288.4383 L1705.5,288.4383 A2.5,2.5 0 0 1 1708,290.9383 L1708,444.89 A2.5,2.5 0 0 1 1705.5,447.39 L1211.5,447.39 A2.5,2.5 0 0 1 1209,444.89 L1209,268.45 A2.5,2.5 0 0 1 1211.5,265.95 " fill="none" style="stroke:#000000;stroke-width:1.5;"/><line style="stroke:#000000;stroke-width:1.5;" x1="1209" x2="1261" y1="288.4383" y2="288.4383"/><text fill="#000000" font-family="sans-serif" font-size="14" font-weight="bold" lengthAdjust="spacing" textLength="39" x="1213" y="281.4852">game</text></g><!--cluster world--><g id="cluster_world"><path d="M1007.5,116.73 L1049.5,116.73 A3.75,3.75 0 0 1 1052,119.23 L1059,139.2183 L1182.5,139.2183 A2.5,2.5 0 0 1 1185,141.7183 L1185,420.16 A2.5,2.5 0 0 1 1182.5,422.66 L1007.5,422.66 A2.5,2.5 0 0 1 1005,420.16 L1005,119.23 A2.5,2.5 0 0 1 1007.5,116.73 " fill="none" style="stroke:#000000;stroke-width:1.5;"/><line style="stroke:#000000;stroke-width:1.5;" x1="1005" x2="1059" y1="139.2183" y2="139.2183"/><text fill="#000000" font-family="sans-serif" font-size="14" font-weight="bold" lengthAdjust="spacing" textLength="41" x="1009" y="132.2652">world</text></g><!--cluster entity--><g id="cluster_entity"><path d="M458.5,92 L501.5,92 A3.75,3.75 0 0 1 504,94.5 L511,114.4883 L978.5,114.4883 A2.5,2.5 0 0 1 981,116.9883 L981,420.16 A2.5,2.5 0 0 1 978.5,422.66 L458.5,422.66 A2.5,2.5 0 0 1 456,420.16 L456,94.5 A2.5,2.5 0 0 1 458.5,92 " fill="none" style="stroke:#000000;stroke-width:1.5;"/><line style="stroke:#000000;stroke-width:1.5;" x1="456" x2="511" y1="114.4883" y2="114.4883"/><text fill="#000000" font-family="sans-serif" font-size="14" font-weight="bold" lengthAdjust="spacing" textLength="42" x="460" y="107.5352">entity</text></g><!--cluster util--><g id="cluster_util"><path d="M236.5,108.48 L262.5,108.48 A3.75,3.75 0 0 1 265,110.98 L272,130.9683 L429.5,130.9683 A2.5,2.5 0 0 1 432,133.4683 L432,237.96 A2.5,2.5 0 0 1 429.5,240.46 L236.5,240.46 A2.5,2.5 0 0 1 234,237.96 L234,110.98 A2.5,2.5 0 0 1 236.5,108.48 " fill="none" style="stroke:#000000;stroke-width:1.5;"/><line style="stroke:#000000;stroke-width:1.5;" x1="234" x2="272" y1="130.9683" y2="130.9683"/><text fill="#000000" font-family="sans-serif" font-size="14" font-weight="bold" lengthAdjust="spacing" textLength="25" x="238" y="124.0152">util</text></g><!--cluster ui--><g id="cluster_ui"><path d="M56.5,108.48 L71.5,108.48 A3.75,3.75 0 0 1 74,110.98 L81,130.9683 L207.5,130.9683 A2.5,2.5 0 0 1 210,133.4683 L210,237.96 A2.5,2.5 0 0 1 207.5,240.46 L56.5,240.46 A2.5,2.5 0 0 1 54,237.96 L54,110.98 A2.5,2.5 0 0 1 56.5,108.48 " fill="none" style="stroke:#000000;stroke-width:1.5;"/><line style="stroke:#000000;stroke-width:1.5;" x1="54" x2="81" y1="130.9683" y2="130.9683"/><text fill="#000000" font-family="sans-serif" font-size="14" font-weight="bold" lengthAdjust="spacing" textLength="14" x="58" y="124.0152">ui</text></g><!--class Main--><g id="elem_Main"><rect codeLine="3" fill="#F1F1F1" height="64.4883" id="Main" rx="2.5" ry="2.5" style="stroke:#181818;stroke-width:0.5;" width="204" x="1748" y="333.93"/><ellipse cx="1829.25" cy="349.93" fill="#ADD1B2" rx="11" ry="11" style="stroke:#181818;stroke-width:1.0;"/><path d="M1831.7231,356.0731 Q1831.1421,356.3719 1830.5029,356.5213 Q1829.8638,356.6707 1829.1582,356.6707 Q1826.6514,356.6707 1825.3315,355.0189 Q1824.0117,353.367 1824.0117,350.2459 Q1824.0117,347.1165 1825.3315,345.4647 Q1826.6514,343.8128 1829.1582,343.8128 Q1829.8638,343.8128 1830.5112,343.9622 Q1831.1587,344.1116 1831.7231,344.4105 L1831.7231,347.1331 Q1831.0923,346.5521 1830.4988,346.2823 Q1829.9053,346.0125 1829.2744,346.0125 Q1827.9297,346.0125 1827.2449,347.0792 Q1826.5601,348.1458 1826.5601,350.2459 Q1826.5601,352.3377 1827.2449,353.4044 Q1827.9297,354.471 1829.2744,354.471 Q1829.9053,354.471 1830.4988,354.2012 Q1831.0923,353.9315 1831.7231,353.3504 Z " fill="#000000"/><text fill="#000000" font-family="sans-serif" font-size="14" lengthAdjust="spacing" textLength="33" x="1849.75" y="355.221">Main</text><line style="stroke:#181818;stroke-width:0.5;" x1="1749" x2="1951" y1="365.93" y2="365.93"/><line style="stroke:#181818;stroke-width:0.5;" x1="1749" x2="1951" y1="373.93" y2="373.93"/><ellipse cx="1759" cy="387.6741" fill="#84BE84" rx="3" ry="3" style="stroke:#038048;stroke-width:1.0;"/><text fill="#000000" font-family="sans-serif" font-size="14" lengthAdjust="spacing" textLength="178" x="1768" y="391.4652">main(args : String[]) : void</text></g><!--class GameLoop--><g id="elem_GameLoop"><rect codeLine="9" fill="#F1F1F1" height="130.4414" id="GameLoop" rx="2.5" ry="2.5" style="stroke:#181818;stroke-width:0.5;" width="163" x="1225.5" y="300.95"/><ellipse cx="1266.6" cy="316.95" fill="#ADD1B2" rx="11" ry="11" style="stroke:#181818;stroke-width:1.0;"/><path d="M1269.0731,323.0931 Q1268.4921,323.3919 1267.8529,323.5413 Q1267.2138,323.6907 1266.5082,323.6907 Q1264.0014,323.6907 1262.6815,322.0389 Q1261.3617,320.387 1261.3617,317.2659 Q1261.3617,314.1365 1262.6815,312.4847 Q1264.0014,310.8328 1266.5082,310.8328 Q1267.2138,310.8328 1267.8612,310.9822 Q1268.5087,311.1316 1269.0731,311.4305 L1269.0731,314.1531 Q1268.4423,313.5721 1267.8488,313.3023 Q1267.2553,313.0325 1266.6244,313.0325 Q1265.2797,313.0325 1264.5949,314.0992 Q1263.9101,315.1658 1263.9101,317.2659 Q1263.9101,319.3577 1264.5949,320.4244 Q1265.2797,321.491 1266.6244,321.491 Q1267.2553,321.491 1267.8488,321.2212 Q1268.4423,320.9515 1269.0731,320.3704 Z " fill="#000000"/><text fill="#000000" font-family="sans-serif" font-size="14" lengthAdjust="spacing" textLength="73" x="1286.4" y="322.241">GameLoop</text><line style="stroke:#181818;stroke-width:0.5;" x1="1226.5" x2="1387.5" y1="332.95" y2="332.95"/><rect fill="none" height="6" style="stroke:#C82930;stroke-width:1.0;" width="6" x="1233.5" y="343.6941"/><text fill="#000000" font-family="sans-serif" font-size="14" lengthAdjust="spacing" textLength="137" x="1245.5" y="350.4852">isRunning : boolean</text><line style="stroke:#181818;stroke-width:0.5;" x1="1226.5" x2="1387.5" y1="357.4383" y2="357.4383"/><ellipse cx="1236.5" cy="371.1824" fill="#84BE84" rx="3" ry="3" style="stroke:#038048;stroke-width:1.0;"/><text fill="#000000" font-family="sans-serif" font-size="14" lengthAdjust="spacing" textLength="82" x="1245.5" y="374.9734">start() : void</text><ellipse cx="1236.5" cy="387.6707" fill="#84BE84" rx="3" ry="3" style="stroke:#038048;stroke-width:1.0;"/><text fill="#000000" font-family="sans-serif" font-size="14" lengthAdjust="spacing" textLength="81" x="1245.5" y="391.4617">stop() : void</text><ellipse cx="1236.5" cy="404.159" fill="#84BE84" rx="3" ry="3" style="stroke:#038048;stroke-width:1.0;"/><text fill="#000000" font-family="sans-serif" font-size="14" lengthAdjust="spacing" textLength="99" x="1245.5" y="407.95">update() : void</text><ellipse cx="1236.5" cy="420.6473" fill="#84BE84" rx="3" ry="3" style="stroke:#038048;stroke-width:1.0;"/><text fill="#000000" font-family="sans-serif" font-size="14" lengthAdjust="spacing" textLength="97" x="1245.5" y="424.4383">render() : void</text></g><!--class GameState--><g id="elem_GameState"><rect codeLine="17" fill="#F1F1F1" height="80.9766" id="GameState" rx="2.5" ry="2.5" style="stroke:#181818;stroke-width:0.5;" width="269" x="1423.5" y="325.68"/><ellipse cx="1517.25" cy="341.68" fill="#ADD1B2" rx="11" ry="11" style="stroke:#181818;stroke-width:1.0;"/><path d="M1519.7231,347.8231 Q1519.1421,348.1219 1518.5029,348.2713 Q1517.8638,348.4207 1517.1582,348.4207 Q1514.6514,348.4207 1513.3315,346.7689 Q1512.0117,345.117 1512.0117,341.9959 Q1512.0117,338.8665 1513.3315,337.2147 Q1514.6514,335.5628 1517.1582,335.5628 Q1517.8638,335.5628 1518.5112,335.7122 Q1519.1587,335.8616 1519.7231,336.1605 L1519.7231,338.8831 Q1519.0923,338.3021 1518.4988,338.0323 Q1517.9053,337.7625 1517.2744,337.7625 Q1515.9297,337.7625 1515.2449,338.8292 Q1514.5601,339.8958 1514.5601,341.9959 Q1514.5601,344.0877 1515.2449,345.1544 Q1515.9297,346.221 1517.2744,346.221 Q1517.9053,346.221 1518.4988,345.9512 Q1519.0923,345.6815 1519.7231,345.1004 Z " fill="#000000"/><text fill="#000000" font-family="sans-serif" font-size="14" lengthAdjust="spacing" textLength="73" x="1537.75" y="346.971">GameState</text><line style="stroke:#181818;stroke-width:0.5;" x1="1424.5" x2="1691.5" y1="357.68" y2="357.68"/><rect fill="none" height="6" style="stroke:#C82930;stroke-width:1.0;" width="6" x="1431.5" y="368.4241"/><text fill="#000000" font-family="sans-serif" font-size="14" lengthAdjust="spacing" textLength="130" x="1443.5" y="375.2152">currentState : State</text><line style="stroke:#181818;stroke-width:0.5;" x1="1424.5" x2="1691.5" y1="382.1683" y2="382.1683"/><ellipse cx="1434.5" cy="395.9124" fill="#84BE84" rx="3" ry="3" style="stroke:#038048;stroke-width:1.0;"/><text fill="#000000" font-family="sans-serif" font-size="14" lengthAdjust="spacing" textLength="243" x="1443.5" y="399.7034">changeState(newState : State) : void</text></g><!--class World--><g id="elem_World"><rect codeLine="24" fill="#F1F1F1" height="80.9766" id="World" rx="2.5" ry="2.5" style="stroke:#181818;stroke-width:0.5;" width="147" x="1021.5" y="325.68"/><ellipse cx="1070.75" cy="341.68" fill="#ADD1B2" rx="11" ry="11" style="stroke:#181818;stroke-width:1.0;"/><path d="M1073.2231,347.8231 Q1072.6421,348.1219 1072.0029,348.2713 Q1071.3638,348.4207 1070.6582,348.4207 Q1068.1514,348.4207 1066.8315,346.7689 Q1065.5117,345.117 1065.5117,341.9959 Q1065.5117,338.8665 1066.8315,337.2147 Q1068.1514,335.5628 1070.6582,335.5628 Q1071.3638,335.5628 1072.0112,335.7122 Q1072.6587,335.8616 1073.2231,336.1605 L1073.2231,338.8831 Q1072.5923,338.3021 1071.9988,338.0323 Q1071.4053,337.7625 1070.7744,337.7625 Q1069.4297,337.7625 1068.7449,338.8292 Q1068.0601,339.8958 1068.0601,341.9959 Q1068.0601,344.0877 1068.7449,345.1544 Q1069.4297,346.221 1070.7744,346.221 Q1071.4053,346.221 1071.9988,345.9512 Q1072.5923,345.6815 1073.2231,345.1004 Z " fill="#000000"/><text fill="#000000" font-family="sans-serif" font-size="14" lengthAdjust="spacing" textLength="40" x="1091.25" y="346.971">World</text><line style="stroke:#181818;stroke-width:0.5;" x1="1022.5" x2="1167.5" y1="357.68" y2="357.68"/><rect fill="none" height="6" style="stroke:#C82930;stroke-width:1.0;" width="6" x="1029.5" y="368.4241"/><text fill="#000000" font-family="sans-serif" font-size="14" lengthAdjust="spacing" textLength="85" x="1041.5" y="375.2152">tiles : Tile[][]</text><line style="stroke:#181818;stroke-width:0.5;" x1="1022.5" x2="1167.5" y1="382.1683" y2="382.1683"/><ellipse cx="1032.5" cy="395.9124" fill="#84BE84" rx="3" ry="3" style="stroke:#038048;stroke-width:1.0;"/><text fill="#000000" font-family="sans-serif" font-size="14" lengthAdjust="spacing" textLength="121" x="1041.5" y="399.7034">loadWorld() : void</text></g><!--class Tile--><g id="elem_Tile"><rect codeLine="29" fill="#F1F1F1" height="64.4883" id="Tile" rx="2.5" ry="2.5" style="stroke:#181818;stroke-width:0.5;" width="125" x="1032.5" y="151.73"/><ellipse cx="1078.25" cy="167.73" fill="#ADD1B2" rx="11" ry="11" style="stroke:#181818;stroke-width:1.0;"/><path d="M1080.7231,173.8731 Q1080.1421,174.1719 1079.5029,174.3213 Q1078.8638,174.4707 1078.1582,174.4707 Q1075.6514,174.4707 1074.3315,172.8189 Q1073.0117,171.167 1073.0117,168.0459 Q1073.0117,164.9165 1074.3315,163.2647 Q1075.6514,161.6128 1078.1582,161.6128 Q1078.8638,161.6128 1079.5112,161.7622 Q1080.1587,161.9116 1080.7231,162.2105 L1080.7231,164.9331 Q1080.0923,164.3521 1079.4988,164.0823 Q1078.9053,163.8125 1078.2744,163.8125 Q1076.9297,163.8125 1076.2449,164.8792 Q1075.5601,165.9458 1075.5601,168.0459 Q1075.5601,170.1377 1076.2449,171.2044 Q1076.9297,172.271 1078.2744,172.271 Q1078.9053,172.271 1079.4988,172.0012 Q1080.0923,171.7315 1080.7231,171.1504 Z " fill="#000000"/><text fill="#000000" font-family="sans-serif" font-size="14" lengthAdjust="spacing" textLength="25" x="1098.75" y="173.021">Tile</text><line style="stroke:#181818;stroke-width:0.5;" x1="1033.5" x2="1156.5" y1="183.73" y2="183.73"/><rect fill="none" height="6" style="stroke:#C82930;stroke-width:1.0;" width="6" x="1040.5" y="194.4741"/><text fill="#000000" font-family="sans-serif" font-size="14" lengthAdjust="spacing" textLength="99" x="1052.5" y="201.2652">type : TileType</text><line style="stroke:#181818;stroke-width:0.5;" x1="1033.5" x2="1156.5" y1="208.2183" y2="208.2183"/></g><!--class Entity--><g id="elem_Entity"><rect codeLine="35" fill="#F1F1F1" height="113.9531" id="Entity" rx="2.5" ry="2.5" style="stroke:#181818;stroke-width:0.5;" width="129" x="663.5" y="127"/><ellipse cx="705.05" cy="143" fill="#ADD1B2" rx="11" ry="11" style="stroke:#181818;stroke-width:1.0;"/><path d="M707.5231,149.1431 Q706.9421,149.4419 706.3029,149.5913 Q705.6638,149.7407 704.9582,149.7407 Q702.4514,149.7407 701.1315,148.0889 Q699.8117,146.437 699.8117,143.3159 Q699.8117,140.1865 701.1315,138.5347 Q702.4514,136.8828 704.9582,136.8828 Q705.6638,136.8828 706.3112,137.0322 Q706.9587,137.1816 707.5231,137.4805 L707.5231,140.2031 Q706.8923,139.6221 706.2988,139.3523 Q705.7053,139.0825 705.0744,139.0825 Q703.7297,139.0825 703.0449,140.1492 Q702.3601,141.2158 702.3601,143.3159 Q702.3601,145.4077 703.0449,146.4744 Q703.7297,147.541 705.0744,147.541 Q705.7053,147.541 706.2988,147.2712 Q706.8923,147.0015 707.5231,146.4204 Z " fill="#000000"/><text fill="#000000" font-family="sans-serif" font-size="14" lengthAdjust="spacing" textLength="38" x="724.95" y="148.291">Entity</text><line style="stroke:#181818;stroke-width:0.5;" x1="664.5" x2="791.5" y1="159" y2="159"/><rect fill="none" height="6" style="stroke:#C82930;stroke-width:1.0;" width="6" x="671.5" y="169.7441"/><text fill="#000000" font-family="sans-serif" font-size="14" lengthAdjust="spacing" textLength="103" x="683.5" y="176.5352">position : Point</text><rect fill="none" height="6" style="stroke:#C82930;stroke-width:1.0;" width="6" x="671.5" y="186.2324"/><text fill="#000000" font-family="sans-serif" font-size="14" lengthAdjust="spacing" textLength="98" x="683.5" y="193.0234">velocity : Point</text><line style="stroke:#181818;stroke-width:0.5;" x1="664.5" x2="791.5" y1="199.9766" y2="199.9766"/><ellipse cx="674.5" cy="213.7207" fill="#84BE84" rx="3" ry="3" style="stroke:#038048;stroke-width:1.0;"/><text fill="#000000" font-family="sans-serif" font-size="14" lengthAdjust="spacing" textLength="99" x="683.5" y="217.5117">update() : void</text><ellipse cx="674.5" cy="230.209" fill="#84BE84" rx="3" ry="3" style="stroke:#038048;stroke-width:1.0;"/><text fill="#000000" font-family="sans-serif" font-size="14" lengthAdjust="spacing" textLength="97" x="683.5" y="234">render() : void</text></g><!--class Player--><g id="elem_Player"><rect codeLine="42" fill="#F1F1F1" height="80.9766" id="Player" rx="2.5" ry="2.5" style="stroke:#181818;stroke-width:0.5;" width="249" x="471.5" y="325.68"/><ellipse cx="571.25" cy="341.68" fill="#ADD1B2" rx="11" ry="11" style="stroke:#181818;stroke-width:1.0;"/><path d="M573.7231,347.8231 Q573.1421,348.1219 572.5029,348.2713 Q571.8638,348.4207 571.1582,348.4207 Q568.6514,348.4207 567.3315,346.7689 Q566.0117,345.117 566.0117,341.9959 Q566.0117,338.8665 567.3315,337.2147 Q568.6514,335.5628 571.1582,335.5628 Q571.8638,335.5628 572.5112,335.7122 Q573.1587,335.8616 573.7231,336.1605 L573.7231,338.8831 Q573.0923,338.3021 572.4988,338.0323 Q571.9053,337.7625 571.2744,337.7625 Q569.9297,337.7625 569.2449,338.8292 Q568.5601,339.8958 568.5601,341.9959 Q568.5601,344.0877 569.2449,345.1544 Q569.9297,346.221 571.2744,346.221 Q571.9053,346.221 572.4988,345.9512 Q573.0923,345.6815 573.7231,345.1004 Z " fill="#000000"/><text fill="#000000" font-family="sans-serif" font-size="14" lengthAdjust="spacing" textLength="41" x="591.75" y="346.971">Player</text><line style="stroke:#181818;stroke-width:0.5;" x1="472.5" x2="719.5" y1="357.68" y2="357.68"/><rect fill="none" height="6" style="stroke:#C82930;stroke-width:1.0;" width="6" x="479.5" y="368.4241"/><text fill="#000000" font-family="sans-serif" font-size="14" lengthAdjust="spacing" textLength="73" x="491.5" y="375.2152">health : int</text><line style="stroke:#181818;stroke-width:0.5;" x1="472.5" x2="719.5" y1="382.1683" y2="382.1683"/><ellipse cx="482.5" cy="395.9124" fill="#84BE84" rx="3" ry="3" style="stroke:#038048;stroke-width:1.0;"/><text fill="#000000" font-family="sans-serif" font-size="14" lengthAdjust="spacing" textLength="223" x="491.5" y="399.7034">move(direction : Direction) : void</text></g><!--class Enemy--><g id="elem_Enemy"><rect codeLine="47" fill="#F1F1F1" height="80.9766" id="Enemy" rx="2.5" ry="2.5" style="stroke:#181818;stroke-width:0.5;" width="209" x="755.5" y="325.68"/><ellipse cx="833.25" cy="341.68" fill="#ADD1B2" rx="11" ry="11" style="stroke:#181818;stroke-width:1.0;"/><path d="M835.7231,347.8231 Q835.1421,348.1219 834.5029,348.2713 Q833.8638,348.4207 833.1582,348.4207 Q830.6514,348.4207 829.3315,346.7689 Q828.0117,345.117 828.0117,341.9959 Q828.0117,338.8665 829.3315,337.2147 Q830.6514,335.5628 833.1582,335.5628 Q833.8638,335.5628 834.5112,335.7122 Q835.1587,335.8616 835.7231,336.1605 L835.7231,338.8831 Q835.0923,338.3021 834.4988,338.0323 Q833.9053,337.7625 833.2744,337.7625 Q831.9297,337.7625 831.2449,338.8292 Q830.5601,339.8958 830.5601,341.9959 Q830.5601,344.0877 831.2449,345.1544 Q831.9297,346.221 833.2744,346.221 Q833.9053,346.221 834.4988,345.9512 Q835.0923,345.6815 835.7231,345.1004 Z " fill="#000000"/><text fill="#000000" font-family="sans-serif" font-size="14" lengthAdjust="spacing" textLength="45" x="853.75" y="346.971">Enemy</text><line style="stroke:#181818;stroke-width:0.5;" x1="756.5" x2="963.5" y1="357.68" y2="357.68"/><rect fill="none" height="6" style="stroke:#C82930;stroke-width:1.0;" width="6" x="763.5" y="368.4241"/><text fill="#000000" font-family="sans-serif" font-size="14" lengthAdjust="spacing" textLength="85" x="775.5" y="375.2152">damage : int</text><line style="stroke:#181818;stroke-width:0.5;" x1="756.5" x2="963.5" y1="382.1683" y2="382.1683"/><ellipse cx="766.5" cy="395.9124" fill="#84BE84" rx="3" ry="3" style="stroke:#038048;stroke-width:1.0;"/><text fill="#000000" font-family="sans-serif" font-size="14" lengthAdjust="spacing" textLength="183" x="775.5" y="399.7034">attack(target : Entity) : void</text></g><!--class Constants--><g id="elem_Constants"><rect codeLine="54" fill="#F1F1F1" height="80.9766" id="Constants" rx="2.5" ry="2.5" style="stroke:#181818;stroke-width:0.5;" width="167" x="249.5" y="143.48"/><ellipse cx="294.25" cy="159.48" fill="#ADD1B2" rx="11" ry="11" style="stroke:#181818;stroke-width:1.0;"/><path d="M296.7231,165.6231 Q296.1421,165.9219 295.5029,166.0713 Q294.8638,166.2207 294.1582,166.2207 Q291.6514,166.2207 290.3315,164.5689 Q289.0117,162.917 289.0117,159.7959 Q289.0117,156.6665 290.3315,155.0147 Q291.6514,153.3628 294.1582,153.3628 Q294.8638,153.3628 295.5112,153.5122 Q296.1587,153.6616 296.7231,153.9605 L296.7231,156.6831 Q296.0923,156.1021 295.4988,155.8323 Q294.9053,155.5625 294.2744,155.5625 Q292.9297,155.5625 292.2449,156.6292 Q291.5601,157.6958 291.5601,159.7959 Q291.5601,161.8877 292.2449,162.9544 Q292.9297,164.021 294.2744,164.021 Q294.9053,164.021 295.4988,163.7512 Q296.0923,163.4815 296.7231,162.9004 Z " fill="#000000"/><text fill="#000000" font-family="sans-serif" font-size="14" lengthAdjust="spacing" textLength="69" x="314.75" y="164.771">Constants</text><line style="stroke:#181818;stroke-width:0.5;" x1="250.5" x2="415.5" y1="175.48" y2="175.48"/><ellipse cx="260.5" cy="189.2241" fill="none" rx="3" ry="3" style="stroke:#038048;stroke-width:1.0;"/><text fill="#000000" font-family="sans-serif" font-size="14" lengthAdjust="spacing" text-decoration="underline" textLength="135" x="269.5" y="193.0152">SCREEN_WIDTH : int</text><ellipse cx="260.5" cy="205.7124" fill="none" rx="3" ry="3" style="stroke:#038048;stroke-width:1.0;"/><text fill="#000000" font-family="sans-serif" font-size="14" lengthAdjust="spacing" text-decoration="underline" textLength="141" x="269.5" y="209.5034">SCREEN_HEIGHT : int</text><line style="stroke:#181818;stroke-width:0.5;" x1="250.5" x2="415.5" y1="216.4566" y2="216.4566"/></g><!--class HUD--><g id="elem_HUD"><rect codeLine="61" fill="#F1F1F1" height="80.9766" id="HUD" rx="2.5" ry="2.5" style="stroke:#181818;stroke-width:0.5;" width="125" x="69.5" y="143.48"/><ellipse cx="112.85" cy="159.48" fill="#ADD1B2" rx="11" ry="11" style="stroke:#181818;stroke-width:1.0;"/><path d="M115.3231,165.6231 Q114.7421,165.9219 114.1029,166.0713 Q113.4638,166.2207 112.7582,166.2207 Q110.2514,166.2207 108.9315,164.5689 Q107.6117,162.917 107.6117,159.7959 Q107.6117,156.6665 108.9315,155.0147 Q110.2514,153.3628 112.7582,153.3628 Q113.4638,153.3628 114.1112,153.5122 Q114.7587,153.6616 115.3231,153.9605 L115.3231,156.6831 Q114.6923,156.1021 114.0988,155.8323 Q113.5053,155.5625 112.8744,155.5625 Q111.5297,155.5625 110.8449,156.6292 Q110.1601,157.6958 110.1601,159.7959 Q110.1601,161.8877 110.8449,162.9544 Q111.5297,164.021 112.8744,164.021 Q113.5053,164.021 114.0988,163.7512 Q114.6923,163.4815 115.3231,162.9004 Z " fill="#000000"/><text fill="#000000" font-family="sans-serif" font-size="14" lengthAdjust="spacing" textLength="30" x="133.15" y="164.771">HUD</text><line style="stroke:#181818;stroke-width:0.5;" x1="70.5" x2="193.5" y1="175.48" y2="175.48"/><line style="stroke:#181818;stroke-width:0.5;" x1="70.5" x2="193.5" y1="183.48" y2="183.48"/><ellipse cx="80.5" cy="197.2241" fill="#84BE84" rx="3" ry="3" style="stroke:#038048;stroke-width:1.0;"/><text fill="#000000" font-family="sans-serif" font-size="14" lengthAdjust="spacing" textLength="99" x="89.5" y="201.0152">update() : void</text><ellipse cx="80.5" cy="213.7124" fill="#84BE84" rx="3" ry="3" style="stroke:#038048;stroke-width:1.0;"/><text fill="#000000" font-family="sans-serif" font-size="14" lengthAdjust="spacing" textLength="97" x="89.5" y="217.5034">render() : void</text></g><!--link Main to GameLoop--><g id="link_Main_GameLoop"><path codeLine="67" d="M1822.24,333.45 C1793.17,302.71 1744.32,260.37 1690.5,253.2 C1661.09,249.29 1452.91,249.29 1423.5,253.2 C1415.51,254.27 1412.88,253.76 1406,257.95 C1387.63,269.15 1374.6593,280.3216 1360.0793,296.1916 " fill="none" id="Main-to-GameLoop" style="stroke:#181818;stroke-width:1.0;stroke-dasharray:7.0,7.0;"/><polygon fill="#181818" points="1356.02,300.61,1365.0545,296.6886,1359.4027,296.928,1359.1633,291.2762,1356.02,300.61" style="stroke:#181818;stroke-width:1.0;"/></g><!--link GameLoop to GameState--><g id="link_GameLoop_GameState"><path codeLine="68" d="M1388.87,366.17 C1400.32,366.17 1411.77,366.17 1423.22,366.17 " fill="none" id="GameLoop-GameState" style="stroke:#181818;stroke-width:1.0;"/></g><!--reverse link Tile to World--><g id="link_Tile_World"><path codeLine="69" d="M1095,234.36 C1095,264.61 1095,292.5 1095,325.32 " fill="none" id="Tile-backto-World" style="stroke:#181818;stroke-width:1.0;"/><polygon fill="none" points="1095,216.36,1089,234.36,1101,234.36,1095,216.36" style="stroke:#181818;stroke-width:1.0;"/></g><!--reverse link Entity to Player--><g id="link_Entity_Player"><path codeLine="70" d="M676.3217,255.5199 C656.3417,282.7899 643.42,300.44 625.28,325.19 " fill="none" id="Entity-backto-Player" style="stroke:#181818;stroke-width:1.0;"/><polygon fill="none" points="686.96,241,671.4817,251.9738,681.1616,259.066,686.96,241" style="stroke:#181818;stroke-width:1.0;"/></g><!--reverse link Entity to Enemy--><g id="link_Entity_Enemy"><path codeLine="71" d="M779.6783,255.5199 C799.6583,282.7899 812.58,300.44 830.72,325.19 " fill="none" id="Entity-backto-Enemy" style="stroke:#181818;stroke-width:1.0;"/><polygon fill="none" points="769.04,241,774.8384,259.066,784.5183,251.9738,769.04,241" style="stroke:#181818;stroke-width:1.0;"/></g><!--link GameState to Player--><g id="link_GameState_Player"><path codeLine="72" d="M1518.52,325.39 C1485.6,295.4 1435.65,258.68 1382.67,251.62 C1365.56,249.35 778.44,249.35 761.33,251.62 C710.45,258.4 663.49,295.16 632.72,325.24 " fill="none" id="GameState-Player" style="stroke:#181818;stroke-width:1.0;"/></g><!--link GameState to Enemy--><g id="link_GameState_Enemy"><path codeLine="73" d="M1518.52,325.39 C1485.6,295.4 1435.65,258.68 1382.67,251.62 C1363.15,249.03 1047.85,249.03 1028.33,251.62 C1017.68,253.04 1014.66,253.25 1005,257.95 C968.85,275.54 932.6,302.6 905.39,325.26 " fill="none" id="GameState-Enemy" style="stroke:#181818;stroke-width:1.0;"/></g><!--SRC=[fLJRJiCm37tlL_In27KVWD1UMCMG04tRq1wc2ONMT15f7ANkfcditt4lqAPZm4IbAkcnVNnYEpKYVXCf-35cWnqMDXKPQ7u7mXX_x_dyn4hakVyWf6w0yhdC-3iGDitzAtz6LkfqkRhW_GPbKdaTl8FdcLFqvSRXlsNW7j5qSeGodnPQCpNplY0g4BeLa9Em53Wf6npDDt1X4a7mZS62Ji06FUqzPJFYuAwqkB0SI3LULe3NbZDU2vtMGO66hUDrHf6sQ5NYL6dHGIeT91MKBPZpkbmjLwq6XIAft7yuMXdbiEqCD6Hptlv18jT0qixH67MXYjPWBacYPke9IasjPGCAuzAxR_b7loPAxC1sywz1A5fpW9CXmmq4YRGGDzf6d_lJt966p3bQ8hAoBZrgGSG52tX2Ko0srYKve_C5zzKfwWrg7dXDUIVvdX6IyS6_dDrCe-ZnUN4tcezxMewSnj7TxNZUyVf5YNHqZ9z6tR_0cLtYHDL_P61bkgR1yElMUr_NFwnCONlhl7hcmyA4xyDgDBrcmgxVmmItEcmwVWHNpVAQSGWLl3gqTIkFu0y0]--></g></svg>