<?xml version="1.0" encoding="us-ascii" standalone="no"?><svg xmlns="http://www.w3.org/2000/svg" xmlns:xlink="http://www.w3.org/1999/xlink" contentStyleType="text/css" height="451px" preserveAspectRatio="none" style="width:1382px;height:451px;background:#FFFFFF;" version="1.1" viewBox="0 0 1382 451" width="1382px" zoomAndPan="magnify"><defs/><g><!--cluster game--><g id="cluster_game"><path d="M8.5,6 L47.5,6 A3.75,3.75 0 0 1 50,8.5 L57,28.0986 L1021.5,28.0986 A2.5,2.5 0 0 1 1024,30.5986 L1024,318.5 A2.5,2.5 0 0 1 1021.5,321 L8.5,321 A2.5,2.5 0 0 1 6,318.5 L6,8.5 A2.5,2.5 0 0 1 8.5,6 " fill="none" style="stroke:#000000;stroke-width:1.5;"/><line style="stroke:#000000;stroke-width:1.5;" x1="6" x2="57" y1="28.0986" y2="28.0986"/><text fill="#000000" font-family="sans-serif" font-size="14" font-weight="bold" lengthAdjust="spacing" textLength="38" x="10" y="21.1318">game</text></g><!--cluster graphics--><g id="cluster_graphics"><path d="M499.5,345 L561.5,345 A3.75,3.75 0 0 1 564,347.5 L571,367.0986 L965.5,367.0986 A2.5,2.5 0 0 1 968,369.5986 L968,441.5 A2.5,2.5 0 0 1 965.5,444 L499.5,444 A2.5,2.5 0 0 1 497,441.5 L497,347.5 A2.5,2.5 0 0 1 499.5,345 " fill="none" style="stroke:#000000;stroke-width:1.5;"/><line style="stroke:#000000;stroke-width:1.5;" x1="497" x2="571" y1="367.0986" y2="367.0986"/><text fill="#000000" font-family="sans-serif" font-size="14" font-weight="bold" lengthAdjust="spacing" textLength="61" x="501" y="360.1318">graphics</text></g><!--cluster audio--><g id="cluster_audio"><path d="M1050.5,222 L1090.5,222 A3.75,3.75 0 0 1 1093,224.5 L1100,244.0986 L1253.5,244.0986 A2.5,2.5 0 0 1 1256,246.5986 L1256,318.5 A2.5,2.5 0 0 1 1253.5,321 L1050.5,321 A2.5,2.5 0 0 1 1048,318.5 L1048,224.5 A2.5,2.5 0 0 1 1050.5,222 " fill="none" style="stroke:#000000;stroke-width:1.5;"/><line style="stroke:#000000;stroke-width:1.5;" x1="1048" x2="1100" y1="244.0986" y2="244.0986"/><text fill="#000000" font-family="sans-serif" font-size="14" font-weight="bold" lengthAdjust="spacing" textLength="39" x="1052" y="237.1318">audio</text></g><!--class Game--><g id="elem_Game"><rect codeLine="3" fill="#F1F1F1" height="48" id="Game" rx="2.5" ry="2.5" style="stroke:#181818;stroke-width:0.5;" width="70" x="407" y="41"/><ellipse cx="422" cy="57" fill="#ADD1B2" rx="11" ry="11" style="stroke:#181818;stroke-width:1.0;"/><path d="M419.9063,56.8438 Q419.9063,58.7188 420.4844,59.7344 Q421.0625,60.7344 422.2188,60.7344 Q423.5625,60.7344 424.2188,58.7188 L426.4844,59.1406 Q425.375,62.6719 422.2031,62.6719 Q419.8594,62.6719 418.6406,61.1875 Q417.4219,59.7031 417.4219,56.8438 Q417.4219,51.125 422.125,51.125 Q423.6719,51.125 424.7031,51.9375 Q425.75,52.75 426.25,54.3594 L423.9844,54.9063 Q423.75,54.0313 423.2656,53.5469 Q422.7813,53.0469 422.1563,53.0469 Q419.9063,53.0469 419.9063,56.8438 Z " fill="#000000"/><text fill="#000000" font-family="sans-serif" font-size="14" lengthAdjust="spacing" textLength="38" x="436" y="62.0825">Game</text><line style="stroke:#181818;stroke-width:0.5;" x1="408" x2="476" y1="73" y2="73"/><line style="stroke:#181818;stroke-width:0.5;" x1="408" x2="476" y1="81" y2="81"/></g><!--class Player--><g id="elem_Player"><rect codeLine="4" fill="#F1F1F1" height="48" id="Player" rx="2.5" ry="2.5" style="stroke:#181818;stroke-width:0.5;" width="72" x="266" y="257"/><ellipse cx="281" cy="273" fill="#ADD1B2" rx="11" ry="11" style="stroke:#181818;stroke-width:1.0;"/><path d="M278.9063,272.8438 Q278.9063,274.7188 279.4844,275.7344 Q280.0625,276.7344 281.2188,276.7344 Q282.5625,276.7344 283.2188,274.7188 L285.4844,275.1406 Q284.375,278.6719 281.2031,278.6719 Q278.8594,278.6719 277.6406,277.1875 Q276.4219,275.7031 276.4219,272.8438 Q276.4219,267.125 281.125,267.125 Q282.6719,267.125 283.7031,267.9375 Q284.75,268.75 285.25,270.3594 L282.9844,270.9063 Q282.75,270.0313 282.2656,269.5469 Q281.7813,269.0469 281.1563,269.0469 Q278.9063,269.0469 278.9063,272.8438 Z " fill="#000000"/><text fill="#000000" font-family="sans-serif" font-size="14" lengthAdjust="spacing" textLength="40" x="295" y="278.0825">Player</text><line style="stroke:#181818;stroke-width:0.5;" x1="267" x2="337" y1="289" y2="289"/><line style="stroke:#181818;stroke-width:0.5;" x1="267" x2="337" y1="297" y2="297"/></g><!--class Package--><g id="elem_Package"><rect codeLine="5" fill="#F1F1F1" height="48" id="Package" rx="2.5" ry="2.5" style="stroke:#181818;stroke-width:0.5;" width="87" x="21.5" y="257"/><ellipse cx="36.5" cy="273" fill="#ADD1B2" rx="11" ry="11" style="stroke:#181818;stroke-width:1.0;"/><path d="M34.4063,272.8438 Q34.4063,274.7188 34.9844,275.7344 Q35.5625,276.7344 36.7188,276.7344 Q38.0625,276.7344 38.7188,274.7188 L40.9844,275.1406 Q39.875,278.6719 36.7031,278.6719 Q34.3594,278.6719 33.1406,277.1875 Q31.9219,275.7031 31.9219,272.8438 Q31.9219,267.125 36.625,267.125 Q38.1719,267.125 39.2031,267.9375 Q40.25,268.75 40.75,270.3594 L38.4844,270.9063 Q38.25,270.0313 37.7656,269.5469 Q37.2813,269.0469 36.6563,269.0469 Q34.4063,269.0469 34.4063,272.8438 Z " fill="#000000"/><text fill="#000000" font-family="sans-serif" font-size="14" lengthAdjust="spacing" textLength="55" x="50.5" y="278.0825">Package</text><line style="stroke:#181818;stroke-width:0.5;" x1="22.5" x2="107.5" y1="289" y2="289"/><line style="stroke:#181818;stroke-width:0.5;" x1="22.5" x2="107.5" y1="297" y2="297"/></g><!--class Obstacle--><g id="elem_Obstacle"><rect codeLine="6" fill="#F1F1F1" height="48" id="Obstacle" rx="2.5" ry="2.5" style="stroke:#181818;stroke-width:0.5;" width="88" x="143" y="257"/><ellipse cx="158" cy="273" fill="#ADD1B2" rx="11" ry="11" style="stroke:#181818;stroke-width:1.0;"/><path d="M155.9063,272.8438 Q155.9063,274.7188 156.4844,275.7344 Q157.0625,276.7344 158.2188,276.7344 Q159.5625,276.7344 160.2188,274.7188 L162.4844,275.1406 Q161.375,278.6719 158.2031,278.6719 Q155.8594,278.6719 154.6406,277.1875 Q153.4219,275.7031 153.4219,272.8438 Q153.4219,267.125 158.125,267.125 Q159.6719,267.125 160.7031,267.9375 Q161.75,268.75 162.25,270.3594 L159.9844,270.9063 Q159.75,270.0313 159.2656,269.5469 Q158.7813,269.0469 158.1563,269.0469 Q155.9063,269.0469 155.9063,272.8438 Z " fill="#000000"/><text fill="#000000" font-family="sans-serif" font-size="14" lengthAdjust="spacing" textLength="56" x="172" y="278.0825">Obstacle</text><line style="stroke:#181818;stroke-width:0.5;" x1="144" x2="230" y1="289" y2="289"/><line style="stroke:#181818;stroke-width:0.5;" x1="144" x2="230" y1="297" y2="297"/></g><!--class Map--><g id="elem_Map"><rect codeLine="7" fill="#F1F1F1" height="48" id="Map" rx="2.5" ry="2.5" style="stroke:#181818;stroke-width:0.5;" width="59" x="626.5" y="149"/><ellipse cx="641.5" cy="165" fill="#ADD1B2" rx="11" ry="11" style="stroke:#181818;stroke-width:1.0;"/><path d="M639.4063,164.8438 Q639.4063,166.7188 639.9844,167.7344 Q640.5625,168.7344 641.7188,168.7344 Q643.0625,168.7344 643.7188,166.7188 L645.9844,167.1406 Q644.875,170.6719 641.7031,170.6719 Q639.3594,170.6719 638.1406,169.1875 Q636.9219,167.7031 636.9219,164.8438 Q636.9219,159.125 641.625,159.125 Q643.1719,159.125 644.2031,159.9375 Q645.25,160.75 645.75,162.3594 L643.4844,162.9063 Q643.25,162.0313 642.7656,161.5469 Q642.2813,161.0469 641.6563,161.0469 Q639.4063,161.0469 639.4063,164.8438 Z " fill="#000000"/><text fill="#000000" font-family="sans-serif" font-size="14" lengthAdjust="spacing" textLength="27" x="655.5" y="170.0825">Map</text><line style="stroke:#181818;stroke-width:0.5;" x1="627.5" x2="684.5" y1="181" y2="181"/><line style="stroke:#181818;stroke-width:0.5;" x1="627.5" x2="684.5" y1="189" y2="189"/></g><!--class Camera--><g id="elem_Camera"><rect codeLine="8" fill="#F1F1F1" height="48" id="Camera" rx="2.5" ry="2.5" style="stroke:#181818;stroke-width:0.5;" width="82" x="926" y="41"/><ellipse cx="941" cy="57" fill="#ADD1B2" rx="11" ry="11" style="stroke:#181818;stroke-width:1.0;"/><path d="M938.9063,56.8438 Q938.9063,58.7188 939.4844,59.7344 Q940.0625,60.7344 941.2188,60.7344 Q942.5625,60.7344 943.2188,58.7188 L945.4844,59.1406 Q944.375,62.6719 941.2031,62.6719 Q938.8594,62.6719 937.6406,61.1875 Q936.4219,59.7031 936.4219,56.8438 Q936.4219,51.125 941.125,51.125 Q942.6719,51.125 943.7031,51.9375 Q944.75,52.75 945.25,54.3594 L942.9844,54.9063 Q942.75,54.0313 942.2656,53.5469 Q941.7813,53.0469 941.1563,53.0469 Q938.9063,53.0469 938.9063,56.8438 Z " fill="#000000"/><text fill="#000000" font-family="sans-serif" font-size="14" lengthAdjust="spacing" textLength="50" x="955" y="62.0825">Camera</text><line style="stroke:#181818;stroke-width:0.5;" x1="927" x2="1007" y1="73" y2="73"/><line style="stroke:#181818;stroke-width:0.5;" x1="927" x2="1007" y1="81" y2="81"/></g><!--class InputHandler--><g id="elem_InputHandler"><rect codeLine="9" fill="#F1F1F1" height="48" id="InputHandler" rx="2.5" ry="2.5" style="stroke:#181818;stroke-width:0.5;" width="112" x="373" y="257"/><ellipse cx="388" cy="273" fill="#ADD1B2" rx="11" ry="11" style="stroke:#181818;stroke-width:1.0;"/><path d="M385.9063,272.8438 Q385.9063,274.7188 386.4844,275.7344 Q387.0625,276.7344 388.2188,276.7344 Q389.5625,276.7344 390.2188,274.7188 L392.4844,275.1406 Q391.375,278.6719 388.2031,278.6719 Q385.8594,278.6719 384.6406,277.1875 Q383.4219,275.7031 383.4219,272.8438 Q383.4219,267.125 388.125,267.125 Q389.6719,267.125 390.7031,267.9375 Q391.75,268.75 392.25,270.3594 L389.9844,270.9063 Q389.75,270.0313 389.2656,269.5469 Q388.7813,269.0469 388.1563,269.0469 Q385.9063,269.0469 385.9063,272.8438 Z " fill="#000000"/><text fill="#000000" font-family="sans-serif" font-size="14" lengthAdjust="spacing" textLength="80" x="402" y="278.0825">InputHandler</text><line style="stroke:#181818;stroke-width:0.5;" x1="374" x2="484" y1="289" y2="289"/><line style="stroke:#181818;stroke-width:0.5;" x1="374" x2="484" y1="297" y2="297"/></g><!--class AssetManager--><g id="elem_AssetManager"><rect codeLine="10" fill="#F1F1F1" height="48" id="AssetManager" rx="2.5" ry="2.5" style="stroke:#181818;stroke-width:0.5;" width="123" x="720.5" y="149"/><ellipse cx="735.5" cy="165" fill="#ADD1B2" rx="11" ry="11" style="stroke:#181818;stroke-width:1.0;"/><path d="M733.4063,164.8438 Q733.4063,166.7188 733.9844,167.7344 Q734.5625,168.7344 735.7188,168.7344 Q737.0625,168.7344 737.7188,166.7188 L739.9844,167.1406 Q738.875,170.6719 735.7031,170.6719 Q733.3594,170.6719 732.1406,169.1875 Q730.9219,167.7031 730.9219,164.8438 Q730.9219,159.125 735.625,159.125 Q737.1719,159.125 738.2031,159.9375 Q739.25,160.75 739.75,162.3594 L737.4844,162.9063 Q737.25,162.0313 736.7656,161.5469 Q736.2813,161.0469 735.6563,161.0469 Q733.4063,161.0469 733.4063,164.8438 Z " fill="#000000"/><text fill="#000000" font-family="sans-serif" font-size="14" lengthAdjust="spacing" textLength="91" x="749.5" y="170.0825">AssetManager</text><line style="stroke:#181818;stroke-width:0.5;" x1="721.5" x2="842.5" y1="181" y2="181"/><line style="stroke:#181818;stroke-width:0.5;" x1="721.5" x2="842.5" y1="189" y2="189"/></g><!--class SoundManager--><g id="elem_SoundManager"><rect codeLine="11" fill="#F1F1F1" height="48" id="SoundManager" rx="2.5" ry="2.5" style="stroke:#181818;stroke-width:0.5;" width="129" x="878.5" y="149"/><ellipse cx="893.5" cy="165" fill="#ADD1B2" rx="11" ry="11" style="stroke:#181818;stroke-width:1.0;"/><path d="M891.4063,164.8438 Q891.4063,166.7188 891.9844,167.7344 Q892.5625,168.7344 893.7188,168.7344 Q895.0625,168.7344 895.7188,166.7188 L897.9844,167.1406 Q896.875,170.6719 893.7031,170.6719 Q891.3594,170.6719 890.1406,169.1875 Q888.9219,167.7031 888.9219,164.8438 Q888.9219,159.125 893.625,159.125 Q895.1719,159.125 896.2031,159.9375 Q897.25,160.75 897.75,162.3594 L895.4844,162.9063 Q895.25,162.0313 894.7656,161.5469 Q894.2813,161.0469 893.6563,161.0469 Q891.4063,161.0469 891.4063,164.8438 Z " fill="#000000"/><text fill="#000000" font-family="sans-serif" font-size="14" lengthAdjust="spacing" textLength="97" x="907.5" y="170.0825">SoundManager</text><line style="stroke:#181818;stroke-width:0.5;" x1="879.5" x2="1006.5" y1="181" y2="181"/><line style="stroke:#181818;stroke-width:0.5;" x1="879.5" x2="1006.5" y1="189" y2="189"/></g><!--class CollisionDetector--><g id="elem_CollisionDetector"><rect codeLine="12" fill="#F1F1F1" height="48" id="CollisionDetector" rx="2.5" ry="2.5" style="stroke:#181818;stroke-width:0.5;" width="139" x="96.5" y="149"/><ellipse cx="111.5" cy="165" fill="#ADD1B2" rx="11" ry="11" style="stroke:#181818;stroke-width:1.0;"/><path d="M109.4063,164.8438 Q109.4063,166.7188 109.9844,167.7344 Q110.5625,168.7344 111.7188,168.7344 Q113.0625,168.7344 113.7188,166.7188 L115.9844,167.1406 Q114.875,170.6719 111.7031,170.6719 Q109.3594,170.6719 108.1406,169.1875 Q106.9219,167.7031 106.9219,164.8438 Q106.9219,159.125 111.625,159.125 Q113.1719,159.125 114.2031,159.9375 Q115.25,160.75 115.75,162.3594 L113.4844,162.9063 Q113.25,162.0313 112.7656,161.5469 Q112.2813,161.0469 111.6563,161.0469 Q109.4063,161.0469 109.4063,164.8438 Z " fill="#000000"/><text fill="#000000" font-family="sans-serif" font-size="14" lengthAdjust="spacing" textLength="107" x="125.5" y="170.0825">CollisionDetector</text><line style="stroke:#181818;stroke-width:0.5;" x1="97.5" x2="234.5" y1="181" y2="181"/><line style="stroke:#181818;stroke-width:0.5;" x1="97.5" x2="234.5" y1="189" y2="189"/></g><!--class HUD--><g id="elem_HUD"><rect codeLine="13" fill="#F1F1F1" height="48" id="HUD" rx="2.5" ry="2.5" style="stroke:#181818;stroke-width:0.5;" width="60" x="527" y="257"/><ellipse cx="542" cy="273" fill="#ADD1B2" rx="11" ry="11" style="stroke:#181818;stroke-width:1.0;"/><path d="M539.9063,272.8438 Q539.9063,274.7188 540.4844,275.7344 Q541.0625,276.7344 542.2188,276.7344 Q543.5625,276.7344 544.2188,274.7188 L546.4844,275.1406 Q545.375,278.6719 542.2031,278.6719 Q539.8594,278.6719 538.6406,277.1875 Q537.4219,275.7031 537.4219,272.8438 Q537.4219,267.125 542.125,267.125 Q543.6719,267.125 544.7031,267.9375 Q545.75,268.75 546.25,270.3594 L543.9844,270.9063 Q543.75,270.0313 543.2656,269.5469 Q542.7813,269.0469 542.1563,269.0469 Q539.9063,269.0469 539.9063,272.8438 Z " fill="#000000"/><text fill="#000000" font-family="sans-serif" font-size="14" lengthAdjust="spacing" textLength="28" x="556" y="278.0825">HUD</text><line style="stroke:#181818;stroke-width:0.5;" x1="528" x2="586" y1="289" y2="289"/><line style="stroke:#181818;stroke-width:0.5;" x1="528" x2="586" y1="297" y2="297"/></g><!--class Score--><g id="elem_Score"><rect codeLine="14" fill="#F1F1F1" height="48" id="Score" rx="2.5" ry="2.5" style="stroke:#181818;stroke-width:0.5;" width="69" x="522.5" y="149"/><ellipse cx="537.5" cy="165" fill="#ADD1B2" rx="11" ry="11" style="stroke:#181818;stroke-width:1.0;"/><path d="M535.4063,164.8438 Q535.4063,166.7188 535.9844,167.7344 Q536.5625,168.7344 537.7188,168.7344 Q539.0625,168.7344 539.7188,166.7188 L541.9844,167.1406 Q540.875,170.6719 537.7031,170.6719 Q535.3594,170.6719 534.1406,169.1875 Q532.9219,167.7031 532.9219,164.8438 Q532.9219,159.125 537.625,159.125 Q539.1719,159.125 540.2031,159.9375 Q541.25,160.75 541.75,162.3594 L539.4844,162.9063 Q539.25,162.0313 538.7656,161.5469 Q538.2813,161.0469 537.6563,161.0469 Q535.4063,161.0469 535.4063,164.8438 Z " fill="#000000"/><text fill="#000000" font-family="sans-serif" font-size="14" lengthAdjust="spacing" textLength="37" x="551.5" y="170.0825">Score</text><line style="stroke:#181818;stroke-width:0.5;" x1="523.5" x2="590.5" y1="181" y2="181"/><line style="stroke:#181818;stroke-width:0.5;" x1="523.5" x2="590.5" y1="189" y2="189"/></g><!--class MainScreen--><g id="elem_MainScreen"><rect codeLine="15" fill="#F1F1F1" height="48" id="MainScreen" rx="2.5" ry="2.5" style="stroke:#181818;stroke-width:0.5;" width="107" x="344.5" y="149"/><ellipse cx="359.5" cy="165" fill="#ADD1B2" rx="11" ry="11" style="stroke:#181818;stroke-width:1.0;"/><path d="M357.4063,164.8438 Q357.4063,166.7188 357.9844,167.7344 Q358.5625,168.7344 359.7188,168.7344 Q361.0625,168.7344 361.7188,166.7188 L363.9844,167.1406 Q362.875,170.6719 359.7031,170.6719 Q357.3594,170.6719 356.1406,169.1875 Q354.9219,167.7031 354.9219,164.8438 Q354.9219,159.125 359.625,159.125 Q361.1719,159.125 362.2031,159.9375 Q363.25,160.75 363.75,162.3594 L361.4844,162.9063 Q361.25,162.0313 360.7656,161.5469 Q360.2813,161.0469 359.6563,161.0469 Q357.4063,161.0469 357.4063,164.8438 Z " fill="#000000"/><text fill="#000000" font-family="sans-serif" font-size="14" lengthAdjust="spacing" textLength="75" x="373.5" y="170.0825">MainScreen</text><line style="stroke:#181818;stroke-width:0.5;" x1="345.5" x2="450.5" y1="181" y2="181"/><line style="stroke:#181818;stroke-width:0.5;" x1="345.5" x2="450.5" y1="189" y2="189"/></g><!--class SpriteBatch--><g id="elem_SpriteBatch"><rect codeLine="19" fill="#F1F1F1" height="48" id="SpriteBatch" rx="2.5" ry="2.5" style="stroke:#181818;stroke-width:0.5;" width="105" x="730.5" y="380"/><ellipse cx="745.5" cy="396" fill="#ADD1B2" rx="11" ry="11" style="stroke:#181818;stroke-width:1.0;"/><path d="M743.4063,395.8438 Q743.4063,397.7188 743.9844,398.7344 Q744.5625,399.7344 745.7188,399.7344 Q747.0625,399.7344 747.7188,397.7188 L749.9844,398.1406 Q748.875,401.6719 745.7031,401.6719 Q743.3594,401.6719 742.1406,400.1875 Q740.9219,398.7031 740.9219,395.8438 Q740.9219,390.125 745.625,390.125 Q747.1719,390.125 748.2031,390.9375 Q749.25,391.75 749.75,393.3594 L747.4844,393.9063 Q747.25,393.0313 746.7656,392.5469 Q746.2813,392.0469 745.6563,392.0469 Q743.4063,392.0469 743.4063,395.8438 Z " fill="#000000"/><text fill="#000000" font-family="sans-serif" font-size="14" lengthAdjust="spacing" textLength="73" x="759.5" y="401.0825">SpriteBatch</text><line style="stroke:#181818;stroke-width:0.5;" x1="731.5" x2="834.5" y1="412" y2="412"/><line style="stroke:#181818;stroke-width:0.5;" x1="731.5" x2="834.5" y1="420" y2="420"/></g><!--class Texture--><g id="elem_Texture"><rect codeLine="20" fill="#F1F1F1" height="48" id="Texture" rx="2.5" ry="2.5" style="stroke:#181818;stroke-width:0.5;" width="80" x="616" y="380"/><ellipse cx="631" cy="396" fill="#ADD1B2" rx="11" ry="11" style="stroke:#181818;stroke-width:1.0;"/><path d="M628.9063,395.8438 Q628.9063,397.7188 629.4844,398.7344 Q630.0625,399.7344 631.2188,399.7344 Q632.5625,399.7344 633.2188,397.7188 L635.4844,398.1406 Q634.375,401.6719 631.2031,401.6719 Q628.8594,401.6719 627.6406,400.1875 Q626.4219,398.7031 626.4219,395.8438 Q626.4219,390.125 631.125,390.125 Q632.6719,390.125 633.7031,390.9375 Q634.75,391.75 635.25,393.3594 L632.9844,393.9063 Q632.75,393.0313 632.2656,392.5469 Q631.7813,392.0469 631.1563,392.0469 Q628.9063,392.0469 628.9063,395.8438 Z " fill="#000000"/><text fill="#000000" font-family="sans-serif" font-size="14" lengthAdjust="spacing" textLength="48" x="645" y="401.0825">Texture</text><line style="stroke:#181818;stroke-width:0.5;" x1="617" x2="695" y1="412" y2="412"/><line style="stroke:#181818;stroke-width:0.5;" x1="617" x2="695" y1="420" y2="420"/></g><!--class Sprite--><g id="elem_Sprite"><rect codeLine="21" fill="#F1F1F1" height="48" id="Sprite" rx="2.5" ry="2.5" style="stroke:#181818;stroke-width:0.5;" width="69" x="512.5" y="380"/><ellipse cx="527.5" cy="396" fill="#ADD1B2" rx="11" ry="11" style="stroke:#181818;stroke-width:1.0;"/><path d="M525.4063,395.8438 Q525.4063,397.7188 525.9844,398.7344 Q526.5625,399.7344 527.7188,399.7344 Q529.0625,399.7344 529.7188,397.7188 L531.9844,398.1406 Q530.875,401.6719 527.7031,401.6719 Q525.3594,401.6719 524.1406,400.1875 Q522.9219,398.7031 522.9219,395.8438 Q522.9219,390.125 527.625,390.125 Q529.1719,390.125 530.2031,390.9375 Q531.25,391.75 531.75,393.3594 L529.4844,393.9063 Q529.25,393.0313 528.7656,392.5469 Q528.2813,392.0469 527.6563,392.0469 Q525.4063,392.0469 525.4063,395.8438 Z " fill="#000000"/><text fill="#000000" font-family="sans-serif" font-size="14" lengthAdjust="spacing" textLength="37" x="541.5" y="401.0825">Sprite</text><line style="stroke:#181818;stroke-width:0.5;" x1="513.5" x2="580.5" y1="412" y2="412"/><line style="stroke:#181818;stroke-width:0.5;" x1="513.5" x2="580.5" y1="420" y2="420"/></g><!--class Camera--><g id="elem_Camera"><rect fill="#F1F1F1" height="48" id="Camera" rx="2.5" ry="2.5" style="stroke:#181818;stroke-width:0.5;" width="82" x="870" y="380"/><ellipse cx="885" cy="396" fill="#ADD1B2" rx="11" ry="11" style="stroke:#181818;stroke-width:1.0;"/><path d="M882.9063,395.8438 Q882.9063,397.7188 883.4844,398.7344 Q884.0625,399.7344 885.2188,399.7344 Q886.5625,399.7344 887.2188,397.7188 L889.4844,398.1406 Q888.375,401.6719 885.2031,401.6719 Q882.8594,401.6719 881.6406,400.1875 Q880.4219,398.7031 880.4219,395.8438 Q880.4219,390.125 885.125,390.125 Q886.6719,390.125 887.7031,390.9375 Q888.75,391.75 889.25,393.3594 L886.9844,393.9063 Q886.75,393.0313 886.2656,392.5469 Q885.7813,392.0469 885.1563,392.0469 Q882.9063,392.0469 882.9063,395.8438 Z " fill="#000000"/><text fill="#000000" font-family="sans-serif" font-size="14" lengthAdjust="spacing" textLength="50" x="899" y="401.0825">Camera</text><line style="stroke:#181818;stroke-width:0.5;" x1="871" x2="951" y1="412" y2="412"/><line style="stroke:#181818;stroke-width:0.5;" x1="871" x2="951" y1="420" y2="420"/></g><!--class Music--><g id="elem_Music"><rect codeLine="25" fill="#F1F1F1" height="48" id="Music" rx="2.5" ry="2.5" style="stroke:#181818;stroke-width:0.5;" width="68" x="1172" y="257"/><ellipse cx="1187" cy="273" fill="#ADD1B2" rx="11" ry="11" style="stroke:#181818;stroke-width:1.0;"/><path d="M1184.9063,272.8438 Q1184.9063,274.7188 1185.4844,275.7344 Q1186.0625,276.7344 1187.2188,276.7344 Q1188.5625,276.7344 1189.2188,274.7188 L1191.4844,275.1406 Q1190.375,278.6719 1187.2031,278.6719 Q1184.8594,278.6719 1183.6406,277.1875 Q1182.4219,275.7031 1182.4219,272.8438 Q1182.4219,267.125 1187.125,267.125 Q1188.6719,267.125 1189.7031,267.9375 Q1190.75,268.75 1191.25,270.3594 L1188.9844,270.9063 Q1188.75,270.0313 1188.2656,269.5469 Q1187.7813,269.0469 1187.1563,269.0469 Q1184.9063,269.0469 1184.9063,272.8438 Z " fill="#000000"/><text fill="#000000" font-family="sans-serif" font-size="14" lengthAdjust="spacing" textLength="36" x="1201" y="278.0825">Music</text><line style="stroke:#181818;stroke-width:0.5;" x1="1173" x2="1239" y1="289" y2="289"/><line style="stroke:#181818;stroke-width:0.5;" x1="1173" x2="1239" y1="297" y2="297"/></g><!--class Sound--><g id="elem_Sound"><rect codeLine="26" fill="#F1F1F1" height="48" id="Sound" rx="2.5" ry="2.5" style="stroke:#181818;stroke-width:0.5;" width="73" x="1064.5" y="257"/><ellipse cx="1079.5" cy="273" fill="#ADD1B2" rx="11" ry="11" style="stroke:#181818;stroke-width:1.0;"/><path d="M1077.4063,272.8438 Q1077.4063,274.7188 1077.9844,275.7344 Q1078.5625,276.7344 1079.7188,276.7344 Q1081.0625,276.7344 1081.7188,274.7188 L1083.9844,275.1406 Q1082.875,278.6719 1079.7031,278.6719 Q1077.3594,278.6719 1076.1406,277.1875 Q1074.9219,275.7031 1074.9219,272.8438 Q1074.9219,267.125 1079.625,267.125 Q1081.1719,267.125 1082.2031,267.9375 Q1083.25,268.75 1083.75,270.3594 L1081.4844,270.9063 Q1081.25,270.0313 1080.7656,269.5469 Q1080.2813,269.0469 1079.6563,269.0469 Q1077.4063,269.0469 1077.4063,272.8438 Z " fill="#000000"/><text fill="#000000" font-family="sans-serif" font-size="14" lengthAdjust="spacing" textLength="41" x="1093.5" y="278.0825">Sound</text><line style="stroke:#181818;stroke-width:0.5;" x1="1065.5" x2="1136.5" y1="289" y2="289"/><line style="stroke:#181818;stroke-width:0.5;" x1="1065.5" x2="1136.5" y1="297" y2="297"/></g><!--link Game to SpriteBatch--><g id="link_Game_SpriteBatch"><path codeLine="29" d="M477.13,66.43 C620.73,69.02 1159.95,87.19 1256,214 C1286.86,254.74 1291.78,292.5 1256,329 C1240.28,345.03 872.75,328.43 852,337 C830.7,345.79 815.9866,359.844 803.5166,375.104 " fill="none" id="Game-to-SpriteBatch" style="stroke:#181818;stroke-width:1.0;"/><polygon fill="#181818" points="799.72,379.75,808.5123,375.312,802.8838,375.8783,802.3175,370.2499,799.72,379.75" style="stroke:#181818;stroke-width:1.0;"/></g><!--link Game to Camera--><g id="link_Game_Camera"><path codeLine="30" d="M477.12,66.91 C610.46,70.79 1084.67,88.64 1221,149 C1260.72,166.59 1276.22,174.36 1294,214 C1314.92,260.63 1326.53,289.58 1294,329 C1251,381.1 1048.4127,396.6436 958.4427,401.0936 " fill="none" id="Game-to-Camera" style="stroke:#181818;stroke-width:1.0;"/><polygon fill="#181818" points="952.45,401.39,961.6366,404.9405,957.4439,401.143,961.2414,396.9503,952.45,401.39" style="stroke:#181818;stroke-width:1.0;"/></g><!--link Game to Player--><g id="link_Game_Player"><path codeLine="31" d="M406.59,77.94 C375.6,90.43 332.29,113.26 311,149 C291.16,182.29 292.8533,223.2 296.8033,250.91 " fill="none" id="Game-to-Player" style="stroke:#181818;stroke-width:1.0;"/><polygon fill="#181818" points="297.65,256.85,300.3399,247.3756,296.9444,251.9,292.4199,248.5046,297.65,256.85" style="stroke:#181818;stroke-width:1.0;"/></g><!--link Game to Package--><g id="link_Game_Package"><path codeLine="32" d="M406.68,68.24 C320.85,74.5 105.2,95.35 62,149 C37.53,179.39 45.385,222.1279 54.435,250.8179 " fill="none" id="Game-to-Package" style="stroke:#181818;stroke-width:1.0;"/><polygon fill="#181818" points="56.24,256.54,57.3473,246.7536,54.7359,251.7716,49.7178,249.1602,56.24,256.54" style="stroke:#181818;stroke-width:1.0;"/></g><!--link Game to Obstacle--><g id="link_Game_Obstacle"><path codeLine="33" d="M406.72,68.63 C323.69,75.62 119.85,97.75 79,149 C65.7,165.68 66.75,179.54 79,197 C91.76,215.18 107.49,201.72 126,214 C143.16,225.39 155.0947,237.8925 166.2647,251.8725 " fill="none" id="Game-to-Obstacle" style="stroke:#181818;stroke-width:1.0;"/><polygon fill="#181818" points="170.01,256.56,167.517,247.0319,166.8889,252.6537,161.267,252.0256,170.01,256.56" style="stroke:#181818;stroke-width:1.0;"/></g><!--link Game to Map--><g id="link_Game_Map"><path codeLine="34" d="M477.34,83.5 C518.89,104.08 581.7436,135.2166 620.7636,154.5466 " fill="none" id="Game-to-Map" style="stroke:#181818;stroke-width:1.0;"/><polygon fill="#181818" points="626.14,157.21,619.8509,149.6306,621.6596,154.9905,616.2997,156.7992,626.14,157.21" style="stroke:#181818;stroke-width:1.0;"/></g><!--link Game to InputHandler--><g id="link_Game_InputHandler"><path codeLine="35" d="M406.73,80.53 C379.44,93.89 343.59,116.56 327,149 C317.28,167.99 316.39,178.49 327,197 C334.43,209.96 343.95,205.17 356,214 C373.64,226.93 387.5591,239.2775 401.3991,252.5475 " fill="none" id="Game-to-InputHandler" style="stroke:#181818;stroke-width:1.0;"/><polygon fill="#181818" points="405.73,256.7,402.002,247.584,402.1209,253.2396,396.4653,253.3585,405.73,256.7" style="stroke:#181818;stroke-width:1.0;"/></g><!--link Game to AssetManager--><g id="link_Game_AssetManager"><path codeLine="36" d="M477.42,77.04 C534.91,94.97 643.5018,128.8247 714.5718,150.9747 " fill="none" id="Game-to-AssetManager" style="stroke:#181818;stroke-width:1.0;"/><polygon fill="#181818" points="720.3,152.76,712.8978,146.2632,715.5265,151.2723,710.5174,153.9009,720.3,152.76" style="stroke:#181818;stroke-width:1.0;"/></g><!--link Game to SoundManager--><g id="link_Game_SoundManager"><path codeLine="37" d="M477.24,72.02 C549.56,84.59 719.81,115.27 861,149 C866.61,150.34 866.6054,150.2914 872.4154,151.8114 " fill="none" id="Game-to-SoundManager" style="stroke:#181818;stroke-width:1.0;"/><polygon fill="#181818" points="878.22,153.33,870.5254,147.1823,873.3828,152.0645,868.5006,154.9219,878.22,153.33" style="stroke:#181818;stroke-width:1.0;"/></g><!--link Game to CollisionDetector--><g id="link_Game_CollisionDetector"><path codeLine="38" d="M406.76,79.53 C361.5,96.92 287.7914,125.2296 232.6214,146.4096 " fill="none" id="Game-to-CollisionDetector" style="stroke:#181818;stroke-width:1.0;"/><polygon fill="#181818" points="227.02,148.56,236.8557,149.0687,231.6878,146.768,233.9885,141.6001,227.02,148.56" style="stroke:#181818;stroke-width:1.0;"/></g><!--link Game to HUD--><g id="link_Game_HUD"><path codeLine="39" d="M452.17,89.11 C464.04,115.59 484.65,160.09 505,197 C516.41,217.7 527.4757,235.3687 538.2157,251.7887 " fill="none" id="Game-to-HUD" style="stroke:#181818;stroke-width:1.0;"/><polygon fill="#181818" points="541.5,256.81,539.921,247.0885,538.7631,252.6256,533.226,251.4676,541.5,256.81" style="stroke:#181818;stroke-width:1.0;"/></g><!--link Game to Score--><g id="link_Game_Score"><path codeLine="40" d="M467.24,89.26 C486.41,106.94 508.2482,127.0636 527.4082,144.7236 " fill="none" id="Game-to-Score" style="stroke:#181818;stroke-width:1.0;"/><polygon fill="#181818" points="531.82,148.79,527.9132,139.7491,528.1435,145.4013,522.4913,145.6316,531.82,148.79" style="stroke:#181818;stroke-width:1.0;"/></g><!--link Game to MainScreen--><g id="link_Game_MainScreen"><path codeLine="41" d="M421.58,89.26 C411.59,106.94 403.0839,125.3294 398.4139,142.9894 " fill="none" id="Game-to-MainScreen" style="stroke:#181818;stroke-width:1.0;"/><polygon fill="#181818" points="396.88,148.79,403.0479,141.1117,398.1583,143.9562,395.3138,139.0665,396.88,148.79" style="stroke:#181818;stroke-width:1.0;"/></g><!--link MainScreen to Game--><g id="link_MainScreen_Game"><path codeLine="60" d="M419.02,148.79 C429.16,131.13 437.7208,112.7522 442.2508,95.0722 " fill="none" id="MainScreen-to-Game" style="stroke:#181818;stroke-width:1.0;"/><polygon fill="#181818" points="443.74,89.26,437.6313,96.9856,442.499,94.1035,445.381,98.9712,443.74,89.26" style="stroke:#181818;stroke-width:1.0;"/></g><!--link Player to Sprite--><g id="link_Player_Sprite"><path codeLine="43" d="M324.83,305.48 C333.69,313.69 344.28,322.48 355,329 C406.12,360.11 466.7776,380.5182 506.5876,392.0682 " fill="none" id="Player-to-Sprite" style="stroke:#181818;stroke-width:1.0;"/><polygon fill="#181818" points="512.35,393.74,504.821,387.3907,507.548,392.3468,502.5919,395.0738,512.35,393.74" style="stroke:#181818;stroke-width:1.0;"/></g><!--link Package to Sprite--><g id="link_Package_Sprite"><path codeLine="44" d="M89.64,305.37 C100.11,314.07 112.91,323.23 126,329 C260.11,388.13 431.8731,399.8785 506.1031,402.2485 " fill="none" id="Package-to-Sprite" style="stroke:#181818;stroke-width:1.0;"/><polygon fill="#181818" points="512.1,402.44,503.2322,398.1548,507.1025,402.2804,502.9769,406.1508,512.1,402.44" style="stroke:#181818;stroke-width:1.0;"/></g><!--link Obstacle to Sprite--><g id="link_Obstacle_Sprite"><path codeLine="45" d="M212.91,305.38 C223.48,313.88 236.2,322.88 249,329 C338.45,371.77 449.2819,390.6625 506.4619,398.2325 " fill="none" id="Obstacle-to-Sprite" style="stroke:#181818;stroke-width:1.0;"/><polygon fill="#181818" points="512.41,399.02,504.0128,393.8734,507.4532,398.3638,502.9629,401.8042,512.41,399.02" style="stroke:#181818;stroke-width:1.0;"/></g><!--link Map to Texture--><g id="link_Map_Texture"><path codeLine="46" d="M656,197.22 C656,241.11 656,329.78 656,373.72 " fill="none" id="Map-to-Texture" style="stroke:#181818;stroke-width:1.0;"/><polygon fill="#181818" points="656,379.72,660,370.72,656,374.72,652,370.72,656,379.72" style="stroke:#181818;stroke-width:1.0;"/></g><!--link Camera to SpriteBatch--><g id="link_Camera_SpriteBatch"><path codeLine="47" d="M1008.36,69.47 C1092.86,77.5 1280.61,100.51 1319,149 C1368.65,211.72 1375.08,271.95 1319,329 C1309.9,338.25 864,332.07 852,337 C830.69,345.76 815.9766,359.824 803.5066,375.084 " fill="none" id="Camera-to-SpriteBatch" style="stroke:#181818;stroke-width:1.0;"/><polygon fill="#181818" points="799.71,379.73,808.5023,375.292,802.8738,375.8583,802.3075,370.2299,799.71,379.73" style="stroke:#181818;stroke-width:1.0;"/></g><!--link AssetManager to Texture--><g id="link_AssetManager_Texture"><path codeLine="49" d="M769.23,197.22 C745.08,241.11 695.8718,330.5229 671.7018,374.4629 " fill="none" id="AssetManager-to-Texture" style="stroke:#181818;stroke-width:1.0;"/><polygon fill="#181818" points="668.81,379.72,676.6524,373.7621,671.2198,375.339,669.6429,369.9064,668.81,379.72" style="stroke:#181818;stroke-width:1.0;"/></g><!--link SoundManager to Sound--><g id="link_SoundManager_Sound"><path codeLine="50" d="M995.06,197.3 C1004.92,202.38 1014.97,208.04 1024,214 C1042.95,226.52 1057.9499,239.1117 1072.5299,252.5617 " fill="none" id="SoundManager-to-Sound" style="stroke:#181818;stroke-width:1.0;"/><polygon fill="#181818" points="1076.94,256.63,1073.0371,247.5875,1073.2649,253.2398,1067.6127,253.4676,1076.94,256.63" style="stroke:#181818;stroke-width:1.0;"/></g><!--link SoundManager to Music--><g id="link_SoundManager_Music"><path codeLine="51" d="M1007.55,174.38 C1051.92,177.35 1110.61,186.8 1155,214 C1171.67,224.21 1181.8282,236.88 1190.6482,251.42 " fill="none" id="SoundManager-to-Music" style="stroke:#181818;stroke-width:1.0;"/><polygon fill="#181818" points="1193.76,256.55,1192.5122,246.7805,1191.1668,252.275,1185.6723,250.9296,1193.76,256.55" style="stroke:#181818;stroke-width:1.0;"/></g><!--link CollisionDetector to Player--><g id="link_CollisionDetector_Player"><path codeLine="53" d="M222.2,197.37 C231.24,202.24 240.17,207.81 248,214 C263.21,226.04 273.4948,238.1631 283.3348,251.8931 " fill="none" id="CollisionDetector-to-Player" style="stroke:#181818;stroke-width:1.0;stroke-dasharray:7.0,7.0;"/><polygon fill="#181818" points="286.83,256.77,284.8385,247.1246,283.9174,252.7059,278.336,251.7848,286.83,256.77" style="stroke:#181818;stroke-width:1.0;"/></g><!--link CollisionDetector to Package--><g id="link_CollisionDetector_Package"><path codeLine="54" d="M142.58,197.11 C137.1,202.61 131.31,208.48 126,214 C112.59,227.95 101.9104,239.4435 90.2804,252.1535 " fill="none" id="CollisionDetector-to-Package" style="stroke:#181818;stroke-width:1.0;stroke-dasharray:7.0,7.0;"/><polygon fill="#181818" points="86.23,256.58,95.2566,252.6405,89.6053,252.8912,89.3546,247.2399,86.23,256.58" style="stroke:#181818;stroke-width:1.0;"/></g><!--link CollisionDetector to Obstacle--><g id="link_CollisionDetector_Obstacle"><path codeLine="55" d="M170.61,197.26 C174.11,214.94 177.7336,233.2445 181.2336,250.9045 " fill="none" id="CollisionDetector-to-Obstacle" style="stroke:#181818;stroke-width:1.0;stroke-dasharray:7.0,7.0;"/><polygon fill="#181818" points="182.4,256.79,184.574,247.1841,181.428,251.8854,176.7267,248.7393,182.4,256.79" style="stroke:#181818;stroke-width:1.0;"/></g><!--link HUD to SpriteBatch--><g id="link_HUD_SpriteBatch"><path codeLine="57" d="M587.38,288.71 C620.07,296.81 672.79,312.48 713,337 C731.83,348.48 745.7527,361.2868 758.7927,375.2368 " fill="none" id="HUD-to-SpriteBatch" style="stroke:#181818;stroke-width:1.0;"/><polygon fill="#181818" points="762.89,379.62,759.6662,370.3137,759.4756,375.9673,753.822,375.7767,762.89,379.62" style="stroke:#181818;stroke-width:1.0;"/></g><!--link Score to HUD--><g id="link_Score_HUD"><path codeLine="58" d="M557,197.26 C557,214.94 557,233.13 557,250.79 " fill="none" id="Score-to-HUD" style="stroke:#181818;stroke-width:1.0;"/><polygon fill="#181818" points="557,256.79,561,247.79,557,251.79,553,247.79,557,256.79" style="stroke:#181818;stroke-width:1.0;"/></g><!--link MainScreen to InputHandler--><g id="link_MainScreen_InputHandler"><path codeLine="61" d="M404.8,197.26 C409.97,214.94 415.3672,233.3708 420.5272,251.0308 " fill="none" id="MainScreen-to-InputHandler" style="stroke:#181818;stroke-width:1.0;"/><polygon fill="#181818" points="422.21,256.79,423.5253,247.0294,420.8077,251.9907,415.8464,249.273,422.21,256.79" style="stroke:#181818;stroke-width:1.0;"/></g><!--SRC=[XPHDJiCm48NtFeKlq1m12Lg9ieX02XnWSApMmjYMxKWWnDs9dSG_wIJiElDU9fttJMk0VS25qmjySlf3A6KIdAEFOvcA5mdVtEPoUYJLp-_E0vEvqO99du_Z80kfV59cy6TGlIm6tZl7VGjg79gRdHvKlsuUjPJ22QrEt7FcTLRERwVyADEs_3P2TSnohiWl8MRPruAv2kQAdJjZXUSFuDarzLxvbn-AOPEd70H3BtGnfHsSOFKMmHxoRKAgz72uIszlodTkMEO4LsgePYwOCYD2f4GBqG8uf5r1G_IA7w9NA17zbYfY2e2nsP4rkal2JegqiFX9cTcsOKbksp7cLulB-KnhHf3R_CbDc3l3oaoZBTxXrDvrJFT9yE1fqo2tjMSh3st7bwwEB33_-Hr4hZLzikAQrVXljQbMv_i7]--></g></svg>