<?xml version="1.0" encoding="UTF-8" standalone="no"?><svg xmlns="http://www.w3.org/2000/svg" xmlns:xlink="http://www.w3.org/1999/xlink" contentStyleType="text/css" height="500px" preserveAspectRatio="none" style="width:290px;height:500px;background:#FFFFFF;" version="1.1" viewBox="0 0 290 500" width="290px" zoomAndPan="magnify"><defs/><g><!--class game.engine.Camera--><a href="Camera.html" target="_top" title="Camera.html" xlink:actuate="onRequest" xlink:href="Camera.html" xlink:show="new" xlink:title="Camera.html" xlink:type="simple"><g id="elem_game.engine.Camera"><rect codeLine="5" fill="#F1F1F1" height="466.4727" id="game.engine.Camera" rx="2.5" ry="2.5" style="stroke:#181818;stroke-width:0.5;" width="269" x="7" y="7"/><ellipse cx="105.75" cy="26.1328" fill="#ADD1B2" rx="11" ry="11" style="stroke:#181818;stroke-width:1.0;"/><path d="M108.2231,32.2759 Q107.6421,32.5747 107.0029,32.7241 Q106.3638,32.8735 105.6582,32.8735 Q103.1514,32.8735 101.8315,31.2217 Q100.5117,29.5698 100.5117,26.4487 Q100.5117,23.3193 101.8315,21.6675 Q103.1514,20.0156 105.6582,20.0156 Q106.3638,20.0156 107.0112,20.165 Q107.6587,20.3145 108.2231,20.6133 L108.2231,23.3359 Q107.5923,22.7549 106.9988,22.4851 Q106.4053,22.2153 105.7744,22.2153 Q104.4297,22.2153 103.7449,23.282 Q103.0601,24.3486 103.0601,26.4487 Q103.0601,28.5405 103.7449,29.6072 Q104.4297,30.6738 105.7744,30.6738 Q106.4053,30.6738 106.9988,30.4041 Q107.5923,30.1343 108.2231,29.5532 Z " fill="#000000"/><text fill="#000000" font-family="sans-serif" font-size="14" lengthAdjust="spacing" textLength="53" x="131.25" y="25.5352">Camera</text><text fill="#000000" font-family="sans-serif" font-size="10" lengthAdjust="spacing" textLength="63" x="126.25" y="38.1563">game.engine</text><line style="stroke:#181818;stroke-width:0.5;" x1="8" x2="275" y1="45.2656" y2="45.2656"/><ellipse cx="18" cy="59.0098" fill="none" rx="3" ry="3" style="stroke:#038048;stroke-width:1.0;"/><text fill="#000000" font-family="sans-serif" font-size="14" lengthAdjust="spacing" textLength="122" x="27" y="62.8008">position: Vector2f</text><ellipse cx="18" cy="75.498" fill="none" rx="3" ry="3" style="stroke:#038048;stroke-width:1.0;"/><text fill="#000000" font-family="sans-serif" font-size="14" lengthAdjust="spacing" textLength="78" x="27" y="79.2891">zoom: float</text><ellipse cx="18" cy="91.9863" fill="none" rx="3" ry="3" style="stroke:#038048;stroke-width:1.0;"/><text fill="#000000" font-family="sans-serif" font-size="14" lengthAdjust="spacing" textLength="137" x="27" y="95.7773">clearColor: Vector4f</text><line style="stroke:#181818;stroke-width:0.5;" x1="8" x2="275" y1="102.7305" y2="102.7305"/><ellipse cx="18" cy="116.4746" fill="#84BE84" rx="3" ry="3" style="stroke:#038048;stroke-width:1.0;"/><text fill="#000000" font-family="sans-serif" font-size="14" lengthAdjust="spacing" textLength="121" x="27" y="120.2656">Camera(Vector2f)</text><ellipse cx="18" cy="132.9629" fill="#84BE84" rx="3" ry="3" style="stroke:#038048;stroke-width:1.0;"/><text fill="#000000" font-family="sans-serif" font-size="14" lengthAdjust="spacing" textLength="158" x="27" y="136.7539">adjustProjection(): void</text><ellipse cx="18" cy="149.4512" fill="#84BE84" rx="3" ry="3" style="stroke:#038048;stroke-width:1.0;"/><text fill="#000000" font-family="sans-serif" font-size="14" lengthAdjust="spacing" textLength="174" x="27" y="153.2422">getViewMatrix(): Matrix4f</text><ellipse cx="18" cy="165.9395" fill="#84BE84" rx="3" ry="3" style="stroke:#038048;stroke-width:1.0;"/><text fill="#000000" font-family="sans-serif" font-size="14" lengthAdjust="spacing" textLength="211" x="27" y="169.7305">getProjectionMatrix(): Matrix4f</text><ellipse cx="18" cy="182.4277" fill="#84BE84" rx="3" ry="3" style="stroke:#038048;stroke-width:1.0;"/><text fill="#000000" font-family="sans-serif" font-size="14" lengthAdjust="spacing" textLength="189" x="27" y="186.2188">getProjectMatrix(): Matrix4f</text><ellipse cx="18" cy="198.916" fill="#84BE84" rx="3" ry="3" style="stroke:#038048;stroke-width:1.0;"/><text fill="#000000" font-family="sans-serif" font-size="14" lengthAdjust="spacing" textLength="216" x="27" y="202.707">setProjectMatrix(Matrix4f): void</text><ellipse cx="18" cy="215.4043" fill="#84BE84" rx="3" ry="3" style="stroke:#038048;stroke-width:1.0;"/><text fill="#000000" font-family="sans-serif" font-size="14" lengthAdjust="spacing" textLength="201" x="27" y="219.1953">setViewMatrix(Matrix4f): void</text><ellipse cx="18" cy="231.8926" fill="#84BE84" rx="3" ry="3" style="stroke:#038048;stroke-width:1.0;"/><text fill="#000000" font-family="sans-serif" font-size="14" lengthAdjust="spacing" textLength="216" x="27" y="235.6836">getInverseProjection(): Matrix4f</text><ellipse cx="18" cy="248.3809" fill="#84BE84" rx="3" ry="3" style="stroke:#038048;stroke-width:1.0;"/><text fill="#000000" font-family="sans-serif" font-size="14" lengthAdjust="spacing" textLength="243" x="27" y="252.1719">setInverseProjection(Matrix4f): void</text><ellipse cx="18" cy="264.8691" fill="#84BE84" rx="3" ry="3" style="stroke:#038048;stroke-width:1.0;"/><text fill="#000000" font-family="sans-serif" font-size="14" lengthAdjust="spacing" textLength="179" x="27" y="268.6602">getInverseView(): Matrix4f</text><ellipse cx="18" cy="281.3574" fill="#84BE84" rx="3" ry="3" style="stroke:#038048;stroke-width:1.0;"/><text fill="#000000" font-family="sans-serif" font-size="14" lengthAdjust="spacing" textLength="206" x="27" y="285.1484">setInverseView(Matrix4f): void</text><ellipse cx="18" cy="297.8457" fill="#84BE84" rx="3" ry="3" style="stroke:#038048;stroke-width:1.0;"/><text fill="#000000" font-family="sans-serif" font-size="14" lengthAdjust="spacing" textLength="153" x="27" y="301.6367">getPosition(): Vector2f</text><ellipse cx="18" cy="314.334" fill="#84BE84" rx="3" ry="3" style="stroke:#038048;stroke-width:1.0;"/><text fill="#000000" font-family="sans-serif" font-size="14" lengthAdjust="spacing" textLength="180" x="27" y="318.125">setPosition(Vector2f): void</text><ellipse cx="18" cy="330.8223" fill="#84BE84" rx="3" ry="3" style="stroke:#038048;stroke-width:1.0;"/><text fill="#000000" font-family="sans-serif" font-size="14" lengthAdjust="spacing" textLength="185" x="27" y="334.6133">getProjectionHeight(): float</text><ellipse cx="18" cy="347.3105" fill="#84BE84" rx="3" ry="3" style="stroke:#038048;stroke-width:1.0;"/><text fill="#000000" font-family="sans-serif" font-size="14" lengthAdjust="spacing" textLength="212" x="27" y="351.1016">setProjectionHeight(float): void</text><ellipse cx="18" cy="363.7988" fill="#84BE84" rx="3" ry="3" style="stroke:#038048;stroke-width:1.0;"/><text fill="#000000" font-family="sans-serif" font-size="14" lengthAdjust="spacing" textLength="110" x="27" y="367.5898">getZoom(): float</text><ellipse cx="18" cy="380.2871" fill="#84BE84" rx="3" ry="3" style="stroke:#038048;stroke-width:1.0;"/><text fill="#000000" font-family="sans-serif" font-size="14" lengthAdjust="spacing" textLength="137" x="27" y="384.0781">setZoom(float): void</text><ellipse cx="18" cy="396.7754" fill="#84BE84" rx="3" ry="3" style="stroke:#038048;stroke-width:1.0;"/><text fill="#000000" font-family="sans-serif" font-size="14" lengthAdjust="spacing" textLength="143" x="27" y="400.5664">addZoom(float): void</text><ellipse cx="18" cy="413.2637" fill="#84BE84" rx="3" ry="3" style="stroke:#038048;stroke-width:1.0;"/><text fill="#000000" font-family="sans-serif" font-size="14" lengthAdjust="spacing" textLength="161" x="27" y="417.0547">getAspectRation(): float</text><ellipse cx="18" cy="429.752" fill="#84BE84" rx="3" ry="3" style="stroke:#038048;stroke-width:1.0;"/><text fill="#000000" font-family="sans-serif" font-size="14" lengthAdjust="spacing" textLength="188" x="27" y="433.543">setAspectRation(float): void</text><ellipse cx="18" cy="446.2402" fill="#84BE84" rx="3" ry="3" style="stroke:#038048;stroke-width:1.0;"/><text fill="#000000" font-family="sans-serif" font-size="14" lengthAdjust="spacing" textLength="195" x="27" y="450.0313">getProjectionSize(): Vector2f</text><ellipse cx="18" cy="462.7285" fill="#84BE84" rx="3" ry="3" style="stroke:#038048;stroke-width:1.0;"/><text fill="#000000" font-family="sans-serif" font-size="14" lengthAdjust="spacing" textLength="222" x="27" y="466.5195">setProjectionSize(Vector2f): void</text></g></a><text fill="#888888" font-family="sans-serif" font-size="10" lengthAdjust="spacing" textLength="182" x="50" y="490.1406">UMLDoclet 2.1.0, PlantUML 1.2022.14</text><!--SRC=[ZPDDQy90443l_HM3K51QWegdK8HY3orKa4ezr7fOp2HPINR3pjQsblxtJX9Z4XEjkIIPUVjczWi0WD224Z5I8jOunqGOORK1fHLUSHf2wI5WdDXly2L67Xr7OxIXvd0MNqU223ft97Ve3aRZ2PkDU5VxG7ySSC115KY57H04bNydXs6vp3-SqCRHQWK_cJbzRX9DqagjN5ZWcjiS-cLkftNiWXzfOSlWEa9X9ZhIfXWogWp9wtGBLw_C26_pGNPcz8PpNB3RSs6hfLSI0Tg5nC-fi4P-fUdygwfdf3HS1fwZw9Wga4PlLElj9CPbdzGM3M5zegsbc-G5thIB_umPSyursszwAcfkErM0mqQsMGwDFw8CGflQZWuBjL0PqkPxu-FMxiWoxUE4vvt9ilMU4Yx_8ehvDkqrugIddCUSBzxfbQjZRUltkx_Og2mQyBLENw_JvmVDTyl2q1au_LkOHK9PZi9rkgTPyty0]--></g></svg>