<?xml version="1.0" encoding="UTF-8" standalone="no"?><svg xmlns="http://www.w3.org/2000/svg" xmlns:xlink="http://www.w3.org/1999/xlink" contentStyleType="text/css" height="632px" preserveAspectRatio="none" style="width:532px;height:632px;background:#FFFFFF;" version="1.1" viewBox="0 0 532 632" width="532px" zoomAndPan="magnify"><defs/><g><!--class game.engine.GameObject--><a href="GameObject.html" target="_top" title="GameObject.html" xlink:actuate="onRequest" xlink:href="GameObject.html" xlink:show="new" xlink:title="GameObject.html" xlink:type="simple"><g id="elem_game.engine.GameObject"><rect codeLine="5" fill="#F1F1F1" height="598.3789" id="game.engine.GameObject" rx="2.5" ry="2.5" style="stroke:#181818;stroke-width:0.5;" width="511" x="7" y="7"/><ellipse cx="216.75" cy="26.1328" fill="#ADD1B2" rx="11" ry="11" style="stroke:#181818;stroke-width:1.0;"/><path d="M219.2231,32.2759 Q218.6421,32.5747 218.0029,32.7241 Q217.3638,32.8735 216.6582,32.8735 Q214.1514,32.8735 212.8315,31.2217 Q211.5117,29.5698 211.5117,26.4487 Q211.5117,23.3193 212.8315,21.6675 Q214.1514,20.0156 216.6582,20.0156 Q217.3638,20.0156 218.0112,20.165 Q218.6587,20.3145 219.2231,20.6133 L219.2231,23.3359 Q218.5923,22.7549 217.9988,22.4851 Q217.4053,22.2153 216.7744,22.2153 Q215.4297,22.2153 214.7449,23.282 Q214.0601,24.3486 214.0601,26.4487 Q214.0601,28.5405 214.7449,29.6072 Q215.4297,30.6738 216.7744,30.6738 Q217.4053,30.6738 217.9988,30.4041 Q218.5923,30.1343 219.2231,29.5532 Z " fill="#000000"/><text fill="#000000" font-family="sans-serif" font-size="14" lengthAdjust="spacing" textLength="83" x="237.25" y="25.5352">GameObject</text><text fill="#000000" font-family="sans-serif" font-size="10" lengthAdjust="spacing" textLength="63" x="247.25" y="38.1563">game.engine</text><line style="stroke:#181818;stroke-width:0.5;" x1="8" x2="517" y1="45.2656" y2="45.2656"/><ellipse cx="18" cy="59.0098" fill="none" rx="3" ry="3" style="stroke:#038048;stroke-width:1.0;"/><text fill="#000000" font-family="sans-serif" font-size="14" lengthAdjust="spacing" textLength="87" x="27" y="62.8008">name: String</text><ellipse cx="18" cy="75.498" fill="none" rx="3" ry="3" style="stroke:#038048;stroke-width:1.0;"/><text fill="#000000" font-family="sans-serif" font-size="14" lengthAdjust="spacing" textLength="148" x="27" y="79.2891">transform: Transform</text><line style="stroke:#181818;stroke-width:0.5;" x1="8" x2="517" y1="86.2422" y2="86.2422"/><ellipse cx="18" cy="99.9863" fill="#84BE84" rx="3" ry="3" style="stroke:#038048;stroke-width:1.0;"/><text fill="#000000" font-family="sans-serif" font-size="14" lengthAdjust="spacing" textLength="134" x="27" y="103.7773">GameObject(String)</text><ellipse cx="18" cy="116.4746" fill="#84BE84" rx="3" ry="3" style="stroke:#038048;stroke-width:1.0;"/><text fill="#000000" font-family="sans-serif" font-size="14" lengthAdjust="spacing" text-decoration="underline" textLength="87" x="27" y="120.2656">init(int): void</text><ellipse cx="18" cy="132.9629" fill="#84BE84" rx="3" ry="3" style="stroke:#038048;stroke-width:1.0;"/><text fill="#000000" font-family="sans-serif" font-size="14" lengthAdjust="spacing" text-decoration="underline" textLength="146" x="27" y="136.7539">getID_COUNTER(): int</text><ellipse cx="18" cy="149.4512" fill="#84BE84" rx="3" ry="3" style="stroke:#038048;stroke-width:1.0;"/><text fill="#000000" font-family="sans-serif" font-size="14" lengthAdjust="spacing" text-decoration="underline" textLength="173" x="27" y="153.2422">setID_COUNTER(int): void</text><ellipse cx="18" cy="165.9395" fill="#84BE84" rx="3" ry="3" style="stroke:#038048;stroke-width:1.0;"/><text fill="#000000" font-family="sans-serif" font-size="14" lengthAdjust="spacing" textLength="186" x="27" y="169.7305">addItem(GameObject): void</text><ellipse cx="18" cy="182.4277" fill="#84BE84" rx="3" ry="3" style="stroke:#038048;stroke-width:1.0;"/><text fill="#000000" font-family="sans-serif" font-size="14" lengthAdjust="spacing" textLength="211" x="27" y="186.2188">hasItem(GameObject): boolean</text><ellipse cx="18" cy="198.916" fill="#84BE84" rx="3" ry="3" style="stroke:#038048;stroke-width:1.0;"/><text fill="#000000" font-family="sans-serif" font-size="14" lengthAdjust="spacing" textLength="211" x="27" y="202.707">useItem(GameObject): boolean</text><ellipse cx="18" cy="215.4043" fill="#84BE84" rx="3" ry="3" style="stroke:#038048;stroke-width:1.0;"/><text fill="#000000" font-family="sans-serif" font-size="14" lengthAdjust="spacing" textLength="485" x="27" y="219.1953">getComponent(Class&lt;T extends Component&gt;): T extends Component</text><ellipse cx="18" cy="231.8926" fill="#84BE84" rx="3" ry="3" style="stroke:#038048;stroke-width:1.0;"/><text fill="#000000" font-family="sans-serif" font-size="14" lengthAdjust="spacing" textLength="390" x="27" y="235.6836">removeComponent(Class&lt;T extends Component&gt;): void</text><ellipse cx="18" cy="248.3809" fill="#84BE84" rx="3" ry="3" style="stroke:#038048;stroke-width:1.0;"/><text fill="#000000" font-family="sans-serif" font-size="14" lengthAdjust="spacing" textLength="235" x="27" y="252.1719">addComponent(Component): void</text><ellipse cx="18" cy="264.8691" fill="#84BE84" rx="3" ry="3" style="stroke:#038048;stroke-width:1.0;"/><text fill="#000000" font-family="sans-serif" font-size="14" lengthAdjust="spacing" textLength="126" x="27" y="268.6602">update(float): void</text><ellipse cx="18" cy="281.3574" fill="#84BE84" rx="3" ry="3" style="stroke:#038048;stroke-width:1.0;"/><text fill="#000000" font-family="sans-serif" font-size="14" lengthAdjust="spacing" textLength="78" x="27" y="285.1484">start(): void</text><ellipse cx="18" cy="297.8457" fill="#84BE84" rx="3" ry="3" style="stroke:#038048;stroke-width:1.0;"/><text fill="#000000" font-family="sans-serif" font-size="14" lengthAdjust="spacing" textLength="117" x="27" y="301.6367">gameStart(): void</text><ellipse cx="18" cy="314.334" fill="#84BE84" rx="3" ry="3" style="stroke:#038048;stroke-width:1.0;"/><text fill="#000000" font-family="sans-serif" font-size="14" lengthAdjust="spacing" textLength="86" x="27" y="318.125">imgui(): void</text><ellipse cx="18" cy="330.8223" fill="#84BE84" rx="3" ry="3" style="stroke:#038048;stroke-width:1.0;"/><text fill="#000000" font-family="sans-serif" font-size="14" lengthAdjust="spacing" textLength="120" x="27" y="334.6133">getName(): String</text><ellipse cx="18" cy="347.3105" fill="#84BE84" rx="3" ry="3" style="stroke:#038048;stroke-width:1.0;"/><text fill="#000000" font-family="sans-serif" font-size="14" lengthAdjust="spacing" textLength="147" x="27" y="351.1016">setName(String): void</text><ellipse cx="18" cy="363.7988" fill="#84BE84" rx="3" ry="3" style="stroke:#038048;stroke-width:1.0;"/><text fill="#000000" font-family="sans-serif" font-size="14" lengthAdjust="spacing" textLength="254" x="27" y="367.5898">getComponents(): List&lt;Component&gt;</text><ellipse cx="18" cy="380.2871" fill="#84BE84" rx="3" ry="3" style="stroke:#038048;stroke-width:1.0;"/><text fill="#000000" font-family="sans-serif" font-size="14" lengthAdjust="spacing" textLength="281" x="27" y="384.0781">setComponents(List&lt;Component&gt;): void</text><ellipse cx="18" cy="396.7754" fill="#84BE84" rx="3" ry="3" style="stroke:#038048;stroke-width:1.0;"/><text fill="#000000" font-family="sans-serif" font-size="14" lengthAdjust="spacing" textLength="184" x="27" y="400.5664">getTransform(): Transform</text><ellipse cx="18" cy="413.2637" fill="#84BE84" rx="3" ry="3" style="stroke:#038048;stroke-width:1.0;"/><text fill="#000000" font-family="sans-serif" font-size="14" lengthAdjust="spacing" textLength="211" x="27" y="417.0547">setTransform(Transform): void</text><ellipse cx="18" cy="429.752" fill="#84BE84" rx="3" ry="3" style="stroke:#038048;stroke-width:1.0;"/><text fill="#000000" font-family="sans-serif" font-size="14" lengthAdjust="spacing" textLength="81" x="27" y="433.543">getUid(): int</text><ellipse cx="18" cy="446.2402" fill="#84BE84" rx="3" ry="3" style="stroke:#038048;stroke-width:1.0;"/><text fill="#000000" font-family="sans-serif" font-size="14" lengthAdjust="spacing" textLength="108" x="27" y="450.0313">setUid(int): void</text><ellipse cx="18" cy="462.7285" fill="#84BE84" rx="3" ry="3" style="stroke:#038048;stroke-width:1.0;"/><text fill="#000000" font-family="sans-serif" font-size="14" lengthAdjust="spacing" textLength="272" x="27" y="466.5195">getAllComponents(): List&lt;Component&gt;</text><ellipse cx="18" cy="479.2168" fill="#84BE84" rx="3" ry="3" style="stroke:#038048;stroke-width:1.0;"/><text fill="#000000" font-family="sans-serif" font-size="14" lengthAdjust="spacing" textLength="247" x="27" y="483.0078">setActiveGameObject(boolean): void</text><ellipse cx="18" cy="495.7051" fill="#84BE84" rx="3" ry="3" style="stroke:#038048;stroke-width:1.0;"/><text fill="#000000" font-family="sans-serif" font-size="14" lengthAdjust="spacing" textLength="231" x="27" y="499.4961">getIsActiveGameObject(): boolean</text><ellipse cx="18" cy="512.1934" fill="#84BE84" rx="3" ry="3" style="stroke:#038048;stroke-width:1.0;"/><text fill="#000000" font-family="sans-serif" font-size="14" lengthAdjust="spacing" textLength="144" x="27" y="515.9844">setNoSerialize(): void</text><ellipse cx="18" cy="528.6816" fill="#84BE84" rx="3" ry="3" style="stroke:#038048;stroke-width:1.0;"/><text fill="#000000" font-family="sans-serif" font-size="14" lengthAdjust="spacing" textLength="177" x="27" y="532.4727">doSerialization(): boolean</text><ellipse cx="18" cy="545.1699" fill="#84BE84" rx="3" ry="3" style="stroke:#038048;stroke-width:1.0;"/><text fill="#000000" font-family="sans-serif" font-size="14" lengthAdjust="spacing" textLength="120" x="27" y="548.9609">isDead(): boolean</text><ellipse cx="18" cy="561.6582" fill="#84BE84" rx="3" ry="3" style="stroke:#038048;stroke-width:1.0;"/><text fill="#000000" font-family="sans-serif" font-size="14" lengthAdjust="spacing" textLength="98" x="27" y="565.4492">destroy(): void</text><ellipse cx="18" cy="578.1465" fill="#84BE84" rx="3" ry="3" style="stroke:#038048;stroke-width:1.0;"/><text fill="#000000" font-family="sans-serif" font-size="14" lengthAdjust="spacing" textLength="168" x="27" y="581.9375">editorUpdate(float): void</text><ellipse cx="18" cy="594.6348" fill="#84BE84" rx="3" ry="3" style="stroke:#038048;stroke-width:1.0;"/><text fill="#000000" font-family="sans-serif" font-size="14" lengthAdjust="spacing" textLength="133" x="27" y="598.4258">copy(): GameObject</text></g></a><text fill="#888888" font-family="sans-serif" font-size="10" lengthAdjust="spacing" textLength="182" x="171" y="622.0469">UMLDoclet 2.1.0, PlantUML 1.2022.14</text><!--SRC=[ZLHRQzim57xVhpWK2YuPfXrz2Y5GaZ42lOmbUUhAKAqJHqMMZCv9Q5VwtoTvhkN6eYGlaR-RTVai00121YCgf5eKkCHQEC7MWR46ltWQjaeYO5Np2smKQac7Q8MyjHvky48B8ZYPaFgBuulBwG-VVFVuX0N_DYruFYqzcACfbS4J40IzvpmQuFu-FkHRhlJ30xmsRmc_KPZq69Rib2aZoauOsbXNZM7rFeni3Cp-6yywxfLOi2hUOAICuamPFXl3tYgPK9J8Y_cVsTtwTlNzL-PrNfsGqGTP8d4af5mmLbcSrq2o5JIKF5ghKPYesX4UeVBpdjcgzaThE9k5evgi09yPZIJecAct9k0Oux2oUpmoQR3WdkzzD93jQYaOiussOaZw_NMS3U3GecMQKbMvKma7ygqt1UAmHjHIRKiIpcxo5FpNYdWIr_qXgASyaALokzQ6s4I5gI_fHgcajPA7tGpk0AUww1rNMX-_hAk2rHvxNrHRjrJmWWRgL3_3hjibEYMqlog61oOxqdzXrYGp5CrHo2GbaTZPbs4kIkNllFLdfIjitHZZ2XhkhRts_EwWWusruMzzSpstXVONwxVy8Z__2Z-rCEnHEDsZesRc_m00]--></g></svg>