<?xml version="1.0" encoding="UTF-8" standalone="no"?><svg xmlns="http://www.w3.org/2000/svg" xmlns:xlink="http://www.w3.org/1999/xlink" contentStyleType="text/css" height="891px" preserveAspectRatio="none" style="width:1949px;height:891px;background:#FFFFFF;" version="1.1" viewBox="0 0 1949 891" width="1949px" zoomAndPan="magnify"><defs/><g><!--cluster game.engine--><g id="cluster_game.engine"><path d="M8.5,6 L99.5,6 A3.75,3.75 0 0 1 102,8.5 L109,28.4883 L1939.5,28.4883 A2.5,2.5 0 0 1 1942,30.9883 L1942,863.64 A2.5,2.5 0 0 1 1939.5,866.14 L8.5,866.14 A2.5,2.5 0 0 1 6,863.64 L6,8.5 A2.5,2.5 0 0 1 8.5,6 " fill="none" style="stroke:#000000;stroke-width:1.5;"/><line style="stroke:#000000;stroke-width:1.5;" x1="6" x2="109" y1="28.4883" y2="28.4883"/><text fill="#000000" font-family="sans-serif" font-size="14" font-weight="bold" lengthAdjust="spacing" textLength="90" x="10" y="21.5352">game.engine</text></g><!--class game.engine.MouseListener--><a href="MouseListener.html" target="_top" title="MouseListener.html" xlink:actuate="onRequest" xlink:href="MouseListener.html" xlink:show="new" xlink:title="MouseListener.html" xlink:type="simple"><g id="elem_game.engine.MouseListener"><rect codeLine="3" fill="#F1F1F1" height="262.3477" id="game.engine.MouseListener" rx="2.5" ry="2.5" style="stroke:#181818;stroke-width:0.5;" width="358" x="1352" y="49.25"/><ellipse cx="1477.25" cy="65.25" fill="#ADD1B2" rx="11" ry="11" style="stroke:#181818;stroke-width:1.0;"/><path d="M1479.7231,71.3931 Q1479.1421,71.6919 1478.5029,71.8413 Q1477.8638,71.9907 1477.1582,71.9907 Q1474.6514,71.9907 1473.3315,70.3389 Q1472.0117,68.687 1472.0117,65.5659 Q1472.0117,62.4365 1473.3315,60.7847 Q1474.6514,59.1328 1477.1582,59.1328 Q1477.8638,59.1328 1478.5112,59.2822 Q1479.1587,59.4316 1479.7231,59.7305 L1479.7231,62.4531 Q1479.0923,61.8721 1478.4988,61.6023 Q1477.9053,61.3325 1477.2744,61.3325 Q1475.9297,61.3325 1475.2449,62.3992 Q1474.5601,63.4658 1474.5601,65.5659 Q1474.5601,67.6577 1475.2449,68.7244 Q1475.9297,69.791 1477.2744,69.791 Q1477.9053,69.791 1478.4988,69.5212 Q1479.0923,69.2515 1479.7231,68.6704 Z " fill="#000000"/><text fill="#000000" font-family="sans-serif" font-size="14" lengthAdjust="spacing" textLength="99" x="1497.75" y="70.541">MouseListener</text><line style="stroke:#181818;stroke-width:0.5;" x1="1353" x2="1709" y1="81.25" y2="81.25"/><line style="stroke:#181818;stroke-width:0.5;" x1="1353" x2="1709" y1="89.25" y2="89.25"/><ellipse cx="1363" cy="102.9941" fill="#84BE84" rx="3" ry="3" style="stroke:#038048;stroke-width:1.0;"/><text fill="#000000" font-family="sans-serif" font-size="14" lengthAdjust="spacing" text-decoration="underline" textLength="139" x="1372" y="106.7852">get(): MouseListener</text><ellipse cx="1363" cy="119.4824" fill="#84BE84" rx="3" ry="3" style="stroke:#038048;stroke-width:1.0;"/><text fill="#000000" font-family="sans-serif" font-size="14" lengthAdjust="spacing" text-decoration="underline" textLength="318" x="1372" y="123.2734">mousePosCallback(long, double, double): void</text><ellipse cx="1363" cy="135.9707" fill="#84BE84" rx="3" ry="3" style="stroke:#038048;stroke-width:1.0;"/><text fill="#000000" font-family="sans-serif" font-size="14" lengthAdjust="spacing" text-decoration="underline" textLength="305" x="1372" y="139.7617">mouseButtonCallback(long, int, int, int): void</text><ellipse cx="1363" cy="152.459" fill="#84BE84" rx="3" ry="3" style="stroke:#038048;stroke-width:1.0;"/><text fill="#000000" font-family="sans-serif" font-size="14" lengthAdjust="spacing" text-decoration="underline" textLength="332" x="1372" y="156.25">mouseScrollCallback(long, double, double): void</text><ellipse cx="1363" cy="168.9473" fill="#84BE84" rx="3" ry="3" style="stroke:#038048;stroke-width:1.0;"/><text fill="#000000" font-family="sans-serif" font-size="14" lengthAdjust="spacing" text-decoration="underline" textLength="116" x="1372" y="172.7383">endFrame(): void</text><ellipse cx="1363" cy="185.4355" fill="#84BE84" rx="3" ry="3" style="stroke:#038048;stroke-width:1.0;"/><text fill="#000000" font-family="sans-serif" font-size="14" lengthAdjust="spacing" text-decoration="underline" textLength="80" x="1372" y="189.2266">getX(): float</text><ellipse cx="1363" cy="201.9238" fill="#84BE84" rx="3" ry="3" style="stroke:#038048;stroke-width:1.0;"/><text fill="#000000" font-family="sans-serif" font-size="14" lengthAdjust="spacing" text-decoration="underline" textLength="80" x="1372" y="205.7148">getY(): float</text><ellipse cx="1363" cy="218.4121" fill="#84BE84" rx="3" ry="3" style="stroke:#038048;stroke-width:1.0;"/><text fill="#000000" font-family="sans-serif" font-size="14" lengthAdjust="spacing" text-decoration="underline" textLength="90" x="1372" y="222.2031">getDx(): float</text><ellipse cx="1363" cy="234.9004" fill="#84BE84" rx="3" ry="3" style="stroke:#038048;stroke-width:1.0;"/><text fill="#000000" font-family="sans-serif" font-size="14" lengthAdjust="spacing" text-decoration="underline" textLength="88" x="1372" y="238.6914">getDy(): float</text><ellipse cx="1363" cy="251.3887" fill="#84BE84" rx="3" ry="3" style="stroke:#038048;stroke-width:1.0;"/><text fill="#000000" font-family="sans-serif" font-size="14" lengthAdjust="spacing" text-decoration="underline" textLength="118" x="1372" y="255.1797">getScrollX(): float</text><ellipse cx="1363" cy="267.877" fill="#84BE84" rx="3" ry="3" style="stroke:#038048;stroke-width:1.0;"/><text fill="#000000" font-family="sans-serif" font-size="14" lengthAdjust="spacing" text-decoration="underline" textLength="118" x="1372" y="271.668">getScrollY(): float</text><ellipse cx="1363" cy="284.3652" fill="#84BE84" rx="3" ry="3" style="stroke:#038048;stroke-width:1.0;"/><text fill="#000000" font-family="sans-serif" font-size="14" lengthAdjust="spacing" text-decoration="underline" textLength="149" x="1372" y="288.1563">isDragging(): boolean</text><ellipse cx="1363" cy="300.8535" fill="#84BE84" rx="3" ry="3" style="stroke:#038048;stroke-width:1.0;"/><text fill="#000000" font-family="sans-serif" font-size="14" lengthAdjust="spacing" text-decoration="underline" textLength="222" x="1372" y="304.6445">mouseButtonDown(int): boolean</text></g></a><!--class game.engine.InitMenuScene--><a href="InitMenuScene.html" target="_top" title="InitMenuScene.html" xlink:actuate="onRequest" xlink:href="InitMenuScene.html" xlink:show="new" xlink:title="InitMenuScene.html" xlink:type="simple"><g id="elem_game.engine.InitMenuScene"><rect codeLine="19" fill="#F1F1F1" height="80.9766" id="game.engine.InitMenuScene" rx="2.5" ry="2.5" style="stroke:#181818;stroke-width:0.5;" width="152" x="840" y="454.55"/><ellipse cx="864" cy="470.55" fill="#ADD1B2" rx="11" ry="11" style="stroke:#181818;stroke-width:1.0;"/><path d="M866.4731,476.6931 Q865.8921,476.9919 865.2529,477.1413 Q864.6138,477.2907 863.9082,477.2907 Q861.4014,477.2907 860.0815,475.6389 Q858.7617,473.987 858.7617,470.8659 Q858.7617,467.7365 860.0815,466.0847 Q861.4014,464.4328 863.9082,464.4328 Q864.6138,464.4328 865.2612,464.5822 Q865.9087,464.7316 866.4731,465.0305 L866.4731,467.7531 Q865.8423,467.1721 865.2488,466.9023 Q864.6553,466.6325 864.0244,466.6325 Q862.6797,466.6325 861.9949,467.6992 Q861.3101,468.7658 861.3101,470.8659 Q861.3101,472.9577 861.9949,474.0244 Q862.6797,475.091 864.0244,475.091 Q864.6553,475.091 865.2488,474.8212 Q865.8423,474.5515 866.4731,473.9704 Z " fill="#000000"/><text fill="#000000" font-family="sans-serif" font-size="14" lengthAdjust="spacing" textLength="100" x="880" y="475.841">InitMenuScene</text><line style="stroke:#181818;stroke-width:0.5;" x1="841" x2="991" y1="486.55" y2="486.55"/><line style="stroke:#181818;stroke-width:0.5;" x1="841" x2="991" y1="494.55" y2="494.55"/><ellipse cx="851" cy="508.2941" fill="#84BE84" rx="3" ry="3" style="stroke:#038048;stroke-width:1.0;"/><text fill="#000000" font-family="sans-serif" font-size="14" lengthAdjust="spacing" textLength="126" x="860" y="512.0852">update(float): void</text><ellipse cx="851" cy="524.7824" fill="#84BE84" rx="3" ry="3" style="stroke:#038048;stroke-width:1.0;"/><text fill="#000000" font-family="sans-serif" font-size="14" lengthAdjust="spacing" textLength="69" x="860" y="528.5734">init(): void</text></g></a><!--class game.engine.Window--><a href="Window.html" target="_top" title="Window.html" xlink:actuate="onRequest" xlink:href="Window.html" xlink:show="new" xlink:title="Window.html" xlink:type="simple"><g id="elem_game.engine.Window"><rect codeLine="24" fill="#F1F1F1" height="278.8359" id="game.engine.Window" rx="2.5" ry="2.5" style="stroke:#181818;stroke-width:0.5;" width="181" x="1744.5" y="41"/><ellipse cx="1803.75" cy="57" fill="#ADD1B2" rx="11" ry="11" style="stroke:#181818;stroke-width:1.0;"/><path d="M1806.2231,63.1431 Q1805.6421,63.4419 1805.0029,63.5913 Q1804.3638,63.7407 1803.6582,63.7407 Q1801.1514,63.7407 1799.8315,62.0889 Q1798.5117,60.437 1798.5117,57.3159 Q1798.5117,54.1865 1799.8315,52.5347 Q1801.1514,50.8828 1803.6582,50.8828 Q1804.3638,50.8828 1805.0112,51.0322 Q1805.6587,51.1816 1806.2231,51.4805 L1806.2231,54.2031 Q1805.5923,53.6221 1804.9988,53.3523 Q1804.4053,53.0825 1803.7744,53.0825 Q1802.4297,53.0825 1801.7449,54.1492 Q1801.0601,55.2158 1801.0601,57.3159 Q1801.0601,59.4077 1801.7449,60.4744 Q1802.4297,61.541 1803.7744,61.541 Q1804.4053,61.541 1804.9988,61.2712 Q1805.5923,61.0015 1806.2231,60.4204 Z " fill="#000000"/><text fill="#000000" font-family="sans-serif" font-size="14" lengthAdjust="spacing" textLength="54" x="1824.25" y="62.291">Window</text><line style="stroke:#181818;stroke-width:0.5;" x1="1745.5" x2="1924.5" y1="73" y2="73"/><ellipse cx="1755.5" cy="86.7441" fill="none" rx="3" ry="3" style="stroke:#038048;stroke-width:1.0;"/><text fill="#000000" font-family="sans-serif" font-size="14" lengthAdjust="spacing" textLength="45" x="1764.5" y="90.5352">r: float</text><ellipse cx="1755.5" cy="103.2324" fill="none" rx="3" ry="3" style="stroke:#038048;stroke-width:1.0;"/><text fill="#000000" font-family="sans-serif" font-size="14" lengthAdjust="spacing" textLength="48" x="1764.5" y="107.0234">g: float</text><ellipse cx="1755.5" cy="119.7207" fill="none" rx="3" ry="3" style="stroke:#038048;stroke-width:1.0;"/><text fill="#000000" font-family="sans-serif" font-size="14" lengthAdjust="spacing" textLength="48" x="1764.5" y="123.5117">b: float</text><ellipse cx="1755.5" cy="136.209" fill="none" rx="3" ry="3" style="stroke:#038048;stroke-width:1.0;"/><text fill="#000000" font-family="sans-serif" font-size="14" lengthAdjust="spacing" textLength="47" x="1764.5" y="140">a: float</text><line style="stroke:#181818;stroke-width:0.5;" x1="1745.5" x2="1924.5" y1="146.9531" y2="146.9531"/><ellipse cx="1755.5" cy="160.6973" fill="#84BE84" rx="3" ry="3" style="stroke:#038048;stroke-width:1.0;"/><text fill="#000000" font-family="sans-serif" font-size="14" lengthAdjust="spacing" text-decoration="underline" textLength="94" x="1764.5" y="164.4883">get(): Window</text><ellipse cx="1755.5" cy="177.1855" fill="#84BE84" rx="3" ry="3" style="stroke:#038048;stroke-width:1.0;"/><text fill="#000000" font-family="sans-serif" font-size="14" lengthAdjust="spacing" text-decoration="underline" textLength="120" x="1764.5" y="180.9766">getScene(): Scene</text><ellipse cx="1755.5" cy="193.6738" fill="#84BE84" rx="3" ry="3" style="stroke:#038048;stroke-width:1.0;"/><text fill="#000000" font-family="sans-serif" font-size="14" lengthAdjust="spacing" text-decoration="underline" textLength="155" x="1764.5" y="197.4648">changeScene(int): void</text><ellipse cx="1755.5" cy="210.1621" fill="#84BE84" rx="3" ry="3" style="stroke:#038048;stroke-width:1.0;"/><text fill="#000000" font-family="sans-serif" font-size="14" lengthAdjust="spacing" textLength="71" x="1764.5" y="213.9531">run(): void</text><ellipse cx="1755.5" cy="226.6504" fill="#84BE84" rx="3" ry="3" style="stroke:#038048;stroke-width:1.0;"/><text fill="#000000" font-family="sans-serif" font-size="14" lengthAdjust="spacing" textLength="69" x="1764.5" y="230.4414">init(): void</text><ellipse cx="1755.5" cy="243.1387" fill="#84BE84" rx="3" ry="3" style="stroke:#038048;stroke-width:1.0;"/><text fill="#000000" font-family="sans-serif" font-size="14" lengthAdjust="spacing" textLength="78" x="1764.5" y="246.9297">loop(): void</text><ellipse cx="1755.5" cy="259.627" fill="#84BE84" rx="3" ry="3" style="stroke:#038048;stroke-width:1.0;"/><text fill="#000000" font-family="sans-serif" font-size="14" lengthAdjust="spacing" text-decoration="underline" textLength="97" x="1764.5" y="263.418">getWidth(): int</text><ellipse cx="1755.5" cy="276.1152" fill="#84BE84" rx="3" ry="3" style="stroke:#038048;stroke-width:1.0;"/><text fill="#000000" font-family="sans-serif" font-size="14" lengthAdjust="spacing" text-decoration="underline" textLength="103" x="1764.5" y="279.9063">getHeight(): int</text><ellipse cx="1755.5" cy="292.6035" fill="#84BE84" rx="3" ry="3" style="stroke:#038048;stroke-width:1.0;"/><text fill="#000000" font-family="sans-serif" font-size="14" lengthAdjust="spacing" text-decoration="underline" textLength="124" x="1764.5" y="296.3945">setWidth(int): void</text><ellipse cx="1755.5" cy="309.0918" fill="#84BE84" rx="3" ry="3" style="stroke:#038048;stroke-width:1.0;"/><text fill="#000000" font-family="sans-serif" font-size="14" lengthAdjust="spacing" text-decoration="underline" textLength="130" x="1764.5" y="312.8828">setHeight(int): void</text></g></a><!--class game.engine.Transform--><a href="Transform.html" target="_top" title="Transform.html" xlink:actuate="onRequest" xlink:href="Transform.html" xlink:show="new" xlink:title="Transform.html" xlink:type="simple"><g id="elem_game.engine.Transform"><rect codeLine="41" fill="#F1F1F1" height="179.9063" id="game.engine.Transform" rx="2.5" ry="2.5" style="stroke:#181818;stroke-width:0.5;" width="232" x="161" y="670.23"/><ellipse cx="236.75" cy="686.23" fill="#ADD1B2" rx="11" ry="11" style="stroke:#181818;stroke-width:1.0;"/><path d="M239.2231,692.3731 Q238.6421,692.6719 238.0029,692.8213 Q237.3638,692.9707 236.6582,692.9707 Q234.1514,692.9707 232.8315,691.3189 Q231.5117,689.667 231.5117,686.5459 Q231.5117,683.4165 232.8315,681.7647 Q234.1514,680.1128 236.6582,680.1128 Q237.3638,680.1128 238.0112,680.2622 Q238.6587,680.4116 239.2231,680.7105 L239.2231,683.4331 Q238.5923,682.8521 237.9988,682.5823 Q237.4053,682.3125 236.7744,682.3125 Q235.4297,682.3125 234.7449,683.3792 Q234.0601,684.4458 234.0601,686.5459 Q234.0601,688.6377 234.7449,689.7044 Q235.4297,690.771 236.7744,690.771 Q237.4053,690.771 237.9988,690.5012 Q238.5923,690.2315 239.2231,689.6504 Z " fill="#000000"/><text fill="#000000" font-family="sans-serif" font-size="14" lengthAdjust="spacing" textLength="72" x="257.25" y="691.521">Transform</text><line style="stroke:#181818;stroke-width:0.5;" x1="162" x2="392" y1="702.23" y2="702.23"/><ellipse cx="172" cy="715.9741" fill="none" rx="3" ry="3" style="stroke:#038048;stroke-width:1.0;"/><text fill="#000000" font-family="sans-serif" font-size="14" lengthAdjust="spacing" textLength="122" x="181" y="719.7652">position: Vector2f</text><ellipse cx="172" cy="732.4624" fill="none" rx="3" ry="3" style="stroke:#038048;stroke-width:1.0;"/><text fill="#000000" font-family="sans-serif" font-size="14" lengthAdjust="spacing" textLength="100" x="181" y="736.2534">scale: Vector2f</text><line style="stroke:#181818;stroke-width:0.5;" x1="162" x2="392" y1="743.2066" y2="743.2066"/><ellipse cx="172" cy="756.9507" fill="#84BE84" rx="3" ry="3" style="stroke:#038048;stroke-width:1.0;"/><text fill="#000000" font-family="sans-serif" font-size="14" lengthAdjust="spacing" textLength="82" x="181" y="760.7417">Transform()</text><ellipse cx="172" cy="773.439" fill="#84BE84" rx="3" ry="3" style="stroke:#038048;stroke-width:1.0;"/><text fill="#000000" font-family="sans-serif" font-size="14" lengthAdjust="spacing" textLength="140" x="181" y="777.23">Transform(Vector2f)</text><ellipse cx="172" cy="789.9273" fill="#84BE84" rx="3" ry="3" style="stroke:#038048;stroke-width:1.0;"/><text fill="#000000" font-family="sans-serif" font-size="14" lengthAdjust="spacing" textLength="206" x="181" y="793.7183">Transform(Vector2f, Vector2f)</text><ellipse cx="172" cy="806.4155" fill="#84BE84" rx="3" ry="3" style="stroke:#038048;stroke-width:1.0;"/><text fill="#000000" font-family="sans-serif" font-size="14" lengthAdjust="spacing" textLength="193" x="181" y="810.2066">init(Vector2f, Vector2f): void</text><ellipse cx="172" cy="822.9038" fill="#84BE84" rx="3" ry="3" style="stroke:#038048;stroke-width:1.0;"/><text fill="#000000" font-family="sans-serif" font-size="14" lengthAdjust="spacing" textLength="122" x="181" y="826.6948">copy(): Transform</text><ellipse cx="172" cy="839.3921" fill="#84BE84" rx="3" ry="3" style="stroke:#038048;stroke-width:1.0;"/><text fill="#000000" font-family="sans-serif" font-size="14" lengthAdjust="spacing" textLength="151" x="181" y="843.1831">copy(Transform): void</text></g></a><!--class game.engine.LevelEditorScene--><a href="LevelEditorScene.html" target="_top" title="LevelEditorScene.html" xlink:actuate="onRequest" xlink:href="LevelEditorScene.html" xlink:show="new" xlink:title="LevelEditorScene.html" xlink:type="simple"><g id="elem_game.engine.LevelEditorScene"><rect codeLine="52" fill="#F1F1F1" height="97.4648" id="game.engine.LevelEditorScene" rx="2.5" ry="2.5" style="stroke:#181818;stroke-width:0.5;" width="152" x="1027" y="446.3"/><ellipse cx="1044.25" cy="462.3" fill="#ADD1B2" rx="11" ry="11" style="stroke:#181818;stroke-width:1.0;"/><path d="M1046.7231,468.4431 Q1046.1421,468.7419 1045.5029,468.8913 Q1044.8638,469.0407 1044.1582,469.0407 Q1041.6514,469.0407 1040.3315,467.3889 Q1039.0117,465.737 1039.0117,462.6159 Q1039.0117,459.4865 1040.3315,457.8347 Q1041.6514,456.1828 1044.1582,456.1828 Q1044.8638,456.1828 1045.5112,456.3322 Q1046.1587,456.4816 1046.7231,456.7805 L1046.7231,459.5031 Q1046.0923,458.9221 1045.4988,458.6523 Q1044.9053,458.3825 1044.2744,458.3825 Q1042.9297,458.3825 1042.2449,459.4492 Q1041.5601,460.5158 1041.5601,462.6159 Q1041.5601,464.7077 1042.2449,465.7744 Q1042.9297,466.841 1044.2744,466.841 Q1044.9053,466.841 1045.4988,466.5712 Q1046.0923,466.3015 1046.7231,465.7204 Z " fill="#000000"/><text fill="#000000" font-family="sans-serif" font-size="14" lengthAdjust="spacing" textLength="115" x="1058.75" y="467.591">LevelEditorScene</text><line style="stroke:#181818;stroke-width:0.5;" x1="1028" x2="1178" y1="478.3" y2="478.3"/><line style="stroke:#181818;stroke-width:0.5;" x1="1028" x2="1178" y1="486.3" y2="486.3"/><ellipse cx="1038" cy="500.0441" fill="#84BE84" rx="3" ry="3" style="stroke:#038048;stroke-width:1.0;"/><text fill="#000000" font-family="sans-serif" font-size="14" lengthAdjust="spacing" textLength="69" x="1047" y="503.8352">init(): void</text><ellipse cx="1038" cy="516.5324" fill="#84BE84" rx="3" ry="3" style="stroke:#038048;stroke-width:1.0;"/><text fill="#000000" font-family="sans-serif" font-size="14" lengthAdjust="spacing" textLength="126" x="1047" y="520.3234">update(float): void</text><ellipse cx="1038" cy="533.0207" fill="#84BE84" rx="3" ry="3" style="stroke:#038048;stroke-width:1.0;"/><text fill="#000000" font-family="sans-serif" font-size="14" lengthAdjust="spacing" textLength="86" x="1047" y="536.8117">imgui(): void</text></g></a><!--class game.engine.KeyListener--><a href="KeyListener.html" target="_top" title="KeyListener.html" xlink:actuate="onRequest" xlink:href="KeyListener.html" xlink:show="new" xlink:title="KeyListener.html" xlink:type="simple"><g id="elem_game.engine.KeyListener"><rect codeLine="58" fill="#F1F1F1" height="97.4648" id="game.engine.KeyListener" rx="2.5" ry="2.5" style="stroke:#181818;stroke-width:0.5;" width="289" x="1401.5" y="446.3"/><ellipse cx="1502.75" cy="462.3" fill="#ADD1B2" rx="11" ry="11" style="stroke:#181818;stroke-width:1.0;"/><path d="M1505.2231,468.4431 Q1504.6421,468.7419 1504.0029,468.8913 Q1503.3638,469.0407 1502.6582,469.0407 Q1500.1514,469.0407 1498.8315,467.3889 Q1497.5117,465.737 1497.5117,462.6159 Q1497.5117,459.4865 1498.8315,457.8347 Q1500.1514,456.1828 1502.6582,456.1828 Q1503.3638,456.1828 1504.0112,456.3322 Q1504.6587,456.4816 1505.2231,456.7805 L1505.2231,459.5031 Q1504.5923,458.9221 1503.9988,458.6523 Q1503.4053,458.3825 1502.7744,458.3825 Q1501.4297,458.3825 1500.7449,459.4492 Q1500.0601,460.5158 1500.0601,462.6159 Q1500.0601,464.7077 1500.7449,465.7744 Q1501.4297,466.841 1502.7744,466.841 Q1503.4053,466.841 1503.9988,466.5712 Q1504.5923,466.3015 1505.2231,465.7204 Z " fill="#000000"/><text fill="#000000" font-family="sans-serif" font-size="14" lengthAdjust="spacing" textLength="78" x="1523.25" y="467.591">KeyListener</text><line style="stroke:#181818;stroke-width:0.5;" x1="1402.5" x2="1689.5" y1="478.3" y2="478.3"/><line style="stroke:#181818;stroke-width:0.5;" x1="1402.5" x2="1689.5" y1="486.3" y2="486.3"/><ellipse cx="1412.5" cy="500.0441" fill="#84BE84" rx="3" ry="3" style="stroke:#038048;stroke-width:1.0;"/><text fill="#000000" font-family="sans-serif" font-size="14" lengthAdjust="spacing" text-decoration="underline" textLength="118" x="1421.5" y="503.8352">get(): KeyListener</text><ellipse cx="1412.5" cy="516.5324" fill="#84BE84" rx="3" ry="3" style="stroke:#038048;stroke-width:1.0;"/><text fill="#000000" font-family="sans-serif" font-size="14" lengthAdjust="spacing" text-decoration="underline" textLength="263" x="1421.5" y="520.3234">keyCallback(long, int, int, int, int): void</text><ellipse cx="1412.5" cy="533.0207" fill="#84BE84" rx="3" ry="3" style="stroke:#038048;stroke-width:1.0;"/><text fill="#000000" font-family="sans-serif" font-size="14" lengthAdjust="spacing" text-decoration="underline" textLength="180" x="1421.5" y="536.8117">isKeyPressed(int): boolean</text></g></a><!--class game.engine.LevelScene--><a href="LevelScene.html" target="_top" title="LevelScene.html" xlink:actuate="onRequest" xlink:href="LevelScene.html" xlink:show="new" xlink:title="LevelScene.html" xlink:type="simple"><g id="elem_game.engine.LevelScene"><rect codeLine="64" fill="#F1F1F1" height="80.9766" id="game.engine.LevelScene" rx="2.5" ry="2.5" style="stroke:#181818;stroke-width:0.5;" width="152" x="1214" y="454.55"/><ellipse cx="1249.7" cy="470.55" fill="#ADD1B2" rx="11" ry="11" style="stroke:#181818;stroke-width:1.0;"/><path d="M1252.1731,476.6931 Q1251.5921,476.9919 1250.9529,477.1413 Q1250.3138,477.2907 1249.6082,477.2907 Q1247.1014,477.2907 1245.7815,475.6389 Q1244.4617,473.987 1244.4617,470.8659 Q1244.4617,467.7365 1245.7815,466.0847 Q1247.1014,464.4328 1249.6082,464.4328 Q1250.3138,464.4328 1250.9612,464.5822 Q1251.6087,464.7316 1252.1731,465.0305 L1252.1731,467.7531 Q1251.5423,467.1721 1250.9488,466.9023 Q1250.3553,466.6325 1249.7244,466.6325 Q1248.3797,466.6325 1247.6949,467.6992 Q1247.0101,468.7658 1247.0101,470.8659 Q1247.0101,472.9577 1247.6949,474.0244 Q1248.3797,475.091 1249.7244,475.091 Q1250.3553,475.091 1250.9488,474.8212 Q1251.5423,474.5515 1252.1731,473.9704 Z " fill="#000000"/><text fill="#000000" font-family="sans-serif" font-size="14" lengthAdjust="spacing" textLength="74" x="1268.3" y="475.841">LevelScene</text><line style="stroke:#181818;stroke-width:0.5;" x1="1215" x2="1365" y1="486.55" y2="486.55"/><line style="stroke:#181818;stroke-width:0.5;" x1="1215" x2="1365" y1="494.55" y2="494.55"/><ellipse cx="1225" cy="508.2941" fill="#84BE84" rx="3" ry="3" style="stroke:#038048;stroke-width:1.0;"/><text fill="#000000" font-family="sans-serif" font-size="14" lengthAdjust="spacing" textLength="126" x="1234" y="512.0852">update(float): void</text><ellipse cx="1225" cy="524.7824" fill="#84BE84" rx="3" ry="3" style="stroke:#038048;stroke-width:1.0;"/><text fill="#000000" font-family="sans-serif" font-size="14" lengthAdjust="spacing" textLength="69" x="1234" y="528.5734">init(): void</text></g></a><!--class game.engine.Component--><a href="Component.html" target="_top" title="Component.html" xlink:actuate="onRequest" xlink:href="Component.html" xlink:show="new" xlink:title="Component.html" xlink:type="simple"><g id="elem_game.engine.Component"><rect codeLine="69" fill="#F1F1F1" height="97.4648" id="game.engine.Component" rx="2.5" ry="2.5" style="stroke:#181818;stroke-width:0.5;" width="152" x="201" y="131.69"/><ellipse cx="233.55" cy="147.69" fill="#A9DCDF" rx="11" ry="11" style="stroke:#181818;stroke-width:1.0;"/><path d="M233.4133,143.0381 L232.2595,148.1099 L234.5754,148.1099 Z M231.9191,140.7969 L234.9157,140.7969 L238.2609,153.19 L235.8122,153.19 L235.0485,150.127 L231.7697,150.127 L231.0227,153.19 L228.5739,153.19 Z " fill="#000000"/><text fill="#000000" font-family="sans-serif" font-size="14" font-style="italic" lengthAdjust="spacing" textLength="81" x="251.45" y="152.981">Component</text><line style="stroke:#181818;stroke-width:0.5;" x1="202" x2="352" y1="163.69" y2="163.69"/><line style="stroke:#181818;stroke-width:0.5;" x1="202" x2="352" y1="171.69" y2="171.69"/><ellipse cx="212" cy="185.4341" fill="#84BE84" rx="3" ry="3" style="stroke:#038048;stroke-width:1.0;"/><text fill="#000000" font-family="sans-serif" font-size="14" lengthAdjust="spacing" textLength="78" x="221" y="189.2252">start(): void</text><ellipse cx="212" cy="201.9224" fill="#84BE84" rx="3" ry="3" style="stroke:#038048;stroke-width:1.0;"/><text fill="#000000" font-family="sans-serif" font-size="14" lengthAdjust="spacing" textLength="126" x="221" y="205.7134">update(float): void</text><ellipse cx="212" cy="218.4107" fill="#84BE84" rx="3" ry="3" style="stroke:#038048;stroke-width:1.0;"/><text fill="#000000" font-family="sans-serif" font-size="14" lengthAdjust="spacing" textLength="86" x="221" y="222.2017">imgui(): void</text></g></a><!--class game.engine.Scene--><a href="Scene.html" target="_top" title="Scene.html" xlink:actuate="onRequest" xlink:href="Scene.html" xlink:show="new" xlink:title="Scene.html" xlink:type="simple"><g id="elem_game.engine.Scene"><rect codeLine="75" fill="#F1F1F1" height="179.9063" id="game.engine.Scene" rx="2.5" ry="2.5" style="stroke:#181818;stroke-width:0.5;" width="265" x="646.5" y="90.47"/><ellipse cx="754.75" cy="106.47" fill="#A9DCDF" rx="11" ry="11" style="stroke:#181818;stroke-width:1.0;"/><path d="M754.6133,101.8181 L753.4595,106.8899 L755.7754,106.8899 Z M753.1191,99.5769 L756.1157,99.5769 L759.4609,111.97 L757.0122,111.97 L756.2485,108.907 L752.9697,108.907 L752.2227,111.97 L749.7739,111.97 Z " fill="#000000"/><text fill="#000000" font-family="sans-serif" font-size="14" font-style="italic" lengthAdjust="spacing" textLength="40" x="775.25" y="111.761">Scene</text><line style="stroke:#181818;stroke-width:0.5;" x1="647.5" x2="910.5" y1="122.47" y2="122.47"/><polygon fill="none" points="657.5,131.2141,661.5,135.2141,657.5,139.2141,653.5,135.2141" style="stroke:#B38D22;stroke-width:1.0;"/><text fill="#000000" font-family="sans-serif" font-size="14" lengthAdjust="spacing" textLength="131" x="666.5" y="140.0052">renderer: Renderer</text><line style="stroke:#181818;stroke-width:0.5;" x1="647.5" x2="910.5" y1="146.9583" y2="146.9583"/><ellipse cx="657.5" cy="160.7024" fill="#84BE84" rx="3" ry="3" style="stroke:#038048;stroke-width:1.0;"/><text fill="#000000" font-family="sans-serif" font-size="14" lengthAdjust="spacing" textLength="69" x="666.5" y="164.4934">init(): void</text><ellipse cx="657.5" cy="177.1907" fill="#84BE84" rx="3" ry="3" style="stroke:#038048;stroke-width:1.0;"/><text fill="#000000" font-family="sans-serif" font-size="14" lengthAdjust="spacing" textLength="78" x="666.5" y="180.9817">start(): void</text><ellipse cx="657.5" cy="193.679" fill="#84BE84" rx="3" ry="3" style="stroke:#038048;stroke-width:1.0;"/><text fill="#000000" font-family="sans-serif" font-size="14" lengthAdjust="spacing" textLength="239" x="666.5" y="197.47">addGameObject(GameObject): void</text><ellipse cx="657.5" cy="210.1673" fill="#84BE84" rx="3" ry="3" style="stroke:#038048;stroke-width:1.0;"/><text fill="#000000" font-family="sans-serif" font-size="14" font-style="italic" lengthAdjust="spacing" textLength="126" x="666.5" y="213.9583">update(float): void</text><ellipse cx="657.5" cy="226.6555" fill="#84BE84" rx="3" ry="3" style="stroke:#038048;stroke-width:1.0;"/><text fill="#000000" font-family="sans-serif" font-size="14" lengthAdjust="spacing" textLength="121" x="666.5" y="230.4466">camera(): Camera</text><ellipse cx="657.5" cy="243.1438" fill="#84BE84" rx="3" ry="3" style="stroke:#038048;stroke-width:1.0;"/><text fill="#000000" font-family="sans-serif" font-size="14" lengthAdjust="spacing" textLength="125" x="666.5" y="246.9348">sceneImgui(): void</text><ellipse cx="657.5" cy="259.6321" fill="#84BE84" rx="3" ry="3" style="stroke:#038048;stroke-width:1.0;"/><text fill="#000000" font-family="sans-serif" font-size="14" lengthAdjust="spacing" textLength="86" x="666.5" y="263.4231">imgui(): void</text></g></a><!--class game.engine.ImGuiLayer--><a href="ImGuiLayer.html" target="_top" title="ImGuiLayer.html" xlink:actuate="onRequest" xlink:href="ImGuiLayer.html" xlink:show="new" xlink:title="ImGuiLayer.html" xlink:type="simple"><g id="elem_game.engine.ImGuiLayer"><rect codeLine="86" fill="#F1F1F1" height="97.4648" id="game.engine.ImGuiLayer" rx="2.5" ry="2.5" style="stroke:#181818;stroke-width:0.5;" width="200" x="1726" y="446.3"/><ellipse cx="1783.75" cy="462.3" fill="#ADD1B2" rx="11" ry="11" style="stroke:#181818;stroke-width:1.0;"/><path d="M1786.2231,468.4431 Q1785.6421,468.7419 1785.0029,468.8913 Q1784.3638,469.0407 1783.6582,469.0407 Q1781.1514,469.0407 1779.8315,467.3889 Q1778.5117,465.737 1778.5117,462.6159 Q1778.5117,459.4865 1779.8315,457.8347 Q1781.1514,456.1828 1783.6582,456.1828 Q1784.3638,456.1828 1785.0112,456.3322 Q1785.6587,456.4816 1786.2231,456.7805 L1786.2231,459.5031 Q1785.5923,458.9221 1784.9988,458.6523 Q1784.4053,458.3825 1783.7744,458.3825 Q1782.4297,458.3825 1781.7449,459.4492 Q1781.0601,460.5158 1781.0601,462.6159 Q1781.0601,464.7077 1781.7449,465.7744 Q1782.4297,466.841 1783.7744,466.841 Q1784.4053,466.841 1784.9988,466.5712 Q1785.5923,466.3015 1786.2231,465.7204 Z " fill="#000000"/><text fill="#000000" font-family="sans-serif" font-size="14" lengthAdjust="spacing" textLength="76" x="1804.25" y="467.591">ImGuiLayer</text><line style="stroke:#181818;stroke-width:0.5;" x1="1727" x2="1925" y1="478.3" y2="478.3"/><line style="stroke:#181818;stroke-width:0.5;" x1="1727" x2="1925" y1="486.3" y2="486.3"/><ellipse cx="1737" cy="500.0441" fill="#84BE84" rx="3" ry="3" style="stroke:#038048;stroke-width:1.0;"/><text fill="#000000" font-family="sans-serif" font-size="14" lengthAdjust="spacing" textLength="117" x="1746" y="503.8352">ImGuiLayer(long)</text><ellipse cx="1737" cy="516.5324" fill="#84BE84" rx="3" ry="3" style="stroke:#038048;stroke-width:1.0;"/><text fill="#000000" font-family="sans-serif" font-size="14" lengthAdjust="spacing" textLength="109" x="1746" y="520.3234">initImGui(): void</text><ellipse cx="1737" cy="533.0207" fill="#84BE84" rx="3" ry="3" style="stroke:#038048;stroke-width:1.0;"/><text fill="#000000" font-family="sans-serif" font-size="14" lengthAdjust="spacing" textLength="174" x="1746" y="536.8117">update(float, Scene): void</text></g></a><!--class game.engine.GameObject--><a href="GameObject.html" target="_top" title="GameObject.html" xlink:actuate="onRequest" xlink:href="GameObject.html" xlink:show="new" xlink:title="GameObject.html" xlink:type="simple"><g id="elem_game.engine.GameObject"><rect codeLine="92" fill="#F1F1F1" height="196.3945" id="game.engine.GameObject" rx="2.5" ry="2.5" style="stroke:#181818;stroke-width:0.5;" width="511" x="21.5" y="396.84"/><ellipse cx="231.25" cy="412.84" fill="#ADD1B2" rx="11" ry="11" style="stroke:#181818;stroke-width:1.0;"/><path d="M233.7231,418.9831 Q233.1421,419.2819 232.5029,419.4313 Q231.8638,419.5807 231.1582,419.5807 Q228.6514,419.5807 227.3315,417.9289 Q226.0117,416.277 226.0117,413.1559 Q226.0117,410.0265 227.3315,408.3747 Q228.6514,406.7228 231.1582,406.7228 Q231.8638,406.7228 232.5112,406.8722 Q233.1587,407.0216 233.7231,407.3205 L233.7231,410.0431 Q233.0923,409.4621 232.4988,409.1923 Q231.9053,408.9225 231.2744,408.9225 Q229.9297,408.9225 229.2449,409.9892 Q228.5601,411.0558 228.5601,413.1559 Q228.5601,415.2477 229.2449,416.3144 Q229.9297,417.381 231.2744,417.381 Q231.9053,417.381 232.4988,417.1112 Q233.0923,416.8415 233.7231,416.2604 Z " fill="#000000"/><text fill="#000000" font-family="sans-serif" font-size="14" lengthAdjust="spacing" textLength="83" x="251.75" y="418.131">GameObject</text><line style="stroke:#181818;stroke-width:0.5;" x1="22.5" x2="531.5" y1="428.84" y2="428.84"/><line style="stroke:#181818;stroke-width:0.5;" x1="22.5" x2="531.5" y1="436.84" y2="436.84"/><ellipse cx="32.5" cy="450.5841" fill="#84BE84" rx="3" ry="3" style="stroke:#038048;stroke-width:1.0;"/><text fill="#000000" font-family="sans-serif" font-size="14" lengthAdjust="spacing" textLength="134" x="41.5" y="454.3752">GameObject(String)</text><ellipse cx="32.5" cy="467.0724" fill="#84BE84" rx="3" ry="3" style="stroke:#038048;stroke-width:1.0;"/><text fill="#000000" font-family="sans-serif" font-size="14" lengthAdjust="spacing" textLength="240" x="41.5" y="470.8634">GameObject(String, Transform, int)</text><ellipse cx="32.5" cy="483.5607" fill="#84BE84" rx="3" ry="3" style="stroke:#038048;stroke-width:1.0;"/><text fill="#000000" font-family="sans-serif" font-size="14" lengthAdjust="spacing" textLength="485" x="41.5" y="487.3517">getComponent(Class&lt;T extends Component&gt;): T extends Component</text><ellipse cx="32.5" cy="500.049" fill="#84BE84" rx="3" ry="3" style="stroke:#038048;stroke-width:1.0;"/><text fill="#000000" font-family="sans-serif" font-size="14" lengthAdjust="spacing" textLength="390" x="41.5" y="503.84">removeComponent(Class&lt;T extends Component&gt;): void</text><ellipse cx="32.5" cy="516.5373" fill="#84BE84" rx="3" ry="3" style="stroke:#038048;stroke-width:1.0;"/><text fill="#000000" font-family="sans-serif" font-size="14" lengthAdjust="spacing" textLength="235" x="41.5" y="520.3283">addComponent(Component): void</text><ellipse cx="32.5" cy="533.0255" fill="#84BE84" rx="3" ry="3" style="stroke:#038048;stroke-width:1.0;"/><text fill="#000000" font-family="sans-serif" font-size="14" lengthAdjust="spacing" textLength="126" x="41.5" y="536.8166">update(float): void</text><ellipse cx="32.5" cy="549.5138" fill="#84BE84" rx="3" ry="3" style="stroke:#038048;stroke-width:1.0;"/><text fill="#000000" font-family="sans-serif" font-size="14" lengthAdjust="spacing" textLength="78" x="41.5" y="553.3048">start(): void</text><ellipse cx="32.5" cy="566.0021" fill="#84BE84" rx="3" ry="3" style="stroke:#038048;stroke-width:1.0;"/><text fill="#000000" font-family="sans-serif" font-size="14" lengthAdjust="spacing" textLength="86" x="41.5" y="569.7931">imgui(): void</text><ellipse cx="32.5" cy="582.4904" fill="#84BE84" rx="3" ry="3" style="stroke:#038048;stroke-width:1.0;"/><text fill="#000000" font-family="sans-serif" font-size="14" lengthAdjust="spacing" textLength="83" x="41.5" y="586.2814">zIndex(): int</text></g></a><!--class game.engine.Camera--><a href="Camera.html" target="_top" title="Camera.html" xlink:actuate="onRequest" xlink:href="Camera.html" xlink:show="new" xlink:title="Camera.html" xlink:type="simple"><g id="elem_game.engine.Camera"><rect codeLine="104" fill="#F1F1F1" height="130.4414" id="game.engine.Camera" rx="2.5" ry="2.5" style="stroke:#181818;stroke-width:0.5;" width="237" x="567.5" y="429.82"/><ellipse cx="655.25" cy="445.82" fill="#ADD1B2" rx="11" ry="11" style="stroke:#181818;stroke-width:1.0;"/><path d="M657.7231,451.9631 Q657.1421,452.2619 656.5029,452.4113 Q655.8638,452.5607 655.1582,452.5607 Q652.6514,452.5607 651.3315,450.9089 Q650.0117,449.257 650.0117,446.1359 Q650.0117,443.0065 651.3315,441.3547 Q652.6514,439.7028 655.1582,439.7028 Q655.8638,439.7028 656.5112,439.8522 Q657.1587,440.0016 657.7231,440.3005 L657.7231,443.0231 Q657.0923,442.4421 656.4988,442.1723 Q655.9053,441.9025 655.2744,441.9025 Q653.9297,441.9025 653.2449,442.9692 Q652.5601,444.0358 652.5601,446.1359 Q652.5601,448.2277 653.2449,449.2944 Q653.9297,450.361 655.2744,450.361 Q655.9053,450.361 656.4988,450.0912 Q657.0923,449.8215 657.7231,449.2404 Z " fill="#000000"/><text fill="#000000" font-family="sans-serif" font-size="14" lengthAdjust="spacing" textLength="53" x="675.75" y="451.111">Camera</text><line style="stroke:#181818;stroke-width:0.5;" x1="568.5" x2="803.5" y1="461.82" y2="461.82"/><ellipse cx="578.5" cy="475.5641" fill="none" rx="3" ry="3" style="stroke:#038048;stroke-width:1.0;"/><text fill="#000000" font-family="sans-serif" font-size="14" lengthAdjust="spacing" textLength="122" x="587.5" y="479.3552">position: Vector2f</text><line style="stroke:#181818;stroke-width:0.5;" x1="568.5" x2="803.5" y1="486.3083" y2="486.3083"/><ellipse cx="578.5" cy="500.0524" fill="#84BE84" rx="3" ry="3" style="stroke:#038048;stroke-width:1.0;"/><text fill="#000000" font-family="sans-serif" font-size="14" lengthAdjust="spacing" textLength="121" x="587.5" y="503.8434">Camera(Vector2f)</text><ellipse cx="578.5" cy="516.5407" fill="#84BE84" rx="3" ry="3" style="stroke:#038048;stroke-width:1.0;"/><text fill="#000000" font-family="sans-serif" font-size="14" lengthAdjust="spacing" textLength="158" x="587.5" y="520.3317">adjustProjection(): void</text><ellipse cx="578.5" cy="533.029" fill="#84BE84" rx="3" ry="3" style="stroke:#038048;stroke-width:1.0;"/><text fill="#000000" font-family="sans-serif" font-size="14" lengthAdjust="spacing" textLength="174" x="587.5" y="536.82">getViewMatrix(): Matrix4f</text><ellipse cx="578.5" cy="549.5173" fill="#84BE84" rx="3" ry="3" style="stroke:#038048;stroke-width:1.0;"/><text fill="#000000" font-family="sans-serif" font-size="14" lengthAdjust="spacing" textLength="211" x="587.5" y="553.3083">getProjectionMatrix(): Matrix4f</text></g></a><!--reverse link game.engine.Scene to game.engine.InitMenuScene--><g id="link_game.engine.Scene_game.engine.InitMenuScene"><path codeLine="112" d="M826.68,290.21 C851.54,346.94 880.44,412.9 898.48,454.06 " fill="none" id="game.engine.Scene-backto-game.engine.InitMenuScene" style="stroke:#181818;stroke-width:1.0;"/><polygon fill="none" points="820.3,293.1,818.68,271.97,833.12,287.48,820.3,293.1" style="stroke:#181818;stroke-width:1.0;"/></g><!--reverse link game.engine.Scene to game.engine.LevelEditorScene--><g id="link_game.engine.Scene_game.engine.LevelEditorScene"><path codeLine="113" d="M892.07,285.24 C929.65,320.29 971.47,359.91 1009,396.84 C1025.06,412.65 1042.3,430.27 1057.57,446.12 " fill="none" id="game.engine.Scene-backto-game.engine.LevelEditorScene" style="stroke:#181818;stroke-width:1.0;"/><polygon fill="none" points="887.51,290.55,877.63,271.8,897.04,280.31,887.51,290.55" style="stroke:#181818;stroke-width:1.0;"/></g><!--reverse link game.engine.Scene to game.engine.LevelScene--><g id="link_game.engine.Scene_game.engine.LevelScene"><path codeLine="114" d="M931.12,245.39 C1013.34,283.48 1114.43,336.18 1196,396.84 C1218.23,413.37 1239.94,435.31 1256.88,454.17 " fill="none" id="game.engine.Scene-backto-game.engine.LevelScene" style="stroke:#181818;stroke-width:1.0;"/><polygon fill="none" points="928.38,251.84,913.11,237.15,934.2,239.11,928.38,251.84" style="stroke:#181818;stroke-width:1.0;"/></g><!--link game.engine.Component to game.engine.GameObject--><g id="link_game.engine.Component_game.engine.GameObject"><path codeLine="115" d="M277,229.58 C277,272.3 277,336.14 277,390.4 " fill="none" id="game.engine.Component-to-game.engine.GameObject" style="stroke:#181818;stroke-width:1.0;"/><polygon fill="#181818" points="277,395.11,281,386.11,277,390.11,273,386.11,277,395.11" style="stroke:#181818;stroke-width:1.0;"/><text fill="#000000" font-family="sans-serif" font-size="13" lengthAdjust="spacing" textLength="75" x="278" y="363.4084">gameObject</text></g><!--link game.engine.Scene to game.engine.Camera--><g id="link_game.engine.Scene_game.engine.Camera"><path codeLine="116" d="M752.47,270.59 C738.04,319.12 720.43,378.31 706.96,423.58 " fill="none" id="game.engine.Scene-to-game.engine.Camera" style="stroke:#181818;stroke-width:1.0;"/><polygon fill="#181818" points="705.6,428.14,712.0011,420.6549,707.0263,423.3477,704.3335,418.3729,705.6,428.14" style="stroke:#181818;stroke-width:1.0;"/><text fill="#000000" font-family="sans-serif" font-size="13" lengthAdjust="spacing" textLength="45" x="727" y="363.4084">camera</text></g><!--link game.engine.Scene to game.engine.GameObject--><g id="link_game.engine.Scene_game.engine.GameObject"><path codeLine="117" d="M646.03,239.36 C583.09,269.05 508.08,307.77 445,349.84 C425.69,362.72 406.14,377.54 387.55,392.68 " fill="none" id="game.engine.Scene-to-game.engine.GameObject" style="stroke:#181818;stroke-width:1.0;"/><polygon fill="#181818" points="384.01,395.57,393.507,392.961,387.8779,392.4015,388.4374,386.7724,384.01,395.57" style="stroke:#181818;stroke-width:1.0;"/><text fill="#000000" font-family="sans-serif" font-size="13" lengthAdjust="spacing" textLength="82" x="446" y="363.4084">gameObjects</text><text fill="#000000" font-family="sans-serif" font-size="13" lengthAdjust="spacing" textLength="6" x="384.7137" y="385.9941">*</text></g><!--link game.engine.Scene to game.engine.GameObject--><g id="link_game.engine.Scene_game.engine.GameObject"><path codeLine="118" d="M669.42,270.86 C627.88,302.9 579.41,338.16 533,366.84 C518.4,375.86 503.07,384.77 487.47,393.43 " fill="none" id="game.engine.Scene-to-game.engine.GameObject-1" style="stroke:#181818;stroke-width:1.0;"/><polygon fill="#181818" points="483.5,395.62,493.3133,394.7839,487.8802,393.2088,489.4553,387.7756,483.5,395.62" style="stroke:#181818;stroke-width:1.0;"/><text fill="#000000" font-family="sans-serif" font-size="13" lengthAdjust="spacing" textLength="113" x="555" y="363.4084">activeGameObject</text></g><!--link game.engine.GameObject to game.engine.Transform--><g id="link_game.engine.GameObject_game.engine.Transform"><path codeLine="119" d="M277,593.65 C277,616.51 277,640.84 277,663.62 " fill="none" id="game.engine.GameObject-to-game.engine.Transform" style="stroke:#181818;stroke-width:1.0;"/><polygon fill="#181818" points="277,668.48,281,659.48,277,663.48,273,659.48,277,668.48" style="stroke:#181818;stroke-width:1.0;"/><text fill="#000000" font-family="sans-serif" font-size="13" lengthAdjust="spacing" textLength="62" x="278" y="636.7984">transform</text></g><text fill="#888888" font-family="sans-serif" font-size="10" lengthAdjust="spacing" textLength="182" x="876.5" y="881.808">UMLDoclet 2.1.0, PlantUML 1.2022.14</text><!--SRC=[jLVTJzim47_dhx2O9eNrGnlQKuLuMBknQgrM3GPCY0StkQQ6rAvifz0n_lTTaZQVTf8nqOVs7FzyTxxVVQI44CBf2jIQka1ybFh0VSQ1F1qSaDt73QXIP2f21HEcD72GvEQciEulzIgulSLJ9FTvKffgvZwJZW_QEHeKTLYWgmWp4sf8Ws1EtNid4Dpl4a-4ym3slwXh8vXNf-9JgBNW9IsCw-ohXP9pLueW-0zNW7jV98RLgOTXVAuZo28GLDinlrfWHezjGDiMeEJorwsHZTunDPBKn_Jo8-HSY00eR-Pm91wua_1LFlDSpj8nPteAF3ntCSKmImjhSvPsmhL7DJYnvoQQEWoLL0YicBvYt1CFQ3CHBCQaAKGTt_XqRdnA6-c8V4sSgACC0n81Oy62SvUK-v10BGNJaI5tsaSjtWc4M3SNn1Npz3A2eMKxwYimVwdhOMglhB7eLQhG0AqmVY4fLmiXLqXwAbjuNml5D1DyG2x1rK8UBuhxogK1s3PJvSwHRMD_i17G9HPep9S1PMBG5UkuWwJg3TlfNcCS9x21uBF7qDw-RikFB56rvrXpKQ_ya3LNzJVOvePURjLovELEM83tiAsRKYr65LDePIP1AV3QDieum8LelsgBf7Eb9NNrplfGhDQ20zTeF9Kjjl6QyjL8Blcr3qXDBDv8dEaW0HlvZvtKDYThRa8zxmnV4xxFxx3id4mq4hzt-hb515nK9MbaT1XBvQw3znmRW_GlHJ9UdOLiGhTnZMGB2w4P8CvtGnkA4SsKTnE-6jtBmedkPGkBUpaUphLa5GSh-zsi3IR5MfhjeDCKTuQHGoSN11wn9NYvGZYDkcdrSMdMmafieAKsOvBbpkwbbrLMJIupUpxz7cF5F9QdTOMm95MZtX0BBnofoM7RPAJUNQZqJ8g8ITHYTXZ9ksJmCAN8TEnt8drSL62PfXfmxgP9gpdvq-iLNrfDWF8qj6AAkrcNxVLESrKmYF_f9N99LGHCuZOWRh5XP833TuSMRSg0pYEnQR4Dd5MjvqeqEfCMr83emYl6Be2eN6EpMGWH_VoSJaR23K2Ju_w7_likcGMKQtnAtcv0gfZSlm00]--></g></svg>