<?xml version="1.0" encoding="UTF-8" standalone="no"?><svg xmlns="http://www.w3.org/2000/svg" xmlns:xlink="http://www.w3.org/1999/xlink" contentStyleType="text/css" height="1188px" preserveAspectRatio="none" style="width:1624px;height:1188px;background:#FFFFFF;" version="1.1" viewBox="0 0 1624 1188" width="1624px" zoomAndPan="magnify"><defs/><g><!--cluster game.engine--><g id="cluster_game.engine"><path d="M8.5,6 L99.5,6 A3.75,3.75 0 0 1 102,8.5 L109,28.4883 L1614.5,28.4883 A2.5,2.5 0 0 1 1617,30.9883 L1617,1160.43 A2.5,2.5 0 0 1 1614.5,1162.93 L8.5,1162.93 A2.5,2.5 0 0 1 6,1160.43 L6,8.5 A2.5,2.5 0 0 1 8.5,6 " fill="none" style="stroke:#000000;stroke-width:1.5;"/><line style="stroke:#000000;stroke-width:1.5;" x1="6" x2="109" y1="28.4883" y2="28.4883"/><text fill="#000000" font-family="sans-serif" font-size="14" font-weight="bold" lengthAdjust="spacing" textLength="90" x="10" y="21.5352">game.engine</text></g><!--class game.engine.MouseListener--><a href="MouseListener.html" target="_top" title="MouseListener.html" xlink:actuate="onRequest" xlink:href="MouseListener.html" xlink:show="new" xlink:title="MouseListener.html" xlink:type="simple"><g id="elem_game.engine.MouseListener"><rect codeLine="3" fill="#F1F1F1" height="262.3477" id="game.engine.MouseListener" rx="2.5" ry="2.5" style="stroke:#181818;stroke-width:0.5;" width="358" x="1243" y="197.64"/><ellipse cx="1368.25" cy="213.64" fill="#ADD1B2" rx="11" ry="11" style="stroke:#181818;stroke-width:1.0;"/><path d="M1370.7231,219.7831 Q1370.1421,220.0819 1369.5029,220.2313 Q1368.8638,220.3807 1368.1582,220.3807 Q1365.6514,220.3807 1364.3315,218.7289 Q1363.0117,217.077 1363.0117,213.9559 Q1363.0117,210.8265 1364.3315,209.1747 Q1365.6514,207.5228 1368.1582,207.5228 Q1368.8638,207.5228 1369.5112,207.6722 Q1370.1587,207.8216 1370.7231,208.1205 L1370.7231,210.8431 Q1370.0923,210.2621 1369.4988,209.9923 Q1368.9053,209.7225 1368.2744,209.7225 Q1366.9297,209.7225 1366.2449,210.7892 Q1365.5601,211.8558 1365.5601,213.9559 Q1365.5601,216.0477 1366.2449,217.1144 Q1366.9297,218.181 1368.2744,218.181 Q1368.9053,218.181 1369.4988,217.9112 Q1370.0923,217.6415 1370.7231,217.0604 Z " fill="#000000"/><text fill="#000000" font-family="sans-serif" font-size="14" lengthAdjust="spacing" textLength="99" x="1388.75" y="218.931">MouseListener</text><line style="stroke:#181818;stroke-width:0.5;" x1="1244" x2="1600" y1="229.64" y2="229.64"/><line style="stroke:#181818;stroke-width:0.5;" x1="1244" x2="1600" y1="237.64" y2="237.64"/><ellipse cx="1254" cy="251.3841" fill="#84BE84" rx="3" ry="3" style="stroke:#038048;stroke-width:1.0;"/><text fill="#000000" font-family="sans-serif" font-size="14" lengthAdjust="spacing" text-decoration="underline" textLength="139" x="1263" y="255.1752">get(): MouseListener</text><ellipse cx="1254" cy="267.8724" fill="#84BE84" rx="3" ry="3" style="stroke:#038048;stroke-width:1.0;"/><text fill="#000000" font-family="sans-serif" font-size="14" lengthAdjust="spacing" text-decoration="underline" textLength="318" x="1263" y="271.6634">mousePosCallback(long, double, double): void</text><ellipse cx="1254" cy="284.3607" fill="#84BE84" rx="3" ry="3" style="stroke:#038048;stroke-width:1.0;"/><text fill="#000000" font-family="sans-serif" font-size="14" lengthAdjust="spacing" text-decoration="underline" textLength="305" x="1263" y="288.1517">mouseButtonCallback(long, int, int, int): void</text><ellipse cx="1254" cy="300.849" fill="#84BE84" rx="3" ry="3" style="stroke:#038048;stroke-width:1.0;"/><text fill="#000000" font-family="sans-serif" font-size="14" lengthAdjust="spacing" text-decoration="underline" textLength="332" x="1263" y="304.64">mouseScrollCallback(long, double, double): void</text><ellipse cx="1254" cy="317.3373" fill="#84BE84" rx="3" ry="3" style="stroke:#038048;stroke-width:1.0;"/><text fill="#000000" font-family="sans-serif" font-size="14" lengthAdjust="spacing" text-decoration="underline" textLength="116" x="1263" y="321.1283">endFrame(): void</text><ellipse cx="1254" cy="333.8255" fill="#84BE84" rx="3" ry="3" style="stroke:#038048;stroke-width:1.0;"/><text fill="#000000" font-family="sans-serif" font-size="14" lengthAdjust="spacing" text-decoration="underline" textLength="80" x="1263" y="337.6166">getX(): float</text><ellipse cx="1254" cy="350.3138" fill="#84BE84" rx="3" ry="3" style="stroke:#038048;stroke-width:1.0;"/><text fill="#000000" font-family="sans-serif" font-size="14" lengthAdjust="spacing" text-decoration="underline" textLength="80" x="1263" y="354.1048">getY(): float</text><ellipse cx="1254" cy="366.8021" fill="#84BE84" rx="3" ry="3" style="stroke:#038048;stroke-width:1.0;"/><text fill="#000000" font-family="sans-serif" font-size="14" lengthAdjust="spacing" text-decoration="underline" textLength="90" x="1263" y="370.5931">getDx(): float</text><ellipse cx="1254" cy="383.2904" fill="#84BE84" rx="3" ry="3" style="stroke:#038048;stroke-width:1.0;"/><text fill="#000000" font-family="sans-serif" font-size="14" lengthAdjust="spacing" text-decoration="underline" textLength="88" x="1263" y="387.0814">getDy(): float</text><ellipse cx="1254" cy="399.7787" fill="#84BE84" rx="3" ry="3" style="stroke:#038048;stroke-width:1.0;"/><text fill="#000000" font-family="sans-serif" font-size="14" lengthAdjust="spacing" text-decoration="underline" textLength="118" x="1263" y="403.5697">getScrollX(): float</text><ellipse cx="1254" cy="416.267" fill="#84BE84" rx="3" ry="3" style="stroke:#038048;stroke-width:1.0;"/><text fill="#000000" font-family="sans-serif" font-size="14" lengthAdjust="spacing" text-decoration="underline" textLength="118" x="1263" y="420.058">getScrollY(): float</text><ellipse cx="1254" cy="432.7552" fill="#84BE84" rx="3" ry="3" style="stroke:#038048;stroke-width:1.0;"/><text fill="#000000" font-family="sans-serif" font-size="14" lengthAdjust="spacing" text-decoration="underline" textLength="149" x="1263" y="436.5463">isDragging(): boolean</text><ellipse cx="1254" cy="449.2435" fill="#84BE84" rx="3" ry="3" style="stroke:#038048;stroke-width:1.0;"/><text fill="#000000" font-family="sans-serif" font-size="14" lengthAdjust="spacing" text-decoration="underline" textLength="222" x="1263" y="453.0345">mouseButtonDown(int): boolean</text></g></a><!--class game.engine.InitMenuScene--><a href="InitMenuScene.html" target="_top" title="InitMenuScene.html" xlink:actuate="onRequest" xlink:href="InitMenuScene.html" xlink:show="new" xlink:title="InitMenuScene.html" xlink:type="simple"><g id="elem_game.engine.InitMenuScene"><rect codeLine="19" fill="#F1F1F1" height="80.9766" id="game.engine.InitMenuScene" rx="2.5" ry="2.5" style="stroke:#181818;stroke-width:0.5;" width="152" x="840" y="751.34"/><ellipse cx="864" cy="767.34" fill="#ADD1B2" rx="11" ry="11" style="stroke:#181818;stroke-width:1.0;"/><path d="M866.4731,773.4831 Q865.8921,773.7819 865.2529,773.9313 Q864.6138,774.0807 863.9082,774.0807 Q861.4014,774.0807 860.0815,772.4289 Q858.7617,770.777 858.7617,767.6559 Q858.7617,764.5265 860.0815,762.8747 Q861.4014,761.2228 863.9082,761.2228 Q864.6138,761.2228 865.2612,761.3722 Q865.9087,761.5216 866.4731,761.8205 L866.4731,764.5431 Q865.8423,763.9621 865.2488,763.6923 Q864.6553,763.4225 864.0244,763.4225 Q862.6797,763.4225 861.9949,764.4892 Q861.3101,765.5558 861.3101,767.6559 Q861.3101,769.7477 861.9949,770.8144 Q862.6797,771.881 864.0244,771.881 Q864.6553,771.881 865.2488,771.6112 Q865.8423,771.3415 866.4731,770.7604 Z " fill="#000000"/><text fill="#000000" font-family="sans-serif" font-size="14" lengthAdjust="spacing" textLength="100" x="880" y="772.631">InitMenuScene</text><line style="stroke:#181818;stroke-width:0.5;" x1="841" x2="991" y1="783.34" y2="783.34"/><line style="stroke:#181818;stroke-width:0.5;" x1="841" x2="991" y1="791.34" y2="791.34"/><ellipse cx="851" cy="805.0841" fill="#84BE84" rx="3" ry="3" style="stroke:#038048;stroke-width:1.0;"/><text fill="#000000" font-family="sans-serif" font-size="14" lengthAdjust="spacing" textLength="126" x="860" y="808.8752">update(float): void</text><ellipse cx="851" cy="821.5724" fill="#84BE84" rx="3" ry="3" style="stroke:#038048;stroke-width:1.0;"/><text fill="#000000" font-family="sans-serif" font-size="14" lengthAdjust="spacing" textLength="69" x="860" y="825.3634">init(): void</text></g></a><!--class game.engine.Window--><a href="Window.html" target="_top" title="Window.html" xlink:actuate="onRequest" xlink:href="Window.html" xlink:show="new" xlink:title="Window.html" xlink:type="simple"><g id="elem_game.engine.Window"><rect codeLine="24" fill="#F1F1F1" height="575.625" id="game.engine.Window" rx="2.5" ry="2.5" style="stroke:#181818;stroke-width:0.5;" width="235" x="973.5" y="41"/><ellipse cx="1059.75" cy="57" fill="#ADD1B2" rx="11" ry="11" style="stroke:#181818;stroke-width:1.0;"/><path d="M1062.2231,63.1431 Q1061.6421,63.4419 1061.0029,63.5913 Q1060.3638,63.7407 1059.6582,63.7407 Q1057.1514,63.7407 1055.8315,62.0889 Q1054.5117,60.437 1054.5117,57.3159 Q1054.5117,54.1865 1055.8315,52.5347 Q1057.1514,50.8828 1059.6582,50.8828 Q1060.3638,50.8828 1061.0112,51.0322 Q1061.6587,51.1816 1062.2231,51.4805 L1062.2231,54.2031 Q1061.5923,53.6221 1060.9988,53.3523 Q1060.4053,53.0825 1059.7744,53.0825 Q1058.4297,53.0825 1057.7449,54.1492 Q1057.0601,55.2158 1057.0601,57.3159 Q1057.0601,59.4077 1057.7449,60.4744 Q1058.4297,61.541 1059.7744,61.541 Q1060.4053,61.541 1060.9988,61.2712 Q1061.5923,61.0015 1062.2231,60.4204 Z " fill="#000000"/><text fill="#000000" font-family="sans-serif" font-size="14" lengthAdjust="spacing" textLength="54" x="1080.25" y="62.291">Window</text><line style="stroke:#181818;stroke-width:0.5;" x1="974.5" x2="1207.5" y1="73" y2="73"/><ellipse cx="984.5" cy="86.7441" fill="none" rx="3" ry="3" style="stroke:#038048;stroke-width:1.0;"/><text fill="#000000" font-family="sans-serif" font-size="14" lengthAdjust="spacing" textLength="45" x="993.5" y="90.5352">r: float</text><ellipse cx="984.5" cy="103.2324" fill="none" rx="3" ry="3" style="stroke:#038048;stroke-width:1.0;"/><text fill="#000000" font-family="sans-serif" font-size="14" lengthAdjust="spacing" textLength="48" x="993.5" y="107.0234">g: float</text><ellipse cx="984.5" cy="119.7207" fill="none" rx="3" ry="3" style="stroke:#038048;stroke-width:1.0;"/><text fill="#000000" font-family="sans-serif" font-size="14" lengthAdjust="spacing" textLength="48" x="993.5" y="123.5117">b: float</text><ellipse cx="984.5" cy="136.209" fill="none" rx="3" ry="3" style="stroke:#038048;stroke-width:1.0;"/><text fill="#000000" font-family="sans-serif" font-size="14" lengthAdjust="spacing" textLength="47" x="993.5" y="140">a: float</text><line style="stroke:#181818;stroke-width:0.5;" x1="974.5" x2="1207.5" y1="146.9531" y2="146.9531"/><ellipse cx="984.5" cy="160.6973" fill="#84BE84" rx="3" ry="3" style="stroke:#038048;stroke-width:1.0;"/><text fill="#000000" font-family="sans-serif" font-size="14" lengthAdjust="spacing" text-decoration="underline" textLength="94" x="993.5" y="164.4883">get(): Window</text><ellipse cx="984.5" cy="177.1855" fill="#84BE84" rx="3" ry="3" style="stroke:#038048;stroke-width:1.0;"/><text fill="#000000" font-family="sans-serif" font-size="14" lengthAdjust="spacing" text-decoration="underline" textLength="120" x="993.5" y="180.9766">getScene(): Scene</text><ellipse cx="984.5" cy="193.6738" fill="#84BE84" rx="3" ry="3" style="stroke:#038048;stroke-width:1.0;"/><text fill="#000000" font-family="sans-serif" font-size="14" lengthAdjust="spacing" text-decoration="underline" textLength="155" x="993.5" y="197.4648">changeScene(int): void</text><ellipse cx="984.5" cy="210.1621" fill="#84BE84" rx="3" ry="3" style="stroke:#038048;stroke-width:1.0;"/><text fill="#000000" font-family="sans-serif" font-size="14" lengthAdjust="spacing" textLength="71" x="993.5" y="213.9531">run(): void</text><ellipse cx="984.5" cy="226.6504" fill="#84BE84" rx="3" ry="3" style="stroke:#038048;stroke-width:1.0;"/><text fill="#000000" font-family="sans-serif" font-size="14" lengthAdjust="spacing" textLength="69" x="993.5" y="230.4414">init(): void</text><ellipse cx="984.5" cy="243.1387" fill="#84BE84" rx="3" ry="3" style="stroke:#038048;stroke-width:1.0;"/><text fill="#000000" font-family="sans-serif" font-size="14" lengthAdjust="spacing" textLength="78" x="993.5" y="246.9297">loop(): void</text><ellipse cx="984.5" cy="259.627" fill="#84BE84" rx="3" ry="3" style="stroke:#038048;stroke-width:1.0;"/><text fill="#000000" font-family="sans-serif" font-size="14" lengthAdjust="spacing" text-decoration="underline" textLength="97" x="993.5" y="263.418">getWidth(): int</text><ellipse cx="984.5" cy="276.1152" fill="#84BE84" rx="3" ry="3" style="stroke:#038048;stroke-width:1.0;"/><text fill="#000000" font-family="sans-serif" font-size="14" lengthAdjust="spacing" text-decoration="underline" textLength="103" x="993.5" y="279.9063">getHeight(): int</text><ellipse cx="984.5" cy="292.6035" fill="#84BE84" rx="3" ry="3" style="stroke:#038048;stroke-width:1.0;"/><text fill="#000000" font-family="sans-serif" font-size="14" lengthAdjust="spacing" text-decoration="underline" textLength="124" x="993.5" y="296.3945">setWidth(int): void</text><ellipse cx="984.5" cy="309.0918" fill="#84BE84" rx="3" ry="3" style="stroke:#038048;stroke-width:1.0;"/><text fill="#000000" font-family="sans-serif" font-size="14" lengthAdjust="spacing" text-decoration="underline" textLength="130" x="993.5" y="312.8828">setHeight(int): void</text><ellipse cx="984.5" cy="325.5801" fill="#84BE84" rx="3" ry="3" style="stroke:#038048;stroke-width:1.0;"/><text fill="#000000" font-family="sans-serif" font-size="14" lengthAdjust="spacing" textLength="111" x="993.5" y="329.3711">getTitle(): String</text><ellipse cx="984.5" cy="342.0684" fill="#84BE84" rx="3" ry="3" style="stroke:#038048;stroke-width:1.0;"/><text fill="#000000" font-family="sans-serif" font-size="14" lengthAdjust="spacing" textLength="138" x="993.5" y="345.8594">setTitle(String): void</text><ellipse cx="984.5" cy="358.5566" fill="#84BE84" rx="3" ry="3" style="stroke:#038048;stroke-width:1.0;"/><text fill="#000000" font-family="sans-serif" font-size="14" lengthAdjust="spacing" textLength="155" x="993.5" y="362.3477">getGlfwWindow(): long</text><ellipse cx="984.5" cy="375.0449" fill="#84BE84" rx="3" ry="3" style="stroke:#038048;stroke-width:1.0;"/><text fill="#000000" font-family="sans-serif" font-size="14" lengthAdjust="spacing" textLength="182" x="993.5" y="378.8359">setGlfwWindow(long): void</text><ellipse cx="984.5" cy="391.5332" fill="#84BE84" rx="3" ry="3" style="stroke:#038048;stroke-width:1.0;"/><text fill="#000000" font-family="sans-serif" font-size="14" lengthAdjust="spacing" text-decoration="underline" textLength="148" x="993.5" y="395.3242">getWindow(): Window</text><ellipse cx="984.5" cy="408.0215" fill="#84BE84" rx="3" ry="3" style="stroke:#038048;stroke-width:1.0;"/><text fill="#000000" font-family="sans-serif" font-size="14" lengthAdjust="spacing" text-decoration="underline" textLength="175" x="993.5" y="411.8125">setWindow(Window): void</text><ellipse cx="984.5" cy="424.5098" fill="#84BE84" rx="3" ry="3" style="stroke:#038048;stroke-width:1.0;"/><text fill="#000000" font-family="sans-serif" font-size="14" lengthAdjust="spacing" text-decoration="underline" textLength="168" x="993.5" y="428.3008">getCurrenScene(): Scene</text><ellipse cx="984.5" cy="440.998" fill="#84BE84" rx="3" ry="3" style="stroke:#038048;stroke-width:1.0;"/><text fill="#000000" font-family="sans-serif" font-size="14" lengthAdjust="spacing" text-decoration="underline" textLength="195" x="993.5" y="444.7891">setCurrenScene(Scene): void</text><ellipse cx="984.5" cy="457.4863" fill="#84BE84" rx="3" ry="3" style="stroke:#038048;stroke-width:1.0;"/><text fill="#000000" font-family="sans-serif" font-size="14" lengthAdjust="spacing" textLength="80" x="993.5" y="461.2773">getR(): float</text><ellipse cx="984.5" cy="473.9746" fill="#84BE84" rx="3" ry="3" style="stroke:#038048;stroke-width:1.0;"/><text fill="#000000" font-family="sans-serif" font-size="14" lengthAdjust="spacing" textLength="107" x="993.5" y="477.7656">setR(float): void</text><ellipse cx="984.5" cy="490.4629" fill="#84BE84" rx="3" ry="3" style="stroke:#038048;stroke-width:1.0;"/><text fill="#000000" font-family="sans-serif" font-size="14" lengthAdjust="spacing" textLength="81" x="993.5" y="494.2539">getG(): float</text><ellipse cx="984.5" cy="506.9512" fill="#84BE84" rx="3" ry="3" style="stroke:#038048;stroke-width:1.0;"/><text fill="#000000" font-family="sans-serif" font-size="14" lengthAdjust="spacing" textLength="108" x="993.5" y="510.7422">setG(float): void</text><ellipse cx="984.5" cy="523.4395" fill="#84BE84" rx="3" ry="3" style="stroke:#038048;stroke-width:1.0;"/><text fill="#000000" font-family="sans-serif" font-size="14" lengthAdjust="spacing" textLength="79" x="993.5" y="527.2305">getB(): float</text><ellipse cx="984.5" cy="539.9277" fill="#84BE84" rx="3" ry="3" style="stroke:#038048;stroke-width:1.0;"/><text fill="#000000" font-family="sans-serif" font-size="14" lengthAdjust="spacing" textLength="106" x="993.5" y="543.7188">setB(float): void</text><ellipse cx="984.5" cy="556.416" fill="#84BE84" rx="3" ry="3" style="stroke:#038048;stroke-width:1.0;"/><text fill="#000000" font-family="sans-serif" font-size="14" lengthAdjust="spacing" textLength="81" x="993.5" y="560.207">getA(): float</text><ellipse cx="984.5" cy="572.9043" fill="#84BE84" rx="3" ry="3" style="stroke:#038048;stroke-width:1.0;"/><text fill="#000000" font-family="sans-serif" font-size="14" lengthAdjust="spacing" textLength="108" x="993.5" y="576.6953">setA(float): void</text><ellipse cx="984.5" cy="589.3926" fill="#84BE84" rx="3" ry="3" style="stroke:#038048;stroke-width:1.0;"/><text fill="#000000" font-family="sans-serif" font-size="14" lengthAdjust="spacing" textLength="171" x="993.5" y="593.1836">isFadeToBlack(): boolean</text><ellipse cx="984.5" cy="605.8809" fill="#84BE84" rx="3" ry="3" style="stroke:#038048;stroke-width:1.0;"/><text fill="#000000" font-family="sans-serif" font-size="14" lengthAdjust="spacing" textLength="209" x="993.5" y="609.6719">setFadeToBlack(boolean): void</text></g></a><!--class game.engine.Transform--><a href="Transform.html" target="_top" title="Transform.html" xlink:actuate="onRequest" xlink:href="Transform.html" xlink:show="new" xlink:title="Transform.html" xlink:type="simple"><g id="elem_game.engine.Transform"><rect codeLine="59" fill="#F1F1F1" height="179.9063" id="game.engine.Transform" rx="2.5" ry="2.5" style="stroke:#181818;stroke-width:0.5;" width="232" x="161" y="967.02"/><ellipse cx="236.75" cy="983.02" fill="#ADD1B2" rx="11" ry="11" style="stroke:#181818;stroke-width:1.0;"/><path d="M239.2231,989.1631 Q238.6421,989.4619 238.0029,989.6113 Q237.3638,989.7607 236.6582,989.7607 Q234.1514,989.7607 232.8315,988.1089 Q231.5117,986.457 231.5117,983.3359 Q231.5117,980.2065 232.8315,978.5547 Q234.1514,976.9028 236.6582,976.9028 Q237.3638,976.9028 238.0112,977.0522 Q238.6587,977.2016 239.2231,977.5005 L239.2231,980.2231 Q238.5923,979.6421 237.9988,979.3723 Q237.4053,979.1025 236.7744,979.1025 Q235.4297,979.1025 234.7449,980.1692 Q234.0601,981.2358 234.0601,983.3359 Q234.0601,985.4277 234.7449,986.4944 Q235.4297,987.561 236.7744,987.561 Q237.4053,987.561 237.9988,987.2912 Q238.5923,987.0215 239.2231,986.4404 Z " fill="#000000"/><text fill="#000000" font-family="sans-serif" font-size="14" lengthAdjust="spacing" textLength="72" x="257.25" y="988.311">Transform</text><line style="stroke:#181818;stroke-width:0.5;" x1="162" x2="392" y1="999.02" y2="999.02"/><ellipse cx="172" cy="1012.7641" fill="none" rx="3" ry="3" style="stroke:#038048;stroke-width:1.0;"/><text fill="#000000" font-family="sans-serif" font-size="14" lengthAdjust="spacing" textLength="122" x="181" y="1016.5552">position: Vector2f</text><ellipse cx="172" cy="1029.2524" fill="none" rx="3" ry="3" style="stroke:#038048;stroke-width:1.0;"/><text fill="#000000" font-family="sans-serif" font-size="14" lengthAdjust="spacing" textLength="100" x="181" y="1033.0434">scale: Vector2f</text><line style="stroke:#181818;stroke-width:0.5;" x1="162" x2="392" y1="1039.9966" y2="1039.9966"/><ellipse cx="172" cy="1053.7407" fill="#84BE84" rx="3" ry="3" style="stroke:#038048;stroke-width:1.0;"/><text fill="#000000" font-family="sans-serif" font-size="14" lengthAdjust="spacing" textLength="82" x="181" y="1057.5317">Transform()</text><ellipse cx="172" cy="1070.229" fill="#84BE84" rx="3" ry="3" style="stroke:#038048;stroke-width:1.0;"/><text fill="#000000" font-family="sans-serif" font-size="14" lengthAdjust="spacing" textLength="140" x="181" y="1074.02">Transform(Vector2f)</text><ellipse cx="172" cy="1086.7173" fill="#84BE84" rx="3" ry="3" style="stroke:#038048;stroke-width:1.0;"/><text fill="#000000" font-family="sans-serif" font-size="14" lengthAdjust="spacing" textLength="206" x="181" y="1090.5083">Transform(Vector2f, Vector2f)</text><ellipse cx="172" cy="1103.2055" fill="#84BE84" rx="3" ry="3" style="stroke:#038048;stroke-width:1.0;"/><text fill="#000000" font-family="sans-serif" font-size="14" lengthAdjust="spacing" textLength="193" x="181" y="1106.9966">init(Vector2f, Vector2f): void</text><ellipse cx="172" cy="1119.6938" fill="#84BE84" rx="3" ry="3" style="stroke:#038048;stroke-width:1.0;"/><text fill="#000000" font-family="sans-serif" font-size="14" lengthAdjust="spacing" textLength="122" x="181" y="1123.4848">copy(): Transform</text><ellipse cx="172" cy="1136.1821" fill="#84BE84" rx="3" ry="3" style="stroke:#038048;stroke-width:1.0;"/><text fill="#000000" font-family="sans-serif" font-size="14" lengthAdjust="spacing" textLength="151" x="181" y="1139.9731">copy(Transform): void</text></g></a><!--class game.engine.LevelEditorScene--><a href="LevelEditorScene.html" target="_top" title="LevelEditorScene.html" xlink:actuate="onRequest" xlink:href="LevelEditorScene.html" xlink:show="new" xlink:title="LevelEditorScene.html" xlink:type="simple"><g id="elem_game.engine.LevelEditorScene"><rect codeLine="70" fill="#F1F1F1" height="97.4648" id="game.engine.LevelEditorScene" rx="2.5" ry="2.5" style="stroke:#181818;stroke-width:0.5;" width="152" x="1027" y="743.09"/><ellipse cx="1044.25" cy="759.09" fill="#ADD1B2" rx="11" ry="11" style="stroke:#181818;stroke-width:1.0;"/><path d="M1046.7231,765.2331 Q1046.1421,765.5319 1045.5029,765.6813 Q1044.8638,765.8307 1044.1582,765.8307 Q1041.6514,765.8307 1040.3315,764.1789 Q1039.0117,762.527 1039.0117,759.4059 Q1039.0117,756.2765 1040.3315,754.6247 Q1041.6514,752.9728 1044.1582,752.9728 Q1044.8638,752.9728 1045.5112,753.1222 Q1046.1587,753.2716 1046.7231,753.5705 L1046.7231,756.2931 Q1046.0923,755.7121 1045.4988,755.4423 Q1044.9053,755.1725 1044.2744,755.1725 Q1042.9297,755.1725 1042.2449,756.2392 Q1041.5601,757.3058 1041.5601,759.4059 Q1041.5601,761.4977 1042.2449,762.5644 Q1042.9297,763.631 1044.2744,763.631 Q1044.9053,763.631 1045.4988,763.3612 Q1046.0923,763.0915 1046.7231,762.5104 Z " fill="#000000"/><text fill="#000000" font-family="sans-serif" font-size="14" lengthAdjust="spacing" textLength="115" x="1058.75" y="764.381">LevelEditorScene</text><line style="stroke:#181818;stroke-width:0.5;" x1="1028" x2="1178" y1="775.09" y2="775.09"/><line style="stroke:#181818;stroke-width:0.5;" x1="1028" x2="1178" y1="783.09" y2="783.09"/><ellipse cx="1038" cy="796.8341" fill="#84BE84" rx="3" ry="3" style="stroke:#038048;stroke-width:1.0;"/><text fill="#000000" font-family="sans-serif" font-size="14" lengthAdjust="spacing" textLength="69" x="1047" y="800.6252">init(): void</text><ellipse cx="1038" cy="813.3224" fill="#84BE84" rx="3" ry="3" style="stroke:#038048;stroke-width:1.0;"/><text fill="#000000" font-family="sans-serif" font-size="14" lengthAdjust="spacing" textLength="126" x="1047" y="817.1134">update(float): void</text><ellipse cx="1038" cy="829.8107" fill="#84BE84" rx="3" ry="3" style="stroke:#038048;stroke-width:1.0;"/><text fill="#000000" font-family="sans-serif" font-size="14" lengthAdjust="spacing" textLength="86" x="1047" y="833.6017">imgui(): void</text></g></a><!--class game.engine.KeyListener--><a href="KeyListener.html" target="_top" title="KeyListener.html" xlink:actuate="onRequest" xlink:href="KeyListener.html" xlink:show="new" xlink:title="KeyListener.html" xlink:type="simple"><g id="elem_game.engine.KeyListener"><rect codeLine="76" fill="#F1F1F1" height="97.4648" id="game.engine.KeyListener" rx="2.5" ry="2.5" style="stroke:#181818;stroke-width:0.5;" width="289" x="649.5" y="280.08"/><ellipse cx="750.75" cy="296.08" fill="#ADD1B2" rx="11" ry="11" style="stroke:#181818;stroke-width:1.0;"/><path d="M753.2231,302.2231 Q752.6421,302.5219 752.0029,302.6713 Q751.3638,302.8207 750.6582,302.8207 Q748.1514,302.8207 746.8315,301.1689 Q745.5117,299.517 745.5117,296.3959 Q745.5117,293.2665 746.8315,291.6147 Q748.1514,289.9628 750.6582,289.9628 Q751.3638,289.9628 752.0112,290.1122 Q752.6587,290.2616 753.2231,290.5605 L753.2231,293.2831 Q752.5923,292.7021 751.9988,292.4323 Q751.4053,292.1625 750.7744,292.1625 Q749.4297,292.1625 748.7449,293.2292 Q748.0601,294.2958 748.0601,296.3959 Q748.0601,298.4877 748.7449,299.5544 Q749.4297,300.621 750.7744,300.621 Q751.4053,300.621 751.9988,300.3512 Q752.5923,300.0815 753.2231,299.5004 Z " fill="#000000"/><text fill="#000000" font-family="sans-serif" font-size="14" lengthAdjust="spacing" textLength="78" x="771.25" y="301.371">KeyListener</text><line style="stroke:#181818;stroke-width:0.5;" x1="650.5" x2="937.5" y1="312.08" y2="312.08"/><line style="stroke:#181818;stroke-width:0.5;" x1="650.5" x2="937.5" y1="320.08" y2="320.08"/><ellipse cx="660.5" cy="333.8241" fill="#84BE84" rx="3" ry="3" style="stroke:#038048;stroke-width:1.0;"/><text fill="#000000" font-family="sans-serif" font-size="14" lengthAdjust="spacing" text-decoration="underline" textLength="118" x="669.5" y="337.6152">get(): KeyListener</text><ellipse cx="660.5" cy="350.3124" fill="#84BE84" rx="3" ry="3" style="stroke:#038048;stroke-width:1.0;"/><text fill="#000000" font-family="sans-serif" font-size="14" lengthAdjust="spacing" text-decoration="underline" textLength="263" x="669.5" y="354.1034">keyCallback(long, int, int, int, int): void</text><ellipse cx="660.5" cy="366.8007" fill="#84BE84" rx="3" ry="3" style="stroke:#038048;stroke-width:1.0;"/><text fill="#000000" font-family="sans-serif" font-size="14" lengthAdjust="spacing" text-decoration="underline" textLength="180" x="669.5" y="370.5917">isKeyPressed(int): boolean</text></g></a><!--class game.engine.LevelScene--><a href="LevelScene.html" target="_top" title="LevelScene.html" xlink:actuate="onRequest" xlink:href="LevelScene.html" xlink:show="new" xlink:title="LevelScene.html" xlink:type="simple"><g id="elem_game.engine.LevelScene"><rect codeLine="82" fill="#F1F1F1" height="80.9766" id="game.engine.LevelScene" rx="2.5" ry="2.5" style="stroke:#181818;stroke-width:0.5;" width="152" x="1214" y="751.34"/><ellipse cx="1249.7" cy="767.34" fill="#ADD1B2" rx="11" ry="11" style="stroke:#181818;stroke-width:1.0;"/><path d="M1252.1731,773.4831 Q1251.5921,773.7819 1250.9529,773.9313 Q1250.3138,774.0807 1249.6082,774.0807 Q1247.1014,774.0807 1245.7815,772.4289 Q1244.4617,770.777 1244.4617,767.6559 Q1244.4617,764.5265 1245.7815,762.8747 Q1247.1014,761.2228 1249.6082,761.2228 Q1250.3138,761.2228 1250.9612,761.3722 Q1251.6087,761.5216 1252.1731,761.8205 L1252.1731,764.5431 Q1251.5423,763.9621 1250.9488,763.6923 Q1250.3553,763.4225 1249.7244,763.4225 Q1248.3797,763.4225 1247.6949,764.4892 Q1247.0101,765.5558 1247.0101,767.6559 Q1247.0101,769.7477 1247.6949,770.8144 Q1248.3797,771.881 1249.7244,771.881 Q1250.3553,771.881 1250.9488,771.6112 Q1251.5423,771.3415 1252.1731,770.7604 Z " fill="#000000"/><text fill="#000000" font-family="sans-serif" font-size="14" lengthAdjust="spacing" textLength="74" x="1268.3" y="772.631">LevelScene</text><line style="stroke:#181818;stroke-width:0.5;" x1="1215" x2="1365" y1="783.34" y2="783.34"/><line style="stroke:#181818;stroke-width:0.5;" x1="1215" x2="1365" y1="791.34" y2="791.34"/><ellipse cx="1225" cy="805.0841" fill="#84BE84" rx="3" ry="3" style="stroke:#038048;stroke-width:1.0;"/><text fill="#000000" font-family="sans-serif" font-size="14" lengthAdjust="spacing" textLength="126" x="1234" y="808.8752">update(float): void</text><ellipse cx="1225" cy="821.5724" fill="#84BE84" rx="3" ry="3" style="stroke:#038048;stroke-width:1.0;"/><text fill="#000000" font-family="sans-serif" font-size="14" lengthAdjust="spacing" textLength="69" x="1234" y="825.3634">init(): void</text></g></a><!--class game.engine.Component--><a href="Component.html" target="_top" title="Component.html" xlink:actuate="onRequest" xlink:href="Component.html" xlink:show="new" xlink:title="Component.html" xlink:type="simple"><g id="elem_game.engine.Component"><rect codeLine="87" fill="#F1F1F1" height="97.4648" id="game.engine.Component" rx="2.5" ry="2.5" style="stroke:#181818;stroke-width:0.5;" width="152" x="162" y="280.08"/><ellipse cx="194.55" cy="296.08" fill="#A9DCDF" rx="11" ry="11" style="stroke:#181818;stroke-width:1.0;"/><path d="M194.4133,291.4281 L193.2595,296.4999 L195.5754,296.4999 Z M192.9191,289.1869 L195.9157,289.1869 L199.2609,301.58 L196.8122,301.58 L196.0485,298.517 L192.7697,298.517 L192.0227,301.58 L189.5739,301.58 Z " fill="#000000"/><text fill="#000000" font-family="sans-serif" font-size="14" font-style="italic" lengthAdjust="spacing" textLength="81" x="212.45" y="301.371">Component</text><line style="stroke:#181818;stroke-width:0.5;" x1="163" x2="313" y1="312.08" y2="312.08"/><line style="stroke:#181818;stroke-width:0.5;" x1="163" x2="313" y1="320.08" y2="320.08"/><ellipse cx="173" cy="333.8241" fill="#84BE84" rx="3" ry="3" style="stroke:#038048;stroke-width:1.0;"/><text fill="#000000" font-family="sans-serif" font-size="14" lengthAdjust="spacing" textLength="78" x="182" y="337.6152">start(): void</text><ellipse cx="173" cy="350.3124" fill="#84BE84" rx="3" ry="3" style="stroke:#038048;stroke-width:1.0;"/><text fill="#000000" font-family="sans-serif" font-size="14" lengthAdjust="spacing" textLength="126" x="182" y="354.1034">update(float): void</text><ellipse cx="173" cy="366.8007" fill="#84BE84" rx="3" ry="3" style="stroke:#038048;stroke-width:1.0;"/><text fill="#000000" font-family="sans-serif" font-size="14" lengthAdjust="spacing" textLength="86" x="182" y="370.5917">imgui(): void</text></g></a><!--class game.engine.Scene--><a href="Scene.html" target="_top" title="Scene.html" xlink:actuate="onRequest" xlink:href="Scene.html" xlink:show="new" xlink:title="Scene.html" xlink:type="simple"><g id="elem_game.engine.Scene"><rect codeLine="93" fill="#F1F1F1" height="179.9063" id="game.engine.Scene" rx="2.5" ry="2.5" style="stroke:#181818;stroke-width:0.5;" width="265" x="349.5" y="238.86"/><ellipse cx="457.75" cy="254.86" fill="#A9DCDF" rx="11" ry="11" style="stroke:#181818;stroke-width:1.0;"/><path d="M457.6133,250.2081 L456.4595,255.2799 L458.7754,255.2799 Z M456.1191,247.9669 L459.1157,247.9669 L462.4609,260.36 L460.0122,260.36 L459.2485,257.297 L455.9697,257.297 L455.2227,260.36 L452.7739,260.36 Z " fill="#000000"/><text fill="#000000" font-family="sans-serif" font-size="14" font-style="italic" lengthAdjust="spacing" textLength="40" x="478.25" y="260.151">Scene</text><line style="stroke:#181818;stroke-width:0.5;" x1="350.5" x2="613.5" y1="270.86" y2="270.86"/><polygon fill="none" points="360.5,279.6041,364.5,283.6041,360.5,287.6041,356.5,283.6041" style="stroke:#B38D22;stroke-width:1.0;"/><text fill="#000000" font-family="sans-serif" font-size="14" lengthAdjust="spacing" textLength="131" x="369.5" y="288.3952">renderer: Renderer</text><line style="stroke:#181818;stroke-width:0.5;" x1="350.5" x2="613.5" y1="295.3483" y2="295.3483"/><ellipse cx="360.5" cy="309.0924" fill="#84BE84" rx="3" ry="3" style="stroke:#038048;stroke-width:1.0;"/><text fill="#000000" font-family="sans-serif" font-size="14" lengthAdjust="spacing" textLength="69" x="369.5" y="312.8834">init(): void</text><ellipse cx="360.5" cy="325.5807" fill="#84BE84" rx="3" ry="3" style="stroke:#038048;stroke-width:1.0;"/><text fill="#000000" font-family="sans-serif" font-size="14" lengthAdjust="spacing" textLength="78" x="369.5" y="329.3717">start(): void</text><ellipse cx="360.5" cy="342.069" fill="#84BE84" rx="3" ry="3" style="stroke:#038048;stroke-width:1.0;"/><text fill="#000000" font-family="sans-serif" font-size="14" lengthAdjust="spacing" textLength="239" x="369.5" y="345.86">addGameObject(GameObject): void</text><ellipse cx="360.5" cy="358.5573" fill="#84BE84" rx="3" ry="3" style="stroke:#038048;stroke-width:1.0;"/><text fill="#000000" font-family="sans-serif" font-size="14" font-style="italic" lengthAdjust="spacing" textLength="126" x="369.5" y="362.3483">update(float): void</text><ellipse cx="360.5" cy="375.0455" fill="#84BE84" rx="3" ry="3" style="stroke:#038048;stroke-width:1.0;"/><text fill="#000000" font-family="sans-serif" font-size="14" lengthAdjust="spacing" textLength="121" x="369.5" y="378.8366">camera(): Camera</text><ellipse cx="360.5" cy="391.5338" fill="#84BE84" rx="3" ry="3" style="stroke:#038048;stroke-width:1.0;"/><text fill="#000000" font-family="sans-serif" font-size="14" lengthAdjust="spacing" textLength="125" x="369.5" y="395.3248">sceneImgui(): void</text><ellipse cx="360.5" cy="408.0221" fill="#84BE84" rx="3" ry="3" style="stroke:#038048;stroke-width:1.0;"/><text fill="#000000" font-family="sans-serif" font-size="14" lengthAdjust="spacing" textLength="86" x="369.5" y="411.8131">imgui(): void</text></g></a><!--class game.engine.ImGuiLayer--><a href="ImGuiLayer.html" target="_top" title="ImGuiLayer.html" xlink:actuate="onRequest" xlink:href="ImGuiLayer.html" xlink:show="new" xlink:title="ImGuiLayer.html" xlink:type="simple"><g id="elem_game.engine.ImGuiLayer"><rect codeLine="104" fill="#F1F1F1" height="97.4648" id="game.engine.ImGuiLayer" rx="2.5" ry="2.5" style="stroke:#181818;stroke-width:0.5;" width="200" x="1401" y="743.09"/><ellipse cx="1458.75" cy="759.09" fill="#ADD1B2" rx="11" ry="11" style="stroke:#181818;stroke-width:1.0;"/><path d="M1461.2231,765.2331 Q1460.6421,765.5319 1460.0029,765.6813 Q1459.3638,765.8307 1458.6582,765.8307 Q1456.1514,765.8307 1454.8315,764.1789 Q1453.5117,762.527 1453.5117,759.4059 Q1453.5117,756.2765 1454.8315,754.6247 Q1456.1514,752.9728 1458.6582,752.9728 Q1459.3638,752.9728 1460.0112,753.1222 Q1460.6587,753.2716 1461.2231,753.5705 L1461.2231,756.2931 Q1460.5923,755.7121 1459.9988,755.4423 Q1459.4053,755.1725 1458.7744,755.1725 Q1457.4297,755.1725 1456.7449,756.2392 Q1456.0601,757.3058 1456.0601,759.4059 Q1456.0601,761.4977 1456.7449,762.5644 Q1457.4297,763.631 1458.7744,763.631 Q1459.4053,763.631 1459.9988,763.3612 Q1460.5923,763.0915 1461.2231,762.5104 Z " fill="#000000"/><text fill="#000000" font-family="sans-serif" font-size="14" lengthAdjust="spacing" textLength="76" x="1479.25" y="764.381">ImGuiLayer</text><line style="stroke:#181818;stroke-width:0.5;" x1="1402" x2="1600" y1="775.09" y2="775.09"/><line style="stroke:#181818;stroke-width:0.5;" x1="1402" x2="1600" y1="783.09" y2="783.09"/><ellipse cx="1412" cy="796.8341" fill="#84BE84" rx="3" ry="3" style="stroke:#038048;stroke-width:1.0;"/><text fill="#000000" font-family="sans-serif" font-size="14" lengthAdjust="spacing" textLength="117" x="1421" y="800.6252">ImGuiLayer(long)</text><ellipse cx="1412" cy="813.3224" fill="#84BE84" rx="3" ry="3" style="stroke:#038048;stroke-width:1.0;"/><text fill="#000000" font-family="sans-serif" font-size="14" lengthAdjust="spacing" textLength="109" x="1421" y="817.1134">initImGui(): void</text><ellipse cx="1412" cy="829.8107" fill="#84BE84" rx="3" ry="3" style="stroke:#038048;stroke-width:1.0;"/><text fill="#000000" font-family="sans-serif" font-size="14" lengthAdjust="spacing" textLength="174" x="1421" y="833.6017">update(float, Scene): void</text></g></a><!--class game.engine.GameObject--><a href="GameObject.html" target="_top" title="GameObject.html" xlink:actuate="onRequest" xlink:href="GameObject.html" xlink:show="new" xlink:title="GameObject.html" xlink:type="simple"><g id="elem_game.engine.GameObject"><rect codeLine="110" fill="#F1F1F1" height="196.3945" id="game.engine.GameObject" rx="2.5" ry="2.5" style="stroke:#181818;stroke-width:0.5;" width="511" x="21.5" y="693.63"/><ellipse cx="231.25" cy="709.63" fill="#ADD1B2" rx="11" ry="11" style="stroke:#181818;stroke-width:1.0;"/><path d="M233.7231,715.7731 Q233.1421,716.0719 232.5029,716.2213 Q231.8638,716.3707 231.1582,716.3707 Q228.6514,716.3707 227.3315,714.7189 Q226.0117,713.067 226.0117,709.9459 Q226.0117,706.8165 227.3315,705.1647 Q228.6514,703.5128 231.1582,703.5128 Q231.8638,703.5128 232.5112,703.6622 Q233.1587,703.8116 233.7231,704.1105 L233.7231,706.8331 Q233.0923,706.2521 232.4988,705.9823 Q231.9053,705.7125 231.2744,705.7125 Q229.9297,705.7125 229.2449,706.7792 Q228.5601,707.8458 228.5601,709.9459 Q228.5601,712.0377 229.2449,713.1044 Q229.9297,714.171 231.2744,714.171 Q231.9053,714.171 232.4988,713.9012 Q233.0923,713.6315 233.7231,713.0504 Z " fill="#000000"/><text fill="#000000" font-family="sans-serif" font-size="14" lengthAdjust="spacing" textLength="83" x="251.75" y="714.921">GameObject</text><line style="stroke:#181818;stroke-width:0.5;" x1="22.5" x2="531.5" y1="725.63" y2="725.63"/><line style="stroke:#181818;stroke-width:0.5;" x1="22.5" x2="531.5" y1="733.63" y2="733.63"/><ellipse cx="32.5" cy="747.3741" fill="#84BE84" rx="3" ry="3" style="stroke:#038048;stroke-width:1.0;"/><text fill="#000000" font-family="sans-serif" font-size="14" lengthAdjust="spacing" textLength="134" x="41.5" y="751.1652">GameObject(String)</text><ellipse cx="32.5" cy="763.8624" fill="#84BE84" rx="3" ry="3" style="stroke:#038048;stroke-width:1.0;"/><text fill="#000000" font-family="sans-serif" font-size="14" lengthAdjust="spacing" textLength="240" x="41.5" y="767.6534">GameObject(String, Transform, int)</text><ellipse cx="32.5" cy="780.3507" fill="#84BE84" rx="3" ry="3" style="stroke:#038048;stroke-width:1.0;"/><text fill="#000000" font-family="sans-serif" font-size="14" lengthAdjust="spacing" textLength="485" x="41.5" y="784.1417">getComponent(Class&lt;T extends Component&gt;): T extends Component</text><ellipse cx="32.5" cy="796.839" fill="#84BE84" rx="3" ry="3" style="stroke:#038048;stroke-width:1.0;"/><text fill="#000000" font-family="sans-serif" font-size="14" lengthAdjust="spacing" textLength="390" x="41.5" y="800.63">removeComponent(Class&lt;T extends Component&gt;): void</text><ellipse cx="32.5" cy="813.3273" fill="#84BE84" rx="3" ry="3" style="stroke:#038048;stroke-width:1.0;"/><text fill="#000000" font-family="sans-serif" font-size="14" lengthAdjust="spacing" textLength="235" x="41.5" y="817.1183">addComponent(Component): void</text><ellipse cx="32.5" cy="829.8155" fill="#84BE84" rx="3" ry="3" style="stroke:#038048;stroke-width:1.0;"/><text fill="#000000" font-family="sans-serif" font-size="14" lengthAdjust="spacing" textLength="126" x="41.5" y="833.6066">update(float): void</text><ellipse cx="32.5" cy="846.3038" fill="#84BE84" rx="3" ry="3" style="stroke:#038048;stroke-width:1.0;"/><text fill="#000000" font-family="sans-serif" font-size="14" lengthAdjust="spacing" textLength="78" x="41.5" y="850.0948">start(): void</text><ellipse cx="32.5" cy="862.7921" fill="#84BE84" rx="3" ry="3" style="stroke:#038048;stroke-width:1.0;"/><text fill="#000000" font-family="sans-serif" font-size="14" lengthAdjust="spacing" textLength="86" x="41.5" y="866.5831">imgui(): void</text><ellipse cx="32.5" cy="879.2804" fill="#84BE84" rx="3" ry="3" style="stroke:#038048;stroke-width:1.0;"/><text fill="#000000" font-family="sans-serif" font-size="14" lengthAdjust="spacing" textLength="83" x="41.5" y="883.0714">zIndex(): int</text></g></a><!--class game.engine.Camera--><a href="Camera.html" target="_top" title="Camera.html" xlink:actuate="onRequest" xlink:href="Camera.html" xlink:show="new" xlink:title="Camera.html" xlink:type="simple"><g id="elem_game.engine.Camera"><rect codeLine="122" fill="#F1F1F1" height="130.4414" id="game.engine.Camera" rx="2.5" ry="2.5" style="stroke:#181818;stroke-width:0.5;" width="237" x="567.5" y="726.61"/><ellipse cx="655.25" cy="742.61" fill="#ADD1B2" rx="11" ry="11" style="stroke:#181818;stroke-width:1.0;"/><path d="M657.7231,748.7531 Q657.1421,749.0519 656.5029,749.2013 Q655.8638,749.3507 655.1582,749.3507 Q652.6514,749.3507 651.3315,747.6989 Q650.0117,746.047 650.0117,742.9259 Q650.0117,739.7965 651.3315,738.1447 Q652.6514,736.4928 655.1582,736.4928 Q655.8638,736.4928 656.5112,736.6422 Q657.1587,736.7916 657.7231,737.0905 L657.7231,739.8131 Q657.0923,739.2321 656.4988,738.9623 Q655.9053,738.6925 655.2744,738.6925 Q653.9297,738.6925 653.2449,739.7592 Q652.5601,740.8258 652.5601,742.9259 Q652.5601,745.0177 653.2449,746.0844 Q653.9297,747.151 655.2744,747.151 Q655.9053,747.151 656.4988,746.8812 Q657.0923,746.6115 657.7231,746.0304 Z " fill="#000000"/><text fill="#000000" font-family="sans-serif" font-size="14" lengthAdjust="spacing" textLength="53" x="675.75" y="747.901">Camera</text><line style="stroke:#181818;stroke-width:0.5;" x1="568.5" x2="803.5" y1="758.61" y2="758.61"/><ellipse cx="578.5" cy="772.3541" fill="none" rx="3" ry="3" style="stroke:#038048;stroke-width:1.0;"/><text fill="#000000" font-family="sans-serif" font-size="14" lengthAdjust="spacing" textLength="122" x="587.5" y="776.1452">position: Vector2f</text><line style="stroke:#181818;stroke-width:0.5;" x1="568.5" x2="803.5" y1="783.0983" y2="783.0983"/><ellipse cx="578.5" cy="796.8424" fill="#84BE84" rx="3" ry="3" style="stroke:#038048;stroke-width:1.0;"/><text fill="#000000" font-family="sans-serif" font-size="14" lengthAdjust="spacing" textLength="121" x="587.5" y="800.6334">Camera(Vector2f)</text><ellipse cx="578.5" cy="813.3307" fill="#84BE84" rx="3" ry="3" style="stroke:#038048;stroke-width:1.0;"/><text fill="#000000" font-family="sans-serif" font-size="14" lengthAdjust="spacing" textLength="158" x="587.5" y="817.1217">adjustProjection(): void</text><ellipse cx="578.5" cy="829.819" fill="#84BE84" rx="3" ry="3" style="stroke:#038048;stroke-width:1.0;"/><text fill="#000000" font-family="sans-serif" font-size="14" lengthAdjust="spacing" textLength="174" x="587.5" y="833.61">getViewMatrix(): Matrix4f</text><ellipse cx="578.5" cy="846.3073" fill="#84BE84" rx="3" ry="3" style="stroke:#038048;stroke-width:1.0;"/><text fill="#000000" font-family="sans-serif" font-size="14" lengthAdjust="spacing" textLength="211" x="587.5" y="850.0983">getProjectionMatrix(): Matrix4f</text></g></a><!--reverse link game.engine.Scene to game.engine.InitMenuScene--><g id="link_game.engine.Scene_game.engine.InitMenuScene"><path codeLine="130" d="M517.96,439.2 C542.18,498.37 579.4,568.89 632,616.63 C665.74,647.25 784.24,668.15 822,693.63 C845.35,709.39 867.47,731.73 884.37,751.02 " fill="none" id="game.engine.Scene-backto-game.engine.InitMenuScene" style="stroke:#181818;stroke-width:1.0;"/><polygon fill="none" points="511.46,441.8,510.65,420.62,524.49,436.67,511.46,441.8" style="stroke:#181818;stroke-width:1.0;"/></g><!--link game.engine.Window to game.engine.ImGuiLayer--><g id="link_game.engine.Window_game.engine.ImGuiLayer"><path codeLine="131" d="M1208.73,597.5 C1214.26,604.15 1220.02,610.55 1226,616.63 C1280.51,672.02 1317.67,651.53 1383,693.63 C1403.67,706.95 1424.83,723.36 1443.43,738.88 " fill="none" id="game.engine.Window-to-game.engine.ImGuiLayer" style="stroke:#181818;stroke-width:1.0;"/><polygon fill="#181818" points="1446.94,741.83,1442.6191,732.9796,1443.1106,738.615,1437.4752,739.1066,1446.94,741.83" style="stroke:#181818;stroke-width:1.0;"/><text fill="#000000" font-family="sans-serif" font-size="13" lengthAdjust="spacing" textLength="69" x="1313" y="660.1984">imguiLayer</text></g><!--reverse link game.engine.Scene to game.engine.LevelEditorScene--><g id="link_game.engine.Scene_game.engine.LevelEditorScene"><path codeLine="132" d="M513.25,439.06 C536.33,500.32 573.99,572.97 632,616.63 C666.16,642.34 971.52,673.06 1009,693.63 C1031.02,705.71 1051.06,724.67 1066.92,742.65 " fill="none" id="game.engine.Scene-backto-game.engine.LevelEditorScene" style="stroke:#181818;stroke-width:1.0;"/><polygon fill="none" points="506.8,441.82,506.63,420.63,519.98,437.09,506.8,441.82" style="stroke:#181818;stroke-width:1.0;"/></g><!--reverse link game.engine.Scene to game.engine.LevelScene--><g id="link_game.engine.Scene_game.engine.LevelScene"><path codeLine="133" d="M511.74,439.2 C534.41,501.22 572.17,574.61 632,616.63 C657.88,634.81 1167.79,679.34 1196,693.63 C1222.18,706.89 1245.2,730.37 1261.91,750.94 " fill="none" id="game.engine.Scene-backto-game.engine.LevelScene" style="stroke:#181818;stroke-width:1.0;"/><polygon fill="none" points="505.2,441.71,505.26,420.52,518.43,437.12,505.2,441.71" style="stroke:#181818;stroke-width:1.0;"/></g><!--link game.engine.Component to game.engine.GameObject--><g id="link_game.engine.Component_game.engine.GameObject"><path codeLine="134" d="M232.87,378 C227.03,443.21 220.18,563.01 236,663.63 C237.22,671.39 238.84,679.33 240.72,687.25 " fill="none" id="game.engine.Component-to-game.engine.GameObject" style="stroke:#181818;stroke-width:1.0;"/><polygon fill="#181818" points="241.85,691.84,243.5746,682.1433,240.6508,686.9859,235.8081,684.0621,241.85,691.84" style="stroke:#181818;stroke-width:1.0;"/><text fill="#000000" font-family="sans-serif" font-size="13" lengthAdjust="spacing" textLength="75" x="237" y="660.1984">gameObject</text></g><!--link game.engine.Scene to game.engine.Camera--><g id="link_game.engine.Scene_game.engine.Camera"><path codeLine="135" d="M521.58,419.25 C560.5,507.21 619.13,639.71 654.85,720.43 " fill="none" id="game.engine.Scene-to-game.engine.Camera" style="stroke:#181818;stroke-width:1.0;"/><polygon fill="#181818" points="656.77,724.77,656.7757,714.9211,654.742,720.1998,649.4633,718.166,656.77,724.77" style="stroke:#181818;stroke-width:1.0;"/><text fill="#000000" font-family="sans-serif" font-size="13" lengthAdjust="spacing" textLength="45" x="626" y="660.1984">camera</text></g><!--link game.engine.Scene to game.engine.GameObject--><g id="link_game.engine.Scene_game.engine.GameObject"><path codeLine="136" d="M442.23,419.25 C408.06,496.09 358.78,606.91 322.94,687.52 " fill="none" id="game.engine.Scene-to-game.engine.GameObject" style="stroke:#181818;stroke-width:1.0;"/><polygon fill="#181818" points="320.99,691.89,328.2967,685.286,323.018,687.3198,320.9843,682.0411,320.99,691.89" style="stroke:#181818;stroke-width:1.0;"/><text fill="#000000" font-family="sans-serif" font-size="13" lengthAdjust="spacing" textLength="82" x="339" y="660.1984">gameObjects</text><text fill="#000000" font-family="sans-serif" font-size="13" lengthAdjust="spacing" textLength="6" x="317.4716" y="682.7302">*</text></g><!--link game.engine.Scene to game.engine.GameObject--><g id="link_game.engine.Scene_game.engine.GameObject"><path codeLine="137" d="M484.88,419.04 C483.36,489.7 472.53,588.63 430,663.63 C425.13,672.21 419.44,680.47 413.18,688.35 " fill="none" id="game.engine.Scene-to-game.engine.GameObject-1" style="stroke:#181818;stroke-width:1.0;"/><polygon fill="#181818" points="410.17,692.05,418.9578,687.6032,413.33,688.1751,412.758,682.5473,410.17,692.05" style="stroke:#181818;stroke-width:1.0;"/><text fill="#000000" font-family="sans-serif" font-size="13" lengthAdjust="spacing" textLength="113" x="439" y="660.1984">activeGameObject</text></g><!--link game.engine.GameObject to game.engine.Transform--><g id="link_game.engine.GameObject_game.engine.Transform"><path codeLine="138" d="M277,890.44 C277,913.3 277,937.63 277,960.41 " fill="none" id="game.engine.GameObject-to-game.engine.Transform" style="stroke:#181818;stroke-width:1.0;"/><polygon fill="#181818" points="277,965.27,281,956.27,277,960.27,273,956.27,277,965.27" style="stroke:#181818;stroke-width:1.0;"/><text fill="#000000" font-family="sans-serif" font-size="13" lengthAdjust="spacing" textLength="62" x="278" y="933.5884">transform</text></g><text fill="#888888" font-family="sans-serif" font-size="10" lengthAdjust="spacing" textLength="182" x="714" y="1178.598">UMLDoclet 2.1.0, PlantUML 1.2022.14</text><!--SRC=[jLXRRzCm57xdLrX3I85s4qmyLTEahOCoiObf6ziGui5DJZE3QrUsqssC_NUEu-OU9m547vgJ-FDtJixLBI642Be4lQ8Xa1Yb7H0n4q0UdpqZcq_8gTRaL2OQJfWs842HhryhzpktPic_VSDTfFHvr8OQ5ZwHKGmcU3cfSdYWIuivatfAEP_Jy4V0fOZ799B9d4DsHQwrP54NnM5YZ1Gr5YPCyJM0v29KalD_C0L4z5wXMuDk6Fhdna8MN5BZntmPW3cw7m9w601oBtyp6Dbh7TD7YiQONh55pgNaG4L_38_adGXSlEfxdkfPUYoOEGMHN8IOOfYbbVlsB1qbguWQ25BBsy8qOaZI2613zJKJaRn3dKxmA5DjBXh5hK_dhKzfRpYihSw8hf2XGomm5Jouy9QA61pKKp0ZbOXWkDVI5IxbghyWhbbaRYqCDVjH7u35jwORfZEotgBNEQ7lTL7b9JFSkSuepENgkixMtQAFOyONTov4biZsbGPD2MBN1_Whe-kClSwHxjBBEqsK0Z4eNtGLdNxxF73UtYqintb7BLhV-NVEkdSU-dSUTkyyyEyywEeS-ZsDu58USZi-F4tFafHX6qnlmxbKLEY5L4liERdiQJihgPbXKap85OH6gjr5pOIGSl0jvkJ1Izz2jh4NC2OUQDekMb1jRWtbAXrWENtBShxMwySJM0D_5p7KbusD-YEFL_qjhd-cBEE4zG-LZ_1GEdELxWQUk4exFC0VyD1rI1fmKc8QjPmfq1gYeNCwTN35s_zrGjEvDeg6PgDzAfShAK0OL9xB7jtuckg_1RbcL-QG3byyn-uQWG8yHvnlfA4vsV4cD8fcU4hzDF-EPHSKOclWCwEV1dWWH2f5hT9fAjMx3hxdSQkJ_gH8ZfUpX9tGXxH6YXjFG0k0cwjDzwM8_f2FIUk0QvXNk1FDAsuyvfNYi3b2zAoFYpReYhKnlF8K3wRMeBrB0lVO4g9I8UpRRjfyN3lgmLAkOI1RQvALzcRItrLMHoupVpxzFCQAkQyV5Xi1SwbgUqCg_EL8TPjzav56tnDjpfIqaKIMm7Vok69mTqenqgdTJdgxQC0AfWvmwKrTgzdxjRrT_SsK0pO_PxQtzqlrXOwptatbDghwtFHYggj5FxRgYWoVf7z9EBb6PO7EmnCILbjB0TXwjULXqoteCXBR6rl3hAczLCnsJrvw4s8gXv6Dgv7SO5jQI6aldqzFZcJ8mP3TdJSxhyVaZ5DXy2bviGQbqpJu3G00]--></g></svg>