<?xml version="1.0" encoding="UTF-8" standalone="no"?><svg xmlns="http://www.w3.org/2000/svg" xmlns:xlink="http://www.w3.org/1999/xlink" contentStyleType="text/css" height="294px" preserveAspectRatio="none" style="width:460px;height:294px;background:#FFFFFF;" version="1.1" viewBox="0 0 460 294" width="460px" zoomAndPan="magnify"><defs/><g><!--class game.engine.Prefabs--><a href="Prefabs.html" target="_top" title="Prefabs.html" xlink:actuate="onRequest" xlink:href="Prefabs.html" xlink:show="new" xlink:title="Prefabs.html" xlink:type="simple"><g id="elem_game.engine.Prefabs"><rect codeLine="5" fill="#F1F1F1" height="260.6133" id="game.engine.Prefabs" rx="2.5" ry="2.5" style="stroke:#181818;stroke-width:0.5;" width="439" x="7" y="7"/><ellipse cx="190.75" cy="26.1328" fill="#ADD1B2" rx="11" ry="11" style="stroke:#181818;stroke-width:1.0;"/><path d="M193.2231,32.2759 Q192.6421,32.5747 192.0029,32.7241 Q191.3638,32.8735 190.6582,32.8735 Q188.1514,32.8735 186.8315,31.2217 Q185.5117,29.5698 185.5117,26.4487 Q185.5117,23.3193 186.8315,21.6675 Q188.1514,20.0156 190.6582,20.0156 Q191.3638,20.0156 192.0112,20.165 Q192.6587,20.3145 193.2231,20.6133 L193.2231,23.3359 Q192.5923,22.7549 191.9988,22.4851 Q191.4053,22.2153 190.7744,22.2153 Q189.4297,22.2153 188.7449,23.282 Q188.0601,24.3486 188.0601,26.4487 Q188.0601,28.5405 188.7449,29.6072 Q189.4297,30.6738 190.7744,30.6738 Q191.4053,30.6738 191.9988,30.4041 Q192.5923,30.1343 193.2231,29.5532 Z " fill="#000000"/><text fill="#000000" font-family="sans-serif" font-size="14" lengthAdjust="spacing" textLength="51" x="217.25" y="25.5352">Prefabs</text><text fill="#000000" font-family="sans-serif" font-size="10" lengthAdjust="spacing" textLength="63" x="211.25" y="38.1563">game.engine</text><line style="stroke:#181818;stroke-width:0.5;" x1="8" x2="445" y1="45.2656" y2="45.2656"/><ellipse cx="18" cy="59.0098" fill="#84BE84" rx="3" ry="3" style="stroke:#038048;stroke-width:1.0;"/><text fill="#000000" font-family="sans-serif" font-size="14" lengthAdjust="spacing" text-decoration="underline" textLength="364" x="27" y="62.8008">generateSpriteObject(Sprite, float, float): GameObject</text><ellipse cx="18" cy="75.498" fill="#84BE84" rx="3" ry="3" style="stroke:#038048;stroke-width:1.0;"/><text fill="#000000" font-family="sans-serif" font-size="14" lengthAdjust="spacing" text-decoration="underline" textLength="413" x="27" y="79.2891">generateSpriteObject(Sprite, String, float, float): GameObject</text><ellipse cx="18" cy="91.9863" fill="#84BE84" rx="3" ry="3" style="stroke:#038048;stroke-width:1.0;"/><text fill="#000000" font-family="sans-serif" font-size="14" lengthAdjust="spacing" text-decoration="underline" textLength="239" x="27" y="95.7773">generatePlayer_Two(): GameObject</text><ellipse cx="18" cy="108.4746" fill="#84BE84" rx="3" ry="3" style="stroke:#038048;stroke-width:1.0;"/><text fill="#000000" font-family="sans-serif" font-size="14" lengthAdjust="spacing" text-decoration="underline" textLength="203" x="27" y="112.2656">generatePlayer(): GameObject</text><ellipse cx="18" cy="124.9629" fill="#84BE84" rx="3" ry="3" style="stroke:#038048;stroke-width:1.0;"/><text fill="#000000" font-family="sans-serif" font-size="14" lengthAdjust="spacing" text-decoration="underline" textLength="262" x="27" y="128.7539">generateFullRigid(Sprite): GameObject</text><ellipse cx="18" cy="141.4512" fill="#84BE84" rx="3" ry="3" style="stroke:#038048;stroke-width:1.0;"/><text fill="#000000" font-family="sans-serif" font-size="14" lengthAdjust="spacing" text-decoration="underline" textLength="340" x="27" y="145.2422">generateFullRigid(Sprite, float, float): GameObject</text><ellipse cx="18" cy="157.9395" fill="#84BE84" rx="3" ry="3" style="stroke:#038048;stroke-width:1.0;"/><text fill="#000000" font-family="sans-serif" font-size="14" lengthAdjust="spacing" text-decoration="underline" textLength="339" x="27" y="161.7305">generateMessage(Sprite, float, float): GameObject</text><ellipse cx="18" cy="174.4277" fill="#84BE84" rx="3" ry="3" style="stroke:#038048;stroke-width:1.0;"/><text fill="#000000" font-family="sans-serif" font-size="14" lengthAdjust="spacing" text-decoration="underline" textLength="255" x="27" y="178.2188">generateAbsolut(Sprite): GameObject</text><ellipse cx="18" cy="190.916" fill="#84BE84" rx="3" ry="3" style="stroke:#038048;stroke-width:1.0;"/><text fill="#000000" font-family="sans-serif" font-size="14" lengthAdjust="spacing" text-decoration="underline" textLength="241" x="27" y="194.707">generateChest(Sprite): GameObject</text><ellipse cx="18" cy="207.4043" fill="#84BE84" rx="3" ry="3" style="stroke:#038048;stroke-width:1.0;"/><text fill="#000000" font-family="sans-serif" font-size="14" lengthAdjust="spacing" text-decoration="underline" textLength="236" x="27" y="211.1953">generateDoor(Sprite): GameObject</text><ellipse cx="18" cy="223.8926" fill="#84BE84" rx="3" ry="3" style="stroke:#038048;stroke-width:1.0;"/><text fill="#000000" font-family="sans-serif" font-size="14" lengthAdjust="spacing" text-decoration="underline" textLength="281" x="27" y="227.6836">generateItem(Sprite, String): GameObject</text><ellipse cx="18" cy="240.3809" fill="#84BE84" rx="3" ry="3" style="stroke:#038048;stroke-width:1.0;"/><text fill="#000000" font-family="sans-serif" font-size="14" lengthAdjust="spacing" text-decoration="underline" textLength="283" x="27" y="244.1719">generateFigure(Spritesheet): GameObject</text><ellipse cx="18" cy="256.8691" fill="#84BE84" rx="3" ry="3" style="stroke:#038048;stroke-width:1.0;"/><text fill="#000000" font-family="sans-serif" font-size="14" lengthAdjust="spacing" text-decoration="underline" textLength="273" x="27" y="260.6602">generateZaun(Spritesheet): GameObject</text></g></a><text fill="#888888" font-family="sans-serif" font-size="10" lengthAdjust="spacing" textLength="182" x="135" y="284.2813">UMLDoclet 2.1.0, PlantUML 1.2022.14</text><!--SRC=[fLDHIm9147xlLmn2e2I7HayIGYH5a2HPBvd4Udvtjx6tU-pC5IR-zrQz87m8xzgNsVbslczcXnaY8eQGLJcuK36cA9HNuZnPPt4IdYdJIn3oGbQKQ9Wb7w8v97C1tk6nKSpKkcJzXK7_OZZnIDI2Nss5z8Pfo1N1fjgYHOhfbnzLqJIRLRSeazpCvxJUYM_FcaM9ZZTqbi8Yr8ffuRNWOV6EMDfxfqk9SKegqndGRKYoZwWhD1MlRTfCS6BK2lxjwTErwr6E3hyfZNdKgLvMzJRbDVlV6CmgnRyqhXRiJ2arwx_Em7Kv8-TyJSgT83-OXACxhDFI_xI6C-3eZhoeqlxDsrIx1Ylmb3YtDS_Z-v6BJTZcywWVzReKHibAGEdq0vwri-tEDm00]--></g></svg>