<?xml version="1.0" encoding="UTF-8" standalone="no"?><svg xmlns="http://www.w3.org/2000/svg" xmlns:xlink="http://www.w3.org/1999/xlink" contentStyleType="text/css" height="432px" preserveAspectRatio="none" style="width:246px;height:432px;background:#FFFFFF;" version="1.1" viewBox="0 0 246 432" width="246px" zoomAndPan="magnify"><defs/><g><!--class game.engine.Transform--><a href="Transform.html" target="_top" title="Transform.html" xlink:actuate="onRequest" xlink:href="Transform.html" xlink:show="new" xlink:title="Transform.html" xlink:type="simple"><g id="elem_game.engine.Transform"><rect codeLine="5" fill="#F1F1F1" height="301.5898" id="game.engine.Transform" rx="2.5" ry="2.5" style="stroke:#181818;stroke-width:0.5;" width="232" x="7" y="105.27"/><ellipse cx="82.75" cy="124.4028" fill="#ADD1B2" rx="11" ry="11" style="stroke:#181818;stroke-width:1.0;"/><path d="M85.2231,130.5459 Q84.6421,130.8447 84.0029,130.9941 Q83.3638,131.1435 82.6582,131.1435 Q80.1514,131.1435 78.8315,129.4917 Q77.5117,127.8398 77.5117,124.7187 Q77.5117,121.5893 78.8315,119.9375 Q80.1514,118.2856 82.6582,118.2856 Q83.3638,118.2856 84.0112,118.435 Q84.6587,118.5845 85.2231,118.8833 L85.2231,121.6059 Q84.5923,121.0249 83.9988,120.7551 Q83.4053,120.4853 82.7744,120.4853 Q81.4297,120.4853 80.7449,121.552 Q80.0601,122.6186 80.0601,124.7187 Q80.0601,126.8105 80.7449,127.8772 Q81.4297,128.9438 82.7744,128.9438 Q83.4053,128.9438 83.9988,128.6741 Q84.5923,128.4043 85.2231,127.8232 Z " fill="#000000"/><text fill="#000000" font-family="sans-serif" font-size="14" lengthAdjust="spacing" textLength="72" x="103.25" y="123.8052">Transform</text><text fill="#000000" font-family="sans-serif" font-size="10" lengthAdjust="spacing" textLength="63" x="107.75" y="136.4263">game.engine</text><line style="stroke:#181818;stroke-width:0.5;" x1="8" x2="238" y1="143.5356" y2="143.5356"/><ellipse cx="18" cy="157.2798" fill="none" rx="3" ry="3" style="stroke:#038048;stroke-width:1.0;"/><text fill="#000000" font-family="sans-serif" font-size="14" lengthAdjust="spacing" textLength="122" x="27" y="161.0708">position: Vector2f</text><ellipse cx="18" cy="173.768" fill="none" rx="3" ry="3" style="stroke:#038048;stroke-width:1.0;"/><text fill="#000000" font-family="sans-serif" font-size="14" lengthAdjust="spacing" textLength="100" x="27" y="177.5591">scale: Vector2f</text><ellipse cx="18" cy="190.2563" fill="none" rx="3" ry="3" style="stroke:#038048;stroke-width:1.0;"/><text fill="#000000" font-family="sans-serif" font-size="14" lengthAdjust="spacing" textLength="94" x="27" y="194.0473">rotation: float</text><ellipse cx="18" cy="206.7446" fill="none" rx="3" ry="3" style="stroke:#038048;stroke-width:1.0;"/><text fill="#000000" font-family="sans-serif" font-size="14" lengthAdjust="spacing" textLength="73" x="27" y="210.5356">zIndex: int</text><line style="stroke:#181818;stroke-width:0.5;" x1="8" x2="238" y1="217.4888" y2="217.4888"/><ellipse cx="18" cy="231.2329" fill="#84BE84" rx="3" ry="3" style="stroke:#038048;stroke-width:1.0;"/><text fill="#000000" font-family="sans-serif" font-size="14" lengthAdjust="spacing" textLength="82" x="27" y="235.0239">Transform()</text><ellipse cx="18" cy="247.7212" fill="#84BE84" rx="3" ry="3" style="stroke:#038048;stroke-width:1.0;"/><text fill="#000000" font-family="sans-serif" font-size="14" lengthAdjust="spacing" textLength="140" x="27" y="251.5122">Transform(Vector2f)</text><ellipse cx="18" cy="264.2095" fill="#84BE84" rx="3" ry="3" style="stroke:#038048;stroke-width:1.0;"/><text fill="#000000" font-family="sans-serif" font-size="14" lengthAdjust="spacing" textLength="206" x="27" y="268.0005">Transform(Vector2f, Vector2f)</text><ellipse cx="18" cy="280.6977" fill="#84BE84" rx="3" ry="3" style="stroke:#038048;stroke-width:1.0;"/><text fill="#000000" font-family="sans-serif" font-size="14" lengthAdjust="spacing" textLength="193" x="27" y="284.4888">init(Vector2f, Vector2f): void</text><ellipse cx="18" cy="297.186" fill="#84BE84" rx="3" ry="3" style="stroke:#038048;stroke-width:1.0;"/><text fill="#000000" font-family="sans-serif" font-size="14" lengthAdjust="spacing" textLength="122" x="27" y="300.977">copy(): Transform</text><ellipse cx="18" cy="313.6743" fill="#84BE84" rx="3" ry="3" style="stroke:#038048;stroke-width:1.0;"/><text fill="#000000" font-family="sans-serif" font-size="14" lengthAdjust="spacing" textLength="86" x="27" y="317.4653">imgui(): void</text><ellipse cx="18" cy="330.1626" fill="#84BE84" rx="3" ry="3" style="stroke:#038048;stroke-width:1.0;"/><text fill="#000000" font-family="sans-serif" font-size="14" lengthAdjust="spacing" textLength="151" x="27" y="333.9536">copy(Transform): void</text><ellipse cx="18" cy="346.6509" fill="#84BE84" rx="3" ry="3" style="stroke:#038048;stroke-width:1.0;"/><text fill="#000000" font-family="sans-serif" font-size="14" lengthAdjust="spacing" textLength="153" x="27" y="350.4419">getPosition(): Vector2f</text><ellipse cx="18" cy="363.1391" fill="#84BE84" rx="3" ry="3" style="stroke:#038048;stroke-width:1.0;"/><text fill="#000000" font-family="sans-serif" font-size="14" lengthAdjust="spacing" textLength="133" x="27" y="366.9302">getScale(): Vector2f</text><ellipse cx="18" cy="379.6274" fill="#84BE84" rx="3" ry="3" style="stroke:#038048;stroke-width:1.0;"/><text fill="#000000" font-family="sans-serif" font-size="14" lengthAdjust="spacing" textLength="129" x="27" y="383.4184">getRotation(): float</text><ellipse cx="18" cy="396.1157" fill="#84BE84" rx="3" ry="3" style="stroke:#038048;stroke-width:1.0;"/><text fill="#000000" font-family="sans-serif" font-size="14" lengthAdjust="spacing" textLength="105" x="27" y="399.9067">getzIndex(): int</text></g></a><!--class game.components.Component--><a href="../components/Component.html" target="_top" title="../components/Component.html" xlink:actuate="onRequest" xlink:href="../components/Component.html" xlink:show="new" xlink:title="../components/Component.html" xlink:type="simple"><g id="elem_game.components.Component"><rect codeLine="23" fill="#F1F1F1" height="38.2656" id="game.components.Component" rx="2.5" ry="2.5" style="stroke:#181818;stroke-width:0.5;" width="121" x="62.5" y="7"/><ellipse cx="77.5" cy="26.1328" fill="#A9DCDF" rx="11" ry="11" style="stroke:#181818;stroke-width:1.0;"/><path d="M77.3633,21.481 L76.2095,26.5527 L78.5254,26.5527 Z M75.8691,19.2397 L78.8657,19.2397 L82.2109,31.6328 L79.7622,31.6328 L78.9985,28.5698 L75.7197,28.5698 L74.9727,31.6328 L72.5239,31.6328 Z " fill="#000000"/><text fill="#000000" font-family="sans-serif" font-size="14" font-style="italic" lengthAdjust="spacing" textLength="81" x="95.5" y="25.5352">Component</text><text fill="#000000" font-family="sans-serif" font-size="10" font-style="italic" lengthAdjust="spacing" textLength="89" x="91.5" y="38.1563">game.components</text></g></a><!--reverse link game.components.Component to game.engine.Transform--><g id="link_game.components.Component_game.engine.Transform"><path codeLine="25" d="M123,66.5 C123,77.86 123,90.98 123,104.91 " fill="none" id="game.components.Component-backto-game.engine.Transform" style="stroke:#181818;stroke-width:1.0;"/><polygon fill="none" points="116,66.92,123,46.92,130,66.92,116,66.92" style="stroke:#181818;stroke-width:1.0;"/></g><text fill="#888888" font-family="sans-serif" font-size="10" lengthAdjust="spacing" textLength="182" x="25" y="422.5278">UMLDoclet 2.1.0, PlantUML 1.2022.14</text><!--SRC=[VPDVJy8m5CNV_HGt92OOeVo9JmlXHLzCD26YlY0FfRiRJThUfQr4KB-x7HiTWU5UjfxVkMrpSWO0uD23uHfTmGNEiU2MUx9WoE1LmB2MAGBgmcyXawXITwfgz6iAybuNYZi7dOcJEqn6TzDNoutBoEeFKsl3QHvEOsXoQR03tC7HcaK_B1RncwszLiibVE-FA9_RWfpqaam2xoZ2VSTPmvpW2jk09S-heKmHzmtOFPeKlnAGvaYCntTlsiJ3zl_27hJOf96-pP70XcJQ-0GLssvGuxP7M-ZyKtRR9wBz3EVePtLkvUnvGC4mByExI5_g14l3IOQ1LZ6Mx13aRzKAldBUSk7Fwd5FkWX5C_wq7k80N5EHHcDnBjI4iK531f7KfQakS7b-yjFljpUmBdGmeOMCg7ozFJyza53Xbncp4HlsOAQuyK65wmrQjq_c3m00]--></g></svg>