<?xml version="1.0" encoding="UTF-8" standalone="no"?><svg xmlns="http://www.w3.org/2000/svg" xmlns:xlink="http://www.w3.org/1999/xlink" contentStyleType="text/css" height="366px" preserveAspectRatio="none" style="width:246px;height:366px;background:#FFFFFF;" version="1.1" viewBox="0 0 246 366" width="246px" zoomAndPan="magnify"><defs/><g><!--class game.engine.Transform--><a href="Transform.html" target="_top" title="Transform.html" xlink:actuate="onRequest" xlink:href="Transform.html" xlink:show="new" xlink:title="Transform.html" xlink:type="simple"><g id="elem_game.engine.Transform"><rect codeLine="5" fill="#F1F1F1" height="235.6367" id="game.engine.Transform" rx="2.5" ry="2.5" style="stroke:#181818;stroke-width:0.5;" width="232" x="7" y="105.26"/><ellipse cx="82.75" cy="124.3928" fill="#ADD1B2" rx="11" ry="11" style="stroke:#181818;stroke-width:1.0;"/><path d="M85.2231,130.5359 Q84.6421,130.8347 84.0029,130.9841 Q83.3638,131.1335 82.6582,131.1335 Q80.1514,131.1335 78.8315,129.4817 Q77.5117,127.8298 77.5117,124.7087 Q77.5117,121.5793 78.8315,119.9275 Q80.1514,118.2756 82.6582,118.2756 Q83.3638,118.2756 84.0112,118.425 Q84.6587,118.5745 85.2231,118.8733 L85.2231,121.5959 Q84.5923,121.0149 83.9988,120.7451 Q83.4053,120.4753 82.7744,120.4753 Q81.4297,120.4753 80.7449,121.542 Q80.0601,122.6086 80.0601,124.7087 Q80.0601,126.8005 80.7449,127.8672 Q81.4297,128.9338 82.7744,128.9338 Q83.4053,128.9338 83.9988,128.6641 Q84.5923,128.3943 85.2231,127.8132 Z " fill="#000000"/><text fill="#000000" font-family="sans-serif" font-size="14" lengthAdjust="spacing" textLength="72" x="103.25" y="123.7952">Transform</text><text fill="#000000" font-family="sans-serif" font-size="10" lengthAdjust="spacing" textLength="63" x="107.75" y="136.4163">game.engine</text><line style="stroke:#181818;stroke-width:0.5;" x1="8" x2="238" y1="143.5256" y2="143.5256"/><ellipse cx="18" cy="157.2698" fill="none" rx="3" ry="3" style="stroke:#038048;stroke-width:1.0;"/><text fill="#000000" font-family="sans-serif" font-size="14" lengthAdjust="spacing" textLength="122" x="27" y="161.0608">position: Vector2f</text><ellipse cx="18" cy="173.758" fill="none" rx="3" ry="3" style="stroke:#038048;stroke-width:1.0;"/><text fill="#000000" font-family="sans-serif" font-size="14" lengthAdjust="spacing" textLength="100" x="27" y="177.5491">scale: Vector2f</text><ellipse cx="18" cy="190.2463" fill="none" rx="3" ry="3" style="stroke:#038048;stroke-width:1.0;"/><text fill="#000000" font-family="sans-serif" font-size="14" lengthAdjust="spacing" textLength="94" x="27" y="194.0373">rotation: float</text><ellipse cx="18" cy="206.7346" fill="none" rx="3" ry="3" style="stroke:#038048;stroke-width:1.0;"/><text fill="#000000" font-family="sans-serif" font-size="14" lengthAdjust="spacing" textLength="73" x="27" y="210.5256">zIndex: int</text><line style="stroke:#181818;stroke-width:0.5;" x1="8" x2="238" y1="217.4788" y2="217.4788"/><ellipse cx="18" cy="231.2229" fill="#84BE84" rx="3" ry="3" style="stroke:#038048;stroke-width:1.0;"/><text fill="#000000" font-family="sans-serif" font-size="14" lengthAdjust="spacing" textLength="82" x="27" y="235.0139">Transform()</text><ellipse cx="18" cy="247.7112" fill="#84BE84" rx="3" ry="3" style="stroke:#038048;stroke-width:1.0;"/><text fill="#000000" font-family="sans-serif" font-size="14" lengthAdjust="spacing" textLength="140" x="27" y="251.5022">Transform(Vector2f)</text><ellipse cx="18" cy="264.1995" fill="#84BE84" rx="3" ry="3" style="stroke:#038048;stroke-width:1.0;"/><text fill="#000000" font-family="sans-serif" font-size="14" lengthAdjust="spacing" textLength="206" x="27" y="267.9905">Transform(Vector2f, Vector2f)</text><ellipse cx="18" cy="280.6877" fill="#84BE84" rx="3" ry="3" style="stroke:#038048;stroke-width:1.0;"/><text fill="#000000" font-family="sans-serif" font-size="14" lengthAdjust="spacing" textLength="193" x="27" y="284.4788">init(Vector2f, Vector2f): void</text><ellipse cx="18" cy="297.176" fill="#84BE84" rx="3" ry="3" style="stroke:#038048;stroke-width:1.0;"/><text fill="#000000" font-family="sans-serif" font-size="14" lengthAdjust="spacing" textLength="122" x="27" y="300.967">copy(): Transform</text><ellipse cx="18" cy="313.6643" fill="#84BE84" rx="3" ry="3" style="stroke:#038048;stroke-width:1.0;"/><text fill="#000000" font-family="sans-serif" font-size="14" lengthAdjust="spacing" textLength="86" x="27" y="317.4553">imgui(): void</text><ellipse cx="18" cy="330.1526" fill="#84BE84" rx="3" ry="3" style="stroke:#038048;stroke-width:1.0;"/><text fill="#000000" font-family="sans-serif" font-size="14" lengthAdjust="spacing" textLength="151" x="27" y="333.9436">copy(Transform): void</text></g></a><!--class game.components.Component--><a href="../components/Component.html" target="_top" title="../components/Component.html" xlink:actuate="onRequest" xlink:href="../components/Component.html" xlink:show="new" xlink:title="../components/Component.html" xlink:type="simple"><g id="elem_game.components.Component"><rect codeLine="19" fill="#F1F1F1" height="38.2656" id="game.components.Component" rx="2.5" ry="2.5" style="stroke:#181818;stroke-width:0.5;" width="121" x="62.5" y="7"/><ellipse cx="77.5" cy="26.1328" fill="#A9DCDF" rx="11" ry="11" style="stroke:#181818;stroke-width:1.0;"/><path d="M77.3633,21.481 L76.2095,26.5527 L78.5254,26.5527 Z M75.8691,19.2397 L78.8657,19.2397 L82.2109,31.6328 L79.7622,31.6328 L78.9985,28.5698 L75.7197,28.5698 L74.9727,31.6328 L72.5239,31.6328 Z " fill="#000000"/><text fill="#000000" font-family="sans-serif" font-size="14" font-style="italic" lengthAdjust="spacing" textLength="81" x="95.5" y="25.5352">Component</text><text fill="#000000" font-family="sans-serif" font-size="10" font-style="italic" lengthAdjust="spacing" textLength="89" x="91.5" y="38.1563">game.components</text></g></a><!--reverse link game.components.Component to game.engine.Transform--><g id="link_game.components.Component_game.engine.Transform"><path codeLine="21" d="M123,66.9 C123,78.38 123,91.53 123,105.2 " fill="none" id="game.components.Component-backto-game.engine.Transform" style="stroke:#181818;stroke-width:1.0;"/><polygon fill="none" points="116,66.98,123,46.98,130,66.98,116,66.98" style="stroke:#181818;stroke-width:1.0;"/></g><text fill="#888888" font-family="sans-serif" font-size="10" lengthAdjust="spacing" textLength="182" x="25" y="356.5647">UMLDoclet 2.1.0, PlantUML 1.2022.14</text><!--SRC=[VP9DImCn48Rl_egX86onJJ_mj9HUz28e27vSQWzfThOD99ab6Okj-jzDlx9BNSrbiy_xpapW7G20W0nEMWoLLFY4bVIIoOCZXnTHXfKk4D1Ml85Ieod2ERN8AufupvMH8K1d4lGMyz7rzDbB5qhoziqTsN2wZDC4kgLss04PeF4laXzcitGNAxPcFeVF_OZTkQeeQDRaSdX55TyxBcijA6cmJV34yb1K6f9S2zixL-173jerO1gVTTlWgVs_OWzQRDffRdFai2PTr3v5rIQBDBLjjB3BTvsrLoHxK_u-n2CNWRrK_2kd6x9LJDpnUKxg98Gwgvg9L1Vp4c9GAuEa7DCxFE3l-ibNlz- -2iVDYYRqK1BjFYyFzxUaJDpTiHY9OGyUZNGSALokqOSOSjRz0G00]--></g></svg>