<?xml version="1.0" encoding="UTF-8" standalone="no"?><svg xmlns="http://www.w3.org/2000/svg" xmlns:xlink="http://www.w3.org/1999/xlink" contentStyleType="text/css" height="516px" preserveAspectRatio="none" style="width:265px;height:516px;background:#FFFFFF;" version="1.1" viewBox="0 0 265 516" width="265px" zoomAndPan="magnify"><defs/><g><!--class game.engine.Window--><a href="Window.html" target="_top" title="Window.html" xlink:actuate="onRequest" xlink:href="Window.html" xlink:show="new" xlink:title="Window.html" xlink:type="simple"><g id="elem_game.engine.Window"><rect codeLine="5" fill="#F1F1F1" height="482.9609" id="game.engine.Window" rx="2.5" ry="2.5" style="stroke:#181818;stroke-width:0.5;" width="244" x="7" y="7"/><ellipse cx="93.25" cy="26.1328" fill="#ADD1B2" rx="11" ry="11" style="stroke:#181818;stroke-width:1.0;"/><path d="M95.7231,32.2759 Q95.1421,32.5747 94.5029,32.7241 Q93.8638,32.8735 93.1582,32.8735 Q90.6514,32.8735 89.3315,31.2217 Q88.0117,29.5698 88.0117,26.4487 Q88.0117,23.3193 89.3315,21.6675 Q90.6514,20.0156 93.1582,20.0156 Q93.8638,20.0156 94.5112,20.165 Q95.1587,20.3145 95.7231,20.6133 L95.7231,23.3359 Q95.0923,22.7549 94.4988,22.4851 Q93.9053,22.2153 93.2744,22.2153 Q91.9297,22.2153 91.2449,23.282 Q90.5601,24.3486 90.5601,26.4487 Q90.5601,28.5405 91.2449,29.6072 Q91.9297,30.6738 93.2744,30.6738 Q93.9053,30.6738 94.4988,30.4041 Q95.0923,30.1343 95.7231,29.5532 Z " fill="#000000"/><text fill="#000000" font-family="sans-serif" font-size="14" lengthAdjust="spacing" textLength="54" x="118.25" y="25.5352">Window</text><text fill="#000000" font-family="sans-serif" font-size="10" lengthAdjust="spacing" textLength="63" x="113.75" y="38.1563">game.engine</text><line style="stroke:#181818;stroke-width:0.5;" x1="8" x2="250" y1="45.2656" y2="45.2656"/><ellipse cx="18" cy="59.0098" fill="none" rx="3" ry="3" style="stroke:#038048;stroke-width:1.0;"/><text fill="#000000" font-family="sans-serif" font-size="14" lengthAdjust="spacing" textLength="45" x="27" y="62.8008">r: float</text><ellipse cx="18" cy="75.498" fill="none" rx="3" ry="3" style="stroke:#038048;stroke-width:1.0;"/><text fill="#000000" font-family="sans-serif" font-size="14" lengthAdjust="spacing" textLength="48" x="27" y="79.2891">g: float</text><ellipse cx="18" cy="91.9863" fill="none" rx="3" ry="3" style="stroke:#038048;stroke-width:1.0;"/><text fill="#000000" font-family="sans-serif" font-size="14" lengthAdjust="spacing" textLength="48" x="27" y="95.7773">b: float</text><ellipse cx="18" cy="108.4746" fill="none" rx="3" ry="3" style="stroke:#038048;stroke-width:1.0;"/><text fill="#000000" font-family="sans-serif" font-size="14" lengthAdjust="spacing" textLength="47" x="27" y="112.2656">a: float</text><line style="stroke:#181818;stroke-width:0.5;" x1="8" x2="250" y1="119.2188" y2="119.2188"/><ellipse cx="18" cy="132.9629" fill="#84BE84" rx="3" ry="3" style="stroke:#038048;stroke-width:1.0;"/><text fill="#000000" font-family="sans-serif" font-size="14" lengthAdjust="spacing" text-decoration="underline" textLength="94" x="27" y="136.7539">get(): Window</text><ellipse cx="18" cy="149.4512" fill="#84BE84" rx="3" ry="3" style="stroke:#038048;stroke-width:1.0;"/><text fill="#000000" font-family="sans-serif" font-size="14" lengthAdjust="spacing" text-decoration="underline" textLength="155" x="27" y="153.2422">changeScene(int): void</text><ellipse cx="18" cy="165.9395" fill="#84BE84" rx="3" ry="3" style="stroke:#038048;stroke-width:1.0;"/><text fill="#000000" font-family="sans-serif" font-size="14" lengthAdjust="spacing" text-decoration="underline" textLength="97" x="27" y="169.7305">getWidth(): int</text><ellipse cx="18" cy="182.4277" fill="#84BE84" rx="3" ry="3" style="stroke:#038048;stroke-width:1.0;"/><text fill="#000000" font-family="sans-serif" font-size="14" lengthAdjust="spacing" text-decoration="underline" textLength="103" x="27" y="186.2188">getHeight(): int</text><ellipse cx="18" cy="198.916" fill="#84BE84" rx="3" ry="3" style="stroke:#038048;stroke-width:1.0;"/><text fill="#000000" font-family="sans-serif" font-size="14" lengthAdjust="spacing" text-decoration="underline" textLength="124" x="27" y="202.707">setWidth(int): void</text><ellipse cx="18" cy="215.4043" fill="#84BE84" rx="3" ry="3" style="stroke:#038048;stroke-width:1.0;"/><text fill="#000000" font-family="sans-serif" font-size="14" lengthAdjust="spacing" text-decoration="underline" textLength="130" x="27" y="219.1953">setHeight(int): void</text><ellipse cx="18" cy="231.8926" fill="#84BE84" rx="3" ry="3" style="stroke:#038048;stroke-width:1.0;"/><text fill="#000000" font-family="sans-serif" font-size="14" lengthAdjust="spacing" text-decoration="underline" textLength="148" x="27" y="235.6836">getWindow(): Window</text><ellipse cx="18" cy="248.3809" fill="#84BE84" rx="3" ry="3" style="stroke:#038048;stroke-width:1.0;"/><text fill="#000000" font-family="sans-serif" font-size="14" lengthAdjust="spacing" text-decoration="underline" textLength="175" x="27" y="252.1719">setWindow(Window): void</text><ellipse cx="18" cy="264.8691" fill="#84BE84" rx="3" ry="3" style="stroke:#038048;stroke-width:1.0;"/><text fill="#000000" font-family="sans-serif" font-size="14" lengthAdjust="spacing" text-decoration="underline" textLength="120" x="27" y="268.6602">getScene(): Scene</text><ellipse cx="18" cy="281.3574" fill="#84BE84" rx="3" ry="3" style="stroke:#038048;stroke-width:1.0;"/><text fill="#000000" font-family="sans-serif" font-size="14" lengthAdjust="spacing" text-decoration="underline" textLength="195" x="27" y="285.1484">setCurrenScene(Scene): void</text><ellipse cx="18" cy="297.8457" fill="#84BE84" rx="3" ry="3" style="stroke:#038048;stroke-width:1.0;"/><text fill="#000000" font-family="sans-serif" font-size="14" lengthAdjust="spacing" textLength="71" x="27" y="301.6367">run(): void</text><ellipse cx="18" cy="314.334" fill="#84BE84" rx="3" ry="3" style="stroke:#038048;stroke-width:1.0;"/><text fill="#000000" font-family="sans-serif" font-size="14" lengthAdjust="spacing" textLength="69" x="27" y="318.125">init(): void</text><ellipse cx="18" cy="330.8223" fill="#84BE84" rx="3" ry="3" style="stroke:#038048;stroke-width:1.0;"/><text fill="#000000" font-family="sans-serif" font-size="14" lengthAdjust="spacing" textLength="78" x="27" y="334.6133">loop(): void</text><ellipse cx="18" cy="347.3105" fill="#84BE84" rx="3" ry="3" style="stroke:#038048;stroke-width:1.0;"/><text fill="#000000" font-family="sans-serif" font-size="14" lengthAdjust="spacing" textLength="111" x="27" y="351.1016">getTitle(): String</text><ellipse cx="18" cy="363.7988" fill="#84BE84" rx="3" ry="3" style="stroke:#038048;stroke-width:1.0;"/><text fill="#000000" font-family="sans-serif" font-size="14" lengthAdjust="spacing" textLength="155" x="27" y="367.5898">getGlfwWindow(): long</text><ellipse cx="18" cy="380.2871" fill="#84BE84" rx="3" ry="3" style="stroke:#038048;stroke-width:1.0;"/><text fill="#000000" font-family="sans-serif" font-size="14" lengthAdjust="spacing" textLength="171" x="27" y="384.0781">isFadeToBlack(): boolean</text><ellipse cx="18" cy="396.7754" fill="#84BE84" rx="3" ry="3" style="stroke:#038048;stroke-width:1.0;"/><text fill="#000000" font-family="sans-serif" font-size="14" lengthAdjust="spacing" textLength="209" x="27" y="400.5664">setFadeToBlack(boolean): void</text><ellipse cx="18" cy="413.2637" fill="#84BE84" rx="3" ry="3" style="stroke:#038048;stroke-width:1.0;"/><text fill="#000000" font-family="sans-serif" font-size="14" lengthAdjust="spacing" text-decoration="underline" textLength="191" x="27" y="417.0547">getImguiLayer(): ImGuiLayer</text><ellipse cx="18" cy="429.752" fill="#84BE84" rx="3" ry="3" style="stroke:#038048;stroke-width:1.0;"/><text fill="#000000" font-family="sans-serif" font-size="14" lengthAdjust="spacing" textLength="218" x="27" y="433.543">setImguiLayer(ImGuiLayer): void</text><ellipse cx="18" cy="446.2402" fill="#84BE84" rx="3" ry="3" style="stroke:#038048;stroke-width:1.0;"/><text fill="#000000" font-family="sans-serif" font-size="14" lengthAdjust="spacing" text-decoration="underline" textLength="210" x="27" y="450.0313">getFramebuffer(): Framebuffer</text><ellipse cx="18" cy="462.7285" fill="#84BE84" rx="3" ry="3" style="stroke:#038048;stroke-width:1.0;"/><text fill="#000000" font-family="sans-serif" font-size="14" lengthAdjust="spacing" text-decoration="underline" textLength="168" x="27" y="466.5195">getCurrenScene(): Scene</text><ellipse cx="18" cy="479.2168" fill="#84BE84" rx="3" ry="3" style="stroke:#038048;stroke-width:1.0;"/><text fill="#000000" font-family="sans-serif" font-size="14" lengthAdjust="spacing" text-decoration="underline" textLength="197" x="27" y="483.0078">getTargetAspectRatio(): float</text></g></a><text fill="#888888" font-family="sans-serif" font-size="10" lengthAdjust="spacing" textLength="182" x="37.5" y="506.6289">UMLDoclet 2.1.0, PlantUML 1.2022.14</text><!--SRC=[XPJRIiGm48RlVOf145QKiefNYmWUM1KKn0DUg1VPTjeEfZCbcLLKV7VJxMhhjjPUvF3Frp-P2Ga0W4S5DWNwqiHuWwLnHiK12-DQ24DE2G8MfRv1IcWJlweMgBa4UQ77rdWFw_kUtd6oitTmJvp8woClXV515fQAa3DYN0VZeJMFQXWU7kf1b6jXdvxWO-5SVLjk0gaLeusITPHPHp6hoeTNenH_XjzHHviJg1ViYSUvuGnlOcGS4Mj0NuIIVgDxIZIlt0BOJvmXPRd-ZVXlay6b_8_H_pkgqXfCqFzGTJVeLzSX88j1lzlnt3dacboqguvRRiwZZaXCsbMjIDbLmqvkIMsz4tN4sQ_OgKrVcyojjCFafoR1Mpco9dwkmZCHYuOR8gJGHfRnmRAS5zcSBimRkihnl3XTpdwPjg266BITkd0tPlCqhNrRqtw-NVc1CwggPrne3ts9iLu7MIg-kIAVoxkChEWW5QcwkykB4ubjU2rsevrel0rNrh065JPUq7cISAXV]--></g></svg>