<?xml version="1.0" encoding="UTF-8" standalone="no"?><svg xmlns="http://www.w3.org/2000/svg" xmlns:xlink="http://www.w3.org/1999/xlink" contentStyleType="text/css" height="671px" preserveAspectRatio="none" style="width:281px;height:671px;background:#FFFFFF;" version="1.1" viewBox="0 0 281 671" width="281px" zoomAndPan="magnify"><defs/><g><!--class game.engine.Window--><a href="Window.html" target="_top" title="Window.html" xlink:actuate="onRequest" xlink:href="Window.html" xlink:show="new" xlink:title="Window.html" xlink:type="simple"><g id="elem_game.engine.Window"><rect codeLine="5" fill="#F1F1F1" height="515.9375" id="game.engine.Window" rx="2.5" ry="2.5" style="stroke:#181818;stroke-width:0.5;" width="267" x="7" y="129.75"/><ellipse cx="104.75" cy="148.8828" fill="#ADD1B2" rx="11" ry="11" style="stroke:#181818;stroke-width:1.0;"/><path d="M107.2231,155.0259 Q106.6421,155.3247 106.0029,155.4741 Q105.3638,155.6235 104.6582,155.6235 Q102.1514,155.6235 100.8315,153.9717 Q99.5117,152.3198 99.5117,149.1987 Q99.5117,146.0693 100.8315,144.4175 Q102.1514,142.7656 104.6582,142.7656 Q105.3638,142.7656 106.0112,142.915 Q106.6587,143.0645 107.2231,143.3633 L107.2231,146.0859 Q106.5923,145.5049 105.9988,145.2351 Q105.4053,144.9653 104.7744,144.9653 Q103.4297,144.9653 102.7449,146.032 Q102.0601,147.0986 102.0601,149.1987 Q102.0601,151.2905 102.7449,152.3572 Q103.4297,153.4238 104.7744,153.4238 Q105.4053,153.4238 105.9988,153.1541 Q106.5923,152.8843 107.2231,152.3032 Z " fill="#000000"/><text fill="#000000" font-family="sans-serif" font-size="14" lengthAdjust="spacing" textLength="54" x="129.75" y="148.2852">Window</text><text fill="#000000" font-family="sans-serif" font-size="10" lengthAdjust="spacing" textLength="63" x="125.25" y="160.9063">game.engine</text><line style="stroke:#181818;stroke-width:0.5;" x1="8" x2="273" y1="168.0156" y2="168.0156"/><ellipse cx="18" cy="181.7598" fill="none" rx="3" ry="3" style="stroke:#038048;stroke-width:1.0;"/><text fill="#000000" font-family="sans-serif" font-size="14" lengthAdjust="spacing" textLength="45" x="27" y="185.5508">r: float</text><ellipse cx="18" cy="198.248" fill="none" rx="3" ry="3" style="stroke:#038048;stroke-width:1.0;"/><text fill="#000000" font-family="sans-serif" font-size="14" lengthAdjust="spacing" textLength="48" x="27" y="202.0391">g: float</text><ellipse cx="18" cy="214.7363" fill="none" rx="3" ry="3" style="stroke:#038048;stroke-width:1.0;"/><text fill="#000000" font-family="sans-serif" font-size="14" lengthAdjust="spacing" textLength="48" x="27" y="218.5273">b: float</text><ellipse cx="18" cy="231.2246" fill="none" rx="3" ry="3" style="stroke:#038048;stroke-width:1.0;"/><text fill="#000000" font-family="sans-serif" font-size="14" lengthAdjust="spacing" textLength="47" x="27" y="235.0156">a: float</text><line style="stroke:#181818;stroke-width:0.5;" x1="8" x2="273" y1="241.9688" y2="241.9688"/><ellipse cx="18" cy="255.7129" fill="#84BE84" rx="3" ry="3" style="stroke:#038048;stroke-width:1.0;"/><text fill="#000000" font-family="sans-serif" font-size="14" lengthAdjust="spacing" text-decoration="underline" textLength="94" x="27" y="259.5039">get(): Window</text><ellipse cx="18" cy="272.2012" fill="#84BE84" rx="3" ry="3" style="stroke:#038048;stroke-width:1.0;"/><text fill="#000000" font-family="sans-serif" font-size="14" lengthAdjust="spacing" text-decoration="underline" textLength="241" x="27" y="275.9922">changeScene(SceneInitializer): void</text><ellipse cx="18" cy="288.6895" fill="#84BE84" rx="3" ry="3" style="stroke:#038048;stroke-width:1.0;"/><text fill="#000000" font-family="sans-serif" font-size="14" lengthAdjust="spacing" text-decoration="underline" textLength="97" x="27" y="292.4805">getWidth(): int</text><ellipse cx="18" cy="305.1777" fill="#84BE84" rx="3" ry="3" style="stroke:#038048;stroke-width:1.0;"/><text fill="#000000" font-family="sans-serif" font-size="14" lengthAdjust="spacing" text-decoration="underline" textLength="103" x="27" y="308.9688">getHeight(): int</text><ellipse cx="18" cy="321.666" fill="#84BE84" rx="3" ry="3" style="stroke:#038048;stroke-width:1.0;"/><text fill="#000000" font-family="sans-serif" font-size="14" lengthAdjust="spacing" text-decoration="underline" textLength="124" x="27" y="325.457">setWidth(int): void</text><ellipse cx="18" cy="338.1543" fill="#84BE84" rx="3" ry="3" style="stroke:#038048;stroke-width:1.0;"/><text fill="#000000" font-family="sans-serif" font-size="14" lengthAdjust="spacing" text-decoration="underline" textLength="130" x="27" y="341.9453">setHeight(int): void</text><ellipse cx="18" cy="354.6426" fill="#84BE84" rx="3" ry="3" style="stroke:#038048;stroke-width:1.0;"/><text fill="#000000" font-family="sans-serif" font-size="14" lengthAdjust="spacing" text-decoration="underline" textLength="148" x="27" y="358.4336">getWindow(): Window</text><ellipse cx="18" cy="371.1309" fill="#84BE84" rx="3" ry="3" style="stroke:#038048;stroke-width:1.0;"/><text fill="#000000" font-family="sans-serif" font-size="14" lengthAdjust="spacing" text-decoration="underline" textLength="175" x="27" y="374.9219">setWindow(Window): void</text><ellipse cx="18" cy="387.6191" fill="#84BE84" rx="3" ry="3" style="stroke:#038048;stroke-width:1.0;"/><text fill="#000000" font-family="sans-serif" font-size="14" lengthAdjust="spacing" text-decoration="underline" textLength="120" x="27" y="391.4102">getScene(): Scene</text><ellipse cx="18" cy="404.1074" fill="#84BE84" rx="3" ry="3" style="stroke:#038048;stroke-width:1.0;"/><text fill="#000000" font-family="sans-serif" font-size="14" lengthAdjust="spacing" text-decoration="underline" textLength="195" x="27" y="407.8984">setCurrenScene(Scene): void</text><ellipse cx="18" cy="420.5957" fill="#84BE84" rx="3" ry="3" style="stroke:#038048;stroke-width:1.0;"/><text fill="#000000" font-family="sans-serif" font-size="14" lengthAdjust="spacing" textLength="71" x="27" y="424.3867">run(): void</text><ellipse cx="18" cy="437.084" fill="#84BE84" rx="3" ry="3" style="stroke:#038048;stroke-width:1.0;"/><text fill="#000000" font-family="sans-serif" font-size="14" lengthAdjust="spacing" textLength="69" x="27" y="440.875">init(): void</text><ellipse cx="18" cy="453.5723" fill="#84BE84" rx="3" ry="3" style="stroke:#038048;stroke-width:1.0;"/><text fill="#000000" font-family="sans-serif" font-size="14" lengthAdjust="spacing" textLength="78" x="27" y="457.3633">loop(): void</text><ellipse cx="18" cy="470.0605" fill="#84BE84" rx="3" ry="3" style="stroke:#038048;stroke-width:1.0;"/><text fill="#000000" font-family="sans-serif" font-size="14" lengthAdjust="spacing" textLength="111" x="27" y="473.8516">getTitle(): String</text><ellipse cx="18" cy="486.5488" fill="#84BE84" rx="3" ry="3" style="stroke:#038048;stroke-width:1.0;"/><text fill="#000000" font-family="sans-serif" font-size="14" lengthAdjust="spacing" textLength="155" x="27" y="490.3398">getGlfwWindow(): long</text><ellipse cx="18" cy="503.0371" fill="#84BE84" rx="3" ry="3" style="stroke:#038048;stroke-width:1.0;"/><text fill="#000000" font-family="sans-serif" font-size="14" lengthAdjust="spacing" textLength="171" x="27" y="506.8281">isFadeToBlack(): boolean</text><ellipse cx="18" cy="519.5254" fill="#84BE84" rx="3" ry="3" style="stroke:#038048;stroke-width:1.0;"/><text fill="#000000" font-family="sans-serif" font-size="14" lengthAdjust="spacing" textLength="209" x="27" y="523.3164">setFadeToBlack(boolean): void</text><ellipse cx="18" cy="536.0137" fill="#84BE84" rx="3" ry="3" style="stroke:#038048;stroke-width:1.0;"/><text fill="#000000" font-family="sans-serif" font-size="14" lengthAdjust="spacing" text-decoration="underline" textLength="191" x="27" y="539.8047">getImguiLayer(): ImGuiLayer</text><ellipse cx="18" cy="552.502" fill="#84BE84" rx="3" ry="3" style="stroke:#038048;stroke-width:1.0;"/><text fill="#000000" font-family="sans-serif" font-size="14" lengthAdjust="spacing" textLength="218" x="27" y="556.293">setImguiLayer(ImGuiLayer): void</text><ellipse cx="18" cy="568.9902" fill="#84BE84" rx="3" ry="3" style="stroke:#038048;stroke-width:1.0;"/><text fill="#000000" font-family="sans-serif" font-size="14" lengthAdjust="spacing" text-decoration="underline" textLength="210" x="27" y="572.7813">getFramebuffer(): Framebuffer</text><ellipse cx="18" cy="585.4785" fill="#84BE84" rx="3" ry="3" style="stroke:#038048;stroke-width:1.0;"/><text fill="#000000" font-family="sans-serif" font-size="14" lengthAdjust="spacing" text-decoration="underline" textLength="168" x="27" y="589.2695">getCurrenScene(): Scene</text><ellipse cx="18" cy="601.9668" fill="#84BE84" rx="3" ry="3" style="stroke:#038048;stroke-width:1.0;"/><text fill="#000000" font-family="sans-serif" font-size="14" lengthAdjust="spacing" text-decoration="underline" textLength="197" x="27" y="605.7578">getTargetAspectRatio(): float</text><ellipse cx="18" cy="618.4551" fill="#84BE84" rx="3" ry="3" style="stroke:#038048;stroke-width:1.0;"/><text fill="#000000" font-family="sans-serif" font-size="14" lengthAdjust="spacing" text-decoration="underline" textLength="158" x="27" y="622.2461">getCurrentTime(): float</text><ellipse cx="18" cy="634.9434" fill="#84BE84" rx="3" ry="3" style="stroke:#038048;stroke-width:1.0;"/><text fill="#000000" font-family="sans-serif" font-size="14" lengthAdjust="spacing" textLength="233" x="27" y="638.7344">onNotify(GameObject, Event): void</text></g></a><!--class game.observers.Observer--><a href="../observers/Observer.html" target="_top" title="../observers/Observer.html" xlink:actuate="onRequest" xlink:href="../observers/Observer.html" xlink:show="new" xlink:title="../observers/Observer.html" xlink:type="simple"><g id="elem_game.observers.Observer"><rect codeLine="36" fill="#F1F1F1" height="62.7539" id="game.observers.Observer" rx="2.5" ry="2.5" style="stroke:#181818;stroke-width:0.5;" width="259" x="11" y="7"/><ellipse cx="97.75" cy="26.1328" fill="#B4A7E5" rx="11" ry="11" style="stroke:#181818;stroke-width:1.0;"/><path d="M94.1777,22.3979 L94.1777,20.2397 L101.5571,20.2397 L101.5571,22.3979 L99.0918,22.3979 L99.0918,30.4746 L101.5571,30.4746 L101.5571,32.6328 L94.1777,32.6328 L94.1777,30.4746 L96.6431,30.4746 L96.6431,22.3979 Z " fill="#000000"/><text fill="#000000" font-family="sans-serif" font-size="14" font-style="italic" lengthAdjust="spacing" textLength="62" x="125.75" y="25.5352">Observer</text><text fill="#000000" font-family="sans-serif" font-size="10" font-style="italic" lengthAdjust="spacing" textLength="77" x="118.25" y="38.1563">game.observers</text><line style="stroke:#181818;stroke-width:0.5;" x1="12" x2="269" y1="45.2656" y2="45.2656"/><ellipse cx="22" cy="59.0098" fill="#84BE84" rx="3" ry="3" style="stroke:#038048;stroke-width:1.0;"/><text fill="#000000" font-family="sans-serif" font-size="14" font-style="italic" lengthAdjust="spacing" textLength="233" x="31" y="62.8008">onNotify(GameObject, Event): void</text></g></a><!--reverse link game.observers.Observer to game.engine.Window--><g id="link_game.observers.Observer_game.engine.Window"><path codeLine="40" d="M140.5,91.51 C140.5,102.93 140.5,115.75 140.5,129.5 " fill="none" id="game.observers.Observer-backto-game.engine.Window" style="stroke:#181818;stroke-width:1.0;stroke-dasharray:7.0,7.0;"/><polygon fill="none" points="133.5,91.71,140.5,71.71,147.5,91.71,133.5,91.71" style="stroke:#181818;stroke-width:1.0;"/></g><text fill="#888888" font-family="sans-serif" font-size="10" lengthAdjust="spacing" textLength="182" x="42.5" y="661.3555">UMLDoclet 2.1.0, PlantUML 1.2022.14</text><!--SRC=[bLHTRvim57tVhxYgD2bJAhUTzXHLbVRLB5AtJckdFdHzC701RyOtifrKMPh_lciWWGI2D1u0dtjyxWVu000uz61aWMukOxp3kRJIamL31bzn67AL860nzoj85Uh47Q85-fmOBl5OI-VWvDAflpYvU7Vre4n2pxzC3PnVPPnAeCcKmHEG3bfhKP7XyR5w4RalzDCJh4lbS8tj159DqZT8ra6Y3Y8FaRNpqgjumzlHZzvCe4hO4uzpQJAyYz7WgBpFZF9AQkx6yhubgQHVzK4bFW_IoXp9-mLLbllZ5BSLuV3nL6udD4WhAmez3dRhTgpgCQXN3OKfvKk_siU5jMXQupjK7Dk56NL0nKFkeffetaMvadlbTLM9jyfaUx6fJf-RpZMrmyfTomJlwOEMyPyGZeWqIjCmk8KsfOuFZcLMP0jr8rTeW-AicDQhFT4MgM4CobvRFYZH8aqhtTQodz-U_C0t2jEJbk_ltHnZ_uDX2lo1yr8fyz0Bx3B7PBwHL-bgDEK2RwFVB7eAdvUu_tDkAhVWNnPjohxJSepRoA5TeZtq3AfnrzZ63XBRJUmTGfpjyBCjthMIjOoSjpBsc_-i-LZconSXUjoijaKCdK9A51u_lzvyebYpyRuL5-By5BvhQJoZy3feAk8ZyGy0]--></g></svg>