<?xml version="1.0" encoding="UTF-8" standalone="no"?><svg xmlns="http://www.w3.org/2000/svg" xmlns:xlink="http://www.w3.org/1999/xlink" contentStyleType="text/css" height="436px" preserveAspectRatio="none" style="width:730px;height:436px;background:#FFFFFF;" version="1.1" viewBox="0 0 730 436" width="730px" zoomAndPan="magnify"><defs/><g><!--cluster game.editor--><g id="cluster_game.editor"><path d="M8.5,6 L94.5,6 A3.75,3.75 0 0 1 97,8.5 L104,28.4883 L720.5,28.4883 A2.5,2.5 0 0 1 723,30.9883 L723,408.36 A2.5,2.5 0 0 1 720.5,410.86 L8.5,410.86 A2.5,2.5 0 0 1 6,408.36 L6,8.5 A2.5,2.5 0 0 1 8.5,6 " fill="none" style="stroke:#000000;stroke-width:1.5;"/><line style="stroke:#000000;stroke-width:1.5;" x1="6" x2="104" y1="28.4883" y2="28.4883"/><text fill="#000000" font-family="sans-serif" font-size="14" font-weight="bold" lengthAdjust="spacing" textLength="85" x="10" y="21.5352">game.editor</text></g><!--class game.editor.JImGui--><a href="JImGui.html" target="_top" title="JImGui.html" xlink:actuate="onRequest" xlink:href="JImGui.html" xlink:show="new" xlink:title="JImGui.html" xlink:type="simple"><g id="elem_game.editor.JImGui"><rect codeLine="3" fill="#F1F1F1" height="212.8828" id="game.editor.JImGui" rx="2.5" ry="2.5" style="stroke:#181818;stroke-width:0.5;" width="377" x="21.5" y="41"/><ellipse cx="183.75" cy="57" fill="#ADD1B2" rx="11" ry="11" style="stroke:#181818;stroke-width:1.0;"/><path d="M186.2231,63.1431 Q185.6421,63.4419 185.0029,63.5913 Q184.3638,63.7407 183.6582,63.7407 Q181.1514,63.7407 179.8315,62.0889 Q178.5117,60.437 178.5117,57.3159 Q178.5117,54.1865 179.8315,52.5347 Q181.1514,50.8828 183.6582,50.8828 Q184.3638,50.8828 185.0112,51.0322 Q185.6587,51.1816 186.2231,51.4805 L186.2231,54.2031 Q185.5923,53.6221 184.9988,53.3523 Q184.4053,53.0825 183.7744,53.0825 Q182.4297,53.0825 181.7449,54.1492 Q181.0601,55.2158 181.0601,57.3159 Q181.0601,59.4077 181.7449,60.4744 Q182.4297,61.541 183.7744,61.541 Q184.4053,61.541 184.9988,61.2712 Q185.5923,61.0015 186.2231,60.4204 Z " fill="#000000"/><text fill="#000000" font-family="sans-serif" font-size="14" lengthAdjust="spacing" textLength="44" x="204.25" y="62.291">JImGui</text><line style="stroke:#181818;stroke-width:0.5;" x1="22.5" x2="397.5" y1="73" y2="73"/><line style="stroke:#181818;stroke-width:0.5;" x1="22.5" x2="397.5" y1="81" y2="81"/><ellipse cx="32.5" cy="94.7441" fill="#84BE84" rx="3" ry="3" style="stroke:#038048;stroke-width:1.0;"/><text fill="#000000" font-family="sans-serif" font-size="14" lengthAdjust="spacing" text-decoration="underline" textLength="273" x="41.5" y="98.5352">drawVec2Control(String, Vector2f): void</text><ellipse cx="32.5" cy="111.2324" fill="#84BE84" rx="3" ry="3" style="stroke:#038048;stroke-width:1.0;"/><text fill="#000000" font-family="sans-serif" font-size="14" lengthAdjust="spacing" text-decoration="underline" textLength="312" x="41.5" y="115.0234">drawVec2Control(String, Vector2f, float): void</text><ellipse cx="32.5" cy="127.7207" fill="#84BE84" rx="3" ry="3" style="stroke:#038048;stroke-width:1.0;"/><text fill="#000000" font-family="sans-serif" font-size="14" lengthAdjust="spacing" text-decoration="underline" textLength="351" x="41.5" y="131.5117">drawVec2Control(String, Vector2f, float, float): void</text><ellipse cx="32.5" cy="144.209" fill="#84BE84" rx="3" ry="3" style="stroke:#038048;stroke-width:1.0;"/><text fill="#000000" font-family="sans-serif" font-size="14" lengthAdjust="spacing" text-decoration="underline" textLength="273" x="41.5" y="148">drawVec3Control(String, Vector3f): void</text><ellipse cx="32.5" cy="160.6973" fill="#84BE84" rx="3" ry="3" style="stroke:#038048;stroke-width:1.0;"/><text fill="#000000" font-family="sans-serif" font-size="14" lengthAdjust="spacing" text-decoration="underline" textLength="312" x="41.5" y="164.4883">drawVec3Control(String, Vector3f, float): void</text><ellipse cx="32.5" cy="177.1855" fill="#84BE84" rx="3" ry="3" style="stroke:#038048;stroke-width:1.0;"/><text fill="#000000" font-family="sans-serif" font-size="14" lengthAdjust="spacing" text-decoration="underline" textLength="351" x="41.5" y="180.9766">drawVec3Control(String, Vector3f, float, float): void</text><ellipse cx="32.5" cy="193.6738" fill="#84BE84" rx="3" ry="3" style="stroke:#038048;stroke-width:1.0;"/><text fill="#000000" font-family="sans-serif" font-size="14" lengthAdjust="spacing" text-decoration="underline" textLength="195" x="41.5" y="197.4648">dragFloat(String, float): float</text><ellipse cx="32.5" cy="210.1621" fill="#84BE84" rx="3" ry="3" style="stroke:#038048;stroke-width:1.0;"/><text fill="#000000" font-family="sans-serif" font-size="14" lengthAdjust="spacing" text-decoration="underline" textLength="153" x="41.5" y="213.9531">dragInt(String, int): int</text><ellipse cx="32.5" cy="226.6504" fill="#84BE84" rx="3" ry="3" style="stroke:#038048;stroke-width:1.0;"/><text fill="#000000" font-family="sans-serif" font-size="14" lengthAdjust="spacing" text-decoration="underline" textLength="266" x="41.5" y="230.4414">colorPicker4(String, Vector4f): boolean</text><ellipse cx="32.5" cy="243.1387" fill="#84BE84" rx="3" ry="3" style="stroke:#038048;stroke-width:1.0;"/><text fill="#000000" font-family="sans-serif" font-size="14" lengthAdjust="spacing" text-decoration="underline" textLength="216" x="41.5" y="246.9297">inputText(String, String): String</text></g></a><!--class game.editor.PropertiesWindow--><a href="PropertiesWindow.html" target="_top" title="PropertiesWindow.html" xlink:actuate="onRequest" xlink:href="PropertiesWindow.html" xlink:show="new" xlink:title="PropertiesWindow.html" xlink:type="simple"><g id="elem_game.editor.PropertiesWindow"><rect codeLine="16" fill="#F1F1F1" height="130.4414" id="game.editor.PropertiesWindow" rx="2.5" ry="2.5" style="stroke:#181818;stroke-width:0.5;" width="273" x="433.5" y="82.22"/><ellipse cx="503.75" cy="98.22" fill="#ADD1B2" rx="11" ry="11" style="stroke:#181818;stroke-width:1.0;"/><path d="M506.2231,104.3631 Q505.6421,104.6619 505.0029,104.8113 Q504.3638,104.9607 503.6582,104.9607 Q501.1514,104.9607 499.8315,103.3089 Q498.5117,101.657 498.5117,98.5359 Q498.5117,95.4065 499.8315,93.7547 Q501.1514,92.1028 503.6582,92.1028 Q504.3638,92.1028 505.0112,92.2522 Q505.6587,92.4016 506.2231,92.7005 L506.2231,95.4231 Q505.5923,94.8421 504.9988,94.5723 Q504.4053,94.3025 503.7744,94.3025 Q502.4297,94.3025 501.7449,95.3692 Q501.0601,96.4358 501.0601,98.5359 Q501.0601,100.6277 501.7449,101.6944 Q502.4297,102.761 503.7744,102.761 Q504.4053,102.761 504.9988,102.4912 Q505.5923,102.2215 506.2231,101.6404 Z " fill="#000000"/><text fill="#000000" font-family="sans-serif" font-size="14" lengthAdjust="spacing" textLength="124" x="524.25" y="103.511">PropertiesWindow</text><line style="stroke:#181818;stroke-width:0.5;" x1="434.5" x2="705.5" y1="114.22" y2="114.22"/><line style="stroke:#181818;stroke-width:0.5;" x1="434.5" x2="705.5" y1="122.22" y2="122.22"/><ellipse cx="444.5" cy="135.9641" fill="#84BE84" rx="3" ry="3" style="stroke:#038048;stroke-width:1.0;"/><text fill="#000000" font-family="sans-serif" font-size="14" lengthAdjust="spacing" textLength="237" x="453.5" y="139.7552">PropertiesWindow(PickingTexture)</text><ellipse cx="444.5" cy="152.4524" fill="#84BE84" rx="3" ry="3" style="stroke:#038048;stroke-width:1.0;"/><text fill="#000000" font-family="sans-serif" font-size="14" lengthAdjust="spacing" textLength="174" x="453.5" y="156.2434">update(float, Scene): void</text><ellipse cx="444.5" cy="168.9407" fill="#84BE84" rx="3" ry="3" style="stroke:#038048;stroke-width:1.0;"/><text fill="#000000" font-family="sans-serif" font-size="14" lengthAdjust="spacing" textLength="86" x="453.5" y="172.7317">imgui(): void</text><ellipse cx="444.5" cy="185.429" fill="#84BE84" rx="3" ry="3" style="stroke:#038048;stroke-width:1.0;"/><text fill="#000000" font-family="sans-serif" font-size="14" lengthAdjust="spacing" textLength="209" x="453.5" y="189.22">setActiveGameObject(int): void</text><ellipse cx="444.5" cy="201.9173" fill="#84BE84" rx="3" ry="3" style="stroke:#038048;stroke-width:1.0;"/><text fill="#000000" font-family="sans-serif" font-size="14" lengthAdjust="spacing" textLength="247" x="453.5" y="205.7083">getActiveGameObject(): GameObject</text></g></a><!--class game.editor.GameViewWindow--><a href="GameViewWindow.html" target="_top" title="GameViewWindow.html" xlink:actuate="onRequest" xlink:href="GameViewWindow.html" xlink:show="new" xlink:title="GameViewWindow.html" xlink:type="simple"><g id="elem_game.editor.GameViewWindow"><rect codeLine="24" fill="#F1F1F1" height="80.9766" id="game.editor.GameViewWindow" rx="2.5" ry="2.5" style="stroke:#181818;stroke-width:0.5;" width="256" x="82" y="313.88"/><ellipse cx="143.25" cy="329.88" fill="#ADD1B2" rx="11" ry="11" style="stroke:#181818;stroke-width:1.0;"/><path d="M145.7231,336.0231 Q145.1421,336.3219 144.5029,336.4713 Q143.8638,336.6207 143.1582,336.6207 Q140.6514,336.6207 139.3315,334.9689 Q138.0117,333.317 138.0117,330.1959 Q138.0117,327.0665 139.3315,325.4147 Q140.6514,323.7628 143.1582,323.7628 Q143.8638,323.7628 144.5112,323.9122 Q145.1587,324.0616 145.7231,324.3605 L145.7231,327.0831 Q145.0923,326.5021 144.4988,326.2323 Q143.9053,325.9625 143.2744,325.9625 Q141.9297,325.9625 141.2449,327.0292 Q140.5601,328.0958 140.5601,330.1959 Q140.5601,332.2877 141.2449,333.3544 Q141.9297,334.421 143.2744,334.421 Q143.9053,334.421 144.4988,334.1512 Q145.0923,333.8815 145.7231,333.3004 Z " fill="#000000"/><text fill="#000000" font-family="sans-serif" font-size="14" lengthAdjust="spacing" textLength="125" x="163.75" y="335.171">GameViewWindow</text><line style="stroke:#181818;stroke-width:0.5;" x1="83" x2="337" y1="345.88" y2="345.88"/><line style="stroke:#181818;stroke-width:0.5;" x1="83" x2="337" y1="353.88" y2="353.88"/><ellipse cx="93" cy="367.6241" fill="#84BE84" rx="3" ry="3" style="stroke:#038048;stroke-width:1.0;"/><text fill="#000000" font-family="sans-serif" font-size="14" lengthAdjust="spacing" textLength="86" x="102" y="371.4152">imgui(): void</text><ellipse cx="93" cy="384.1124" fill="#84BE84" rx="3" ry="3" style="stroke:#038048;stroke-width:1.0;"/><text fill="#000000" font-family="sans-serif" font-size="14" lengthAdjust="spacing" textLength="230" x="102" y="387.9034">getWantCaptureMouse(): boolean</text></g></a><text fill="#888888" font-family="sans-serif" font-size="10" lengthAdjust="spacing" textLength="182" x="267" y="426.528">UMLDoclet 2.1.0, PlantUML 1.2022.14</text><!--SRC=[hLF1Ji904Btx5NCnAO4q2foy6Om48v44XGFXi6odTNMxq-nkmOJmx-xQ2e8j2SeUEjFfUszVNxS008gbQ3B64HBNXHW9InhM5nTGBYwPCV0mIFkvWDciQC9NcyhvtE7WnreRowpW6sX6cgqcoDizKbQJ3CPM2vMqmCsSV3jktC2IHFH7TWjYISoUHUGKhKwrLYV-7_ii5avydUJUmxOgtwIlUeGrK3kEK9xXhZLuJfBqIF1trDq3krsVs8988bCrRA6ot3xZnsw_eZfYqMnvcyEpEjAKeRO2pLIeY5Rkr1wEgizlyn0MUFjkB-yZrzZOH-TPn2m6PUvZZWghSc-ADCb5KFd8eBtbLYonxtw-fyMRIoSeSlsDJIgm3hYxgq_4OoO2LziyzWSrQHpnxRnCcR8zblbSXfGR32e-QMcaB2uWYnfY8bzUXeztn2LQQ8VNuLKBHj8fkYbSBb4RGIfeV080]--></g></svg>