<?xml version="1.0" encoding="UTF-8" standalone="no"?><svg xmlns="http://www.w3.org/2000/svg" xmlns:xlink="http://www.w3.org/1999/xlink" contentStyleType="text/css" height="436px" preserveAspectRatio="none" style="width:930px;height:436px;background:#FFFFFF;" version="1.1" viewBox="0 0 930 436" width="930px" zoomAndPan="magnify"><defs/><g><!--cluster game.editor--><g id="cluster_game.editor"><path d="M8.5,6 L94.5,6 A3.75,3.75 0 0 1 97,8.5 L104,28.4883 L920.5,28.4883 A2.5,2.5 0 0 1 923,30.9883 L923,408.36 A2.5,2.5 0 0 1 920.5,410.86 L8.5,410.86 A2.5,2.5 0 0 1 6,408.36 L6,8.5 A2.5,2.5 0 0 1 8.5,6 " fill="none" style="stroke:#000000;stroke-width:1.5;"/><line style="stroke:#000000;stroke-width:1.5;" x1="6" x2="104" y1="28.4883" y2="28.4883"/><text fill="#000000" font-family="sans-serif" font-size="14" font-weight="bold" lengthAdjust="spacing" textLength="85" x="10" y="21.5352">game.editor</text></g><!--class game.editor.JImGui--><a href="JImGui.html" target="_top" title="JImGui.html" xlink:actuate="onRequest" xlink:href="JImGui.html" xlink:show="new" xlink:title="JImGui.html" xlink:type="simple"><g id="elem_game.editor.JImGui"><rect codeLine="3" fill="#F1F1F1" height="212.8828" id="game.editor.JImGui" rx="2.5" ry="2.5" style="stroke:#181818;stroke-width:0.5;" width="377" x="21.5" y="41"/><ellipse cx="183.75" cy="57" fill="#ADD1B2" rx="11" ry="11" style="stroke:#181818;stroke-width:1.0;"/><path d="M186.2231,63.1431 Q185.6421,63.4419 185.0029,63.5913 Q184.3638,63.7407 183.6582,63.7407 Q181.1514,63.7407 179.8315,62.0889 Q178.5117,60.437 178.5117,57.3159 Q178.5117,54.1865 179.8315,52.5347 Q181.1514,50.8828 183.6582,50.8828 Q184.3638,50.8828 185.0112,51.0322 Q185.6587,51.1816 186.2231,51.4805 L186.2231,54.2031 Q185.5923,53.6221 184.9988,53.3523 Q184.4053,53.0825 183.7744,53.0825 Q182.4297,53.0825 181.7449,54.1492 Q181.0601,55.2158 181.0601,57.3159 Q181.0601,59.4077 181.7449,60.4744 Q182.4297,61.541 183.7744,61.541 Q184.4053,61.541 184.9988,61.2712 Q185.5923,61.0015 186.2231,60.4204 Z " fill="#000000"/><text fill="#000000" font-family="sans-serif" font-size="14" lengthAdjust="spacing" textLength="44" x="204.25" y="62.291">JImGui</text><line style="stroke:#181818;stroke-width:0.5;" x1="22.5" x2="397.5" y1="73" y2="73"/><line style="stroke:#181818;stroke-width:0.5;" x1="22.5" x2="397.5" y1="81" y2="81"/><ellipse cx="32.5" cy="94.7441" fill="#84BE84" rx="3" ry="3" style="stroke:#038048;stroke-width:1.0;"/><text fill="#000000" font-family="sans-serif" font-size="14" lengthAdjust="spacing" text-decoration="underline" textLength="273" x="41.5" y="98.5352">drawVec2Control(String, Vector2f): void</text><ellipse cx="32.5" cy="111.2324" fill="#84BE84" rx="3" ry="3" style="stroke:#038048;stroke-width:1.0;"/><text fill="#000000" font-family="sans-serif" font-size="14" lengthAdjust="spacing" text-decoration="underline" textLength="312" x="41.5" y="115.0234">drawVec2Control(String, Vector2f, float): void</text><ellipse cx="32.5" cy="127.7207" fill="#84BE84" rx="3" ry="3" style="stroke:#038048;stroke-width:1.0;"/><text fill="#000000" font-family="sans-serif" font-size="14" lengthAdjust="spacing" text-decoration="underline" textLength="351" x="41.5" y="131.5117">drawVec2Control(String, Vector2f, float, float): void</text><ellipse cx="32.5" cy="144.209" fill="#84BE84" rx="3" ry="3" style="stroke:#038048;stroke-width:1.0;"/><text fill="#000000" font-family="sans-serif" font-size="14" lengthAdjust="spacing" text-decoration="underline" textLength="273" x="41.5" y="148">drawVec3Control(String, Vector3f): void</text><ellipse cx="32.5" cy="160.6973" fill="#84BE84" rx="3" ry="3" style="stroke:#038048;stroke-width:1.0;"/><text fill="#000000" font-family="sans-serif" font-size="14" lengthAdjust="spacing" text-decoration="underline" textLength="312" x="41.5" y="164.4883">drawVec3Control(String, Vector3f, float): void</text><ellipse cx="32.5" cy="177.1855" fill="#84BE84" rx="3" ry="3" style="stroke:#038048;stroke-width:1.0;"/><text fill="#000000" font-family="sans-serif" font-size="14" lengthAdjust="spacing" text-decoration="underline" textLength="351" x="41.5" y="180.9766">drawVec3Control(String, Vector3f, float, float): void</text><ellipse cx="32.5" cy="193.6738" fill="#84BE84" rx="3" ry="3" style="stroke:#038048;stroke-width:1.0;"/><text fill="#000000" font-family="sans-serif" font-size="14" lengthAdjust="spacing" text-decoration="underline" textLength="195" x="41.5" y="197.4648">dragFloat(String, float): float</text><ellipse cx="32.5" cy="210.1621" fill="#84BE84" rx="3" ry="3" style="stroke:#038048;stroke-width:1.0;"/><text fill="#000000" font-family="sans-serif" font-size="14" lengthAdjust="spacing" text-decoration="underline" textLength="153" x="41.5" y="213.9531">dragInt(String, int): int</text><ellipse cx="32.5" cy="226.6504" fill="#84BE84" rx="3" ry="3" style="stroke:#038048;stroke-width:1.0;"/><text fill="#000000" font-family="sans-serif" font-size="14" lengthAdjust="spacing" text-decoration="underline" textLength="266" x="41.5" y="230.4414">colorPicker4(String, Vector4f): boolean</text><ellipse cx="32.5" cy="243.1387" fill="#84BE84" rx="3" ry="3" style="stroke:#038048;stroke-width:1.0;"/><text fill="#000000" font-family="sans-serif" font-size="14" lengthAdjust="spacing" text-decoration="underline" textLength="216" x="41.5" y="246.9297">inputText(String, String): String</text></g></a><!--class game.editor.MenuBar--><a href="MenuBar.html" target="_top" title="MenuBar.html" xlink:actuate="onRequest" xlink:href="MenuBar.html" xlink:show="new" xlink:title="MenuBar.html" xlink:type="simple"><g id="elem_game.editor.MenuBar"><rect codeLine="16" fill="#F1F1F1" height="64.4883" id="game.editor.MenuBar" rx="2.5" ry="2.5" style="stroke:#181818;stroke-width:0.5;" width="112" x="434" y="115.2"/><ellipse cx="458" cy="131.2" fill="#ADD1B2" rx="11" ry="11" style="stroke:#181818;stroke-width:1.0;"/><path d="M460.4731,137.3431 Q459.8921,137.6419 459.2529,137.7913 Q458.6138,137.9407 457.9082,137.9407 Q455.4014,137.9407 454.0815,136.2889 Q452.7617,134.637 452.7617,131.5159 Q452.7617,128.3865 454.0815,126.7347 Q455.4014,125.0828 457.9082,125.0828 Q458.6138,125.0828 459.2612,125.2322 Q459.9087,125.3816 460.4731,125.6805 L460.4731,128.4031 Q459.8423,127.8221 459.2488,127.5523 Q458.6553,127.2825 458.0244,127.2825 Q456.6797,127.2825 455.9949,128.3492 Q455.3101,129.4158 455.3101,131.5159 Q455.3101,133.6077 455.9949,134.6744 Q456.6797,135.741 458.0244,135.741 Q458.6553,135.741 459.2488,135.4712 Q459.8423,135.2015 460.4731,134.6204 Z " fill="#000000"/><text fill="#000000" font-family="sans-serif" font-size="14" lengthAdjust="spacing" textLength="60" x="474" y="136.491">MenuBar</text><line style="stroke:#181818;stroke-width:0.5;" x1="435" x2="545" y1="147.2" y2="147.2"/><line style="stroke:#181818;stroke-width:0.5;" x1="435" x2="545" y1="155.2" y2="155.2"/><ellipse cx="445" cy="168.9441" fill="#84BE84" rx="3" ry="3" style="stroke:#038048;stroke-width:1.0;"/><text fill="#000000" font-family="sans-serif" font-size="14" lengthAdjust="spacing" textLength="86" x="454" y="172.7352">imgui(): void</text></g></a><!--class game.editor.PropertiesWindow--><a href="PropertiesWindow.html" target="_top" title="PropertiesWindow.html" xlink:actuate="onRequest" xlink:href="PropertiesWindow.html" xlink:show="new" xlink:title="PropertiesWindow.html" xlink:type="simple"><g id="elem_game.editor.PropertiesWindow"><rect codeLine="20" fill="#F1F1F1" height="196.3945" id="game.editor.PropertiesWindow" rx="2.5" ry="2.5" style="stroke:#181818;stroke-width:0.5;" width="325" x="581.5" y="49.24"/><ellipse cx="677.75" cy="65.24" fill="#ADD1B2" rx="11" ry="11" style="stroke:#181818;stroke-width:1.0;"/><path d="M680.2231,71.3831 Q679.6421,71.6819 679.0029,71.8313 Q678.3638,71.9807 677.6582,71.9807 Q675.1514,71.9807 673.8315,70.3289 Q672.5117,68.677 672.5117,65.5559 Q672.5117,62.4265 673.8315,60.7747 Q675.1514,59.1228 677.6582,59.1228 Q678.3638,59.1228 679.0112,59.2722 Q679.6587,59.4216 680.2231,59.7205 L680.2231,62.4431 Q679.5923,61.8621 678.9988,61.5923 Q678.4053,61.3225 677.7744,61.3225 Q676.4297,61.3225 675.7449,62.3892 Q675.0601,63.4558 675.0601,65.5559 Q675.0601,67.6477 675.7449,68.7144 Q676.4297,69.781 677.7744,69.781 Q678.4053,69.781 678.9988,69.5112 Q679.5923,69.2415 680.2231,68.6604 Z " fill="#000000"/><text fill="#000000" font-family="sans-serif" font-size="14" lengthAdjust="spacing" textLength="124" x="698.25" y="70.531">PropertiesWindow</text><line style="stroke:#181818;stroke-width:0.5;" x1="582.5" x2="905.5" y1="81.24" y2="81.24"/><line style="stroke:#181818;stroke-width:0.5;" x1="582.5" x2="905.5" y1="89.24" y2="89.24"/><ellipse cx="592.5" cy="102.9841" fill="#84BE84" rx="3" ry="3" style="stroke:#038048;stroke-width:1.0;"/><text fill="#000000" font-family="sans-serif" font-size="14" lengthAdjust="spacing" textLength="237" x="601.5" y="106.7752">PropertiesWindow(PickingTexture)</text><ellipse cx="592.5" cy="119.4724" fill="#84BE84" rx="3" ry="3" style="stroke:#038048;stroke-width:1.0;"/><text fill="#000000" font-family="sans-serif" font-size="14" lengthAdjust="spacing" textLength="86" x="601.5" y="123.2634">imgui(): void</text><ellipse cx="592.5" cy="135.9607" fill="#84BE84" rx="3" ry="3" style="stroke:#038048;stroke-width:1.0;"/><text fill="#000000" font-family="sans-serif" font-size="14" lengthAdjust="spacing" textLength="274" x="601.5" y="139.7517">setActiveGameObject(GameObject): void</text><ellipse cx="592.5" cy="152.449" fill="#84BE84" rx="3" ry="3" style="stroke:#038048;stroke-width:1.0;"/><text fill="#000000" font-family="sans-serif" font-size="14" lengthAdjust="spacing" textLength="247" x="601.5" y="156.24">getActiveGameObject(): GameObject</text><ellipse cx="592.5" cy="168.9373" fill="#84BE84" rx="3" ry="3" style="stroke:#038048;stroke-width:1.0;"/><text fill="#000000" font-family="sans-serif" font-size="14" lengthAdjust="spacing" textLength="119" x="601.5" y="172.7283">setInactive(): void</text><ellipse cx="592.5" cy="185.4255" fill="#84BE84" rx="3" ry="3" style="stroke:#038048;stroke-width:1.0;"/><text fill="#000000" font-family="sans-serif" font-size="14" lengthAdjust="spacing" textLength="299" x="601.5" y="189.2166">getActiveGameObjects(): List&lt;GameObject&gt;</text><ellipse cx="592.5" cy="201.9138" fill="#84BE84" rx="3" ry="3" style="stroke:#038048;stroke-width:1.0;"/><text fill="#000000" font-family="sans-serif" font-size="14" lengthAdjust="spacing" textLength="137" x="601.5" y="205.7048">clearSelected(): void</text><ellipse cx="592.5" cy="218.4021" fill="#84BE84" rx="3" ry="3" style="stroke:#038048;stroke-width:1.0;"/><text fill="#000000" font-family="sans-serif" font-size="14" lengthAdjust="spacing" textLength="273" x="601.5" y="222.1931">addActiveGameObjet(GameObject): void</text><ellipse cx="592.5" cy="234.8904" fill="#84BE84" rx="3" ry="3" style="stroke:#038048;stroke-width:1.0;"/><text fill="#000000" font-family="sans-serif" font-size="14" lengthAdjust="spacing" textLength="246" x="601.5" y="238.6814">getPickingTexture(): PickingTexture</text></g></a><!--class game.editor.GameViewWindow--><a href="GameViewWindow.html" target="_top" title="GameViewWindow.html" xlink:actuate="onRequest" xlink:href="GameViewWindow.html" xlink:show="new" xlink:title="GameViewWindow.html" xlink:type="simple"><g id="elem_game.editor.GameViewWindow"><rect codeLine="32" fill="#F1F1F1" height="80.9766" id="game.editor.GameViewWindow" rx="2.5" ry="2.5" style="stroke:#181818;stroke-width:0.5;" width="256" x="82" y="313.88"/><ellipse cx="143.25" cy="329.88" fill="#ADD1B2" rx="11" ry="11" style="stroke:#181818;stroke-width:1.0;"/><path d="M145.7231,336.0231 Q145.1421,336.3219 144.5029,336.4713 Q143.8638,336.6207 143.1582,336.6207 Q140.6514,336.6207 139.3315,334.9689 Q138.0117,333.317 138.0117,330.1959 Q138.0117,327.0665 139.3315,325.4147 Q140.6514,323.7628 143.1582,323.7628 Q143.8638,323.7628 144.5112,323.9122 Q145.1587,324.0616 145.7231,324.3605 L145.7231,327.0831 Q145.0923,326.5021 144.4988,326.2323 Q143.9053,325.9625 143.2744,325.9625 Q141.9297,325.9625 141.2449,327.0292 Q140.5601,328.0958 140.5601,330.1959 Q140.5601,332.2877 141.2449,333.3544 Q141.9297,334.421 143.2744,334.421 Q143.9053,334.421 144.4988,334.1512 Q145.0923,333.8815 145.7231,333.3004 Z " fill="#000000"/><text fill="#000000" font-family="sans-serif" font-size="14" lengthAdjust="spacing" textLength="125" x="163.75" y="335.171">GameViewWindow</text><line style="stroke:#181818;stroke-width:0.5;" x1="83" x2="337" y1="345.88" y2="345.88"/><line style="stroke:#181818;stroke-width:0.5;" x1="83" x2="337" y1="353.88" y2="353.88"/><ellipse cx="93" cy="367.6241" fill="#84BE84" rx="3" ry="3" style="stroke:#038048;stroke-width:1.0;"/><text fill="#000000" font-family="sans-serif" font-size="14" lengthAdjust="spacing" textLength="86" x="102" y="371.4152">imgui(): void</text><ellipse cx="93" cy="384.1124" fill="#84BE84" rx="3" ry="3" style="stroke:#038048;stroke-width:1.0;"/><text fill="#000000" font-family="sans-serif" font-size="14" lengthAdjust="spacing" textLength="230" x="102" y="387.9034">getWantCaptureMouse(): boolean</text></g></a><!--class game.editor.SceneHeirarchyWindow--><a href="SceneHeirarchyWindow.html" target="_top" title="SceneHeirarchyWindow.html" xlink:actuate="onRequest" xlink:href="SceneHeirarchyWindow.html" xlink:show="new" xlink:title="SceneHeirarchyWindow.html" xlink:type="simple"><g id="elem_game.editor.SceneHeirarchyWindow"><rect codeLine="37" fill="#F1F1F1" height="64.4883" id="game.editor.SceneHeirarchyWindow" rx="2.5" ry="2.5" style="stroke:#181818;stroke-width:0.5;" width="191" x="373.5" y="322.13"/><ellipse cx="388.5" cy="338.13" fill="#ADD1B2" rx="11" ry="11" style="stroke:#181818;stroke-width:1.0;"/><path d="M390.9731,344.2731 Q390.3921,344.5719 389.7529,344.7213 Q389.1138,344.8707 388.4082,344.8707 Q385.9014,344.8707 384.5815,343.2189 Q383.2617,341.567 383.2617,338.4459 Q383.2617,335.3165 384.5815,333.6647 Q385.9014,332.0128 388.4082,332.0128 Q389.1138,332.0128 389.7612,332.1622 Q390.4087,332.3116 390.9731,332.6105 L390.9731,335.3331 Q390.3423,334.7521 389.7488,334.4823 Q389.1553,334.2125 388.5244,334.2125 Q387.1797,334.2125 386.4949,335.2792 Q385.8101,336.3458 385.8101,338.4459 Q385.8101,340.5377 386.4949,341.6044 Q387.1797,342.671 388.5244,342.671 Q389.1553,342.671 389.7488,342.4012 Q390.3423,342.1315 390.9731,341.5504 Z " fill="#000000"/><text fill="#000000" font-family="sans-serif" font-size="14" lengthAdjust="spacing" textLength="159" x="402.5" y="343.421">SceneHeirarchyWindow</text><line style="stroke:#181818;stroke-width:0.5;" x1="374.5" x2="563.5" y1="354.13" y2="354.13"/><line style="stroke:#181818;stroke-width:0.5;" x1="374.5" x2="563.5" y1="362.13" y2="362.13"/><ellipse cx="384.5" cy="375.8741" fill="#84BE84" rx="3" ry="3" style="stroke:#038048;stroke-width:1.0;"/><text fill="#000000" font-family="sans-serif" font-size="14" lengthAdjust="spacing" textLength="86" x="393.5" y="379.6652">imgui(): void</text></g></a><text fill="#888888" font-family="sans-serif" font-size="10" lengthAdjust="spacing" textLength="182" x="367" y="426.528">UMLDoclet 2.1.0, PlantUML 1.2022.14</text><!--SRC=[hLDHJy9037xtL_J5P0H257qonaGnAWOY2OeFX8VZLcPrt96x6sWC_zqU87DZ653kOUswVb-_Qpi002L6QCT28aJiLJ4afmry7Xp0yiXOM0ltZT5jGj3hBPpgYnl5_JxdmO_pQPrm96TG3esOTb7Mwbeve-EWumofg08SO_hQi7G64qtX7z4L6CPQkBsGxC9rKinrClmVUYyIThnETEFJLYpVeBdz1TLGAOQKH_1pGxxKiJPjaczeJdDoJtt71bh7ADG6DAbnuXxnFQsti0nSE2lSBB-hBLJ9bJ2yh4klU5lBD8eI2lAjMgDh6pr6umZjCwbGJvat7zfG89yM-6wmT7-jn61f6pdpJnRTfNGqmLl-Hny6hzp487KB8L41X1FJjxKA3INcW61RFkipcsJTUHgxoA8aJzXqCEOl61OJYp3C4czpjMmZFN4sidcQdhjBE5tDCXlOQLM-rJmBvUfYx0ktT6BdUlBRlIQa8r7X7P8HHhvyhEGKXV-olql3R0uD3BNsvgdLlDOy4mUrwd7rg0BjcALp50udQ2nf5PI-0000]--></g></svg>