<?xml version="1.0" encoding="UTF-8" standalone="no"?><svg xmlns="http://www.w3.org/2000/svg" xmlns:xlink="http://www.w3.org/1999/xlink" contentStyleType="text/css" height="96px" preserveAspectRatio="none" style="width:212px;height:96px;background:#FFFFFF;" version="1.1" viewBox="0 0 212 96" width="212px" zoomAndPan="magnify"><defs/><g><!--class game.editor.SceneHeirarchyWindow--><a href="SceneHeirarchyWindow.html" target="_top" title="SceneHeirarchyWindow.html" xlink:actuate="onRequest" xlink:href="SceneHeirarchyWindow.html" xlink:show="new" xlink:title="SceneHeirarchyWindow.html" xlink:type="simple"><g id="elem_game.editor.SceneHeirarchyWindow"><rect codeLine="5" fill="#F1F1F1" height="62.7539" id="game.editor.SceneHeirarchyWindow" rx="2.5" ry="2.5" style="stroke:#181818;stroke-width:0.5;" width="191" x="7" y="7"/><ellipse cx="22" cy="26.1328" fill="#ADD1B2" rx="11" ry="11" style="stroke:#181818;stroke-width:1.0;"/><path d="M24.4731,32.2759 Q23.8921,32.5747 23.2529,32.7241 Q22.6138,32.8735 21.9082,32.8735 Q19.4014,32.8735 18.0815,31.2217 Q16.7617,29.5698 16.7617,26.4487 Q16.7617,23.3193 18.0815,21.6675 Q19.4014,20.0156 21.9082,20.0156 Q22.6138,20.0156 23.2612,20.165 Q23.9087,20.3145 24.4731,20.6133 L24.4731,23.3359 Q23.8423,22.7549 23.2488,22.4851 Q22.6553,22.2153 22.0244,22.2153 Q20.6797,22.2153 19.9949,23.282 Q19.3101,24.3486 19.3101,26.4487 Q19.3101,28.5405 19.9949,29.6072 Q20.6797,30.6738 22.0244,30.6738 Q22.6553,30.6738 23.2488,30.4041 Q23.8423,30.1343 24.4731,29.5532 Z " fill="#000000"/><text fill="#000000" font-family="sans-serif" font-size="14" lengthAdjust="spacing" textLength="159" x="36" y="25.5352">SceneHeirarchyWindow</text><text fill="#000000" font-family="sans-serif" font-size="10" lengthAdjust="spacing" textLength="59" x="86" y="38.1563">game.editor</text><line style="stroke:#181818;stroke-width:0.5;" x1="8" x2="197" y1="45.2656" y2="45.2656"/><ellipse cx="18" cy="59.0098" fill="#84BE84" rx="3" ry="3" style="stroke:#038048;stroke-width:1.0;"/><text fill="#000000" font-family="sans-serif" font-size="14" lengthAdjust="spacing" textLength="86" x="27" y="62.8008">imgui(): void</text></g></a><text fill="#888888" font-family="sans-serif" font-size="10" lengthAdjust="spacing" textLength="182" x="11" y="86.4219">UMLDoclet 2.1.0, PlantUML 1.2022.14</text><!--SRC=[RP11Qq8n48Jl_ef1A2XAKEb9n9C73oqKf7XG3o5PVGl9xYD9BLRwtniV7egubsM_OPbX021JWTX8kRMEDjJQP8icY0hrgeo6FO5YMouuCWMV7scaqcZ57NV1vep-8lCFpQUlouqZeJLniiarbosBr- -ztEN9ybID3NckZdtOZ7-tUVQAtUuPDas9uN30jSjmcn77qnSFXdESbNs7V-y9IGeb75Llw_FzRQKkr0vcPcecOtm4AwLIl9mfPLOP3Fy0]--></g></svg>