<?xml version="1.0" encoding="UTF-8" standalone="no"?><svg xmlns="http://www.w3.org/2000/svg" xmlns:xlink="http://www.w3.org/1999/xlink" contentStyleType="text/css" height="279px" preserveAspectRatio="none" style="width:635px;height:279px;background:#FFFFFF;" version="1.1" viewBox="0 0 635 279" width="635px" zoomAndPan="magnify"><defs/><g><!--cluster game.util--><g id="cluster_game.util"><path d="M8.5,6 L76.5,6 A3.75,3.75 0 0 1 79,8.5 L86,28.4883 L625.5,28.4883 A2.5,2.5 0 0 1 628,30.9883 L628,250.89 A2.5,2.5 0 0 1 625.5,253.39 L8.5,253.39 A2.5,2.5 0 0 1 6,250.89 L6,8.5 A2.5,2.5 0 0 1 8.5,6 " fill="none" style="stroke:#000000;stroke-width:1.5;"/><line style="stroke:#000000;stroke-width:1.5;" x1="6" x2="86" y1="28.4883" y2="28.4883"/><text fill="#000000" font-family="sans-serif" font-size="14" font-weight="bold" lengthAdjust="spacing" textLength="67" x="10" y="21.5352">game.util</text></g><!--class game.util.AssetPool--><a href="AssetPool.html" target="_top" title="AssetPool.html" xlink:actuate="onRequest" xlink:href="AssetPool.html" xlink:show="new" xlink:title="AssetPool.html" xlink:type="simple"><g id="elem_game.util.AssetPool"><rect codeLine="3" fill="#F1F1F1" height="113.9531" id="game.util.AssetPool" rx="2.5" ry="2.5" style="stroke:#181818;stroke-width:0.5;" width="302" x="310" y="82.22"/><ellipse cx="423.25" cy="98.22" fill="#ADD1B2" rx="11" ry="11" style="stroke:#181818;stroke-width:1.0;"/><path d="M425.7231,104.3631 Q425.1421,104.6619 424.5029,104.8113 Q423.8638,104.9607 423.1582,104.9607 Q420.6514,104.9607 419.3315,103.3089 Q418.0117,101.657 418.0117,98.5359 Q418.0117,95.4065 419.3315,93.7547 Q420.6514,92.1028 423.1582,92.1028 Q423.8638,92.1028 424.5112,92.2522 Q425.1587,92.4016 425.7231,92.7005 L425.7231,95.4231 Q425.0923,94.8421 424.4988,94.5723 Q423.9053,94.3025 423.2744,94.3025 Q421.9297,94.3025 421.2449,95.3692 Q420.5601,96.4358 420.5601,98.5359 Q420.5601,100.6277 421.2449,101.6944 Q421.9297,102.761 423.2744,102.761 Q423.9053,102.761 424.4988,102.4912 Q425.0923,102.2215 425.7231,101.6404 Z " fill="#000000"/><text fill="#000000" font-family="sans-serif" font-size="14" lengthAdjust="spacing" textLength="67" x="443.75" y="103.511">AssetPool</text><line style="stroke:#181818;stroke-width:0.5;" x1="311" x2="611" y1="114.22" y2="114.22"/><line style="stroke:#181818;stroke-width:0.5;" x1="311" x2="611" y1="122.22" y2="122.22"/><ellipse cx="321" cy="135.9641" fill="#84BE84" rx="3" ry="3" style="stroke:#038048;stroke-width:1.0;"/><text fill="#000000" font-family="sans-serif" font-size="14" lengthAdjust="spacing" text-decoration="underline" textLength="177" x="330" y="139.7552">getShader(String): Shader</text><ellipse cx="321" cy="152.4524" fill="#84BE84" rx="3" ry="3" style="stroke:#038048;stroke-width:1.0;"/><text fill="#000000" font-family="sans-serif" font-size="14" lengthAdjust="spacing" text-decoration="underline" textLength="189" x="330" y="156.2434">getTexture(String): Texture</text><ellipse cx="321" cy="168.9407" fill="#84BE84" rx="3" ry="3" style="stroke:#038048;stroke-width:1.0;"/><text fill="#000000" font-family="sans-serif" font-size="14" lengthAdjust="spacing" text-decoration="underline" textLength="276" x="330" y="172.7317">addSpritesheet(String, Spritesheet): void</text><ellipse cx="321" cy="185.429" fill="#84BE84" rx="3" ry="3" style="stroke:#038048;stroke-width:1.0;"/><text fill="#000000" font-family="sans-serif" font-size="14" lengthAdjust="spacing" text-decoration="underline" textLength="235" x="330" y="189.22">getSpritesheet(String): Spritesheet</text></g></a><!--class game.util.Settings--><a href="Settings.html" target="_top" title="Settings.html" xlink:actuate="onRequest" xlink:href="Settings.html" xlink:show="new" xlink:title="Settings.html" xlink:type="simple"><g id="elem_game.util.Settings"><rect codeLine="10" fill="#F1F1F1" height="196.3945" id="game.util.Settings" rx="2.5" ry="2.5" style="stroke:#181818;stroke-width:0.5;" width="253" x="22.5" y="41"/><ellipse cx="117.25" cy="57" fill="#ADD1B2" rx="11" ry="11" style="stroke:#181818;stroke-width:1.0;"/><path d="M119.7231,63.1431 Q119.1421,63.4419 118.5029,63.5913 Q117.8638,63.7407 117.1582,63.7407 Q114.6514,63.7407 113.3315,62.0889 Q112.0117,60.437 112.0117,57.3159 Q112.0117,54.1865 113.3315,52.5347 Q114.6514,50.8828 117.1582,50.8828 Q117.8638,50.8828 118.5112,51.0322 Q119.1587,51.1816 119.7231,51.4805 L119.7231,54.2031 Q119.0923,53.6221 118.4988,53.3523 Q117.9053,53.0825 117.2744,53.0825 Q115.9297,53.0825 115.2449,54.1492 Q114.5601,55.2158 114.5601,57.3159 Q114.5601,59.4077 115.2449,60.4744 Q115.9297,61.541 117.2744,61.541 Q117.9053,61.541 118.4988,61.2712 Q119.0923,61.0015 119.7231,60.4204 Z " fill="#000000"/><text fill="#000000" font-family="sans-serif" font-size="14" lengthAdjust="spacing" textLength="55" x="137.75" y="62.291">Settings</text><line style="stroke:#181818;stroke-width:0.5;" x1="23.5" x2="274.5" y1="73" y2="73"/><ellipse cx="33.5" cy="86.7441" fill="none" rx="3" ry="3" style="stroke:#038048;stroke-width:1.0;"/><text fill="#000000" font-family="sans-serif" font-size="14" lengthAdjust="spacing" text-decoration="underline" textLength="134" x="42.5" y="90.5352">HOME_PATH: String</text><ellipse cx="33.5" cy="103.2324" fill="none" rx="3" ry="3" style="stroke:#038048;stroke-width:1.0;"/><text fill="#000000" font-family="sans-serif" font-size="14" lengthAdjust="spacing" text-decoration="underline" textLength="168" x="42.5" y="107.0234">RELEASE_BUILD: boolean</text><ellipse cx="33.5" cy="119.7207" fill="none" rx="3" ry="3" style="stroke:#038048;stroke-width:1.0;"/><text fill="#000000" font-family="sans-serif" font-size="14" lengthAdjust="spacing" text-decoration="underline" textLength="88" x="42.5" y="123.5117">tileSize: float</text><ellipse cx="33.5" cy="136.209" fill="none" rx="3" ry="3" style="stroke:#038048;stroke-width:1.0;"/><text fill="#000000" font-family="sans-serif" font-size="14" lengthAdjust="spacing" text-decoration="underline" textLength="124" x="42.5" y="140">GRID_WIDTH: float</text><ellipse cx="33.5" cy="152.6973" fill="none" rx="3" ry="3" style="stroke:#038048;stroke-width:1.0;"/><text fill="#000000" font-family="sans-serif" font-size="14" lengthAdjust="spacing" text-decoration="underline" textLength="130" x="42.5" y="156.4883">GRID_HEIGHT: float</text><ellipse cx="33.5" cy="169.1855" fill="none" rx="3" ry="3" style="stroke:#038048;stroke-width:1.0;"/><text fill="#000000" font-family="sans-serif" font-size="14" lengthAdjust="spacing" text-decoration="underline" textLength="181" x="42.5" y="172.9766">PROJECTION_HEIGHT: float</text><ellipse cx="33.5" cy="185.6738" fill="none" rx="3" ry="3" style="stroke:#038048;stroke-width:1.0;"/><text fill="#000000" font-family="sans-serif" font-size="14" lengthAdjust="spacing" text-decoration="underline" textLength="120" x="42.5" y="189.4648">DEBUG_DRAW: int</text><ellipse cx="33.5" cy="202.1621" fill="none" rx="3" ry="3" style="stroke:#038048;stroke-width:1.0;"/><text fill="#000000" font-family="sans-serif" font-size="14" lengthAdjust="spacing" text-decoration="underline" textLength="172" x="42.5" y="205.9531">LEVEL_JSON_PATH: String</text><ellipse cx="33.5" cy="218.6504" fill="none" rx="3" ry="3" style="stroke:#038048;stroke-width:1.0;"/><text fill="#000000" font-family="sans-serif" font-size="14" lengthAdjust="spacing" text-decoration="underline" textLength="227" x="42.5" y="222.4414">IMGUI_CONFIG_FILE_PATH: String</text><line style="stroke:#181818;stroke-width:0.5;" x1="23.5" x2="274.5" y1="229.3945" y2="229.3945"/></g></a><text fill="#888888" font-family="sans-serif" font-size="10" lengthAdjust="spacing" textLength="182" x="219.5" y="269.058">UMLDoclet 2.1.0, PlantUML 1.2022.14</text><!--SRC=[ZP5DQy9048Rl_egv59HAQ7lCBPerMOacvACUHC8s6NKX9f8TfLJyxrtRr4fBrBdCxF2yCyEx002bsA3QYWnXfIjZHxA0GwS3JMI5K0eifP22gYfWFZ_NnfesnMAXQRY8Wo91CZl2umefMeiSwsv4jInNFHE-t-ryZE-qg_5Nq3HQ52BFesqj2TKQaHfL7ovwUiI-alcL2__fJsV-Di_AurzF8YJIkDAM_9It777z2Ki3AtRrYgzTBLp8F6P5B1qatBDDUDDceoXROFrX6CaFD65PL89QA2VaTZhZzcdtJSvbt77Zws0G-cCsZBa_lGktsI1nKZkqPYR8ietos2lpqd6aXzvX4vyu2K-7_dJ4dNJ4lHPlcvzhKeObOGtBgZgbPEBPLLOWmOlnR3pr8IX4IReB3tkibQpARkyJ]--></g></svg>