<?xml version="1.0" encoding="UTF-8" standalone="no"?><svg xmlns="http://www.w3.org/2000/svg" xmlns:xlink="http://www.w3.org/1999/xlink" contentStyleType="text/css" height="196px" preserveAspectRatio="none" style="width:589px;height:196px;background:#FFFFFF;" version="1.1" viewBox="0 0 589 196" width="589px" zoomAndPan="magnify"><defs/><g><!--cluster game.util--><g id="cluster_game.util"><path d="M8.5,6 L76.5,6 A3.75,3.75 0 0 1 79,8.5 L86,28.4883 L579.5,28.4883 A2.5,2.5 0 0 1 582,30.9883 L582,168.45 A2.5,2.5 0 0 1 579.5,170.95 L8.5,170.95 A2.5,2.5 0 0 1 6,168.45 L6,8.5 A2.5,2.5 0 0 1 8.5,6 " fill="none" style="stroke:#000000;stroke-width:1.5;"/><line style="stroke:#000000;stroke-width:1.5;" x1="6" x2="86" y1="28.4883" y2="28.4883"/><text fill="#000000" font-family="sans-serif" font-size="14" font-weight="bold" lengthAdjust="spacing" textLength="67" x="10" y="21.5352">game.util</text></g><!--class game.util.AssetPool--><a href="AssetPool.html" target="_top" title="AssetPool.html" xlink:actuate="onRequest" xlink:href="AssetPool.html" xlink:show="new" xlink:title="AssetPool.html" xlink:type="simple"><g id="elem_game.util.AssetPool"><rect codeLine="3" fill="#F1F1F1" height="113.9531" id="game.util.AssetPool" rx="2.5" ry="2.5" style="stroke:#181818;stroke-width:0.5;" width="302" x="264" y="41"/><ellipse cx="377.25" cy="57" fill="#ADD1B2" rx="11" ry="11" style="stroke:#181818;stroke-width:1.0;"/><path d="M379.7231,63.1431 Q379.1421,63.4419 378.5029,63.5913 Q377.8638,63.7407 377.1582,63.7407 Q374.6514,63.7407 373.3315,62.0889 Q372.0117,60.437 372.0117,57.3159 Q372.0117,54.1865 373.3315,52.5347 Q374.6514,50.8828 377.1582,50.8828 Q377.8638,50.8828 378.5112,51.0322 Q379.1587,51.1816 379.7231,51.4805 L379.7231,54.2031 Q379.0923,53.6221 378.4988,53.3523 Q377.9053,53.0825 377.2744,53.0825 Q375.9297,53.0825 375.2449,54.1492 Q374.5601,55.2158 374.5601,57.3159 Q374.5601,59.4077 375.2449,60.4744 Q375.9297,61.541 377.2744,61.541 Q377.9053,61.541 378.4988,61.2712 Q379.0923,61.0015 379.7231,60.4204 Z " fill="#000000"/><text fill="#000000" font-family="sans-serif" font-size="14" lengthAdjust="spacing" textLength="67" x="397.75" y="62.291">AssetPool</text><line style="stroke:#181818;stroke-width:0.5;" x1="265" x2="565" y1="73" y2="73"/><line style="stroke:#181818;stroke-width:0.5;" x1="265" x2="565" y1="81" y2="81"/><ellipse cx="275" cy="94.7441" fill="#84BE84" rx="3" ry="3" style="stroke:#038048;stroke-width:1.0;"/><text fill="#000000" font-family="sans-serif" font-size="14" lengthAdjust="spacing" text-decoration="underline" textLength="177" x="284" y="98.5352">getShader(String): Shader</text><ellipse cx="275" cy="111.2324" fill="#84BE84" rx="3" ry="3" style="stroke:#038048;stroke-width:1.0;"/><text fill="#000000" font-family="sans-serif" font-size="14" lengthAdjust="spacing" text-decoration="underline" textLength="189" x="284" y="115.0234">getTexture(String): Texture</text><ellipse cx="275" cy="127.7207" fill="#84BE84" rx="3" ry="3" style="stroke:#038048;stroke-width:1.0;"/><text fill="#000000" font-family="sans-serif" font-size="14" lengthAdjust="spacing" text-decoration="underline" textLength="276" x="284" y="131.5117">addSpritesheet(String, Spritesheet): void</text><ellipse cx="275" cy="144.209" fill="#84BE84" rx="3" ry="3" style="stroke:#038048;stroke-width:1.0;"/><text fill="#000000" font-family="sans-serif" font-size="14" lengthAdjust="spacing" textLength="235" x="284" y="148">getSpritesheet(String): Spritesheet</text></g></a><!--class game.util.Settings--><a href="Settings.html" target="_top" title="Settings.html" xlink:actuate="onRequest" xlink:href="Settings.html" xlink:show="new" xlink:title="Settings.html" xlink:type="simple"><g id="elem_game.util.Settings"><rect codeLine="10" fill="#F1F1F1" height="97.4648" id="game.util.Settings" rx="2.5" ry="2.5" style="stroke:#181818;stroke-width:0.5;" width="207" x="22.5" y="49.24"/><ellipse cx="94.25" cy="65.24" fill="#ADD1B2" rx="11" ry="11" style="stroke:#181818;stroke-width:1.0;"/><path d="M96.7231,71.3831 Q96.1421,71.6819 95.5029,71.8313 Q94.8638,71.9807 94.1582,71.9807 Q91.6514,71.9807 90.3315,70.3289 Q89.0117,68.677 89.0117,65.5559 Q89.0117,62.4265 90.3315,60.7747 Q91.6514,59.1228 94.1582,59.1228 Q94.8638,59.1228 95.5112,59.2722 Q96.1587,59.4216 96.7231,59.7205 L96.7231,62.4431 Q96.0923,61.8621 95.4988,61.5923 Q94.9053,61.3225 94.2744,61.3225 Q92.9297,61.3225 92.2449,62.3892 Q91.5601,63.4558 91.5601,65.5559 Q91.5601,67.6477 92.2449,68.7144 Q92.9297,69.781 94.2744,69.781 Q94.9053,69.781 95.4988,69.5112 Q96.0923,69.2415 96.7231,68.6604 Z " fill="#000000"/><text fill="#000000" font-family="sans-serif" font-size="14" lengthAdjust="spacing" textLength="55" x="114.75" y="70.531">Settings</text><line style="stroke:#181818;stroke-width:0.5;" x1="23.5" x2="228.5" y1="81.24" y2="81.24"/><ellipse cx="33.5" cy="94.9841" fill="none" rx="3" ry="3" style="stroke:#038048;stroke-width:1.0;"/><text fill="#000000" font-family="sans-serif" font-size="14" lengthAdjust="spacing" text-decoration="underline" textLength="124" x="42.5" y="98.7752">GRID_WIDTH: float</text><ellipse cx="33.5" cy="111.4724" fill="none" rx="3" ry="3" style="stroke:#038048;stroke-width:1.0;"/><text fill="#000000" font-family="sans-serif" font-size="14" lengthAdjust="spacing" text-decoration="underline" textLength="130" x="42.5" y="115.2634">GRID_HEIGHT: float</text><ellipse cx="33.5" cy="127.9607" fill="none" rx="3" ry="3" style="stroke:#038048;stroke-width:1.0;"/><text fill="#000000" font-family="sans-serif" font-size="14" lengthAdjust="spacing" text-decoration="underline" textLength="181" x="42.5" y="131.7517">PROJECTION_HEIGHT: float</text><line style="stroke:#181818;stroke-width:0.5;" x1="23.5" x2="228.5" y1="138.7048" y2="138.7048"/></g></a><text fill="#888888" font-family="sans-serif" font-size="10" lengthAdjust="spacing" textLength="182" x="196.5" y="186.618">UMLDoclet 2.1.0, PlantUML 1.2022.14</text><!--SRC=[XP1FQm8n4CNlVegv59JAKdlqLhhYhcXTt2qzY9IG7NS3CP7CA8ButOrjwf-MjNEPoUFzmkC101YnGbeBYL3vAzgmqh1ljI2Cr888NeYGCsirpEVdEwfvfHSBxuQhsHCBLl80ZnLoNeiINJjdfqpLwSFtkzbVu8ut3Yz041e8KPRvsYb6gX4vK5suqlmNMwlA6_uhs1_ibEuYde73xofoPFPsyatydFyLCPobyUT76XT97vRQ2hxdImRfC2dk6xFPT3HuBTBfMuCzf0vBec5qiBJsjDuduzXAZGpFKIzwwaAcXM6lmiCM7IbhsfqZ]--></g></svg>