<?xml version="1.0" encoding="UTF-8" standalone="no"?><svg xmlns="http://www.w3.org/2000/svg" xmlns:xlink="http://www.w3.org/1999/xlink" contentStyleType="text/css" height="577px" preserveAspectRatio="none" style="width:1081px;height:577px;" version="1.1" viewBox="0 0 1081 577" width="1081px" zoomAndPan="magnify"><defs/><g><!--class game.renderer--><a href="game/renderer/package-summary.html" target="_top" title="game/renderer/package-summary.html" xlink:actuate="onRequest" xlink:href="game/renderer/package-summary.html" xlink:show="new" xlink:title="game/renderer/package-summary.html" xlink:type="simple"><g id="elem_game.renderer"><rect codeLine="39" fill="#F1F1F1" height="26.4883" id="game.renderer" rx="2.5" ry="2.5" style="stroke:#181818;stroke-width:0.5;" width="108" x="895" y="93.49"/><text fill="#000000" font-family="sans-serif" font-size="14" lengthAdjust="spacing" textLength="102" x="898" y="112.0252">game.renderer</text></g></a><!--class org.joml--><g id="elem_org.joml"><rect fill="#F1F1F1" height="26.4883" id="org.joml" rx="2.5" ry="2.5" style="stroke:#181818;stroke-width:0.5;" width="64" x="81" y="525.93"/><text fill="#000000" font-family="sans-serif" font-size="14" lengthAdjust="spacing" textLength="58" x="84" y="544.4652">org.joml</text></g><!--class game.engine--><a href="game/engine/package-summary.html" target="_top" title="game/engine/package-summary.html" xlink:actuate="onRequest" xlink:href="game/engine/package-summary.html" xlink:show="new" xlink:title="game/engine/package-summary.html" xlink:type="simple"><g id="elem_game.engine"><rect codeLine="41" fill="#F1F1F1" height="26.4883" id="game.engine" rx="2.5" ry="2.5" style="stroke:#181818;stroke-width:0.5;" width="95" x="513.5" y="179.98"/><text fill="#000000" font-family="sans-serif" font-size="14" lengthAdjust="spacing" textLength="89" x="516.5" y="198.5152">game.engine</text></g></a><!--class game.components--><a href="game/components/package-summary.html" target="_top" title="game/components/package-summary.html" xlink:actuate="onRequest" xlink:href="game/components/package-summary.html" xlink:show="new" xlink:title="game/components/package-summary.html" xlink:type="simple"><g id="elem_game.components"><rect codeLine="43" fill="#F1F1F1" height="26.4883" id="game.components" rx="2.5" ry="2.5" style="stroke:#181818;stroke-width:0.5;" width="133" x="507.5" y="352.96"/><text fill="#000000" font-family="sans-serif" font-size="14" lengthAdjust="spacing" textLength="127" x="510.5" y="371.4952">game.components</text></g></a><!--class game.util--><a href="game/util/package-summary.html" target="_top" title="game/util/package-summary.html" xlink:actuate="onRequest" xlink:href="game/util/package-summary.html" xlink:show="new" xlink:title="game/util/package-summary.html" xlink:type="simple"><g id="elem_game.util"><rect codeLine="45" fill="#F1F1F1" height="26.4883" id="game.util" rx="2.5" ry="2.5" style="stroke:#181818;stroke-width:0.5;" width="70" x="993" y="7"/><text fill="#000000" font-family="sans-serif" font-size="14" lengthAdjust="spacing" textLength="64" x="996" y="25.5352">game.util</text></g></a><!--class game.editor--><a href="game/editor/package-summary.html" target="_top" title="game/editor/package-summary.html" xlink:actuate="onRequest" xlink:href="game/editor/package-summary.html" xlink:show="new" xlink:title="game/editor/package-summary.html" xlink:type="simple"><g id="elem_game.editor"><rect codeLine="47" fill="#F1F1F1" height="26.4883" id="game.editor" rx="2.5" ry="2.5" style="stroke:#181818;stroke-width:0.5;" width="89" x="200.5" y="439.44"/><text fill="#000000" font-family="sans-serif" font-size="14" lengthAdjust="spacing" textLength="83" x="203.5" y="457.9752">game.editor</text></g></a><!--class com.google.gson--><g id="elem_com.google.gson"><rect fill="#F1F1F1" height="26.4883" id="com.google.gson" rx="2.5" ry="2.5" style="stroke:#181818;stroke-width:0.5;" width="125" x="324.5" y="439.44"/><text fill="#000000" font-family="sans-serif" font-size="14" lengthAdjust="spacing" textLength="119" x="327.5" y="457.9752">com.google.gson</text></g><!--class game.components.enums--><a href="game/components/enums/package-summary.html" target="_top" title="game/components/enums/package-summary.html" xlink:actuate="onRequest" xlink:href="game/components/enums/package-summary.html" xlink:show="new" xlink:title="game/components/enums/package-summary.html" xlink:type="simple"><g id="elem_game.components.enums"><rect codeLine="49" fill="#F1F1F1" height="26.4883" id="game.components.enums" rx="2.5" ry="2.5" style="stroke:#181818;stroke-width:0.5;" width="183" x="484.5" y="439.44"/><text fill="#000000" font-family="sans-serif" font-size="14" lengthAdjust="spacing" textLength="177" x="487.5" y="457.9752">game.components.enums</text></g></a><!--class game.scene--><a href="game/scene/package-summary.html" target="_top" title="game/scene/package-summary.html" xlink:actuate="onRequest" xlink:href="game/scene/package-summary.html" xlink:show="new" xlink:title="game/scene/package-summary.html" xlink:type="simple"><g id="elem_game.scene"><rect codeLine="51" fill="#F1F1F1" height="26.4883" id="game.scene" rx="2.5" ry="2.5" style="stroke:#181818;stroke-width:0.5;" width="87" x="848.5" y="266.47"/><text fill="#000000" font-family="sans-serif" font-size="14" lengthAdjust="spacing" textLength="81" x="851.5" y="285.0052">game.scene</text></g></a><!--class game.observers--><a href="game/observers/package-summary.html" target="_top" title="game/observers/package-summary.html" xlink:actuate="onRequest" xlink:href="game/observers/package-summary.html" xlink:show="new" xlink:title="game/observers/package-summary.html" xlink:type="simple"><g id="elem_game.observers"><rect codeLine="53" fill="#F1F1F1" height="26.4883" id="game.observers" rx="2.5" ry="2.5" style="stroke:#181818;stroke-width:0.5;" width="115" x="305.5" y="266.47"/><text fill="#000000" font-family="sans-serif" font-size="14" lengthAdjust="spacing" textLength="109" x="308.5" y="285.0052">game.observers</text></g></a><!--class game.observers.events--><a href="game/observers/events/package-summary.html" target="_top" title="game/observers/events/package-summary.html" xlink:actuate="onRequest" xlink:href="game/observers/events/package-summary.html" xlink:show="new" xlink:title="game/observers/events/package-summary.html" xlink:type="simple"><g id="elem_game.observers.events"><rect codeLine="55" fill="#F1F1F1" height="26.4883" id="game.observers.events" rx="2.5" ry="2.5" style="stroke:#181818;stroke-width:0.5;" width="163" x="308.5" y="352.96"/><text fill="#000000" font-family="sans-serif" font-size="14" lengthAdjust="spacing" textLength="157" x="311.5" y="371.4952">game.observers.events</text></g></a><!--class imgui.gl3--><g id="elem_imgui.gl3"><rect fill="#F1F1F1" height="26.4883" id="imgui.gl3" rx="2.5" ry="2.5" style="stroke:#181818;stroke-width:0.5;" width="71" x="630.5" y="266.47"/><text fill="#000000" font-family="sans-serif" font-size="14" lengthAdjust="spacing" textLength="65" x="633.5" y="285.0052">imgui.gl3</text></g><!--class imgui.glfw--><g id="elem_imgui.glfw"><rect fill="#F1F1F1" height="26.4883" id="imgui.glfw" rx="2.5" ry="2.5" style="stroke:#181818;stroke-width:0.5;" width="78" x="736" y="266.47"/><text fill="#000000" font-family="sans-serif" font-size="14" lengthAdjust="spacing" textLength="72" x="739" y="285.0052">imgui.glfw</text></g><!--class imgui--><g id="elem_imgui"><rect fill="#F1F1F1" height="26.4883" id="imgui" rx="2.5" ry="2.5" style="stroke:#181818;stroke-width:0.5;" width="45" x="222.5" y="525.93"/><text fill="#000000" font-family="sans-serif" font-size="14" lengthAdjust="spacing" textLength="39" x="225.5" y="544.4652">imgui</text></g><!--link game.renderer to org.joml--><g id="link_game.renderer_org.joml"><path codeLine="7" d="M894.57,111.79 C693.75,127.46 6,187.77 6,278.71 C6,278.71 6,278.71 6,367.2 C6,432.35 62.51,493.11 93.4,521.45 " fill="none" id="game.renderer-to-org.joml" style="stroke:#181818;stroke-width:1.0;"/><polygon fill="#181818" points="97,524.7,93.0053,515.6976,93.2906,521.3473,87.641,521.6326,97,524.7" style="stroke:#181818;stroke-width:1.0;"/></g><!--link game.renderer to game.engine--><g id="link_game.renderer_game.engine"><path codeLine="8" d="M894.78,117.67 C820.55,132.72 688.86,161.31 614.85,178.38 " fill="none" id="game.renderer-to-game.engine" style="stroke:#181818;stroke-width:1.0;"/><polygon fill="#181818" points="610.22,179.45,619.8906,181.3155,615.091,178.3215,618.085,173.522,610.22,179.45" style="stroke:#181818;stroke-width:1.0;"/></g><!--link game.engine to game.renderer--><g id="link_game.engine_game.renderer"><path codeLine="23" d="M608.71,183.69 C681.23,169.19 817.75,139.6 894.18,121.94 " fill="none" id="game.engine-to-game.renderer" style="stroke:#181818;stroke-width:1.0;"/><polygon fill="#181818" points="899.01,120.82,889.3394,118.9545,894.139,121.9485,891.145,126.748,899.01,120.82" style="stroke:#181818;stroke-width:1.0;"/></g><!--link game.renderer to game.components--><g id="link_game.renderer_game.components"><path codeLine="9" d="M946.09,120.33 C949.91,153.08 978.24,241.91 936,292.96 C899.42,337.16 742.08,354.55 647.07,361.23 " fill="none" id="game.renderer-to-game.components" style="stroke:#181818;stroke-width:1.0;"/><polygon fill="#181818" points="642.13,361.56,651.3832,364.9331,647.1182,361.217,650.8344,356.952,642.13,361.56" style="stroke:#181818;stroke-width:1.0;"/></g><!--link game.components to game.renderer--><g id="link_game.components_game.renderer"><path codeLine="14" d="M640.76,362.97 C743.3,357.86 930.65,341.73 971,292.96 C1011.09,244.5 987.6,162 966.25,125.74 " fill="none" id="game.components-to-game.renderer" style="stroke:#181818;stroke-width:1.0;"/><polygon fill="#181818" points="963.66,121.61,965.0852,131.3552,966.3305,125.8371,971.8486,127.0824,963.66,121.61" style="stroke:#181818;stroke-width:1.0;"/></g><!--link game.util to game.renderer--><g id="link_game.util_game.renderer"><path codeLine="10" d="M1016.34,33.71 C1002.69,48.31 980.01,72.57 964.79,88.85 " fill="none" id="game.util-to-game.renderer" style="stroke:#181818;stroke-width:1.0;"/><polygon fill="#181818" points="961.74,92.11,970.8056,88.261,965.1521,88.4552,964.9579,82.8017,961.74,92.11" style="stroke:#181818;stroke-width:1.0;"/></g><!--link game.util to game.components--><g id="link_game.util_game.components"><path codeLine="11" d="M1031.58,33.75 C1043.05,76.83 1074.13,220.33 1002,292.96 C953.51,341.77 756.42,357.7 647.4,362.83 " fill="none" id="game.util-to-game.components" style="stroke:#181818;stroke-width:1.0;"/><polygon fill="#181818" points="642.5,363.05,651.6733,366.6348,647.4948,362.8217,651.3079,358.6432,642.5,363.05" style="stroke:#181818;stroke-width:1.0;"/></g><!--link game.components to org.joml--><g id="link_game.components_org.joml"><path codeLine="12" d="M507.06,378.22 C398.96,396.21 196.6,430.76 183,439.44 C152.44,458.96 131.27,497.03 120.72,519.77 " fill="none" id="game.components-to-org.joml" style="stroke:#181818;stroke-width:1.0;"/><polygon fill="#181818" points="118.77,524.1,126.1187,517.5428,120.8272,519.5428,118.8271,514.2513,118.77,524.1" style="stroke:#181818;stroke-width:1.0;"/></g><!--link game.components to game.engine--><g id="link_game.components_game.engine"><path codeLine="13" d="M580.52,352.61 C585.82,322.82 580.56,247.91 571.22,212.86 " fill="none" id="game.components-to-game.engine" style="stroke:#181818;stroke-width:1.0;"/><polygon fill="#181818" points="569.86,208.25,568.5668,218.0136,571.2731,213.0461,576.2406,215.7525,569.86,208.25" style="stroke:#181818;stroke-width:1.0;"/></g><!--link game.engine to game.components--><g id="link_game.engine_game.components"><path codeLine="26" d="M554.89,206.79 C550.02,236.56 555.29,311.47 564.26,346.54 " fill="none" id="game.engine-to-game.components" style="stroke:#181818;stroke-width:1.0;"/><polygon fill="#181818" points="565.57,351.15,566.9513,341.3985,564.2002,346.3413,559.2573,343.5902,565.57,351.15" style="stroke:#181818;stroke-width:1.0;"/></g><!--link game.components to game.editor--><g id="link_game.components_game.editor"><path codeLine="15" d="M524.39,379.94 C462.87,395.74 358.52,422.54 296.25,438.53 " fill="none" id="game.components-to-game.editor" style="stroke:#181818;stroke-width:1.0;"/><polygon fill="#181818" points="291.45,439.76,301.1618,441.3972,296.2931,438.5171,299.1732,433.6483,291.45,439.76" style="stroke:#181818;stroke-width:1.0;"/></g><!--link game.components to com.google.gson--><g id="link_game.components_com.google.gson"><path codeLine="16" d="M546,379.85 C512.54,394.97 456.58,420.25 420.76,436.44 " fill="none" id="game.components-to-com.google.gson" style="stroke:#181818;stroke-width:1.0;"/><polygon fill="#181818" points="416.57,438.33,426.4187,438.2729,421.1272,436.2728,423.1272,430.9813,416.57,438.33" style="stroke:#181818;stroke-width:1.0;"/></g><!--link game.components to game.components.enums--><g id="link_game.components_game.components.enums"><path codeLine="17" d="M574.3,379.67 C574.63,393.64 575.17,416.47 575.55,432.67 " fill="none" id="game.components-to-game.components.enums" style="stroke:#181818;stroke-width:1.0;"/><polygon fill="#181818" points="575.67,437.66,579.4633,428.5709,575.5557,432.6613,571.4654,428.7538,575.67,437.66" style="stroke:#181818;stroke-width:1.0;"/></g><!--link game.scene to game.components--><g id="link_game.scene_game.components"><path codeLine="18" d="M848.12,292.37 C790.71,307.62 690.15,334.34 628.1,350.83 " fill="none" id="game.scene-to-game.components" style="stroke:#181818;stroke-width:1.0;"/><polygon fill="#181818" points="623.3,352.1,633.0251,353.6567,628.1326,350.817,630.9723,345.9245,623.3,352.1" style="stroke:#181818;stroke-width:1.0;"/></g><!--link game.scene to game.engine--><g id="link_game.scene_game.engine"><path codeLine="19" d="M852.31,266.03 C792.87,249.63 681.7,221.29 614.98,205.56 " fill="none" id="game.scene-to-game.engine" style="stroke:#181818;stroke-width:1.0;"/><polygon fill="#181818" points="610.14,204.43,617.9885,210.3799,615.0078,205.572,619.8157,202.5914,610.14,204.43" style="stroke:#181818;stroke-width:1.0;"/></g><!--link game.engine to game.scene--><g id="link_game.engine_game.scene"><path codeLine="24" d="M601.48,206.96 C662.28,223.67 776.09,252.66 841.98,268.18 " fill="none" id="game.engine-to-game.scene" style="stroke:#181818;stroke-width:1.0;"/><polygon fill="#181818" points="846.73,269.3,838.8815,263.3501,841.8622,268.158,837.0543,271.1386,846.73,269.3" style="stroke:#181818;stroke-width:1.0;"/></g><!--link game.scene to game.renderer--><g id="link_game.scene_game.renderer"><path codeLine="20" d="M896.2,266.12 C906.13,236.34 931.1,161.43 942.79,126.37 " fill="none" id="game.scene-to-game.renderer" style="stroke:#181818;stroke-width:1.0;"/><polygon fill="#181818" points="944.33,121.74,937.6826,129.0072,942.7446,126.482,945.2698,131.5439,944.33,121.74" style="stroke:#181818;stroke-width:1.0;"/></g><!--link game.engine to org.joml--><g id="link_game.engine_org.joml"><path codeLine="21" d="M513.1,193.55 C446.38,194.99 324.61,206.49 244,266.47 C156.95,331.24 125,469.15 115.98,519.38 " fill="none" id="game.engine-to-org.joml" style="stroke:#181818;stroke-width:1.0;"/><polygon fill="#181818" points="115.16,524.11,120.6469,515.9312,116.0191,519.1844,112.7659,514.5566,115.16,524.11" style="stroke:#181818;stroke-width:1.0;"/></g><!--link game.engine to game.observers--><g id="link_game.engine_game.observers"><path codeLine="22" d="M521.95,206.87 C482.46,221.93 423.31,247.07 389.09,263.26 " fill="none" id="game.engine-to-game.observers" style="stroke:#181818;stroke-width:1.0;"/><polygon fill="#181818" points="384.78,265.32,394.6248,265.0366,389.2887,263.1587,391.1667,257.8226,384.78,265.32" style="stroke:#181818;stroke-width:1.0;"/></g><!--link game.observers to game.engine--><g id="link_game.observers_game.engine"><path codeLine="31" d="M402.84,265.98 C442.64,250.88 501.79,225.74 535.7,209.58 " fill="none" id="game.observers-to-game.engine" style="stroke:#181818;stroke-width:1.0;"/><polygon fill="#181818" points="539.96,207.53,530.1149,207.8013,535.4486,209.6858,533.5641,215.0195,539.96,207.53" style="stroke:#181818;stroke-width:1.0;"/></g><!--link game.engine to game.observers.events--><g id="link_game.engine_game.observers.events"><path codeLine="25" d="M548.43,206.79 C518.16,237.06 441.24,313.97 406.95,348.26 " fill="none" id="game.engine-to-game.observers.events" style="stroke:#181818;stroke-width:1.0;"/><polygon fill="#181818" points="403.66,351.54,412.8452,347.9859,407.1884,347.9973,407.177,342.3405,403.66,351.54" style="stroke:#181818;stroke-width:1.0;"/></g><!--link game.engine to imgui.gl3--><g id="link_game.engine_imgui.gl3"><path codeLine="27" d="M576.49,206.69 C594.79,221.42 625.3,245.96 645.53,262.24 " fill="none" id="game.engine-to-imgui.gl3" style="stroke:#181818;stroke-width:1.0;"/><polygon fill="#181818" points="649.26,265.24,644.7779,256.4701,645.3724,262.0957,639.7469,262.6902,649.26,265.24" style="stroke:#181818;stroke-width:1.0;"/></g><!--link game.engine to imgui.glfw--><g id="link_game.engine_imgui.glfw"><path codeLine="28" d="M593.04,206.87 C631.49,222.05 695.9,247.48 736.87,263.66 " fill="none" id="game.engine-to-imgui.glfw" style="stroke:#181818;stroke-width:1.0;"/><polygon fill="#181818" points="741.34,265.42,734.4506,258.3818,736.6927,263.5754,731.4992,265.8175,741.34,265.42" style="stroke:#181818;stroke-width:1.0;"/></g><!--link game.engine to game.editor--><g id="link_game.engine_game.editor"><path codeLine="29" d="M513.04,198.26 C434.03,206.65 283.64,228.42 250,266.47 C208.23,313.71 217.28,396.25 231.48,433.06 " fill="none" id="game.engine-to-game.editor" style="stroke:#181818;stroke-width:1.0;"/><polygon fill="#181818" points="233.4,437.58,233.5572,427.7324,231.4425,432.9791,226.1958,430.8644,233.4,437.58" style="stroke:#181818;stroke-width:1.0;"/></g><!--link game.editor to game.engine--><g id="link_game.editor_game.engine"><path codeLine="34" d="M250.75,438.97 C253.49,405.92 240.81,316.44 285,266.47 C314.61,232.98 434.69,212.09 506.65,201.85 " fill="none" id="game.editor-to-game.engine" style="stroke:#181818;stroke-width:1.0;"/><polygon fill="#181818" points="511.53,201.16,502.0657,198.4347,506.5774,201.8471,503.165,206.3588,511.53,201.16" style="stroke:#181818;stroke-width:1.0;"/></g><!--link game.engine to com.google.gson--><g id="link_game.engine_com.google.gson"><path codeLine="30" d="M513.16,199.9 C442.41,209.4 315.29,231.02 288,266.47 C276.36,281.59 257.38,314.88 291,379.44 C304.32,405.03 331.26,424.05 353.22,436.14 " fill="none" id="game.engine-to-com.google.gson" style="stroke:#181818;stroke-width:1.0;"/><polygon fill="#181818" points="357.35,438.35,351.2951,430.5822,352.9394,435.9948,347.5268,437.6392,357.35,438.35" style="stroke:#181818;stroke-width:1.0;"/></g><!--link game.observers to game.observers.events--><g id="link_game.observers_game.observers.events"><path codeLine="32" d="M366.98,293.18 C371.49,307.28 378.88,330.39 384.06,346.62 " fill="none" id="game.observers-to-game.observers.events" style="stroke:#181818;stroke-width:1.0;"/><polygon fill="#181818" points="385.54,351.24,386.595,341.4478,384.0104,346.4797,378.9785,343.8951,385.54,351.24" style="stroke:#181818;stroke-width:1.0;"/></g><!--link game.editor to org.joml--><g id="link_game.editor_org.joml"><path codeLine="33" d="M225.24,466.34 C202.01,481.21 163.41,505.91 138.09,522.12 " fill="none" id="game.editor-to-org.joml" style="stroke:#181818;stroke-width:1.0;"/><polygon fill="#181818" points="134.17,524.62,143.9036,523.1179,138.3759,521.9162,139.5776,516.3885,134.17,524.62" style="stroke:#181818;stroke-width:1.0;"/></g><!--link game.editor to game.renderer--><g id="link_game.editor_game.renderer"><path codeLine="35" d="M289.68,442.72 C295.5,441.6 301.39,440.48 307,439.44 C617.45,382.26 788.57,525.54 1002,292.96 C1020.22,273.1 1027.72,209.85 1016,179.98 C1007.05,157.18 987.16,137.28 971.35,124.17 " fill="none" id="game.editor-to-game.renderer" style="stroke:#181818;stroke-width:1.0;"/><polygon fill="#181818" points="967.78,121.28,972.2621,130.0499,971.6676,124.4243,977.2931,123.8298,967.78,121.28" style="stroke:#181818;stroke-width:1.0;"/></g><!--link game.editor to imgui--><g id="link_game.editor_imgui"><path codeLine="36" d="M245,466.15 C245,480.13 245,502.96 245,519.16 " fill="none" id="game.editor-to-imgui" style="stroke:#181818;stroke-width:1.0;"/><polygon fill="#181818" points="245,524.14,249,515.14,245,519.14,241,515.14,245,524.14" style="stroke:#181818;stroke-width:1.0;"/></g><text fill="#888888" font-family="sans-serif" font-size="10" lengthAdjust="spacing" textLength="182" x="442.565" y="567.0863">UMLDoclet 2.1.0, PlantUML 1.2022.14</text><!--SRC=[dLNBJiCm4Bpp5Iia14ZKlEwSE89K2N52FRZ9rZNrex8T44ByEuxTnY6r0-5KxSnuzkKw001smzMM6YfXIQiDCxfHTQM5Dk0CLTPJgDmHj4fqeAX4ZrNuXEqXvsLAAmpycjS85JULwCKej-u3LXn5ROUeHBVM7Wuuyyx4vwhHe87Px0wqOUHLIr6W0uAAyLtwWgBISkihLCucLUEuI8hzcHAVSqXOeTI185jiJdDOJDQfvdxqHOqF2TEQ2IJCQZNkbJ1VO2DxJTeA5OxFOI0PTZYW3vkB1mepx94XrakBvWsDBKj6CwII_f23uDlFLeVAt3Xw6YvPmmaJjwFiwhsSOBZa7bzSS5T-UISPoKZJeORIVXAPpJJaCyj9YZ2H-1ISmjm_HPGX2AusiPfAK6lX-8VFCRoyjC3b7hZSndCpsqX9pGTPEoaM2_WC5by7Hh7WpYQ6KqtIFUYC4ZJLh7rvEfiscDnIc6XgAOJ_Roa-2Rd60Z7LEFpvEhSGJRNexcfdqo7_jjfT-unZ97upZivUwJyyAwtRd-V7XtljluGERiWrkRg0kQ3AUHHEMcEkrTdvDm00]--></g></svg>