<?xml version="1.0" encoding="UTF-8" standalone="no"?><svg xmlns="http://www.w3.org/2000/svg" xmlns:xlink="http://www.w3.org/1999/xlink" contentStyleType="text/css" height="404px" preserveAspectRatio="none" style="width:475px;height:404px;" version="1.1" viewBox="0 0 475 404" width="475px" zoomAndPan="magnify"><defs/><g><!--class game.components--><a href="game/components/package-summary.html" target="_top" title="game/components/package-summary.html" xlink:actuate="onRequest" xlink:href="game/components/package-summary.html" xlink:show="new" xlink:title="game/components/package-summary.html" xlink:type="simple"><g id="elem_game.components"><rect codeLine="22" fill="#F1F1F1" height="26.4883" id="game.components" rx="2.5" ry="2.5" style="stroke:#181818;stroke-width:0.5;" width="133" x="274.46" y="93.49"/><text fill="#000000" font-family="sans-serif" font-size="14" lengthAdjust="spacing" textLength="127" x="277.46" y="112.0252">game.components</text></g></a><!--class game.engine--><a href="game/engine/package-summary.html" target="_top" title="game/engine/package-summary.html" xlink:actuate="onRequest" xlink:href="game/engine/package-summary.html" xlink:show="new" xlink:title="game/engine/package-summary.html" xlink:type="simple"><g id="elem_game.engine"><rect codeLine="24" fill="#F1F1F1" height="26.4883" id="game.engine" rx="2.5" ry="2.5" style="stroke:#181818;stroke-width:0.5;" width="95" x="250.46" y="179.98"/><text fill="#000000" font-family="sans-serif" font-size="14" lengthAdjust="spacing" textLength="89" x="253.46" y="198.5152">game.engine</text></g></a><!--class org.joml--><g id="elem_org.joml"><rect fill="#F1F1F1" height="26.4883" id="org.joml" rx="2.5" ry="2.5" style="stroke:#181818;stroke-width:0.5;" width="64" x="275.96" y="352.95"/><text fill="#000000" font-family="sans-serif" font-size="14" lengthAdjust="spacing" textLength="58" x="278.96" y="371.4852">org.joml</text></g><!--class game.renderer--><a href="game/renderer/package-summary.html" target="_top" title="game/renderer/package-summary.html" xlink:actuate="onRequest" xlink:href="game/renderer/package-summary.html" xlink:show="new" xlink:title="game/renderer/package-summary.html" xlink:type="simple"><g id="elem_game.renderer"><rect codeLine="26" fill="#F1F1F1" height="26.4883" id="game.renderer" rx="2.5" ry="2.5" style="stroke:#181818;stroke-width:0.5;" width="108" x="360.96" y="266.46"/><text fill="#000000" font-family="sans-serif" font-size="14" lengthAdjust="spacing" textLength="102" x="363.96" y="284.9952">game.renderer</text></g></a><!--class imgui.gl3--><g id="elem_imgui.gl3"><rect fill="#F1F1F1" height="26.4883" id="imgui.gl3" rx="2.5" ry="2.5" style="stroke:#181818;stroke-width:0.5;" width="71" x="71.46" y="266.46"/><text fill="#000000" font-family="sans-serif" font-size="14" lengthAdjust="spacing" textLength="65" x="74.46" y="284.9952">imgui.gl3</text></g><!--class imgui.glfw--><g id="elem_imgui.glfw"><rect fill="#F1F1F1" height="26.4883" id="imgui.glfw" rx="2.5" ry="2.5" style="stroke:#181818;stroke-width:0.5;" width="78" x="176.96" y="266.46"/><text fill="#000000" font-family="sans-serif" font-size="14" lengthAdjust="spacing" textLength="72" x="179.96" y="284.9952">imgui.glfw</text></g><!--class game.util--><a href="game/util/package-summary.html" target="_top" title="game/util/package-summary.html" xlink:actuate="onRequest" xlink:href="game/util/package-summary.html" xlink:show="new" xlink:title="game/util/package-summary.html" xlink:type="simple"><g id="elem_game.util"><rect codeLine="28" fill="#F1F1F1" height="26.4883" id="game.util" rx="2.5" ry="2.5" style="stroke:#181818;stroke-width:0.5;" width="70" x="364.96" y="7"/><text fill="#000000" font-family="sans-serif" font-size="14" lengthAdjust="spacing" textLength="64" x="367.96" y="25.5352">game.util</text></g></a><!--link game.components to game.engine--><g id="link_game.components_game.engine"><path codeLine="7" d="M325.25,120.2 C314.09,134.3 301.86,157.41 296.64,173.64 " fill="none" id="game.components-to-game.engine" style="stroke:#181818;stroke-width:1.0;"/><polygon fill="#181818" points="295.36,178.24,301.6252,170.6408,296.6997,173.4228,293.9177,168.4973,295.36,178.24" style="stroke:#181818;stroke-width:1.0;"/></g><!--link game.engine to game.components--><g id="link_game.engine_game.components"><path codeLine="11" d="M314.25,179.7 C325.65,165.58 337.91,142.47 342.93,126.25 " fill="none" id="game.engine-to-game.components" style="stroke:#181818;stroke-width:1.0;"/><polygon fill="#181818" points="344.14,121.66,337.9801,129.3448,342.8668,126.4952,345.7164,131.3819,344.14,121.66" style="stroke:#181818;stroke-width:1.0;"/></g><!--link game.components to org.joml--><g id="link_game.components_org.joml"><path codeLine="8" d="M284.9,120.46 C216.49,139.32 103.78,181.98 53.96,266.46 C6,347.79 187.14,362.32 269.36,364.77 " fill="none" id="game.components-to-org.joml" style="stroke:#181818;stroke-width:1.0;"/><polygon fill="#181818" points="274.06,364.9,265.1658,360.67,269.0617,364.7715,264.9602,368.6673,274.06,364.9" style="stroke:#181818;stroke-width:1.0;"/></g><!--link game.components to game.renderer--><g id="link_game.components_game.renderer"><path codeLine="9" d="M339.34,120.3 C345.13,150.32 377.62,226.22 399.1,260.92 " fill="none" id="game.components-to-game.renderer" style="stroke:#181818;stroke-width:1.0;"/><polygon fill="#181818" points="401.62,264.84,400.0945,255.11,398.9061,260.6406,393.3755,259.4522,401.62,264.84" style="stroke:#181818;stroke-width:1.0;"/></g><!--link game.renderer to game.components--><g id="link_game.renderer_game.components"><path codeLine="17" d="M416.99,266.12 C411.61,236.08 379.14,160.18 357.29,125.5 " fill="none" id="game.renderer-to-game.components" style="stroke:#181818;stroke-width:1.0;"/><polygon fill="#181818" points="354.71,121.57,356.3124,131.2876,357.457,125.7478,362.9969,126.8924,354.71,121.57" style="stroke:#181818;stroke-width:1.0;"/></g><!--link game.engine to org.joml--><g id="link_game.engine_org.joml"><path codeLine="10" d="M298.69,206.79 C300.43,236.56 304.81,311.47 306.87,346.54 " fill="none" id="game.engine-to-org.joml" style="stroke:#181818;stroke-width:1.0;"/><polygon fill="#181818" points="307.13,351.09,310.61,341.8765,306.8448,346.0981,302.6231,342.3329,307.13,351.09" style="stroke:#181818;stroke-width:1.0;"/></g><!--link game.engine to game.renderer--><g id="link_game.engine_game.renderer"><path codeLine="12" d="M305.86,206.69 C322.3,221.6 356.62,246.59 382.79,262.86 " fill="none" id="game.engine-to-game.renderer" style="stroke:#181818;stroke-width:1.0;"/><polygon fill="#181818" points="386.96,265.4,381.352,257.3037,382.689,262.8003,377.1924,264.1373,386.96,265.4" style="stroke:#181818;stroke-width:1.0;"/></g><!--link game.renderer to game.engine--><g id="link_game.renderer_game.engine"><path codeLine="16" d="M407.31,265.97 C391.04,251.06 357.12,226.36 330.91,210.18 " fill="none" id="game.renderer-to-game.engine" style="stroke:#181818;stroke-width:1.0;"/><polygon fill="#181818" points="326.73,207.65,332.3578,215.7326,331.0073,210.2393,336.5006,208.8889,326.73,207.65" style="stroke:#181818;stroke-width:1.0;"/></g><!--link game.engine to imgui.gl3--><g id="link_game.engine_imgui.gl3"><path codeLine="13" d="M269.36,206.87 C235.18,221.99 178.03,247.27 141.44,263.46 " fill="none" id="game.engine-to-imgui.gl3" style="stroke:#181818;stroke-width:1.0;"/><polygon fill="#181818" points="137.13,265.36,146.9788,265.3915,141.7055,263.3439,143.7531,258.0706,137.13,265.36" style="stroke:#181818;stroke-width:1.0;"/></g><!--link game.engine to imgui.glfw--><g id="link_game.engine_imgui.glfw"><path codeLine="14" d="M285.86,206.69 C271.69,221.29 248.14,245.54 232.34,261.82 " fill="none" id="game.engine-to-imgui.glfw" style="stroke:#181818;stroke-width:1.0;"/><polygon fill="#181818" points="229.16,265.1,238.2939,261.4161,232.6378,261.5077,232.5462,255.8516,229.16,265.1" style="stroke:#181818;stroke-width:1.0;"/></g><!--link game.renderer to org.joml--><g id="link_game.renderer_org.joml"><path codeLine="15" d="M399.17,293.17 C380.52,307.9 349.43,332.45 328.81,348.73 " fill="none" id="game.renderer-to-org.joml" style="stroke:#181818;stroke-width:1.0;"/><polygon fill="#181818" points="325,351.74,334.5431,349.305,328.9251,348.6427,329.5874,343.0248,325,351.74" style="stroke:#181818;stroke-width:1.0;"/></g><!--link game.util to game.renderer--><g id="link_game.util_game.renderer"><path codeLine="18" d="M405.81,33.95 C411.99,48.12 421.33,71.89 424.96,93.49 C435.07,153.63 424.75,226.15 418.69,259.82 " fill="none" id="game.util-to-game.renderer" style="stroke:#181818;stroke-width:1.0;"/><polygon fill="#181818" points="417.82,264.54,423.3987,256.4235,418.7345,259.6243,415.5337,254.9602,417.82,264.54" style="stroke:#181818;stroke-width:1.0;"/></g><!--link game.util to game.components--><g id="link_game.util_game.components"><path codeLine="19" d="M391.25,33.71 C381.23,48.06 364.69,71.74 353.33,88.01 " fill="none" id="game.util-to-game.components" style="stroke:#181818;stroke-width:1.0;"/><polygon fill="#181818" points="350.57,91.97,358.9974,86.873,353.4287,87.8678,352.4339,82.2991,350.57,91.97" style="stroke:#181818;stroke-width:1.0;"/></g><text fill="#888888" font-family="sans-serif" font-size="10" lengthAdjust="spacing" textLength="182" x="139.98" y="394.1063">UMLDoclet 2.1.0, PlantUML 1.2022.14</text><!--SRC=[bPDBJuGm58Nt_egRIOoQ2EDZxygb9fCOLvDPr78fbJv8MpGJut-tfV8O1fZCYjnpJh_s5000i2LN5J54mWUX9JEwLXdLGXjmXYZhBLJk0a8I7IWYqMiKtp0iSZwcjCB6BtY6GBcXOZ2ZhDmUSeuYisDLeYkqbnkTUN9AjQmyJZaBIV8KDLIC_-ymbT66fPzQYcM8Bv6XGTEd8dO6CJ17oFdCuXPSifgdJ3mkklbtRxUucHCUs9FtT9oOQb4xBfOw7Fe3GXEvWet_Q0X345oL4Ki5iHPMe_mAjjiWhNjfNSMrYQsb96QV5awAtGv-6ipl4ImMx41nF1VIDkmmhN0kA5nC1md3AK0a-EB-bUHQXyVxwykpzh-BWuVqFhsxXOqWodaLBh_GMAxLzSqV]--></g></svg>