<?xml version="1.0" encoding="UTF-8" standalone="no"?><svg xmlns="http://www.w3.org/2000/svg" xmlns:xlink="http://www.w3.org/1999/xlink" contentStyleType="text/css" height="404px" preserveAspectRatio="none" style="width:449px;height:404px;" version="1.1" viewBox="0 0 449 404" width="449px" zoomAndPan="magnify"><defs/><g><!--class game.renderer--><a href="game/renderer/package-summary.html" target="_top" title="game/renderer/package-summary.html" xlink:actuate="onRequest" xlink:href="game/renderer/package-summary.html" xlink:show="new" xlink:title="game/renderer/package-summary.html" xlink:type="simple"><g id="elem_game.renderer"><rect codeLine="22" fill="#F1F1F1" height="26.4883" id="game.renderer" rx="2.5" ry="2.5" style="stroke:#181818;stroke-width:0.5;" width="108" x="231" y="93.49"/><text fill="#000000" font-family="sans-serif" font-size="14" lengthAdjust="spacing" textLength="102" x="234" y="112.0252">game.renderer</text></g></a><!--class org.joml--><g id="elem_org.joml"><rect fill="#F1F1F1" height="26.4883" id="org.joml" rx="2.5" ry="2.5" style="stroke:#181818;stroke-width:0.5;" width="64" x="7" y="352.95"/><text fill="#000000" font-family="sans-serif" font-size="14" lengthAdjust="spacing" textLength="58" x="10" y="371.4852">org.joml</text></g><!--class game.engine--><a href="game/engine/package-summary.html" target="_top" title="game/engine/package-summary.html" xlink:actuate="onRequest" xlink:href="game/engine/package-summary.html" xlink:show="new" xlink:title="game/engine/package-summary.html" xlink:type="simple"><g id="elem_game.engine"><rect codeLine="24" fill="#F1F1F1" height="26.4883" id="game.engine" rx="2.5" ry="2.5" style="stroke:#181818;stroke-width:0.5;" width="95" x="188.5" y="179.98"/><text fill="#000000" font-family="sans-serif" font-size="14" lengthAdjust="spacing" textLength="89" x="191.5" y="198.5152">game.engine</text></g></a><!--class game.components--><a href="game/components/package-summary.html" target="_top" title="game/components/package-summary.html" xlink:actuate="onRequest" xlink:href="game/components/package-summary.html" xlink:show="new" xlink:title="game/components/package-summary.html" xlink:type="simple"><g id="elem_game.components"><rect codeLine="26" fill="#F1F1F1" height="26.4883" id="game.components" rx="2.5" ry="2.5" style="stroke:#181818;stroke-width:0.5;" width="133" x="309.5" y="266.46"/><text fill="#000000" font-family="sans-serif" font-size="14" lengthAdjust="spacing" textLength="127" x="312.5" y="284.9952">game.components</text></g></a><!--class game.util--><a href="game/util/package-summary.html" target="_top" title="game/util/package-summary.html" xlink:actuate="onRequest" xlink:href="game/util/package-summary.html" xlink:show="new" xlink:title="game/util/package-summary.html" xlink:type="simple"><g id="elem_game.util"><rect codeLine="28" fill="#F1F1F1" height="26.4883" id="game.util" rx="2.5" ry="2.5" style="stroke:#181818;stroke-width:0.5;" width="70" x="303" y="7"/><text fill="#000000" font-family="sans-serif" font-size="14" lengthAdjust="spacing" textLength="64" x="306" y="25.5352">game.util</text></g></a><!--class imgui.gl3--><g id="elem_imgui.gl3"><rect fill="#F1F1F1" height="26.4883" id="imgui.gl3" rx="2.5" ry="2.5" style="stroke:#181818;stroke-width:0.5;" width="71" x="91.5" y="266.46"/><text fill="#000000" font-family="sans-serif" font-size="14" lengthAdjust="spacing" textLength="65" x="94.5" y="284.9952">imgui.gl3</text></g><!--class imgui.glfw--><g id="elem_imgui.glfw"><rect fill="#F1F1F1" height="26.4883" id="imgui.glfw" rx="2.5" ry="2.5" style="stroke:#181818;stroke-width:0.5;" width="78" x="197" y="266.46"/><text fill="#000000" font-family="sans-serif" font-size="14" lengthAdjust="spacing" textLength="72" x="200" y="284.9952">imgui.glfw</text></g><!--link game.renderer to org.joml--><g id="link_game.renderer_org.joml"><path codeLine="7" d="M248.58,120.39 C194.44,141.34 94.24,188.81 49,266.46 C34.6,291.18 34.67,325.37 36.5,346.34 " fill="none" id="game.renderer-to-org.joml" style="stroke:#181818;stroke-width:1.0;"/><polygon fill="#181818" points="36.99,351.15,40.0454,341.7871,36.477,346.1764,32.0876,342.6079,36.99,351.15" style="stroke:#181818;stroke-width:1.0;"/></g><!--link game.renderer to game.engine--><g id="link_game.renderer_game.engine"><path codeLine="8" d="M268.41,120.2 C256.25,134.3 242.37,157.41 236,173.64 " fill="none" id="game.renderer-to-game.engine" style="stroke:#181818;stroke-width:1.0;"/><polygon fill="#181818" points="234.38,178.27,241.1121,171.0812,236.0209,173.5469,233.5552,168.4557,234.38,178.27" style="stroke:#181818;stroke-width:1.0;"/></g><!--link game.engine to game.renderer--><g id="link_game.engine_game.renderer"><path codeLine="17" d="M253.19,179.7 C265.59,165.58 279.48,142.47 285.65,126.25 " fill="none" id="game.engine-to-game.renderer" style="stroke:#181818;stroke-width:1.0;"/><polygon fill="#181818" points="287.2,121.63,280.5526,128.8972,285.6146,126.372,288.1398,131.4339,287.2,121.63" style="stroke:#181818;stroke-width:1.0;"/></g><!--link game.renderer to game.components--><g id="link_game.renderer_game.components"><path codeLine="9" d="M284.63,120.3 C293.41,150.32 333.44,226.22 358.37,260.92 " fill="none" id="game.renderer-to-game.components" style="stroke:#181818;stroke-width:1.0;"/><polygon fill="#181818" points="361.33,264.9,359.1684,255.2913,358.346,260.888,352.7493,260.0657,361.33,264.9" style="stroke:#181818;stroke-width:1.0;"/></g><!--link game.components to game.renderer--><g id="link_game.components_game.renderer"><path codeLine="14" d="M376.78,266.12 C368.38,235.96 328.07,159.55 302.78,125.07 " fill="none" id="game.components-to-game.renderer" style="stroke:#181818;stroke-width:1.0;"/><polygon fill="#181818" points="300.08,121.51,302.3184,131.1011,303.096,125.498,308.6991,126.2755,300.08,121.51" style="stroke:#181818;stroke-width:1.0;"/></g><!--link game.util to game.renderer--><g id="link_game.util_game.renderer"><path codeLine="10" d="M330.18,33.71 C321.18,48.06 306.32,71.74 296.12,88.01 " fill="none" id="game.util-to-game.renderer" style="stroke:#181818;stroke-width:1.0;"/><polygon fill="#181818" points="293.66,91.93,301.827,86.4254,296.3138,87.6924,295.0468,82.1793,293.66,91.93" style="stroke:#181818;stroke-width:1.0;"/></g><!--link game.util to game.components--><g id="link_game.util_game.components"><path codeLine="11" d="M341.61,33.97 C345.62,48.36 352.18,72.5 357,93.49 C365.76,131.67 369.81,141.03 374,179.98 C376.97,207.57 376.98,239.76 376.59,259.68 " fill="none" id="game.util-to-game.components" style="stroke:#181818;stroke-width:1.0;"/><polygon fill="#181818" points="376.48,264.68,380.6846,255.7738,376.5943,259.6813,372.6867,255.5909,376.48,264.68" style="stroke:#181818;stroke-width:1.0;"/></g><!--link game.components to game.engine--><g id="link_game.components_game.engine"><path codeLine="12" d="M364.89,265.97 C344.39,250.94 303.23,225.95 272.53,209.78 " fill="none" id="game.components-to-game.engine" style="stroke:#181818;stroke-width:1.0;"/><polygon fill="#181818" points="268.27,207.57,274.4135,215.2679,272.7073,209.8745,278.1007,208.1683,268.27,207.57" style="stroke:#181818;stroke-width:1.0;"/></g><!--link game.engine to game.components--><g id="link_game.engine_game.components"><path codeLine="16" d="M247.55,206.87 C268.21,221.86 309.37,246.85 339.89,263.05 " fill="none" id="game.engine-to-game.components" style="stroke:#181818;stroke-width:1.0;"/><polygon fill="#181818" points="344.12,265.27,338.0156,257.541,339.6945,262.943,334.2925,264.6219,344.12,265.27" style="stroke:#181818;stroke-width:1.0;"/></g><!--link game.components to org.joml--><g id="link_game.components_org.joml"><path codeLine="13" d="M325.18,293.45 C257.27,310.47 138.43,340.27 77.47,355.55 " fill="none" id="game.components-to-org.joml" style="stroke:#181818;stroke-width:1.0;"/><polygon fill="#181818" points="72.86,356.71,82.5614,358.4077,77.7107,355.4973,80.6211,350.6466,72.86,356.71" style="stroke:#181818;stroke-width:1.0;"/></g><!--link game.engine to org.joml--><g id="link_game.engine_org.joml"><path codeLine="15" d="M188.13,204.69 C152.25,214.85 104.31,233.67 74,266.46 C53.19,288.98 44.61,324.65 41.18,346.39 " fill="none" id="game.engine-to-org.joml" style="stroke:#181818;stroke-width:1.0;"/><polygon fill="#181818" points="40.49,351.16,45.7327,342.8225,41.2031,346.2111,37.8145,341.6815,40.49,351.16" style="stroke:#181818;stroke-width:1.0;"/></g><!--link game.engine to imgui.gl3--><g id="link_game.engine_imgui.gl3"><path codeLine="18" d="M219.92,206.69 C200.92,221.41 169.25,245.96 148.25,262.24 " fill="none" id="game.engine-to-imgui.gl3" style="stroke:#181818;stroke-width:1.0;"/><polygon fill="#181818" points="144.35,265.26,153.9135,262.9064,148.3014,262.1962,149.0115,256.5841,144.35,265.26" style="stroke:#181818;stroke-width:1.0;"/></g><!--link game.engine to imgui.glfw--><g id="link_game.engine_imgui.glfw"><path codeLine="19" d="M236,206.69 C236,220.66 236,243.49 236,259.69 " fill="none" id="game.engine-to-imgui.glfw" style="stroke:#181818;stroke-width:1.0;"/><polygon fill="#181818" points="236,264.68,240,255.68,236,259.68,232,255.68,236,264.68" style="stroke:#181818;stroke-width:1.0;"/></g><text fill="#888888" font-family="sans-serif" font-size="10" lengthAdjust="spacing" textLength="182" x="126.75" y="394.1063">UMLDoclet 2.1.0, PlantUML 1.2022.14</text><!--SRC=[bPFBJiCm44NtVCMe4W8aulBOis89KYN4gkh2E1F7n8_8Ta0Luj-nOvgKf2xgAfexr-UEama0W6k4Rgcb2jueQxWrdIwPaSQ2jrIxq4Bjpo0wqOEc2eF6y0NZ8HziscZi-xKe4PYmJExLg5g_XKgWBDrKLUXh4-HUvu5CGbQ95YqKnGCOoycxKJBJxXNKNFp6PnpCg3PCgBqRNPqNSdJipkJwXmYZbfzbufbVvn1aFap2PX1xpUoiKy_H2A5u9mYNzqUxrMVwQ1Um2aj3EO8KkacPJ5BdOF4dQW7hTHIMEs7PfdE5wvIYTajgh-Hc0ryzudi6IZCCc5IU2XbVpW0QfLDXSKS6J2p-0oH2Y0hRMHaJ7w_FJuyc_2uUxiWjkRc6bQJQ1nNEFz0wOVJbrGy0]--></g></svg>