<?xml version="1.0" encoding="UTF-8" standalone="no"?><svg xmlns="http://www.w3.org/2000/svg" xmlns:xlink="http://www.w3.org/1999/xlink" contentStyleType="text/css" height="490px" preserveAspectRatio="none" style="width:832px;height:490px;" version="1.1" viewBox="0 0 832 490" width="832px" zoomAndPan="magnify"><defs/><g><!--class game.renderer--><a href="game/renderer/package-summary.html" target="_top" title="game/renderer/package-summary.html" xlink:actuate="onRequest" xlink:href="game/renderer/package-summary.html" xlink:show="new" xlink:title="game/renderer/package-summary.html" xlink:type="simple"><g id="elem_game.renderer"><rect codeLine="35" fill="#F1F1F1" height="26.4883" id="game.renderer" rx="2.5" ry="2.5" style="stroke:#181818;stroke-width:0.5;" width="108" x="455.5" y="93.49"/><text fill="#000000" font-family="sans-serif" font-size="14" lengthAdjust="spacing" textLength="102" x="458.5" y="112.0252">game.renderer</text></g></a><!--class org.joml--><g id="elem_org.joml"><rect fill="#F1F1F1" height="26.4883" id="org.joml" rx="2.5" ry="2.5" style="stroke:#181818;stroke-width:0.5;" width="64" x="610.5" y="439.44"/><text fill="#000000" font-family="sans-serif" font-size="14" lengthAdjust="spacing" textLength="58" x="613.5" y="457.9752">org.joml</text></g><!--class game.engine--><a href="game/engine/package-summary.html" target="_top" title="game/engine/package-summary.html" xlink:actuate="onRequest" xlink:href="game/engine/package-summary.html" xlink:show="new" xlink:title="game/engine/package-summary.html" xlink:type="simple"><g id="elem_game.engine"><rect codeLine="37" fill="#F1F1F1" height="26.4883" id="game.engine" rx="2.5" ry="2.5" style="stroke:#181818;stroke-width:0.5;" width="95" x="408" y="179.98"/><text fill="#000000" font-family="sans-serif" font-size="14" lengthAdjust="spacing" textLength="89" x="411" y="198.5152">game.engine</text></g></a><!--class game.components--><a href="game/components/package-summary.html" target="_top" title="game/components/package-summary.html" xlink:actuate="onRequest" xlink:href="game/components/package-summary.html" xlink:show="new" xlink:title="game/components/package-summary.html" xlink:type="simple"><g id="elem_game.components"><rect codeLine="39" fill="#F1F1F1" height="26.4883" id="game.components" rx="2.5" ry="2.5" style="stroke:#181818;stroke-width:0.5;" width="133" x="656" y="266.47"/><text fill="#000000" font-family="sans-serif" font-size="14" lengthAdjust="spacing" textLength="127" x="659" y="285.0052">game.components</text></g></a><!--class game.util--><a href="game/util/package-summary.html" target="_top" title="game/util/package-summary.html" xlink:actuate="onRequest" xlink:href="game/util/package-summary.html" xlink:show="new" xlink:title="game/util/package-summary.html" xlink:type="simple"><g id="elem_game.util"><rect codeLine="41" fill="#F1F1F1" height="26.4883" id="game.util" rx="2.5" ry="2.5" style="stroke:#181818;stroke-width:0.5;" width="70" x="527.5" y="7"/><text fill="#000000" font-family="sans-serif" font-size="14" lengthAdjust="spacing" textLength="64" x="530.5" y="25.5352">game.util</text></g></a><!--class game.editor--><a href="game/editor/package-summary.html" target="_top" title="game/editor/package-summary.html" xlink:actuate="onRequest" xlink:href="game/editor/package-summary.html" xlink:show="new" xlink:title="game/editor/package-summary.html" xlink:type="simple"><g id="elem_game.editor"><rect codeLine="43" fill="#F1F1F1" height="26.4883" id="game.editor" rx="2.5" ry="2.5" style="stroke:#181818;stroke-width:0.5;" width="89" x="287" y="352.95"/><text fill="#000000" font-family="sans-serif" font-size="14" lengthAdjust="spacing" textLength="83" x="290" y="371.4852">game.editor</text></g></a><!--class com.google.gson--><g id="elem_com.google.gson"><rect fill="#F1F1F1" height="26.4883" id="com.google.gson" rx="2.5" ry="2.5" style="stroke:#181818;stroke-width:0.5;" width="125" x="545" y="352.95"/><text fill="#000000" font-family="sans-serif" font-size="14" lengthAdjust="spacing" textLength="119" x="548" y="371.4852">com.google.gson</text></g><!--class game.scene--><a href="game/scene/package-summary.html" target="_top" title="game/scene/package-summary.html" xlink:actuate="onRequest" xlink:href="game/scene/package-summary.html" xlink:show="new" xlink:title="game/scene/package-summary.html" xlink:type="simple"><g id="elem_game.scene"><rect codeLine="45" fill="#F1F1F1" height="26.4883" id="game.scene" rx="2.5" ry="2.5" style="stroke:#181818;stroke-width:0.5;" width="87" x="7" y="439.44"/><text fill="#000000" font-family="sans-serif" font-size="14" lengthAdjust="spacing" textLength="81" x="10" y="457.9752">game.scene</text></g></a><!--class imgui.gl3--><g id="elem_imgui.gl3"><rect fill="#F1F1F1" height="26.4883" id="imgui.gl3" rx="2.5" ry="2.5" style="stroke:#181818;stroke-width:0.5;" width="71" x="191" y="266.47"/><text fill="#000000" font-family="sans-serif" font-size="14" lengthAdjust="spacing" textLength="65" x="194" y="285.0052">imgui.gl3</text></g><!--class imgui.glfw--><g id="elem_imgui.glfw"><rect fill="#F1F1F1" height="26.4883" id="imgui.glfw" rx="2.5" ry="2.5" style="stroke:#181818;stroke-width:0.5;" width="78" x="401.5" y="266.47"/><text fill="#000000" font-family="sans-serif" font-size="14" lengthAdjust="spacing" textLength="72" x="404.5" y="285.0052">imgui.glfw</text></g><!--class imgui--><g id="elem_imgui"><rect fill="#F1F1F1" height="26.4883" id="imgui" rx="2.5" ry="2.5" style="stroke:#181818;stroke-width:0.5;" width="45" x="309" y="439.44"/><text fill="#000000" font-family="sans-serif" font-size="14" lengthAdjust="spacing" textLength="39" x="312" y="457.9752">imgui</text></g><!--link game.renderer to org.joml--><g id="link_game.renderer_org.joml"><path codeLine="7" d="M563.72,118.45 C634.54,135.73 755.49,177.27 806.5,266.47 C825.08,298.96 796.86,355.51 776.5,379.44 C751.21,409.16 710.51,428.63 680.6,439.79 " fill="none" id="game.renderer-to-org.joml" style="stroke:#181818;stroke-width:1.0;"/><polygon fill="#181818" points="676.19,441.39,686.0158,442.0639,680.8873,439.6767,683.2745,434.5482,676.19,441.39" style="stroke:#181818;stroke-width:1.0;"/></g><!--link game.renderer to game.engine--><g id="link_game.renderer_game.engine"><path codeLine="8" d="M492.17,120.2 C479.06,134.43 463.66,157.82 456.41,174.07 " fill="none" id="game.renderer-to-game.engine" style="stroke:#181818;stroke-width:1.0;"/><polygon fill="#181818" points="454.69,178.3,461.7646,171.448,456.5592,173.6626,454.3447,168.4572,454.69,178.3" style="stroke:#181818;stroke-width:1.0;"/></g><!--link game.engine to game.renderer--><g id="link_game.engine_game.renderer"><path codeLine="21" d="M473.43,179.7 C486.66,165.58 501.93,142.47 509.06,126.25 " fill="none" id="game.engine-to-game.renderer" style="stroke:#181818;stroke-width:1.0;"/><polygon fill="#181818" points="510.89,121.61,503.8702,128.5181,509.0578,126.2622,511.3137,131.4497,510.89,121.61" style="stroke:#181818;stroke-width:1.0;"/></g><!--link game.renderer to game.components--><g id="link_game.renderer_game.components"><path codeLine="9" d="M518.1,120.3 C548.79,150.81 645.61,228.74 694.59,262.6 " fill="none" id="game.renderer-to-game.components" style="stroke:#181818;stroke-width:1.0;"/><polygon fill="#181818" points="698.5,265.27,693.3362,256.8834,694.3752,262.444,688.8146,263.4831,698.5,265.27" style="stroke:#181818;stroke-width:1.0;"/></g><!--link game.components to game.renderer--><g id="link_game.components_game.renderer"><path codeLine="14" d="M714.3,266.12 C684.01,235.59 587.2,157.67 537.84,123.82 " fill="none" id="game.components-to-game.renderer" style="stroke:#181818;stroke-width:1.0;"/><polygon fill="#181818" points="533.89,121.15,539.0934,129.5121,538.0281,123.9565,543.5837,122.8911,533.89,121.15" style="stroke:#181818;stroke-width:1.0;"/></g><!--link game.util to game.renderer--><g id="link_game.util_game.renderer"><path codeLine="10" d="M554.68,33.71 C545.68,48.06 530.82,71.74 520.62,88.01 " fill="none" id="game.util-to-game.renderer" style="stroke:#181818;stroke-width:1.0;"/><polygon fill="#181818" points="518.16,91.93,526.327,86.4254,520.8138,87.6924,519.5468,82.1793,518.16,91.93" style="stroke:#181818;stroke-width:1.0;"/></g><!--link game.util to game.components--><g id="link_game.util_game.components"><path codeLine="11" d="M570.22,33.66 C596.24,75.54 680.86,211.71 711.39,260.83 " fill="none" id="game.util-to-game.components" style="stroke:#181818;stroke-width:1.0;"/><polygon fill="#181818" points="713.87,264.83,712.5068,255.0759,711.2264,260.586,705.7164,259.3057,713.87,264.83" style="stroke:#181818;stroke-width:1.0;"/></g><!--link game.components to org.joml--><g id="link_game.components_org.joml"><path codeLine="12" d="M731.33,293.22 C743.86,312.63 763.66,350.76 748.5,379.44 C734.24,406.42 704.88,425.21 680.67,436.86 " fill="none" id="game.components-to-org.joml" style="stroke:#181818;stroke-width:1.0;"/><polygon fill="#181818" points="676.33,438.88,686.1772,438.6971,680.8606,436.7648,682.7928,431.4482,676.33,438.88" style="stroke:#181818;stroke-width:1.0;"/></g><!--link game.components to game.engine--><g id="link_game.components_game.engine"><path codeLine="13" d="M692.45,266.05 C647.83,250.47 564.71,224.14 509.5,208.05 " fill="none" id="game.components-to-game.engine" style="stroke:#181818;stroke-width:1.0;"/><polygon fill="#181818" points="504.7,206.66,512.22,213.02,509.5,208.06,514.46,205.34,504.7,206.66" style="stroke:#181818;stroke-width:1.0;"/></g><!--link game.engine to game.components--><g id="link_game.engine_game.components"><path codeLine="23" d="M486.32,206.96 C530.6,222.32 611.82,248.07 666.7,264.18 " fill="none" id="game.engine-to-game.components" style="stroke:#181818;stroke-width:1.0;"/><polygon fill="#181818" points="671.47,265.58,663.95,259.22,666.67,264.18,661.71,266.9,671.47,265.58" style="stroke:#181818;stroke-width:1.0;"/></g><!--link game.components to game.editor--><g id="link_game.components_game.editor"><path codeLine="15" d="M663.54,293.45 C586.97,309.99 454.59,338.6 382.27,354.23 " fill="none" id="game.components-to-game.editor" style="stroke:#181818;stroke-width:1.0;"/><polygon fill="#181818" points="377.79,355.19,387.4324,357.1962,382.6769,354.1326,385.7405,349.3771,377.79,355.19" style="stroke:#181818;stroke-width:1.0;"/></g><!--link game.components to com.google.gson--><g id="link_game.components_com.google.gson"><path codeLine="16" d="M705.53,293.18 C685.4,307.96 651.79,332.66 629.63,348.94 " fill="none" id="game.components-to-com.google.gson" style="stroke:#181818;stroke-width:1.0;"/><polygon fill="#181818" points="625.76,351.78,635.3821,349.6789,629.7907,348.8213,630.6482,343.2299,625.76,351.78" style="stroke:#181818;stroke-width:1.0;"/></g><!--link game.scene to game.components--><g id="link_game.scene_game.components"><path codeLine="17" d="M94.45,449.38 C230.93,441.84 641.1,416.32 687.5,379.44 C711.86,360.08 719.29,322.49 721.54,299.69 " fill="none" id="game.scene-to-game.components" style="stroke:#181818;stroke-width:1.0;"/><polygon fill="#181818" points="721.94,294.91,717.2085,303.5479,721.526,299.8928,725.181,304.2103,721.94,294.91" style="stroke:#181818;stroke-width:1.0;"/></g><!--link game.scene to game.engine--><g id="link_game.scene_game.engine"><path codeLine="18" d="M63.62,439.01 C86.14,405.28 126.36,312.74 191.5,266.47 C254.97,221.37 344.18,204.39 401.24,198.01 " fill="none" id="game.scene-to-game.engine" style="stroke:#181818;stroke-width:1.0;"/><polygon fill="#181818" points="406.18,197.48,396.8075,194.454,401.208,198.0086,397.6533,202.4091,406.18,197.48" style="stroke:#181818;stroke-width:1.0;"/></g><!--link game.engine to game.scene--><g id="link_game.engine_game.scene"><path codeLine="22" d="M407.65,195.41 C343.91,198.96 232,212.83 156.5,266.47 C94.92,310.21 55.62,395.3 48.1,432.97 " fill="none" id="game.engine-to-game.scene" style="stroke:#181818;stroke-width:1.0;"/><polygon fill="#181818" points="47.36,437.52,52.7503,429.2772,48.1611,432.5846,44.8537,427.9954,47.36,437.52" style="stroke:#181818;stroke-width:1.0;"/></g><!--link game.scene to game.renderer--><g id="link_game.scene_game.renderer"><path codeLine="19" d="M52.38,439.05 C55.55,419.79 62.99,382.25 76.5,352.95 C118.74,261.33 135.69,229.66 223.5,179.98 C294.82,139.62 388.71,121.49 449.1,113.57 " fill="none" id="game.scene-to-game.renderer" style="stroke:#181818;stroke-width:1.0;"/><polygon fill="#181818" points="453.7,112.98,444.2683,110.1439,448.7397,113.609,445.2747,118.0804,453.7,112.98" style="stroke:#181818;stroke-width:1.0;"/></g><!--link game.engine to org.joml--><g id="link_game.engine_org.joml"><path codeLine="20" d="M463.91,206.78 C473,220.82 487.41,244.47 496.5,266.47 C516.39,314.58 496.45,337.64 527.5,379.44 C546.97,405.66 579.05,424.66 604.38,436.57 " fill="none" id="game.engine-to-org.joml" style="stroke:#181818;stroke-width:1.0;"/><polygon fill="#181818" points="608.63,438.52,602.1198,431.1296,604.086,436.4338,598.7819,438.4,608.63,438.52" style="stroke:#181818;stroke-width:1.0;"/></g><!--link game.engine to imgui.gl3--><g id="link_game.engine_imgui.gl3"><path codeLine="24" d="M421.22,206.87 C379.98,222.08 310.86,247.58 267.03,263.76 " fill="none" id="game.engine-to-imgui.gl3" style="stroke:#181818;stroke-width:1.0;"/><polygon fill="#181818" points="262.44,265.45,272.2682,266.0879,267.131,263.7195,269.4994,258.5823,262.44,265.45" style="stroke:#181818;stroke-width:1.0;"/></g><!--link game.engine to imgui.glfw--><g id="link_game.engine_imgui.glfw"><path codeLine="25" d="M453.29,206.69 C450.78,220.79 446.68,243.9 443.8,260.13 " fill="none" id="game.engine-to-imgui.glfw" style="stroke:#181818;stroke-width:1.0;"/><polygon fill="#181818" points="442.99,264.7,448.5,256.5367,443.863,259.7768,440.6229,255.1398,442.99,264.7" style="stroke:#181818;stroke-width:1.0;"/></g><!--link game.engine to game.editor--><g id="link_game.engine_game.editor"><path codeLine="26" d="M428.31,206.76 C408.63,220.41 384.5,243.38 367.5,266.47 C348.45,292.33 331.93,325.91 327.16,346.49 " fill="none" id="game.engine-to-game.editor" style="stroke:#181818;stroke-width:1.0;"/><polygon fill="#181818" points="326.3,351.2,331.8517,343.065,327.1982,346.2813,323.9818,341.6279,326.3,351.2" style="stroke:#181818;stroke-width:1.0;"/></g><!--link game.editor to game.engine--><g id="link_game.editor_game.engine"><path codeLine="29" d="M348.25,352.68 C363.38,333.27 381.39,295.13 402.5,266.47 C417.64,245.91 438.44,225.43 450.33,211.56 " fill="none" id="game.editor-to-game.engine" style="stroke:#181818;stroke-width:1.0;"/><polygon fill="#181818" points="453.32,207.93,444.5143,212.3414,450.1445,211.7921,450.6938,217.4223,453.32,207.93" style="stroke:#181818;stroke-width:1.0;"/></g><!--link game.engine to com.google.gson--><g id="link_game.engine_com.google.gson"><path codeLine="27" d="M480.21,206.85 C502.9,219.45 536.29,240.62 558.5,266.47 C579.3,290.67 593.79,325.23 601.37,346.39 " fill="none" id="game.engine-to-com.google.gson" style="stroke:#181818;stroke-width:1.0;"/><polygon fill="#181818" points="603,351.07,603.8248,341.2557,601.3591,346.3469,596.2679,343.8812,603,351.07" style="stroke:#181818;stroke-width:1.0;"/></g><!--link game.editor to org.joml--><g id="link_game.editor_org.joml"><path codeLine="28" d="M376.39,379.39 C437.74,396.06 546.71,425.66 604.33,441.32 " fill="none" id="game.editor-to-org.joml" style="stroke:#181818;stroke-width:1.0;"/><polygon fill="#181818" points="608.96,442.58,601.3312,436.351,604.1365,441.2632,599.2243,444.0686,608.96,442.58" style="stroke:#181818;stroke-width:1.0;"/></g><!--link game.editor to game.renderer--><g id="link_game.editor_game.renderer"><path codeLine="30" d="M286.89,356.61 C230.12,343.51 142.86,314.83 173.5,266.47 C234.16,170.73 369.79,131.64 448.93,116.53 " fill="none" id="game.editor-to-game.renderer" style="stroke:#181818;stroke-width:1.0;"/><polygon fill="#181818" points="453.51,115.68,443.9302,113.3937,448.5943,116.5945,445.3935,121.2587,453.51,115.68" style="stroke:#181818;stroke-width:1.0;"/></g><!--link game.editor to game.scene--><g id="link_game.editor_game.scene"><path codeLine="31" d="M289.13,379.94 C238.05,395.3 152.4,421.05 98.81,437.16 " fill="none" id="game.editor-to-game.scene" style="stroke:#181818;stroke-width:1.0;"/><polygon fill="#181818" points="94.21,438.54,103.9815,439.7718,98.9972,437.0967,101.6723,432.1123,94.21,438.54" style="stroke:#181818;stroke-width:1.0;"/></g><!--link game.editor to imgui--><g id="link_game.editor_imgui"><path codeLine="32" d="M331.5,379.66 C331.5,393.64 331.5,416.47 331.5,432.67 " fill="none" id="game.editor-to-imgui" style="stroke:#181818;stroke-width:1.0;"/><polygon fill="#181818" points="331.5,437.65,335.5,428.65,331.5,432.65,327.5,428.65,331.5,437.65" style="stroke:#181818;stroke-width:1.0;"/></g><text fill="#888888" font-family="sans-serif" font-size="10" lengthAdjust="spacing" textLength="182" x="318.04" y="480.5963">UMLDoclet 2.1.0, PlantUML 1.2022.14</text><!--SRC=[bLJBJiCm4Bpp5Iia14ZKvN7dn16aIeXJrODnjgwf7v7jW2h4l-CuD0vkt2gdQ6TcnxjZEG00RYjqJIrLy4xPbblJw8ePQInuIxKB56f_1gqIFMYgC60CNx5jya6cZSR8RqI5m8HbSb2ZglqErW9bvN9KeT-O04US1sSIpghGeeNPx16CvUJ3A5cW8uAQYx_Z2mfcL1qcrDubLUE5J8fzJuaVSqXOOTHCC3hicEPmc56dIeJeYvfG4cuCbqYuCphf74EDnpVB9FdC6NquRjTGI6L0dcvFvvNfiGq66g5u8mYN3qVPzLVvW3pf0LzCkUifHP38qO1pVYIYJ957bEYuOFUyBc4HdZVb25BeRPSMazGvEFztp3aiboqmtmFpkkkRkKOfQdTauvLShU0xMlmS67Nxz3PTETKaNMjlbA2fPkrhxctQOl9ACT6qKYodciHRwZrYTSgYymWhX__PsfZsy_Ro_6J23zR3FRaZjpUma5JxWCB59redZBww_WK0]--></g></svg>