<?xml version="1.0" encoding="UTF-8" standalone="no"?><svg xmlns="http://www.w3.org/2000/svg" xmlns:xlink="http://www.w3.org/1999/xlink" contentStyleType="text/css" height="490px" preserveAspectRatio="none" style="width:1238px;height:490px;" version="1.1" viewBox="0 0 1238 490" width="1238px" zoomAndPan="magnify"><defs/><g><!--class game.renderer--><a href="game/renderer/package-summary.html" target="_top" title="game/renderer/package-summary.html" xlink:actuate="onRequest" xlink:href="game/renderer/package-summary.html" xlink:show="new" xlink:title="game/renderer/package-summary.html" xlink:type="simple"><g id="elem_game.renderer"><rect codeLine="41" fill="#F1F1F1" height="26.4883" id="game.renderer" rx="2.5" ry="2.5" style="stroke:#181818;stroke-width:0.5;" width="108" x="390.42" y="93.49"/><text fill="#000000" font-family="sans-serif" font-size="14" lengthAdjust="spacing" textLength="102" x="393.42" y="112.0252">game.renderer</text></g></a><!--class org.joml--><g id="elem_org.joml"><rect fill="#F1F1F1" height="26.4883" id="org.joml" rx="2.5" ry="2.5" style="stroke:#181818;stroke-width:0.5;" width="64" x="795.42" y="439.44"/><text fill="#000000" font-family="sans-serif" font-size="14" lengthAdjust="spacing" textLength="58" x="798.42" y="457.9752">org.joml</text></g><!--class game.engine--><a href="game/engine/package-summary.html" target="_top" title="game/engine/package-summary.html" xlink:actuate="onRequest" xlink:href="game/engine/package-summary.html" xlink:show="new" xlink:title="game/engine/package-summary.html" xlink:type="simple"><g id="elem_game.engine"><rect codeLine="43" fill="#F1F1F1" height="26.4883" id="game.engine" rx="2.5" ry="2.5" style="stroke:#181818;stroke-width:0.5;" width="95" x="534.92" y="179.98"/><text fill="#000000" font-family="sans-serif" font-size="14" lengthAdjust="spacing" textLength="89" x="537.92" y="198.5152">game.engine</text></g></a><!--class game.components--><a href="game/components/package-summary.html" target="_top" title="game/components/package-summary.html" xlink:actuate="onRequest" xlink:href="game/components/package-summary.html" xlink:show="new" xlink:title="game/components/package-summary.html" xlink:type="simple"><g id="elem_game.components"><rect codeLine="45" fill="#F1F1F1" height="26.4883" id="game.components" rx="2.5" ry="2.5" style="stroke:#181818;stroke-width:0.5;" width="133" x="270.92" y="352.95"/><text fill="#000000" font-family="sans-serif" font-size="14" lengthAdjust="spacing" textLength="127" x="273.92" y="371.4852">game.components</text></g></a><!--class game.util--><a href="game/util/package-summary.html" target="_top" title="game/util/package-summary.html" xlink:actuate="onRequest" xlink:href="game/util/package-summary.html" xlink:show="new" xlink:title="game/util/package-summary.html" xlink:type="simple"><g id="elem_game.util"><rect codeLine="47" fill="#F1F1F1" height="26.4883" id="game.util" rx="2.5" ry="2.5" style="stroke:#181818;stroke-width:0.5;" width="70" x="137.42" y="7"/><text fill="#000000" font-family="sans-serif" font-size="14" lengthAdjust="spacing" textLength="64" x="140.42" y="25.5352">game.util</text></g></a><!--class game.components.enums--><a href="game/components/enums/package-summary.html" target="_top" title="game/components/enums/package-summary.html" xlink:actuate="onRequest" xlink:href="game/components/enums/package-summary.html" xlink:show="new" xlink:title="game/components/enums/package-summary.html" xlink:type="simple"><g id="elem_game.components.enums"><rect codeLine="49" fill="#F1F1F1" height="26.4883" id="game.components.enums" rx="2.5" ry="2.5" style="stroke:#181818;stroke-width:0.5;" width="183" x="245.92" y="439.44"/><text fill="#000000" font-family="sans-serif" font-size="14" lengthAdjust="spacing" textLength="177" x="248.92" y="457.9752">game.components.enums</text></g></a><!--class com.google.gson--><g id="elem_com.google.gson"><rect fill="#F1F1F1" height="26.4883" id="com.google.gson" rx="2.5" ry="2.5" style="stroke:#181818;stroke-width:0.5;" width="125" x="469.92" y="439.44"/><text fill="#000000" font-family="sans-serif" font-size="14" lengthAdjust="spacing" textLength="119" x="472.92" y="457.9752">com.google.gson</text></g><!--class game.components.interactives--><a href="game/components/interactives/package-summary.html" target="_top" title="game/components/interactives/package-summary.html" xlink:actuate="onRequest" xlink:href="game/components/interactives/package-summary.html" xlink:show="new" xlink:title="game/components/interactives/package-summary.html" xlink:type="simple"><g id="elem_game.components.interactives"><rect codeLine="51" fill="#F1F1F1" height="26.4883" id="game.components.interactives" rx="2.5" ry="2.5" style="stroke:#181818;stroke-width:0.5;" width="215" x="46.92" y="93.49"/><text fill="#000000" font-family="sans-serif" font-size="14" lengthAdjust="spacing" textLength="209" x="49.92" y="112.0252">game.components.interactives</text></g></a><!--class game.scene--><a href="game/scene/package-summary.html" target="_top" title="game/scene/package-summary.html" xlink:actuate="onRequest" xlink:href="game/scene/package-summary.html" xlink:show="new" xlink:title="game/scene/package-summary.html" xlink:type="simple"><g id="elem_game.scene"><rect codeLine="53" fill="#F1F1F1" height="26.4883" id="game.scene" rx="2.5" ry="2.5" style="stroke:#181818;stroke-width:0.5;" width="87" x="293.92" y="266.47"/><text fill="#000000" font-family="sans-serif" font-size="14" lengthAdjust="spacing" textLength="81" x="296.92" y="285.0052">game.scene</text></g></a><!--class game.observers--><a href="game/observers/package-summary.html" target="_top" title="game/observers/package-summary.html" xlink:actuate="onRequest" xlink:href="game/observers/package-summary.html" xlink:show="new" xlink:title="game/observers/package-summary.html" xlink:type="simple"><g id="elem_game.observers"><rect codeLine="55" fill="#F1F1F1" height="26.4883" id="game.observers" rx="2.5" ry="2.5" style="stroke:#181818;stroke-width:0.5;" width="115" x="879.92" y="266.47"/><text fill="#000000" font-family="sans-serif" font-size="14" lengthAdjust="spacing" textLength="109" x="882.92" y="285.0052">game.observers</text></g></a><!--class game.observers.events--><a href="game/observers/events/package-summary.html" target="_top" title="game/observers/events/package-summary.html" xlink:actuate="onRequest" xlink:href="game/observers/events/package-summary.html" xlink:show="new" xlink:title="game/observers/events/package-summary.html" xlink:type="simple"><g id="elem_game.observers.events"><rect codeLine="57" fill="#F1F1F1" height="26.4883" id="game.observers.events" rx="2.5" ry="2.5" style="stroke:#181818;stroke-width:0.5;" width="163" x="880.92" y="352.95"/><text fill="#000000" font-family="sans-serif" font-size="14" lengthAdjust="spacing" textLength="157" x="883.92" y="371.4852">game.observers.events</text></g></a><!--class imgui.gl3--><g id="elem_imgui.gl3"><rect fill="#F1F1F1" height="26.4883" id="imgui.gl3" rx="2.5" ry="2.5" style="stroke:#181818;stroke-width:0.5;" width="71" x="590.92" y="266.47"/><text fill="#000000" font-family="sans-serif" font-size="14" lengthAdjust="spacing" textLength="65" x="593.92" y="285.0052">imgui.gl3</text></g><!--class imgui.glfw--><g id="elem_imgui.glfw"><rect fill="#F1F1F1" height="26.4883" id="imgui.glfw" rx="2.5" ry="2.5" style="stroke:#181818;stroke-width:0.5;" width="78" x="696.42" y="266.47"/><text fill="#000000" font-family="sans-serif" font-size="14" lengthAdjust="spacing" textLength="72" x="699.42" y="285.0052">imgui.glfw</text></g><!--class game.editor--><a href="game/editor/package-summary.html" target="_top" title="game/editor/package-summary.html" xlink:actuate="onRequest" xlink:href="game/editor/package-summary.html" xlink:show="new" xlink:title="game/editor/package-summary.html" xlink:type="simple"><g id="elem_game.editor"><rect codeLine="59" fill="#F1F1F1" height="26.4883" id="game.editor" rx="2.5" ry="2.5" style="stroke:#181818;stroke-width:0.5;" width="89" x="1099.92" y="266.47"/><text fill="#000000" font-family="sans-serif" font-size="14" lengthAdjust="spacing" textLength="83" x="1102.92" y="285.0052">game.editor</text></g></a><!--class imgui--><g id="elem_imgui"><rect fill="#F1F1F1" height="26.4883" id="imgui" rx="2.5" ry="2.5" style="stroke:#181818;stroke-width:0.5;" width="45" x="1078.92" y="352.95"/><text fill="#000000" font-family="sans-serif" font-size="14" lengthAdjust="spacing" textLength="39" x="1081.92" y="371.4852">imgui</text></g><!--link game.renderer to org.joml--><g id="link_game.renderer_org.joml"><path codeLine="7" d="M498.8,110.42 C657.99,119.55 1117.37,155.25 1206.42,266.47 C1231.54,297.83 1210.9,346.95 1172.42,379.44 C1126.23,418.45 945.8,440.28 865.88,448.21 " fill="none" id="game.renderer-to-org.joml" style="stroke:#181818;stroke-width:1.0;"/><polygon fill="#181818" points="861.35,448.66,870.6963,451.7659,866.3263,448.1738,869.9184,443.8038,861.35,448.66" style="stroke:#181818;stroke-width:1.0;"/></g><!--link game.renderer to game.engine--><g id="link_game.renderer_game.engine"><path codeLine="8" d="M455.43,120.2 C475.68,135.19 516.54,160.37 546.82,176.64 " fill="none" id="game.renderer-to-game.engine" style="stroke:#181818;stroke-width:1.0;"/><polygon fill="#181818" points="551,178.86,544.9255,171.1075,546.5835,176.516,541.1751,178.1739,551,178.86" style="stroke:#181818;stroke-width:1.0;"/></g><!--link game.engine to game.renderer--><g id="link_game.engine_game.renderer"><path codeLine="25" d="M571.61,179.49 C551.47,164.45 510.9,139.46 480.58,123.29 " fill="none" id="game.engine-to-game.renderer" style="stroke:#181818;stroke-width:1.0;"/><polygon fill="#181818" points="476.39,121.09,482.4841,128.8271,480.8124,123.4229,486.2166,121.7512,476.39,121.09" style="stroke:#181818;stroke-width:1.0;"/></g><!--link game.renderer to game.components--><g id="link_game.renderer_game.components"><path codeLine="9" d="M411.93,120.35 C366.7,143.49 289.44,196.82 259.42,266.47 C246.12,297.34 276.08,329.92 303.26,348.86 " fill="none" id="game.renderer-to-game.components" style="stroke:#181818;stroke-width:1.0;"/><polygon fill="#181818" points="307.39,351.62,302.1401,343.287,303.2363,348.8366,297.6867,349.9328,307.39,351.62" style="stroke:#181818;stroke-width:1.0;"/></g><!--link game.components to game.renderer--><g id="link_game.components_game.renderer"><path codeLine="14" d="M331.88,352.46 C315.27,334.27 280.23,299.4 294.42,266.47 C322.91,200.35 393.98,148.95 427.76,124.1 " fill="none" id="game.components-to-game.renderer" style="stroke:#181818;stroke-width:1.0;"/><polygon fill="#181818" points="431.63,121.25,422.0163,123.3895,427.6112,124.2248,426.776,129.8196,431.63,121.25" style="stroke:#181818;stroke-width:1.0;"/></g><!--link game.util to game.renderer--><g id="link_game.util_game.renderer"><path codeLine="10" d="M207.7,32.2 C256.15,47.25 343.38,74.35 397.35,91.11 " fill="none" id="game.util-to-game.renderer" style="stroke:#181818;stroke-width:1.0;"/><polygon fill="#181818" points="401.99,92.55,394.5684,86.0754,397.212,91.0766,392.2109,93.7202,401.99,92.55" style="stroke:#181818;stroke-width:1.0;"/></g><!--link game.util to game.components--><g id="link_game.util_game.components"><path codeLine="11" d="M137.19,28.89 C87.67,41.54 6,70.48 29.42,119.98 C86.16,239.86 233.85,318.89 302.01,350.13 " fill="none" id="game.util-to-game.components" style="stroke:#181818;stroke-width:1.0;"/><polygon fill="#181818" points="306.18,352.02,299.6228,344.6713,301.6228,349.9628,296.3313,351.9629,306.18,352.02" style="stroke:#181818;stroke-width:1.0;"/></g><!--link game.components to org.joml--><g id="link_game.components_org.joml"><path codeLine="12" d="M404.27,378.72 C508.28,396.66 705.54,430.67 788.8,445.03 " fill="none" id="game.components-to-org.joml" style="stroke:#181818;stroke-width:1.0;"/><polygon fill="#181818" points="793.58,445.85,785.3831,440.3901,788.6515,445.0072,784.0345,448.2757,793.58,445.85" style="stroke:#181818;stroke-width:1.0;"/></g><!--link game.components to game.engine--><g id="link_game.components_game.engine"><path codeLine="13" d="M362.95,352.61 C414.12,322.27 525.01,245.1 566.9,210.93 " fill="none" id="game.components-to-game.engine" style="stroke:#181818;stroke-width:1.0;"/><polygon fill="#181818" points="570.72,207.76,561.2384,210.4245,566.8707,210.9511,566.3441,216.5833,570.72,207.76" style="stroke:#181818;stroke-width:1.0;"/></g><!--link game.engine to game.components--><g id="link_game.engine_game.components"><path codeLine="28" d="M557.35,206.79 C506.52,237.18 395.3,314.6 353.18,348.67 " fill="none" id="game.engine-to-game.components" style="stroke:#181818;stroke-width:1.0;"/><polygon fill="#181818" points="349.57,351.65,359.0623,349.0238,353.4321,348.4745,353.9814,342.8443,349.57,351.65" style="stroke:#181818;stroke-width:1.0;"/></g><!--link game.components to game.components.enums--><g id="link_game.components_game.components.enums"><path codeLine="15" d="M337.42,379.66 C337.42,393.64 337.42,416.47 337.42,432.67 " fill="none" id="game.components-to-game.components.enums" style="stroke:#181818;stroke-width:1.0;"/><polygon fill="#181818" points="337.42,437.65,341.42,428.65,337.42,432.65,333.42,428.65,337.42,437.65" style="stroke:#181818;stroke-width:1.0;"/></g><!--link game.components to com.google.gson--><g id="link_game.components_com.google.gson"><path codeLine="16" d="M366.62,379.85 C401.51,394.97 459.86,420.25 497.22,436.43 " fill="none" id="game.components-to-com.google.gson" style="stroke:#181818;stroke-width:1.0;"/><polygon fill="#181818" points="501.64,438.35,494.9705,431.1031,497.0517,436.3632,491.7916,438.4443,501.64,438.35" style="stroke:#181818;stroke-width:1.0;"/></g><!--link game.components.interactives to game.components--><g id="link_game.components.interactives_game.components"><path codeLine="17" d="M160.49,120.09 C175.85,150.83 218.43,232.62 265.42,292.95 C281.5,313.59 303,334.46 318.3,348.43 " fill="none" id="game.components.interactives-to-game.components" style="stroke:#181818;stroke-width:1.0;"/><polygon fill="#181818" points="321.72,351.52,317.7253,342.5176,318.0106,348.1673,312.361,348.4526,321.72,351.52" style="stroke:#181818;stroke-width:1.0;"/></g><!--link game.components.interactives to game.engine--><g id="link_game.components.interactives_game.engine"><path codeLine="18" d="M218.96,120.47 C303.4,137.14 449.85,166.05 528.61,181.6 " fill="none" id="game.components.interactives-to-game.engine" style="stroke:#181818;stroke-width:1.0;"/><polygon fill="#181818" points="533.14,182.49,525.0897,176.8162,528.2355,181.5177,523.534,184.6634,533.14,182.49" style="stroke:#181818;stroke-width:1.0;"/></g><!--link game.components.interactives to org.joml--><g id="link_game.components.interactives_org.joml"><path codeLine="19" d="M154.7,120.3 C156.4,164.2 168.45,311.66 253.42,379.44 C295.37,412.9 667.19,440.84 788.98,449.16 " fill="none" id="game.components.interactives-to-org.joml" style="stroke:#181818;stroke-width:1.0;"/><polygon fill="#181818" points="793.77,449.48,785.0656,444.872,788.7818,449.137,784.5168,452.8531,793.77,449.48" style="stroke:#181818;stroke-width:1.0;"/></g><!--link game.scene to game.components--><g id="link_game.scene_game.components"><path codeLine="20" d="M337.42,293.18 C337.42,307.15 337.42,329.98 337.42,346.18 " fill="none" id="game.scene-to-game.components" style="stroke:#181818;stroke-width:1.0;"/><polygon fill="#181818" points="337.42,351.17,341.42,342.17,337.42,346.17,333.42,342.17,337.42,351.17" style="stroke:#181818;stroke-width:1.0;"/></g><!--link game.scene to game.engine--><g id="link_game.scene_game.engine"><path codeLine="21" d="M381.28,266.93 C429.85,251.82 506.15,225.61 549.78,209.13 " fill="none" id="game.scene-to-game.engine" style="stroke:#181818;stroke-width:1.0;"/><polygon fill="#181818" points="554.3,207.41,544.465,206.8873,549.6296,209.1953,547.3215,214.3599,554.3,207.41" style="stroke:#181818;stroke-width:1.0;"/></g><!--link game.engine to game.scene--><g id="link_game.engine_game.scene"><path codeLine="26" d="M536.04,206.96 C487.65,222.19 413.64,247.65 370.69,263.79 " fill="none" id="game.engine-to-game.scene" style="stroke:#181818;stroke-width:1.0;"/><polygon fill="#181818" points="366.26,265.47,376.0935,266.019,370.9352,263.6972,373.257,258.5388,366.26,265.47" style="stroke:#181818;stroke-width:1.0;"/></g><!--link game.scene to game.renderer--><g id="link_game.scene_game.renderer"><path codeLine="22" d="M345.3,266.12 C364.1,236.09 411.6,160.18 433.3,125.5 " fill="none" id="game.scene-to-game.renderer" style="stroke:#181818;stroke-width:1.0;"/><polygon fill="#181818" points="435.75,121.59,427.588,127.102,433.1,125.83,434.372,131.342,435.75,121.59" style="stroke:#181818;stroke-width:1.0;"/></g><!--link game.engine to org.joml--><g id="link_game.engine_org.joml"><path codeLine="23" d="M630.22,197.35 C678.24,203.15 750.78,219.65 791.42,266.47 C833.07,314.44 832.28,396.02 829.45,432.76 " fill="none" id="game.engine-to-org.joml" style="stroke:#181818;stroke-width:1.0;"/><polygon fill="#181818" points="829.03,437.57,833.7882,428.9468,829.4594,432.5885,825.8178,428.2597,829.03,437.57" style="stroke:#181818;stroke-width:1.0;"/></g><!--link game.engine to game.observers--><g id="link_game.engine_game.observers"><path codeLine="24" d="M626.52,206.96 C688.69,222.8 801.67,249.7 873.14,265.67 " fill="none" id="game.engine-to-game.observers" style="stroke:#181818;stroke-width:1.0;"/><polygon fill="#181818" points="878.02,266.76,870.1221,260.8759,873.1428,265.6587,868.36,268.6794,878.02,266.76" style="stroke:#181818;stroke-width:1.0;"/></g><!--link game.observers to game.engine--><g id="link_game.observers_game.engine"><path codeLine="33" d="M893.92,265.98 C828.83,249.32 707.23,220.43 636.52,204.88 " fill="none" id="game.observers-to-game.engine" style="stroke:#181818;stroke-width:1.0;"/><polygon fill="#181818" points="631.74,203.83,639.6743,209.665,636.6239,204.901,641.3879,201.8507,631.74,203.83" style="stroke:#181818;stroke-width:1.0;"/></g><!--link game.engine to game.observers.events--><g id="link_game.engine_game.observers.events"><path codeLine="27" d="M630.41,194.84 C732.1,197.26 963.9,209.11 1012.42,266.47 C1033.74,291.66 1003.94,327.5 982.02,348.35 " fill="none" id="game.engine-to-game.observers.events" style="stroke:#181818;stroke-width:1.0;"/><polygon fill="#181818" points="978.59,351.54,987.9046,348.3402,982.2514,348.135,982.4566,342.4819,978.59,351.54" style="stroke:#181818;stroke-width:1.0;"/></g><!--link game.engine to imgui.gl3--><g id="link_game.engine_imgui.gl3"><path codeLine="29" d="M588.92,206.69 C596.33,220.91 608.51,244.31 616.97,260.56 " fill="none" id="game.engine-to-imgui.gl3" style="stroke:#181818;stroke-width:1.0;"/><polygon fill="#181818" points="619.21,264.85,618.6246,255.0186,616.9113,260.4097,611.5202,258.6964,619.21,264.85" style="stroke:#181818;stroke-width:1.0;"/></g><!--link game.engine to imgui.glfw--><g id="link_game.engine_imgui.glfw"><path codeLine="30" d="M605.33,206.87 C632.37,221.8 677.37,246.65 706.71,262.85 " fill="none" id="game.engine-to-imgui.glfw" style="stroke:#181818;stroke-width:1.0;"/><polygon fill="#181818" points="711.04,265.24,705.1043,257.3808,706.6659,262.8178,701.2288,264.3794,711.04,265.24" style="stroke:#181818;stroke-width:1.0;"/></g><!--link game.engine to game.editor--><g id="link_game.engine_game.editor"><path codeLine="31" d="M630.31,202.37 C716.22,215.29 900.51,241.56 1056.42,266.47 C1068.1,268.33 1080.83,270.49 1093.11,272.47 " fill="none" id="game.engine-to-game.editor" style="stroke:#181818;stroke-width:1.0;"/><polygon fill="#181818" points="1097.98,273.24,1089.722,267.873,1093.0424,272.4528,1088.4625,275.7732,1097.98,273.24" style="stroke:#181818;stroke-width:1.0;"/></g><!--link game.editor to game.engine--><g id="link_game.editor_game.engine"><path codeLine="36" d="M1099.71,267.81 C1096.92,267.35 1094.14,266.9 1091.42,266.47 C926.75,240.15 730.41,212.33 636.64,200.32 " fill="none" id="game.editor-to-game.engine" style="stroke:#181818;stroke-width:1.0;"/><polygon fill="#181818" points="631.85,199.71,640.2608,204.8342,636.8085,200.353,641.2897,196.9007,631.85,199.71" style="stroke:#181818;stroke-width:1.0;"/></g><!--link game.engine to com.google.gson--><g id="link_game.engine_com.google.gson"><path codeLine="32" d="M580.01,206.64 C571.93,248.26 545.76,383.03 536.07,432.9 " fill="none" id="game.engine-to-com.google.gson" style="stroke:#181818;stroke-width:1.0;"/><polygon fill="#181818" points="535.16,437.6,540.8068,429.5307,536.1159,432.6922,532.9544,428.0013,535.16,437.6" style="stroke:#181818;stroke-width:1.0;"/></g><!--link game.observers to game.observers.events--><g id="link_game.observers_game.observers.events"><path codeLine="34" d="M941.11,293.18 C945.29,307.28 952.12,330.39 956.93,346.62 " fill="none" id="game.observers-to-game.observers.events" style="stroke:#181818;stroke-width:1.0;"/><polygon fill="#181818" points="958.29,351.23,959.5832,341.4664,956.8769,346.4339,951.9094,343.7275,958.29,351.23" style="stroke:#181818;stroke-width:1.0;"/></g><!--link game.editor to org.joml--><g id="link_game.editor_org.joml"><path codeLine="35" d="M1148.41,293.29 C1154.08,313.84 1161.67,354.79 1141.42,379.44 C1106.72,421.7 941.89,441.55 865.93,448.57 " fill="none" id="game.editor-to-org.joml" style="stroke:#181818;stroke-width:1.0;"/><polygon fill="#181818" points="861.24,448.99,870.5594,452.1757,866.2203,448.5464,869.8496,444.2072,861.24,448.99" style="stroke:#181818;stroke-width:1.0;"/></g><!--link game.editor to game.renderer--><g id="link_game.editor_game.renderer"><path codeLine="37" d="M1099.43,267.72 C977.13,237.85 638.7,155.19 502.41,121.9 " fill="none" id="game.editor-to-game.renderer" style="stroke:#181818;stroke-width:1.0;"/><polygon fill="#181818" points="497.94,120.8,505.7346,126.8203,502.7974,121.9858,507.6319,119.0485,497.94,120.8" style="stroke:#181818;stroke-width:1.0;"/></g><!--link game.editor to imgui--><g id="link_game.editor_imgui"><path codeLine="38" d="M1138.08,293.18 C1130.84,307.4 1118.93,330.8 1110.66,347.05 " fill="none" id="game.editor-to-imgui" style="stroke:#181818;stroke-width:1.0;"/><polygon fill="#181818" points="1108.48,351.33,1116.1304,345.1274,1110.7503,346.8751,1109.0026,341.495,1108.48,351.33" style="stroke:#181818;stroke-width:1.0;"/></g><text fill="#888888" font-family="sans-serif" font-size="10" lengthAdjust="spacing" textLength="182" x="521.27" y="480.5963">UMLDoclet 2.1.0, PlantUML 1.2022.14</text><!--SRC=[fLNBRjim4BptAnO1WhH0JFTnxwd710XGz6Jum51hcZKV1aavC8ByUodI4HM9T2BtPEpCxEpm8He0mEs4tbDB5JnIjkFMjBfXHXeBtbBj0eNQVu9EYHuqLHWmXh-nQ_91fet6o6z5Wy24PN9Gezhx8sm4oiQDKOL-Qm8SSHwSIPZLe4KBYyLFC9QJlqR92XqHr5oSnbSKpAXzIAYzowhM2vaLhpqrlkIGiKhKaQ0OjgIPXYcfCXPCMrKF5ah2ZU4I2NT6btH4Q8-MCYyEw3wwwafJVONJXkcUEOOQpoSOISRpHlHqCrD3PVw0ZBLvT6WFQ5rTSdP2ZlI16GGFRvSwLfQsOw0HYhU2SFdZBBjvgW_0HeJlkSXNhr4Vltuc1ScPHSSCjVF9P77Ic2ySJbR47KbFpmqyXAUFSWGfz2wbOP8w1rTlVAvWjUg0vIkmtAU-XMkLelP8jbx9zHgUeyNBn2W5xcrIETSatuFUA4DppRgNhhVfYilJf9Ueb2aI_s4yV3fA_aD-xfZuUVQciPfhqT_ctgP7BhOwVHW5nqJClddnukUR5yltJ98BThiB6sEwdp_tTxzC-8Fty9ry8rzluK5IxGCArrqwOVJdB_y0]--></g></svg>