<?xml version="1.0" encoding="UTF-8" standalone="no"?><svg xmlns="http://www.w3.org/2000/svg" xmlns:xlink="http://www.w3.org/1999/xlink" contentStyleType="text/css" height="577px" preserveAspectRatio="none" style="width:1189px;height:577px;" version="1.1" viewBox="0 0 1189 577" width="1189px" zoomAndPan="magnify"><defs/><g><!--class game.renderer--><a href="game/renderer/package-summary.html" target="_top" title="game/renderer/package-summary.html" xlink:actuate="onRequest" xlink:href="game/renderer/package-summary.html" xlink:show="new" xlink:title="game/renderer/package-summary.html" xlink:type="simple"><g id="elem_game.renderer"><rect codeLine="40" fill="#F1F1F1" height="26.4883" id="game.renderer" rx="2.5" ry="2.5" style="stroke:#181818;stroke-width:0.5;" width="108" x="643" y="93.49"/><text fill="#000000" font-family="sans-serif" font-size="14" lengthAdjust="spacing" textLength="102" x="646" y="112.0252">game.renderer</text></g></a><!--class org.joml--><g id="elem_org.joml"><rect fill="#F1F1F1" height="26.4883" id="org.joml" rx="2.5" ry="2.5" style="stroke:#181818;stroke-width:0.5;" width="64" x="217" y="525.93"/><text fill="#000000" font-family="sans-serif" font-size="14" lengthAdjust="spacing" textLength="58" x="220" y="544.4652">org.joml</text></g><!--class game.engine--><a href="game/engine/package-summary.html" target="_top" title="game/engine/package-summary.html" xlink:actuate="onRequest" xlink:href="game/engine/package-summary.html" xlink:show="new" xlink:title="game/engine/package-summary.html" xlink:type="simple"><g id="elem_game.engine"><rect codeLine="42" fill="#F1F1F1" height="26.4883" id="game.engine" rx="2.5" ry="2.5" style="stroke:#181818;stroke-width:0.5;" width="95" x="618.5" y="179.98"/><text fill="#000000" font-family="sans-serif" font-size="14" lengthAdjust="spacing" textLength="89" x="621.5" y="198.5152">game.engine</text></g></a><!--class game.components--><a href="game/components/package-summary.html" target="_top" title="game/components/package-summary.html" xlink:actuate="onRequest" xlink:href="game/components/package-summary.html" xlink:show="new" xlink:title="game/components/package-summary.html" xlink:type="simple"><g id="elem_game.components"><rect codeLine="44" fill="#F1F1F1" height="26.4883" id="game.components" rx="2.5" ry="2.5" style="stroke:#181818;stroke-width:0.5;" width="133" x="839.5" y="352.96"/><text fill="#000000" font-family="sans-serif" font-size="14" lengthAdjust="spacing" textLength="127" x="842.5" y="371.4952">game.components</text></g></a><!--class game.util--><a href="game/util/package-summary.html" target="_top" title="game/util/package-summary.html" xlink:actuate="onRequest" xlink:href="game/util/package-summary.html" xlink:show="new" xlink:title="game/util/package-summary.html" xlink:type="simple"><g id="elem_game.util"><rect codeLine="46" fill="#F1F1F1" height="26.4883" id="game.util" rx="2.5" ry="2.5" style="stroke:#181818;stroke-width:0.5;" width="70" x="840" y="7"/><text fill="#000000" font-family="sans-serif" font-size="14" lengthAdjust="spacing" textLength="64" x="843" y="25.5352">game.util</text></g></a><!--class game.editor--><a href="game/editor/package-summary.html" target="_top" title="game/editor/package-summary.html" xlink:actuate="onRequest" xlink:href="game/editor/package-summary.html" xlink:show="new" xlink:title="game/editor/package-summary.html" xlink:type="simple"><g id="elem_game.editor"><rect codeLine="48" fill="#F1F1F1" height="26.4883" id="game.editor" rx="2.5" ry="2.5" style="stroke:#181818;stroke-width:0.5;" width="89" x="111.5" y="439.44"/><text fill="#000000" font-family="sans-serif" font-size="14" lengthAdjust="spacing" textLength="83" x="114.5" y="457.9752">game.editor</text></g></a><!--class com.google.gson--><g id="elem_com.google.gson"><rect fill="#F1F1F1" height="26.4883" id="com.google.gson" rx="2.5" ry="2.5" style="stroke:#181818;stroke-width:0.5;" width="125" x="557.5" y="439.44"/><text fill="#000000" font-family="sans-serif" font-size="14" lengthAdjust="spacing" textLength="119" x="560.5" y="457.9752">com.google.gson</text></g><!--class game.components.interactives--><a href="game/components/interactives/package-summary.html" target="_top" title="game/components/interactives/package-summary.html" xlink:actuate="onRequest" xlink:href="game/components/interactives/package-summary.html" xlink:show="new" xlink:title="game/components/interactives/package-summary.html" xlink:type="simple"><g id="elem_game.components.interactives"><rect codeLine="50" fill="#F1F1F1" height="26.4883" id="game.components.interactives" rx="2.5" ry="2.5" style="stroke:#181818;stroke-width:0.5;" width="215" x="906.5" y="93.49"/><text fill="#000000" font-family="sans-serif" font-size="14" lengthAdjust="spacing" textLength="209" x="909.5" y="112.0252">game.components.interactives</text></g></a><!--class game.scene--><a href="game/scene/package-summary.html" target="_top" title="game/scene/package-summary.html" xlink:actuate="onRequest" xlink:href="game/scene/package-summary.html" xlink:show="new" xlink:title="game/scene/package-summary.html" xlink:type="simple"><g id="elem_game.scene"><rect codeLine="52" fill="#F1F1F1" height="26.4883" id="game.scene" rx="2.5" ry="2.5" style="stroke:#181818;stroke-width:0.5;" width="87" x="919.5" y="266.47"/><text fill="#000000" font-family="sans-serif" font-size="14" lengthAdjust="spacing" textLength="81" x="922.5" y="285.0052">game.scene</text></g></a><!--class game.observers--><a href="game/observers/package-summary.html" target="_top" title="game/observers/package-summary.html" xlink:actuate="onRequest" xlink:href="game/observers/package-summary.html" xlink:show="new" xlink:title="game/observers/package-summary.html" xlink:type="simple"><g id="elem_game.observers"><rect codeLine="54" fill="#F1F1F1" height="26.4883" id="game.observers" rx="2.5" ry="2.5" style="stroke:#181818;stroke-width:0.5;" width="115" x="376.5" y="266.47"/><text fill="#000000" font-family="sans-serif" font-size="14" lengthAdjust="spacing" textLength="109" x="379.5" y="285.0052">game.observers</text></g></a><!--class game.observers.events--><a href="game/observers/events/package-summary.html" target="_top" title="game/observers/events/package-summary.html" xlink:actuate="onRequest" xlink:href="game/observers/events/package-summary.html" xlink:show="new" xlink:title="game/observers/events/package-summary.html" xlink:type="simple"><g id="elem_game.observers.events"><rect codeLine="56" fill="#F1F1F1" height="26.4883" id="game.observers.events" rx="2.5" ry="2.5" style="stroke:#181818;stroke-width:0.5;" width="163" x="317.5" y="352.96"/><text fill="#000000" font-family="sans-serif" font-size="14" lengthAdjust="spacing" textLength="157" x="320.5" y="371.4952">game.observers.events</text></g></a><!--class imgui.gl3--><g id="elem_imgui.gl3"><rect fill="#F1F1F1" height="26.4883" id="imgui.gl3" rx="2.5" ry="2.5" style="stroke:#181818;stroke-width:0.5;" width="71" x="709.5" y="266.47"/><text fill="#000000" font-family="sans-serif" font-size="14" lengthAdjust="spacing" textLength="65" x="712.5" y="285.0052">imgui.gl3</text></g><!--class imgui.glfw--><g id="elem_imgui.glfw"><rect fill="#F1F1F1" height="26.4883" id="imgui.glfw" rx="2.5" ry="2.5" style="stroke:#181818;stroke-width:0.5;" width="78" x="597" y="266.47"/><text fill="#000000" font-family="sans-serif" font-size="14" lengthAdjust="spacing" textLength="72" x="600" y="285.0052">imgui.glfw</text></g><!--class imgui--><g id="elem_imgui"><rect fill="#F1F1F1" height="26.4883" id="imgui" rx="2.5" ry="2.5" style="stroke:#181818;stroke-width:0.5;" width="45" x="133.5" y="525.93"/><text fill="#000000" font-family="sans-serif" font-size="14" lengthAdjust="spacing" textLength="39" x="136.5" y="544.4652">imgui</text></g><!--link game.renderer to org.joml--><g id="link_game.renderer_org.joml"><path codeLine="7" d="M642.78,109.54 C479.88,116.43 6,147.71 6,278.71 C6,278.71 6,278.71 6,367.2 C6,425.98 46.83,430.85 94,465.93 C130.11,492.79 177.79,513.17 210.69,525.32 " fill="none" id="game.renderer-to-org.joml" style="stroke:#181818;stroke-width:1.0;"/><polygon fill="#181818" points="215.23,526.98,208.1455,520.1382,210.5327,525.2667,205.4042,527.6539,215.23,526.98" style="stroke:#181818;stroke-width:1.0;"/></g><!--link game.renderer to game.engine--><g id="link_game.renderer_game.engine"><path codeLine="8" d="M683.07,120.2 C673.91,134.3 664.96,157.41 662.04,173.64 " fill="none" id="game.renderer-to-game.engine" style="stroke:#181818;stroke-width:1.0;"/><polygon fill="#181818" points="661.42,178.21,666.6155,169.843,662.1051,173.2572,658.6909,168.7468,661.42,178.21" style="stroke:#181818;stroke-width:1.0;"/></g><!--link game.engine to game.renderer--><g id="link_game.engine_game.renderer"><path codeLine="24" d="M680.52,179.7 C689.91,165.58 698.88,142.47 701.6,126.26 " fill="none" id="game.engine-to-game.renderer" style="stroke:#181818;stroke-width:1.0;"/><polygon fill="#181818" points="702.15,121.7,697.0765,130.1415,701.5368,126.6623,705.0161,131.1226,702.15,121.7" style="stroke:#181818;stroke-width:1.0;"/></g><!--link game.renderer to game.components--><g id="link_game.renderer_game.components"><path codeLine="9" d="M751.34,118.29 C824.53,134.7 950.97,174.61 1007,266.47 C1029.51,303.37 976.4,333.08 938.58,349.93 " fill="none" id="game.renderer-to-game.components" style="stroke:#181818;stroke-width:1.0;"/><polygon fill="#181818" points="934.04,351.92,943.8886,351.9885,938.6231,349.9212,940.6905,344.6556,934.04,351.92" style="stroke:#181818;stroke-width:1.0;"/></g><!--link game.components to game.renderer--><g id="link_game.components_game.renderer"><path codeLine="14" d="M957.31,352.53 C1005.5,336.23 1065.71,305.35 1042,266.47 C981.71,167.62 839.88,128.93 757.73,114.94 " fill="none" id="game.components-to-game.renderer" style="stroke:#181818;stroke-width:1.0;"/><polygon fill="#181818" points="752.92,114.14,761.1476,119.5536,757.8531,114.955,762.4517,111.6606,752.92,114.14" style="stroke:#181818;stroke-width:1.0;"/></g><!--link game.util to game.renderer--><g id="link_game.util_game.renderer"><path codeLine="10" d="M848.35,33.89 C816.63,48.95 763.67,74.09 729.55,90.28 " fill="none" id="game.util-to-game.renderer" style="stroke:#181818;stroke-width:1.0;"/><polygon fill="#181818" points="725.2,92.35,735.0451,92.0787,729.7114,90.1942,731.5959,84.8605,725.2,92.35" style="stroke:#181818;stroke-width:1.0;"/></g><!--link game.util to game.components--><g id="link_game.util_game.components"><path codeLine="11" d="M910.39,26.04 C975.2,35.57 1109.05,59 1139,93.49 C1164.41,122.75 1147.1,141.34 1150,179.98 C1153.75,230.06 1182.09,252.75 1152,292.96 C1131.1,320.87 1043.62,341.68 978.9,353.62 " fill="none" id="game.util-to-game.components" style="stroke:#181818;stroke-width:1.0;"/><polygon fill="#181818" points="974.2,354.48,983.7721,356.7982,979.1187,353.5818,982.335,348.9283,974.2,354.48" style="stroke:#181818;stroke-width:1.0;"/></g><!--link game.components to org.joml--><g id="link_game.components_org.joml"><path codeLine="12" d="M884.89,379.86 C848.49,401.1 770.98,443.75 700,465.93 C552.03,512.17 367.03,529.92 287.86,535.73 " fill="none" id="game.components-to-org.joml" style="stroke:#181818;stroke-width:1.0;"/><polygon fill="#181818" points="282.95,536.08,292.2128,539.4267,287.9372,535.7227,291.6412,531.4472,282.95,536.08" style="stroke:#181818;stroke-width:1.0;"/></g><!--link game.components to game.engine--><g id="link_game.components_game.engine"><path codeLine="13" d="M905.52,352.61 C893.18,332.76 854.03,293.65 816,266.47 C784.09,243.65 744.2,222.75 713.04,209.36 " fill="none" id="game.components-to-game.engine" style="stroke:#181818;stroke-width:1.0;"/><polygon fill="#181818" points="708.72,207.54,715.4545,214.7265,713.326,209.4854,718.5672,207.3569,708.72,207.54" style="stroke:#181818;stroke-width:1.0;"/></g><!--link game.engine to game.components--><g id="link_game.engine_game.components"><path codeLine="27" d="M680.57,206.83 C703.94,220.01 747,242.16 781,266.47 C816.65,291.95 853.29,327.92 878.6,348.67 " fill="none" id="game.engine-to-game.components" style="stroke:#181818;stroke-width:1.0;"/><polygon fill="#181818" points="882.33,351.67,877.8127,342.9182,878.4298,348.5413,872.8068,349.1585,882.33,351.67" style="stroke:#181818;stroke-width:1.0;"/></g><!--link game.components to game.editor--><g id="link_game.components_game.editor"><path codeLine="15" d="M839.11,374.73 C691.21,391.4 339.07,431.06 207.11,445.93 " fill="none" id="game.components-to-game.editor" style="stroke:#181818;stroke-width:1.0;"/><polygon fill="#181818" points="202.49,446.45,211.8795,449.4228,207.4589,445.8931,210.9885,441.4725,202.49,446.45" style="stroke:#181818;stroke-width:1.0;"/></g><!--link game.components to com.google.gson--><g id="link_game.components_com.google.gson"><path codeLine="16" d="M862.87,379.94 C810.88,395.3 723.72,421.05 669.17,437.16 " fill="none" id="game.components-to-com.google.gson" style="stroke:#181818;stroke-width:1.0;"/><polygon fill="#181818" points="664.46,438.55,674.2246,439.8353,669.255,437.133,671.9574,432.1633,664.46,438.55" style="stroke:#181818;stroke-width:1.0;"/></g><!--link game.components.interactives to game.components--><g id="link_game.components.interactives_game.components"><path codeLine="17" d="M1047.17,120.45 C1071.93,131.91 1103.97,151.38 1119,179.98 C1142.37,224.42 1148.25,252.14 1119,292.96 C1087.43,337 1027.5,354.52 979.23,361.33 " fill="none" id="game.components.interactives-to-game.components" style="stroke:#181818;stroke-width:1.0;"/><polygon fill="#181818" points="974.3,361.99,983.7476,364.7726,979.2566,361.3329,982.6963,356.842,974.3,361.99" style="stroke:#181818;stroke-width:1.0;"/></g><!--link game.components.interactives to game.engine--><g id="link_game.components.interactives_game.engine"><path codeLine="18" d="M961.52,120.47 C896.41,136.28 785.94,163.1 720.09,179.09 " fill="none" id="game.components.interactives-to-game.engine" style="stroke:#181818;stroke-width:1.0;"/><polygon fill="#181818" points="715.33,180.25,725.0219,182.0015,720.1874,179.0642,723.1246,174.2297,715.33,180.25" style="stroke:#181818;stroke-width:1.0;"/></g><!--link game.scene to game.components--><g id="link_game.scene_game.components"><path codeLine="19" d="M954.59,293.18 C944.91,307.53 928.93,331.21 917.96,347.47 " fill="none" id="game.scene-to-game.components" style="stroke:#181818;stroke-width:1.0;"/><polygon fill="#181818" points="915.29,351.43,923.6437,346.2132,918.0898,347.2874,917.0156,341.7335,915.29,351.43" style="stroke:#181818;stroke-width:1.0;"/></g><!--link game.scene to game.engine--><g id="link_game.scene_game.engine"><path codeLine="20" d="M928.23,265.98 C876.69,249.98 780.76,222.7 720.08,206.78 " fill="none" id="game.scene-to-game.engine" style="stroke:#181818;stroke-width:1.0;"/><polygon fill="#181818" points="715.42,205.56,723.1262,211.693,720.2596,206.8163,725.1363,203.9497,715.42,205.56" style="stroke:#181818;stroke-width:1.0;"/></g><!--link game.engine to game.scene--><g id="link_game.engine_game.scene"><path codeLine="25" d="M701.35,206.96 C754.17,223.27 852.82,251.31 912.97,267.07 " fill="none" id="game.engine-to-game.scene" style="stroke:#181818;stroke-width:1.0;"/><polygon fill="#181818" points="917.56,268.27,909.8538,262.137,912.7204,267.0137,907.8437,269.8803,917.56,268.27" style="stroke:#181818;stroke-width:1.0;"/></g><!--link game.scene to game.renderer--><g id="link_game.scene_game.renderer"><path codeLine="21" d="M943.41,266.12 C895.92,235.59 774.68,157.67 722.03,123.83 " fill="none" id="game.scene-to-game.renderer" style="stroke:#181818;stroke-width:1.0;"/><polygon fill="#181818" points="717.83,121.13,723.2178,129.3745,722.0294,123.8439,727.56,122.6555,717.83,121.13" style="stroke:#181818;stroke-width:1.0;"/></g><!--link game.engine to org.joml--><g id="link_game.engine_org.joml"><path codeLine="22" d="M618.29,199.89 C539.43,210.08 386.42,233.52 344,266.47 C262.23,329.99 250.59,468.67 249.13,519.24 " fill="none" id="game.engine-to-org.joml" style="stroke:#181818;stroke-width:1.0;"/><polygon fill="#181818" points="249.02,523.99,253.2246,515.0838,249.1343,518.9913,245.2267,514.9009,249.02,523.99" style="stroke:#181818;stroke-width:1.0;"/></g><!--link game.engine to game.observers--><g id="link_game.engine_game.observers"><path codeLine="23" d="M621.58,206.96 C575.71,222.13 506.01,247.45 465.47,263.59 " fill="none" id="game.engine-to-game.observers" style="stroke:#181818;stroke-width:1.0;"/><polygon fill="#181818" points="460.87,265.44,470.7128,265.7853,465.5074,263.5708,467.722,258.3654,460.87,265.44" style="stroke:#181818;stroke-width:1.0;"/></g><!--link game.observers to game.engine--><g id="link_game.observers_game.engine"><path codeLine="32" d="M478.96,265.98 C525.22,250.76 595.25,225.33 635.51,209.18 " fill="none" id="game.observers-to-game.engine" style="stroke:#181818;stroke-width:1.0;"/><polygon fill="#181818" points="639.83,207.44,629.9872,207.0947,635.1926,209.3092,632.978,214.5146,639.83,207.44" style="stroke:#181818;stroke-width:1.0;"/></g><!--link game.engine to game.observers.events--><g id="link_game.engine_game.observers.events"><path codeLine="26" d="M618.04,198.39 C539.94,206.28 390.79,226.33 359,266.47 C339.44,291.16 363.62,326.71 381.99,347.73 " fill="none" id="game.engine-to-game.observers.events" style="stroke:#181818;stroke-width:1.0;"/><polygon fill="#181818" points="385.26,351.37,382.2125,342.0045,381.9152,347.6535,376.2661,347.3562,385.26,351.37" style="stroke:#181818;stroke-width:1.0;"/></g><!--link game.engine to imgui.gl3--><g id="link_game.engine_imgui.gl3"><path codeLine="28" d="M677.66,206.69 C691.31,221.29 713.99,245.55 729.21,261.83 " fill="none" id="game.engine-to-imgui.gl3" style="stroke:#181818;stroke-width:1.0;"/><polygon fill="#181818" points="732.26,265.09,729.0421,255.7817,728.8479,261.4352,723.1944,261.241,732.26,265.09" style="stroke:#181818;stroke-width:1.0;"/></g><!--link game.engine to imgui.glfw--><g id="link_game.engine_imgui.glfw"><path codeLine="29" d="M661.57,206.69 C656.57,220.79 648.36,243.9 642.6,260.13 " fill="none" id="game.engine-to-imgui.glfw" style="stroke:#181818;stroke-width:1.0;"/><polygon fill="#181818" points="640.95,264.77,647.7344,257.6305,642.6253,260.059,640.1968,254.95,640.95,264.77" style="stroke:#181818;stroke-width:1.0;"/></g><!--link game.engine to game.editor--><g id="link_game.engine_game.editor"><path codeLine="30" d="M618.18,195.79 C513.58,200.37 271.07,216.69 210,266.47 C157.52,309.25 143.77,395.58 147.92,433.32 " fill="none" id="game.engine-to-game.editor" style="stroke:#181818;stroke-width:1.0;"/><polygon fill="#181818" points="148.59,437.87,151.2348,428.3829,147.8609,432.9234,143.3203,429.5495,148.59,437.87" style="stroke:#181818;stroke-width:1.0;"/></g><!--link game.editor to game.engine--><g id="link_game.editor_game.engine"><path codeLine="35" d="M165.04,439.37 C177.31,405.71 189.48,311.73 245,266.47 C301.17,220.68 510.83,203.2 611.72,197.13 " fill="none" id="game.editor-to-game.engine" style="stroke:#181818;stroke-width:1.0;"/><polygon fill="#181818" points="616.69,196.84,607.466,193.3878,611.699,197.1403,607.9465,201.3733,616.69,196.84" style="stroke:#181818;stroke-width:1.0;"/></g><!--link game.engine to com.google.gson--><g id="link_game.engine_com.google.gson"><path codeLine="31" d="M641.56,206.76 C620.86,218.9 592.6,239.42 580,266.47 C553.2,323.97 589.48,399.94 609.01,433.93 " fill="none" id="game.engine-to-com.google.gson" style="stroke:#181818;stroke-width:1.0;"/><polygon fill="#181818" points="611.44,438.09,610.326,428.3043,608.9055,433.78,603.4299,432.3595,611.44,438.09" style="stroke:#181818;stroke-width:1.0;"/></g><!--link game.observers to game.observers.events--><g id="link_game.observers_game.observers.events"><path codeLine="33" d="M428.84,293.18 C422.94,307.4 413.25,330.8 406.52,347.05 " fill="none" id="game.observers-to-game.observers.events" style="stroke:#181818;stroke-width:1.0;"/><polygon fill="#181818" points="404.76,351.28,411.896,344.492,406.6709,346.6596,404.5033,341.4345,404.76,351.28" style="stroke:#181818;stroke-width:1.0;"/></g><!--link game.editor to org.joml--><g id="link_game.editor_org.joml"><path codeLine="34" d="M169.72,466.15 C185.79,480.76 212.5,505.01 230.42,521.29 " fill="none" id="game.editor-to-org.joml" style="stroke:#181818;stroke-width:1.0;"/><polygon fill="#181818" points="234.1,524.64,230.1416,515.6216,230.4042,521.2724,224.7534,521.5349,234.1,524.64" style="stroke:#181818;stroke-width:1.0;"/></g><!--link game.editor to game.renderer--><g id="link_game.editor_game.renderer"><path codeLine="36" d="M154.29,438.96 C150.54,405.08 145.56,312.22 196,266.47 C322.93,151.34 533.28,119.7 636.33,111.02 " fill="none" id="game.editor-to-game.renderer" style="stroke:#181818;stroke-width:1.0;"/><polygon fill="#181818" points="641.15,110.62,631.8497,107.379,636.1672,111.034,632.5121,115.3515,641.15,110.62" style="stroke:#181818;stroke-width:1.0;"/></g><!--link game.editor to imgui--><g id="link_game.editor_imgui"><path codeLine="37" d="M156,466.15 C156,480.13 156,502.96 156,519.16 " fill="none" id="game.editor-to-imgui" style="stroke:#181818;stroke-width:1.0;"/><polygon fill="#181818" points="156,524.14,160,515.14,156,519.14,152,515.14,156,524.14" style="stroke:#181818;stroke-width:1.0;"/></g><text fill="#888888" font-family="sans-serif" font-size="10" lengthAdjust="spacing" textLength="182" x="496.545" y="567.0863">UMLDoclet 2.1.0, PlantUML 1.2022.14</text><!--SRC=[dLNBJW8n5Dtx5JScHasa-DYxSgc9YN5bN9JEfLJw86t14EE_s-d0T1XQP5YHUywvvpxQAG00RYxqWbggO4BPd5kpr1KpqbZmbceNADJ-36ebUj1KOS0Olc6Tv8DC6usHduaAWGdBP2T6jV1hc0gKbUkZ2ltC13ZYF3YJKAj2YnP6eqSmbfClesI1ZWXgBZRb2mfcr29qgBrBggKNCYcsEIK-vv2mGgizGRRPd6Q_cQnJ9SBgYveG4cuCbqYuCpgd8q9xj9HviK9txAo5fFvSZg76mvuzoJyE-qjf4Wgxxv0nDXE7TeNMbIK7AwIMZgX1SBKxQb-PMqT78nHV2iBbmq5s-bqkqByS7RvuCThsosUIaHmOElPGEfz4PYlr-SpX94NSIFE4NC9hUC8eHv12pvjkcAJEmVcEppbyVDJ0U0kC5qtUo2sLedPDPbx9pq_uYHQ_UqPDmwrD4murIVUWDKhGKBFwnMfjwc3mI76ZQQGOdZxIpakHcw_B3oqJFyNMD4P3BTgRszgqoCbMcuyWuzWG_natpbWl1gR6r3_lByzF9loVUhWdT-Js1bubrJwWS54R2wElhly0]--></g></svg>