<?xml version="1.0" encoding="UTF-8" standalone="no"?><svg xmlns="http://www.w3.org/2000/svg" xmlns:xlink="http://www.w3.org/1999/xlink" contentStyleType="text/css" height="286px" preserveAspectRatio="none" style="width:496px;height:286px;background:#FFFFFF;" version="1.1" viewBox="0 0 496 286" width="496px" zoomAndPan="magnify"><defs/><g><!--cluster game.components.interactives--><g id="cluster_game.components.interactives"><path d="M8.5,145.49 L226.5,145.49 A3.75,3.75 0 0 1 229,147.99 L236,167.9783 L486.5,167.9783 A2.5,2.5 0 0 1 489,170.4783 L489,258.48 A2.5,2.5 0 0 1 486.5,260.98 L8.5,260.98 A2.5,2.5 0 0 1 6,258.48 L6,147.99 A2.5,2.5 0 0 1 8.5,145.49 " fill="none" style="stroke:#000000;stroke-width:1.5;"/><line style="stroke:#000000;stroke-width:1.5;" x1="6" x2="236" y1="167.9783" y2="167.9783"/><text fill="#000000" font-family="sans-serif" font-size="14" font-weight="bold" lengthAdjust="spacing" textLength="217" x="10" y="161.0252">game.components.interactives</text></g><!--cluster game.components--><g id="cluster_game.components"><path d="M129.5,6 L260.5,6 A3.75,3.75 0 0 1 263,8.5 L270,28.4883 L364.5,28.4883 A2.5,2.5 0 0 1 367,30.9883 L367,118.99 A2.5,2.5 0 0 1 364.5,121.49 L129.5,121.49 A2.5,2.5 0 0 1 127,118.99 L127,8.5 A2.5,2.5 0 0 1 129.5,6 " fill="none" style="stroke:#000000;stroke-width:1.5;"/><line style="stroke:#000000;stroke-width:1.5;" x1="127" x2="270" y1="28.4883" y2="28.4883"/><text fill="#000000" font-family="sans-serif" font-size="14" font-weight="bold" lengthAdjust="spacing" textLength="130" x="131" y="21.5352">game.components</text></g><!--class game.components.interactives.grow_in_size--><a href="grow_in_size.html" target="_top" title="grow_in_size.html" xlink:actuate="onRequest" xlink:href="grow_in_size.html" xlink:show="new" xlink:title="grow_in_size.html" xlink:type="simple"><g id="elem_game.components.interactives.grow_in_size"><rect codeLine="3" fill="#F1F1F1" height="64.4883" id="game.components.interactives.grow_in_size" rx="2.5" ry="2.5" style="stroke:#181818;stroke-width:0.5;" width="208" x="265" y="180.49"/><ellipse cx="320.25" cy="196.49" fill="#ADD1B2" rx="11" ry="11" style="stroke:#181818;stroke-width:1.0;"/><path d="M322.7231,202.6331 Q322.1421,202.9319 321.5029,203.0813 Q320.8638,203.2307 320.1582,203.2307 Q317.6514,203.2307 316.3315,201.5789 Q315.0117,199.927 315.0117,196.8059 Q315.0117,193.6765 316.3315,192.0247 Q317.6514,190.3728 320.1582,190.3728 Q320.8638,190.3728 321.5112,190.5222 Q322.1587,190.6716 322.7231,190.9705 L322.7231,193.6931 Q322.0923,193.1121 321.4988,192.8423 Q320.9053,192.5725 320.2744,192.5725 Q318.9297,192.5725 318.2449,193.6392 Q317.5601,194.7058 317.5601,196.8059 Q317.5601,198.8977 318.2449,199.9644 Q318.9297,201.031 320.2744,201.031 Q320.9053,201.031 321.4988,200.7612 Q322.0923,200.4915 322.7231,199.9104 Z " fill="#000000"/><text fill="#000000" font-family="sans-serif" font-size="14" lengthAdjust="spacing" textLength="89" x="340.75" y="201.781">grow_in_size</text><line style="stroke:#181818;stroke-width:0.5;" x1="266" x2="472" y1="212.49" y2="212.49"/><line style="stroke:#181818;stroke-width:0.5;" x1="266" x2="472" y1="220.49" y2="220.49"/><ellipse cx="276" cy="234.2341" fill="#84BE84" rx="3" ry="3" style="stroke:#038048;stroke-width:1.0;"/><text fill="#000000" font-family="sans-serif" font-size="14" lengthAdjust="spacing" textLength="182" x="285" y="238.0252">interact(GameObject): void</text></g></a><!--class game.components.interactives.change_color--><a href="change_color.html" target="_top" title="change_color.html" xlink:actuate="onRequest" xlink:href="change_color.html" xlink:show="new" xlink:title="change_color.html" xlink:type="simple"><g id="elem_game.components.interactives.change_color"><rect codeLine="7" fill="#F1F1F1" height="64.4883" id="game.components.interactives.change_color" rx="2.5" ry="2.5" style="stroke:#181818;stroke-width:0.5;" width="208" x="22" y="180.49"/><ellipse cx="75.75" cy="196.49" fill="#ADD1B2" rx="11" ry="11" style="stroke:#181818;stroke-width:1.0;"/><path d="M78.2231,202.6331 Q77.6421,202.9319 77.0029,203.0813 Q76.3638,203.2307 75.6582,203.2307 Q73.1514,203.2307 71.8315,201.5789 Q70.5117,199.927 70.5117,196.8059 Q70.5117,193.6765 71.8315,192.0247 Q73.1514,190.3728 75.6582,190.3728 Q76.3638,190.3728 77.0112,190.5222 Q77.6587,190.6716 78.2231,190.9705 L78.2231,193.6931 Q77.5923,193.1121 76.9988,192.8423 Q76.4053,192.5725 75.7744,192.5725 Q74.4297,192.5725 73.7449,193.6392 Q73.0601,194.7058 73.0601,196.8059 Q73.0601,198.8977 73.7449,199.9644 Q74.4297,201.031 75.7744,201.031 Q76.4053,201.031 76.9988,200.7612 Q77.5923,200.4915 78.2231,199.9104 Z " fill="#000000"/><text fill="#000000" font-family="sans-serif" font-size="14" lengthAdjust="spacing" textLength="92" x="96.25" y="201.781">change_color</text><line style="stroke:#181818;stroke-width:0.5;" x1="23" x2="229" y1="212.49" y2="212.49"/><line style="stroke:#181818;stroke-width:0.5;" x1="23" x2="229" y1="220.49" y2="220.49"/><ellipse cx="33" cy="234.2341" fill="#84BE84" rx="3" ry="3" style="stroke:#038048;stroke-width:1.0;"/><text fill="#000000" font-family="sans-serif" font-size="14" lengthAdjust="spacing" textLength="182" x="42" y="238.0252">interact(GameObject): void</text></g></a><!--class game.components.Interaktive--><a href="../Interaktive.html" target="_top" title="../Interaktive.html" xlink:actuate="onRequest" xlink:href="../Interaktive.html" xlink:show="new" xlink:title="../Interaktive.html" xlink:type="simple"><g id="elem_game.components.Interaktive"><rect codeLine="16" fill="#F1F1F1" height="64.4883" id="game.components.Interaktive" rx="2.5" ry="2.5" style="stroke:#181818;stroke-width:0.5;" width="208" x="143" y="41"/><ellipse cx="206.75" cy="57" fill="#A9DCDF" rx="11" ry="11" style="stroke:#181818;stroke-width:1.0;"/><path d="M206.6133,52.3481 L205.4595,57.4199 L207.7754,57.4199 Z M205.1191,50.1069 L208.1157,50.1069 L211.4609,62.5 L209.0122,62.5 L208.2485,59.437 L204.9697,59.437 L204.2227,62.5 L201.7739,62.5 Z " fill="#000000"/><text fill="#000000" font-family="sans-serif" font-size="14" font-style="italic" lengthAdjust="spacing" textLength="72" x="227.25" y="62.291">Interaktive</text><line style="stroke:#181818;stroke-width:0.5;" x1="144" x2="350" y1="73" y2="73"/><line style="stroke:#181818;stroke-width:0.5;" x1="144" x2="350" y1="81" y2="81"/><ellipse cx="154" cy="94.7441" fill="#84BE84" rx="3" ry="3" style="stroke:#038048;stroke-width:1.0;"/><text fill="#000000" font-family="sans-serif" font-size="14" font-style="italic" lengthAdjust="spacing" textLength="182" x="163" y="98.5352">interact(GameObject): void</text></g></a><!--reverse link game.components.Interaktive to game.components.interactives.grow_in_size--><g id="link_game.components.Interaktive_game.components.interactives.grow_in_size"><path codeLine="11" d="M289.08,121.67 C306.3,141.07 325.74,162.99 341.14,180.34 " fill="none" id="game.components.Interaktive-backto-game.components.interactives.grow_in_size" style="stroke:#181818;stroke-width:1.0;"/><polygon fill="none" points="284.03,126.53,275.99,106.92,294.5,117.24,284.03,126.53" style="stroke:#181818;stroke-width:1.0;"/></g><!--reverse link game.components.Interaktive to game.components.interactives.change_color--><g id="link_game.components.Interaktive_game.components.interactives.change_color"><path codeLine="12" d="M205.26,121.67 C188.19,141.07 168.9,162.99 153.63,180.34 " fill="none" id="game.components.Interaktive-backto-game.components.interactives.change_color" style="stroke:#181818;stroke-width:1.0;"/><polygon fill="none" points="199.77,117.32,218.24,106.93,210.28,126.56,199.77,117.32" style="stroke:#181818;stroke-width:1.0;"/></g><text fill="#888888" font-family="sans-serif" font-size="10" lengthAdjust="spacing" textLength="182" x="150" y="276.648">UMLDoclet 2.1.0, PlantUML 1.2022.14</text><!--SRC=[hL1DYm8n3BtFhyX5K5phnr7sA8ZWibuy3JBK6CVkTXgPbX7y-E_RMLIYA7WmbpIXxxsy1m3WT45-gv4WZo-5N6pPaGjU6HUer1XCHHuEIGBdGgkzXxpaNMPSvisU84tbg3QXi8j5n82ezeMlEOv2tyiVmj0QGiLcTVrtkbV1ZNOvPSYMowWYnxUet7kU_AD_Qy_mUUnqRco-Zf9t9aBoQTZ2XLxwK1iu9o2vqrIfhbWyZk1mOJYzc8Ou4Aa6m9gvRlElwOZHKe21wglU1yoiTY5keL5HwGsxPkiF]--></g></svg>