<?xml version="1.0" encoding="UTF-8" standalone="no"?><svg xmlns="http://www.w3.org/2000/svg" xmlns:xlink="http://www.w3.org/1999/xlink" contentStyleType="text/css" height="319px" preserveAspectRatio="none" style="width:1711px;height:319px;background:#FFFFFF;" version="1.1" viewBox="0 0 1711 319" width="1711px" zoomAndPan="magnify"><defs/><g><!--cluster game.components.interactives--><g id="cluster_game.components.interactives"><path d="M8.5,145.49 L226.5,145.49 A3.75,3.75 0 0 1 229,147.99 L236,167.9783 L1701.5,167.9783 A2.5,2.5 0 0 1 1704,170.4783 L1704,291.45 A2.5,2.5 0 0 1 1701.5,293.95 L8.5,293.95 A2.5,2.5 0 0 1 6,291.45 L6,147.99 A2.5,2.5 0 0 1 8.5,145.49 " fill="none" style="stroke:#000000;stroke-width:1.5;"/><line style="stroke:#000000;stroke-width:1.5;" x1="6" x2="236" y1="167.9783" y2="167.9783"/><text fill="#000000" font-family="sans-serif" font-size="14" font-weight="bold" lengthAdjust="spacing" textLength="217" x="10" y="161.0252">game.components.interactives</text></g><!--cluster game.components--><g id="cluster_game.components"><path d="M737.5,6 L868.5,6 A3.75,3.75 0 0 1 871,8.5 L878,28.4883 L972.5,28.4883 A2.5,2.5 0 0 1 975,30.9883 L975,118.99 A2.5,2.5 0 0 1 972.5,121.49 L737.5,121.49 A2.5,2.5 0 0 1 735,118.99 L735,8.5 A2.5,2.5 0 0 1 737.5,6 " fill="none" style="stroke:#000000;stroke-width:1.5;"/><line style="stroke:#000000;stroke-width:1.5;" x1="735" x2="878" y1="28.4883" y2="28.4883"/><text fill="#000000" font-family="sans-serif" font-size="14" font-weight="bold" lengthAdjust="spacing" textLength="130" x="739" y="21.5352">game.components</text></g><!--class game.components.interactives.grow_in_size--><a href="grow_in_size.html" target="_top" title="grow_in_size.html" xlink:actuate="onRequest" xlink:href="grow_in_size.html" xlink:show="new" xlink:title="grow_in_size.html" xlink:type="simple"><g id="elem_game.components.interactives.grow_in_size"><rect codeLine="3" fill="#F1F1F1" height="64.4883" id="game.components.interactives.grow_in_size" rx="2.5" ry="2.5" style="stroke:#181818;stroke-width:0.5;" width="208" x="1480" y="196.97"/><ellipse cx="1535.25" cy="212.97" fill="#ADD1B2" rx="11" ry="11" style="stroke:#181818;stroke-width:1.0;"/><path d="M1537.7231,219.1131 Q1537.1421,219.4119 1536.5029,219.5613 Q1535.8638,219.7107 1535.1582,219.7107 Q1532.6514,219.7107 1531.3315,218.0589 Q1530.0117,216.407 1530.0117,213.2859 Q1530.0117,210.1565 1531.3315,208.5047 Q1532.6514,206.8528 1535.1582,206.8528 Q1535.8638,206.8528 1536.5112,207.0022 Q1537.1587,207.1516 1537.7231,207.4505 L1537.7231,210.1731 Q1537.0923,209.5921 1536.4988,209.3223 Q1535.9053,209.0525 1535.2744,209.0525 Q1533.9297,209.0525 1533.2449,210.1192 Q1532.5601,211.1858 1532.5601,213.2859 Q1532.5601,215.3777 1533.2449,216.4444 Q1533.9297,217.511 1535.2744,217.511 Q1535.9053,217.511 1536.4988,217.2412 Q1537.0923,216.9715 1537.7231,216.3904 Z " fill="#000000"/><text fill="#000000" font-family="sans-serif" font-size="14" lengthAdjust="spacing" textLength="89" x="1555.75" y="218.261">grow_in_size</text><line style="stroke:#181818;stroke-width:0.5;" x1="1481" x2="1687" y1="228.97" y2="228.97"/><line style="stroke:#181818;stroke-width:0.5;" x1="1481" x2="1687" y1="236.97" y2="236.97"/><ellipse cx="1491" cy="250.7141" fill="#84BE84" rx="3" ry="3" style="stroke:#038048;stroke-width:1.0;"/><text fill="#000000" font-family="sans-serif" font-size="14" lengthAdjust="spacing" textLength="182" x="1500" y="254.5052">interact(GameObject): void</text></g></a><!--class game.components.interactives.breakOnItem--><a href="breakOnItem.html" target="_top" title="breakOnItem.html" xlink:actuate="onRequest" xlink:href="breakOnItem.html" xlink:show="new" xlink:title="breakOnItem.html" xlink:type="simple"><g id="elem_game.components.interactives.breakOnItem"><rect codeLine="7" fill="#F1F1F1" height="80.9766" id="game.components.interactives.breakOnItem" rx="2.5" ry="2.5" style="stroke:#181818;stroke-width:0.5;" width="208" x="1237" y="188.73"/><ellipse cx="1292.25" cy="204.73" fill="#ADD1B2" rx="11" ry="11" style="stroke:#181818;stroke-width:1.0;"/><path d="M1294.7231,210.8731 Q1294.1421,211.1719 1293.5029,211.3213 Q1292.8638,211.4707 1292.1582,211.4707 Q1289.6514,211.4707 1288.3315,209.8189 Q1287.0117,208.167 1287.0117,205.0459 Q1287.0117,201.9165 1288.3315,200.2647 Q1289.6514,198.6128 1292.1582,198.6128 Q1292.8638,198.6128 1293.5112,198.7622 Q1294.1587,198.9116 1294.7231,199.2105 L1294.7231,201.9331 Q1294.0923,201.3521 1293.4988,201.0823 Q1292.9053,200.8125 1292.2744,200.8125 Q1290.9297,200.8125 1290.2449,201.8792 Q1289.5601,202.9458 1289.5601,205.0459 Q1289.5601,207.1377 1290.2449,208.2044 Q1290.9297,209.271 1292.2744,209.271 Q1292.9053,209.271 1293.4988,209.0012 Q1294.0923,208.7315 1294.7231,208.1504 Z " fill="#000000"/><text fill="#000000" font-family="sans-serif" font-size="14" lengthAdjust="spacing" textLength="89" x="1312.75" y="210.021">breakOnItem</text><line style="stroke:#181818;stroke-width:0.5;" x1="1238" x2="1444" y1="220.73" y2="220.73"/><line style="stroke:#181818;stroke-width:0.5;" x1="1238" x2="1444" y1="228.73" y2="228.73"/><ellipse cx="1248" cy="242.4741" fill="#84BE84" rx="3" ry="3" style="stroke:#038048;stroke-width:1.0;"/><text fill="#000000" font-family="sans-serif" font-size="14" lengthAdjust="spacing" textLength="78" x="1257" y="246.2652">start(): void</text><ellipse cx="1248" cy="258.9624" fill="#84BE84" rx="3" ry="3" style="stroke:#038048;stroke-width:1.0;"/><text fill="#000000" font-family="sans-serif" font-size="14" lengthAdjust="spacing" textLength="182" x="1257" y="262.7534">interact(GameObject): void</text></g></a><!--class game.components.interactives.Amelie--><a href="Amelie.html" target="_top" title="Amelie.html" xlink:actuate="onRequest" xlink:href="Amelie.html" xlink:show="new" xlink:title="Amelie.html" xlink:type="simple"><g id="elem_game.components.interactives.Amelie"><rect codeLine="12" fill="#F1F1F1" height="64.4883" id="game.components.interactives.Amelie" rx="2.5" ry="2.5" style="stroke:#181818;stroke-width:0.5;" width="208" x="994" y="196.97"/><ellipse cx="1070.25" cy="212.97" fill="#ADD1B2" rx="11" ry="11" style="stroke:#181818;stroke-width:1.0;"/><path d="M1072.7231,219.1131 Q1072.1421,219.4119 1071.5029,219.5613 Q1070.8638,219.7107 1070.1582,219.7107 Q1067.6514,219.7107 1066.3315,218.0589 Q1065.0117,216.407 1065.0117,213.2859 Q1065.0117,210.1565 1066.3315,208.5047 Q1067.6514,206.8528 1070.1582,206.8528 Q1070.8638,206.8528 1071.5112,207.0022 Q1072.1587,207.1516 1072.7231,207.4505 L1072.7231,210.1731 Q1072.0923,209.5921 1071.4988,209.3223 Q1070.9053,209.0525 1070.2744,209.0525 Q1068.9297,209.0525 1068.2449,210.1192 Q1067.5601,211.1858 1067.5601,213.2859 Q1067.5601,215.3777 1068.2449,216.4444 Q1068.9297,217.511 1070.2744,217.511 Q1070.9053,217.511 1071.4988,217.2412 Q1072.0923,216.9715 1072.7231,216.3904 Z " fill="#000000"/><text fill="#000000" font-family="sans-serif" font-size="14" lengthAdjust="spacing" textLength="47" x="1090.75" y="218.261">Amelie</text><line style="stroke:#181818;stroke-width:0.5;" x1="995" x2="1201" y1="228.97" y2="228.97"/><line style="stroke:#181818;stroke-width:0.5;" x1="995" x2="1201" y1="236.97" y2="236.97"/><ellipse cx="1005" cy="250.7141" fill="#84BE84" rx="3" ry="3" style="stroke:#038048;stroke-width:1.0;"/><text fill="#000000" font-family="sans-serif" font-size="14" lengthAdjust="spacing" textLength="182" x="1014" y="254.5052">interact(GameObject): void</text></g></a><!--class game.components.interactives.Eric--><a href="Eric.html" target="_top" title="Eric.html" xlink:actuate="onRequest" xlink:href="Eric.html" xlink:show="new" xlink:title="Eric.html" xlink:type="simple"><g id="elem_game.components.interactives.Eric"><rect codeLine="16" fill="#F1F1F1" height="64.4883" id="game.components.interactives.Eric" rx="2.5" ry="2.5" style="stroke:#181818;stroke-width:0.5;" width="208" x="751" y="196.97"/><ellipse cx="838.25" cy="212.97" fill="#ADD1B2" rx="11" ry="11" style="stroke:#181818;stroke-width:1.0;"/><path d="M840.7231,219.1131 Q840.1421,219.4119 839.5029,219.5613 Q838.8638,219.7107 838.1582,219.7107 Q835.6514,219.7107 834.3315,218.0589 Q833.0117,216.407 833.0117,213.2859 Q833.0117,210.1565 834.3315,208.5047 Q835.6514,206.8528 838.1582,206.8528 Q838.8638,206.8528 839.5112,207.0022 Q840.1587,207.1516 840.7231,207.4505 L840.7231,210.1731 Q840.0923,209.5921 839.4988,209.3223 Q838.9053,209.0525 838.2744,209.0525 Q836.9297,209.0525 836.2449,210.1192 Q835.5601,211.1858 835.5601,213.2859 Q835.5601,215.3777 836.2449,216.4444 Q836.9297,217.511 838.2744,217.511 Q838.9053,217.511 839.4988,217.2412 Q840.0923,216.9715 840.7231,216.3904 Z " fill="#000000"/><text fill="#000000" font-family="sans-serif" font-size="14" lengthAdjust="spacing" textLength="25" x="858.75" y="218.261">Eric</text><line style="stroke:#181818;stroke-width:0.5;" x1="752" x2="958" y1="228.97" y2="228.97"/><line style="stroke:#181818;stroke-width:0.5;" x1="752" x2="958" y1="236.97" y2="236.97"/><ellipse cx="762" cy="250.7141" fill="#84BE84" rx="3" ry="3" style="stroke:#038048;stroke-width:1.0;"/><text fill="#000000" font-family="sans-serif" font-size="14" lengthAdjust="spacing" textLength="182" x="771" y="254.5052">interact(GameObject): void</text></g></a><!--class game.components.interactives.Pipe--><a href="Pipe.html" target="_top" title="Pipe.html" xlink:actuate="onRequest" xlink:href="Pipe.html" xlink:show="new" xlink:title="Pipe.html" xlink:type="simple"><g id="elem_game.components.interactives.Pipe"><rect codeLine="20" fill="#F1F1F1" height="80.9766" id="game.components.interactives.Pipe" rx="2.5" ry="2.5" style="stroke:#181818;stroke-width:0.5;" width="208" x="508" y="188.73"/><ellipse cx="593.25" cy="204.73" fill="#ADD1B2" rx="11" ry="11" style="stroke:#181818;stroke-width:1.0;"/><path d="M595.7231,210.8731 Q595.1421,211.1719 594.5029,211.3213 Q593.8638,211.4707 593.1582,211.4707 Q590.6514,211.4707 589.3315,209.8189 Q588.0117,208.167 588.0117,205.0459 Q588.0117,201.9165 589.3315,200.2647 Q590.6514,198.6128 593.1582,198.6128 Q593.8638,198.6128 594.5112,198.7622 Q595.1587,198.9116 595.7231,199.2105 L595.7231,201.9331 Q595.0923,201.3521 594.4988,201.0823 Q593.9053,200.8125 593.2744,200.8125 Q591.9297,200.8125 591.2449,201.8792 Q590.5601,202.9458 590.5601,205.0459 Q590.5601,207.1377 591.2449,208.2044 Q591.9297,209.271 593.2744,209.271 Q593.9053,209.271 594.4988,209.0012 Q595.0923,208.7315 595.7231,208.1504 Z " fill="#000000"/><text fill="#000000" font-family="sans-serif" font-size="14" lengthAdjust="spacing" textLength="29" x="613.75" y="210.021">Pipe</text><line style="stroke:#181818;stroke-width:0.5;" x1="509" x2="715" y1="220.73" y2="220.73"/><line style="stroke:#181818;stroke-width:0.5;" x1="509" x2="715" y1="228.73" y2="228.73"/><ellipse cx="519" cy="242.4741" fill="#84BE84" rx="3" ry="3" style="stroke:#038048;stroke-width:1.0;"/><text fill="#000000" font-family="sans-serif" font-size="14" lengthAdjust="spacing" textLength="78" x="528" y="246.2652">start(): void</text><ellipse cx="519" cy="258.9624" fill="#84BE84" rx="3" ry="3" style="stroke:#038048;stroke-width:1.0;"/><text fill="#000000" font-family="sans-serif" font-size="14" lengthAdjust="spacing" textLength="182" x="528" y="262.7534">interact(GameObject): void</text></g></a><!--class game.components.interactives.change_color--><a href="change_color.html" target="_top" title="change_color.html" xlink:actuate="onRequest" xlink:href="change_color.html" xlink:show="new" xlink:title="change_color.html" xlink:type="simple"><g id="elem_game.components.interactives.change_color"><rect codeLine="25" fill="#F1F1F1" height="64.4883" id="game.components.interactives.change_color" rx="2.5" ry="2.5" style="stroke:#181818;stroke-width:0.5;" width="208" x="265" y="196.97"/><ellipse cx="318.75" cy="212.97" fill="#ADD1B2" rx="11" ry="11" style="stroke:#181818;stroke-width:1.0;"/><path d="M321.2231,219.1131 Q320.6421,219.4119 320.0029,219.5613 Q319.3638,219.7107 318.6582,219.7107 Q316.1514,219.7107 314.8315,218.0589 Q313.5117,216.407 313.5117,213.2859 Q313.5117,210.1565 314.8315,208.5047 Q316.1514,206.8528 318.6582,206.8528 Q319.3638,206.8528 320.0112,207.0022 Q320.6587,207.1516 321.2231,207.4505 L321.2231,210.1731 Q320.5923,209.5921 319.9988,209.3223 Q319.4053,209.0525 318.7744,209.0525 Q317.4297,209.0525 316.7449,210.1192 Q316.0601,211.1858 316.0601,213.2859 Q316.0601,215.3777 316.7449,216.4444 Q317.4297,217.511 318.7744,217.511 Q319.4053,217.511 319.9988,217.2412 Q320.5923,216.9715 321.2231,216.3904 Z " fill="#000000"/><text fill="#000000" font-family="sans-serif" font-size="14" lengthAdjust="spacing" textLength="92" x="339.25" y="218.261">change_color</text><line style="stroke:#181818;stroke-width:0.5;" x1="266" x2="472" y1="228.97" y2="228.97"/><line style="stroke:#181818;stroke-width:0.5;" x1="266" x2="472" y1="236.97" y2="236.97"/><ellipse cx="276" cy="250.7141" fill="#84BE84" rx="3" ry="3" style="stroke:#038048;stroke-width:1.0;"/><text fill="#000000" font-family="sans-serif" font-size="14" lengthAdjust="spacing" textLength="182" x="285" y="254.5052">interact(GameObject): void</text></g></a><!--class game.components.interactives.getItem--><a href="getItem.html" target="_top" title="getItem.html" xlink:actuate="onRequest" xlink:href="getItem.html" xlink:show="new" xlink:title="getItem.html" xlink:type="simple"><g id="elem_game.components.interactives.getItem"><rect codeLine="29" fill="#F1F1F1" height="97.4648" id="game.components.interactives.getItem" rx="2.5" ry="2.5" style="stroke:#181818;stroke-width:0.5;" width="208" x="22" y="180.49"/><ellipse cx="95.75" cy="196.49" fill="#ADD1B2" rx="11" ry="11" style="stroke:#181818;stroke-width:1.0;"/><path d="M98.2231,202.6331 Q97.6421,202.9319 97.0029,203.0813 Q96.3638,203.2307 95.6582,203.2307 Q93.1514,203.2307 91.8315,201.5789 Q90.5117,199.927 90.5117,196.8059 Q90.5117,193.6765 91.8315,192.0247 Q93.1514,190.3728 95.6582,190.3728 Q96.3638,190.3728 97.0112,190.5222 Q97.6587,190.6716 98.2231,190.9705 L98.2231,193.6931 Q97.5923,193.1121 96.9988,192.8423 Q96.4053,192.5725 95.7744,192.5725 Q94.4297,192.5725 93.7449,193.6392 Q93.0601,194.7058 93.0601,196.8059 Q93.0601,198.8977 93.7449,199.9644 Q94.4297,201.031 95.7744,201.031 Q96.4053,201.031 96.9988,200.7612 Q97.5923,200.4915 98.2231,199.9104 Z " fill="#000000"/><text fill="#000000" font-family="sans-serif" font-size="14" lengthAdjust="spacing" textLength="52" x="116.25" y="201.781">getItem</text><line style="stroke:#181818;stroke-width:0.5;" x1="23" x2="229" y1="212.49" y2="212.49"/><ellipse cx="33" cy="226.2341" fill="none" rx="3" ry="3" style="stroke:#038048;stroke-width:1.0;"/><text fill="#000000" font-family="sans-serif" font-size="14" lengthAdjust="spacing" textLength="107" x="42" y="230.0252">giveItem: String</text><ellipse cx="33" cy="242.7224" fill="none" rx="3" ry="3" style="stroke:#038048;stroke-width:1.0;"/><text fill="#000000" font-family="sans-serif" font-size="14" lengthAdjust="spacing" textLength="133" x="42" y="246.5134">sendMessag: String</text><line style="stroke:#181818;stroke-width:0.5;" x1="23" x2="229" y1="253.4666" y2="253.4666"/><ellipse cx="33" cy="267.2107" fill="#84BE84" rx="3" ry="3" style="stroke:#038048;stroke-width:1.0;"/><text fill="#000000" font-family="sans-serif" font-size="14" lengthAdjust="spacing" textLength="182" x="42" y="271.0017">interact(GameObject): void</text></g></a><!--class game.components.Interaktive--><a href="../Interaktive.html" target="_top" title="../Interaktive.html" xlink:actuate="onRequest" xlink:href="../Interaktive.html" xlink:show="new" xlink:title="../Interaktive.html" xlink:type="simple"><g id="elem_game.components.Interaktive"><rect codeLine="45" fill="#F1F1F1" height="64.4883" id="game.components.Interaktive" rx="2.5" ry="2.5" style="stroke:#181818;stroke-width:0.5;" width="208" x="751" y="41"/><ellipse cx="814.75" cy="57" fill="#A9DCDF" rx="11" ry="11" style="stroke:#181818;stroke-width:1.0;"/><path d="M814.6133,52.3481 L813.4595,57.4199 L815.7754,57.4199 Z M813.1191,50.1069 L816.1157,50.1069 L819.4609,62.5 L817.0122,62.5 L816.2485,59.437 L812.9697,59.437 L812.2227,62.5 L809.7739,62.5 Z " fill="#000000"/><text fill="#000000" font-family="sans-serif" font-size="14" font-style="italic" lengthAdjust="spacing" textLength="72" x="835.25" y="62.291">Interaktive</text><line style="stroke:#181818;stroke-width:0.5;" x1="752" x2="958" y1="73" y2="73"/><line style="stroke:#181818;stroke-width:0.5;" x1="752" x2="958" y1="81" y2="81"/><ellipse cx="762" cy="94.7441" fill="#84BE84" rx="3" ry="3" style="stroke:#038048;stroke-width:1.0;"/><text fill="#000000" font-family="sans-serif" font-size="14" font-style="italic" lengthAdjust="spacing" textLength="182" x="771" y="98.5352">interact(GameObject): void</text></g></a><!--reverse link game.components.Interaktive to game.components.interactives.grow_in_size--><g id="link_game.components.Interaktive_game.components.interactives.grow_in_size"><path codeLine="35" d="M980.72,79.43 C1132.5,87.06 1377.98,104.16 1463,137.49 C1496.74,150.71 1529.26,176.04 1552.08,196.58 " fill="none" id="game.components.Interaktive-backto-game.components.interactives.grow_in_size" style="stroke:#181818;stroke-width:1.0;"/><polygon fill="none" points="980.64,86.43,961.01,78.47,981.33,72.45,980.64,86.43" style="stroke:#181818;stroke-width:1.0;"/></g><!--reverse link game.components.Interaktive to game.components.interactives.breakOnItem--><g id="link_game.components.Interaktive_game.components.interactives.breakOnItem"><path codeLine="36" d="M980.72,81.39 C1053.09,89.04 1144.39,104.85 1220,137.49 C1248.45,149.76 1276.38,170 1298.22,188.25 " fill="none" id="game.components.Interaktive-backto-game.components.interactives.breakOnItem" style="stroke:#181818;stroke-width:1.0;"/><polygon fill="none" points="980.12,88.36,960.9,79.45,981.48,74.43,980.12,88.36" style="stroke:#181818;stroke-width:1.0;"/></g><!--reverse link game.components.Interaktive to game.components.interactives.Amelie--><g id="link_game.components.Interaktive_game.components.interactives.Amelie"><path codeLine="37" d="M939.95,115.97 C952.57,122.83 965.26,130.11 977,137.49 C1005.68,155.5 1036.18,178.4 1059.39,196.68 " fill="none" id="game.components.Interaktive-backto-game.components.interactives.Amelie" style="stroke:#181818;stroke-width:1.0;"/><polygon fill="none" points="936.75,122.19,922.35,106.65,943.3,109.82,936.75,122.19" style="stroke:#181818;stroke-width:1.0;"/></g><!--reverse link game.components.Interaktive to game.components.interactives.Eric--><g id="link_game.components.Interaktive_game.components.interactives.Eric"><path codeLine="38" d="M855,127.1 C855,150.28 855,176.71 855,196.73 " fill="none" id="game.components.Interaktive-backto-game.components.interactives.Eric" style="stroke:#181818;stroke-width:1.0;"/><polygon fill="none" points="848,127.29,855,107.29,862,127.29,848,127.29" style="stroke:#181818;stroke-width:1.0;"/></g><!--reverse link game.components.Interaktive to game.components.interactives.Pipe--><g id="link_game.components.Interaktive_game.components.interactives.Pipe"><path codeLine="39" d="M770.05,115.97 C757.43,122.83 744.74,130.11 733,137.49 C708.54,152.85 682.76,171.76 661.31,188.34 " fill="none" id="game.components.Interaktive-backto-game.components.interactives.Pipe" style="stroke:#181818;stroke-width:1.0;"/><polygon fill="none" points="766.7,109.82,787.65,106.65,773.25,122.19,766.7,109.82" style="stroke:#181818;stroke-width:1.0;"/></g><!--reverse link game.components.Interaktive to game.components.interactives.change_color--><g id="link_game.components.Interaktive_game.components.interactives.change_color"><path codeLine="40" d="M729.28,81.39 C656.91,89.04 565.61,104.85 490,137.49 C457.09,151.69 424.88,176.54 401.97,196.65 " fill="none" id="game.components.Interaktive-backto-game.components.interactives.change_color" style="stroke:#181818;stroke-width:1.0;"/><polygon fill="none" points="728.52,74.43,749.1,79.45,729.88,88.36,728.52,74.43" style="stroke:#181818;stroke-width:1.0;"/></g><!--reverse link game.components.Interaktive to game.components.interactives.getItem--><g id="link_game.components.Interaktive_game.components.interactives.getItem"><path codeLine="41" d="M729.28,79.43 C577.5,87.06 332.02,104.16 247,137.49 C221.94,147.31 197.55,163.81 177.31,180.07 " fill="none" id="game.components.Interaktive-backto-game.components.interactives.getItem" style="stroke:#181818;stroke-width:1.0;"/><polygon fill="none" points="728.67,72.45,748.99,78.47,729.36,86.43,728.67,72.45" style="stroke:#181818;stroke-width:1.0;"/></g><text fill="#888888" font-family="sans-serif" font-size="10" lengthAdjust="spacing" textLength="182" x="757.5" y="309.618">UMLDoclet 2.1.0, PlantUML 1.2022.14</text><!--SRC=[lLHDImCn4BtlhvYBi4KRFux5Yw18mTA2U5fAITCnZTrDbcHOmTh_Rk9k9IvTs4enbqoIcVSoCoy10D2yG5ToWI2znOGfIgDHasDA4rekI5NeO9iaq0oHS-T0MlE-K7hXr0T2biLBjgOYdyzz34JZV8-NFdgYwV8D1Gr6K1cr-l7RjLcM5lbcgiU4XIU9LXqSZhYbj0txP_gx0dCLqgkD4oRsO9Nmk64w8UfCbU6sOVgV0earrn8NmkJ6Uk9uUSAq95AZWCRgm9PUgk5u1CzabPQjr56l9kWSbuVFZxjP-xMClwCtuRN0xUTm-Ek1z8-A9Du_g5PdV_-WklxUGKtzlMC9756ikgz9LEJEZodgEbyw2YrhT1B3PXbZbz76OSbizmYxdlsFBYWm1C2hCM5wcJpT6v4ZmGsxPbSNCCkv9hyBPnLQfunE1ry0]--></g></svg>