<?xml version="1.0" encoding="UTF-8" standalone="no"?><svg xmlns="http://www.w3.org/2000/svg" xmlns:xlink="http://www.w3.org/1999/xlink" contentStyleType="text/css" height="371px" preserveAspectRatio="none" style="width:217px;height:371px;background:#FFFFFF;" version="1.1" viewBox="0 0 217 371" width="217px" zoomAndPan="magnify"><defs/><g><!--cluster game.observers.events--><g id="cluster_game.observers.events"><path d="M8.5,6 L171.5,6 A3.75,3.75 0 0 1 174,8.5 L181,28.4883 L207.5,28.4883 A2.5,2.5 0 0 1 210,30.9883 L210,342.92 A2.5,2.5 0 0 1 207.5,345.42 L8.5,345.42 A2.5,2.5 0 0 1 6,342.92 L6,8.5 A2.5,2.5 0 0 1 8.5,6 " fill="none" style="stroke:#000000;stroke-width:1.5;"/><line style="stroke:#000000;stroke-width:1.5;" x1="6" x2="181" y1="28.4883" y2="28.4883"/><text fill="#000000" font-family="sans-serif" font-size="14" font-weight="bold" lengthAdjust="spacing" textLength="162" x="10" y="21.5352">game.observers.events</text></g><!--class game.observers.events.Event--><a href="Event.html" target="_top" title="Event.html" xlink:actuate="onRequest" xlink:href="Event.html" xlink:show="new" xlink:title="Event.html" xlink:type="simple"><g id="elem_game.observers.events.Event"><rect codeLine="3" fill="#F1F1F1" height="80.9766" id="game.observers.events.Event" rx="2.5" ry="2.5" style="stroke:#181818;stroke-width:0.5;" width="143" x="36.5" y="41"/><ellipse cx="85.25" cy="57" fill="#ADD1B2" rx="11" ry="11" style="stroke:#181818;stroke-width:1.0;"/><path d="M87.7231,63.1431 Q87.1421,63.4419 86.5029,63.5913 Q85.8638,63.7407 85.1582,63.7407 Q82.6514,63.7407 81.3315,62.0889 Q80.0117,60.437 80.0117,57.3159 Q80.0117,54.1865 81.3315,52.5347 Q82.6514,50.8828 85.1582,50.8828 Q85.8638,50.8828 86.5112,51.0322 Q87.1587,51.1816 87.7231,51.4805 L87.7231,54.2031 Q87.0923,53.6221 86.4988,53.3523 Q85.9053,53.0825 85.2744,53.0825 Q83.9297,53.0825 83.2449,54.1492 Q82.5601,55.2158 82.5601,57.3159 Q82.5601,59.4077 83.2449,60.4744 Q83.9297,61.541 85.2744,61.541 Q85.9053,61.541 86.4988,61.2712 Q87.0923,61.0015 87.7231,60.4204 Z " fill="#000000"/><text fill="#000000" font-family="sans-serif" font-size="14" lengthAdjust="spacing" textLength="37" x="105.75" y="62.291">Event</text><line style="stroke:#181818;stroke-width:0.5;" x1="37.5" x2="178.5" y1="73" y2="73"/><line style="stroke:#181818;stroke-width:0.5;" x1="37.5" x2="178.5" y1="81" y2="81"/><ellipse cx="47.5" cy="94.7441" fill="#84BE84" rx="3" ry="3" style="stroke:#038048;stroke-width:1.0;"/><text fill="#000000" font-family="sans-serif" font-size="14" lengthAdjust="spacing" textLength="117" x="56.5" y="98.5352">Event(EventType)</text><ellipse cx="47.5" cy="111.2324" fill="#84BE84" rx="3" ry="3" style="stroke:#038048;stroke-width:1.0;"/><text fill="#000000" font-family="sans-serif" font-size="14" lengthAdjust="spacing" textLength="47" x="56.5" y="115.0234">Event()</text></g></a><!--class game.observers.events.EventType--><a href="EventType.html" target="_top" title="EventType.html" xlink:actuate="onRequest" xlink:href="EventType.html" xlink:show="new" xlink:title="EventType.html" xlink:type="simple"><g id="elem_game.observers.events.EventType"><rect codeLine="8" fill="#F1F1F1" height="130.4414" id="game.observers.events.EventType" rx="2.5" ry="2.5" style="stroke:#181818;stroke-width:0.5;" width="171" x="22.5" y="198.98"/><ellipse cx="68.75" cy="214.98" fill="#EB937F" rx="11" ry="11" style="stroke:#181818;stroke-width:1.0;"/><path d="M72.3643,221.48 L64.6445,221.48 L64.6445,209.0869 L72.3643,209.0869 L72.3643,211.2451 L67.0933,211.2451 L67.0933,213.918 L71.8662,213.918 L71.8662,216.0762 L67.0933,216.0762 L67.0933,219.3218 L72.3643,219.3218 Z " fill="#000000"/><text fill="#000000" font-family="sans-serif" font-size="14" lengthAdjust="spacing" textLength="70" x="89.25" y="220.271">EventType</text><line style="stroke:#181818;stroke-width:0.5;" x1="23.5" x2="192.5" y1="230.98" y2="230.98"/><ellipse cx="33.5" cy="244.7241" fill="none" rx="3" ry="3" style="stroke:#038048;stroke-width:1.0;"/><text fill="#000000" font-family="sans-serif" font-size="14" lengthAdjust="spacing" text-decoration="underline" textLength="145" x="42.5" y="248.5152">GameEngineStartPlay</text><ellipse cx="33.5" cy="261.2124" fill="none" rx="3" ry="3" style="stroke:#038048;stroke-width:1.0;"/><text fill="#000000" font-family="sans-serif" font-size="14" lengthAdjust="spacing" text-decoration="underline" textLength="144" x="42.5" y="265.0034">GameEngineStopPlay</text><ellipse cx="33.5" cy="277.7007" fill="none" rx="3" ry="3" style="stroke:#038048;stroke-width:1.0;"/><text fill="#000000" font-family="sans-serif" font-size="14" lengthAdjust="spacing" text-decoration="underline" textLength="65" x="42.5" y="281.4917">SaveLevel</text><ellipse cx="33.5" cy="294.189" fill="none" rx="3" ry="3" style="stroke:#038048;stroke-width:1.0;"/><text fill="#000000" font-family="sans-serif" font-size="14" lengthAdjust="spacing" text-decoration="underline" textLength="67" x="42.5" y="297.98">LoadLevel</text><ellipse cx="33.5" cy="310.6773" fill="none" rx="3" ry="3" style="stroke:#038048;stroke-width:1.0;"/><text fill="#000000" font-family="sans-serif" font-size="14" lengthAdjust="spacing" text-decoration="underline" textLength="68" x="42.5" y="314.4683">UserEvent</text><line style="stroke:#181818;stroke-width:0.5;" x1="23.5" x2="192.5" y1="321.4214" y2="321.4214"/></g></a><!--link game.observers.events.Event to game.observers.events.EventType--><g id="link_game.observers.events.Event_game.observers.events.EventType"><path codeLine="16" d="M108,122.15 C108,142.75 108,168.55 108,192.43 " fill="none" id="game.observers.events.Event-to-game.observers.events.EventType" style="stroke:#181818;stroke-width:1.0;"/><polygon fill="#181818" points="108,197.27,112,188.27,108,192.27,104,188.27,108,197.27" style="stroke:#181818;stroke-width:1.0;"/><text fill="#000000" font-family="sans-serif" font-size="13" lengthAdjust="spacing" textLength="27" x="109" y="165.5484">type</text></g><text fill="#888888" font-family="sans-serif" font-size="10" lengthAdjust="spacing" textLength="182" x="10.5" y="361.088">UMLDoclet 2.1.0, PlantUML 1.2022.14</text><!--SRC=[ZL6nRi903Dtp5Mz10W4dwCZ0LDGbbIf1feZXE5mQwN8NvKma5ENVwwI5C0I41zjwxvrilmC0ftCAXJQ4atJA7mAL5PL1KKME0-eemdyOgqF0fiMHfbrLFvpR_LvKk8jfnusxlBiKD1bYUx3fHv0xvxYzkqvf- -59TM3DcMam_P3jD-wKETgoBldBwiiBIbyy4MvrHR7OO1_miTV7PtmYLdRx3rtwP-DylkxFNO4bHtT28moL-FQ-BSbd_EwD9SQRMgh53BAxOq4nQdyiysuy-GK0]--></g></svg>